<svg xmlns="http://www.w3.org/2000/svg" width="60.718" height="67.439" viewBox="0 0 60.718 67.439">
  <g id="Grupo_1177309" data-name="Grupo 1177309" transform="translate(-1018 -5654.561)">
    <g id="Grupo_1177249" data-name="Grupo 1177249" transform="translate(1017.502 5654.56)">
      <path id="Trazado_996157" data-name="Trazado 996157" d="M150.6,288.877l17.554-1.919c1.134-9.273,1.02-20.186-3.8-26.6a.89.89,0,0,1-.707.35H147.169c-.165.479-.326.9-.473,1.257a2.265,2.265,0,0,1-2.093,1.4,6.885,6.885,0,0,0-2.38,3.9,1.022,1.022,0,0,1-.993.795H126.556c-1.369,5.8-1.174,12.67-.426,18.828l17.562,1.994v-1.556c0-3.058,1.618-4.357,2.638-4.873a1.8,1.8,0,0,1,1.627,0c1.02.515,2.638,1.815,2.638,4.872Zm0,0" transform="translate(-108.578 -226.061)" fill="#ff8088"/>
      <g id="Grupo_1177248" data-name="Grupo 1177248" transform="translate(17.267 27.912)">
        <path id="Trazado_996158" data-name="Trazado 996158" d="M128.523,270.365a35.6,35.6,0,0,0-.711,4.172h16.306a4.959,4.959,0,0,0,4.855-3.963,4.418,4.418,0,0,1,.321-.951,6.19,6.19,0,0,0,3.94-3.56,26.946,26.946,0,0,0,1.05-3.051h-5.147c-.165.48-.326.9-.473,1.258a2.265,2.265,0,0,1-2.093,1.4,6.888,6.888,0,0,0-2.38,3.9,1.022,1.022,0,0,1-.993.795H128.523Zm0,0" transform="translate(-127.812 -256.279)" fill="#ff646f"/>
        <path id="Trazado_996159" data-name="Trazado 996159" d="M129.727,459.754c.132,1.114.282,2.206.446,3.264a1.214,1.214,0,0,0,1.061,1.024l14.745,1.656a1.213,1.213,0,0,0,1.343-1.213v-2.734Zm0,0" transform="translate(-129.475 -427.107)" fill="#ff646f"/>
        <path id="Trazado_996160" data-name="Trazado 996160" d="M315.727,462.219v2.738a1.213,1.213,0,0,0,1.343,1.213l14.745-1.656a1.214,1.214,0,0,0,1.062-1.024c.16-1.036.307-2.1.437-3.193Zm0,0" transform="translate(-290.975 -427.578)" fill="#ff646f"/>
        <path id="Trazado_996161" data-name="Trazado 996161" d="M306.177,211.9H291.05a26.2,26.2,0,0,1-1.351,6.886h16.478a.9.9,0,0,0,.9-.9V212.8a.9.9,0,0,0-.9-.9Zm0,0" transform="translate(-268.376 -211.898)" fill="#ff646f"/>
      </g>
      <path id="Trazado_996162" data-name="Trazado 996162" d="M295.938,211.9H291.05a26.2,26.2,0,0,1-1.351,6.886h5.1A30.552,30.552,0,0,0,295.938,211.9Zm0,0" transform="translate(-251.109 -183.986)" fill="#ff4755"/>
      <path id="Trazado_996163" data-name="Trazado 996163" d="M290.614,238.035a25.43,25.43,0,0,1-.915,3.443h16.478a.9.9,0,0,0,.9-.9v-2.543Zm0,0" transform="translate(-251.109 -206.681)" fill="#ff4755"/>
      <path id="Trazado_996164" data-name="Trazado 996164" d="M295.572,238.035h-4.958a25.432,25.432,0,0,1-.915,3.443h5.1A30.257,30.257,0,0,0,295.572,238.035Zm0,0" transform="translate(-251.108 -206.681)" fill="#fc2b3a"/>
      <path id="Trazado_996165" data-name="Trazado 996165" d="M37.656,282.4a7.4,7.4,0,0,1,2.38,4.17,1.041,1.041,0,0,0,.994.851H65.838a1.04,1.04,0,0,0,.993-.851,7.407,7.407,0,0,1,2.38-4.17H37.656Zm0,0" transform="translate(-32.264 -245.198)" fill="#b4dbff"/>
      <path id="Trazado_996166" data-name="Trazado 996166" d="M43.988,286.564a7.4,7.4,0,0,0-2.38-4.17H37.656a7.4,7.4,0,0,1,2.38,4.17,1.041,1.041,0,0,0,.994.851h3.952A1.041,1.041,0,0,1,43.988,286.564Zm0,0" transform="translate(-32.264 -245.197)" fill="#8bcaff"/>
      <path id="Trazado_996167" data-name="Trazado 996167" d="M47,32.4a2.9,2.9,0,0,0-.868-1.96c-2.021-2-7.028-8.392-4.765-21a.736.736,0,0,0-.542-.843l-2.466-.63a.736.736,0,0,0-.907.586L34.593,24.876a7.406,7.406,0,0,1-14.639,0L17.091,8.554a.736.736,0,0,0-.907-.586L13.718,8.6a.735.735,0,0,0-.541.842c2.263,12.606-2.744,19-4.765,21a2.9,2.9,0,0,0-.868,1.96A25.883,25.883,0,0,0,9.4,43.075a2.266,2.266,0,0,0,2.093,1.39H43.051a2.266,2.266,0,0,0,2.093-1.39A25.893,25.893,0,0,0,47,32.4Zm0,0" transform="translate(-6.104 -6.898)" fill="#60b8ff"/>
      <path id="Trazado_996168" data-name="Trazado 996168" d="M13.356,43.075A25.878,25.878,0,0,1,11.5,32.4a2.9,2.9,0,0,1,.869-1.96c2.021-2,7.027-8.392,4.764-21a.734.734,0,0,1,.047-.415l-.083-.472a.736.736,0,0,0-.907-.586L13.719,8.6a.735.735,0,0,0-.541.842c2.263,12.606-2.744,19-4.765,21a2.9,2.9,0,0,0-.868,1.96A25.883,25.883,0,0,0,9.4,43.075a2.266,2.266,0,0,0,2.093,1.39h3.952a2.266,2.266,0,0,1-2.093-1.391Zm0,0" transform="translate(-6.105 -6.898)" fill="#22a7ff"/>
      <path id="Trazado_996169" data-name="Trazado 996169" d="M181.726,24.876l2.78-15.849a.734.734,0,0,0-.5-.428l-2.466-.63a.736.736,0,0,0-.907.586l-2.863,16.321A7.266,7.266,0,0,1,172.43,30.9a7.36,7.36,0,0,0,9.3-6.021Zm0,0" transform="translate(-149.286 -6.898)" fill="#22a7ff"/>
      <path id="Trazado_996170" data-name="Trazado 996170" d="M56.11,19.168,54.249,8.555a.736.736,0,0,0-.907-.586L50.875,8.6a.735.735,0,0,0-.541.842,30.9,30.9,0,0,1,.2,10.7c1.728-.3,3.839-.665,5.574-.971Zm0,0" transform="translate(-43.261 -6.898)" fill="#22a7ff"/>
      <path id="Trazado_996171" data-name="Trazado 996171" d="M50.333,9.442a31.18,31.18,0,0,1,.2,10.7h0c1.25-.216,2.7-.467,4.062-.705a31.485,31.485,0,0,0-.313-9.992.729.729,0,0,1,.046-.415l-.083-.472a.736.736,0,0,0-.907-.586L50.874,8.6a.735.735,0,0,0-.542.842Zm0,0" transform="translate(-43.261 -6.898)" fill="#0094fd"/>
      <path id="Trazado_996172" data-name="Trazado 996172" d="M220.609,19.168l1.862-10.614a.736.736,0,0,1,.907-.586l2.466.631a.735.735,0,0,1,.542.842,30.9,30.9,0,0,0-.2,10.7C224.454,19.84,222.343,19.474,220.609,19.168Zm0,0" transform="translate(-191.119 -6.898)" fill="#22a7ff"/>
      <path id="Trazado_996173" data-name="Trazado 996173" d="M225.844,8.6l-2.467-.631a.736.736,0,0,0-.907.586l-1.862,10.614c1.183.208,2.541.446,3.834.669l1.9-10.811A.72.72,0,0,0,225.844,8.6Zm0,0" transform="translate(-191.119 -6.898)" fill="#0094fd"/>
      <path id="Trazado_996174" data-name="Trazado 996174" d="M41.094,65.243a2.2,2.2,0,0,0,2.44,2.184l14.745-1.641a2.2,2.2,0,0,0,1.928-1.846,78.146,78.146,0,0,0,1-12.879.988.988,0,0,0-.987-.975h-.014a.987.987,0,0,0-.974,1,69.821,69.821,0,0,1-.457,8.639l-15.707,1.7c0-2.6-.926-4.758-3.185-5.888a2.818,2.818,0,0,0-2.511,0,5.924,5.924,0,0,0-3.184,5.712v.175L18.475,59.66a54.624,54.624,0,0,1,.356-16.513h14.8a2,2,0,0,0,1.955-1.55,6.1,6.1,0,0,1,1.793-3.122c1.6-.183,2.326-1.146,2.884-2.615H55.131a2.178,2.178,0,0,0,.413-.045,24.044,24.044,0,0,1,3.423,10.757.988.988,0,0,0,1.964-.216c-.544-4.967-1.879-8.985-3.965-11.958a1.88,1.88,0,0,0,.049-.423V28.912a1.886,1.886,0,0,0-1.884-1.884H41.956c.013-.525.012-1.063-.006-1.616a3.872,3.872,0,0,0-1.161-2.629c-5.044-4.994-5.747-13.1-4.487-20.123A1.729,1.729,0,0,0,35.032.686L32.566.055a1.725,1.725,0,0,0-2.125,1.372c-.095.54-2.606,14.855-2.862,16.321A6.31,6.31,0,0,1,23.24,22.9a.988.988,0,1,0,.593,1.884,8.226,8.226,0,0,0,5.691-6.7l.83-4.735c1.326.233,2.744.479,3.915.681A19.457,19.457,0,0,0,39.4,24.186a1.906,1.906,0,0,1,.576,1.291,25.109,25.109,0,0,1-1.785,10.262,1.273,1.273,0,0,1-1.181.782H5.454a1.274,1.274,0,0,1-1.181-.782A24.958,24.958,0,0,1,2.488,25.478a1.907,1.907,0,0,1,.576-1.291A19.453,19.453,0,0,0,8.193,14.037c1.173-.2,2.592-.449,3.915-.681l.83,4.735a8.226,8.226,0,0,0,5.691,6.7.988.988,0,1,0,.593-1.884,6.308,6.308,0,0,1-4.338-5.154c-.162-.926-2.709-15.448-2.863-16.322A1.724,1.724,0,0,0,9.9.055L7.431.686A1.729,1.729,0,0,0,6.162,2.66c1.254,6.99.58,15.1-4.488,20.123A3.874,3.874,0,0,0,.513,25.411,26.979,26.979,0,0,0,2.449,36.5a3.238,3.238,0,0,0,2.627,1.974,6.029,6.029,0,0,1,1.8,3.124,2,2,0,0,0,1.955,1.55h7.988c-1.283,6.511-.784,14.235.235,20.793a2.2,2.2,0,0,0,1.929,1.846l14.745,1.641a2.2,2.2,0,0,0,2.44-2.184v-3.99c0-2.4,1.139-3.467,2.093-3.945a.836.836,0,0,1,.743,0c.954.478,2.093,1.55,2.093,3.945,0,2.088,0,1.76,0,3.99ZM30.7,11.41,32.34,2.037l1.976.5a32.946,32.946,0,0,0-.368,9.435C32.927,11.8,31.78,11.6,30.7,11.41Zm-22.181.566a32.943,32.943,0,0,0-.367-9.435l1.976-.5,1.644,9.373-3.252.566ZM40.922,33.885c.072-.25.263-.975.37-1.452H55.039v1.452ZM41.838,29h13.2v1.453H41.659c.074-.5.136-1.012.179-1.453ZM8.8,41.146A8.257,8.257,0,0,0,7.664,38.5H34.8a8.326,8.326,0,0,0-1.132,2.649.033.033,0,0,1-.032.026H8.828a.033.033,0,0,1-.032-.026Zm25.393,24.1a.221.221,0,0,1-.246.22L19.2,63.822a.222.222,0,0,1-.2-.185c-.09-.578-.189-1.261-.282-1.961l15.468,1.741Zm24.34-3.5c-.066.5-.169,1.22-.274,1.9a.222.222,0,0,1-.194.185L43.315,65.463h0a.221.221,0,0,1-.245-.22V63.416Zm0,0" transform="translate(0 0)" fill="#231f20"/>
    </g>
  </g>
</svg>
