<svg xmlns="http://www.w3.org/2000/svg" width="84" height="84" viewBox="0 0 84 84">
  <g id="Grupo_1177310" data-name="Grupo 1177310" transform="translate(-185.711 -6217)">
    <g id="Grupo_1177251" data-name="Grupo 1177251" transform="translate(0 62)">
      <rect id="Rectángulo_454682" data-name="Rectángulo 454682" width="84" height="84" transform="translate(185.711 6155)" fill="#0048c5"/>
      <g id="Grupo_1177250" data-name="Grupo 1177250" transform="translate(172.332 6164)">
        <path id="Trazado_996175" data-name="Trazado 996175" d="M30.856,65.6a1.686,1.686,0,0,0-3.2,0l-2.093,6.226a3.584,3.584,0,0,0-.187,1.145v39.81a2.6,2.6,0,0,0,2.6,2.6h2.554a2.6,2.6,0,0,0,2.6-2.6V72.97a3.585,3.585,0,0,0-.187-1.145Zm-3.535,8.085h3.874v34.707H27.321Zm1.937-6.746,1.615,4.8h-3.23Zm1.277,46.5H27.981a.661.661,0,0,1-.66-.66v-2.448h3.874v2.448A.661.661,0,0,1,30.535,113.44Z" transform="translate(0 -56.107)" fill="#bee645"/>
        <path id="Trazado_996176" data-name="Trazado 996176" d="M150.3,3.475h-3.432v-.79a2.685,2.685,0,1,0-5.369,0v.79h-2.72v-.79a2.685,2.685,0,1,0-5.369,0v.79h-2.72v-.79a2.685,2.685,0,0,0-5.369,0v.79H122.6v-.79a2.685,2.685,0,0,0-5.369,0v.79h-2.72v-.79a2.685,2.685,0,1,0-5.369,0v.79h-3.433A2.527,2.527,0,0,0,103.181,6V63.757a2.527,2.527,0,0,0,2.524,2.524H150.3a2.527,2.527,0,0,0,2.524-2.524V35.041a.971.971,0,1,0-1.942,0V63.757a.583.583,0,0,1-.583.583h-44.59a.583.583,0,0,1-.583-.583V12.774h45.755V30.51a.971.971,0,1,0,1.942,0V6A2.527,2.527,0,0,0,150.3,3.475Zm-6.86-.79a.743.743,0,1,1,1.486,0V6.3a.743.743,0,1,1-1.486,0Zm-8.089,0a.743.743,0,1,1,1.486,0V6.3a.743.743,0,1,1-1.486,0Zm-8.089,0a.743.743,0,1,1,1.486,0V6.3a.743.743,0,1,1-1.486,0Zm-8.089,0a.743.743,0,1,1,1.486,0V6.3a.743.743,0,1,1-1.486,0Zm-8.089,0a.743.743,0,0,1,1.486,0V6.3a.743.743,0,0,1-1.486,0Zm-5.957,8.147V6a.583.583,0,0,1,.583-.583h3.433V6.3a2.685,2.685,0,1,0,5.369,0V5.416h2.72V6.3a2.685,2.685,0,0,0,5.369,0V5.416h2.72V6.3a2.685,2.685,0,0,0,5.369,0V5.416h2.72V6.3a2.685,2.685,0,0,0,5.369,0V5.416h2.72V6.3a2.685,2.685,0,0,0,5.369,0V5.416H150.3a.583.583,0,0,1,.583.583v4.833Z" transform="translate(-67.73)" fill="#bee645"/>
        <path id="Trazado_996177" data-name="Trazado 996177" d="M160.1,168.049a1.649,1.649,0,0,0,1.248.57h4.184a1.658,1.658,0,0,0,1.543-1.069l1.118-2.978,1.34,3.059a1.648,1.648,0,0,0,1.511.987h12.1a1.649,1.649,0,0,0,1.633-1.886L182.21,149.1a2,2,0,0,0,.48-1.3V145.78a2.008,2.008,0,0,0-1.3-1.875V133.74a2.605,2.605,0,0,0-.748-1.831c-.482-.493-2.225-2.345-2.769-2.9-.029-.029-.059-.056-.089-.082v-4.356a.971.971,0,1,0-1.942,0v4.316c-.021.017-.042.032-.062.05l-3.087,2.737a.679.679,0,0,1-.9,0l-3.087-2.738c-.02-.018-.041-.033-.062-.05v-4.317a.971.971,0,0,0-1.942,0v4.356c-.03.026-.06.053-.089.082-.544.554-2.287,2.406-2.769,2.9a2.6,2.6,0,0,0-.748,1.831v3.139a.971.971,0,0,0,1.942,0V133.74a.674.674,0,0,1,.195-.473c.5-.507,2.072-2.182,2.486-2.609l2.788,2.472a2.624,2.624,0,0,0,3.471,0l2.787-2.471c.413.426,1.991,2.1,2.486,2.609a.673.673,0,0,1,.194.473v10.033H165.041V141.41a.971.971,0,1,0-1.942,0v2.384a2.008,2.008,0,0,0-1.733,1.986V147.8a2,2,0,0,0,.862,1.646l-2.516,17.29A1.648,1.648,0,0,0,160.1,168.049Zm3.276-20.187a.065.065,0,0,1-.065-.065V145.78a.065.065,0,0,1,.065-.065h17.31a.065.065,0,0,1,.065.065V147.8a.065.065,0,0,1-.065.065Zm.765,1.942H180.35l2.456,16.874H171.232l-1.552-3.543a1.648,1.648,0,0,0-3.055.081l-1.3,3.462h-3.643Z" transform="translate(-116.928 -107.6)" fill="#bee645"/>
        <path id="Trazado_996178" data-name="Trazado 996178" d="M386.431,166.677a.971.971,0,1,0,0,1.942h3.06a1.75,1.75,0,0,0,1.748-1.748V125.348a1.75,1.75,0,0,0-1.748-1.748h-3.06a.971.971,0,1,0,0,1.942H389.3v2.5h-2.867a.971.971,0,0,0,0,1.942H389.3v2.536h-2.867a.971.971,0,0,0,0,1.942H389.3v9.314h-2.867a.971.971,0,0,0,0,1.942H389.3v2.147h-2.867a.971.971,0,0,0,0,1.942H389.3v16.874Z" transform="translate(-313.466 -107.599)" fill="#bee645"/>
      </g>
    </g>
  </g>
</svg>
