<svg xmlns="http://www.w3.org/2000/svg" width="77" height="77" viewBox="0 0 77 77">
  <g id="Grupo_1177305" data-name="Grupo 1177305" transform="translate(-421 -7308.434)">
    <g id="Grupo_1177254" data-name="Grupo 1177254" transform="translate(-28 72.123)">
      <rect id="Rectángulo_454685" data-name="Rectángulo 454685" width="77" height="77" rx="10" transform="translate(449 7236.311)" fill="#e5ecf9"/>
      <g id="Grupo_1177253" data-name="Grupo 1177253" transform="translate(406.148 7241)">
        <path id="Trazado_996179" data-name="Trazado 996179" d="M408.611,467.86H403.22a.065.065,0,0,0-.054.1l2.665,3.87a.065.065,0,0,0,.107,0l2.726-3.869a.066.066,0,0,0-.053-.1Z" transform="translate(-304.287 -406.987)" fill="#5fa8ed"/>
        <path id="Trazado_996180" data-name="Trazado 996180" d="M408.421,223.13l-2.665-3.869a.065.065,0,0,0-.107,0l-2.726,3.87a.065.065,0,0,0,.053.1h5.391a.065.065,0,0,0,.054-.1Z" transform="translate(-304.073 -188.372)" fill="#5fa8ed"/>
        <path id="Trazado_996181" data-name="Trazado 996181" d="M100.414,36.123l-.008-.006a1.6,1.6,0,0,0-1.323-.287A17.194,17.194,0,0,1,78.2,19.222a16.6,16.6,0,0,1,1.154-6.33,1.3,1.3,0,0,0-1.2-1.789l-12.7-.1a2.37,2.37,0,0,0-2.371,2.37v54.41a2.37,2.37,0,0,0,2.37,2.37h33.2a2.37,2.37,0,0,0,2.371-2.37V37.38a1.587,1.587,0,0,0-.62-1.258Z" transform="translate(-5.275 -5.276)" fill="#fae7e3"/>
        <path id="Trazado_996182" data-name="Trazado 996182" d="M66.513,67.779V13.37a2.379,2.379,0,0,1,2.047-2.343L65.269,11a2.375,2.375,0,0,0-2.377,2.37v54.41a2.391,2.391,0,0,0,2.395,2.37h3.621A2.391,2.391,0,0,1,66.513,67.779Z" transform="translate(-5.099 -5.276)" fill="#cebfbc"/>
        <g id="Grupo_1177252" data-name="Grupo 1177252" transform="translate(57.093 5)">
          <path id="Trazado_996183" data-name="Trazado 996183" d="M420.749,295.1a.724.724,0,0,0-1.449,0v2.9a.724.724,0,0,0,1.449,0Z" transform="translate(-375.577 -259.441)" fill="#284268"/>
          <path id="Trazado_996184" data-name="Trazado 996184" d="M420.024,390.372a.724.724,0,0,0-.724.724v2.9a.724.724,0,1,0,1.449,0v-2.9A.724.724,0,0,0,420.024,390.372Z" transform="translate(-375.577 -343.853)" fill="#284268"/>
          <path id="Trazado_996185" data-name="Trazado 996185" d="M420.749,343.1a.724.724,0,1,0-1.449,0v2.9a.724.724,0,0,0,1.449,0Z" transform="translate(-375.577 -301.647)" fill="#284268"/>
          <path id="Trazado_996186" data-name="Trazado 996186" d="M397.7,218.682h1.913v2.173a.724.724,0,0,0,1.449,0v-2.173h2.03a.79.79,0,0,0,.65-1.238l-2.666-3.87a.791.791,0,0,0-.646-.341h0a.791.791,0,0,0-.646.335l-2.726,3.869a.79.79,0,0,0,.646,1.244Zm2.72-3.507,1.418,2.058h-2.868Z" transform="translate(-355.888 -188.097)" fill="#284268"/>
          <path id="Trazado_996187" data-name="Trazado 996187" d="M403.339,441.207h-2.06V439.1a.724.724,0,0,0-1.449,0v2.111h-1.883a.79.79,0,0,0-.65,1.238l2.666,3.869a.79.79,0,0,0,.646.342h0a.791.791,0,0,0,.646-.335l2.726-3.869a.79.79,0,0,0-.645-1.245Zm-2.72,3.507-1.418-2.058h2.868Z" transform="translate(-356.108 -386.059)" fill="#284268"/>
          <path id="Trazado_996188" data-name="Trazado 996188" d="M271.107,279.509a.724.724,0,1,0,0,1.449h2.687a.724.724,0,1,0,0-1.449Z" transform="translate(-244.636 -246.372)" fill="#284268"/>
          <path id="Trazado_996189" data-name="Trazado 996189" d="M137.568,279.509a.724.724,0,1,0,0,1.449h2.687a.724.724,0,1,0,0-1.449Z" transform="translate(-127.217 -246.372)" fill="#284268"/>
          <path id="Trazado_996190" data-name="Trazado 996190" d="M228.656,280.958h.625a.724.724,0,0,0,0-1.449h-2.687a.724.724,0,1,0,0,1.449h.613v1.276a.724.724,0,0,0,1.449,0Z" transform="translate(-205.497 -246.372)" fill="#284268"/>
          <path id="Trazado_996191" data-name="Trazado 996191" d="M93.055,280.958h2.687a.724.724,0,1,0,0-1.449H93.055a.724.724,0,1,0,0,1.449Z" transform="translate(-88.077 -246.372)" fill="#284268"/>
          <path id="Trazado_996192" data-name="Trazado 996192" d="M182.081,279.509a.724.724,0,1,0,0,1.449h2.687a.724.724,0,1,0,0-1.449Z" transform="translate(-166.357 -246.372)" fill="#284268"/>
          <path id="Trazado_996193" data-name="Trazado 996193" d="M315.624,280.958h2.687a.724.724,0,1,0,0-1.449h-2.687a.724.724,0,1,0,0,1.449Z" transform="translate(-283.78 -246.372)" fill="#284268"/>
          <path id="Trazado_996194" data-name="Trazado 996194" d="M238.4,320.8a.724.724,0,1,0-1.449,0v2.9a.724.724,0,0,0,1.449,0Z" transform="translate(-215.239 -282.044)" fill="#284268"/>
          <path id="Trazado_996195" data-name="Trazado 996195" d="M238.4,368.8a.724.724,0,1,0-1.449,0v2.9a.724.724,0,0,0,1.449,0Z" transform="translate(-215.239 -324.25)" fill="#284268"/>
          <path id="Trazado_996196" data-name="Trazado 996196" d="M237.674,416.078a.724.724,0,0,0-.724.724v2.9a.724.724,0,1,0,1.449,0v-2.9A.724.724,0,0,0,237.674,416.078Z" transform="translate(-215.239 -366.456)" fill="#284268"/>
          <path id="Trazado_996197" data-name="Trazado 996197" d="M84.616,41.69a.724.724,0,0,0,.724-.724v-.241a.724.724,0,1,0-1.449,0v.241A.724.724,0,0,0,84.616,41.69Z" transform="translate(-80.657 -35.775)" fill="#284268"/>
          <path id="Trazado_996198" data-name="Trazado 996198" d="M83.892,73.83a.724.724,0,1,0,1.449,0V62.724a.724.724,0,0,0-1.449,0Z" transform="translate(-80.657 -55.119)" fill="#284268"/>
          <path id="Trazado_996199" data-name="Trazado 996199" d="M95.582,30.274l-.01-.008a2.324,2.324,0,0,0-1.921-.42,16.445,16.445,0,0,1-2.607.355.725.725,0,0,0,.069,1.449,17.822,17.822,0,0,0,2.849-.388.877.877,0,0,1,.725.153l.01.008a.866.866,0,0,1,.337.683v6.032H94.34a.745.745,0,0,0-.754.7.724.724,0,0,0,.724.747h.724V62.5a1.646,1.646,0,0,1-1.645,1.646H80.243a.736.736,0,0,0,.009-.111V61.171a.745.745,0,0,0-.7-.754.724.724,0,0,0-.747.724v2.9a.719.719,0,0,0,.009.111H60.187A1.646,1.646,0,0,1,58.542,62.5V39.585h.812a.744.744,0,0,0,.754-.7.724.724,0,0,0-.724-.747h-.842V8.094a1.646,1.646,0,0,1,1.64-1.646l12.7.1a.577.577,0,0,1,.482.265.591.591,0,0,1,.048.535,17.416,17.416,0,0,0-1.2,6.6A17.87,17.87,0,0,0,86.087,31.23a.725.725,0,1,0,.321-1.414A16.418,16.418,0,0,1,73.652,13.938a15.972,15.972,0,0,1,1.1-6.057,2.042,2.042,0,0,0-.179-1.849A2.021,2.021,0,0,0,72.889,5.1L60.187,5a3.1,3.1,0,0,0-3.094,3.094V62.5A3.094,3.094,0,0,0,60.187,65.6h33.2A3.094,3.094,0,0,0,96.483,62.5V32.1a2.323,2.323,0,0,0-.9-1.831Z" transform="translate(-57.093 -5)" fill="#284268"/>
        </g>
      </g>
    </g>
  </g>
</svg>
