<svg xmlns="http://www.w3.org/2000/svg" width="188" height="211" viewBox="0 0 188 211">
  <g id="Grupo_1177304" data-name="Grupo 1177304" transform="translate(-185.711 -340)">
    <g id="Grupo_1177082" data-name="Grupo 1177082" transform="translate(0 2)">
      <rect id="Rectángulo_454628" data-name="Rectángulo 454628" width="188" height="211" rx="20" transform="translate(185.711 338)" fill="#0048c5"/>
      <g id="Grupo_1177081" data-name="Grupo 1177081" transform="translate(200.213 355.999)">
        <path id="Trazado_992100" data-name="Trazado 992100" d="M190.55,334.366l45.552-4.979c2.943-24.062,2.646-52.381-9.856-69.031a2.309,2.309,0,0,1-1.835.909H181.654c-.427,1.244-.846,2.338-1.227,3.262A5.879,5.879,0,0,1,175,268.168a17.866,17.866,0,0,0-6.176,10.114,2.653,2.653,0,0,1-2.577,2.063H128.166c-3.551,15.042-3.045,32.878-1.1,48.858l45.573,5.175V330.34c0-7.935,4.2-11.306,6.847-12.644a4.678,4.678,0,0,1,4.223,0c2.648,1.336,6.847,4.709,6.847,12.643Zm0,0" transform="translate(-82.308 -171.366)" fill="#ff8088"/>
        <g id="Grupo_1177080" data-name="Grupo 1177080" transform="translate(44.014 72.427)">
          <path id="Trazado_992101" data-name="Trazado 992101" d="M129.656,282.092a92.38,92.38,0,0,0-1.844,10.825h42.312a12.868,12.868,0,0,0,12.6-10.283,11.464,11.464,0,0,1,.832-2.469,16.062,16.062,0,0,0,10.223-9.238,69.9,69.9,0,0,0,2.724-7.916H183.145c-.427,1.246-.846,2.338-1.227,3.263a5.877,5.877,0,0,1-5.431,3.64,17.872,17.872,0,0,0-6.176,10.114,2.652,2.652,0,0,1-2.577,2.063c-1.669,0-20.444,0-38.077,0Zm0,0" transform="translate(-127.812 -245.541)" fill="#ff646f"/>
          <path id="Trazado_992102" data-name="Trazado 992102" d="M129.727,459.754c.343,2.891.733,5.724,1.156,8.47a3.149,3.149,0,0,0,2.754,2.658l38.263,4.3a3.149,3.149,0,0,0,3.485-3.147v-7.094Zm0,0" transform="translate(-129.073 -375.037)" fill="#ff646f"/>
          <path id="Trazado_992103" data-name="Trazado 992103" d="M315.727,465.284v7.106a3.148,3.148,0,0,0,3.486,3.147l38.261-4.3a3.149,3.149,0,0,0,2.756-2.658c.414-2.688.8-5.458,1.134-8.285Zm0,0" transform="translate(-251.498 -375.395)" fill="#ff646f"/>
          <path id="Trazado_992104" data-name="Trazado 992104" d="M332.457,211.9H293.2a67.982,67.982,0,0,1-3.5,17.868h42.758a2.331,2.331,0,0,0,2.326-2.337v-13.2a2.331,2.331,0,0,0-2.326-2.335Zm0,0" transform="translate(-234.367 -211.898)" fill="#ff646f"/>
        </g>
        <path id="Trazado_992105" data-name="Trazado 992105" d="M305.887,211.9H293.2a67.982,67.982,0,0,1-3.5,17.868h13.243a79.276,79.276,0,0,0,2.944-17.868Zm0,0" transform="translate(-190.353 -139.471)" fill="#ff4755"/>
        <path id="Trazado_992106" data-name="Trazado 992106" d="M292.074,238.035a65.988,65.988,0,0,1-2.374,8.935h42.758a2.331,2.331,0,0,0,2.326-2.337v-6.6Zm0,0" transform="translate(-190.353 -156.674)" fill="#ff4755"/>
        <path id="Trazado_992107" data-name="Trazado 992107" d="M304.94,238.035H292.073a65.988,65.988,0,0,1-2.374,8.935h13.243a78.5,78.5,0,0,0,2-8.935Zm0,0" transform="translate(-190.353 -156.674)" fill="#fc2b3a"/>
        <path id="Trazado_992108" data-name="Trazado 992108" d="M37.656,282.395a19.214,19.214,0,0,1,6.175,10.82,2.7,2.7,0,0,0,2.578,2.208h64.376a2.7,2.7,0,0,0,2.577-2.208,19.22,19.22,0,0,1,6.176-10.82H37.656Zm0,0" transform="translate(-24.458 -185.872)" fill="#b4dbff"/>
        <path id="Trazado_992109" data-name="Trazado 992109" d="M54.085,293.215a19.214,19.214,0,0,0-6.175-10.82H37.656a19.208,19.208,0,0,1,6.175,10.82,2.7,2.7,0,0,0,2.578,2.208H56.663A2.7,2.7,0,0,1,54.085,293.215Zm0,0" transform="translate(-24.458 -185.872)" fill="#8bcaff"/>
        <path id="Trazado_992110" data-name="Trazado 992110" d="M109.966,71.4a7.529,7.529,0,0,0-2.252-5.087c-5.244-5.191-18.237-21.778-12.365-54.49a1.91,1.91,0,0,0-1.406-2.187l-6.4-1.636a1.91,1.91,0,0,0-2.354,1.521L77.76,51.878c-3.811,21.722-34.176,21.732-37.988,0L32.344,9.526A1.91,1.91,0,0,0,29.99,8.005l-6.4,1.637a1.908,1.908,0,0,0-1.4,2.186c5.872,32.712-7.12,49.3-12.365,54.491A7.525,7.525,0,0,0,7.568,71.4a67.163,67.163,0,0,0,4.827,27.7,5.879,5.879,0,0,0,5.431,3.608H99.708a5.88,5.88,0,0,0,5.431-3.608,67.191,67.191,0,0,0,4.827-27.7Zm0,0" transform="translate(-4.627 -5.229)" fill="#60b8ff"/>
        <path id="Trazado_992111" data-name="Trazado 992111" d="M22.649,99.1a67.151,67.151,0,0,1-4.828-27.7,7.53,7.53,0,0,1,2.254-5.087c5.244-5.191,18.235-21.778,12.363-54.49a1.9,1.9,0,0,1,.121-1.076l-.215-1.226a1.91,1.91,0,0,0-2.354-1.521l-6.4,1.637a1.908,1.908,0,0,0-1.4,2.186c5.872,32.712-7.12,49.3-12.365,54.491A7.525,7.525,0,0,0,7.568,71.4,67.163,67.163,0,0,0,12.4,99.1a5.879,5.879,0,0,0,5.431,3.608H28.08A5.879,5.879,0,0,1,22.649,99.1Zm0,0" transform="translate(-4.628 -5.229)" fill="#22a7ff"/>
        <path id="Trazado_992112" data-name="Trazado 992112" d="M196.553,51.878l7.214-41.126a1.9,1.9,0,0,0-1.286-1.111l-6.4-1.636a1.91,1.91,0,0,0-2.354,1.521L186.3,51.878C184.78,60.545,179.032,65.75,172.43,67.5c9.947,2.641,21.834-2.566,24.123-15.625Zm0,0" transform="translate(-113.166 -5.229)" fill="#22a7ff"/>
        <path id="Trazado_992113" data-name="Trazado 992113" d="M65.342,37.068,60.511,9.526a1.91,1.91,0,0,0-2.354-1.521l-6.4,1.637a1.908,1.908,0,0,0-1.4,2.186,80.191,80.191,0,0,1,.526,27.759c4.485-.776,9.963-1.726,14.464-2.519Zm0,0" transform="translate(-32.794 -5.229)" fill="#22a7ff"/>
        <path id="Trazado_992114" data-name="Trazado 992114" d="M50.351,11.828a80.911,80.911,0,0,1,.525,27.758h0c3.244-.561,7-1.212,10.541-1.83a81.7,81.7,0,0,0-.812-25.929,1.893,1.893,0,0,1,.12-1.076L60.51,9.526a1.91,1.91,0,0,0-2.354-1.521l-6.4,1.637a1.907,1.907,0,0,0-1.406,2.186Zm0,0" transform="translate(-32.794 -5.229)" fill="#0094fd"/>
        <path id="Trazado_992115" data-name="Trazado 992115" d="M220.609,37.068,225.44,9.526a1.91,1.91,0,0,1,2.354-1.521l6.4,1.637a1.908,1.908,0,0,1,1.406,2.186,80.191,80.191,0,0,0-.526,27.759c-4.486-.776-9.963-1.726-14.464-2.519Zm0,0" transform="translate(-144.878 -5.229)" fill="#22a7ff"/>
        <path id="Trazado_992116" data-name="Trazado 992116" d="M234.194,9.643l-6.4-1.637a1.91,1.91,0,0,0-2.354,1.521l-4.831,27.541c3.07.541,6.594,1.156,9.948,1.737l4.921-28.053A1.869,1.869,0,0,0,234.194,9.643Zm0,0" transform="translate(-144.878 -5.229)" fill="#0094fd"/>
        <path id="Trazado_992117" data-name="Trazado 992117" d="M105.842,169.3a5.712,5.712,0,0,0,6.331,5.666l38.263-4.258a5.715,5.715,0,0,0,5-4.789,202.783,202.783,0,0,0,2.6-33.42,2.564,2.564,0,0,0-2.562-2.529h-.036a2.562,2.562,0,0,0-2.527,2.6,181.174,181.174,0,0,1-1.187,22.417L110.968,159.4c0-6.753-2.4-12.346-8.265-15.279a7.313,7.313,0,0,0-6.517,0c-3.086,1.545-8.263,5.524-8.263,14.823v.455l-40.777-4.588c-1.457-13.261-1.976-29.073.924-42.85H86.487a5.192,5.192,0,0,0,5.074-4.023,15.836,15.836,0,0,1,4.653-8.1c4.158-.474,6.036-2.975,7.483-6.785h38.568a5.651,5.651,0,0,0,1.071-.117c4.625,6.929,7.61,16.3,8.883,27.914a2.563,2.563,0,1,0,5.1-.559c-1.413-12.89-4.876-23.316-10.29-31.029a4.878,4.878,0,0,0,.128-1.1V75.023a4.894,4.894,0,0,0-4.889-4.889H108.078c.033-1.362.032-2.758-.016-4.194a10.047,10.047,0,0,0-3.012-6.823C91.961,46.158,90.136,25.115,93.406,6.9a4.488,4.488,0,0,0-3.294-5.122L83.711.142A4.476,4.476,0,0,0,78.2,3.7c-.246,1.4-6.761,38.548-7.427,42.352-1.16,6.612-5.263,11.486-11.258,13.376a2.563,2.563,0,1,0,1.539,4.889c7.884-2.482,13.266-8.817,14.768-17.378l2.155-12.286c3.441.6,7.122,1.242,10.159,1.768,2.828,14.231,9.53,22.595,13.309,26.336a4.945,4.945,0,0,1,1.5,3.351A65.155,65.155,0,0,1,98.3,92.739a3.3,3.3,0,0,1-3.064,2.029H13.36a3.3,3.3,0,0,1-3.066-2.029A64.764,64.764,0,0,1,5.663,66.111a4.949,4.949,0,0,1,1.494-3.351c3.78-3.741,10.482-12.1,13.31-26.336,3.043-.527,6.725-1.166,10.159-1.768l2.155,12.286c1.5,8.564,6.885,14.9,14.768,17.38a2.563,2.563,0,1,0,1.539-4.889c-5.995-1.887-10.1-6.763-11.258-13.376C37.41,43.653,30.8,5.97,30.4,3.7A4.474,4.474,0,0,0,24.887.142l-6.4,1.636A4.488,4.488,0,0,0,15.2,6.9C18.449,25.039,16.7,46.1,3.55,59.117A10.053,10.053,0,0,0,.538,65.939,70.008,70.008,0,0,0,5.561,94.71a8.4,8.4,0,0,0,6.816,5.123,15.646,15.646,0,0,1,4.662,8.107,5.191,5.191,0,0,0,5.074,4.023H42.842c-3.33,16.895-2.035,36.938.609,53.956a5.712,5.712,0,0,0,5.005,4.789l38.261,4.258a5.7,5.7,0,0,0,6.331-5.666V158.945c0-6.215,2.955-9,5.431-10.238a2.169,2.169,0,0,1,1.929,0c2.477,1.24,5.43,4.023,5.43,10.238,0,5.418,0,4.566,0,10.354ZM78.86,29.606,83.125,5.284l5.128,1.31A85.491,85.491,0,0,0,87.3,31.076c-2.65-.459-5.626-.977-8.439-1.47ZM21.3,31.076a85.486,85.486,0,0,0-.953-24.483l5.127-1.31,4.266,24.322c-2.806.491-5.785,1.009-8.439,1.47Zm84.093,56.851c.186-.648.682-2.53.961-3.769h35.672v3.769Zm2.379-12.667h34.255v3.77H107.309c.192-1.29.354-2.626.465-3.77ZM22.031,106.768a21.426,21.426,0,0,0-2.937-6.873H89.508a21.607,21.607,0,0,0-2.937,6.873.087.087,0,0,1-.083.067H22.113a.087.087,0,0,1-.083-.067ZM87.924,169.3a.573.573,0,0,1-.638.571l-38.261-4.258a.577.577,0,0,1-.506-.481c-.232-1.5-.491-3.272-.733-5.088l40.139,4.517Zm63.16-9.086c-.171,1.294-.439,3.166-.712,4.919a.575.575,0,0,1-.5.481l-38.263,4.258h0a.573.573,0,0,1-.636-.571v-4.741Zm0,0" transform="translate(0 0)" fill="#231f20"/>
      </g>
    </g>
  </g>
</svg>
