<svg xmlns="http://www.w3.org/2000/svg" xmlns:xlink="http://www.w3.org/1999/xlink" width="704.35" height="564.845" viewBox="0 0 704.35 564.845">
  <defs>
    <clipPath id="clip-path">
      <rect id="Rectángulo_454747" data-name="Rectángulo 454747" width="704.35" height="564.845" fill="none"/>
    </clipPath>
  </defs>
  <g id="Grupo_1177306" data-name="Grupo 1177306" transform="translate(-447.711 -5233)">
    <path id="Trazado_996514" data-name="Trazado 996514" d="M1.523,0V-17.062h5.25A7.973,7.973,0,0,1,10.8-16.049a7.069,7.069,0,0,1,2.771,2.883,8.892,8.892,0,0,1,1,4.248v.785a8.917,8.917,0,0,1-.979,4.23,7.008,7.008,0,0,1-2.76,2.871A8.033,8.033,0,0,1,6.809,0ZM5.039-14.215V-2.824h1.7A3.818,3.818,0,0,0,9.891-4.172,6.09,6.09,0,0,0,11-8.027v-.9a6.187,6.187,0,0,0-1.078-3.943,3.8,3.8,0,0,0-3.152-1.342Zm22.348,6.82h-6.75v4.57h7.922V0H17.121V-17.062H28.535v2.848h-7.9v4.066h6.75Zm6.75,4.57H41.6V0H30.621V-17.062h3.516Zm19.552-.691H47.525L46.353,0H42.614l6.352-17.062h3.258L58.611,0H54.872ZM48.474-6.363h4.266L50.595-12.75ZM74.079,0H70.564L63.72-11.227V0H60.2V-17.062H63.72l6.855,11.25v-11.25h3.5ZM89.657-14.215H84.431V0H80.915V-14.215H75.759v-2.848h13.9Zm12.27,6.82h-6.75v4.57H103.1V0H91.661V-17.062h11.414v2.848h-7.9v4.066h6.75Zm9.551,1.148h-2.8V0h-3.516V-17.062h6.34a7.167,7.167,0,0,1,4.664,1.348,4.651,4.651,0,0,1,1.641,3.809,5.249,5.249,0,0,1-.756,2.912,5.155,5.155,0,0,1-2.291,1.857L118.45-.164V0h-3.773Zm-2.8-2.848h2.836a2.9,2.9,0,0,0,2.051-.674,2.408,2.408,0,0,0,.727-1.857,2.578,2.578,0,0,0-.686-1.9,2.849,2.849,0,0,0-2.1-.691h-2.824ZM130.11-3.516h-6.164L122.775,0h-3.738l6.352-17.062h3.258L135.032,0h-3.738ZM124.9-6.363h4.266l-2.145-6.387Z" transform="translate(628.691 5624.691)"/>
    <path id="Trazado_996515" data-name="Trazado 996515" d="M12.109-4.512A5.231,5.231,0,0,1,10.444-1.03,5.457,5.457,0,0,1,6.719.2,5.01,5.01,0,0,1,2.681-1.611,7.268,7.268,0,0,1,1.162-6.445V-7.812A8.1,8.1,0,0,1,1.87-11.3a5.288,5.288,0,0,1,2.007-2.31,5.588,5.588,0,0,1,3.008-.806,5.138,5.138,0,0,1,3.633,1.265,5.294,5.294,0,0,1,1.592,3.5H10.225a4.067,4.067,0,0,0-1.06-2.461,3.212,3.212,0,0,0-2.28-.762,3.356,3.356,0,0,0-2.817,1.328A6.093,6.093,0,0,0,3.047-7.764v1.377a6.263,6.263,0,0,0,.967,3.682A3.125,3.125,0,0,0,6.719-1.338a3.608,3.608,0,0,0,2.4-.708,3.929,3.929,0,0,0,1.108-2.466ZM18.77.2a4.617,4.617,0,0,1-3.5-1.411A5.237,5.237,0,0,1,13.926-4.99v-.332a6.341,6.341,0,0,1,.6-2.808,4.685,4.685,0,0,1,1.68-1.934,4.223,4.223,0,0,1,2.339-.7,3.957,3.957,0,0,1,3.2,1.357,5.877,5.877,0,0,1,1.143,3.887v.752H15.732a3.756,3.756,0,0,0,.913,2.524,2.87,2.87,0,0,0,2.222.962,3.147,3.147,0,0,0,1.621-.391A4.073,4.073,0,0,0,21.65-2.705l1.1.859A4.437,4.437,0,0,1,18.77.2Zm-.225-9.473a2.41,2.41,0,0,0-1.836.8,3.868,3.868,0,0,0-.918,2.231h5.293v-.137a3.441,3.441,0,0,0-.742-2.134A2.269,2.269,0,0,0,18.545-9.277Zm8.145-1.289.059,1.328a3.85,3.85,0,0,1,3.164-1.523q3.35,0,3.379,3.779V0H31.484V-6.992a2.432,2.432,0,0,0-.522-1.689,2.094,2.094,0,0,0-1.6-.547,2.607,2.607,0,0,0-1.543.469,3.183,3.183,0,0,0-1.035,1.23V0H24.98V-10.566Zm11.777-2.559v2.559h1.973v1.4H38.467v6.553a1.464,1.464,0,0,0,.264.952,1.11,1.11,0,0,0,.9.317,4.374,4.374,0,0,0,.859-.117V0A5.238,5.238,0,0,1,39.1.2a2.25,2.25,0,0,1-1.826-.732,3.147,3.147,0,0,1-.615-2.08V-9.17H34.736v-1.4H36.66v-2.559Zm9.189,4.18a5.414,5.414,0,0,0-.889-.068A2.381,2.381,0,0,0,44.355-7.5V0H42.549V-10.566h1.758l.029,1.221a2.813,2.813,0,0,1,2.52-1.416,1.846,1.846,0,0,1,.8.137Zm.806,3.564a6.241,6.241,0,0,1,.61-2.793,4.553,4.553,0,0,1,1.7-1.914,4.626,4.626,0,0,1,2.485-.674,4.456,4.456,0,0,1,3.491,1.494,5.748,5.748,0,0,1,1.333,3.975v.127A6.3,6.3,0,0,1,57.491-2.4,4.486,4.486,0,0,1,55.8-.488,4.679,4.679,0,0,1,53.277.2,4.445,4.445,0,0,1,49.8-1.3a5.719,5.719,0,0,1-1.333-3.955Zm1.816.215a4.52,4.52,0,0,0,.815,2.822,2.61,2.61,0,0,0,2.183,1.064,2.594,2.594,0,0,0,2.188-1.079,4.943,4.943,0,0,0,.811-3.022A4.513,4.513,0,0,0,55.45-8.2a2.623,2.623,0,0,0-2.192-1.079A2.594,2.594,0,0,0,51.1-8.213,4.906,4.906,0,0,0,50.279-5.166ZM67.105-9.287a3.841,3.841,0,0,1,3.125-1.475q3.35,0,3.379,3.779V0H71.8V-6.992a2.432,2.432,0,0,0-.522-1.689,2.094,2.094,0,0,0-1.6-.547,2.607,2.607,0,0,0-1.543.469,3.183,3.183,0,0,0-1.035,1.23V0H65.3V-15h1.807Zm8.73,3.906a6.241,6.241,0,0,1,.61-2.793,4.553,4.553,0,0,1,1.7-1.914,4.626,4.626,0,0,1,2.485-.674,4.456,4.456,0,0,1,3.491,1.494,5.748,5.748,0,0,1,1.333,3.975v.127A6.3,6.3,0,0,1,84.864-2.4,4.486,4.486,0,0,1,83.174-.488,4.679,4.679,0,0,1,80.65.2,4.445,4.445,0,0,1,77.169-1.3a5.719,5.719,0,0,1-1.333-3.955Zm1.816.215a4.52,4.52,0,0,0,.815,2.822A2.61,2.61,0,0,0,80.65-1.279a2.594,2.594,0,0,0,2.188-1.079,4.943,4.943,0,0,0,.811-3.022A4.513,4.513,0,0,0,82.823-8.2a2.623,2.623,0,0,0-2.192-1.079,2.594,2.594,0,0,0-2.158,1.064A4.906,4.906,0,0,0,77.652-5.166Zm11.768-5.4.049,1.172A3.9,3.9,0,0,1,92.6-10.762a3.021,3.021,0,0,1,3.018,1.7,4,4,0,0,1,1.372-1.23,4.052,4.052,0,0,1,2-.469q3.477,0,3.535,3.682V0h-1.807V-6.973a2.426,2.426,0,0,0-.518-1.694,2.279,2.279,0,0,0-1.738-.562,2.4,2.4,0,0,0-1.67.6,2.436,2.436,0,0,0-.771,1.616V0H94.2V-6.924a2.016,2.016,0,0,0-2.256-2.3,2.417,2.417,0,0,0-2.432,1.514V0H87.711V-10.566Zm24.775,5.4a6.283,6.283,0,0,1-1.113,3.892A3.557,3.557,0,0,1,110.093.2,3.683,3.683,0,0,1,107-1.221L106.91,0h-1.66V-15h1.807v5.6a3.663,3.663,0,0,1,3.018-1.357A3.579,3.579,0,0,1,113.1-9.307a6.471,6.471,0,0,1,1.1,3.984Zm-1.807-.205a4.882,4.882,0,0,0-.713-2.852,2.36,2.36,0,0,0-2.051-1.006,2.652,2.652,0,0,0-2.568,1.66V-3a2.727,2.727,0,0,0,2.588,1.66,2.347,2.347,0,0,0,2.021-1.006A5.192,5.192,0,0,0,112.388-5.371Zm9.189-3.574a5.414,5.414,0,0,0-.889-.068A2.381,2.381,0,0,0,118.277-7.5V0H116.47V-10.566h1.758l.029,1.221a2.813,2.813,0,0,1,2.52-1.416,1.846,1.846,0,0,1,.8.137Zm.806,3.564a6.241,6.241,0,0,1,.61-2.793,4.553,4.553,0,0,1,1.7-1.914,4.626,4.626,0,0,1,2.485-.674,4.456,4.456,0,0,1,3.491,1.494A5.748,5.748,0,0,1,132-5.293v.127a6.3,6.3,0,0,1-.591,2.769,4.486,4.486,0,0,1-1.689,1.909A4.679,4.679,0,0,1,127.2.2,4.445,4.445,0,0,1,123.717-1.3a5.719,5.719,0,0,1-1.333-3.955Zm1.816.215a4.52,4.52,0,0,0,.815,2.822A2.61,2.61,0,0,0,127.2-1.279a2.594,2.594,0,0,0,2.188-1.079,4.943,4.943,0,0,0,.811-3.022,4.513,4.513,0,0,0-.825-2.817,2.623,2.623,0,0,0-2.192-1.079,2.594,2.594,0,0,0-2.158,1.064A4.906,4.906,0,0,0,124.2-5.166Z" transform="translate(774.13 5468.11) rotate(-90)"/>
    <path id="Trazado_996516" data-name="Trazado 996516" d="M12.109-4.512A5.231,5.231,0,0,1,10.444-1.03,5.457,5.457,0,0,1,6.719.2,5.01,5.01,0,0,1,2.681-1.611,7.268,7.268,0,0,1,1.162-6.445V-7.812A8.1,8.1,0,0,1,1.87-11.3a5.288,5.288,0,0,1,2.007-2.31,5.588,5.588,0,0,1,3.008-.806,5.138,5.138,0,0,1,3.633,1.265,5.294,5.294,0,0,1,1.592,3.5H10.225a4.067,4.067,0,0,0-1.06-2.461,3.212,3.212,0,0,0-2.28-.762,3.356,3.356,0,0,0-2.817,1.328A6.093,6.093,0,0,0,3.047-7.764v1.377a6.263,6.263,0,0,0,.967,3.682A3.125,3.125,0,0,0,6.719-1.338a3.608,3.608,0,0,0,2.4-.708,3.929,3.929,0,0,0,1.108-2.466Zm1.8-.869a6.241,6.241,0,0,1,.61-2.793,4.553,4.553,0,0,1,1.7-1.914,4.626,4.626,0,0,1,2.485-.674,4.456,4.456,0,0,1,3.491,1.494,5.748,5.748,0,0,1,1.333,3.975v.127A6.3,6.3,0,0,1,22.935-2.4,4.486,4.486,0,0,1,21.245-.488,4.679,4.679,0,0,1,18.721.2,4.445,4.445,0,0,1,15.239-1.3a5.719,5.719,0,0,1-1.333-3.955Zm1.816.215a4.52,4.52,0,0,0,.815,2.822,2.61,2.61,0,0,0,2.183,1.064,2.594,2.594,0,0,0,2.188-1.079,4.943,4.943,0,0,0,.811-3.022A4.513,4.513,0,0,0,20.894-8.2,2.623,2.623,0,0,0,18.7-9.277a2.594,2.594,0,0,0-2.158,1.064A4.906,4.906,0,0,0,15.723-5.166Zm18.994,0a6.327,6.327,0,0,1-1.1,3.887A3.537,3.537,0,0,1,30.625.2,3.875,3.875,0,0,1,27.6-1.025V4.063H25.791V-10.566h1.65l.088,1.172A3.722,3.722,0,0,1,30.6-10.762a3.6,3.6,0,0,1,3.013,1.436,6.4,6.4,0,0,1,1.108,3.994ZM32.91-5.371a4.669,4.669,0,0,0-.762-2.822,2.454,2.454,0,0,0-2.09-1.035A2.656,2.656,0,0,0,27.6-7.773v5.049a2.661,2.661,0,0,0,2.48,1.445,2.442,2.442,0,0,0,2.065-1.03A5.1,5.1,0,0,0,32.91-5.371ZM43.535,0a3.8,3.8,0,0,1-.254-1.113A4.031,4.031,0,0,1,40.273.2,3.73,3.73,0,0,1,37.71-.688a2.859,2.859,0,0,1-1-2.241,2.987,2.987,0,0,1,1.255-2.563,5.916,5.916,0,0,1,3.53-.913h1.758v-.83a2.029,2.029,0,0,0-.566-1.509,2.276,2.276,0,0,0-1.67-.562,2.634,2.634,0,0,0-1.621.488,1.439,1.439,0,0,0-.654,1.182H36.924a2.493,2.493,0,0,1,.562-1.528,3.832,3.832,0,0,1,1.523-1.167,5.125,5.125,0,0,1,2.114-.43,4.177,4.177,0,0,1,2.861.913,3.294,3.294,0,0,1,1.074,2.515v4.863A5.946,5.946,0,0,0,45.43-.156V0Zm-3-1.377a3.175,3.175,0,0,0,1.611-.439,2.658,2.658,0,0,0,1.1-1.143V-5.127H41.836q-3.32,0-3.32,1.943a1.645,1.645,0,0,0,.566,1.328A2.177,2.177,0,0,0,40.537-1.377ZM52.4-5.371a6.19,6.19,0,0,1,1.152-3.911,3.644,3.644,0,0,1,3.018-1.479,3.665,3.665,0,0,1,2.939,1.27V-15h1.807V0h-1.66L59.57-1.133A3.679,3.679,0,0,1,56.553.2a3.609,3.609,0,0,1-2.993-1.5A6.26,6.26,0,0,1,52.4-5.234Zm1.807.205a4.687,4.687,0,0,0,.742,2.813A2.4,2.4,0,0,0,57-1.338a2.636,2.636,0,0,0,2.51-1.543V-7.734a2.656,2.656,0,0,0-2.49-1.494A2.411,2.411,0,0,0,54.951-8.2,5.16,5.16,0,0,0,54.209-5.166ZM68.506.2a4.617,4.617,0,0,1-3.5-1.411A5.237,5.237,0,0,1,63.662-4.99v-.332a6.341,6.341,0,0,1,.6-2.808,4.685,4.685,0,0,1,1.68-1.934,4.223,4.223,0,0,1,2.339-.7,3.957,3.957,0,0,1,3.2,1.357,5.877,5.877,0,0,1,1.143,3.887v.752H65.469a3.756,3.756,0,0,0,.913,2.524,2.87,2.87,0,0,0,2.222.962,3.147,3.147,0,0,0,1.621-.391,4.073,4.073,0,0,0,1.162-1.035l1.1.859A4.437,4.437,0,0,1,68.506.2Zm-.225-9.473a2.41,2.41,0,0,0-1.836.8,3.869,3.869,0,0,0-.918,2.231H70.82v-.137a3.441,3.441,0,0,0-.742-2.134A2.269,2.269,0,0,0,68.281-9.277ZM76.68,0H74.873V-15H76.68Zm9.414,0a3.8,3.8,0,0,1-.254-1.113A4.031,4.031,0,0,1,82.832.2a3.73,3.73,0,0,1-2.563-.884,2.859,2.859,0,0,1-1-2.241,2.987,2.987,0,0,1,1.255-2.563,5.916,5.916,0,0,1,3.53-.913h1.758v-.83a2.029,2.029,0,0,0-.566-1.509,2.276,2.276,0,0,0-1.67-.562,2.634,2.634,0,0,0-1.621.488A1.439,1.439,0,0,0,81.3-7.637H79.482a2.493,2.493,0,0,1,.562-1.528,3.832,3.832,0,0,1,1.523-1.167,5.125,5.125,0,0,1,2.114-.43,4.177,4.177,0,0,1,2.861.913,3.294,3.294,0,0,1,1.074,2.515v4.863a5.946,5.946,0,0,0,.371,2.314V0Zm-3-1.377a3.175,3.175,0,0,0,1.611-.439,2.658,2.658,0,0,0,1.1-1.143V-5.127H84.395q-3.32,0-3.32,1.943a1.645,1.645,0,0,0,.566,1.328A2.177,2.177,0,0,0,83.1-1.377Zm9.063-9.189.059,1.328a3.85,3.85,0,0,1,3.164-1.523q3.35,0,3.379,3.779V0H96.953V-6.992a2.432,2.432,0,0,0-.522-1.689,2.094,2.094,0,0,0-1.6-.547,2.607,2.607,0,0,0-1.543.469,3.183,3.183,0,0,0-1.035,1.23V0H90.449V-10.566Zm11.777-2.559v2.559h1.973v1.4h-1.973v6.553a1.464,1.464,0,0,0,.264.952,1.11,1.11,0,0,0,.9.317,4.374,4.374,0,0,0,.859-.117V0a5.238,5.238,0,0,1-1.387.2,2.25,2.25,0,0,1-1.826-.732,3.147,3.147,0,0,1-.615-2.08V-9.17h-1.924v-1.4h1.924v-2.559ZM112.4.2a4.617,4.617,0,0,1-3.5-1.411,5.237,5.237,0,0,1-1.348-3.774v-.332a6.341,6.341,0,0,1,.6-2.808,4.685,4.685,0,0,1,1.68-1.934,4.223,4.223,0,0,1,2.339-.7,3.957,3.957,0,0,1,3.2,1.357,5.877,5.877,0,0,1,1.143,3.887v.752h-7.158a3.756,3.756,0,0,0,.913,2.524,2.87,2.87,0,0,0,2.222.962,3.147,3.147,0,0,0,1.621-.391,4.073,4.073,0,0,0,1.162-1.035l1.1.859A4.437,4.437,0,0,1,112.4.2Zm-.225-9.473a2.41,2.41,0,0,0-1.836.8,3.869,3.869,0,0,0-.918,2.231h5.293v-.137a3.441,3.441,0,0,0-.742-2.134A2.269,2.269,0,0,0,112.178-9.277Zm11.543.332a5.414,5.414,0,0,0-.889-.068A2.381,2.381,0,0,0,120.42-7.5V0h-1.807V-10.566h1.758l.029,1.221a2.813,2.813,0,0,1,2.52-1.416,1.846,1.846,0,0,1,.8.137ZM131.134,0a3.8,3.8,0,0,1-.254-1.113A4.031,4.031,0,0,1,127.872.2a3.73,3.73,0,0,1-2.563-.884,2.859,2.859,0,0,1-1-2.241,2.987,2.987,0,0,1,1.255-2.563,5.916,5.916,0,0,1,3.53-.913h1.758v-.83a2.029,2.029,0,0,0-.566-1.509,2.276,2.276,0,0,0-1.67-.562,2.634,2.634,0,0,0-1.621.488,1.439,1.439,0,0,0-.654,1.182h-1.816a2.493,2.493,0,0,1,.562-1.528,3.832,3.832,0,0,1,1.523-1.167,5.125,5.125,0,0,1,2.114-.43,4.177,4.177,0,0,1,2.861.913,3.294,3.294,0,0,1,1.074,2.515v4.863a5.946,5.946,0,0,0,.371,2.314V0Zm-3-1.377a3.175,3.175,0,0,0,1.611-.439,2.658,2.658,0,0,0,1.1-1.143V-5.127h-1.416q-3.32,0-3.32,1.943a1.645,1.645,0,0,0,.566,1.328A2.177,2.177,0,0,0,128.136-1.377Z" transform="translate(611.644 5389.411) rotate(1.707)"/>
    <g id="Grupo_1177155" data-name="Grupo 1177155" transform="translate(447.711 5233)">
      <g id="Grupo_1177154" data-name="Grupo 1177154" clip-path="url(#clip-path)">
        <text id="Copa_trasera" data-name="Copa trasera" transform="translate(58.707 17.228)" font-size="20" font-family="Roboto-Regular, Roboto"><tspan x="0" y="0">Copa t</tspan><tspan y="0" letter-spacing="-0.019em">r</tspan><tspan y="0">ase</tspan><tspan y="0" letter-spacing="-0.019em">r</tspan><tspan y="0">a</tspan></text>
      </g>
    </g>
    <path id="Trazado_996517" data-name="Trazado 996517" d="M14.367-14.215H9.141V0H5.625V-14.215H.469v-2.848h13.9Zm8.32,7.969h-2.8V0H16.371V-17.062h6.34a7.167,7.167,0,0,1,4.664,1.348,4.651,4.651,0,0,1,1.641,3.809,5.249,5.249,0,0,1-.756,2.912,5.155,5.155,0,0,1-2.291,1.857L29.66-.164V0H25.887Zm-2.8-2.848h2.836a2.9,2.9,0,0,0,2.051-.674,2.408,2.408,0,0,0,.727-1.857,2.578,2.578,0,0,0-.686-1.9,2.849,2.849,0,0,0-2.1-.691H19.887ZM41.32-3.516H35.156L33.984,0H30.246L36.6-17.062h3.258L46.242,0H42.5ZM36.105-6.363h4.266L38.227-12.75ZM56.684-4.477a1.8,1.8,0,0,0-.7-1.529,9.222,9.222,0,0,0-2.531-1.125A17.944,17.944,0,0,1,50.555-8.3q-2.906-1.57-2.906-4.23a4.12,4.12,0,0,1,.779-2.467,5.083,5.083,0,0,1,2.238-1.693,8.425,8.425,0,0,1,3.275-.609,7.668,7.668,0,0,1,3.258.662,5.187,5.187,0,0,1,2.221,1.869,4.891,4.891,0,0,1,.791,2.742H56.7a2.3,2.3,0,0,0-.738-1.822,3.035,3.035,0,0,0-2.074-.65,3.242,3.242,0,0,0-2,.545,1.719,1.719,0,0,0-.715,1.436A1.646,1.646,0,0,0,52-11.121a9.466,9.466,0,0,0,2.467,1.055A10.658,10.658,0,0,1,58.84-7.828,4.458,4.458,0,0,1,60.211-4.5a4.106,4.106,0,0,1-1.676,3.475A7.336,7.336,0,0,1,54.023.234a8.712,8.712,0,0,1-3.586-.721,5.674,5.674,0,0,1-2.467-1.975,5.057,5.057,0,0,1-.85-2.906h3.527q0,2.824,3.375,2.824a3.283,3.283,0,0,0,1.957-.51A1.658,1.658,0,0,0,56.684-4.477ZM72.855-7.395h-6.75v4.57h7.922V0H62.59V-17.062H74v2.848h-7.9v4.066h6.75Zm9.551,1.148h-2.8V0H76.09V-17.062h6.34a7.167,7.167,0,0,1,4.664,1.348,4.651,4.651,0,0,1,1.641,3.809,5.249,5.249,0,0,1-.756,2.912,5.155,5.155,0,0,1-2.291,1.857L89.379-.164V0H85.605Zm-2.8-2.848h2.836a2.9,2.9,0,0,0,2.051-.674,2.408,2.408,0,0,0,.727-1.857,2.578,2.578,0,0,0-.686-1.9,2.849,2.849,0,0,0-2.1-.691H79.605Zm21.434,5.578H94.875L93.7,0H89.965l6.352-17.062h3.258L105.961,0h-3.738ZM95.824-6.363h4.266L97.945-12.75Z" transform="translate(869.074 5624.691)"/>
    <g id="Grupo_1177157" data-name="Grupo 1177157" transform="translate(447.711 5233)">
      <g id="Grupo_1177156" data-name="Grupo 1177156" clip-path="url(#clip-path)">
        <path id="Trazado_995611" data-name="Trazado 995611" d="M362.087,519.414h-.043L103.21,513.469A1.82,1.82,0,0,1,101.465,512L30.136,153.742a1.823,1.823,0,0,1,1.162-2.069c19.823-7.235,40.082-18.294,63.54-31.1,63.023-34.406,141.448-77.233,263.547-71.677a1.824,1.824,0,0,1,1.739,1.9,1.8,1.8,0,0,1-1.905,1.74c-121.043-5.5-199.007,37.046-261.632,71.235C74.529,135.815,53.67,147.2,34.016,154.557l70.74,355.3,257.371,5.91a1.824,1.824,0,0,1-.04,3.647" transform="translate(6.496 10.447)" fill="#0048c5"/>
        <path id="Trazado_995612" data-name="Trazado 995612" d="M38.331,155.313q-3.148,0-6.471-.117a1.824,1.824,0,1,1,.128-3.645c44.838,1.57,64.054-13.651,88.407-32.929,34.412-27.243,77.24-61.148,209.679-70.162a1.824,1.824,0,1,1,.247,3.639c-131.31,8.937-173.645,42.453-207.664,69.383-23.741,18.8-42.733,33.831-84.327,33.831" transform="translate(6.496 10.458)" fill="#0048c5"/>
        <path id="Trazado_995613" data-name="Trazado 995613" d="M300.367,52.243a1.824,1.824,0,0,1-.235-3.632,142.841,142.841,0,0,1,15.386-.8,1.848,1.848,0,0,1,1.843,1.8,1.826,1.826,0,0,1-1.806,1.844,143.629,143.629,0,0,0-14.953.771,1.735,1.735,0,0,1-.236.016" transform="translate(64.431 10.318)" fill="#0000b5"/>
        <g id="Grupo_1177164" data-name="Grupo 1177164">
          <g id="Grupo_1177163" data-name="Grupo 1177163">
            <path id="Trazado_995614" data-name="Trazado 995614" d="M591.176,139.074a1.826,1.826,0,0,1-.892-.233c-8.742-4.911-17.6-9.7-26.341-14.226a1.824,1.824,0,0,1,1.679-3.238c8.772,4.548,17.671,9.353,26.448,14.282a1.825,1.825,0,0,1-.894,3.415m-53.261-27.592a1.816,1.816,0,0,1-.779-.176c-9.085-4.308-18.263-8.451-27.279-12.313a1.824,1.824,0,0,1,1.437-3.353c9.058,3.881,18.279,8.043,27.4,12.37a1.824,1.824,0,0,1-.783,3.472m-55.145-23.6a1.813,1.813,0,0,1-.649-.119c-9.4-3.582-18.886-6.958-28.183-10.037a1.823,1.823,0,1,1,1.146-3.461c9.347,3.094,18.88,6.489,28.335,10.089a1.824,1.824,0,0,1-.649,3.528m-56.95-18.81a1.791,1.791,0,0,1-.49-.068c-9.73-2.708-19.49-5.15-29-7.26a1.824,1.824,0,1,1,.789-3.561c9.579,2.123,19.4,4.581,29.193,7.308a1.824,1.824,0,0,1-.488,3.581M367.258,56.166a1.782,1.782,0,0,1-.288-.023c-10.128-1.611-20.1-2.847-29.639-3.672a1.824,1.824,0,0,1,.314-3.634c9.627.833,19.685,2.079,29.9,3.7a1.823,1.823,0,0,1-.283,3.624" transform="translate(72.441 10.539)" fill="#4c3a71"/>
            <path id="Trazado_995615" data-name="Trazado 995615" d="M577.756,159.045a1.857,1.857,0,0,1-.326-.029,1.825,1.825,0,0,1-1.472-2.118l2.475-13.741c-3.944-2.455-7.936-4.9-11.883-7.284a1.824,1.824,0,1,1,1.886-3.122c4.313,2.6,8.68,5.283,12.976,7.966a1.824,1.824,0,0,1,.829,1.87l-2.692,14.957a1.825,1.825,0,0,1-1.793,1.5" transform="translate(122.08 28.593)" fill="#4c3a71"/>
            <path id="Trazado_995616" data-name="Trazado 995616" d="M531.268,451.278a1.746,1.746,0,0,1-.326-.029,1.825,1.825,0,0,1-1.472-2.118l5.431-30.166a1.824,1.824,0,0,1,3.59.646l-5.431,30.166a1.824,1.824,0,0,1-1.792,1.5m10.861-60.33a1.726,1.726,0,0,1-.325-.03,1.822,1.822,0,0,1-1.472-2.117l5.43-30.166a1.825,1.825,0,0,1,3.591.646l-5.431,30.166a1.826,1.826,0,0,1-1.793,1.5m10.861-60.331a1.857,1.857,0,0,1-.326-.029,1.826,1.826,0,0,1-1.472-2.118l5.431-30.166a1.824,1.824,0,0,1,3.59.646l-5.431,30.166a1.823,1.823,0,0,1-1.792,1.5m10.861-60.33a1.746,1.746,0,0,1-.325-.03,1.823,1.823,0,0,1-1.472-2.118l5.431-30.166a1.824,1.824,0,0,1,3.59.647l-5.431,30.166a1.826,1.826,0,0,1-1.793,1.5m10.862-60.331a1.855,1.855,0,0,1-.326-.029,1.825,1.825,0,0,1-1.472-2.118l5.431-30.166a1.824,1.824,0,1,1,3.59.646l-5.43,30.166a1.825,1.825,0,0,1-1.793,1.5" transform="translate(114.262 38.014)" fill="#4c3a71"/>
            <path id="Trazado_995617" data-name="Trazado 995617" d="M527.281,442.854h-.03l-15.2-.258a1.824,1.824,0,1,1,.061-3.647l13.645.232,2.417-13.43a1.824,1.824,0,1,1,3.59.646l-2.692,14.957a1.825,1.825,0,0,1-1.8,1.5" transform="translate(110.122 91.56)" fill="#4c3a71"/>
          </g>
          <path id="Trazado_995618" data-name="Trazado 995618" d="M514.3,440.025h-.033l-34.061-.576a1.824,1.824,0,0,1,.061-3.647l34.062.576a1.824,1.824,0,0,1-.029,3.647m-68.123-1.154h-.032l-34.062-.576a1.824,1.824,0,0,1,.062-3.647l34.062.576a1.824,1.824,0,0,1-.03,3.647m-68.123-1.154h-.032l-34.061-.578a1.824,1.824,0,1,1,.062-3.647l34.06.578a1.824,1.824,0,0,1-.029,3.647" transform="translate(73.846 93.554)" fill="#4c3a71"/>
        </g>
        <path id="Trazado_995619" data-name="Trazado 995619" d="M318.676,436.71h-.032l-15.2-.257a1.824,1.824,0,0,1,.061-3.647l15.2.257a1.824,1.824,0,0,1-.029,3.647" transform="translate(65.102 93.406)" fill="#0000b5"/>
        <rect id="Rectángulo_454748" data-name="Rectángulo 454748" width="3.04" height="1.216" transform="translate(364.799 172.95)" fill="aqua"/>
        <rect id="Rectángulo_454749" data-name="Rectángulo 454749" width="3.04" height="1.216" transform="translate(699.487 172.95)" fill="aqua"/>
        <rect id="Rectángulo_454750" data-name="Rectángulo 454750" width="1.216" height="3.04" transform="matrix(0.02, -1, 1, 0.02, 369.033, 528.531)" fill="aqua"/>
        <g id="Grupo_1177165" data-name="Grupo 1177165">
          <path id="Trazado_995621" data-name="Trazado 995621" d="M626.157,441.312l-6.179-.122.024-1.216,6.178.122Zm-12.356-.244-6.175-.122.022-1.216,6.178.122Zm-12.354-.244-6.178-.123.024-1.216,6.178.123Zm-12.355-.244-6.178-.123.023-1.216,6.179.123Zm-12.355-.244-6.178-.123.026-1.216,6.175.123Zm-12.355-.244-6.176-.123.023-1.216,6.179.123Zm-12.354-.246-6.178-.122.024-1.216,6.178.122Zm-12.354-.244-6.178-.12.023-1.216,6.179.12Zm-12.355-.243-6.178-.123.023-1.216,6.179.123Zm-12.356-.244-6.176-.123.023-1.216,6.178.123Zm-12.353-.244-6.179-.123.024-1.216,6.176.123Zm-12.356-.246-6.176-.122.023-1.216,6.178.122Zm-12.354-.244-6.179-.122.023-1.216,6.178.122Zm-12.356-.244-6.178-.122.024-1.216,6.179.122Zm-12.354-.244-6.178-.122.024-1.216,6.176.122Zm-12.356-.243-6.178-.123.026-1.216,6.178.123ZM428.48,437.4l-6.178-.123.024-1.216,6.176.123Zm-12.356-.246-6.178-.122.024-1.216,6.178.122Zm-12.354-.244-6.176-.122.022-1.216,6.178.122Zm-12.355-.244-6.178-.123.024-1.216,6.178.123Zm-12.354-.244-6.178-.123.022-1.216,6.178.123Zm-12.356-.244-6.178-.123.026-1.216,6.175.123Zm-12.355-.243-6.176-.123.023-1.216,6.178.123ZM342,435.69l-6.179-.122.026-1.216,6.178.122Zm-12.356-.244-6.175-.122.023-1.216,6.178.122Zm-12.353-.244-6.179-.123.024-1.216,6.179.123Z" transform="translate(67.142 93.634)" fill="#ffa200"/>
          <path id="Trazado_995622" data-name="Trazado 995622" d="M578.976,440.8l-3.662-.073.024-1.216,2.415.049-.015-2.416,1.216-.007Z" transform="translate(124.161 94.341)" fill="#ffa200"/>
          <g id="Grupo_1177162" data-name="Grupo 1177162">
            <path id="Trazado_995620" data-name="Trazado 995620" d="M627.092,143.466h-6.029V142.25h6.029Zm-12.06,0H609V142.25h6.03Zm-12.06,0h-6.03V142.25h6.03Zm-12.061,0h-6.029V142.25h6.029Zm-12.058,0h-6.029V142.25h6.029Zm-12.06,0h-6.03V142.25h6.03Zm-12.06,0H548.7V142.25h6.03Zm-12.061,0h-6.029V142.25h6.029Zm-12.06,0h-6.029V142.25h6.029Zm-12.06,0h-6.03V142.25h6.03Zm-12.06,0h-6.03V142.25h6.03Zm-12.061,0H488.4V142.25h6.029Zm-12.06,0h-6.029V142.25h6.029Zm-12.06,0h-6.03V142.25h6.03Zm-12.06,0h-6.03V142.25h6.03Zm-12.061,0h-6.029V142.25h6.029Zm-12.06,0H428.1V142.25h6.029Zm-12.06,0h-6.03V142.25h6.03Zm-12.06,0h-6.03V142.25h6.03Zm-12.061,0h-6.029V142.25h6.029Zm-12.06,0h-6.029V142.25h6.029Zm-12.058,0H367.8V142.25h6.03Zm-12.06,0h-6.03V142.25h6.03Zm-12.061,0h-6.029V142.25h6.029Zm-12.06,0h-6.029V142.25h6.029Zm-12.06,0h-6.03V142.25h6.03Zm-12.06,0h-6.03V142.25h6.03Z" transform="translate(66.364 30.7)" fill="#ffa200"/>
            <path id="Trazado_995623" data-name="Trazado 995623" d="M577.753,513.142l-.035-6.085,1.216-.007.035,6.085Zm-.072-12.169-.035-6.085,1.216-.007.035,6.085Zm-.07-12.169-.036-6.085,1.216-.007.036,6.085Zm-.072-12.169-.035-6.085,1.216-.006.035,6.084Zm-.071-12.169-.036-6.084,1.216-.007.036,6.084ZM577.4,452.3l-.035-6.084,1.216-.007.035,6.084Zm-.072-12.169-.035-6.084,1.216-.007.035,6.085Zm-.07-12.168-.037-6.085,1.216-.007.036,6.085Zm-.072-12.17-.035-6.084,1.216-.007.035,6.084Zm-.07-12.168-.036-6.085,1.216-.007.036,6.085Zm-.072-12.169-.035-6.085,1.216-.007.035,6.085Zm-.072-12.169-.035-6.084,1.216-.007.035,6.084Zm-.07-12.169-.035-6.085,1.216-.007.035,6.085Zm-.072-12.169-.035-6.085,1.216-.006.035,6.084Zm-.071-12.169-.036-6.084,1.216-.007.036,6.084Zm-.072-12.169-.035-6.084,1.216-.007.035,6.084Zm-.072-12.168-.035-6.085,1.216-.007.035,6.085Zm-.071-12.17-.035-6.084,1.216-.007.035,6.084Zm-.072-12.169-.035-6.084,1.216-.007.035,6.085Zm-.072-12.168-.036-6.085,1.216-.007.036,6.085Zm-.072-12.169-.035-6.085,1.216-.006.035,6.084Zm-.072-12.169-.035-6.084,1.216-.007.035,6.084Zm-.07-12.169-.035-6.085,1.216-.006.035,6.084Zm-.072-12.169-.035-6.084,1.216-.007.035,6.084Zm-.07-12.169L576.006,215l1.216-.007.036,6.084Zm-.072-12.169-.035-6.084,1.216-.007.035,6.085Zm-.07-12.168-.036-6.085,1.216-.007.036,6.085Zm-.072-12.17-.035-6.084,1.216-.007.035,6.085Zm-.072-12.168-.035-6.085,1.216-.007.035,6.085Zm-.071-12.169-.036-6.085,1.216-.006.036,6.084Zm-.072-12.169-.035-6.084,1.216-.007.035,6.084Zm-.071-12.169-.036-6.084,1.216-.007.036,6.084Zm-.072-12.169-.035-6.084,1.216-.007.035,6.085Zm-.072-12.168-.035-6.085,1.216-.007.035,6.085Zm-.07-12.17-.036-6.084,1.216-.007.036,6.085Zm-.072-12.168-.035-6.085,1.216-.007.035,6.085Zm-.07-12.169-.036-6.085,1.216-.006.036,6.084Zm-.072-12.169-.035-6.084L576.3,56.8l.035,6.084Z" transform="translate(124.111 12.258)" fill="#ffa200"/>
            <path id="Trazado_995624" data-name="Trazado 995624" d="M575.487,52.448l-.015-2.435h-2.435V48.8h3.644l.022,3.644Z" transform="translate(123.67 10.531)" fill="#ffa200"/>
            <path id="Trazado_995625" data-name="Trazado 995625" d="M626.569,50.013h-5.988V48.8h5.988Zm-11.975,0h-5.988V48.8h5.988Zm-11.976,0H596.63V48.8h5.988Zm-11.976,0h-5.988V48.8h5.988Zm-11.975,0H572.68V48.8h5.988Zm-11.976,0H560.7V48.8h5.988Zm-11.975,0H548.73V48.8h5.988Zm-11.976,0h-5.988V48.8h5.988Zm-11.976,0h-5.988V48.8h5.988Zm-11.975,0H512.8V48.8h5.988Zm-11.976,0h-5.988V48.8h5.988Zm-11.975,0h-5.988V48.8h5.988Zm-11.976,0h-5.988V48.8h5.988Zm-11.976,0H464.9V48.8h5.988Zm-11.975,0h-5.988V48.8h5.988Zm-11.976,0h-5.988V48.8h5.988Zm-11.975,0h-5.988V48.8h5.988Zm-11.976,0H417V48.8h5.988Zm-11.976,0h-5.988V48.8h5.988Zm-11.975,0h-5.988V48.8h5.988Zm-11.976,0h-5.988V48.8h5.988Zm-11.975,0H369.1V48.8h5.988Zm-11.976,0h-5.988V48.8h5.988Zm-11.976,0h-5.988V48.8h5.988Zm-11.975,0h-5.988V48.8h5.988Zm-11.976,0H321.2V48.8h5.988Zm-11.976,0h-5.988V48.8h5.988Zm-11.975,0h-5.988V48.8h5.988Z" transform="translate(64.15 10.531)" fill="#ffa200"/>
          </g>
        </g>
        <rect id="Rectángulo_454751" data-name="Rectángulo 454751" width="3.04" height="1.216" transform="translate(352.371 59.328)" fill="aqua"/>
        <path id="Trazado_995626" data-name="Trazado 995626" d="M304.415,518.114a.609.609,0,0,1-.608-.6l-6.484-468.1a.608.608,0,0,1,.6-.616h.008a.608.608,0,0,1,.608.6l6.484,468.1a.607.607,0,0,1-.6.616Z" transform="translate(64.167 10.531)"/>
        <path id="Trazado_995627" data-name="Trazado 995627" d="M358.087,145.192h-.018L31.691,135.466a.608.608,0,0,1,.035-1.216l326.38,9.727a.608.608,0,0,1-.018,1.216" transform="translate(6.712 28.973)"/>
        <path id="Trazado_995628" data-name="Trazado 995628" d="M103.037,513.1H103l-66.465-3.781a.609.609,0,0,1-.574-.6L31.1,45.087a.613.613,0,0,1,.179-.438.663.663,0,0,1,.439-.176L355.4,49.73a.609.609,0,0,1,.6.619.6.6,0,0,1-.618.6L32.323,45.7l4.851,462.439,65.9,3.75a.608.608,0,0,1-.034,1.215" transform="translate(6.712 9.598)"/>
        <path id="Trazado_995629" data-name="Trazado 995629" d="M40.316,46.616a6.175,6.175,0,1,1-6.175-6.175,6.175,6.175,0,0,1,6.175,6.175" transform="translate(6.035 8.728)"/>
        <path id="Trazado_995630" data-name="Trazado 995630" d="M43.951,425.434a6.175,6.175,0,1,1-6.175-6.175,6.175,6.175,0,0,1,6.175,6.175" transform="translate(6.82 90.482)"/>
        <path id="Trazado_995631" data-name="Trazado 995631" d="M98.951,430.513a6.175,6.175,0,1,1-6.175-6.175,6.175,6.175,0,0,1,6.175,6.175" transform="translate(18.69 91.579)"/>
        <path id="Trazado_995632" data-name="Trazado 995632" d="M307.316,50.393a6.175,6.175,0,1,1-6.175-6.175,6.175,6.175,0,0,1,6.175,6.175" transform="translate(63.658 9.543)"/>
        <path id="Trazado_995633" data-name="Trazado 995633" d="M310.428,434.069a6.176,6.176,0,1,1-6.176-6.175,6.176,6.176,0,0,1,6.176,6.175" transform="translate(64.33 92.346)"/>
        <path id="Trazado_995634" data-name="Trazado 995634" d="M307.316,143.847a6.175,6.175,0,1,1-6.175-6.175,6.175,6.175,0,0,1,6.175,6.175" transform="translate(63.658 29.712)"/>
        <path id="Trazado_995635" data-name="Trazado 995635" d="M284.2,50.393a6.176,6.176,0,1,1-6.176-6.175,6.176,6.176,0,0,1,6.176,6.175" transform="translate(58.669 9.543)"/>
        <path id="Trazado_995636" data-name="Trazado 995636" d="M40.316,135.94a6.175,6.175,0,1,1-6.175-6.174,6.174,6.174,0,0,1,6.175,6.174" transform="translate(6.035 28.005)"/>
        <path id="Trazado_995637" data-name="Trazado 995637" d="M277.037,284.063a.608.608,0,0,1-.608-.608V49.406a.608.608,0,0,1,1.216,0V283.455a.608.608,0,0,1-.608.608" transform="translate(59.658 10.531)"/>
        <path id="Trazado_995638" data-name="Trazado 995638" d="M93.706,99.24a1.215,1.215,0,0,1-1.216-1.216V26.967a1.216,1.216,0,0,1,2.432,0V98.024a1.215,1.215,0,0,1-1.216,1.216" transform="translate(19.961 5.557)"/>
        <path id="Trazado_995639" data-name="Trazado 995639" d="M95.543,100.954c-2.562-6.906-6.934-15.474-11.565-20.784l11.565,4.184,11.562-4.184c-4.631,5.311-9,13.879-11.562,20.784" transform="translate(18.124 17.302)"/>
        <path id="Trazado_995640" data-name="Trazado 995640" d="M141.354,126.182H105.776a1.216,1.216,0,0,1,0-2.432h35.578a1.216,1.216,0,0,1,0,2.432" transform="translate(22.566 26.707)"/>
        <path id="Trazado_995641" data-name="Trazado 995641" d="M93.49,126.8c6.906-2.562,15.474-6.934,20.784-11.565L110.091,126.8l4.184,11.562c-5.311-4.631-13.879-9-20.784-11.562" transform="translate(20.177 24.87)"/>
      </g>
    </g>
    <path id="Trazado_996518" data-name="Trazado 996518" d="M7.9-2.49H3.536L2.706,0H.058l4.5-12.086H6.865L11.389,0H8.741ZM4.208-4.507H7.23L5.711-9.031Z" transform="translate(481.752 5272.165)"/>
    <path id="Trazado_996519" data-name="Trazado 996519" d="M1.079,0V-12.086H5.313a5.559,5.559,0,0,1,3.337.843A2.881,2.881,0,0,1,9.787-8.774,2.731,2.731,0,0,1,9.33-7.209a2.637,2.637,0,0,1-1.27.992,2.551,2.551,0,0,1,1.465.938,2.773,2.773,0,0,1,.535,1.727A3.19,3.19,0,0,1,8.948-.913,5.007,5.007,0,0,1,5.777,0Zm2.49-5.263V-2H5.7A2.059,2.059,0,0,0,7.076-2.42,1.437,1.437,0,0,0,7.57-3.578,1.518,1.518,0,0,0,5.852-5.263Zm0-1.76H5.412Q7.3-7.056,7.3-8.525a1.388,1.388,0,0,0-.477-1.183,2.51,2.51,0,0,0-1.507-.361H3.569Z" transform="translate(482.062 5776.771)"/>
    <path id="Trazado_996520" data-name="Trazado 996520" d="M1.079,0V-12.086H5.313a5.559,5.559,0,0,1,3.337.843A2.881,2.881,0,0,1,9.787-8.774,2.731,2.731,0,0,1,9.33-7.209a2.637,2.637,0,0,1-1.27.992,2.551,2.551,0,0,1,1.465.938,2.773,2.773,0,0,1,.535,1.727A3.19,3.19,0,0,1,8.948-.913,5.007,5.007,0,0,1,5.777,0Zm2.49-5.263V-2H5.7A2.059,2.059,0,0,0,7.076-2.42,1.437,1.437,0,0,0,7.57-3.578,1.518,1.518,0,0,0,5.852-5.263Zm0-1.76H5.412Q7.3-7.056,7.3-8.525a1.388,1.388,0,0,0-.477-1.183,2.51,2.51,0,0,0-1.507-.361H3.569ZM17.5,0H15.1V-9.247l-2.864.888V-10.31L17.241-12.1H17.5Z" transform="translate(543.887 5776.771)"/>
    <g id="Grupo_1177159" data-name="Grupo 1177159" transform="translate(447.711 5233)">
      <g id="Grupo_1177158" data-name="Grupo 1177158" clip-path="url(#clip-path)">
        <text id="C" transform="translate(362.617 558.882)" font-size="17" font-family="Roboto-Bold, Roboto" font-weight="700"><tspan x="0" y="0">C</tspan></text>
        <text id="A1" transform="translate(0.005 169.096)" font-size="17" font-family="Roboto-Bold, Roboto" font-weight="700"><tspan x="0" y="0">A1</tspan></text>
      </g>
    </g>
    <path id="Trazado_996521" data-name="Trazado 996521" d="M1.079,0V-12.086H4.8a5.647,5.647,0,0,1,2.851.718A5.007,5.007,0,0,1,9.612-9.326a6.3,6.3,0,0,1,.706,3.009v.556a6.316,6.316,0,0,1-.693,3A4.964,4.964,0,0,1,7.67-.73,5.69,5.69,0,0,1,4.823,0Zm2.49-10.069V-2h1.2a2.7,2.7,0,0,0,2.233-.955,4.314,4.314,0,0,0,.789-2.731v-.639a4.382,4.382,0,0,0-.764-2.793,2.7,2.7,0,0,0-2.233-.95Z" transform="translate(810.366 5277.499)"/>
    <path id="Trazado_996522" data-name="Trazado 996522" d="M1.408-4.99l.506-4.963h5.1v1.169H2.987l-.3,2.714A3.212,3.212,0,0,1,4.348-6.5a2.746,2.746,0,0,1,2.16.9,3.523,3.523,0,0,1,.8,2.43A3.4,3.4,0,0,1,6.477-.749,3.027,3.027,0,0,1,4.156.137,3.146,3.146,0,0,1,2-.595a2.919,2.919,0,0,1-.95-2.023h1.2A2.009,2.009,0,0,0,2.857-1.33a1.892,1.892,0,0,0,1.3.434,1.706,1.706,0,0,0,1.384-.6,2.515,2.515,0,0,0,.5-1.661,2.308,2.308,0,0,0-.543-1.6,1.849,1.849,0,0,0-1.446-.6A2.085,2.085,0,0,0,2.755-5L2.42-4.73Z" transform="translate(1130.959 5344.968)"/>
    <path id="Trazado_996523" data-name="Trazado 996523" d="M1.408-4.99l.506-4.963h5.1v1.169H2.987l-.3,2.714A3.212,3.212,0,0,1,4.348-6.5a2.746,2.746,0,0,1,2.16.9,3.523,3.523,0,0,1,.8,2.43A3.4,3.4,0,0,1,6.477-.749,3.027,3.027,0,0,1,4.156.137,3.146,3.146,0,0,1,2-.595a2.919,2.919,0,0,1-.95-2.023h1.2A2.009,2.009,0,0,0,2.857-1.33a1.892,1.892,0,0,0,1.3.434,1.706,1.706,0,0,0,1.384-.6,2.515,2.515,0,0,0,.5-1.661,2.308,2.308,0,0,0-.543-1.6,1.849,1.849,0,0,0-1.446-.6A2.085,2.085,0,0,0,2.755-5L2.42-4.73Z" transform="translate(489.971 5344.968)"/>
    <path id="Trazado_996524" data-name="Trazado 996524" d="M4.983,0H3.712V-8.429l-2.55.937V-8.641L4.785-10h.2ZM8.777,1.982,8.06,1.49a3.3,3.3,0,0,0,.67-1.846V-1.5H9.967v.991A3.114,3.114,0,0,1,9.628.875,3.233,3.233,0,0,1,8.777,1.982Zm3.24-6.973.506-4.963h5.1v1.169H13.6L13.3-6.07A3.212,3.212,0,0,1,14.957-6.5a2.746,2.746,0,0,1,2.16.9,3.523,3.523,0,0,1,.8,2.43,3.4,3.4,0,0,1-.831,2.423,3.027,3.027,0,0,1-2.321.885,3.146,3.146,0,0,1-2.153-.731,2.919,2.919,0,0,1-.95-2.023h1.2a2.009,2.009,0,0,0,.608,1.289,1.892,1.892,0,0,0,1.3.434,1.706,1.706,0,0,0,1.384-.6,2.515,2.515,0,0,0,.5-1.661,2.308,2.308,0,0,0-.543-1.6,1.849,1.849,0,0,0-1.446-.6,2.085,2.085,0,0,0-1.3.362l-.335.273Z" transform="translate(790.886 5284.499)"/>
    <path id="Trazado_996525" data-name="Trazado 996525" d="M1.079,0V-12.086H4.8a5.647,5.647,0,0,1,2.851.718A5.007,5.007,0,0,1,9.612-9.326a6.3,6.3,0,0,1,.706,3.009v.556a6.316,6.316,0,0,1-.693,3A4.964,4.964,0,0,1,7.67-.73,5.69,5.69,0,0,1,4.823,0Zm2.49-10.069V-2h1.2a2.7,2.7,0,0,0,2.233-.955,4.314,4.314,0,0,0,.789-2.731v-.639a4.382,4.382,0,0,0-.764-2.793,2.7,2.7,0,0,0-2.233-.95ZM20.154,0H11.87V-1.644l3.91-4.167a9.645,9.645,0,0,0,1.191-1.536,2.467,2.467,0,0,0,.386-1.245,1.846,1.846,0,0,0-.407-1.266,1.468,1.468,0,0,0-1.162-.461,1.584,1.584,0,0,0-1.282.56,2.219,2.219,0,0,0-.469,1.473H11.629a3.962,3.962,0,0,1,.527-2.017,3.715,3.715,0,0,1,1.49-1.432,4.529,4.529,0,0,1,2.183-.519,4.288,4.288,0,0,1,2.9.9,3.172,3.172,0,0,1,1.033,2.532A4.064,4.064,0,0,1,19.3-7a10.148,10.148,0,0,1-1.594,2.167l-2.748,2.9h5.2Z" transform="translate(757.57 5313.974)"/>
    <path id="Trazado_996526" data-name="Trazado 996526" d="M1.079,0V-12.086H4.8a5.647,5.647,0,0,1,2.851.718A5.007,5.007,0,0,1,9.612-9.326a6.3,6.3,0,0,1,.706,3.009v.556a6.316,6.316,0,0,1-.693,3A4.964,4.964,0,0,1,7.67-.73,5.69,5.69,0,0,1,4.823,0Zm2.49-10.069V-2h1.2a2.7,2.7,0,0,0,2.233-.955,4.314,4.314,0,0,0,.789-2.731v-.639a4.382,4.382,0,0,0-.764-2.793,2.7,2.7,0,0,0-2.233-.95ZM17.7,0H15.3V-9.247l-2.864.888V-10.31L17.44-12.1H17.7Z" transform="translate(816.495 5395.932)"/>
  </g>
</svg>
