<svg xmlns="http://www.w3.org/2000/svg" xmlns:xlink="http://www.w3.org/1999/xlink" width="542.809" height="447.333" viewBox="0 0 542.809 447.333">
  <defs>
    <clipPath id="clip-path">
      <rect id="Rectángulo_454785" data-name="Rectángulo 454785" width="542.809" height="447.333" fill="none"/>
    </clipPath>
  </defs>
  <g id="Grupo_1177306" data-name="Grupo 1177306" transform="translate(-216.711 -14450)">
    <path id="Trazado_996514" data-name="Trazado 996514" d="M2.3-1h4.38V0h-5.6V-9.242H2.3ZM9.16,0H7.979V-6.868H9.16Zm.013-9.744h1.422l-1.7,1.866H7.947Zm3.034,2.875L12.245-6A2.5,2.5,0,0,1,14.3-7q2.177,0,2.2,2.457V0H15.323V-4.545a1.581,1.581,0,0,0-.34-1.1A1.361,1.361,0,0,0,13.946-6a1.7,1.7,0,0,0-1,.3,2.069,2.069,0,0,0-.673.8V0H11.1V-6.868Zm8.912,7A3,3,0,0,1,18.846-.79a3.4,3.4,0,0,1-.876-2.453v-.216a4.121,4.121,0,0,1,.39-1.825,3.045,3.045,0,0,1,1.092-1.257A2.745,2.745,0,0,1,20.973-7a2.572,2.572,0,0,1,2.082.882A3.82,3.82,0,0,1,23.8-3.586V-3.1H19.145a2.441,2.441,0,0,0,.594,1.641,1.866,1.866,0,0,0,1.444.625,2.045,2.045,0,0,0,1.054-.254,2.648,2.648,0,0,0,.755-.673l.717.559A2.884,2.884,0,0,1,21.119.127ZM20.973-6.03a1.566,1.566,0,0,0-1.193.517,2.515,2.515,0,0,0-.6,1.45h3.44v-.089a2.237,2.237,0,0,0-.482-1.387A1.475,1.475,0,0,0,20.973-6.03ZM29.4,0a2.467,2.467,0,0,1-.165-.724,2.62,2.62,0,0,1-1.955.851A2.424,2.424,0,0,1,25.61-.448,1.859,1.859,0,0,1,24.959-1.9a1.942,1.942,0,0,1,.816-1.666,3.846,3.846,0,0,1,2.295-.594h1.143V-4.7a1.319,1.319,0,0,0-.368-.981,1.48,1.48,0,0,0-1.085-.365,1.712,1.712,0,0,0-1.054.317.935.935,0,0,0-.425.768H25.1a1.621,1.621,0,0,1,.365-.993,2.491,2.491,0,0,1,.99-.759A3.331,3.331,0,0,1,27.828-7a2.715,2.715,0,0,1,1.86.594,2.141,2.141,0,0,1,.7,1.635v3.161a3.865,3.865,0,0,0,.241,1.5V0ZM27.447-.9a2.064,2.064,0,0,0,1.047-.286,1.728,1.728,0,0,0,.717-.743V-3.333h-.92q-2.158,0-2.158,1.263a1.069,1.069,0,0,0,.368.863A1.415,1.415,0,0,0,27.447-.9ZM38.2-.832a1.692,1.692,0,0,0,1.1-.381,1.34,1.34,0,0,0,.521-.952H40.93a2.13,2.13,0,0,1-.406,1.124,2.676,2.676,0,0,1-1,.851A2.885,2.885,0,0,1,38.2.127a2.829,2.829,0,0,1-2.231-.936,3.729,3.729,0,0,1-.828-2.561v-.2a4.135,4.135,0,0,1,.368-1.784,2.8,2.8,0,0,1,1.057-1.212A3,3,0,0,1,38.194-7a2.755,2.755,0,0,1,1.92.692,2.473,2.473,0,0,1,.816,1.8H39.819a1.618,1.618,0,0,0-.5-1.095,1.57,1.57,0,0,0-1.12-.428,1.644,1.644,0,0,0-1.387.644,3.026,3.026,0,0,0-.492,1.863V-3.3A2.965,2.965,0,0,0,36.8-1.473,1.651,1.651,0,0,0,38.2-.832ZM43.526,0H42.352V-6.868h1.174Zm-1.27-8.69a.7.7,0,0,1,.175-.482.655.655,0,0,1,.517-.2.666.666,0,0,1,.521.2.694.694,0,0,1,.178.482.671.671,0,0,1-.178.476.678.678,0,0,1-.521.19.667.667,0,0,1-.517-.19A.678.678,0,0,1,42.256-8.69Zm4.259,1.822L46.554-6A2.5,2.5,0,0,1,48.61-7q2.177,0,2.2,2.457V0H49.632V-4.545a1.581,1.581,0,0,0-.34-1.1A1.361,1.361,0,0,0,48.255-6a1.7,1.7,0,0,0-1,.3,2.069,2.069,0,0,0-.673.8V0H45.4V-6.868Zm7.655-1.663v1.663h1.282v.908H54.171V-1.7a.951.951,0,0,0,.171.619.722.722,0,0,0,.584.206,2.843,2.843,0,0,0,.559-.076V0a3.4,3.4,0,0,1-.9.127A1.462,1.462,0,0,1,53.4-.349,2.045,2.045,0,0,1,53-1.7V-5.96h-1.25v-.908H53V-8.531ZM61.064-.679a2.494,2.494,0,0,1-2.012.806A2.135,2.135,0,0,1,57.38-.511,2.761,2.761,0,0,1,56.8-2.4V-6.868h1.174v4.437q0,1.562,1.27,1.562a1.758,1.758,0,0,0,1.79-1v-5h1.174V0H61.09Zm6.246-5.135a3.519,3.519,0,0,0-.578-.044,1.547,1.547,0,0,0-1.568.984V0H63.991V-6.868h1.143l.019.793A1.829,1.829,0,0,1,66.79-7a1.2,1.2,0,0,1,.521.089ZM72.129,0a2.467,2.467,0,0,1-.165-.724,2.62,2.62,0,0,1-1.955.851,2.424,2.424,0,0,1-1.666-.574A1.859,1.859,0,0,1,67.692-1.9a1.942,1.942,0,0,1,.816-1.666A3.846,3.846,0,0,1,70.8-4.164h1.143V-4.7a1.319,1.319,0,0,0-.368-.981,1.48,1.48,0,0,0-1.085-.365,1.712,1.712,0,0,0-1.054.317.935.935,0,0,0-.425.768H67.832a1.621,1.621,0,0,1,.365-.993,2.491,2.491,0,0,1,.99-.759A3.331,3.331,0,0,1,70.561-7a2.715,2.715,0,0,1,1.86.594,2.141,2.141,0,0,1,.7,1.635v3.161A3.865,3.865,0,0,0,73.36-.1V0ZM70.18-.9a2.064,2.064,0,0,0,1.047-.286,1.728,1.728,0,0,0,.717-.743V-3.333h-.92q-2.158,0-2.158,1.263a1.069,1.069,0,0,0,.368.863A1.415,1.415,0,0,0,70.18-.9Z" transform="translate(611.339 14784.592)"/>
    <path id="Trazado_996515" data-name="Trazado 996515" d="M2.3-1h4.38V0h-5.6V-9.242H2.3ZM9.16,0H7.979V-6.868H9.16Zm.013-9.744h1.422l-1.7,1.866H7.947Zm3.034,2.875L12.245-6A2.5,2.5,0,0,1,14.3-7q2.177,0,2.2,2.457V0H15.323V-4.545a1.581,1.581,0,0,0-.34-1.1A1.361,1.361,0,0,0,13.946-6a1.7,1.7,0,0,0-1,.3,2.069,2.069,0,0,0-.673.8V0H11.1V-6.868Zm8.912,7A3,3,0,0,1,18.846-.79a3.4,3.4,0,0,1-.876-2.453v-.216a4.121,4.121,0,0,1,.39-1.825,3.045,3.045,0,0,1,1.092-1.257A2.745,2.745,0,0,1,20.973-7a2.572,2.572,0,0,1,2.082.882A3.82,3.82,0,0,1,23.8-3.586V-3.1H19.145a2.441,2.441,0,0,0,.594,1.641,1.866,1.866,0,0,0,1.444.625,2.045,2.045,0,0,0,1.054-.254,2.648,2.648,0,0,0,.755-.673l.717.559A2.884,2.884,0,0,1,21.119.127ZM20.973-6.03a1.566,1.566,0,0,0-1.193.517,2.515,2.515,0,0,0-.6,1.45h3.44v-.089a2.237,2.237,0,0,0-.482-1.387A1.475,1.475,0,0,0,20.973-6.03ZM29.4,0a2.467,2.467,0,0,1-.165-.724,2.62,2.62,0,0,1-1.955.851A2.424,2.424,0,0,1,25.61-.448,1.859,1.859,0,0,1,24.959-1.9a1.942,1.942,0,0,1,.816-1.666,3.846,3.846,0,0,1,2.295-.594h1.143V-4.7a1.319,1.319,0,0,0-.368-.981,1.48,1.48,0,0,0-1.085-.365,1.712,1.712,0,0,0-1.054.317.935.935,0,0,0-.425.768H25.1a1.621,1.621,0,0,1,.365-.993,2.491,2.491,0,0,1,.99-.759A3.331,3.331,0,0,1,27.828-7a2.715,2.715,0,0,1,1.86.594,2.141,2.141,0,0,1,.7,1.635v3.161a3.865,3.865,0,0,0,.241,1.5V0ZM27.447-.9a2.064,2.064,0,0,0,1.047-.286,1.728,1.728,0,0,0,.717-.743V-3.333h-.92q-2.158,0-2.158,1.263a1.069,1.069,0,0,0,.368.863A1.415,1.415,0,0,0,27.447-.9ZM38.2-.832a1.692,1.692,0,0,0,1.1-.381,1.34,1.34,0,0,0,.521-.952H40.93a2.13,2.13,0,0,1-.406,1.124,2.676,2.676,0,0,1-1,.851A2.885,2.885,0,0,1,38.2.127a2.829,2.829,0,0,1-2.231-.936,3.729,3.729,0,0,1-.828-2.561v-.2a4.135,4.135,0,0,1,.368-1.784,2.8,2.8,0,0,1,1.057-1.212A3,3,0,0,1,38.194-7a2.755,2.755,0,0,1,1.92.692,2.473,2.473,0,0,1,.816,1.8H39.819a1.618,1.618,0,0,0-.5-1.095,1.57,1.57,0,0,0-1.12-.428,1.644,1.644,0,0,0-1.387.644,3.026,3.026,0,0,0-.492,1.863V-3.3A2.965,2.965,0,0,0,36.8-1.473,1.651,1.651,0,0,0,38.2-.832ZM43.526,0H42.352V-6.868h1.174Zm-1.27-8.69a.7.7,0,0,1,.175-.482.655.655,0,0,1,.517-.2.666.666,0,0,1,.521.2.694.694,0,0,1,.178.482.671.671,0,0,1-.178.476.678.678,0,0,1-.521.19.667.667,0,0,1-.517-.19A.678.678,0,0,1,42.256-8.69Zm4.259,1.822L46.554-6A2.5,2.5,0,0,1,48.61-7q2.177,0,2.2,2.457V0H49.632V-4.545a1.581,1.581,0,0,0-.34-1.1A1.361,1.361,0,0,0,48.255-6a1.7,1.7,0,0,0-1,.3,2.069,2.069,0,0,0-.673.8V0H45.4V-6.868Zm7.655-1.663v1.663h1.282v.908H54.171V-1.7a.951.951,0,0,0,.171.619.722.722,0,0,0,.584.206,2.843,2.843,0,0,0,.559-.076V0a3.4,3.4,0,0,1-.9.127A1.462,1.462,0,0,1,53.4-.349,2.045,2.045,0,0,1,53-1.7V-5.96h-1.25v-.908H53V-8.531ZM61.064-.679a2.494,2.494,0,0,1-2.012.806A2.135,2.135,0,0,1,57.38-.511,2.761,2.761,0,0,1,56.8-2.4V-6.868h1.174v4.437q0,1.562,1.27,1.562a1.758,1.758,0,0,0,1.79-1v-5h1.174V0H61.09Zm6.246-5.135a3.519,3.519,0,0,0-.578-.044,1.547,1.547,0,0,0-1.568.984V0H63.991V-6.868h1.143l.019.793A1.829,1.829,0,0,1,66.79-7a1.2,1.2,0,0,1,.521.089ZM72.129,0a2.467,2.467,0,0,1-.165-.724,2.62,2.62,0,0,1-1.955.851,2.424,2.424,0,0,1-1.666-.574A1.859,1.859,0,0,1,67.692-1.9a1.942,1.942,0,0,1,.816-1.666A3.846,3.846,0,0,1,70.8-4.164h1.143V-4.7a1.319,1.319,0,0,0-.368-.981,1.48,1.48,0,0,0-1.085-.365,1.712,1.712,0,0,0-1.054.317.935.935,0,0,0-.425.768H67.832a1.621,1.621,0,0,1,.365-.993,2.491,2.491,0,0,1,.99-.759A3.331,3.331,0,0,1,70.561-7a2.715,2.715,0,0,1,1.86.594,2.141,2.141,0,0,1,.7,1.635v3.161A3.865,3.865,0,0,0,73.36-.1V0ZM70.18-.9a2.064,2.064,0,0,0,1.047-.286,1.728,1.728,0,0,0,.717-.743V-3.333h-.92q-2.158,0-2.158,1.263a1.069,1.069,0,0,0,.368.863A1.415,1.415,0,0,0,70.18-.9Z" transform="translate(321.354 14783.752)"/>
    <path id="Trazado_996516" data-name="Trazado 996516" d="M4.945-9.242H6.17V-2.7a2.711,2.711,0,0,1-.8,2.076A2.974,2.974,0,0,1,3.25.127,3.056,3.056,0,0,1,1.1-.578,2.544,2.544,0,0,1,.336-2.552H1.555A1.694,1.694,0,0,0,1.99-1.314,1.685,1.685,0,0,0,3.25-.87a1.634,1.634,0,0,0,1.222-.476,1.844,1.844,0,0,0,.473-1.333ZM12.3,0a2.467,2.467,0,0,1-.165-.724,2.62,2.62,0,0,1-1.955.851A2.424,2.424,0,0,1,8.515-.448,1.859,1.859,0,0,1,7.865-1.9,1.942,1.942,0,0,1,8.68-3.571a3.846,3.846,0,0,1,2.295-.594h1.143V-4.7a1.319,1.319,0,0,0-.368-.981,1.48,1.48,0,0,0-1.085-.365,1.712,1.712,0,0,0-1.054.317.935.935,0,0,0-.425.768H8a1.621,1.621,0,0,1,.365-.993,2.491,2.491,0,0,1,.99-.759A3.331,3.331,0,0,1,10.734-7a2.715,2.715,0,0,1,1.86.594,2.141,2.141,0,0,1,.7,1.635v3.161a3.865,3.865,0,0,0,.241,1.5V0ZM10.353-.9A2.064,2.064,0,0,0,11.4-1.181a1.728,1.728,0,0,0,.717-.743V-3.333H11.2q-2.158,0-2.158,1.263a1.069,1.069,0,0,0,.368.863A1.415,1.415,0,0,0,10.353-.9Zm8.1-4.919a3.519,3.519,0,0,0-.578-.044,1.547,1.547,0,0,0-1.568.984V0H15.133V-6.868h1.143l.019.793A1.829,1.829,0,0,1,17.932-7a1.2,1.2,0,0,1,.521.089ZM22.265.127A3,3,0,0,1,19.992-.79a3.4,3.4,0,0,1-.876-2.453v-.216a4.121,4.121,0,0,1,.39-1.825A3.045,3.045,0,0,1,20.6-6.541,2.745,2.745,0,0,1,22.119-7a2.572,2.572,0,0,1,2.082.882,3.82,3.82,0,0,1,.743,2.526V-3.1H20.291a2.441,2.441,0,0,0,.594,1.641,1.866,1.866,0,0,0,1.444.625,2.045,2.045,0,0,0,1.054-.254,2.648,2.648,0,0,0,.755-.673l.717.559A2.884,2.884,0,0,1,22.265.127ZM22.119-6.03a1.566,1.566,0,0,0-1.193.517,2.515,2.515,0,0,0-.6,1.45h3.44v-.089a2.237,2.237,0,0,0-.482-1.387A1.475,1.475,0,0,0,22.119-6.03Zm5.776-2.5v1.663h1.282v.908H27.9V-1.7a.951.951,0,0,0,.171.619.722.722,0,0,0,.584.206,2.843,2.843,0,0,0,.559-.076V0a3.4,3.4,0,0,1-.9.127,1.462,1.462,0,0,1-1.187-.476,2.045,2.045,0,0,1-.4-1.352V-5.96H25.47v-.908h1.25V-8.531ZM34.789,0a2.467,2.467,0,0,1-.165-.724,2.62,2.62,0,0,1-1.955.851A2.424,2.424,0,0,1,31-.448,1.859,1.859,0,0,1,30.352-1.9a1.942,1.942,0,0,1,.816-1.666,3.846,3.846,0,0,1,2.295-.594H34.6V-4.7a1.319,1.319,0,0,0-.368-.981,1.48,1.48,0,0,0-1.085-.365,1.712,1.712,0,0,0-1.054.317.935.935,0,0,0-.425.768H30.491a1.621,1.621,0,0,1,.365-.993,2.491,2.491,0,0,1,.99-.759A3.331,3.331,0,0,1,33.221-7a2.715,2.715,0,0,1,1.86.594,2.141,2.141,0,0,1,.7,1.635v3.161A3.865,3.865,0,0,0,36.02-.1V0ZM32.84-.9a2.064,2.064,0,0,0,1.047-.286,1.728,1.728,0,0,0,.717-.743V-3.333h-.92q-2.158,0-2.158,1.263a1.069,1.069,0,0,0,.368.863A1.415,1.415,0,0,0,32.84-.9Z" transform="translate(344.793 14888.56)"/>
    <path id="Trazado_996517" data-name="Trazado 996517" d="M7.871-2.933A3.4,3.4,0,0,1,6.789-.67a3.547,3.547,0,0,1-2.422.8A3.257,3.257,0,0,1,1.742-1.047,4.724,4.724,0,0,1,.755-4.189v-.889a5.266,5.266,0,0,1,.46-2.266,3.438,3.438,0,0,1,1.3-1.5,3.632,3.632,0,0,1,1.955-.524,3.34,3.34,0,0,1,2.361.822A3.441,3.441,0,0,1,7.871-6.271H6.646a2.644,2.644,0,0,0-.689-1.6,2.088,2.088,0,0,0-1.482-.5A2.181,2.181,0,0,0,2.644-7.5,3.961,3.961,0,0,0,1.98-5.046v.9a4.071,4.071,0,0,0,.628,2.393A2.031,2.031,0,0,0,4.367-.87a2.345,2.345,0,0,0,1.558-.46,2.554,2.554,0,0,0,.72-1.6Zm4.8-2.882a3.519,3.519,0,0,0-.578-.044,1.547,1.547,0,0,0-1.568.984V0H9.35V-6.868h1.143l.019.793A1.829,1.829,0,0,1,12.149-7a1.2,1.2,0,0,1,.521.089ZM16.482.127A3,3,0,0,1,14.21-.79a3.4,3.4,0,0,1-.876-2.453v-.216a4.121,4.121,0,0,1,.39-1.825,3.045,3.045,0,0,1,1.092-1.257A2.745,2.745,0,0,1,16.336-7a2.572,2.572,0,0,1,2.082.882,3.82,3.82,0,0,1,.743,2.526V-3.1H14.508A2.441,2.441,0,0,0,15.1-1.457a1.866,1.866,0,0,0,1.444.625A2.045,2.045,0,0,0,17.6-1.085a2.648,2.648,0,0,0,.755-.673l.717.559A2.884,2.884,0,0,1,16.482.127ZM16.336-6.03a1.566,1.566,0,0,0-1.193.517,2.515,2.515,0,0,0-.6,1.45h3.44v-.089A2.237,2.237,0,0,0,17.5-5.538,1.475,1.475,0,0,0,16.336-6.03Zm5.288-.838.032.762A2.536,2.536,0,0,1,23.693-7a1.964,1.964,0,0,1,1.961,1.1,2.6,2.6,0,0,1,.892-.8,2.634,2.634,0,0,1,1.3-.3q2.26,0,2.3,2.393V0H28.968V-4.532a1.577,1.577,0,0,0-.336-1.1A1.482,1.482,0,0,0,27.5-6a1.557,1.557,0,0,0-1.085.39,1.584,1.584,0,0,0-.5,1.051V0H24.734V-4.5A1.31,1.31,0,0,0,23.268-6a1.571,1.571,0,0,0-1.581.984V0H20.513V-6.868ZM36.154,0a2.467,2.467,0,0,1-.165-.724,2.62,2.62,0,0,1-1.955.851,2.424,2.424,0,0,1-1.666-.574A1.859,1.859,0,0,1,31.716-1.9a1.942,1.942,0,0,1,.816-1.666,3.846,3.846,0,0,1,2.295-.594h1.143V-4.7a1.319,1.319,0,0,0-.368-.981,1.48,1.48,0,0,0-1.085-.365,1.712,1.712,0,0,0-1.054.317.935.935,0,0,0-.425.768H31.856a1.621,1.621,0,0,1,.365-.993,2.491,2.491,0,0,1,.99-.759A3.331,3.331,0,0,1,34.586-7a2.715,2.715,0,0,1,1.86.594,2.141,2.141,0,0,1,.7,1.635v3.161a3.865,3.865,0,0,0,.241,1.5V0ZM34.2-.9a2.064,2.064,0,0,0,1.047-.286,1.728,1.728,0,0,0,.717-.743V-3.333h-.92q-2.158,0-2.158,1.263a1.069,1.069,0,0,0,.368.863A1.415,1.415,0,0,0,34.2-.9ZM40.26,0H39.086V-9.75H40.26Zm3.155,0H42.241V-9.75h1.174Zm4.729.127A3,3,0,0,1,45.872-.79,3.4,3.4,0,0,1,45-3.244v-.216a4.121,4.121,0,0,1,.39-1.825,3.045,3.045,0,0,1,1.092-1.257A2.745,2.745,0,0,1,48-7a2.572,2.572,0,0,1,2.082.882,3.82,3.82,0,0,1,.743,2.526V-3.1H46.17a2.441,2.441,0,0,0,.594,1.641,1.866,1.866,0,0,0,1.444.625,2.045,2.045,0,0,0,1.054-.254,2.648,2.648,0,0,0,.755-.673l.717.559A2.884,2.884,0,0,1,48.144.127ZM48-6.03a1.566,1.566,0,0,0-1.193.517,2.515,2.515,0,0,0-.6,1.45h3.44v-.089a2.237,2.237,0,0,0-.482-1.387A1.475,1.475,0,0,0,48-6.03Zm7.5.216a3.519,3.519,0,0,0-.578-.044,1.547,1.547,0,0,0-1.568.984V0H52.181V-6.868h1.143l.019.793A1.829,1.829,0,0,1,54.981-7a1.2,1.2,0,0,1,.521.089ZM60.32,0a2.467,2.467,0,0,1-.165-.724A2.62,2.62,0,0,1,58.2.127a2.424,2.424,0,0,1-1.666-.574A1.859,1.859,0,0,1,55.883-1.9,1.942,1.942,0,0,1,56.7-3.571a3.846,3.846,0,0,1,2.295-.594h1.143V-4.7a1.319,1.319,0,0,0-.368-.981,1.48,1.48,0,0,0-1.085-.365,1.712,1.712,0,0,0-1.054.317.935.935,0,0,0-.425.768H56.022a1.621,1.621,0,0,1,.365-.993,2.491,2.491,0,0,1,.99-.759A3.331,3.331,0,0,1,58.752-7a2.715,2.715,0,0,1,1.86.594,2.141,2.141,0,0,1,.7,1.635v3.161a3.865,3.865,0,0,0,.241,1.5V0ZM58.371-.9a2.064,2.064,0,0,0,1.047-.286,1.728,1.728,0,0,0,.717-.743V-3.333h-.92q-2.158,0-2.158,1.263a1.069,1.069,0,0,0,.368.863A1.415,1.415,0,0,0,58.371-.9Z" transform="translate(352.858 14714.524) rotate(30.865)"/>
    <path id="Trazado_996518" data-name="Trazado 996518" d="M2.3-1h4.38V0h-5.6V-9.242H2.3ZM9.16,0H7.979V-6.868H9.16Zm.013-9.744h1.422l-1.7,1.866H7.947Zm3.034,2.875L12.245-6A2.5,2.5,0,0,1,14.3-7q2.177,0,2.2,2.457V0H15.323V-4.545a1.581,1.581,0,0,0-.34-1.1A1.361,1.361,0,0,0,13.946-6a1.7,1.7,0,0,0-1,.3,2.069,2.069,0,0,0-.673.8V0H11.1V-6.868Zm8.912,7A3,3,0,0,1,18.846-.79a3.4,3.4,0,0,1-.876-2.453v-.216a4.121,4.121,0,0,1,.39-1.825,3.045,3.045,0,0,1,1.092-1.257A2.745,2.745,0,0,1,20.973-7a2.572,2.572,0,0,1,2.082.882A3.82,3.82,0,0,1,23.8-3.586V-3.1H19.145a2.441,2.441,0,0,0,.594,1.641,1.866,1.866,0,0,0,1.444.625,2.045,2.045,0,0,0,1.054-.254,2.648,2.648,0,0,0,.755-.673l.717.559A2.884,2.884,0,0,1,21.119.127ZM20.973-6.03a1.566,1.566,0,0,0-1.193.517,2.515,2.515,0,0,0-.6,1.45h3.44v-.089a2.237,2.237,0,0,0-.482-1.387A1.475,1.475,0,0,0,20.973-6.03ZM29.4,0a2.467,2.467,0,0,1-.165-.724,2.62,2.62,0,0,1-1.955.851A2.424,2.424,0,0,1,25.61-.448,1.859,1.859,0,0,1,24.959-1.9a1.942,1.942,0,0,1,.816-1.666,3.846,3.846,0,0,1,2.295-.594h1.143V-4.7a1.319,1.319,0,0,0-.368-.981,1.48,1.48,0,0,0-1.085-.365,1.712,1.712,0,0,0-1.054.317.935.935,0,0,0-.425.768H25.1a1.621,1.621,0,0,1,.365-.993,2.491,2.491,0,0,1,.99-.759A3.331,3.331,0,0,1,27.828-7a2.715,2.715,0,0,1,1.86.594,2.141,2.141,0,0,1,.7,1.635v3.161a3.865,3.865,0,0,0,.241,1.5V0ZM27.447-.9a2.064,2.064,0,0,0,1.047-.286,1.728,1.728,0,0,0,.717-.743V-3.333h-.92q-2.158,0-2.158,1.263a1.069,1.069,0,0,0,.368.863A1.415,1.415,0,0,0,27.447-.9ZM41.26-3.358a4.084,4.084,0,0,1-.724,2.53,2.312,2.312,0,0,1-1.942.955,2.394,2.394,0,0,1-2.012-.92L36.524,0H35.445V-9.75H36.62v3.637A2.381,2.381,0,0,1,38.581-7a2.326,2.326,0,0,1,1.965.946,4.206,4.206,0,0,1,.714,2.59Zm-1.174-.133a3.173,3.173,0,0,0-.463-1.854A1.534,1.534,0,0,0,38.289-6,1.724,1.724,0,0,0,36.62-4.919v2.971A1.772,1.772,0,0,0,38.3-.87a1.526,1.526,0,0,0,1.314-.654A3.374,3.374,0,0,0,40.085-3.491ZM46.979-.679a2.494,2.494,0,0,1-2.012.806,2.135,2.135,0,0,1-1.673-.638A2.761,2.761,0,0,1,42.713-2.4V-6.868h1.174v4.437q0,1.562,1.27,1.562a1.758,1.758,0,0,0,1.79-1v-5h1.174V0H47ZM53.9-1.822a.865.865,0,0,0-.359-.74,3.452,3.452,0,0,0-1.25-.454,5.912,5.912,0,0,1-1.416-.457,2.014,2.014,0,0,1-.774-.635,1.518,1.518,0,0,1-.251-.876,1.782,1.782,0,0,1,.714-1.428A2.789,2.789,0,0,1,52.394-7a2.87,2.87,0,0,1,1.895.6,1.915,1.915,0,0,1,.727,1.542H53.834a1.06,1.06,0,0,0-.409-.832,1.534,1.534,0,0,0-1.031-.349,1.605,1.605,0,0,0-1,.279.879.879,0,0,0-.362.73.712.712,0,0,0,.336.641,4.139,4.139,0,0,0,1.216.413,6.334,6.334,0,0,1,1.425.47,2.079,2.079,0,0,1,.809.657,1.615,1.615,0,0,1,.263.936,1.758,1.758,0,0,1-.736,1.476,3.089,3.089,0,0,1-1.911.555,3.459,3.459,0,0,1-1.46-.292,2.375,2.375,0,0,1-.993-.816,1.966,1.966,0,0,1-.359-1.133h1.174a1.216,1.216,0,0,0,.473.936,1.835,1.835,0,0,0,1.165.346A1.894,1.894,0,0,0,53.5-1.1.829.829,0,0,0,53.9-1.822Zm4.3-6.709v1.663h1.282v.908H58.2V-1.7a.951.951,0,0,0,.171.619.722.722,0,0,0,.584.206,2.843,2.843,0,0,0,.559-.076V0a3.4,3.4,0,0,1-.9.127,1.462,1.462,0,0,1-1.187-.476,2.045,2.045,0,0,1-.4-1.352V-5.96h-1.25v-.908h1.25V-8.531ZM60.287-3.5a4.057,4.057,0,0,1,.4-1.815,2.96,2.96,0,0,1,1.1-1.244A3.007,3.007,0,0,1,63.4-7a2.9,2.9,0,0,1,2.269.971,3.736,3.736,0,0,1,.866,2.583v.083a4.092,4.092,0,0,1-.384,1.8,2.916,2.916,0,0,1-1.1,1.241,3.041,3.041,0,0,1-1.641.444,2.889,2.889,0,0,1-2.263-.971,3.718,3.718,0,0,1-.866-2.571Zm1.181.14A2.938,2.938,0,0,0,62-1.523a1.7,1.7,0,0,0,1.419.692,1.686,1.686,0,0,0,1.422-.7A3.213,3.213,0,0,0,65.365-3.5a2.933,2.933,0,0,0-.536-1.831,1.705,1.705,0,0,0-1.425-.7,1.686,1.686,0,0,0-1.4.692A3.189,3.189,0,0,0,61.468-3.358Z" transform="translate(325.211 14607.558)"/>
    <path id="Trazado_996519" data-name="Trazado 996519" d="M2.3-1h4.38V0h-5.6V-9.242H2.3ZM9.16,0H7.979V-6.868H9.16Zm.013-9.744h1.422l-1.7,1.866H7.947Zm3.034,2.875L12.245-6A2.5,2.5,0,0,1,14.3-7q2.177,0,2.2,2.457V0H15.323V-4.545a1.581,1.581,0,0,0-.34-1.1A1.361,1.361,0,0,0,13.946-6a1.7,1.7,0,0,0-1,.3,2.069,2.069,0,0,0-.673.8V0H11.1V-6.868Zm8.912,7A3,3,0,0,1,18.846-.79a3.4,3.4,0,0,1-.876-2.453v-.216a4.121,4.121,0,0,1,.39-1.825,3.045,3.045,0,0,1,1.092-1.257A2.745,2.745,0,0,1,20.973-7a2.572,2.572,0,0,1,2.082.882A3.82,3.82,0,0,1,23.8-3.586V-3.1H19.145a2.441,2.441,0,0,0,.594,1.641,1.866,1.866,0,0,0,1.444.625,2.045,2.045,0,0,0,1.054-.254,2.648,2.648,0,0,0,.755-.673l.717.559A2.884,2.884,0,0,1,21.119.127ZM20.973-6.03a1.566,1.566,0,0,0-1.193.517,2.515,2.515,0,0,0-.6,1.45h3.44v-.089a2.237,2.237,0,0,0-.482-1.387A1.475,1.475,0,0,0,20.973-6.03ZM29.4,0a2.467,2.467,0,0,1-.165-.724,2.62,2.62,0,0,1-1.955.851A2.424,2.424,0,0,1,25.61-.448,1.859,1.859,0,0,1,24.959-1.9a1.942,1.942,0,0,1,.816-1.666,3.846,3.846,0,0,1,2.295-.594h1.143V-4.7a1.319,1.319,0,0,0-.368-.981,1.48,1.48,0,0,0-1.085-.365,1.712,1.712,0,0,0-1.054.317.935.935,0,0,0-.425.768H25.1a1.621,1.621,0,0,1,.365-.993,2.491,2.491,0,0,1,.99-.759A3.331,3.331,0,0,1,27.828-7a2.715,2.715,0,0,1,1.86.594,2.141,2.141,0,0,1,.7,1.635v3.161a3.865,3.865,0,0,0,.241,1.5V0ZM27.447-.9a2.064,2.064,0,0,0,1.047-.286,1.728,1.728,0,0,0,.717-.743V-3.333h-.92q-2.158,0-2.158,1.263a1.069,1.069,0,0,0,.368.863A1.415,1.415,0,0,0,27.447-.9Zm9.591-7.636v1.663h1.282v.908H37.039V-1.7a.951.951,0,0,0,.171.619.722.722,0,0,0,.584.206,2.843,2.843,0,0,0,.559-.076V0a3.4,3.4,0,0,1-.9.127,1.462,1.462,0,0,1-1.187-.476,2.045,2.045,0,0,1-.4-1.352V-5.96h-1.25v-.908h1.25V-8.531ZM39.264-3.5a4.057,4.057,0,0,1,.4-1.815,2.96,2.96,0,0,1,1.1-1.244A3.007,3.007,0,0,1,42.381-7a2.9,2.9,0,0,1,2.269.971,3.736,3.736,0,0,1,.866,2.583v.083a4.092,4.092,0,0,1-.384,1.8,2.916,2.916,0,0,1-1.1,1.241,3.041,3.041,0,0,1-1.641.444A2.889,2.889,0,0,1,40.13-.844a3.718,3.718,0,0,1-.866-2.571Zm1.181.14a2.938,2.938,0,0,0,.53,1.834,1.7,1.7,0,0,0,1.419.692,1.686,1.686,0,0,0,1.422-.7A3.213,3.213,0,0,0,44.342-3.5a2.933,2.933,0,0,0-.536-1.831,1.705,1.705,0,0,0-1.425-.7,1.686,1.686,0,0,0-1.4.692A3.189,3.189,0,0,0,40.445-3.358ZM42.914-9.75h1.422l-1.7,1.866h-.946Zm7.4,3.936a3.519,3.519,0,0,0-.578-.044,1.547,1.547,0,0,0-1.568.984V0H46.989V-6.868h1.143l.019.793A1.829,1.829,0,0,1,49.788-7a1.2,1.2,0,0,1,.521.089ZM55.127,0a2.467,2.467,0,0,1-.165-.724,2.62,2.62,0,0,1-1.955.851,2.424,2.424,0,0,1-1.666-.574A1.859,1.859,0,0,1,50.69-1.9a1.942,1.942,0,0,1,.816-1.666A3.846,3.846,0,0,1,53.8-4.164h1.143V-4.7a1.319,1.319,0,0,0-.368-.981,1.48,1.48,0,0,0-1.085-.365,1.712,1.712,0,0,0-1.054.317.935.935,0,0,0-.425.768H50.83a1.621,1.621,0,0,1,.365-.993,2.491,2.491,0,0,1,.99-.759A3.331,3.331,0,0,1,53.559-7a2.715,2.715,0,0,1,1.86.594,2.141,2.141,0,0,1,.7,1.635v3.161a3.865,3.865,0,0,0,.241,1.5V0ZM53.178-.9a2.064,2.064,0,0,0,1.047-.286,1.728,1.728,0,0,0,.717-.743V-3.333h-.92q-2.158,0-2.158,1.263a1.069,1.069,0,0,0,.368.863A1.415,1.415,0,0,0,53.178-.9Zm7.084-3.466,1.523-2.507h1.371l-2.247,3.4L63.227,0H61.868L60.282-2.571,58.695,0H57.33l2.317-3.472L57.4-6.868h1.358Z" transform="translate(325.211 14554.173)"/>
    <path id="Trazado_996520" data-name="Trazado 996520" d="M2.3-1h4.38V0h-5.6V-9.242H2.3ZM9.16,0H7.979V-6.868H9.16Zm.013-9.744h1.422l-1.7,1.866H7.947Zm3.034,2.875L12.245-6A2.5,2.5,0,0,1,14.3-7q2.177,0,2.2,2.457V0H15.323V-4.545a1.581,1.581,0,0,0-.34-1.1A1.361,1.361,0,0,0,13.946-6a1.7,1.7,0,0,0-1,.3,2.069,2.069,0,0,0-.673.8V0H11.1V-6.868Zm8.912,7A3,3,0,0,1,18.846-.79a3.4,3.4,0,0,1-.876-2.453v-.216a4.121,4.121,0,0,1,.39-1.825,3.045,3.045,0,0,1,1.092-1.257A2.745,2.745,0,0,1,20.973-7a2.572,2.572,0,0,1,2.082.882A3.82,3.82,0,0,1,23.8-3.586V-3.1H19.145a2.441,2.441,0,0,0,.594,1.641,1.866,1.866,0,0,0,1.444.625,2.045,2.045,0,0,0,1.054-.254,2.648,2.648,0,0,0,.755-.673l.717.559A2.884,2.884,0,0,1,21.119.127ZM20.973-6.03a1.566,1.566,0,0,0-1.193.517,2.515,2.515,0,0,0-.6,1.45h3.44v-.089a2.237,2.237,0,0,0-.482-1.387A1.475,1.475,0,0,0,20.973-6.03ZM29.4,0a2.467,2.467,0,0,1-.165-.724,2.62,2.62,0,0,1-1.955.851A2.424,2.424,0,0,1,25.61-.448,1.859,1.859,0,0,1,24.959-1.9a1.942,1.942,0,0,1,.816-1.666,3.846,3.846,0,0,1,2.295-.594h1.143V-4.7a1.319,1.319,0,0,0-.368-.981,1.48,1.48,0,0,0-1.085-.365,1.712,1.712,0,0,0-1.054.317.935.935,0,0,0-.425.768H25.1a1.621,1.621,0,0,1,.365-.993,2.491,2.491,0,0,1,.99-.759A3.331,3.331,0,0,1,27.828-7a2.715,2.715,0,0,1,1.86.594,2.141,2.141,0,0,1,.7,1.635v3.161a3.865,3.865,0,0,0,.241,1.5V0ZM27.447-.9a2.064,2.064,0,0,0,1.047-.286,1.728,1.728,0,0,0,.717-.743V-3.333h-.92q-2.158,0-2.158,1.263a1.069,1.069,0,0,0,.368.863A1.415,1.415,0,0,0,27.447-.9ZM36.62-6.037A2.5,2.5,0,0,1,38.651-7q2.177,0,2.2,2.457V0H39.673V-4.545a1.581,1.581,0,0,0-.34-1.1A1.361,1.361,0,0,0,38.3-6a1.7,1.7,0,0,0-1,.3,2.069,2.069,0,0,0-.673.8V0H35.445V-9.75H36.62ZM42.294-3.5a4.057,4.057,0,0,1,.4-1.815,2.96,2.96,0,0,1,1.1-1.244A3.007,3.007,0,0,1,45.411-7a2.9,2.9,0,0,1,2.269.971,3.736,3.736,0,0,1,.866,2.583v.083a4.092,4.092,0,0,1-.384,1.8,2.916,2.916,0,0,1-1.1,1.241,3.041,3.041,0,0,1-1.641.444,2.889,2.889,0,0,1-2.263-.971,3.718,3.718,0,0,1-.866-2.571Zm1.181.14a2.938,2.938,0,0,0,.53,1.834,1.7,1.7,0,0,0,1.419.692,1.686,1.686,0,0,0,1.422-.7A3.213,3.213,0,0,0,47.373-3.5a2.933,2.933,0,0,0-.536-1.831,1.705,1.705,0,0,0-1.425-.7,1.686,1.686,0,0,0-1.4.692A3.189,3.189,0,0,0,43.475-3.358Zm7.649-3.51.032.762A2.536,2.536,0,0,1,53.193-7a1.964,1.964,0,0,1,1.961,1.1,2.6,2.6,0,0,1,.892-.8,2.634,2.634,0,0,1,1.3-.3q2.26,0,2.3,2.393V0H58.468V-4.532a1.577,1.577,0,0,0-.336-1.1A1.482,1.482,0,0,0,57-6a1.557,1.557,0,0,0-1.085.39,1.584,1.584,0,0,0-.5,1.051V0H54.234V-4.5A1.31,1.31,0,0,0,52.768-6a1.571,1.571,0,0,0-1.581.984V0H50.013V-6.868Zm16.1,3.51A4.084,4.084,0,0,1,66.5-.828a2.312,2.312,0,0,1-1.942.955,2.394,2.394,0,0,1-2.012-.92L62.493,0H61.414V-9.75h1.174v3.637A2.381,2.381,0,0,1,64.549-7a2.326,2.326,0,0,1,1.965.946,4.206,4.206,0,0,1,.714,2.59Zm-1.174-.133a3.173,3.173,0,0,0-.463-1.854A1.534,1.534,0,0,0,64.257-6a1.724,1.724,0,0,0-1.669,1.079v2.971A1.772,1.772,0,0,0,64.27-.87a1.526,1.526,0,0,0,1.314-.654A3.375,3.375,0,0,0,66.054-3.491Zm5.973-2.323a3.519,3.519,0,0,0-.578-.044,1.547,1.547,0,0,0-1.568.984V0H68.707V-6.868H69.85l.019.793A1.829,1.829,0,0,1,71.506-7a1.2,1.2,0,0,1,.521.089ZM72.551-3.5a4.057,4.057,0,0,1,.4-1.815,2.96,2.96,0,0,1,1.1-1.244A3.007,3.007,0,0,1,75.668-7a2.9,2.9,0,0,1,2.269.971A3.736,3.736,0,0,1,78.8-3.44v.083a4.092,4.092,0,0,1-.384,1.8,2.916,2.916,0,0,1-1.1,1.241A3.041,3.041,0,0,1,75.68.127a2.889,2.889,0,0,1-2.263-.971,3.718,3.718,0,0,1-.866-2.571Zm1.181.14a2.938,2.938,0,0,0,.53,1.834,1.7,1.7,0,0,0,1.419.692,1.686,1.686,0,0,0,1.422-.7A3.213,3.213,0,0,0,77.629-3.5a2.933,2.933,0,0,0-.536-1.831,1.705,1.705,0,0,0-1.425-.7,1.686,1.686,0,0,0-1.4.692A3.189,3.189,0,0,0,73.732-3.358ZM84.275-1.822a.864.864,0,0,0-.359-.74,3.452,3.452,0,0,0-1.25-.454,5.912,5.912,0,0,1-1.416-.457,2.014,2.014,0,0,1-.774-.635,1.518,1.518,0,0,1-.251-.876,1.782,1.782,0,0,1,.714-1.428A2.789,2.789,0,0,1,82.764-7a2.87,2.87,0,0,1,1.895.6,1.915,1.915,0,0,1,.727,1.542H84.205a1.06,1.06,0,0,0-.409-.832,1.534,1.534,0,0,0-1.031-.349,1.606,1.606,0,0,0-1,.279.879.879,0,0,0-.362.73.712.712,0,0,0,.336.641,4.139,4.139,0,0,0,1.216.413,6.334,6.334,0,0,1,1.425.47,2.079,2.079,0,0,1,.809.657,1.615,1.615,0,0,1,.263.936,1.758,1.758,0,0,1-.736,1.476A3.089,3.089,0,0,1,82.8.127a3.459,3.459,0,0,1-1.46-.292,2.375,2.375,0,0,1-.993-.816,1.966,1.966,0,0,1-.359-1.133h1.174a1.216,1.216,0,0,0,.473.936A1.835,1.835,0,0,0,82.8-.832a1.894,1.894,0,0,0,1.07-.27A.829.829,0,0,0,84.275-1.822Z" transform="translate(611.343 14572.332)"/>
    <path id="Trazado_996521" data-name="Trazado 996521" d="M2.3-1h4.38V0h-5.6V-9.242H2.3ZM9.16,0H7.979V-6.868H9.16Zm.013-9.744h1.422l-1.7,1.866H7.947Zm3.034,2.875L12.245-6A2.5,2.5,0,0,1,14.3-7q2.177,0,2.2,2.457V0H15.323V-4.545a1.581,1.581,0,0,0-.34-1.1A1.361,1.361,0,0,0,13.946-6a1.7,1.7,0,0,0-1,.3,2.069,2.069,0,0,0-.673.8V0H11.1V-6.868Zm8.912,7A3,3,0,0,1,18.846-.79a3.4,3.4,0,0,1-.876-2.453v-.216a4.121,4.121,0,0,1,.39-1.825,3.045,3.045,0,0,1,1.092-1.257A2.745,2.745,0,0,1,20.973-7a2.572,2.572,0,0,1,2.082.882A3.82,3.82,0,0,1,23.8-3.586V-3.1H19.145a2.441,2.441,0,0,0,.594,1.641,1.866,1.866,0,0,0,1.444.625,2.045,2.045,0,0,0,1.054-.254,2.648,2.648,0,0,0,.755-.673l.717.559A2.884,2.884,0,0,1,21.119.127ZM20.973-6.03a1.566,1.566,0,0,0-1.193.517,2.515,2.515,0,0,0-.6,1.45h3.44v-.089a2.237,2.237,0,0,0-.482-1.387A1.475,1.475,0,0,0,20.973-6.03ZM29.4,0a2.467,2.467,0,0,1-.165-.724,2.62,2.62,0,0,1-1.955.851A2.424,2.424,0,0,1,25.61-.448,1.859,1.859,0,0,1,24.959-1.9a1.942,1.942,0,0,1,.816-1.666,3.846,3.846,0,0,1,2.295-.594h1.143V-4.7a1.319,1.319,0,0,0-.368-.981,1.48,1.48,0,0,0-1.085-.365,1.712,1.712,0,0,0-1.054.317.935.935,0,0,0-.425.768H25.1a1.621,1.621,0,0,1,.365-.993,2.491,2.491,0,0,1,.99-.759A3.331,3.331,0,0,1,27.828-7a2.715,2.715,0,0,1,1.86.594,2.141,2.141,0,0,1,.7,1.635v3.161a3.865,3.865,0,0,0,.241,1.5V0ZM27.447-.9a2.064,2.064,0,0,0,1.047-.286,1.728,1.728,0,0,0,.717-.743V-3.333h-.92q-2.158,0-2.158,1.263a1.069,1.069,0,0,0,.368.863A1.415,1.415,0,0,0,27.447-.9ZM41.26-3.358a4.084,4.084,0,0,1-.724,2.53,2.312,2.312,0,0,1-1.942.955,2.394,2.394,0,0,1-2.012-.92L36.524,0H35.445V-9.75H36.62v3.637A2.381,2.381,0,0,1,38.581-7a2.326,2.326,0,0,1,1.965.946,4.206,4.206,0,0,1,.714,2.59Zm-1.174-.133a3.173,3.173,0,0,0-.463-1.854A1.534,1.534,0,0,0,38.289-6,1.724,1.724,0,0,0,36.62-4.919v2.971A1.772,1.772,0,0,0,38.3-.87a1.526,1.526,0,0,0,1.314-.654A3.374,3.374,0,0,0,40.085-3.491ZM46.979-.679a2.494,2.494,0,0,1-2.012.806,2.135,2.135,0,0,1-1.673-.638A2.761,2.761,0,0,1,42.713-2.4V-6.868h1.174v4.437q0,1.562,1.27,1.562a1.758,1.758,0,0,0,1.79-1v-5h1.174V0H47ZM53.9-1.822a.865.865,0,0,0-.359-.74,3.452,3.452,0,0,0-1.25-.454,5.912,5.912,0,0,1-1.416-.457,2.014,2.014,0,0,1-.774-.635,1.518,1.518,0,0,1-.251-.876,1.782,1.782,0,0,1,.714-1.428A2.789,2.789,0,0,1,52.394-7a2.87,2.87,0,0,1,1.895.6,1.915,1.915,0,0,1,.727,1.542H53.834a1.06,1.06,0,0,0-.409-.832,1.534,1.534,0,0,0-1.031-.349,1.605,1.605,0,0,0-1,.279.879.879,0,0,0-.362.73.712.712,0,0,0,.336.641,4.139,4.139,0,0,0,1.216.413,6.334,6.334,0,0,1,1.425.47,2.079,2.079,0,0,1,.809.657,1.615,1.615,0,0,1,.263.936,1.758,1.758,0,0,1-.736,1.476,3.089,3.089,0,0,1-1.911.555,3.459,3.459,0,0,1-1.46-.292,2.375,2.375,0,0,1-.993-.816,1.966,1.966,0,0,1-.359-1.133h1.174a1.216,1.216,0,0,0,.473.936,1.835,1.835,0,0,0,1.165.346A1.894,1.894,0,0,0,53.5-1.1.829.829,0,0,0,53.9-1.822Zm4.3-6.709v1.663h1.282v.908H58.2V-1.7a.951.951,0,0,0,.171.619.722.722,0,0,0,.584.206,2.843,2.843,0,0,0,.559-.076V0a3.4,3.4,0,0,1-.9.127,1.462,1.462,0,0,1-1.187-.476,2.045,2.045,0,0,1-.4-1.352V-5.96h-1.25v-.908h1.25V-8.531ZM60.287-3.5a4.057,4.057,0,0,1,.4-1.815,2.96,2.96,0,0,1,1.1-1.244A3.007,3.007,0,0,1,63.4-7a2.9,2.9,0,0,1,2.269.971,3.736,3.736,0,0,1,.866,2.583v.083a4.092,4.092,0,0,1-.384,1.8,2.916,2.916,0,0,1-1.1,1.241,3.041,3.041,0,0,1-1.641.444,2.889,2.889,0,0,1-2.263-.971,3.718,3.718,0,0,1-.866-2.571Zm1.181.14A2.938,2.938,0,0,0,62-1.523a1.7,1.7,0,0,0,1.419.692,1.686,1.686,0,0,0,1.422-.7A3.213,3.213,0,0,0,65.365-3.5a2.933,2.933,0,0,0-.536-1.831,1.705,1.705,0,0,0-1.425-.7,1.686,1.686,0,0,0-1.4.692A3.189,3.189,0,0,0,61.468-3.358Z" transform="translate(623.488 14615.304)"/>
    <g id="Grupo_1177215" data-name="Grupo 1177215" transform="translate(216.711 14450)">
      <g id="Grupo_1177214" data-name="Grupo 1177214" clip-path="url(#clip-path)">
        <path id="Trazado_995829" data-name="Trazado 995829" d="M.92,447.333a.92.92,0,0,1-.919-.95L11.954,84.56a.92.92,0,0,1,.919-.889h.019C66.621,84.76,94.241,62.2,107.952,43.086A97,97,0,0,0,125.055.832a.92.92,0,0,1,1.279-.756l101.6,43.676a.919.919,0,0,1,.532,1.054c-8.133,34.769-10.915,63.854-8.267,86.447,2.124,18.123,7.732,32.136,16.664,41.65,16.217,17.269,38.147,13.806,38.368,13.768a.92.92,0,0,1,1.072.907V443.655a.919.919,0,0,1-.91.919L.929,447.333ZM13.762,85.527,1.87,445.485l272.6-2.74V188.614c-4.732.472-24.146,1.3-38.941-14.454-9.209-9.807-14.979-24.171-17.15-42.694-2.654-22.642.08-51.682,8.127-86.329L126.726,2.245A100.435,100.435,0,0,1,109.5,44.089,92.476,92.476,0,0,1,75.2,73.238c-17.08,8.523-37.747,12.642-61.436,12.288" transform="translate(0 0)" fill="#0000b5"/>
        <rect id="Rectángulo_454773" data-name="Rectángulo 454773" width="339" height="0.919" transform="matrix(0.031, -1, 1, 0.031, 15.662, 423.413)"/>
        <rect id="Rectángulo_454774" data-name="Rectángulo 454774" width="274.482" height="0.92" transform="translate(0.915 422.96) rotate(-0.573)"/>
        <rect id="Rectángulo_454775" data-name="Rectángulo 454775" width="0.92" height="207.963" transform="translate(24.098 167.209) rotate(-89.523)"/>
        <rect id="Rectángulo_454776" data-name="Rectángulo 454776" width="0.92" height="191.768" transform="translate(26.657 116.095) rotate(-88.947)"/>
        <path id="Trazado_995830" data-name="Trazado 995830" d="M300.253,568.078l-159.42-97.212-94.365-2.945L46.5,467l94.607,2.952.1.063,159.523,97.276Z" transform="translate(-25.105 -252.299)"/>
        <rect id="Rectángulo_454777" data-name="Rectángulo 454777" width="0.919" height="147.788" transform="translate(113.317 233.407) rotate(-58.471)"/>
        <rect id="Rectángulo_454778" data-name="Rectángulo 454778" width="13.128" height="0.92" transform="translate(108.141 236.478) rotate(-50.902)"/>
        <rect id="Rectángulo_454779" data-name="Rectángulo 454779" width="13.128" height="0.92" transform="translate(235.031 313.6) rotate(-50.902)"/>
        <path id="Trazado_995831" data-name="Trazado 995831" d="M885,458.591H637.179a.92.92,0,0,1-.92-.915l-1.166-250.9a.92.92,0,0,1,1.063-.913c.146.024,14.952,2.153,28.623-11.181C680.248,179.6,696.219,142.7,684.471,52.6a.92.92,0,0,1,.717-1.017l92.978-20.229a.919.919,0,0,1,1.115.915c0,.015.056,2.6,3.486,5.857,6.571,6.243,27.085,16.29,90.665,13.436a.92.92,0,0,1,.96.892l11.53,405.19a.92.92,0,0,1-.919.946m-246.907-1.839H884.056L872.579,53.442c-27.623,1.192-49.848.076-66.074-3.322-11.89-2.49-20.365-6.135-25.188-10.834A12.573,12.573,0,0,1,777.6,33.36L686.4,53.2c5.163,40.035,5.3,73.089.409,98.262-3.873,19.928-10.869,34.927-20.795,44.582-12.35,12.013-25.308,12.042-29.08,11.751Z" transform="translate(-343.112 -16.928)" fill="#0000b5"/>
        <rect id="Rectángulo_454780" data-name="Rectángulo 454780" width="0.92" height="189.294" transform="matrix(0.011, -1, 1, 0.011, 343.431, 131.023)"/>
        <rect id="Rectángulo_454781" data-name="Rectángulo 454781" width="0.92" height="209.897" transform="translate(325.055 175.216) rotate(-89.368)"/>
        <rect id="Rectángulo_454782" data-name="Rectángulo 454782" width="243.251" height="0.92" transform="translate(294.062 344.805) rotate(-0.603)"/>
        <rect id="Rectángulo_454783" data-name="Rectángulo 454783" width="256.943" height="0.92" transform="matrix(1, -0.011, 0.011, 1, 18.454, 347.173)"/>
        <rect id="Rectángulo_454784" data-name="Rectángulo 454784" width="247.822" height="0.919" transform="translate(294.067 420.668)"/>
      </g>
    </g>
    <path id="Trazado_996522" data-name="Trazado 996522" d="M1.016,0V-11.375h3.5A5.315,5.315,0,0,1,7.2-10.7,4.712,4.712,0,0,1,9.047-8.777a5.928,5.928,0,0,1,.664,2.832v.523A5.945,5.945,0,0,1,9.059-2.6,4.672,4.672,0,0,1,7.219-.687,5.355,5.355,0,0,1,4.539,0ZM3.359-9.477v7.594H4.492a2.545,2.545,0,0,0,2.1-.9,4.06,4.06,0,0,0,.742-2.57v-.6a4.124,4.124,0,0,0-.719-2.629,2.537,2.537,0,0,0-2.1-.895Zm14.9,4.547h-4.5v3.047h5.281V0H11.414V-11.375h7.609v1.9H13.758v2.711h4.5Zm4.5,3.047h4.977V0h-7.32V-11.375h2.344Zm13.019-.461H31.667L30.886,0H28.394l4.234-11.375H34.8L39.058,0H36.565ZM32.3-4.242h2.844L33.714-8.5ZM49.37,0H47.026L42.464-7.484V0H40.12V-11.375h2.344l4.57,7.5v-7.5H49.37ZM59.756-9.477H56.271V0H53.927V-9.477H50.49v-1.9h9.266Zm8.18,4.547h-4.5v3.047h5.281V0H61.091V-11.375H68.7v1.9H63.435v2.711h4.5Zm6.367.766H72.435V0H70.091V-11.375h4.227a4.778,4.778,0,0,1,3.109.9,3.1,3.1,0,0,1,1.094,2.539A3.5,3.5,0,0,1,78.017-6,3.437,3.437,0,0,1,76.49-4.758L78.951-.109V0H76.435Zm-1.867-1.9h1.891a1.936,1.936,0,0,0,1.367-.449,1.606,1.606,0,0,0,.484-1.238,1.719,1.719,0,0,0-.457-1.266,1.9,1.9,0,0,0-1.4-.461H72.435ZM86.724-2.344H82.615L81.834,0H79.341l4.234-11.375h2.172L90.006,0H87.513Zm-3.477-1.9h2.844L84.662-8.5Z" transform="translate(315.323 14643.7)"/>
    <path id="Trazado_996523" data-name="Trazado 996523" d="M9.578-9.477H6.094V0H3.75V-9.477H.313v-1.9H9.578Zm5.547,5.313H13.258V0H10.914V-11.375h4.227a4.778,4.778,0,0,1,3.109.9,3.1,3.1,0,0,1,1.094,2.539A3.5,3.5,0,0,1,18.84-6a3.437,3.437,0,0,1-1.527,1.238L19.773-.109V0H17.258Zm-1.867-1.9h1.891a1.936,1.936,0,0,0,1.367-.449A1.606,1.606,0,0,0,17-7.75a1.719,1.719,0,0,0-.457-1.266,1.9,1.9,0,0,0-1.4-.461H13.258ZM27.547-2.344H23.438L22.656,0H20.164L24.4-11.375H26.57L30.828,0H28.336Zm-3.477-1.9h2.844L25.484-8.5ZM37.789-2.984A1.2,1.2,0,0,0,37.32-4a6.148,6.148,0,0,0-1.687-.75,11.963,11.963,0,0,1-1.93-.777,3.153,3.153,0,0,1-1.937-2.82A2.747,2.747,0,0,1,32.285-10a3.389,3.389,0,0,1,1.492-1.129,5.616,5.616,0,0,1,2.184-.406,5.112,5.112,0,0,1,2.172.441,3.458,3.458,0,0,1,1.48,1.246,3.261,3.261,0,0,1,.527,1.828H37.8A1.534,1.534,0,0,0,37.3-9.23a2.023,2.023,0,0,0-1.383-.434,2.162,2.162,0,0,0-1.336.363,1.146,1.146,0,0,0-.477.957,1.1,1.1,0,0,0,.559.93,6.311,6.311,0,0,0,1.645.7,7.106,7.106,0,0,1,2.914,1.492A2.972,2.972,0,0,1,40.141-3,2.737,2.737,0,0,1,39.023-.684a4.891,4.891,0,0,1-3.008.84,5.808,5.808,0,0,1-2.391-.48A3.783,3.783,0,0,1,31.98-1.641a3.371,3.371,0,0,1-.566-1.937h2.352q0,1.883,2.25,1.883a2.189,2.189,0,0,0,1.3-.34A1.106,1.106,0,0,0,37.789-2.984ZM48.57-4.93h-4.5v3.047h5.281V0H41.727V-11.375h7.609v1.9H44.07v2.711h4.5Zm6.367.766H53.07V0H50.727V-11.375h4.227a4.778,4.778,0,0,1,3.109.9,3.1,3.1,0,0,1,1.094,2.539A3.5,3.5,0,0,1,58.652-6a3.437,3.437,0,0,1-1.527,1.238L59.586-.109V0H57.07Zm-1.867-1.9h1.891a1.936,1.936,0,0,0,1.367-.449,1.606,1.606,0,0,0,.484-1.238,1.719,1.719,0,0,0-.457-1.266,1.9,1.9,0,0,0-1.4-.461H53.07ZM67.359-2.344H63.25L62.469,0H59.977l4.234-11.375h2.172L70.641,0H68.148Zm-3.477-1.9h2.844L65.3-8.5Z" transform="translate(602.662 14645.083)"/>
    <path id="Trazado_996524" data-name="Trazado 996524" d="M8.081-3.079A3.27,3.27,0,0,1,6.979-.73,3.868,3.868,0,0,1,4.361.127a3.478,3.478,0,0,1-2.8-1.2A4.906,4.906,0,0,1,.546-4.354v-.565a5.54,5.54,0,0,1,.47-2.349A3.52,3.52,0,0,1,2.358-8.826a3.761,3.761,0,0,1,2.028-.543,3.768,3.768,0,0,1,2.577.857,3.515,3.515,0,0,1,1.13,2.406h-1.9a1.93,1.93,0,0,0-.5-1.3,1.845,1.845,0,0,0-1.3-.4,1.618,1.618,0,0,0-1.425.682,3.824,3.824,0,0,0-.486,2.117v.7a4.093,4.093,0,0,0,.454,2.19,1.588,1.588,0,0,0,1.431.692,1.88,1.88,0,0,0,1.317-.4,1.821,1.821,0,0,0,.5-1.247ZM12.372.127A3.372,3.372,0,0,1,9.912-.8a3.294,3.294,0,0,1-.949-2.469v-.178a4.149,4.149,0,0,1,.4-1.85A2.935,2.935,0,0,1,10.5-6.554,3.18,3.18,0,0,1,12.168-7a2.85,2.85,0,0,1,2.219.889,3.611,3.611,0,0,1,.809,2.52v.749H10.823a1.7,1.7,0,0,0,.536,1.079,1.621,1.621,0,0,0,1.133.406,1.98,1.98,0,0,0,1.657-.768l.9,1.009A2.754,2.754,0,0,1,13.933-.2,3.665,3.665,0,0,1,12.372.127ZM12.162-5.51a1.149,1.149,0,0,0-.885.368,1.9,1.9,0,0,0-.435,1.054h2.552v-.146a1.356,1.356,0,0,0-.33-.943A1.186,1.186,0,0,0,12.162-5.51Zm5.764-1.358.057.793A2.4,2.4,0,0,1,19.957-7a1.993,1.993,0,0,1,1.625.641,2.991,2.991,0,0,1,.546,1.917V0H20.293V-4.393a1.19,1.19,0,0,0-.254-.847A1.137,1.137,0,0,0,19.2-5.5a1.262,1.262,0,0,0-1.162.66V0H16.2V-6.868Zm7.789-1.688v1.688h1.174v1.346H25.714v3.428a.818.818,0,0,0,.146.546.733.733,0,0,0,.559.165,2.925,2.925,0,0,0,.54-.044v1.39a3.777,3.777,0,0,1-1.111.165A1.752,1.752,0,0,1,23.88-1.822v-3.7h-1V-6.868h1V-8.557ZM31.77-5.148a4.984,4.984,0,0,0-.66-.051,1.344,1.344,0,0,0-1.365.7V0H27.911V-6.868h1.733l.051.819A1.7,1.7,0,0,1,31.224-7a1.922,1.922,0,0,1,.571.083Zm.147,1.65a4.073,4.073,0,0,1,.394-1.822,2.881,2.881,0,0,1,1.133-1.238A3.306,3.306,0,0,1,35.161-7a3.128,3.128,0,0,1,2.269.851,3.414,3.414,0,0,1,.981,2.311l.013.47a3.59,3.59,0,0,1-.882,2.536,3.067,3.067,0,0,1-2.368.955A3.082,3.082,0,0,1,32.8-.825a3.653,3.653,0,0,1-.885-2.59Zm1.834.133a2.56,2.56,0,0,0,.368,1.495,1.215,1.215,0,0,0,1.054.517,1.218,1.218,0,0,0,1.041-.511A2.8,2.8,0,0,0,36.589-3.5a2.535,2.535,0,0,0-.375-1.485,1.218,1.218,0,0,0-1.054-.527,1.2,1.2,0,0,0-1.041.524A2.849,2.849,0,0,0,33.752-3.364Zm8.753-.121a4.139,4.139,0,0,1,.72-2.558A2.338,2.338,0,0,1,45.2-7a2.1,2.1,0,0,1,1.657.749v-3.5h1.841V0H47.037l-.089-.73a2.159,2.159,0,0,1-1.765.857,2.331,2.331,0,0,1-1.946-.955A4.272,4.272,0,0,1,42.505-3.485Zm1.834.133a2.7,2.7,0,0,0,.336,1.479,1.1,1.1,0,0,0,.978.514,1.228,1.228,0,0,0,1.2-.717v-2.71A1.21,1.21,0,0,0,45.666-5.5Q44.34-5.5,44.34-3.352ZM53.277.127A3.372,3.372,0,0,1,50.817-.8a3.294,3.294,0,0,1-.949-2.469v-.178a4.149,4.149,0,0,1,.4-1.85A2.935,2.935,0,0,1,51.4-6.554,3.18,3.18,0,0,1,53.074-7a2.85,2.85,0,0,1,2.219.889,3.611,3.611,0,0,1,.809,2.52v.749H51.728a1.7,1.7,0,0,0,.536,1.079,1.621,1.621,0,0,0,1.133.406,1.98,1.98,0,0,0,1.657-.768l.9,1.009A2.754,2.754,0,0,1,54.839-.2,3.665,3.665,0,0,1,53.277.127ZM53.068-5.51a1.149,1.149,0,0,0-.885.368,1.9,1.9,0,0,0-.435,1.054H54.3v-.146a1.356,1.356,0,0,0-.33-.943A1.186,1.186,0,0,0,53.068-5.51ZM59.079,0H57.238V-9.75h1.841ZM64.57,0a2.037,2.037,0,0,1-.184-.616,2.22,2.22,0,0,1-1.733.743A2.439,2.439,0,0,1,60.98-.457a1.878,1.878,0,0,1-.663-1.473,1.941,1.941,0,0,1,.809-1.676,3.994,3.994,0,0,1,2.339-.59h.844v-.394a1.132,1.132,0,0,0-.244-.762.961.961,0,0,0-.771-.286,1.093,1.093,0,0,0-.727.222.755.755,0,0,0-.263.609H60.469a1.843,1.843,0,0,1,.368-1.1,2.434,2.434,0,0,1,1.041-.8A3.794,3.794,0,0,1,63.389-7a3,3,0,0,1,2.015.638,2.232,2.232,0,0,1,.746,1.793v2.977a3.284,3.284,0,0,0,.273,1.479V0ZM63.052-1.276a1.58,1.58,0,0,0,.749-.181,1.188,1.188,0,0,0,.508-.486V-3.123h-.686q-1.377,0-1.466.952l-.006.108a.734.734,0,0,0,.241.565A.937.937,0,0,0,63.052-1.276Zm6.2-5.592.057.793A2.4,2.4,0,0,1,71.279-7a1.993,1.993,0,0,1,1.625.641,2.991,2.991,0,0,1,.546,1.917V0H71.615V-4.393a1.19,1.19,0,0,0-.254-.847,1.137,1.137,0,0,0-.844-.263,1.262,1.262,0,0,0-1.162.66V0H67.521V-6.868Zm7.789-1.688v1.688h1.174v1.346H77.036v3.428a.818.818,0,0,0,.146.546.733.733,0,0,0,.559.165,2.925,2.925,0,0,0,.54-.044v1.39A3.777,3.777,0,0,1,77.17.127,1.752,1.752,0,0,1,75.2-1.822v-3.7h-1V-6.868h1V-8.557ZM82.394.127A3.372,3.372,0,0,1,79.934-.8a3.294,3.294,0,0,1-.949-2.469v-.178a4.149,4.149,0,0,1,.4-1.85,2.935,2.935,0,0,1,1.133-1.257A3.18,3.18,0,0,1,82.191-7a2.85,2.85,0,0,1,2.219.889,3.611,3.611,0,0,1,.809,2.52v.749H80.845a1.7,1.7,0,0,0,.536,1.079,1.621,1.621,0,0,0,1.133.406,1.98,1.98,0,0,0,1.657-.768l.9,1.009A2.754,2.754,0,0,1,83.955-.2,3.665,3.665,0,0,1,82.394.127ZM82.184-5.51a1.149,1.149,0,0,0-.885.368,1.9,1.9,0,0,0-.435,1.054h2.552v-.146a1.356,1.356,0,0,0-.33-.943A1.186,1.186,0,0,0,82.184-5.51Zm7.935.362a4.984,4.984,0,0,0-.66-.051,1.344,1.344,0,0,0-1.365.7V0H86.259V-6.868h1.733l.051.819A1.7,1.7,0,0,1,89.573-7a1.922,1.922,0,0,1,.571.083Zm.147,1.65a4.073,4.073,0,0,1,.394-1.822,2.881,2.881,0,0,1,1.133-1.238A3.306,3.306,0,0,1,93.51-7a3.127,3.127,0,0,1,2.269.851,3.414,3.414,0,0,1,.981,2.311l.013.47A3.59,3.59,0,0,1,95.89-.828a3.067,3.067,0,0,1-2.368.955,3.082,3.082,0,0,1-2.371-.952,3.653,3.653,0,0,1-.885-2.59Zm1.834.133a2.56,2.56,0,0,0,.368,1.495,1.215,1.215,0,0,0,1.054.517,1.218,1.218,0,0,0,1.041-.511A2.8,2.8,0,0,0,94.938-3.5a2.535,2.535,0,0,0-.375-1.485A1.218,1.218,0,0,0,93.51-5.51a1.2,1.2,0,0,0-1.041.524A2.849,2.849,0,0,0,92.1-3.364Z" transform="translate(257.035 14780.264) rotate(-90)"/>
    <path id="Trazado_996525" data-name="Trazado 996525" d="M8.081-3.079A3.27,3.27,0,0,1,6.979-.73,3.868,3.868,0,0,1,4.361.127a3.478,3.478,0,0,1-2.8-1.2A4.906,4.906,0,0,1,.546-4.354v-.565a5.54,5.54,0,0,1,.47-2.349A3.52,3.52,0,0,1,2.358-8.826a3.761,3.761,0,0,1,2.028-.543,3.768,3.768,0,0,1,2.577.857,3.515,3.515,0,0,1,1.13,2.406h-1.9a1.93,1.93,0,0,0-.5-1.3,1.845,1.845,0,0,0-1.3-.4,1.618,1.618,0,0,0-1.425.682,3.824,3.824,0,0,0-.486,2.117v.7a4.093,4.093,0,0,0,.454,2.19,1.588,1.588,0,0,0,1.431.692,1.88,1.88,0,0,0,1.317-.4,1.821,1.821,0,0,0,.5-1.247ZM12.372.127A3.372,3.372,0,0,1,9.912-.8a3.294,3.294,0,0,1-.949-2.469v-.178a4.149,4.149,0,0,1,.4-1.85A2.935,2.935,0,0,1,10.5-6.554,3.18,3.18,0,0,1,12.168-7a2.85,2.85,0,0,1,2.219.889,3.611,3.611,0,0,1,.809,2.52v.749H10.823a1.7,1.7,0,0,0,.536,1.079,1.621,1.621,0,0,0,1.133.406,1.98,1.98,0,0,0,1.657-.768l.9,1.009A2.754,2.754,0,0,1,13.933-.2,3.665,3.665,0,0,1,12.372.127ZM12.162-5.51a1.149,1.149,0,0,0-.885.368,1.9,1.9,0,0,0-.435,1.054h2.552v-.146a1.356,1.356,0,0,0-.33-.943A1.186,1.186,0,0,0,12.162-5.51Zm5.764-1.358.057.793A2.4,2.4,0,0,1,19.957-7a1.993,1.993,0,0,1,1.625.641,2.991,2.991,0,0,1,.546,1.917V0H20.293V-4.393a1.19,1.19,0,0,0-.254-.847A1.137,1.137,0,0,0,19.2-5.5a1.262,1.262,0,0,0-1.162.66V0H16.2V-6.868Zm7.789-1.688v1.688h1.174v1.346H25.714v3.428a.818.818,0,0,0,.146.546.733.733,0,0,0,.559.165,2.925,2.925,0,0,0,.54-.044v1.39a3.777,3.777,0,0,1-1.111.165A1.752,1.752,0,0,1,23.88-1.822v-3.7h-1V-6.868h1V-8.557ZM31.77-5.148a4.984,4.984,0,0,0-.66-.051,1.344,1.344,0,0,0-1.365.7V0H27.911V-6.868h1.733l.051.819A1.7,1.7,0,0,1,31.224-7a1.922,1.922,0,0,1,.571.083Zm.147,1.65a4.073,4.073,0,0,1,.394-1.822,2.881,2.881,0,0,1,1.133-1.238A3.306,3.306,0,0,1,35.161-7a3.128,3.128,0,0,1,2.269.851,3.414,3.414,0,0,1,.981,2.311l.013.47a3.59,3.59,0,0,1-.882,2.536,3.067,3.067,0,0,1-2.368.955A3.082,3.082,0,0,1,32.8-.825a3.653,3.653,0,0,1-.885-2.59Zm1.834.133a2.56,2.56,0,0,0,.368,1.495,1.215,1.215,0,0,0,1.054.517,1.218,1.218,0,0,0,1.041-.511A2.8,2.8,0,0,0,36.589-3.5a2.535,2.535,0,0,0-.375-1.485,1.218,1.218,0,0,0-1.054-.527,1.2,1.2,0,0,0-1.041.524A2.849,2.849,0,0,0,33.752-3.364Zm8.753-.121a4.139,4.139,0,0,1,.72-2.558A2.338,2.338,0,0,1,45.2-7a2.1,2.1,0,0,1,1.657.749v-3.5h1.841V0H47.037l-.089-.73a2.159,2.159,0,0,1-1.765.857,2.331,2.331,0,0,1-1.946-.955A4.272,4.272,0,0,1,42.505-3.485Zm1.834.133a2.7,2.7,0,0,0,.336,1.479,1.1,1.1,0,0,0,.978.514,1.228,1.228,0,0,0,1.2-.717v-2.71A1.21,1.21,0,0,0,45.666-5.5Q44.34-5.5,44.34-3.352ZM53.277.127A3.372,3.372,0,0,1,50.817-.8a3.294,3.294,0,0,1-.949-2.469v-.178a4.149,4.149,0,0,1,.4-1.85A2.935,2.935,0,0,1,51.4-6.554,3.18,3.18,0,0,1,53.074-7a2.85,2.85,0,0,1,2.219.889,3.611,3.611,0,0,1,.809,2.52v.749H51.728a1.7,1.7,0,0,0,.536,1.079,1.621,1.621,0,0,0,1.133.406,1.98,1.98,0,0,0,1.657-.768l.9,1.009A2.754,2.754,0,0,1,54.839-.2,3.665,3.665,0,0,1,53.277.127ZM53.068-5.51a1.149,1.149,0,0,0-.885.368,1.9,1.9,0,0,0-.435,1.054H54.3v-.146a1.356,1.356,0,0,0-.33-.943A1.186,1.186,0,0,0,53.068-5.51ZM59.079,0H57.238V-9.75h1.841ZM64.57,0a2.037,2.037,0,0,1-.184-.616,2.22,2.22,0,0,1-1.733.743A2.439,2.439,0,0,1,60.98-.457a1.878,1.878,0,0,1-.663-1.473,1.941,1.941,0,0,1,.809-1.676,3.994,3.994,0,0,1,2.339-.59h.844v-.394a1.132,1.132,0,0,0-.244-.762.961.961,0,0,0-.771-.286,1.093,1.093,0,0,0-.727.222.755.755,0,0,0-.263.609H60.469a1.843,1.843,0,0,1,.368-1.1,2.434,2.434,0,0,1,1.041-.8A3.794,3.794,0,0,1,63.389-7a3,3,0,0,1,2.015.638,2.232,2.232,0,0,1,.746,1.793v2.977a3.284,3.284,0,0,0,.273,1.479V0ZM63.052-1.276a1.58,1.58,0,0,0,.749-.181,1.188,1.188,0,0,0,.508-.486V-3.123h-.686q-1.377,0-1.466.952l-.006.108a.734.734,0,0,0,.241.565A.937.937,0,0,0,63.052-1.276Zm6.2-5.592.057.793A2.4,2.4,0,0,1,71.279-7a1.993,1.993,0,0,1,1.625.641,2.991,2.991,0,0,1,.546,1.917V0H71.615V-4.393a1.19,1.19,0,0,0-.254-.847,1.137,1.137,0,0,0-.844-.263,1.262,1.262,0,0,0-1.162.66V0H67.521V-6.868Zm7.789-1.688v1.688h1.174v1.346H77.036v3.428a.818.818,0,0,0,.146.546.733.733,0,0,0,.559.165,2.925,2.925,0,0,0,.54-.044v1.39A3.777,3.777,0,0,1,77.17.127,1.752,1.752,0,0,1,75.2-1.822v-3.7h-1V-6.868h1V-8.557ZM82.394.127A3.372,3.372,0,0,1,79.934-.8a3.294,3.294,0,0,1-.949-2.469v-.178a4.149,4.149,0,0,1,.4-1.85,2.935,2.935,0,0,1,1.133-1.257A3.18,3.18,0,0,1,82.191-7a2.85,2.85,0,0,1,2.219.889,3.611,3.611,0,0,1,.809,2.52v.749H80.845a1.7,1.7,0,0,0,.536,1.079,1.621,1.621,0,0,0,1.133.406,1.98,1.98,0,0,0,1.657-.768l.9,1.009A2.754,2.754,0,0,1,83.955-.2,3.665,3.665,0,0,1,82.394.127ZM82.184-5.51a1.149,1.149,0,0,0-.885.368,1.9,1.9,0,0,0-.435,1.054h2.552v-.146a1.356,1.356,0,0,0-.33-.943A1.186,1.186,0,0,0,82.184-5.51Zm7.935.362a4.984,4.984,0,0,0-.66-.051,1.344,1.344,0,0,0-1.365.7V0H86.259V-6.868h1.733l.051.819A1.7,1.7,0,0,1,89.573-7a1.922,1.922,0,0,1,.571.083Zm.147,1.65a4.073,4.073,0,0,1,.394-1.822,2.881,2.881,0,0,1,1.133-1.238A3.306,3.306,0,0,1,93.51-7a3.127,3.127,0,0,1,2.269.851,3.414,3.414,0,0,1,.981,2.311l.013.47A3.59,3.59,0,0,1,95.89-.828a3.067,3.067,0,0,1-2.368.955,3.082,3.082,0,0,1-2.371-.952,3.653,3.653,0,0,1-.885-2.59Zm1.834.133a2.56,2.56,0,0,0,.368,1.495,1.215,1.215,0,0,0,1.054.517,1.218,1.218,0,0,0,1.041-.511A2.8,2.8,0,0,0,94.938-3.5a2.535,2.535,0,0,0-.375-1.485A1.218,1.218,0,0,0,93.51-5.51a1.2,1.2,0,0,0-1.041.524A2.849,2.849,0,0,0,92.1-3.364Z" transform="translate(743.97 14777.971) rotate(-90)"/>
  </g>
</svg>
