<svg xmlns="http://www.w3.org/2000/svg" xmlns:xlink="http://www.w3.org/1999/xlink" width="717.318" height="407.412" viewBox="0 0 717.318 407.412">
  <defs>
    <clipPath id="clip-path">
      <rect id="Rectángulo_454797" data-name="Rectángulo 454797" width="717.318" height="407.412" fill="none"/>
    </clipPath>
  </defs>
  <g id="Grupo_1177310" data-name="Grupo 1177310" transform="translate(-232.711 -16053)">
    <g id="Grupo_1177236" data-name="Grupo 1177236" transform="translate(232.711 16053)">
      <g id="Grupo_1177233" data-name="Grupo 1177233">
        <g id="Grupo_1177232" data-name="Grupo 1177232" clip-path="url(#clip-path)">
          <text id="_25" data-name="25" transform="translate(185.712 11.505) rotate(-2.778)" font-size="13" font-family="Roboto-Bold, Roboto" font-weight="700"><tspan x="0" y="0">25</tspan></text>
          <text id="_27" data-name="27" transform="translate(0.519 193.761) rotate(-2.778)" font-size="13" font-family="Roboto-Bold, Roboto" font-weight="700"><tspan x="0" y="0">27</tspan></text>
        </g>
      </g>
      <text id="_5" data-name="5" transform="translate(54.23 36.418) rotate(-2.778)" font-size="13" font-family="Roboto-Bold, Roboto" font-weight="700"><tspan x="0" y="0">5</tspan></text>
      <text id="_3" data-name="3" transform="translate(54.314 368.207) rotate(-2.778)" font-size="13" font-family="Roboto-Bold, Roboto" font-weight="700"><tspan x="0" y="0">3</tspan></text>
      <text id="_3-2" data-name="3" transform="translate(359.246 371.278) rotate(-2.778)" font-size="13" font-family="Roboto-Bold, Roboto" font-weight="700"><tspan x="0" y="0">3</tspan></text>
      <text id="_1" data-name="1" transform="translate(193.551 350.578) rotate(-2.778)" font-size="13" font-family="Roboto-Bold, Roboto" font-weight="700"><tspan x="0" y="0">1</tspan></text>
      <text id="_3-3" data-name="3" transform="translate(43.145 393.345) rotate(-2.778)" font-size="13" font-family="Roboto-Bold, Roboto" font-weight="700"><tspan x="0" y="0">3</tspan></text>
      <text id="_3-4" data-name="3" transform="translate(366.175 397.679) rotate(-2.778)" font-size="13" font-family="Roboto-Bold, Roboto" font-weight="700"><tspan x="0" y="0">3</tspan></text>
      <text id="_2" data-name="2" transform="translate(214.582 371.269) rotate(-2.778)" font-size="13" font-family="Roboto-Bold, Roboto" font-weight="700"><tspan x="0" y="0">2</tspan></text>
      <text id="_2-2" data-name="2" transform="translate(362.758 41.334) rotate(-2.778)" font-size="13" font-family="Roboto-Bold, Roboto" font-weight="700"><tspan x="0" y="0">2</tspan></text>
      <text id="CAPUCHA" transform="translate(158.742 190.681)" font-size="17" font-family="Roboto-Bold, Roboto" font-weight="700"><tspan x="0" y="0">CAPUC</tspan><tspan y="0" letter-spacing="0.008em">H</tspan><tspan y="0">A</tspan></text>
      <text id="CANGURO" transform="translate(514.482 268.651)" font-size="17" font-family="Roboto-Bold, Roboto" font-weight="700"><tspan x="0" y="0">CANGURO</tspan></text>
      <text id="Cremallera" transform="translate(551.654 151.577) rotate(33.262)" font-size="17" font-family="Roboto-Regular, Roboto"><tspan x="0" y="0">C</tspan><tspan y="0" letter-spacing="-0.009em">r</tspan><tspan y="0">emalle</tspan><tspan y="0" letter-spacing="-0.019em">r</tspan><tspan y="0">a</tspan></text>
      <path id="Trazado_995854" data-name="Trazado 995854" d="M400.781,409.062H35.519V408.2h364.4V54.354H59.127v-.867H400.781Z" transform="translate(-20.129 -30.312)"/>
      <g id="Grupo_1177235" data-name="Grupo 1177235">
        <g id="Grupo_1177234" data-name="Grupo 1177234" clip-path="url(#clip-path)">
          <path id="Trazado_995855" data-name="Trazado 995855" d="M75.52,48.021a31.431,31.431,0,0,1,8.888,4.946l-1.789-4.946,1.789-4.945a31.4,31.4,0,0,1-8.888,4.945" transform="translate(-42.798 -24.412)"/>
          <rect id="Rectángulo_454798" data-name="Rectángulo 454798" width="0.867" height="364.937" transform="translate(32.073 13.822) rotate(-2.756)"/>
          <rect id="Rectángulo_454799" data-name="Rectángulo 454799" width="15.382" height="0.867" transform="translate(17.124 31.989)"/>
          <rect id="Rectángulo_454800" data-name="Rectángulo 454800" width="0.867" height="338.206" transform="translate(24.382 40.11)"/>
          <path id="Trazado_995856" data-name="Trazado 995856" d="M49.349,74.829a38.493,38.493,0,0,0,6.058,10.888l-6.058-2.191-6.057,2.191a38.491,38.491,0,0,0,6.057-10.888" transform="translate(-24.534 -42.406)"/>
          <rect id="Rectángulo_454801" data-name="Rectángulo 454801" width="0.866" height="52.639" transform="translate(32.203 27.733) rotate(-45.612)"/>
          <path id="Trazado_995857" data-name="Trazado 995857" d="M158.8,145.061a38.5,38.5,0,0,0-12.019-3.287l5.8-2.8,2.671-5.862a38.463,38.463,0,0,0,3.544,11.945" transform="translate(-83.183 -75.438)"/>
          <path id="Trazado_995858" data-name="Trazado 995858" d="M166.261,421.458l-1.02-4.211,1.263-.306,1.02,4.211Zm-2.039-8.422-1.02-4.212,1.263-.306,1.02,4.212Zm-2.039-8.423-1.02-4.211,1.263-.306,1.02,4.212Zm-2.039-8.423-1.02-4.211,1.263-.306,1.02,4.212Zm-2.039-8.422-1.02-4.212,1.263-.306,1.02,4.211Zm-2.039-8.423-1.02-4.211,1.263-.306,1.02,4.211Zm-2.039-8.422L153,366.712l1.263-.305,1.02,4.211Zm-2.039-8.423-1.02-4.21,1.263-.306,1.02,4.211Zm-2.039-8.422-1.02-4.211,1.263-.306,1.02,4.212Zm-2.039-8.422-1.02-4.211,1.263-.305,1.02,4.211Zm-2.04-8.422-1.02-4.212,1.263-.306,1.02,4.212Zm-2.039-8.423-1.02-4.211,1.263-.305,1.02,4.21Zm-2.039-8.423-1.02-4.211,1.263-.306,1.02,4.211Zm-2.039-8.422-1.02-4.211,1.263-.306,1.02,4.212Zm-2.039-8.422-1.02-4.211,1.263-.306,1.02,4.212Zm-2.039-8.422-1.02-4.211,1.263-.306,1.02,4.211Zm-2.039-8.422-1.02-4.212,1.263-.305,1.02,4.212Zm-2.039-8.423-1.02-4.211,1.263-.305,1.02,4.211Zm-2.022-8.45q-.441-2.147-.846-4.257l1.277-.244q.4,2.1.843,4.24Zm-1.633-8.528c-.253-1.435-.5-2.876-.724-4.281l1.283-.207c.226,1.4.468,2.834.721,4.262Zm-1.382-8.574c-.209-1.439-.408-2.887-.589-4.3l1.289-.166c.181,1.409.378,2.85.586,4.282Zm-1.106-8.616c-.159-1.433-.307-2.887-.44-4.322l1.294-.12c.133,1.427.28,2.873.438,4.3Zm-.8-8.653c-.107-1.456-.2-2.915-.274-4.337l1.3-.069c.075,1.413.166,2.864.272,4.311Zm-.458-8.679c-.045-1.448-.076-2.91-.089-4.346l1.3-.012c.013,1.427.043,2.88.088,4.318Zm1.223-8.676-1.3-.019c.021-1.445.06-2.907.117-4.347l1.3.052c-.057,1.429-.1,2.88-.116,4.314m.343-8.621-1.3-.086c.1-1.457.214-2.916.347-4.334l1.294.122c-.132,1.406-.248,2.852-.344,4.3m.81-8.583-1.29-.159c.178-1.439.38-2.887.6-4.306l1.285.2c-.219,1.406-.419,2.841-.6,4.266m1.325-8.51-1.277-.241c.271-1.432.567-2.866.881-4.261l1.268.286c-.311,1.38-.6,2.8-.872,4.216m1.893-8.4-1.257-.331c.37-1.408.77-2.816,1.188-4.186l1.243.378c-.412,1.354-.807,2.747-1.174,4.139m2.508-8.227-1.227-.429c.479-1.373.99-2.746,1.518-4.08l1.208.479c-.522,1.317-1.026,2.673-1.5,4.03m3.168-7.992-1.186-.53c.594-1.33,1.222-2.654,1.864-3.936l1.162.583c-.634,1.264-1.253,2.57-1.84,3.883m3.854-7.678-1.134-.636c.71-1.266,1.458-2.527,2.221-3.749l1.1.689c-.753,1.2-1.489,2.449-2.189,3.7m4.552-7.283-1.068-.741c.829-1.194,1.694-2.377,2.572-3.519l1.03.792c-.865,1.125-1.718,2.292-2.535,3.468M149.105,146l-.99-.842c.942-1.106,1.919-2.2,2.906-3.25l.947.89c-.972,1.035-1.935,2.112-2.863,3.2m5.881-6.261-.9-.935c1.038-1,2.117-1.995,3.21-2.951l.856.978c-1.076.942-2.14,1.921-3.163,2.908m6.463-5.662-.809-1.017c1.128-.9,2.3-1.783,3.475-2.633l.761,1.054c-1.162.838-2.315,1.712-3.427,2.6m282.389-.8c-.014,0-1.424-.49-4.115-1.3l.377-1.244c2.718.823,4.149,1.315,4.163,1.32Zm-8.266-2.519c-1.351-.384-2.754-.772-4.171-1.153l.338-1.255c1.422.383,2.832.772,4.188,1.157ZM168.42,129.046l-.712-1.088c1.2-.787,2.445-1.564,3.7-2.309l.664,1.117c-1.237.735-2.465,1.5-3.65,2.279m258.8-.54q-1.986-.51-4.2-1.053l.31-1.263q2.22.545,4.212,1.056Zm-8.407-2.063q-2.031-.477-4.218-.97l.285-1.267q2.194.493,4.23.972Zm-242.993-1.8L175.2,123.5c1.263-.681,2.569-1.35,3.879-1.989l.57,1.169c-1.295.631-2.584,1.292-3.832,1.964m234.547-.105q-2.058-.444-4.235-.9l.264-1.273q2.182.452,4.245.9Zm-8.476-1.757q-2.077-.412-4.25-.828l.244-1.277q2.178.417,4.259.83Zm-8.5-1.623q-2.091-.382-4.261-.763l.225-1.28q2.175.382,4.27.765Zm-209.827-.29-.524-1.19c1.312-.578,2.666-1.143,4.021-1.68l.479,1.208c-1.341.532-2.679,1.091-3.977,1.662m201.3-1.206q-2.1-.354-4.271-.7l.206-1.283q2.175.35,4.281.7Zm-8.548-1.377q-2.11-.324-4.281-.644l.188-1.286q2.176.32,4.29.646Zm-184.738-.594-.435-1.224c1.354-.481,2.744-.948,4.13-1.388l.393,1.239c-1.373.435-2.748.9-4.089,1.374m176.171-.667q-2.117-.3-4.289-.588l.172-1.288q2.176.291,4.3.589Zm-8.582-1.149q-2.123-.271-4.3-.534l.156-1.29q2.177.263,4.3.534Zm-159.367-.795-.352-1.252c1.384-.389,2.8-.763,4.212-1.113l.312,1.262c-1.4.346-2.8.717-4.172,1.1m150.772-.246q-2.13-.244-4.3-.481l.14-1.292q2.177.236,4.31.481Zm-8.609-.935q-2.134-.219-4.308-.428l.124-1.294q2.179.209,4.316.429Zm-8.618-.831q-2.138-.193-4.313-.377l.109-1.3q2.179.185,4.32.378Zm-125.168-.065-.274-1.271c1.4-.3,2.838-.591,4.271-.856l.237,1.278c-1.42.263-2.845.549-4.234.849m116.539-.665q-2.142-.169-4.317-.328l.095-1.3q2.179.159,4.325.328Zm-8.635-.63q-2.144-.144-4.321-.279l.081-1.3q2.18.135,4.328.279Zm-99.411-.283-.2-1.284c1.423-.223,2.874-.43,4.313-.615l.166,1.289c-1.427.184-2.866.39-4.277.61m90.769-.25q-2.147-.12-4.323-.231l.065-1.3q2.18.11,4.331.231Zm-8.648-.438q-2.149-.1-4.326-.182l.052-1.3q2.181.086,4.333.183Zm-8.652-.342q-2.151-.073-4.327-.136l.037-1.3q2.18.063,4.334.136Zm-64.9-.075-.132-1.293c1.435-.146,2.9-.276,4.341-.385l.1,1.3c-1.433.108-2.882.237-4.306.382m56.241-.173q-2.151-.05-4.329-.09l.024-1.3q2.179.04,4.335.09Zm-8.657-.156q-2.154-.027-4.33-.044l.01-1.3q2.18.017,4.336.044Zm-19.012-.026-.039,0c-.009,0-.953-.105-2.641-.217l.087-1.3c1.546.1,2.46.2,2.659.218l1.618-.014.01,1.3Zm6.023-.039,0-1.3q2.179-.005,4.336,0l0,1.3q-2.153,0-4.33,0m-25.972-.259-.064-1.3c1.45-.072,2.916-.126,4.357-.16l.031,1.3c-1.429.033-2.884.087-4.323.159m12.963-.131c-1.41-.045-2.861-.069-4.314-.073l0-1.3c1.465,0,2.929.029,4.352.074Z" transform="translate(-70.331 -61.299)" fill="#ffa200"/>
          <path id="Trazado_995859" data-name="Trazado 995859" d="M484.422,868.895l-.266-.132.579-1.164.266.132Zm-4.149-2.036q-1.955-.946-3.9-1.864l.555-1.176q1.954.921,3.916,1.869Zm-7.826-3.688q-1.975-.905-3.942-1.783l.53-1.187q1.973.881,3.954,1.789Zm-7.9-3.525q-1.992-.864-3.977-1.7l.5-1.2q1.991.839,3.99,1.706Zm-7.973-3.358q-2.012-.822-4.013-1.615l.479-1.208q2.008.8,4.026,1.62ZM448.53,853.1q-2.028-.778-4.047-1.528l.453-1.219q2.025.753,4.06,1.534Zm-8.109-3.014q-2.045-.735-4.079-1.44l.427-1.228q2.04.708,4.092,1.445Zm-8.174-2.836q-2.06-.69-4.109-1.35l.4-1.237q2.056.663,4.123,1.355Zm-8.233-2.656q-2.075-.643-4.138-1.259l.372-1.246q2.069.617,4.152,1.263ZM215.446,842.9l-.479-1.208c.058-.023,1.45-.572,4.124-1.468l.412,1.233c-2.636.882-4.043,1.437-4.057,1.443m200.279-.78q-2.09-.6-4.166-1.166l.344-1.253q2.082.57,4.18,1.17Zm-192.106-1.979-.381-1.243c1.341-.411,2.744-.825,4.171-1.231l.356,1.25c-1.419.4-2.813.815-4.146,1.223m183.764-.306q-2.1-.551-4.191-1.072l.315-1.261q2.1.523,4.205,1.075ZM231.934,837.78l-.332-1.257c1.384-.366,2.8-.727,4.212-1.075l.311,1.262c-1.4.346-2.813.7-4.19,1.069m167.054-.037q-2.114-.5-4.214-.976l.286-1.268q2.106.475,4.228.979Zm-8.438-1.9q-2.127-.454-4.236-.879l.257-1.274q2.117.426,4.251.883Zm-150.219-.129-.29-1.267c1.4-.32,2.822-.636,4.242-.938l.271,1.271c-1.413.3-2.833.616-4.222.934m141.739-1.58q-2.137-.406-4.254-.782l.228-1.28q2.125.378,4.268.784Zm-133.279-.225-.252-1.275c1.4-.277,2.837-.55,4.267-.813l.234,1.279c-1.424.261-2.854.533-4.249.809m124.763-1.288q-2.145-.355-4.271-.682l.2-1.285q2.133.328,4.287.685Zm-116.254-.27-.217-1.282c1.409-.238,2.851-.471,4.287-.694l.2,1.285c-1.43.221-2.867.454-4.269.691M365,831.305q-2.154-.306-4.286-.583l.168-1.289q2.14.278,4.3.585Zm-99.156-.282-.182-1.287q2.114-.3,4.3-.579l.165,1.289q-2.182.279-4.287.576m90.578-.833q-2.162-.255-4.3-.481l.137-1.292q2.144.226,4.314.483Zm-82-.264-.148-1.291q2.127-.244,4.317-.467l.131,1.293q-2.183.222-4.3.465m73.4-.647q-2.168-.2-4.309-.379l.106-1.3q2.149.176,4.325.38Zm-64.79-.229-.115-1.295q2.135-.19,4.326-.357l.1,1.3q-2.183.166-4.311.355m56.168-.479q-2.173-.151-4.317-.277l.075-1.3q2.152.125,4.332.278Zm-47.542-.177-.082-1.3q2.142-.136,4.334-.249l.067,1.3q-2.184.112-4.318.248m38.906-.325q-2.176-.1-4.322-.174l.045-1.3q2.153.074,4.337.175Zm-30.267-.117-.05-1.3q2.148-.083,4.339-.141l.035,1.3q-2.184.058-4.324.141m21.621-.177q-2.179-.048-4.324-.07l.013-1.3q2.153.021,4.34.07Zm-12.974-.052-.019-1.3q2.151-.03,4.341-.036l0,1.3q-2.182.005-4.325.036" transform="translate(-121.824 -468.324)" fill="#ffa200"/>
          <path id="Trazado_995860" data-name="Trazado 995860" d="M1265.005,335.1l-2.635-1.706.707-1.091,2.635,1.706Zm-6.272-4.061-3.637-2.355.707-1.091,3.637,2.354Zm-7.275-4.709-3.637-2.355.707-1.091,3.637,2.355Zm-7.274-4.71-3.637-2.355.707-1.091,3.637,2.355Zm-7.274-4.71-3.637-2.355.707-1.091,3.637,2.355Zm-7.274-4.71L1226,309.85l.707-1.091,3.637,2.355Zm-7.274-4.71-3.637-2.354.706-1.091,3.637,2.355Zm-7.274-4.709-3.637-2.355.707-1.091,3.637,2.355Zm-7.275-4.71-3.637-2.355.707-1.091,3.637,2.354Zm-7.274-4.71-3.638-2.355.707-1.091,3.637,2.354Zm-7.274-4.709-3.637-2.355.707-1.091,3.637,2.355Zm-7.274-4.71-3.638-2.355.707-1.091,3.638,2.355Zm-7.275-4.71-3.637-2.355.707-1.091,3.637,2.355Zm-7.274-4.71-3.637-2.354.707-1.091,3.637,2.355Zm-7.274-4.71-3.637-2.354.707-1.091,3.637,2.355Zm-7.275-4.709-3.636-2.355.707-1.091,3.636,2.355Zm-7.274-4.71-3.636-2.355.707-1.091,3.637,2.354Zm-7.274-4.71-3.637-2.355.707-1.091,3.637,2.354Zm-7.274-4.709-3.637-2.355.706-1.091,3.637,2.355Zm-7.274-4.71-3.637-2.355.706-1.091,3.637,2.355Zm-7.274-4.71-3.637-2.355.707-1.091,3.637,2.355Zm-7.274-4.71-3.637-2.354.707-1.091,3.637,2.355Zm-7.274-4.71-3.637-2.354.707-1.091,3.637,2.355Zm-7.275-4.709-3.637-2.355.707-1.091,3.637,2.355Zm-7.523-2.565h-4.333v-1.3h4.333Zm-8.666,0h-4.333v-1.3h4.333Zm-8.666,0h-4.333v-1.3h4.333Zm-8.666,0h-4.333v-1.3h4.333Zm-8.666,0h-4.333v-1.3h4.333Zm-8.666,0h-4.333v-1.3h4.333Zm-8.666,0h-4.333v-1.3h4.333Zm-8.666,0h-4.333v-1.3h4.333Zm-8.666,0h-4.333v-1.3h4.333Zm-8.666,0h-4.333v-1.3h4.333Zm-8.666,0h-4.333v-1.3h4.333Zm-8.666,0h-4.333v-1.3h4.333Z" transform="translate(-561.907 -126.697)" fill="#ffa200"/>
          <path id="Trazado_995861" data-name="Trazado 995861" d="M1387.989,360.9a.648.648,0,0,1-.356-.106l-138.652-90.7a.65.65,0,0,1,.712-1.088l138.652,90.7a.65.65,0,0,1-.356,1.194" transform="translate(-707.646 -152.388)"/>
          <path id="Trazado_995862" data-name="Trazado 995862" d="M1237.336,268.419a.65.65,0,0,1-.483-1.085l10.4-11.554a.65.65,0,0,1,.966.87l-10.4,11.554a.651.651,0,0,1-.484.215" transform="translate(-700.845 -144.832)"/>
          <path id="Trazado_995863" data-name="Trazado 995863" d="M1554.67,478.6a.65.65,0,0,1-.505-1.059l12.132-14.988a.65.65,0,0,1,1.011.818l-12.132,14.987a.649.649,0,0,1-.506.241" transform="translate(-880.682 -261.995)"/>
          <path id="Trazado_995864" data-name="Trazado 995864" d="M1161.128,479.569c-1.443-.007-2.905-.031-4.345-.072l.036-1.3c1.43.04,2.882.063,4.315.071Zm4.348-.028-.022-1.3c1.414-.024,2.866-.065,4.317-.122l.051,1.3c-1.46.057-2.922.1-4.345.123m-13.035-.218c-1.443-.076-2.9-.171-4.338-.282l.1-1.3c1.425.111,2.874.2,4.306.279Zm21.721-.119-.077-1.3c1.413-.084,2.863-.185,4.309-.3l.1,1.3c-1.454.116-2.913.217-4.335.3m-30.389-.555c-1.44-.15-2.893-.321-4.319-.509l.17-1.289c1.413.186,2.854.356,4.283.5Zm39.052-.132-.128-1.294c1.424-.14,2.87-.3,4.3-.464l.151,1.291c-1.434.168-2.887.325-4.319.467m-47.674-1c-1.433-.23-2.874-.483-4.284-.752l.244-1.277c1.4.267,2.827.518,4.247.746Zm56.3-.006-.175-1.288c1.4-.19,2.843-.4,4.278-.615l.2,1.285c-1.442.22-2.888.428-4.3.618m8.6-1.311-.234-1.279a33.313,33.313,0,0,0,4.115-1.086l.4,1.236a34.186,34.186,0,0,1-4.282,1.129m-73.446-.316c-1.423-.316-2.846-.657-4.232-1.013l.323-1.26c1.372.352,2.782.69,4.191,1Zm-8.429-2.163c-1.4-.408-2.8-.842-4.157-1.289l.406-1.235c1.346.443,2.73.873,4.115,1.276Zm90.271-.169-.5-1.2c1.283-.53,2.6-1.126,3.91-1.771l.574,1.166c-1.336.657-2.678,1.265-3.987,1.806m-98.539-2.554c-1.364-.5-2.729-1.035-4.058-1.58l.494-1.2c1.314.54,2.665,1.066,4.014,1.564Zm106.39-1.3-.641-1.13c1.229-.7,2.468-1.442,3.683-2.216l.7,1.1c-1.234.786-2.492,1.543-3.741,2.25m-114.446-2.015c-1.323-.6-2.645-1.237-3.929-1.884l.585-1.161c1.269.64,2.575,1.266,3.883,1.861Zm121.808-2.669-.751-1.061c1.15-.813,2.312-1.675,3.455-2.563l.8,1.026c-1.158.9-2.337,1.774-3.5,2.6m-129.589-1.253c-1.267-.7-2.535-1.442-3.768-2.194l.678-1.109c1.217.743,2.469,1.472,3.72,2.167Zm136.474-4.09-.839-.993c1.074-.909,2.161-1.866,3.229-2.845l.878.958c-1.081.991-2.181,1.96-3.268,2.88m-143.912-.456c-1.205-.809-2.405-1.653-3.568-2.51l.772-1.046c1.146.846,2.331,1.679,3.52,2.478Zm-7.019-5.18c-1.138-.924-2.256-1.877-3.323-2.831l.867-.969c1.051.941,2.153,1.879,3.276,2.79Zm157.353-.247-.913-.925c1-.99,2.016-2.026,3.01-3.08l.945.892c-1.005,1.065-2.029,2.113-3.043,3.113m-163.858-5.578c-1.047-1.037-2.064-2.1-3.022-3.16l.964-.872c.942,1.042,1.942,2.088,2.972,3.108Zm169.835-.749-.975-.861c.94-1.064,1.882-2.166,2.8-3.275l1,.829c-.928,1.12-1.879,2.232-2.827,3.306m-175.692-5.745c-1.223-1.536-2.091-2.775-2.6-3.543l1.082-.721c.5.748,1.344,1.955,2.539,3.455Zm181.244-.952-1.026-.8c.875-1.123,1.75-2.28,2.6-3.439l1.047.77c-.86,1.169-1.743,2.335-2.625,3.467m-186.126-6.349c-.7-1.265-1.369-2.582-1.975-3.913l1.183-.538c.591,1.3,1.24,2.585,1.927,3.819Zm191.278-.656-1.068-.741c.811-1.168,1.624-2.37,2.416-3.574l1.086.714c-.8,1.213-1.617,2.425-2.433,3.6m4.776-7.26-1.1-.688c.75-1.2,1.5-2.444,2.24-3.689l1.119.662c-.742,1.254-1.5,2.5-2.256,3.715m-199.684-.056c-.491-1.352-.941-2.755-1.338-4.17l1.252-.351c.388,1.385.828,2.757,1.308,4.078Zm204.112-7.423-1.133-.637c.693-1.231,1.391-2.5,2.076-3.784l1.146.614c-.689,1.288-1.393,2.569-2.089,3.808m-206.482-1c-.29-1.4-.539-2.853-.742-4.31l1.287-.179c.2,1.429.444,2.852.727,4.228Zm210.581-6.657-1.158-.591c.645-1.266,1.292-2.567,1.923-3.866l1.17.568c-.635,1.306-1.286,2.615-1.935,3.888m-211.794-2c-.111-1.418-.186-2.885-.221-4.361l1.3-.031c.035,1.453.108,2.9.217,4.291Zm215.59-5.812-1.18-.547c.6-1.292,1.2-2.616,1.781-3.935l1.189.526c-.586,1.326-1.188,2.657-1.79,3.956m-214.5-2.88-1.3-.035c.038-1.424.111-2.89.218-4.358l1.3.094c-.105,1.448-.178,2.894-.216,4.3m218.014-5.063-1.2-.505c.555-1.315,1.11-2.659,1.648-3.994l1.2.487c-.541,1.341-1.1,2.691-1.656,4.013m-217.394-3.523-1.292-.149c.163-1.413.359-2.866.583-4.32l1.285.2c-.222,1.438-.416,2.874-.577,4.271m220.642-4.527-1.213-.467c.513-1.332,1.025-2.692,1.524-4.044l1.219.449c-.5,1.358-1.015,2.725-1.53,4.062m-219.333-3.985-1.277-.244c.265-1.394.563-2.828.885-4.261l1.269.284c-.319,1.42-.614,2.84-.877,4.221m222.336-4.16-1.226-.432c.474-1.347.948-2.721,1.408-4.087l1.232.416c-.462,1.37-.938,2.751-1.414,4.1m-220.45-4.257-1.26-.322c.353-1.378.737-2.793,1.141-4.208l1.25.357c-.4,1.4-.782,2.807-1.131,4.173m223.222-3.967-1.237-.4q.657-2.035,1.3-4.123l1.242.383q-.647,2.1-1.306,4.138m-220.849-4.344-1.24-.389c.428-1.363.884-2.754,1.355-4.136l1.23.419c-.468,1.373-.92,2.754-1.345,4.107m223.408-3.949-1.247-.368q.328-1.111.652-2.236l-.884-.753.843-.989,1.521,1.3-.115.4q-.383,1.334-.771,2.648m-220.622-4.233-1.221-.447c.493-1.348,1.011-2.717,1.539-4.07l1.211.473c-.525,1.345-1.04,2.7-1.529,4.044m215.846-1.934-3.3-2.809.843-.989,3.3,2.809Zm-212.7-6.122-1.2-.5c.543-1.312,1.115-2.659,1.7-4l1.192.519c-.582,1.337-1.151,2.677-1.69,3.981m3.455-7.931-1.182-.541c.6-1.3,1.216-2.626,1.844-3.939l1.173.561c-.625,1.306-1.242,2.625-1.834,3.919m3.734-7.808-1.163-.581c.638-1.278,1.3-2.582,1.974-3.876l1.153.6c-.668,1.287-1.329,2.585-1.964,3.857m3.991-7.683-1.144-.617c.693-1.283,1.4-2.566,2.1-3.813l1.134.636c-.7,1.241-1.4,2.518-2.086,3.794m4.231-7.556-1.124-.653c.729-1.253,1.475-2.513,2.217-3.746l1.114.671c-.74,1.227-1.482,2.481-2.207,3.728m4.475-7.418-1.1-.691c.811-1.293,1.6-2.528,2.355-3.669l1.086.714c-.746,1.134-1.533,2.361-2.34,3.646m4.828-7.163-1.041-.779,2.6-3.469,1.041.779Zm5.193-6.938-1.041-.779,2.6-3.468,1.041.778Zm5.193-6.937-1.041-.779,2.6-3.469,1.041.779Zm5.193-6.938-1.041-.779,2.6-3.469,1.041.779Zm5.193-6.937-1.041-.779,2.6-3.468,1.041.779Zm5.193-6.938-1.041-.779,2.6-3.468,1.041.778Zm5.193-6.937-1.041-.78,2.6-3.468,1.041.779Zm15.006-.122-2.611-1.339.594-1.156,2.61,1.338Zm-6.466-3.316-3.855-1.977.593-1.157,3.855,1.977Z" transform="translate(-597.845 -145.559)" fill="#ffa200"/>
          <path id="Trazado_995865" data-name="Trazado 995865" d="M1276.957,478.916H987.521V201.907l114.913-.387.441.3,174.083,116.833Zm-285.97-3.466h282.5V320.5L1101.383,204.99l-110.4.371Z" transform="translate(-559.64 -114.204)" fill="#0000b5"/>
          <path id="Trazado_995866" data-name="Trazado 995866" d="M432.211,461.856l-8.271-6.022c-.172-.126-17.571-12.707-45.275-25.3-25.528-11.606-65.286-25.6-109.718-26.36l-1.418-.024-8.8-47.654-7.309,47.511-1.308.155c-.819.1-82.054,9.859-97.113,20.735l-2.087,1.507-29.2-119.419a347.915,347.915,0,0,1-10.879-59.41c-1.829-19.459-1.739-37.5.269-53.636,2.52-20.256,8.089-37.55,16.552-51.4,13.184-21.579,33.495-35.065,60.369-40.083,1.208-.28,24.843-5.626,67-6.311,39.681-.643,104.455,2.816,187.671,22.965l1.7.412-.432,1.7c-.167.655-16.784,66.368-27.157,139.923-6.086,43.156-8.862,80.52-8.252,111.055.758,37.935,6.754,65.272,17.822,81.251ZM270.425,400.735c44.489,1.039,84.184,15.044,109.758,26.679a316.734,316.734,0,0,1,39.293,21.25c-8.873-16.972-13.7-42.616-14.379-76.413-.613-30.723,2.176-68.279,8.29-111.624,9.47-67.14,24.127-127.756,26.8-138.562C358.221,102.383,294.426,98.977,255.24,99.6c-42.746.682-66.219,6.175-66.451,6.231l-.085.018c-25.887,4.824-45.429,17.774-58.085,38.49-18.624,30.485-19.159,72.787-16.328,102.906a343.272,343.272,0,0,0,10.762,58.788l.023.084,28.03,114.638c18.569-10.159,84.756-18.591,95.293-19.882l10.024-65.162Z" transform="translate(-62.073 -54.444)" fill="#0000b5"/>
        </g>
      </g>
    </g>
  </g>
</svg>
