<svg xmlns="http://www.w3.org/2000/svg" width="280.201" height="322.623" viewBox="0 0 280.201 322.623">
  <g id="Grupo_1177308" data-name="Grupo 1177308" transform="translate(-1075.178 -1758.688)">
    <path id="Trazado_995323" data-name="Trazado 995323" d="M17.579,339.665a.925.925,0,0,1-.924-.935l2.191-199.918a.922.922,0,0,1,.294-.665.942.942,0,0,1,.685-.247c20.854,1.233,37.6-10.112,49.824-33.7a135.955,135.955,0,0,0,12.2-36.179.924.924,0,0,1,1.129-.752l21.635,5.2a.925.925,0,0,1,.706.964c-3.954,55.785,8.5,79.813,19.646,90.147,11.7,10.845,24.356,9.126,24.482,9.107.023,0,.048-.006.071-.008,11.308-.79,20.642-6.821,27.743-17.926,5.75-8.991,10.065-21.3,12.828-36.573,4.723-26.119,3.226-52.164,3.21-52.424a.924.924,0,0,1,.922-.98h21.635a.924.924,0,0,1,.921.845c2.437,28.351,12.909,48.652,30.284,58.707a49.4,49.4,0,0,0,25.689,6.724.925.925,0,0,1,.994.911l2.465,204.573a.924.924,0,0,1-.917.935l-257.7,2.191Zm3.1-199.872-2.17,198.014,255.833-2.174L271.9,132.939a51.489,51.489,0,0,1-25.772-7.009c-12.4-7.175-27.812-23.287-31.124-59.3H195.19c.222,5.01.959,28.394-3.279,51.856-2.8,15.523-7.207,28.058-13.088,37.258-7.428,11.62-17.233,17.94-29.144,18.783-.953.134-13.776,1.692-25.93-9.545-7.318-6.766-12.815-16.778-16.338-29.756-4.336-15.978-5.68-36.542-3.994-61.136L83.5,69.3A138.951,138.951,0,0,1,71.29,105.05c-12.22,23.589-29.709,35.587-50.605,34.744" transform="translate(1068.785 1733.826)" fill="#0048c5"/>
    <path id="Trazado_995324" data-name="Trazado 995324" d="M274.737,171.727H21.964a.308.308,0,1,1,0-.616H274.737a.308.308,0,1,1,0,.616" transform="translate(1066.866 1693.014)"/>
    <path id="Trazado_995325" data-name="Trazado 995325" d="M274.737,225.505H21.964a.308.308,0,1,1,0-.616H274.737a.308.308,0,1,1,0,.616" transform="translate(1066.866 1672.373)"/>
    <path id="Trazado_995326" data-name="Trazado 995326" d="M274.737,384.616H21.964a.308.308,0,1,1,0-.616H274.737a.308.308,0,1,1,0,.616" transform="translate(1066.866 1611.304)"/>
    <path id="Trazado_995327" data-name="Trazado 995327" d="M25.742,71.136a.308.308,0,0,1-.308-.308v-23.6a.308.308,0,0,1,.308-.308h0l248.6.942a.308.308,0,0,1,.307.308V62.612a.308.308,0,1,1-.616,0V48.472L26.05,47.533V70.828a.308.308,0,0,1-.308.308" transform="translate(1065.416 1740.682)"/>
    <path id="Trazado_996514" data-name="Trazado 996514" d="M0,0H1.541V.616H0Z" transform="matrix(0.037, -0.999, 0.999, 0.037, 1088.522, 1873.801)" fill="aqua"/>
    <path id="Trazado_995328" data-name="Trazado 995328" d="M22.555,146.273l-.616-.023.116-3.117.616.023Zm.233-6.234-.616-.023.116-3.117.616.023Zm.233-6.234-.616-.023.116-3.117.616.023Zm.233-6.235-.616-.023.116-3.117.616.023Zm.233-6.234-.616-.023.116-3.117.616.023Zm.233-6.234-.616-.023.116-3.117.616.023Zm.233-6.235-.616-.023.116-3.117.616.023Zm.233-6.234-.616-.023.116-3.117.616.023Zm.233-6.234-.616-.023.116-3.117.616.023Z" transform="translate(1066.757 1722.894)" fill="#ffa200"/>
    <path id="Trazado_995329" data-name="Trazado 995329" d="M25.957,87.064l-.616-.023.07-1.863.323.028s.566.049,1.51.049v.616c-.554,0-.975-.016-1.241-.03Z" transform="translate(1065.451 1725.996)" fill="aqua"/>
    <path id="Trazado_995330" data-name="Trazado 995330" d="M33.192,73.945l-.056-.614c.967-.089,1.937-.219,2.884-.391l.11.607c-.964.174-1.952.307-2.937.4M39.02,72.89l-.165-.594a28.7,28.7,0,0,0,2.756-.916l.224.574a29.477,29.477,0,0,1-2.815.935m5.517-2.166-.287-.545a23.65,23.65,0,0,0,2.476-1.5l.352.507a24.4,24.4,0,0,1-2.541,1.54m4.867-3.39-.415-.457a21.667,21.667,0,0,0,2-2.082l.471.4a22.248,22.248,0,0,1-2.06,2.142M53.22,62.8l-.519-.332a23.582,23.582,0,0,0,1.4-2.532l.556.265a24.017,24.017,0,0,1-1.436,2.6m2.555-5.344-.582-.2c.307-.891.577-1.828.8-2.786l.6.142c-.231.977-.508,1.934-.821,2.845" transform="translate(1062.46 1737.784)" fill="#ffa200"/>
    <path id="Trazado_995331" data-name="Trazado 995331" d="M71.736,48.771l-.609-.09q.108-.74.191-1.516l.029-.276h1.818v.616H71.9q-.073.645-.164,1.266" transform="translate(1047.878 1740.691)" fill="aqua"/>
    <path id="Trazado_995332" data-name="Trazado 995332" d="M136.814,70.821l-2.761-1.051.219-.576,2.762,1.051Zm-5.523-2.1-2.762-1.051.219-.576,2.762,1.051Zm-5.523-2.1-2.762-1.051.219-.576,2.761,1.051Zm-5.523-2.1-2.762-1.051.219-.576,2.761,1.051Zm-5.523-2.1-2.762-1.051.219-.576,2.761,1.051Zm-5.523-2.1-2.762-1.051.219-.576,2.761,1.051Zm-5.523-2.1-2.762-1.051.219-.576,2.762,1.051Zm-5.523-2.1-2.761-1.051.219-.576,2.762,1.051ZM92.628,54l-2.761-1.051.219-.576,2.762,1.051Zm-5.523-2.1-2.762-1.051.219-.576,2.762,1.051Zm-5.523-2.1-2.762-1.051.219-.576L81.8,49.224Z" transform="translate(1044.925 1740.199)" fill="#ffa200"/>
    <path id="Trazado_995333" data-name="Trazado 995333" d="M178.9,88.1l-.6-.142c.135-.569.238-.985.3-1.232l-1.182-.45.219-.576,1.7.646-.07.267s-.136.524-.365,1.487" transform="translate(1007.081 1725.796)" fill="aqua"/>
    <path id="Trazado_995334" data-name="Trazado 995334" d="M206.844,179.358q-.423,0-.84-.008l.012-.616c.289.006.583.008.873.008q.843,0,1.71-.029c.169,0,.319.007.469.008l-.006.616q-.23,0-.461-.009-.872.031-1.757.03m5.292-.152-.06-.613a24.718,24.718,0,0,0,2.967-.475l.134.6a25.284,25.284,0,0,1-3.041.487m-9.2-.018c-1.035-.092-2.061-.222-3.048-.387l.1-.608c.971.163,1.98.291,3,.381Zm-6.056-1.025c-1-.259-1.993-.565-2.94-.909l.21-.579c.929.337,1.9.637,2.884.892Zm21.256-.312-.212-.579a22.634,22.634,0,0,0,2.743-1.219l.287.545a23.267,23.267,0,0,1-2.818,1.252M191.1,176.058a28.932,28.932,0,0,1-2.7-1.487l.326-.523a28.358,28.358,0,0,0,2.64,1.456Zm32.479-1.07-.355-.5a25.013,25.013,0,0,0,2.35-1.88l.413.457a25.876,25.876,0,0,1-2.407,1.927m-37.7-2.187a29.237,29.237,0,0,1-2.318-2.03l.429-.442a28.605,28.605,0,0,0,2.269,1.987Zm42.28-1.924-.458-.411c.651-.728,1.292-1.517,1.905-2.346l.5.367c-.625.844-1.278,1.648-1.943,2.39m-46.7-2.363c-.648-.77-1.277-1.594-1.869-2.447l.507-.351c.582.838,1.2,1.646,1.835,2.4Zm50.365-2.574-.524-.326c.516-.83,1.024-1.715,1.51-2.631l.544.289c-.492.928-1.007,1.825-1.53,2.667m-53.881-2.474c-.5-.869-.982-1.785-1.432-2.722l.556-.267c.443.923.918,1.825,1.411,2.682Zm56.764-2.953-.561-.255c.408-.9.807-1.838,1.186-2.8l.573.226c-.382.971-.786,1.922-1.2,2.828m-59.432-2.584c-.372-.929-.727-1.9-1.057-2.886l.585-.195c.325.975.676,1.934,1.043,2.852Zm61.69-3.125-.582-.2c.323-.94.635-1.916.929-2.9l.591.176c-.3.991-.612,1.975-.938,2.923m-63.639-2.7c-.267-.969-.518-1.971-.746-2.978l.6-.136c.226,1,.474,1.991.739,2.951Zm65.4-3.176-.6-.156c.252-.965.5-1.961.725-2.96l.6.137c-.23,1.005-.475,2.008-.73,2.979m-66.764-2.809c-.18-.983-.346-2-.494-3.028l.611-.087c.147,1.018.311,2.029.49,3.005Zm68.135-3.168-.6-.121q.3-1.486.559-3l.606.105q-.263,1.519-.561,3.014m-69.014-2.9c-.108-.983-.206-2.012-.288-3.059l.614-.049c.082,1.04.179,2.062.287,3.039Zm70.065-3.138-.609-.091q.225-1.5.42-3.016l.611.079q-.2,1.52-.423,3.028m-70.551-2.983q-.079-1.532-.116-3.064l.616-.016q.039,1.524.115,3.048Zm71.336-3.084-.612-.067q.165-1.517.305-3.038l.614.057q-.14,1.526-.306,3.048M171.066,127.8h-.616v-.246q0-1.411.029-2.815l.616.012q-.028,1.4-.029,2.8Zm71.439-3.062-.615-.046q.115-1.525.206-3.046l.615.037q-.092,1.525-.206,3.056M171.188,121.7l-.616-.025q.062-1.539.152-3.058l.615.036q-.09,1.512-.151,3.046m71.685-3.08-.615-.028q.068-1.533.117-3.052l.616.02q-.049,1.521-.118,3.06m-71.326-3.01-.614-.047q.119-1.544.261-3.05l.614.057q-.142,1.5-.261,3.04m71.523-3.111-.616-.012q.03-1.54.04-3.054l.616,0q-.01,1.518-.04,3.061m-70.951-2.964-.613-.068q.171-1.547.36-3.04l.612.077q-.189,1.486-.359,3.03m70.379-3.154q-.006-1.545-.03-3.052l.616-.01q.024,1.509.03,3.059Zm-69.617-2.9-.61-.086q.219-1.556.449-3.027l.609.095q-.228,1.465-.448,3.019m69.524-3.2q-.041-1.555-.095-3.051l.616-.022q.054,1.5.095,3.058ZM173.819,97.45l-.608-.1q.27-1.58.536-3.014l.605.112q-.263,1.427-.534,3.005m68.364-3.273q-.074-1.569-.156-3.049l.615-.035q.083,1.482.157,3.055Zm-67.252-2.73-.6-.121c.222-1.108.433-2.111.625-3l.6.131c-.192.884-.4,1.884-.623,2.989m66.909-3.367q-.105-1.6-.218-3.046l.614-.047q.113,1.449.218,3.052Zm-.465-6.089c-.1-1.122-.192-2.139-.281-3.04l.614-.06c.089.9.184,1.922.281,3.047Z" transform="translate(1009.757 1728.408)" fill="#ffa200"/>
    <path id="Trazado_995335" data-name="Trazado 995335" d="M284.429,72.565c-.112-.988-.181-1.52-.181-1.522l-.037-.282L286,70.383l.128.6-1.23.259c.031.254.082.676.147,1.25Z" transform="translate(966.094 1731.675)" fill="aqua"/>
    <path id="Trazado_995336" data-name="Trazado 995336" d="M292.1,62.474l-.128-.6,2.995-.633.128.6Zm5.989-1.265-.128-.6,2.994-.632.128.6Zm5.989-1.265-.128-.6,2.994-.633.128.6Zm5.989-1.265-.128-.6,2.994-.632.128.6Zm5.988-1.265-.128-.6,2.995-.633.128.6Zm5.989-1.265-.128-.6,2.994-.632.128.6Zm5.989-1.265-.128-.6,2.994-.633.128.6Zm5.989-1.265-.128-.6,2.995-.632.128.6Zm5.988-1.265-.128-.6,2.995-.633.128.6ZM346,51.088l-.128-.6,2.994-.632.128.6Z" transform="translate(963.116 1739.555)" fill="#ffa200"/>
    <path id="Trazado_995337" data-name="Trazado 995337" d="M390.942,50.144c-.218-.535-.354-.953-.429-1.21l-1.223.259-.128-.6,1.8-.381.069.294a10.72,10.72,0,0,0,.48,1.409Z" transform="translate(925.812 1740.186)" fill="aqua"/>
    <path id="Trazado_995338" data-name="Trazado 995338" d="M411.384,65.718c-.989-.138-1.963-.319-2.893-.537l.141-.6c.913.214,1.867.392,2.838.527Zm-5.723-1.358a25.015,25.015,0,0,1-2.725-1.134l.271-.553a24.384,24.384,0,0,0,2.657,1.105Zm-5.29-2.6a21.131,21.131,0,0,1-2.345-1.8l.409-.461a20.465,20.465,0,0,0,2.276,1.749Zm-4.411-3.921a19.859,19.859,0,0,1-1.732-2.4l.526-.322a19.223,19.223,0,0,0,1.678,2.326Z" transform="translate(923.867 1737.534)" fill="#ffa200"/>
    <path id="Trazado_995339" data-name="Trazado 995339" d="M428.146,73.709l-.038-1.248q-.641-.018-1.258-.054l.036-.615q.747.043,1.529.06l.292.006.056,1.833Z" transform="translate(911.347 1731.134)" fill="aqua"/>
    <path id="Trazado_995340" data-name="Trazado 995340" d="M430.674,131.8l-.092-3.056.616-.019.092,3.056Zm-.184-6.111-.092-3.056.616-.019.092,3.056Zm-.185-6.112-.092-3.056.616-.018.092,3.056Zm-.185-6.111-.092-3.056.616-.018.092,3.056Zm-.185-6.111-.092-3.056.616-.018.092,3.056Zm-.185-6.112-.092-3.056.616-.018.092,3.056Zm-.184-6.111-.093-3.056.616-.018.093,3.056Zm-.185-6.112-.093-3.056.616-.018L430,89Zm-.185-6.111L429.1,79.85l.616-.018.092,3.056Z" transform="translate(910.481 1728.048)" fill="#ffa200"/>
    <path id="Trazado_996515" data-name="Trazado 996515" d="M0,0H.616V1.541H0Z" transform="matrix(1, -0.03, 0.03, 1, 1341.248, 1862.902)" fill="aqua"/>
    <path id="Trazado_995341" data-name="Trazado 995341" d="M48.653,401.9H28a.308.308,0,1,1,0-.616H48.345V281.949H28a.308.308,0,0,1,0-.616H48.653a.308.308,0,0,1,.308.308V401.592a.308.308,0,0,1-.308.308" transform="translate(1064.55 1650.709)"/>
    <path id="Trazado_995342" data-name="Trazado 995342" d="M22.156,280.008a18.627,18.627,0,0,1,5.267,2.931l-1.06-2.931,1.06-2.93a18.612,18.612,0,0,1-5.267,2.93" transform="translate(1066.674 1652.342)"/>
    <path id="Trazado_995343" data-name="Trazado 995343" d="M22.156,474.675a18.627,18.627,0,0,0,5.267-2.931l-1.06,2.931,1.06,2.93a18.611,18.611,0,0,0-5.267-2.93" transform="translate(1066.674 1577.627)"/>
    <path id="Trazado_995344" data-name="Trazado 995344" d="M410.285,401.9H389.63a.308.308,0,0,1-.308-.308V281.641a.308.308,0,0,1,.308-.308h20.655a.308.308,0,0,1,0,.616H389.938V401.284h20.347a.308.308,0,0,1,0,.616" transform="translate(925.75 1650.709)"/>
    <path id="Trazado_995345" data-name="Trazado 995345" d="M426.1,474.675a18.627,18.627,0,0,1-5.267-2.931l1.06,2.931-1.06,2.93a18.611,18.611,0,0,1,5.267-2.93" transform="translate(913.657 1577.627)"/>
    <path id="Trazado_995346" data-name="Trazado 995346" d="M426.1,280.008a18.627,18.627,0,0,0-5.267,2.931l1.06-2.931-1.06-2.93a18.612,18.612,0,0,0,5.267,2.93" transform="translate(913.657 1652.342)"/>
    <path id="Trazado_995347" data-name="Trazado 995347" d="M231.242,331.066a.308.308,0,0,1-.308-.308V47.2a.308.308,0,0,1,.616,0V330.758a.308.308,0,0,1-.308.308" transform="translate(986.542 1740.691)"/>
    <path id="Trazado_995348" data-name="Trazado 995348" d="M227.624,405.758h0a.924.924,0,0,1-.914-.8c-11.626-84.868-.15-163.5-.033-164.282a.925.925,0,0,1,.914-.788h.016a.924.924,0,0,1,.9.818c10.3,89.457.136,163.517.031,164.255a.924.924,0,0,1-.915.8m-.1-157.072c-2.447,21.062-8.038,82.273.065,148.644a742.6,742.6,0,0,0-.065-148.644" transform="translate(990.16 1666.615)" fill="#0048c5"/>
    <path id="Trazado_995349" data-name="Trazado 995349" d="M26.812,45.939a2.328,2.328,0,1,1-2.329-2.328,2.328,2.328,0,0,1,2.329,2.328" transform="translate(1066.674 1741.95)"/>
    <path id="Trazado_995350" data-name="Trazado 995350" d="M26.812,86.606a2.328,2.328,0,1,1-2.329-2.328,2.328,2.328,0,0,1,2.329,2.328" transform="translate(1066.674 1726.342)"/>
    <path id="Trazado_995351" data-name="Trazado 995351" d="M24.812,168.606a2.328,2.328,0,1,1-2.329-2.328,2.328,2.328,0,0,1,2.329,2.328" transform="translate(1067.442 1694.869)"/>
    <path id="Trazado_995352" data-name="Trazado 995352" d="M23.034,185.383a2.328,2.328,0,1,1-2.328-2.328,2.328,2.328,0,0,1,2.328,2.328" transform="translate(1068.124 1688.43)"/>
    <path id="Trazado_995353" data-name="Trazado 995353" d="M23.034,222.606a2.328,2.328,0,1,1-2.328-2.328,2.328,2.328,0,0,1,2.328,2.328" transform="translate(1068.124 1674.143)"/>
    <path id="Trazado_995354" data-name="Trazado 995354" d="M22.034,382.494a2.328,2.328,0,1,1-2.328-2.328,2.328,2.328,0,0,1,2.328,2.328" transform="translate(1068.508 1612.775)"/>
    <path id="Trazado_995355" data-name="Trazado 995355" d="M19.256,506.126a2.328,2.328,0,1,1-2.328-2.328,2.328,2.328,0,0,1,2.328,2.328" transform="translate(1069.574 1565.323)"/>
    <path id="Trazado_995356" data-name="Trazado 995356" d="M437.034,504.126a2.328,2.328,0,1,1-2.328-2.328,2.328,2.328,0,0,1,2.328,2.328" transform="translate(909.225 1566.092)"/>
    <path id="Trazado_995357" data-name="Trazado 995357" d="M177.034,222.606a2.328,2.328,0,1,1-2.328-2.328,2.328,2.328,0,0,1,2.328,2.328" transform="translate(1009.017 1674.143)"/>
    <path id="Trazado_995358" data-name="Trazado 995358" d="M178.978,168.606a2.328,2.328,0,1,1-2.328-2.328,2.328,2.328,0,0,1,2.328,2.328" transform="translate(1008.271 1694.869)"/>
    <path id="Trazado_995359" data-name="Trazado 995359" d="M286.339,168.606a2.328,2.328,0,1,1-2.328-2.328,2.328,2.328,0,0,1,2.328,2.328" transform="translate(967.063 1694.869)"/>
    <path id="Trazado_995360" data-name="Trazado 995360" d="M232.7,222.606a2.328,2.328,0,1,1-2.328-2.328,2.328,2.328,0,0,1,2.328,2.328" transform="translate(987.651 1674.143)"/>
    <path id="Trazado_995361" data-name="Trazado 995361" d="M232.7,381.494a2.328,2.328,0,1,1-2.328-2.328,2.328,2.328,0,0,1,2.328,2.328" transform="translate(987.651 1613.159)"/>
    <path id="Trazado_995362" data-name="Trazado 995362" d="M287.034,222.606a2.328,2.328,0,1,1-2.328-2.328,2.328,2.328,0,0,1,2.328,2.328" transform="translate(966.797 1674.143)"/>
    <path id="Trazado_995363" data-name="Trazado 995363" d="M433.256,222.606a2.328,2.328,0,1,1-2.328-2.328,2.328,2.328,0,0,1,2.328,2.328" transform="translate(910.675 1674.143)"/>
    <path id="Trazado_995364" data-name="Trazado 995364" d="M435.256,382.494a2.328,2.328,0,1,1-2.328-2.328,2.328,2.328,0,0,1,2.328,2.328" transform="translate(909.907 1612.775)"/>
    <path id="Trazado_995365" data-name="Trazado 995365" d="M72.812,45.939a2.328,2.328,0,1,1-2.329-2.328,2.328,2.328,0,0,1,2.329,2.328" transform="translate(1049.019 1741.95)"/>
    <path id="Trazado_995366" data-name="Trazado 995366" d="M126.311,65.119a2.328,2.328,0,1,1-2.329-2.328,2.328,2.328,0,0,1,2.329,2.328" transform="translate(1028.484 1734.588)"/>
    <path id="Trazado_995367" data-name="Trazado 995367" d="M341.367,58.342a2.328,2.328,0,1,1-2.328-2.328,2.328,2.328,0,0,1,2.328,2.328" transform="translate(945.943 1737.189)"/>
    <path id="Trazado_995368" data-name="Trazado 995368" d="M180.812,45.939a2.328,2.328,0,1,1-2.329-2.328,2.329,2.329,0,0,1,2.329,2.328" transform="translate(1007.566 1741.95)"/>
    <path id="Trazado_995369" data-name="Trazado 995369" d="M180.812,86.606a2.328,2.328,0,1,1-2.329-2.328,2.329,2.329,0,0,1,2.329,2.328" transform="translate(1007.566 1726.342)"/>
    <path id="Trazado_995370" data-name="Trazado 995370" d="M232.312,45.939a2.328,2.328,0,1,1-2.329-2.328,2.329,2.329,0,0,1,2.329,2.328" transform="translate(987.801 1741.95)"/>
    <path id="Trazado_995371" data-name="Trazado 995371" d="M285.645,45.939a2.328,2.328,0,1,1-2.328-2.328,2.328,2.328,0,0,1,2.328,2.328" transform="translate(967.33 1741.95)"/>
    <path id="Trazado_995372" data-name="Trazado 995372" d="M285.645,68.9a2.328,2.328,0,1,1-2.328-2.328,2.328,2.328,0,0,1,2.328,2.328" transform="translate(967.33 1733.139)"/>
    <path id="Trazado_995373" data-name="Trazado 995373" d="M430.256,45.939a2.328,2.328,0,1,1-2.328-2.328,2.328,2.328,0,0,1,2.328,2.328" transform="translate(911.826 1741.95)"/>
    <path id="Trazado_995374" data-name="Trazado 995374" d="M433.256,172.383a2.328,2.328,0,1,1-2.328-2.328,2.328,2.328,0,0,1,2.328,2.328" transform="translate(910.675 1693.419)"/>
    <path id="Trazado_995375" data-name="Trazado 995375" d="M430.256,71.351a2.328,2.328,0,1,1-2.328-2.328,2.328,2.328,0,0,1,2.328,2.328" transform="translate(911.826 1732.196)"/>
    <path id="Trazado_995376" data-name="Trazado 995376" d="M392.034,45.939a2.328,2.328,0,1,1-2.328-2.328,2.328,2.328,0,0,1,2.328,2.328" transform="translate(926.496 1741.95)"/>
    <path id="Trazado_995377" data-name="Trazado 995377" d="M175.964,157.186h-.007a.308.308,0,0,1-.3-.315L177.983,47.19a.308.308,0,0,1,.308-.3h.007a.308.308,0,0,1,.3.315l-2.327,109.681a.308.308,0,0,1-.308.3" transform="translate(1007.759 1740.691)"/>
    <path id="Trazado_995378" data-name="Trazado 995378" d="M285.431,156.365a.308.308,0,0,1-.308-.306L284.266,47.2a.309.309,0,0,1,.306-.311.3.3,0,0,1,.311.306l.857,108.859a.308.308,0,0,1-.306.311Z" transform="translate(966.072 1740.692)"/>
    <path id="Trazado_995379" data-name="Trazado 995379" d="M409.409,66.812a.308.308,0,0,1-.308-.308V17.642a.308.308,0,1,1,.616,0V66.5a.308.308,0,0,1-.308.308" transform="translate(918.159 1752.035)"/>
    <path id="Trazado_995380" data-name="Trazado 995380" d="M407.775,99.887a18.628,18.628,0,0,0-2.931-5.267l2.931,1.06,2.93-1.06a18.611,18.611,0,0,0-2.93,5.267" transform="translate(919.793 1722.372)"/>
    <path id="Trazado_995381" data-name="Trazado 995381" d="M61.519,66.812a.308.308,0,0,1-.308-.308V17.642a.308.308,0,0,1,.616,0V66.5a.308.308,0,0,1-.308.308" transform="translate(1051.684 1752.035)"/>
    <path id="Trazado_995382" data-name="Trazado 995382" d="M59.886,99.887a18.628,18.628,0,0,0-2.931-5.267l2.931,1.06,2.93-1.06a18.611,18.611,0,0,0-2.93,5.267" transform="translate(1053.317 1722.372)"/>
    <path id="Trazado_995383" data-name="Trazado 995383" d="M40.5,4.022H38.072V5.665H40.92V6.679H36.808V.547h4.1V1.57H38.072V3.032H40.5Z" transform="translate(1061.05 1758.479)"/>
    <path id="Trazado_996516" data-name="Trazado 996516" d="M0,0H1.221V6.47H0Z" transform="translate(1102.694 1758.688)"/>
    <path id="Trazado_995384" data-name="Trazado 995384" d="M48.251.8a.6.6,0,0,1,.184-.45.79.79,0,0,1,1,0,.6.6,0,0,1,.185.45.6.6,0,0,1-.187.455.781.781,0,0,1-.99,0A.6.6,0,0,1,48.251.8m1.293,5.737H48.323V1.978h1.221Z" transform="translate(1056.658 1758.623)"/>
    <path id="Trazado_995385" data-name="Trazado 995385" d="M53.119,3.051l.038.51a1.6,1.6,0,0,1,1.31-.594,1.215,1.215,0,0,1,1.208.7,1.565,1.565,0,0,1,1.369-.7,1.359,1.359,0,0,1,1.1.432,1.984,1.984,0,0,1,.362,1.3v2.91H57.289V4.7a.865.865,0,0,0-.152-.567.671.671,0,0,0-.535-.179.759.759,0,0,0-.758.522l0,3.13H54.631v-2.9a.855.855,0,0,0-.156-.573.678.678,0,0,0-.531-.177.789.789,0,0,0-.75.429V7.609H51.977V3.051Z" transform="translate(1055.229 1757.55)"/>
    <path id="Trazado_995386" data-name="Trazado 995386" d="M64.083.8a.6.6,0,0,1,.184-.45.789.789,0,0,1,1,0,.6.6,0,0,1,.185.45.6.6,0,0,1-.187.455.781.781,0,0,1-.99,0A.6.6,0,0,1,64.083.8m1.293,5.737H64.155V1.978h1.221Z" transform="translate(1050.582 1758.623)"/>
    <path id="Trazado_995387" data-name="Trazado 995387" d="M68.914,3.051l.038.526a1.592,1.592,0,0,1,1.31-.611,1.321,1.321,0,0,1,1.078.426A1.983,1.983,0,0,1,71.7,4.665V7.609H70.486V4.694a.789.789,0,0,0-.169-.563.754.754,0,0,0-.56-.174.839.839,0,0,0-.771.438V7.609H67.769V3.051Z" transform="translate(1049.167 1757.55)"/>
    <path id="Trazado_995388" data-name="Trazado 995388" d="M78.178,7.609a1.357,1.357,0,0,1-.122-.409,1.475,1.475,0,0,1-1.15.493A1.616,1.616,0,0,1,75.8,7.306a1.246,1.246,0,0,1-.441-.977,1.29,1.29,0,0,1,.537-1.112,2.655,2.655,0,0,1,1.552-.392h.561V4.564a.753.753,0,0,0-.162-.506.639.639,0,0,0-.512-.189.721.721,0,0,0-.482.147.5.5,0,0,0-.176.4H75.457a1.224,1.224,0,0,1,.244-.733,1.614,1.614,0,0,1,.691-.529,2.514,2.514,0,0,1,1-.192,1.988,1.988,0,0,1,1.337.423,1.48,1.48,0,0,1,.5,1.19V6.556a2.178,2.178,0,0,0,.181.982v.071Zm-1.007-.847a1.048,1.048,0,0,0,.5-.12.79.79,0,0,0,.337-.322V5.536H77.55q-.914,0-.973.632l0,.071a.489.489,0,0,0,.16.375.623.623,0,0,0,.438.147" transform="translate(1046.255 1757.55)"/>
    <path id="Trazado_995389" data-name="Trazado 995389" d="M85.716,4.193a3.272,3.272,0,0,0-.439-.034.893.893,0,0,0-.906.468V7.609H83.155V3.051H84.3l.034.543a1.127,1.127,0,0,1,1.015-.627,1.277,1.277,0,0,1,.379.055Z" transform="translate(1043.262 1757.55)"/>
    <path id="Trazado_995390" data-name="Trazado 995390" d="M24.669,35.606H23.086l-.3.9h-.959l1.63-4.38h.836l1.64,4.38h-.96Zm-1.339-.731h1.095l-.55-1.64Z" transform="translate(1066.801 1746.357)"/>
    <path id="Trazado_995391" data-name="Trazado 995391" d="M72.789,32.128v2.886a1.476,1.476,0,0,1-.45,1.137,1.733,1.733,0,0,1-1.229.418,1.754,1.754,0,0,1-1.218-.406,1.454,1.454,0,0,1-.46-1.117V32.128h.9v2.891a.834.834,0,0,0,.206.627.789.789,0,0,0,.57.2q.762,0,.773-.8V32.128Z" transform="translate(1048.529 1746.357)"/>
    <path id="Trazado_995392" data-name="Trazado 995392" d="M178.611,35.783h2.208v.725h-3.337v-.53l2.167-3.12h-2.163v-.731h3.285v.518Z" transform="translate(1007.058 1746.357)"/>
    <path id="Trazado_995393" data-name="Trazado 995393" d="M185.468,88.38h2.208V89.1H184.34v-.53l2.167-3.12h-2.163v-.731h3.285v.518Z" transform="translate(1004.426 1726.17)"/>
    <path id="Trazado_995394" data-name="Trazado 995394" d="M192.766,89.1H191.9V85.75l-1.038.322v-.707l1.815-.65h.093Z" transform="translate(1001.924 1726.174)"/>
    <path id="Trazado_995395" data-name="Trazado 995395" d="M164.878,93.935h2.208v.725H163.75v-.53l2.167-3.12h-2.163v-.731h3.285V90.8Z" transform="translate(1012.328 1724.038)"/>
    <path id="Trazado_995396" data-name="Trazado 995396" d="M172.885,94.623h-3v-.6l1.417-1.51a3.506,3.506,0,0,0,.431-.556.9.9,0,0,0,.14-.452.669.669,0,0,0-.147-.458.531.531,0,0,0-.421-.167.575.575,0,0,0-.465.2.805.805,0,0,0-.17.534h-.873a1.441,1.441,0,0,1,.191-.731,1.353,1.353,0,0,1,.54-.519,1.644,1.644,0,0,1,.791-.188,1.555,1.555,0,0,1,1.051.325,1.151,1.151,0,0,1,.375.918,1.478,1.478,0,0,1-.169.662,3.7,3.7,0,0,1-.577.785l-1,1.05h1.884Z" transform="translate(1010.008 1724.075)"/>
    <path id="Trazado_995397" data-name="Trazado 995397" d="M189.321,159.169h.9V162.2a1.452,1.452,0,0,1-.185.739,1.256,1.256,0,0,1-.522.495,1.629,1.629,0,0,1-.761.174,1.549,1.549,0,0,1-1.083-.354,1.284,1.284,0,0,1-.388-1h.909a.7.7,0,0,0,.136.475.541.541,0,0,0,.427.153.518.518,0,0,0,.412-.177.749.749,0,0,0,.153-.505Z" transform="translate(1003.296 1697.598)"/>
    <path id="Trazado_995398" data-name="Trazado 995398" d="M233.576,34.718h-1.733v1.79h-.9v-4.38h2.852v.731h-1.95V33.99h1.733Z" transform="translate(986.539 1746.357)"/>
    <path id="Trazado_995399" data-name="Trazado 995399" d="M284.616,35.918a1.565,1.565,0,0,1-.689.453,2.89,2.89,0,0,1-.987.161,1.951,1.951,0,0,1-1-.248,1.652,1.652,0,0,1-.662-.72,2.534,2.534,0,0,1-.24-1.11v-.3a2.687,2.687,0,0,1,.222-1.136,1.634,1.634,0,0,1,.638-.734,2.1,2.1,0,0,1,2.194.117,1.588,1.588,0,0,1,.521,1.082h-.879a.873.873,0,0,0-.266-.551.853.853,0,0,0-.568-.174.8.8,0,0,0-.7.346,1.824,1.824,0,0,0-.244,1.028v.28a1.733,1.733,0,0,0,.262,1.041.9.9,0,0,0,.767.352,1,1,0,0,0,.725-.216v-.755h-.821v-.665h1.724Z" transform="translate(967.31 1746.395)"/>
    <path id="Trazado_995400" data-name="Trazado 995400" d="M270.918,70.806a1.565,1.565,0,0,1-.689.453,2.89,2.89,0,0,1-.987.161,1.951,1.951,0,0,1-1-.248,1.651,1.651,0,0,1-.662-.72,2.535,2.535,0,0,1-.24-1.11v-.3a2.687,2.687,0,0,1,.222-1.136,1.634,1.634,0,0,1,.638-.734,2.1,2.1,0,0,1,2.194.117,1.588,1.588,0,0,1,.521,1.082h-.879a.874.874,0,0,0-.266-.551.852.852,0,0,0-.567-.174.8.8,0,0,0-.7.346,1.824,1.824,0,0,0-.244,1.028v.28a1.733,1.733,0,0,0,.262,1.041.9.9,0,0,0,.767.352,1,1,0,0,0,.725-.216v-.755h-.821v-.665h1.724Z" transform="translate(972.567 1733.004)"/>
    <path id="Trazado_995401" data-name="Trazado 995401" d="M276.418,71.393h-.869V68.042l-1.038.322v-.707l1.815-.65h.093Z" transform="translate(969.816 1732.971)"/>
    <path id="Trazado_995402" data-name="Trazado 995402" d="M242.988,215.421a2.639,2.639,0,0,1-.2,1.067,1.834,1.834,0,0,1-.55.726l.728.572-.574.508-.933-.749a2,2,0,0,1-.331.026,1.821,1.821,0,0,1-.972-.261,1.74,1.74,0,0,1-.662-.748,2.574,2.574,0,0,1-.237-1.118v-.216a2.632,2.632,0,0,1,.233-1.139,1.739,1.739,0,0,1,.659-.755,1.932,1.932,0,0,1,1.947,0,1.728,1.728,0,0,1,.659.755,2.615,2.615,0,0,1,.234,1.136Zm-.914-.2a1.846,1.846,0,0,0-.246-1.047.872.872,0,0,0-1.406,0,1.824,1.824,0,0,0-.25,1.037v.213a1.868,1.868,0,0,0,.246,1.041.865.865,0,0,0,1.409.014,1.865,1.865,0,0,0,.246-1.04Z" transform="translate(983.347 1676.909)"/>
    <path id="Trazado_995403" data-name="Trazado 995403" d="M240.119,253.2a2.638,2.638,0,0,1-.2,1.067,1.834,1.834,0,0,1-.55.726l.728.572-.574.508-.933-.749a1.994,1.994,0,0,1-.331.027,1.825,1.825,0,0,1-.972-.261,1.744,1.744,0,0,1-.662-.748,2.583,2.583,0,0,1-.237-1.118v-.216a2.623,2.623,0,0,1,.234-1.139,1.732,1.732,0,0,1,.659-.755,1.932,1.932,0,0,1,1.947,0,1.736,1.736,0,0,1,.659.755,2.624,2.624,0,0,1,.233,1.136Zm-.914-.2a1.841,1.841,0,0,0-.246-1.047.872.872,0,0,0-1.406,0,1.833,1.833,0,0,0-.25,1.037v.213a1.873,1.873,0,0,0,.246,1.041.8.8,0,0,0,.71.37.8.8,0,0,0,.7-.356,1.859,1.859,0,0,0,.246-1.04Z" transform="translate(984.448 1662.409)"/>
    <path id="Trazado_995404" data-name="Trazado 995404" d="M245.606,255.323h-.869v-3.351l-1.038.322v-.707l1.815-.65h.093Z" transform="translate(981.643 1662.375)"/>
    <path id="Trazado_995405" data-name="Trazado 995405" d="M293.49,80.958a1.568,1.568,0,0,1-.689.453,2.89,2.89,0,0,1-.987.161,1.95,1.95,0,0,1-1-.248,1.648,1.648,0,0,1-.662-.72,2.527,2.527,0,0,1-.24-1.11v-.3a2.678,2.678,0,0,1,.222-1.136,1.631,1.631,0,0,1,.638-.734,2.1,2.1,0,0,1,2.194.117,1.588,1.588,0,0,1,.521,1.082h-.879a.874.874,0,0,0-.266-.551.853.853,0,0,0-.568-.174.8.8,0,0,0-.7.346,1.819,1.819,0,0,0-.244,1.028v.28a1.733,1.733,0,0,0,.262,1.041.9.9,0,0,0,.767.352,1,1,0,0,0,.725-.216v-.755h-.821v-.665h1.724Z" transform="translate(963.904 1729.107)"/>
    <path id="Trazado_995406" data-name="Trazado 995406" d="M299.7,81.512h-3v-.6l1.417-1.51a3.472,3.472,0,0,0,.431-.556.893.893,0,0,0,.14-.452.666.666,0,0,0-.147-.458.531.531,0,0,0-.421-.167.574.574,0,0,0-.465.2.8.8,0,0,0-.171.534h-.873a1.441,1.441,0,0,1,.191-.731,1.357,1.357,0,0,1,.54-.519,1.644,1.644,0,0,1,.791-.188,1.554,1.554,0,0,1,1.051.325,1.149,1.149,0,0,1,.375.918,1.47,1.47,0,0,1-.169.662,3.7,3.7,0,0,1-.577.785l-1,1.05H299.7Z" transform="translate(961.335 1729.107)"/>
    <path id="Trazado_995407" data-name="Trazado 995407" d="M389.691,34.966v1.543h-.9v-4.38H390.5a1.979,1.979,0,0,1,.868.181,1.329,1.329,0,0,1,.576.513,1.43,1.43,0,0,1,.2.757,1.256,1.256,0,0,1-.441,1.015,1.836,1.836,0,0,1-1.22.372Zm0-.731h.807a.793.793,0,0,0,.545-.168.613.613,0,0,0,.189-.482.721.721,0,0,0-.19-.52.706.706,0,0,0-.523-.2h-.828Z" transform="translate(925.955 1746.357)"/>
    <path id="Trazado_995408" data-name="Trazado 995408" d="M436.791,48.438V44.057h1.348a2.041,2.041,0,0,1,1.033.261,1.821,1.821,0,0,1,.712.74,2.287,2.287,0,0,1,.256,1.091v.2a2.288,2.288,0,0,1-.251,1.086,1.8,1.8,0,0,1-.709.737,2.071,2.071,0,0,1-1.032.265Zm.9-3.65v2.924h.436a.98.98,0,0,0,.809-.346,1.562,1.562,0,0,0,.286-.99v-.232a1.59,1.59,0,0,0-.277-1.012.978.978,0,0,0-.809-.344Z" transform="translate(907.531 1741.779)"/>
    <path id="Trazado_995409" data-name="Trazado 995409" d="M437.012,73.85V69.469h1.349a2.045,2.045,0,0,1,1.033.261,1.823,1.823,0,0,1,.712.74,2.287,2.287,0,0,1,.255,1.091v.2a2.3,2.3,0,0,1-.251,1.086,1.8,1.8,0,0,1-.709.737,2.065,2.065,0,0,1-1.031.265Zm.9-3.65v2.924h.436a.98.98,0,0,0,.81-.346,1.565,1.565,0,0,0,.285-.99v-.232a1.582,1.582,0,0,0-.277-1.012.976.976,0,0,0-.808-.344Z" transform="translate(907.446 1732.025)"/>
    <path id="Trazado_995410" data-name="Trazado 995410" d="M445.6,73.847h-.869V70.5l-1.038.322V70.11l1.815-.65h.093Z" transform="translate(904.883 1732.028)"/>
    <path id="Trazado_995411" data-name="Trazado 995411" d="M443.513,173.62v-4.381h1.348a2.044,2.044,0,0,1,1.033.261,1.815,1.815,0,0,1,.712.74,2.28,2.28,0,0,1,.256,1.091v.2a2.294,2.294,0,0,1-.251,1.086,1.8,1.8,0,0,1-.709.737,2.067,2.067,0,0,1-1.032.265Zm.9-3.65v2.924h.436a.979.979,0,0,0,.809-.346,1.562,1.562,0,0,0,.286-.99v-.232a1.586,1.586,0,0,0-.277-1.012.977.977,0,0,0-.809-.344Z" transform="translate(904.951 1693.732)"/>
    <path id="Trazado_995412" data-name="Trazado 995412" d="M452.809,173.583h-3v-.6l1.417-1.51a3.482,3.482,0,0,0,.432-.556.9.9,0,0,0,.139-.452.665.665,0,0,0-.147-.458.53.53,0,0,0-.421-.167.574.574,0,0,0-.465.2.8.8,0,0,0-.171.534h-.873a1.436,1.436,0,0,1,.192-.731,1.351,1.351,0,0,1,.54-.519,1.646,1.646,0,0,1,.791-.188,1.557,1.557,0,0,1,1.052.325,1.151,1.151,0,0,1,.375.918,1.469,1.469,0,0,1-.169.662,3.655,3.655,0,0,1-.577.785l-1,1.05h1.884Z" transform="translate(902.569 1693.77)"/>
    <path id="Trazado_995413" data-name="Trazado 995413" d="M444.416,191.112h1.916v.725h-2.819v-4.381h.9Z" transform="translate(904.951 1686.74)"/>
    <path id="Trazado_995414" data-name="Trazado 995414" d="M269.216,164.824h1.916v.725h-2.819v-4.381h.9Z" transform="translate(972.195 1696.83)"/>
    <path id="Trazado_995415" data-name="Trazado 995415" d="M275.817,165.546h-.869v-3.351l-1.038.322v-.707l1.815-.65h.093Z" transform="translate(970.048 1696.833)"/>
    <path id="Trazado_995416" data-name="Trazado 995416" d="M447.079,225.1h-.9v-1.878h-1.76V225.1h-.9v-4.38h.9V222.5h1.76v-1.775h.9Z" transform="translate(904.951 1673.972)"/>
    <path id="Trazado_995417" data-name="Trazado 995417" d="M284.968,238.661h-.9v-1.878h-1.76v1.878h-.9v-4.38h.9v1.775h1.76V234.28h.9Z" transform="translate(967.172 1668.769)"/>
    <path id="Trazado_995418" data-name="Trazado 995418" d="M290.556,238.657h-.869v-3.351l-1.038.322v-.707l1.815-.65h.093Z" transform="translate(964.391 1668.772)"/>
    <path id="Trazado_995419" data-name="Trazado 995419" d="M305.552,56.229v1.543h-.9v-4.38h1.709a1.98,1.98,0,0,1,.868.181,1.324,1.324,0,0,1,.576.513,1.425,1.425,0,0,1,.2.757,1.257,1.257,0,0,1-.44,1.015,1.838,1.838,0,0,1-1.221.372Zm0-.731h.807a.794.794,0,0,0,.546-.168.615.615,0,0,0,.188-.482.721.721,0,0,0-.19-.52.706.706,0,0,0-.523-.2h-.828Z" transform="translate(958.249 1738.196)"/>
    <path id="Trazado_995420" data-name="Trazado 995420" d="M313.188,57.768h-.869V54.417l-1.038.322v-.707l1.815-.65h.093Z" transform="translate(955.704 1738.2)"/>
    <path id="Trazado_995421" data-name="Trazado 995421" d="M6.19,84.724V87.61a1.476,1.476,0,0,1-.45,1.137,1.733,1.733,0,0,1-1.229.418,1.754,1.754,0,0,1-1.218-.406,1.454,1.454,0,0,1-.46-1.117V84.724h.9v2.891a.834.834,0,0,0,.206.627.789.789,0,0,0,.57.2q.762,0,.773-.8V84.724Z" transform="translate(1074.091 1726.17)"/>
    <path id="Trazado_995422" data-name="Trazado 995422" d="M11.57,89.1H10.7V85.75l-1.038.322v-.707l1.815-.65h.093Z" transform="translate(1071.469 1726.174)"/>
    <path id="Trazado_996517" data-name="Trazado 996517" d="M0,0H.9V4.38H0Z" transform="translate(1079.919 1894.695)"/>
    <path id="Trazado_996518" data-name="Trazado 996518" d="M0,0H.9V4.38H0Z" transform="translate(1181.505 1901.132)"/>
    <path id="Trazado_995423" data-name="Trazado 995423" d="M177.468,235.545H176.6v-3.351l-1.038.322v-.707l1.815-.65h.093Z" transform="translate(1007.795 1669.967)"/>
    <path id="Trazado_995424" data-name="Trazado 995424" d="M6.19,184.058v2.886a1.476,1.476,0,0,1-.45,1.137,1.733,1.733,0,0,1-1.229.418,1.754,1.754,0,0,1-1.218-.406,1.454,1.454,0,0,1-.46-1.117v-2.918h.9v2.891a.834.834,0,0,0,.206.627.789.789,0,0,0,.57.2q.762,0,.773-.8v-2.915Z" transform="translate(1074.091 1688.045)"/>
    <path id="Trazado_995425" data-name="Trazado 995425" d="M10.15,185.825h.463a.651.651,0,0,0,.49-.166.607.607,0,0,0,.16-.439.535.535,0,0,0-.158-.412.611.611,0,0,0-.434-.148.643.643,0,0,0-.418.137.436.436,0,0,0-.168.356h-.87a1.069,1.069,0,0,1,.185-.615,1.23,1.23,0,0,1,.518-.426,1.724,1.724,0,0,1,.733-.153,1.637,1.637,0,0,1,1.089.332,1.136,1.136,0,0,1,.394.916.918.918,0,0,1-.184.553,1.19,1.19,0,0,1-.481.388,1.021,1.021,0,0,1,.734,1.023,1.152,1.152,0,0,1-.426.935,1.71,1.71,0,0,1-1.126.352,1.624,1.624,0,0,1-1.073-.346,1.13,1.13,0,0,1-.417-.915h.869a.5.5,0,0,0,.185.4.772.772,0,0,0,.942-.007.566.566,0,0,0,.176-.435q0-.656-.722-.656h-.46Z" transform="translate(1071.662 1688.082)"/>
    <path id="Trazado_995426" data-name="Trazado 995426" d="M5.859,166.724,6.984,169.9l1.12-3.177H9.289v4.38H8.384v-1.2l.09-2.067L7.291,171.1h-.62l-1.179-3.261.091,2.064v1.2h-.9v-4.38Z" transform="translate(1073.382 1694.697)"/>
    <path id="Trazado_995427" data-name="Trazado 995427" d="M5.868,383.993v-4.381H7.4a2.012,2.012,0,0,1,1.21.306,1.044,1.044,0,0,1,.412.9.989.989,0,0,1-.165.567.959.959,0,0,1-.46.359.927.927,0,0,1,.531.34,1,1,0,0,1,.194.626,1.158,1.158,0,0,1-.4.957,1.819,1.819,0,0,1-1.149.331Zm.9-2.545h.668q.683-.012.683-.545a.5.5,0,0,0-.173-.429.914.914,0,0,0-.547-.131H6.771Zm0,.638v1.183h.773a.744.744,0,0,0,.5-.152.52.52,0,0,0,.18-.42.551.551,0,0,0-.624-.611Z" transform="translate(1072.926 1612.988)"/>
    <path id="Trazado_995428" data-name="Trazado 995428" d="M0,506.625v-4.381H1.534a2.012,2.012,0,0,1,1.21.306,1.044,1.044,0,0,1,.412.9.989.989,0,0,1-.165.567.959.959,0,0,1-.46.359.927.927,0,0,1,.531.34,1,1,0,0,1,.194.626,1.157,1.157,0,0,1-.4.957,1.819,1.819,0,0,1-1.149.331Zm.9-2.546h.668q.683-.012.683-.545a.5.5,0,0,0-.173-.429.913.913,0,0,0-.547-.131H.9Zm0,.638V505.9h.773a.745.745,0,0,0,.5-.152.52.52,0,0,0,.179-.42.55.55,0,0,0-.623-.611Z" transform="translate(1075.178 1565.92)"/>
    <path id="Trazado_995429" data-name="Trazado 995429" d="M8.47,506.621H7.6V503.27l-1.038.322v-.707l1.815-.65H8.47Z" transform="translate(1072.659 1565.924)"/>
    <path id="Trazado_995430" data-name="Trazado 995430" d="M248.747,396.206h-1.733v1.173h2.034v.725h-2.936v-4.38h2.931v.731h-2.028V395.5h1.733Z" transform="translate(980.717 1607.571)"/>
    <path id="Trazado_995433" data-name="Trazado 995433" d="M446.87,505.128a1.551,1.551,0,0,1-.522,1.113,1.833,1.833,0,0,1-1.241.406,1.649,1.649,0,0,1-1.325-.567,2.326,2.326,0,0,1-.483-1.556v-.268a2.636,2.636,0,0,1,.222-1.113,1.666,1.666,0,0,1,.637-.738,1.988,1.988,0,0,1,2.183.149,1.664,1.664,0,0,1,.535,1.141h-.9a.913.913,0,0,0-.236-.616.878.878,0,0,0-.619-.191.767.767,0,0,0-.675.324,1.813,1.813,0,0,0-.23,1v.331a1.937,1.937,0,0,0,.216,1.038.753.753,0,0,0,.678.328.889.889,0,0,0,.624-.192.86.86,0,0,0,.236-.591Z" transform="translate(905.033 1565.958)"/>
    <path id="Trazado_995434" data-name="Trazado 995434" d="M452.145,506.621h-.869v-3.351l-1.038.322v-.707l1.815-.65h.093Z" transform="translate(902.37 1565.924)"/>
    <path id="Trazado_995435" data-name="Trazado 995435" d="M446.871,382.5a1.552,1.552,0,0,1-.523,1.113,1.832,1.832,0,0,1-1.24.406,1.649,1.649,0,0,1-1.326-.568,2.326,2.326,0,0,1-.482-1.556v-.268a2.625,2.625,0,0,1,.222-1.113,1.665,1.665,0,0,1,.636-.738,1.988,1.988,0,0,1,2.183.148,1.667,1.667,0,0,1,.535,1.141h-.9a.916.916,0,0,0-.237-.616.877.877,0,0,0-.618-.191.767.767,0,0,0-.675.324,1.808,1.808,0,0,0-.23,1v.331a1.943,1.943,0,0,0,.215,1.038.754.754,0,0,0,.679.328.888.888,0,0,0,.624-.192.86.86,0,0,0,.237-.591Z" transform="translate(905.033 1613.025)"/>
    <path id="Trazado_995436" data-name="Trazado 995436" d="M126.976,53.391v2.886a1.478,1.478,0,0,1-.449,1.137,1.735,1.735,0,0,1-1.23.418,1.754,1.754,0,0,1-1.218-.406,1.455,1.455,0,0,1-.46-1.117V53.391h.9v2.891a.831.831,0,0,0,.206.627.787.787,0,0,0,.569.2q.762,0,.773-.8V53.391Z" transform="translate(1027.731 1738.196)"/>
    <path id="Trazado_995437" data-name="Trazado 995437" d="M133.065,57.734h-3v-.6l1.417-1.51a3.479,3.479,0,0,0,.432-.556.9.9,0,0,0,.139-.452.666.666,0,0,0-.147-.458.53.53,0,0,0-.421-.167.574.574,0,0,0-.465.2.8.8,0,0,0-.171.534h-.873a1.436,1.436,0,0,1,.192-.731,1.352,1.352,0,0,1,.54-.519,1.646,1.646,0,0,1,.791-.188,1.557,1.557,0,0,1,1.052.325,1.151,1.151,0,0,1,.375.918,1.469,1.469,0,0,1-.169.662,3.656,3.656,0,0,1-.577.785l-1,1.05h1.884Z" transform="translate(1025.291 1738.234)"/>
    <path id="Trazado_995438" data-name="Trazado 995438" d="M93.708,64.1l.222-2.184h2.245v.515H94.4l-.132,1.195a1.41,1.41,0,0,1,.731-.19,1.209,1.209,0,0,1,.951.4A1.553,1.553,0,0,1,96.3,64.9a1.5,1.5,0,0,1-.365,1.067,1.333,1.333,0,0,1-1.022.389,1.385,1.385,0,0,1-.948-.322,1.287,1.287,0,0,1-.418-.891h.527a.885.885,0,0,0,.267.568.836.836,0,0,0,.572.191.75.75,0,0,0,.609-.265,1.108,1.108,0,0,0,.221-.731,1.014,1.014,0,0,0-.239-.706.813.813,0,0,0-.637-.267.921.921,0,0,0-.572.16l-.147.121Z" transform="translate(1039.271 1734.925)"/>
    <path id="Trazado_995439" data-name="Trazado 995439" d="M365.757,61.352l.222-2.184h2.245v.515h-1.772l-.132,1.195a1.407,1.407,0,0,1,.731-.19,1.21,1.21,0,0,1,.951.4,1.553,1.553,0,0,1,.352,1.07,1.5,1.5,0,0,1-.366,1.067,1.333,1.333,0,0,1-1.021.389,1.383,1.383,0,0,1-.948-.322,1.282,1.282,0,0,1-.418-.891h.527a.882.882,0,0,0,.267.568.835.835,0,0,0,.572.191.749.749,0,0,0,.609-.265,1.108,1.108,0,0,0,.222-.731,1.014,1.014,0,0,0-.24-.706.812.812,0,0,0-.636-.267.919.919,0,0,0-.572.16l-.147.121Z" transform="translate(934.855 1735.979)"/>
    <path id="Trazado_995440" data-name="Trazado 995440" d="M201.863,55.592h.608v.454h-.608v1.017H201.3V56.046h-1.995v-.328l1.961-3.036h.593Zm-1.923,0H201.3V53.444l-.067.12Z" transform="translate(998.68 1738.469)"/>
    <path id="Trazado_995441" data-name="Trazado 995441" d="M205.122,60.254l-.316-.217a1.451,1.451,0,0,0,.3-.812v-.5h.545v.436a1.367,1.367,0,0,1-.15.608,1.414,1.414,0,0,1-.374.487" transform="translate(996.57 1736.149)"/>
    <path id="Trazado_995442" data-name="Trazado 995442" d="M207.537,54.866l.222-2.184H210V53.2h-1.772l-.132,1.195a1.407,1.407,0,0,1,.731-.19,1.21,1.21,0,0,1,.951.4,1.554,1.554,0,0,1,.352,1.07,1.5,1.5,0,0,1-.366,1.067,1.333,1.333,0,0,1-1.021.389,1.383,1.383,0,0,1-.948-.322,1.282,1.282,0,0,1-.418-.891h.527a.882.882,0,0,0,.267.567.835.835,0,0,0,.572.191.749.749,0,0,0,.609-.265,1.108,1.108,0,0,0,.222-.731,1.015,1.015,0,0,0-.24-.706.812.812,0,0,0-.636-.267.919.919,0,0,0-.572.16l-.147.121Z" transform="translate(995.582 1738.469)"/>
    <path id="Trazado_995443" data-name="Trazado 995443" d="M254.317,55.592h.608v.454h-.608v1.017h-.559V56.046h-1.995v-.328l1.961-3.036h.593Zm-1.922,0h1.363V53.444l-.067.12Z" transform="translate(978.548 1738.469)"/>
    <path id="Trazado_995444" data-name="Trazado 995444" d="M257.576,60.254l-.316-.217a1.451,1.451,0,0,0,.3-.812v-.5h.545v.436a1.367,1.367,0,0,1-.15.608,1.415,1.415,0,0,1-.374.487" transform="translate(976.438 1736.149)"/>
    <path id="Trazado_995445" data-name="Trazado 995445" d="M259.99,54.866l.222-2.184h2.245V53.2h-1.772l-.132,1.195a1.407,1.407,0,0,1,.731-.19,1.209,1.209,0,0,1,.951.4,1.553,1.553,0,0,1,.352,1.07,1.5,1.5,0,0,1-.366,1.067,1.333,1.333,0,0,1-1.021.389,1.383,1.383,0,0,1-.948-.322,1.282,1.282,0,0,1-.418-.891h.527a.883.883,0,0,0,.267.567.835.835,0,0,0,.572.191.749.749,0,0,0,.609-.265,1.108,1.108,0,0,0,.222-.731,1.015,1.015,0,0,0-.24-.706.812.812,0,0,0-.636-.267.919.919,0,0,0-.572.16l-.147.121Z" transform="translate(975.45 1738.469)"/>
    <path id="Trazado_995446" data-name="Trazado 995446" d="M134.219,82.828h.418a.917.917,0,0,0,.62-.207.694.694,0,0,0,.226-.545.68.68,0,0,0-.767-.77.8.8,0,0,0-.577.206.721.721,0,0,0-.215.545h-.556a1.119,1.119,0,0,1,.38-.865,1.39,1.39,0,0,1,.968-.344,1.373,1.373,0,0,1,.972.327,1.187,1.187,0,0,1,.352.913.959.959,0,0,1-.185.553,1.114,1.114,0,0,1-.5.4,1.068,1.068,0,0,1,.558.378,1.054,1.054,0,0,1,.2.648,1.2,1.2,0,0,1-.385.935,1.441,1.441,0,0,1-1,.346,1.482,1.482,0,0,1-1-.334,1.11,1.11,0,0,1-.386-.882h.56a.714.714,0,0,0,.226.553.86.86,0,0,0,.605.207.841.841,0,0,0,.617-.21.814.814,0,0,0,.213-.605.736.736,0,0,0-.235-.586,1.021,1.021,0,0,0-.677-.211h-.418Z" transform="translate(1024.004 1727.657)"/>
    <path id="Trazado_995447" data-name="Trazado 995447" d="M138.943,88.518l-.316-.217a1.455,1.455,0,0,0,.3-.812v-.5h.545v.436a1.366,1.366,0,0,1-.15.608,1.423,1.423,0,0,1-.374.487" transform="translate(1021.971 1725.302)"/>
    <path id="Trazado_995448" data-name="Trazado 995448" d="M141.357,83.13l.222-2.184h2.245v.515h-1.772l-.132,1.195a1.407,1.407,0,0,1,.731-.19,1.21,1.21,0,0,1,.951.4,1.554,1.554,0,0,1,.352,1.07A1.5,1.5,0,0,1,143.587,85a1.333,1.333,0,0,1-1.021.389,1.383,1.383,0,0,1-.948-.322,1.282,1.282,0,0,1-.418-.891h.527a.882.882,0,0,0,.267.568.835.835,0,0,0,.572.191.749.749,0,0,0,.609-.265,1.108,1.108,0,0,0,.222-.731,1.015,1.015,0,0,0-.24-.706.812.812,0,0,0-.636-.267.919.919,0,0,0-.572.16l-.147.121Z" transform="translate(1020.983 1727.62)"/>
    <path id="Trazado_995449" data-name="Trazado 995449" d="M318.556,74.274h.418a.921.921,0,0,0,.62-.208.694.694,0,0,0,.226-.545.68.68,0,0,0-.767-.77.8.8,0,0,0-.577.206.722.722,0,0,0-.215.546H317.7a1.119,1.119,0,0,1,.38-.865,1.39,1.39,0,0,1,.968-.344,1.37,1.37,0,0,1,.972.328,1.185,1.185,0,0,1,.352.912.958.958,0,0,1-.185.553,1.114,1.114,0,0,1-.5.4,1.069,1.069,0,0,1,.558.379,1.05,1.05,0,0,1,.2.647,1.2,1.2,0,0,1-.385.935,1.441,1.441,0,0,1-1,.346,1.482,1.482,0,0,1-1-.334,1.11,1.11,0,0,1-.386-.882h.56a.717.717,0,0,0,.225.554.86.86,0,0,0,.605.207.844.844,0,0,0,.617-.21.815.815,0,0,0,.213-.605.736.736,0,0,0-.235-.587,1.025,1.025,0,0,0-.677-.211h-.418Z" transform="translate(953.253 1730.941)"/>
    <path id="Trazado_995450" data-name="Trazado 995450" d="M323.28,79.963l-.316-.217a1.455,1.455,0,0,0,.3-.812v-.5h.545v.436a1.366,1.366,0,0,1-.15.608,1.423,1.423,0,0,1-.374.487" transform="translate(951.22 1728.585)"/>
    <path id="Trazado_995451" data-name="Trazado 995451" d="M325.693,74.576l.222-2.184h2.245v.515h-1.772l-.132,1.195a1.407,1.407,0,0,1,.731-.19,1.209,1.209,0,0,1,.951.4,1.553,1.553,0,0,1,.352,1.07,1.5,1.5,0,0,1-.366,1.067,1.333,1.333,0,0,1-1.021.389,1.383,1.383,0,0,1-.948-.322,1.282,1.282,0,0,1-.418-.891h.527a.882.882,0,0,0,.267.568.835.835,0,0,0,.572.191.749.749,0,0,0,.609-.265,1.108,1.108,0,0,0,.222-.731,1.015,1.015,0,0,0-.24-.706.812.812,0,0,0-.636-.267.919.919,0,0,0-.572.16l-.147.121Z" transform="translate(950.232 1730.903)"/>
    <path id="Trazado_995452" data-name="Trazado 995452" d="M292.713,60.218v2.87h-.4l-1.685-1.516a3.592,3.592,0,0,0-.621-.465,1.037,1.037,0,0,0-.495-.128.788.788,0,0,0-.563.208.726.726,0,0,0-.22.554.858.858,0,0,0,.237.645.9.9,0,0,0,.657.23v.556a1.3,1.3,0,0,1-.978-.389,1.447,1.447,0,0,1-.373-1.043,1.392,1.392,0,0,1,.32-.966,1.093,1.093,0,0,1,.853-.355,2.506,2.506,0,0,1,1.54.824l1.273,1.173v-2.2Z" transform="translate(964.535 1735.576)"/>
    <path id="Trazado_995453" data-name="Trazado 995453" d="M295.942,58.871l-.217.316a1.448,1.448,0,0,0-.812-.3h-.5v-.545h.436a1.369,1.369,0,0,1,.608.149,1.421,1.421,0,0,1,.488.375" transform="translate(962.179 1736.294)"/>
    <path id="Trazado_995454" data-name="Trazado 995454" d="M290.554,55.266l-2.184-.222V52.8h.514v1.772l1.195.132a1.408,1.408,0,0,1-.19-.731,1.209,1.209,0,0,1,.4-.951,1.553,1.553,0,0,1,1.07-.352,1.5,1.5,0,0,1,1.067.365,1.335,1.335,0,0,1,.389,1.022,1.384,1.384,0,0,1-.322.948,1.284,1.284,0,0,1-.891.418V54.9a.884.884,0,0,0,.568-.267.836.836,0,0,0,.191-.572.751.751,0,0,0-.265-.609,1.107,1.107,0,0,0-.731-.221,1.016,1.016,0,0,0-.706.24.813.813,0,0,0-.267.636.92.92,0,0,0,.16.572l.121.147Z" transform="translate(964.497 1738.474)"/>
    <path id="Trazado_995455" data-name="Trazado 995455" d="M171.1,61.673v-.608h.455v.608h1.017v.559h-1.017v1.995h-.328l-3.035-1.961v-.593Zm0,1.922V62.232h-2.148l.12.067Z" transform="translate(1010.623 1735.251)"/>
    <path id="Trazado_995456" data-name="Trazado 995456" d="M388.386,4.022H385.96V5.665h2.848V6.679H384.7V.547h4.1V1.57H385.96V3.032h2.427Z" transform="translate(927.525 1758.479)"/>
    <path id="Trazado_996519" data-name="Trazado 996519" d="M0,0H1.221V6.47H0Z" transform="translate(1317.058 1758.688)"/>
    <path id="Trazado_995457" data-name="Trazado 995457" d="M396.14.8a.6.6,0,0,1,.183-.45.79.79,0,0,1,1,0A.594.594,0,0,1,397.5.8a.6.6,0,0,1-.187.455.781.781,0,0,1-.99,0A.6.6,0,0,1,396.14.8m1.293,5.737h-1.221V1.978h1.221Z" transform="translate(923.134 1758.623)"/>
    <path id="Trazado_995458" data-name="Trazado 995458" d="M401.008,3.051l.038.51a1.6,1.6,0,0,1,1.31-.594,1.215,1.215,0,0,1,1.208.7,1.565,1.565,0,0,1,1.369-.7,1.359,1.359,0,0,1,1.1.432,1.984,1.984,0,0,1,.362,1.3v2.91h-1.221V4.7a.865.865,0,0,0-.152-.567.671.671,0,0,0-.535-.179.759.759,0,0,0-.758.522l0,3.13H402.52v-2.9a.856.856,0,0,0-.156-.573.678.678,0,0,0-.531-.177.789.789,0,0,0-.75.429V7.609h-1.218V3.051Z" transform="translate(921.703 1757.55)"/>
    <path id="Trazado_995459" data-name="Trazado 995459" d="M411.972.8a.6.6,0,0,1,.184-.45.789.789,0,0,1,1,0,.6.6,0,0,1,.185.45.6.6,0,0,1-.187.455.782.782,0,0,1-.991,0A.6.6,0,0,1,411.972.8m1.293,5.737h-1.221V1.978h1.221Z" transform="translate(917.057 1758.623)"/>
    <path id="Trazado_995460" data-name="Trazado 995460" d="M416.8,3.051l.038.526a1.592,1.592,0,0,1,1.31-.611,1.321,1.321,0,0,1,1.078.426,1.983,1.983,0,0,1,.362,1.272V7.609h-1.217V4.694a.788.788,0,0,0-.169-.563.754.754,0,0,0-.56-.174.839.839,0,0,0-.771.438V7.609h-1.217V3.051Z" transform="translate(915.643 1757.55)"/>
    <path id="Trazado_995461" data-name="Trazado 995461" d="M426.066,7.609a1.358,1.358,0,0,1-.122-.409,1.474,1.474,0,0,1-1.15.493,1.616,1.616,0,0,1-1.109-.388,1.246,1.246,0,0,1-.441-.977,1.29,1.29,0,0,1,.537-1.112,2.655,2.655,0,0,1,1.552-.392h.561V4.564a.754.754,0,0,0-.162-.506.639.639,0,0,0-.512-.189.721.721,0,0,0-.482.147.5.5,0,0,0-.176.4h-1.217a1.224,1.224,0,0,1,.244-.733,1.614,1.614,0,0,1,.691-.529,2.514,2.514,0,0,1,1-.192,1.988,1.988,0,0,1,1.337.423,1.48,1.48,0,0,1,.5,1.19V6.556a2.178,2.178,0,0,0,.181.982v.071Zm-1.007-.847a1.048,1.048,0,0,0,.5-.12.79.79,0,0,0,.337-.322V5.536h-.455q-.914,0-.973.632l0,.071a.489.489,0,0,0,.16.375.623.623,0,0,0,.438.147" transform="translate(912.73 1757.55)"/>
    <path id="Trazado_995462" data-name="Trazado 995462" d="M433.6,4.193a3.258,3.258,0,0,0-.438-.034.892.892,0,0,0-.906.468V7.609h-1.217V3.051h1.15l.034.543a1.127,1.127,0,0,1,1.015-.627,1.277,1.277,0,0,1,.379.055Z" transform="translate(909.737 1757.55)"/>
    <path id="Trazado_995463" data-name="Trazado 995463" d="M323.788,216.77h2.491v.567h-3.188V212.08h.7Z" transform="translate(951.171 1677.289)"/>
    <path id="Trazado_995464" data-name="Trazado 995464" d="M330.133,211.617h.809l-.967,1.062-.538,0Zm-.007,5.542h-.672v-3.907h.672Z" transform="translate(948.735 1677.467)"/>
    <path id="Trazado_995465" data-name="Trazado 995465" d="M332.975,214.226l.022.491a1.423,1.423,0,0,1,1.17-.563q1.238,0,1.25,1.4v2.582h-.669v-2.585a.9.9,0,0,0-.193-.625.773.773,0,0,0-.59-.2.96.96,0,0,0-.57.173,1.173,1.173,0,0,0-.383.455v2.784h-.668v-3.907Z" transform="translate(947.62 1676.493)"/>
    <path id="Trazado_995466" data-name="Trazado 995466" d="M340.481,218.205a1.708,1.708,0,0,1-1.293-.522,1.937,1.937,0,0,1-.5-1.4v-.123a2.349,2.349,0,0,1,.222-1.038,1.733,1.733,0,0,1,.621-.715,1.561,1.561,0,0,1,.865-.258,1.464,1.464,0,0,1,1.184.5,2.173,2.173,0,0,1,.422,1.437v.278h-2.646a1.389,1.389,0,0,0,.337.933,1.063,1.063,0,0,0,.821.356,1.16,1.16,0,0,0,.6-.145,1.5,1.5,0,0,0,.429-.383l.408.318a1.641,1.641,0,0,1-1.473.755m-.083-3.5a.891.891,0,0,0-.679.295,1.43,1.43,0,0,0-.339.824h1.956v-.051a1.27,1.27,0,0,0-.274-.789.838.838,0,0,0-.664-.28" transform="translate(945.184 1676.493)"/>
    <path id="Trazado_995467" data-name="Trazado 995467" d="M347.664,218.133a1.4,1.4,0,0,1-.094-.412,1.487,1.487,0,0,1-1.112.484,1.377,1.377,0,0,1-.948-.327,1.056,1.056,0,0,1-.37-.829,1.1,1.1,0,0,1,.464-.948,2.189,2.189,0,0,1,1.305-.338h.65v-.307a.749.749,0,0,0-.21-.558.841.841,0,0,0-.617-.208.976.976,0,0,0-.6.181.533.533,0,0,0-.242.437h-.672a.921.921,0,0,1,.208-.565,1.417,1.417,0,0,1,.563-.431,1.9,1.9,0,0,1,.782-.159,1.544,1.544,0,0,1,1.057.338,1.219,1.219,0,0,1,.4.93v1.8a2.188,2.188,0,0,0,.137.855v.058Zm-1.108-.509a1.173,1.173,0,0,0,.6-.163.983.983,0,0,0,.408-.422v-.8h-.524q-1.227,0-1.227.718a.608.608,0,0,0,.21.491.807.807,0,0,0,.539.177" transform="translate(942.708 1676.493)"/>
    <path id="Trazado_995468" data-name="Trazado 995468" d="M358.127,215.247a2.324,2.324,0,0,1-.412,1.439,1.315,1.315,0,0,1-1.1.543,1.36,1.36,0,0,1-1.144-.524l-.033.452h-.614v-5.546h.668v2.069a1.353,1.353,0,0,1,1.115-.5,1.324,1.324,0,0,1,1.118.538,2.394,2.394,0,0,1,.406,1.473Zm-.668-.076a1.806,1.806,0,0,0-.264-1.054.872.872,0,0,0-.758-.372.98.98,0,0,0-.95.614v1.69a1.008,1.008,0,0,0,.957.614.866.866,0,0,0,.747-.372,1.918,1.918,0,0,0,.267-1.119" transform="translate(938.993 1677.469)"/>
    <path id="Trazado_995469" data-name="Trazado 995469" d="M363.956,217.791a1.419,1.419,0,0,1-1.144.458,1.213,1.213,0,0,1-.951-.363,1.568,1.568,0,0,1-.331-1.074v-2.542h.668v2.524q0,.888.722.888a1,1,0,0,0,1.018-.571v-2.841h.668v3.907h-.636Z" transform="translate(936.418 1676.448)"/>
    <path id="Trazado_995470" data-name="Trazado 995470" d="M370.341,217.1a.492.492,0,0,0-.2-.421,1.979,1.979,0,0,0-.711-.258,3.36,3.36,0,0,1-.805-.259,1.148,1.148,0,0,1-.441-.361.865.865,0,0,1-.142-.5,1.011,1.011,0,0,1,.406-.812,1.583,1.583,0,0,1,1.038-.332,1.632,1.632,0,0,1,1.078.343,1.088,1.088,0,0,1,.413.877H370.3a.6.6,0,0,0-.233-.473.876.876,0,0,0-.587-.2.911.911,0,0,0-.57.159.5.5,0,0,0-.206.415.405.405,0,0,0,.191.365,2.385,2.385,0,0,0,.691.235,3.606,3.606,0,0,1,.811.267,1.178,1.178,0,0,1,.46.374.918.918,0,0,1,.15.532,1,1,0,0,1-.419.839,1.756,1.756,0,0,1-1.086.316,1.965,1.965,0,0,1-.831-.166,1.344,1.344,0,0,1-.565-.464,1.117,1.117,0,0,1-.2-.645h.668a.692.692,0,0,0,.269.533,1.044,1.044,0,0,0,.663.2,1.076,1.076,0,0,0,.608-.153.472.472,0,0,0,.229-.41" transform="translate(933.971 1676.492)"/>
    <path id="Trazado_995471" data-name="Trazado 995471" d="M374.967,212.736v.946h.73v.516h-.73v2.426a.545.545,0,0,0,.1.352.411.411,0,0,0,.332.117,1.61,1.61,0,0,0,.318-.043v.539a1.964,1.964,0,0,1-.513.071.831.831,0,0,1-.675-.27,1.163,1.163,0,0,1-.227-.769V214.2h-.711v-.516h.711v-.946Z" transform="translate(931.789 1677.037)"/>
    <path id="Trazado_995472" data-name="Trazado 995472" d="M377.871,216.144a2.309,2.309,0,0,1,.226-1.033,1.683,1.683,0,0,1,.628-.707,1.707,1.707,0,0,1,.919-.249,1.647,1.647,0,0,1,1.291.552,2.127,2.127,0,0,1,.493,1.47v.047a2.33,2.33,0,0,1-.219,1.023,1.659,1.659,0,0,1-.625.706,1.73,1.73,0,0,1-.933.253,1.642,1.642,0,0,1-1.287-.553,2.114,2.114,0,0,1-.493-1.462Zm.672.079a1.67,1.67,0,0,0,.3,1.043,1.022,1.022,0,0,0,1.616,0,1.826,1.826,0,0,0,.3-1.118,1.668,1.668,0,0,0-.305-1.041.971.971,0,0,0-.811-.4.959.959,0,0,0-.8.394,1.815,1.815,0,0,0-.3,1.126" transform="translate(930.146 1676.492)"/>
    <path id="Trazado_995473" data-name="Trazado 995473" d="M73.621,216.77h2.491v.567H72.924V212.08h.7Z" transform="translate(1047.188 1677.289)"/>
    <path id="Trazado_995474" data-name="Trazado 995474" d="M79.967,211.617h.808l-.967,1.062-.538,0Zm-.007,5.542h-.672v-3.907h.672Z" transform="translate(1044.753 1677.467)"/>
    <path id="Trazado_995475" data-name="Trazado 995475" d="M82.809,214.226l.022.491a1.423,1.423,0,0,1,1.17-.563q1.238,0,1.249,1.4v2.582h-.668v-2.585a.9.9,0,0,0-.193-.625.773.773,0,0,0-.59-.2.96.96,0,0,0-.57.173,1.173,1.173,0,0,0-.383.455v2.784h-.668v-3.907Z" transform="translate(1043.637 1676.493)"/>
    <path id="Trazado_995476" data-name="Trazado 995476" d="M90.314,218.205a1.708,1.708,0,0,1-1.293-.522,1.937,1.937,0,0,1-.5-1.4v-.123a2.349,2.349,0,0,1,.222-1.038,1.733,1.733,0,0,1,.621-.715,1.561,1.561,0,0,1,.865-.258,1.464,1.464,0,0,1,1.184.5,2.173,2.173,0,0,1,.422,1.437v.278H89.191a1.389,1.389,0,0,0,.337.933,1.063,1.063,0,0,0,.821.356,1.16,1.16,0,0,0,.6-.145,1.5,1.5,0,0,0,.429-.383l.408.318a1.641,1.641,0,0,1-1.473.755m-.083-3.5a.891.891,0,0,0-.679.295,1.43,1.43,0,0,0-.339.824h1.956v-.051a1.271,1.271,0,0,0-.274-.789.838.838,0,0,0-.664-.28" transform="translate(1041.201 1676.493)"/>
    <path id="Trazado_995477" data-name="Trazado 995477" d="M97.5,218.133a1.4,1.4,0,0,1-.094-.412,1.487,1.487,0,0,1-1.112.484,1.377,1.377,0,0,1-.948-.327,1.058,1.058,0,0,1-.37-.829,1.1,1.1,0,0,1,.464-.948,2.188,2.188,0,0,1,1.305-.338h.65v-.307a.749.749,0,0,0-.21-.558.841.841,0,0,0-.617-.208.976.976,0,0,0-.6.181.533.533,0,0,0-.242.437h-.672a.921.921,0,0,1,.208-.565,1.417,1.417,0,0,1,.563-.431,1.9,1.9,0,0,1,.782-.159,1.544,1.544,0,0,1,1.057.338,1.219,1.219,0,0,1,.4.93v1.8a2.188,2.188,0,0,0,.137.855v.058Zm-1.108-.509a1.173,1.173,0,0,0,.6-.163.983.983,0,0,0,.408-.422v-.8h-.524q-1.227,0-1.227.718a.608.608,0,0,0,.21.491.808.808,0,0,0,.539.177" transform="translate(1038.726 1676.493)"/>
    <path id="Trazado_995478" data-name="Trazado 995478" d="M107.961,215.247a2.324,2.324,0,0,1-.412,1.439,1.315,1.315,0,0,1-1.1.543,1.36,1.36,0,0,1-1.144-.524l-.033.452h-.614v-5.546h.668v2.069a1.353,1.353,0,0,1,1.115-.5,1.324,1.324,0,0,1,1.118.538,2.394,2.394,0,0,1,.407,1.473Zm-.668-.076a1.806,1.806,0,0,0-.264-1.054.872.872,0,0,0-.758-.372.98.98,0,0,0-.95.614v1.69a1.008,1.008,0,0,0,.957.614.866.866,0,0,0,.747-.372,1.917,1.917,0,0,0,.268-1.119" transform="translate(1035.011 1677.469)"/>
    <path id="Trazado_995479" data-name="Trazado 995479" d="M113.789,217.791a1.419,1.419,0,0,1-1.144.458,1.213,1.213,0,0,1-.951-.363,1.568,1.568,0,0,1-.331-1.074v-2.542h.668v2.524q0,.888.722.888a1,1,0,0,0,1.019-.571v-2.841h.668v3.907H113.8Z" transform="translate(1032.436 1676.448)"/>
    <path id="Trazado_995480" data-name="Trazado 995480" d="M120.174,217.1a.492.492,0,0,0-.2-.421,1.979,1.979,0,0,0-.711-.258,3.359,3.359,0,0,1-.805-.259,1.148,1.148,0,0,1-.441-.361.866.866,0,0,1-.142-.5,1.011,1.011,0,0,1,.406-.812,1.583,1.583,0,0,1,1.038-.332,1.632,1.632,0,0,1,1.078.343,1.088,1.088,0,0,1,.413.877h-.671a.6.6,0,0,0-.233-.473.876.876,0,0,0-.587-.2.911.911,0,0,0-.57.159.5.5,0,0,0-.206.415.405.405,0,0,0,.191.365,2.386,2.386,0,0,0,.691.235,3.605,3.605,0,0,1,.811.267,1.179,1.179,0,0,1,.46.374.918.918,0,0,1,.15.532,1,1,0,0,1-.419.839,1.755,1.755,0,0,1-1.086.316,1.966,1.966,0,0,1-.831-.166,1.344,1.344,0,0,1-.565-.464,1.117,1.117,0,0,1-.2-.645h.668a.691.691,0,0,0,.269.533,1.044,1.044,0,0,0,.663.2,1.077,1.077,0,0,0,.608-.153.472.472,0,0,0,.229-.41" transform="translate(1029.988 1676.492)"/>
    <path id="Trazado_995481" data-name="Trazado 995481" d="M124.8,212.736v.946h.73v.516h-.73v2.426a.545.545,0,0,0,.1.352.411.411,0,0,0,.332.117,1.61,1.61,0,0,0,.318-.043v.539a1.964,1.964,0,0,1-.513.071.831.831,0,0,1-.675-.27,1.164,1.164,0,0,1-.227-.769V214.2h-.711v-.516h.711v-.946Z" transform="translate(1027.807 1677.037)"/>
    <path id="Trazado_995482" data-name="Trazado 995482" d="M127.7,216.144a2.309,2.309,0,0,1,.226-1.033,1.683,1.683,0,0,1,.629-.707,1.707,1.707,0,0,1,.919-.249,1.647,1.647,0,0,1,1.291.552,2.127,2.127,0,0,1,.493,1.47v.047a2.33,2.33,0,0,1-.219,1.023,1.659,1.659,0,0,1-.625.706,1.73,1.73,0,0,1-.933.253,1.642,1.642,0,0,1-1.287-.553,2.114,2.114,0,0,1-.493-1.462Zm.672.079a1.67,1.67,0,0,0,.3,1.043,1.022,1.022,0,0,0,1.616,0,1.826,1.826,0,0,0,.3-1.118,1.667,1.667,0,0,0-.3-1.041.971.971,0,0,0-.811-.4.959.959,0,0,0-.8.394,1.814,1.814,0,0,0-.3,1.126" transform="translate(1026.163 1676.492)"/>
    <path id="Trazado_995483" data-name="Trazado 995483" d="M251.213,375.326H253.7v.567h-3.188v-5.257h.7Z" transform="translate(979.026 1616.434)"/>
    <path id="Trazado_995484" data-name="Trazado 995484" d="M257.559,370.173h.809l-.968,1.061h-.538Zm-.007,5.542h-.672v-3.907h.672Z" transform="translate(976.591 1616.611)"/>
    <path id="Trazado_995485" data-name="Trazado 995485" d="M260.4,372.782l.022.491a1.423,1.423,0,0,1,1.17-.563q1.238,0,1.249,1.4v2.582h-.668V374.1a.9.9,0,0,0-.194-.625.773.773,0,0,0-.59-.2.96.96,0,0,0-.57.173,1.173,1.173,0,0,0-.383.455v2.784h-.668v-3.907Z" transform="translate(975.475 1615.637)"/>
    <path id="Trazado_995486" data-name="Trazado 995486" d="M267.906,376.761a1.71,1.71,0,0,1-1.293-.522,1.939,1.939,0,0,1-.5-1.4v-.123a2.35,2.35,0,0,1,.222-1.038,1.731,1.731,0,0,1,.621-.714,1.561,1.561,0,0,1,.864-.258,1.464,1.464,0,0,1,1.184.5,2.171,2.171,0,0,1,.422,1.437v.277h-2.646a1.388,1.388,0,0,0,.337.934,1.064,1.064,0,0,0,.821.356,1.16,1.16,0,0,0,.6-.145,1.515,1.515,0,0,0,.429-.383l.408.318a1.641,1.641,0,0,1-1.473.755m-.083-3.5a.891.891,0,0,0-.679.3,1.427,1.427,0,0,0-.339.824h1.956v-.051a1.269,1.269,0,0,0-.274-.789.837.837,0,0,0-.664-.28" transform="translate(973.039 1615.637)"/>
    <path id="Trazado_995487" data-name="Trazado 995487" d="M275.089,376.689a1.4,1.4,0,0,1-.094-.412,1.487,1.487,0,0,1-1.112.484,1.377,1.377,0,0,1-.948-.327,1.056,1.056,0,0,1-.37-.829,1.105,1.105,0,0,1,.464-.948,2.189,2.189,0,0,1,1.305-.338h.65v-.307a.749.749,0,0,0-.21-.558.841.841,0,0,0-.617-.208.976.976,0,0,0-.6.181.533.533,0,0,0-.242.437h-.672a.921.921,0,0,1,.208-.565,1.417,1.417,0,0,1,.563-.431,1.9,1.9,0,0,1,.782-.159,1.544,1.544,0,0,1,1.057.338,1.219,1.219,0,0,1,.4.93v1.8a2.187,2.187,0,0,0,.137.855v.058Zm-1.109-.509a1.174,1.174,0,0,0,.6-.163.984.984,0,0,0,.408-.422v-.8h-.524q-1.227,0-1.227.718a.608.608,0,0,0,.21.491.807.807,0,0,0,.538.177" transform="translate(970.563 1615.637)"/>
    <path id="Trazado_995488" data-name="Trazado 995488" d="M283.7,376.215a.96.96,0,0,0,.625-.217.76.76,0,0,0,.3-.541h.632a1.216,1.216,0,0,1-.231.639,1.532,1.532,0,0,1-.569.484,1.644,1.644,0,0,1-.753.181,1.61,1.61,0,0,1-1.269-.532,2.125,2.125,0,0,1-.471-1.457v-.112a2.349,2.349,0,0,1,.209-1.015,1.594,1.594,0,0,1,.6-.69,1.706,1.706,0,0,1,.926-.245,1.567,1.567,0,0,1,1.093.393,1.411,1.411,0,0,1,.464,1.022h-.632a.916.916,0,0,0-.287-.622.892.892,0,0,0-.637-.244.934.934,0,0,0-.789.367,1.72,1.72,0,0,0-.28,1.06v.126a1.685,1.685,0,0,0,.278,1.04.938.938,0,0,0,.794.365" transform="translate(966.956 1615.637)"/>
    <path id="Trazado_995489" data-name="Trazado 995489" d="M288.532,370.9a.4.4,0,0,1,.1-.274.446.446,0,0,1,.59,0,.393.393,0,0,1,.1.274.38.38,0,0,1-.1.271.394.394,0,0,1-.689-.271m.722,4.943h-.668v-3.907h.668Z" transform="translate(964.435 1616.479)"/>
    <path id="Trazado_995490" data-name="Trazado 995490" d="M292.071,372.782l.022.491a1.423,1.423,0,0,1,1.17-.563q1.238,0,1.249,1.4v2.582h-.668V374.1a.9.9,0,0,0-.193-.625.773.773,0,0,0-.59-.2.96.96,0,0,0-.57.173,1.173,1.173,0,0,0-.383.455v2.784h-.668v-3.907Z" transform="translate(963.319 1615.637)"/>
    <path id="Trazado_995491" data-name="Trazado 995491" d="M298.671,371.292v.946h.73v.516h-.73v2.426a.545.545,0,0,0,.1.352.411.411,0,0,0,.332.117,1.615,1.615,0,0,0,.318-.043v.539a1.966,1.966,0,0,1-.513.071.831.831,0,0,1-.675-.27,1.164,1.164,0,0,1-.227-.769v-2.423h-.711v-.516H298v-.946Z" transform="translate(961.073 1616.182)"/>
    <path id="Trazado_995492" data-name="Trazado 995492" d="M304.383,376.347a1.419,1.419,0,0,1-1.144.458,1.213,1.213,0,0,1-.951-.363,1.568,1.568,0,0,1-.331-1.074v-2.542h.668v2.524q0,.888.722.888a1,1,0,0,0,1.019-.571v-2.841h.668v3.907H304.4Z" transform="translate(959.283 1615.592)"/>
    <path id="Trazado_995493" data-name="Trazado 995493" d="M310.483,373.382a2.029,2.029,0,0,0-.328-.025.88.88,0,0,0-.892.56v2.773h-.668v-3.907h.649l.011.452a1.039,1.039,0,0,1,.932-.524.688.688,0,0,1,.3.051Z" transform="translate(956.734 1615.637)"/>
    <path id="Trazado_995494" data-name="Trazado 995494" d="M314.763,376.689a1.405,1.405,0,0,1-.094-.412,1.487,1.487,0,0,1-1.112.484,1.377,1.377,0,0,1-.948-.327,1.056,1.056,0,0,1-.37-.829,1.105,1.105,0,0,1,.464-.948,2.189,2.189,0,0,1,1.305-.338h.65v-.307a.749.749,0,0,0-.209-.558.841.841,0,0,0-.617-.208.976.976,0,0,0-.6.181.533.533,0,0,0-.242.437h-.672a.921.921,0,0,1,.208-.565,1.418,1.418,0,0,1,.563-.431,1.9,1.9,0,0,1,.782-.159,1.544,1.544,0,0,1,1.057.338,1.219,1.219,0,0,1,.4.93v1.8a2.187,2.187,0,0,0,.137.855v.058Zm-1.109-.509a1.173,1.173,0,0,0,.6-.163.983.983,0,0,0,.408-.422v-.8h-.524q-1.227,0-1.227.718a.608.608,0,0,0,.209.491.807.807,0,0,0,.538.177" transform="translate(955.336 1615.637)"/>
    <path id="Trazado_995495" data-name="Trazado 995495" d="M97.293,272.68v-6.133H99.18a2.864,2.864,0,0,1,1.446.364,2.545,2.545,0,0,1,1,1.036,3.209,3.209,0,0,1,.358,1.528v.282a3.2,3.2,0,0,1-.352,1.521,2.519,2.519,0,0,1-.991,1.031,2.889,2.889,0,0,1-1.445.371Zm1.264-5.109v4.095h.611a1.373,1.373,0,0,0,1.133-.485,2.188,2.188,0,0,0,.4-1.386v-.324a2.227,2.227,0,0,0-.387-1.418,1.37,1.37,0,0,0-1.133-.482Z" transform="translate(1037.835 1656.384)"/>
    <path id="Trazado_995496" data-name="Trazado 995496" d="M110.081,270.022h-2.426v1.643H110.5v1.015h-4.111v-6.133h4.1v1.023h-2.839v1.462h2.426Z" transform="translate(1034.343 1656.384)"/>
    <path id="Trazado_995497" data-name="Trazado 995497" d="M115.529,271.665h2.683v1.015h-3.947v-6.133h1.264Z" transform="translate(1031.321 1656.384)"/>
    <path id="Trazado_995498" data-name="Trazado 995498" d="M125.117,271.417H122.9l-.421,1.264h-1.344l2.283-6.133h1.171l2.3,6.133h-1.344Zm-1.874-1.024h1.533L124,268.1Z" transform="translate(1028.684 1656.384)"/>
    <path id="Trazado_995499" data-name="Trazado 995499" d="M136.384,272.68H135.12l-2.46-4.035v4.035H131.4v-6.133h1.264l2.464,4.043v-4.043h1.259Z" transform="translate(1024.746 1656.384)"/>
    <path id="Trazado_995500" data-name="Trazado 995500" d="M145.465,267.571h-1.879v5.109h-1.264v-5.109h-1.853v-1.023h5Z" transform="translate(1021.264 1656.384)"/>
    <path id="Trazado_995501" data-name="Trazado 995501" d="M153.434,270.022h-2.427v1.643h2.848v1.015h-4.111v-6.133h4.1v1.023h-2.839v1.462h2.427Z" transform="translate(1017.704 1656.384)"/>
    <path id="Trazado_995502" data-name="Trazado 995502" d="M159.89,270.435h-1.007v2.245h-1.264v-6.133H159.9a2.573,2.573,0,0,1,1.677.484,1.67,1.67,0,0,1,.59,1.369,1.893,1.893,0,0,1-.271,1.047,1.861,1.861,0,0,1-.824.668l1.327,2.506v.059h-1.356Zm-1.007-1.023H159.9a1.043,1.043,0,0,0,.738-.243.865.865,0,0,0,.261-.667.928.928,0,0,0-.246-.682,1.024,1.024,0,0,0-.757-.248h-1.015Z" transform="translate(1014.682 1656.384)"/>
    <path id="Trazado_995503" data-name="Trazado 995503" d="M169.695,271.417h-2.216l-.421,1.264h-1.344L168,266.548h1.171l2.3,6.133H170.12Zm-1.874-1.024h1.533l-.771-2.3Z" transform="translate(1011.574 1656.384)"/>
    <path id="Trazado_995504" data-name="Trazado 995504" d="M299.386,267.571h-1.879v5.109h-1.264v-5.109h-1.853v-1.023h5Z" transform="translate(962.187 1656.384)"/>
    <path id="Trazado_995505" data-name="Trazado 995505" d="M305.938,270.435h-1.007v2.245h-1.264v-6.133h2.279a2.574,2.574,0,0,1,1.677.484,1.672,1.672,0,0,1,.59,1.369,1.893,1.893,0,0,1-.272,1.047,1.862,1.862,0,0,1-.823.668l1.326,2.506v.059h-1.356Zm-1.007-1.023h1.019a1.044,1.044,0,0,0,.738-.243.865.865,0,0,0,.261-.667.926.926,0,0,0-.246-.682,1.022,1.022,0,0,0-.756-.248h-1.015Z" transform="translate(958.626 1656.384)"/>
    <path id="Trazado_995506" data-name="Trazado 995506" d="M315.742,271.417h-2.216l-.421,1.264h-1.344l2.283-6.133h1.171l2.3,6.133h-1.344Zm-1.874-1.024H315.4l-.771-2.3Z" transform="translate(955.52 1656.384)"/>
    <path id="Trazado_995507" data-name="Trazado 995507" d="M325.042,271.018a.65.65,0,0,0-.253-.55,3.346,3.346,0,0,0-.91-.4,6.4,6.4,0,0,1-1.04-.419,1.7,1.7,0,0,1-1.045-1.52,1.48,1.48,0,0,1,.281-.887,1.823,1.823,0,0,1,.8-.608,3.034,3.034,0,0,1,1.178-.219,2.762,2.762,0,0,1,1.171.238,1.874,1.874,0,0,1,.8.672,1.764,1.764,0,0,1,.284.986h-1.264a.828.828,0,0,0-.266-.656,1.09,1.09,0,0,0-.746-.234,1.167,1.167,0,0,0-.72.2.618.618,0,0,0-.257.516.592.592,0,0,0,.3.5,3.387,3.387,0,0,0,.887.379,3.827,3.827,0,0,1,1.571.8,1.6,1.6,0,0,1,.493,1.2,1.477,1.477,0,0,1-.6,1.249,2.636,2.636,0,0,1-1.622.453,3.137,3.137,0,0,1-1.289-.259,2.046,2.046,0,0,1-.887-.709,1.822,1.822,0,0,1-.3-1.045h1.267q0,1.015,1.213,1.016a1.182,1.182,0,0,0,.7-.184.6.6,0,0,0,.253-.511" transform="translate(951.741 1656.437)"/>
    <path id="Trazado_995508" data-name="Trazado 995508" d="M334.317,270.022H331.89v1.643h2.848v1.015h-4.111v-6.133h4.1v1.023H331.89v1.462h2.427Z" transform="translate(948.278 1656.384)"/>
    <path id="Trazado_995509" data-name="Trazado 995509" d="M340.773,270.435h-1.007v2.245H338.5v-6.133h2.279a2.573,2.573,0,0,1,1.677.484,1.67,1.67,0,0,1,.59,1.369,1.893,1.893,0,0,1-.271,1.047,1.861,1.861,0,0,1-.824.668l1.327,2.506v.059h-1.356Zm-1.007-1.023h1.019a1.043,1.043,0,0,0,.738-.243.865.865,0,0,0,.261-.667.928.928,0,0,0-.246-.682,1.024,1.024,0,0,0-.757-.248h-1.015Z" transform="translate(945.256 1656.384)"/>
    <path id="Trazado_995510" data-name="Trazado 995510" d="M350.578,271.417h-2.216l-.421,1.264H346.6l2.283-6.133h1.171l2.3,6.133H351Zm-1.874-1.024h1.533l-.771-2.3Z" transform="translate(942.148 1656.384)"/>
    <path id="Trazado_995511" data-name="Trazado 995511" d="M251.213,496.163H253.7v.567h-3.188v-5.257h.7Z" transform="translate(979.026 1570.054)"/>
    <path id="Trazado_995512" data-name="Trazado 995512" d="M257.559,491.01h.809l-.968,1.061-.538,0Zm-.007,5.542h-.672v-3.907h.672Z" transform="translate(976.591 1570.231)"/>
    <path id="Trazado_995513" data-name="Trazado 995513" d="M260.4,493.619l.022.491a1.423,1.423,0,0,1,1.17-.563q1.238,0,1.249,1.4v2.582h-.668v-2.585a.9.9,0,0,0-.194-.625.773.773,0,0,0-.59-.2.96.96,0,0,0-.57.173,1.172,1.172,0,0,0-.383.455v2.784h-.668v-3.907Z" transform="translate(975.475 1569.258)"/>
    <path id="Trazado_995514" data-name="Trazado 995514" d="M267.906,497.6a1.708,1.708,0,0,1-1.293-.522,1.937,1.937,0,0,1-.5-1.4v-.123a2.349,2.349,0,0,1,.222-1.038,1.733,1.733,0,0,1,.621-.715,1.561,1.561,0,0,1,.864-.258,1.464,1.464,0,0,1,1.184.5,2.173,2.173,0,0,1,.422,1.437v.278h-2.646a1.389,1.389,0,0,0,.337.933,1.063,1.063,0,0,0,.821.356,1.16,1.16,0,0,0,.6-.145,1.5,1.5,0,0,0,.429-.383l.408.318a1.641,1.641,0,0,1-1.473.755m-.083-3.5a.891.891,0,0,0-.679.295,1.43,1.43,0,0,0-.339.824h1.956v-.051a1.271,1.271,0,0,0-.274-.789.839.839,0,0,0-.664-.28" transform="translate(973.039 1569.259)"/>
    <path id="Trazado_995515" data-name="Trazado 995515" d="M275.089,497.526a1.405,1.405,0,0,1-.094-.412,1.487,1.487,0,0,1-1.112.484,1.377,1.377,0,0,1-.948-.327,1.056,1.056,0,0,1-.37-.829,1.105,1.105,0,0,1,.464-.948,2.189,2.189,0,0,1,1.305-.338h.65v-.307a.749.749,0,0,0-.21-.558.84.84,0,0,0-.617-.208.976.976,0,0,0-.6.18.533.533,0,0,0-.242.437h-.672a.921.921,0,0,1,.208-.565,1.417,1.417,0,0,1,.563-.431,1.9,1.9,0,0,1,.782-.159,1.544,1.544,0,0,1,1.057.338,1.219,1.219,0,0,1,.4.93v1.8a2.187,2.187,0,0,0,.137.855v.058Zm-1.109-.509a1.174,1.174,0,0,0,.6-.163.984.984,0,0,0,.408-.422v-.8h-.524q-1.227,0-1.227.718a.608.608,0,0,0,.21.491.807.807,0,0,0,.538.177" transform="translate(970.563 1569.258)"/>
    <path id="Trazado_995516" data-name="Trazado 995516" d="M285.552,494.639a2.323,2.323,0,0,1-.412,1.439,1.315,1.315,0,0,1-1.1.544,1.36,1.36,0,0,1-1.144-.524l-.033.452h-.614V491h.668v2.069a1.353,1.353,0,0,1,1.115-.5,1.324,1.324,0,0,1,1.118.538,2.393,2.393,0,0,1,.406,1.473Zm-.668-.076a1.806,1.806,0,0,0-.264-1.054.872.872,0,0,0-.758-.372.98.98,0,0,0-.95.614v1.69a1.008,1.008,0,0,0,.957.614.866.866,0,0,0,.747-.372,1.918,1.918,0,0,0,.267-1.119" transform="translate(966.848 1570.234)"/>
    <path id="Trazado_995517" data-name="Trazado 995517" d="M291.32,497.526a1.407,1.407,0,0,1-.094-.412,1.488,1.488,0,0,1-1.112.484,1.377,1.377,0,0,1-.948-.327,1.056,1.056,0,0,1-.37-.829,1.1,1.1,0,0,1,.464-.948,2.189,2.189,0,0,1,1.305-.338h.65v-.307a.749.749,0,0,0-.21-.558.84.84,0,0,0-.617-.208.976.976,0,0,0-.6.18.533.533,0,0,0-.242.437h-.672a.921.921,0,0,1,.208-.565,1.417,1.417,0,0,1,.563-.431,1.9,1.9,0,0,1,.782-.159,1.544,1.544,0,0,1,1.057.338,1.219,1.219,0,0,1,.4.93v1.8a2.188,2.188,0,0,0,.137.855v.058Zm-1.109-.509a1.174,1.174,0,0,0,.6-.163.984.984,0,0,0,.408-.422v-.8h-.524q-1.227,0-1.227.718a.608.608,0,0,0,.209.491.807.807,0,0,0,.538.177" transform="translate(964.334 1569.258)"/>
    <path id="Trazado_995518" data-name="Trazado 995518" d="M295.734,492.778v4.358q0,1.127-1.022,1.126a1.246,1.246,0,0,1-.408-.065v-.531a1.3,1.3,0,0,0,.3.029.454.454,0,0,0,.341-.121.6.6,0,0,0,.117-.421v-4.376ZM295,491.741a.4.4,0,0,1,.1-.272.366.366,0,0,1,.291-.114.378.378,0,0,1,.3.112.392.392,0,0,1,.1.274.379.379,0,0,1-.1.271.383.383,0,0,1-.3.108.373.373,0,0,1-.293-.108.39.39,0,0,1-.1-.271" transform="translate(962.22 1570.1)"/>
    <path id="Trazado_995519" data-name="Trazado 995519" d="M298.083,495.536a2.309,2.309,0,0,1,.225-1.033,1.683,1.683,0,0,1,.629-.707,1.707,1.707,0,0,1,.919-.249,1.647,1.647,0,0,1,1.291.552,2.127,2.127,0,0,1,.493,1.47v.047a2.33,2.33,0,0,1-.219,1.023,1.659,1.659,0,0,1-.625.706,1.73,1.73,0,0,1-.933.253,1.643,1.643,0,0,1-1.287-.553,2.114,2.114,0,0,1-.493-1.462Zm.672.079a1.671,1.671,0,0,0,.3,1.043,1.022,1.022,0,0,0,1.616,0,1.826,1.826,0,0,0,.3-1.118,1.667,1.667,0,0,0-.305-1.041.971.971,0,0,0-.811-.4.959.959,0,0,0-.8.394,1.815,1.815,0,0,0-.3,1.126" transform="translate(960.77 1569.258)"/>
    <path id="Trazado_995520" data-name="Trazado 995520" d="M307.387,496.489a.492.492,0,0,0-.2-.421,1.978,1.978,0,0,0-.711-.258,3.36,3.36,0,0,1-.805-.259,1.148,1.148,0,0,1-.441-.361.865.865,0,0,1-.142-.5,1.011,1.011,0,0,1,.406-.812,1.583,1.583,0,0,1,1.038-.332,1.631,1.631,0,0,1,1.078.343,1.088,1.088,0,0,1,.413.877h-.671a.6.6,0,0,0-.233-.473.876.876,0,0,0-.587-.2.911.911,0,0,0-.57.159.5.5,0,0,0-.206.415.405.405,0,0,0,.191.365,2.386,2.386,0,0,0,.691.235,3.609,3.609,0,0,1,.811.267,1.178,1.178,0,0,1,.46.374.918.918,0,0,1,.15.532,1,1,0,0,1-.419.839,1.755,1.755,0,0,1-1.086.316,1.966,1.966,0,0,1-.831-.166,1.344,1.344,0,0,1-.565-.464,1.117,1.117,0,0,1-.2-.645h.668a.691.691,0,0,0,.269.533,1.044,1.044,0,0,0,.663.2,1.077,1.077,0,0,0,.608-.153.472.472,0,0,0,.229-.41" transform="translate(958.134 1569.258)"/>
    <path id="Trazado_995521" data-name="Trazado 995521" d="M127.121,375.326h2.491v.567h-3.188v-5.257h.7Z" transform="translate(1026.654 1616.434)"/>
    <path id="Trazado_995522" data-name="Trazado 995522" d="M133.466,370.173h.809l-.967,1.061h-.538Zm-.007,5.542h-.672v-3.907h.672Z" transform="translate(1024.219 1616.611)"/>
    <path id="Trazado_995523" data-name="Trazado 995523" d="M136.308,372.782l.022.491a1.423,1.423,0,0,1,1.17-.563q1.238,0,1.249,1.4v2.582h-.668V374.1a.9.9,0,0,0-.193-.625.773.773,0,0,0-.59-.2.96.96,0,0,0-.57.173,1.173,1.173,0,0,0-.383.455v2.784h-.668v-3.907Z" transform="translate(1023.104 1615.637)"/>
    <path id="Trazado_995524" data-name="Trazado 995524" d="M143.813,376.761a1.71,1.71,0,0,1-1.293-.522,1.939,1.939,0,0,1-.5-1.4v-.123a2.351,2.351,0,0,1,.222-1.038,1.731,1.731,0,0,1,.621-.714,1.561,1.561,0,0,1,.865-.258,1.463,1.463,0,0,1,1.184.5,2.171,2.171,0,0,1,.422,1.437v.277H142.69a1.388,1.388,0,0,0,.337.934,1.064,1.064,0,0,0,.821.356,1.16,1.16,0,0,0,.6-.145,1.515,1.515,0,0,0,.429-.383l.408.318a1.641,1.641,0,0,1-1.473.755m-.083-3.5a.891.891,0,0,0-.679.3,1.427,1.427,0,0,0-.339.824h1.956v-.051a1.269,1.269,0,0,0-.274-.789.837.837,0,0,0-.664-.28" transform="translate(1020.668 1615.637)"/>
    <path id="Trazado_995525" data-name="Trazado 995525" d="M151,376.689a1.406,1.406,0,0,1-.094-.412,1.487,1.487,0,0,1-1.112.484,1.377,1.377,0,0,1-.948-.327,1.058,1.058,0,0,1-.37-.829,1.1,1.1,0,0,1,.464-.948,2.188,2.188,0,0,1,1.305-.338h.65v-.307a.749.749,0,0,0-.21-.558.841.841,0,0,0-.617-.208.976.976,0,0,0-.6.181.533.533,0,0,0-.242.437h-.672a.921.921,0,0,1,.208-.565,1.417,1.417,0,0,1,.563-.431,1.9,1.9,0,0,1,.782-.159,1.544,1.544,0,0,1,1.057.338,1.219,1.219,0,0,1,.4.93v1.8a2.187,2.187,0,0,0,.137.855v.058Zm-1.108-.509a1.173,1.173,0,0,0,.6-.163.984.984,0,0,0,.408-.422v-.8h-.524q-1.227,0-1.227.718a.608.608,0,0,0,.21.491.808.808,0,0,0,.539.177" transform="translate(1018.192 1615.637)"/>
    <path id="Trazado_995526" data-name="Trazado 995526" d="M159.611,376.215a.96.96,0,0,0,.625-.217.76.76,0,0,0,.3-.541h.632a1.216,1.216,0,0,1-.231.639,1.532,1.532,0,0,1-.569.484,1.644,1.644,0,0,1-.753.181,1.61,1.61,0,0,1-1.269-.532,2.125,2.125,0,0,1-.471-1.457v-.112a2.349,2.349,0,0,1,.209-1.015,1.594,1.594,0,0,1,.6-.69,1.706,1.706,0,0,1,.926-.245,1.567,1.567,0,0,1,1.093.393,1.41,1.41,0,0,1,.464,1.022h-.632a.916.916,0,0,0-.287-.622.892.892,0,0,0-.637-.244.934.934,0,0,0-.789.367,1.72,1.72,0,0,0-.28,1.06v.126a1.685,1.685,0,0,0,.278,1.04.939.939,0,0,0,.794.365" transform="translate(1014.585 1615.637)"/>
    <path id="Trazado_995527" data-name="Trazado 995527" d="M164.439,370.9a.4.4,0,0,1,.1-.274.372.372,0,0,1,.294-.112.38.38,0,0,1,.3.112.4.4,0,0,1,.1.274.383.383,0,0,1-.1.271.387.387,0,0,1-.3.108.379.379,0,0,1-.294-.108.385.385,0,0,1-.1-.271m.722,4.943h-.668v-3.907h.668Z" transform="translate(1012.063 1616.479)"/>
    <path id="Trazado_995528" data-name="Trazado 995528" d="M167.978,372.782l.022.491a1.423,1.423,0,0,1,1.17-.563q1.238,0,1.249,1.4v2.582h-.668V374.1a.9.9,0,0,0-.193-.625.773.773,0,0,0-.59-.2.96.96,0,0,0-.57.173,1.174,1.174,0,0,0-.383.455v2.784h-.668v-3.907Z" transform="translate(1010.948 1615.637)"/>
    <path id="Trazado_995529" data-name="Trazado 995529" d="M174.579,371.292v.946h.729v.516h-.729v2.426a.546.546,0,0,0,.1.352.411.411,0,0,0,.332.117,1.614,1.614,0,0,0,.318-.043v.539a1.966,1.966,0,0,1-.513.071.831.831,0,0,1-.675-.27,1.164,1.164,0,0,1-.227-.769v-2.423H173.2v-.516h.711v-.946Z" transform="translate(1008.701 1616.182)"/>
    <path id="Trazado_995530" data-name="Trazado 995530" d="M180.29,376.347a1.419,1.419,0,0,1-1.144.458,1.213,1.213,0,0,1-.951-.363,1.568,1.568,0,0,1-.331-1.074v-2.542h.668v2.524q0,.888.722.888a1,1,0,0,0,1.019-.571v-2.841h.668v3.907H180.3Z" transform="translate(1006.911 1615.592)"/>
    <path id="Trazado_995531" data-name="Trazado 995531" d="M186.39,373.382a2.029,2.029,0,0,0-.328-.025.88.88,0,0,0-.892.56v2.773H184.5v-3.907h.649l.011.452a1.039,1.039,0,0,1,.932-.524.688.688,0,0,1,.3.051Z" transform="translate(1004.363 1615.637)"/>
    <path id="Trazado_995532" data-name="Trazado 995532" d="M190.67,376.689a1.406,1.406,0,0,1-.094-.412,1.487,1.487,0,0,1-1.112.484,1.377,1.377,0,0,1-.948-.327,1.056,1.056,0,0,1-.37-.829,1.1,1.1,0,0,1,.464-.948,2.188,2.188,0,0,1,1.305-.338h.65v-.307a.749.749,0,0,0-.209-.558.841.841,0,0,0-.617-.208.976.976,0,0,0-.6.181.533.533,0,0,0-.242.437h-.672a.921.921,0,0,1,.208-.565,1.417,1.417,0,0,1,.563-.431,1.9,1.9,0,0,1,.782-.159,1.544,1.544,0,0,1,1.057.338,1.219,1.219,0,0,1,.4.93v1.8a2.187,2.187,0,0,0,.137.855v.058Zm-1.109-.509a1.173,1.173,0,0,0,.6-.163.984.984,0,0,0,.408-.422v-.8h-.524q-1.227,0-1.227.718a.608.608,0,0,0,.21.491.807.807,0,0,0,.538.177" transform="translate(1002.965 1615.637)"/>
    <path id="Trazado_995533" data-name="Trazado 995533" d="M127.121,496.163h2.491v.567h-3.188v-5.257h.7Z" transform="translate(1026.654 1570.054)"/>
    <path id="Trazado_995534" data-name="Trazado 995534" d="M133.466,491.01h.809l-.967,1.061-.538,0Zm-.007,5.542h-.672v-3.907h.672Z" transform="translate(1024.219 1570.231)"/>
    <path id="Trazado_995535" data-name="Trazado 995535" d="M136.308,493.619l.022.491a1.423,1.423,0,0,1,1.17-.563q1.238,0,1.249,1.4v2.582h-.668v-2.585a.9.9,0,0,0-.193-.625.773.773,0,0,0-.59-.2.96.96,0,0,0-.57.173,1.173,1.173,0,0,0-.383.455v2.784h-.668v-3.907Z" transform="translate(1023.104 1569.258)"/>
    <path id="Trazado_995536" data-name="Trazado 995536" d="M143.813,497.6a1.708,1.708,0,0,1-1.293-.522,1.937,1.937,0,0,1-.5-1.4v-.123a2.349,2.349,0,0,1,.222-1.038,1.733,1.733,0,0,1,.621-.715,1.561,1.561,0,0,1,.865-.258,1.463,1.463,0,0,1,1.184.5,2.173,2.173,0,0,1,.422,1.437v.278H142.69a1.389,1.389,0,0,0,.337.933,1.063,1.063,0,0,0,.821.356,1.16,1.16,0,0,0,.6-.145,1.5,1.5,0,0,0,.429-.383l.408.318a1.641,1.641,0,0,1-1.473.755m-.083-3.5a.891.891,0,0,0-.679.295,1.43,1.43,0,0,0-.339.824h1.956v-.051a1.271,1.271,0,0,0-.274-.789.839.839,0,0,0-.664-.28" transform="translate(1020.668 1569.259)"/>
    <path id="Trazado_995537" data-name="Trazado 995537" d="M151,497.526a1.407,1.407,0,0,1-.094-.412,1.487,1.487,0,0,1-1.112.484,1.377,1.377,0,0,1-.948-.327,1.058,1.058,0,0,1-.37-.829,1.1,1.1,0,0,1,.464-.948,2.189,2.189,0,0,1,1.305-.338h.65v-.307a.749.749,0,0,0-.21-.558.84.84,0,0,0-.617-.208.976.976,0,0,0-.6.18.533.533,0,0,0-.242.437h-.672a.921.921,0,0,1,.208-.565,1.417,1.417,0,0,1,.563-.431,1.9,1.9,0,0,1,.782-.159,1.544,1.544,0,0,1,1.057.338,1.218,1.218,0,0,1,.4.93v1.8a2.187,2.187,0,0,0,.137.855v.058Zm-1.108-.509a1.173,1.173,0,0,0,.6-.163.984.984,0,0,0,.408-.422v-.8h-.524q-1.227,0-1.227.718a.608.608,0,0,0,.21.491.807.807,0,0,0,.539.177" transform="translate(1018.192 1569.258)"/>
    <path id="Trazado_995538" data-name="Trazado 995538" d="M161.46,494.639a2.324,2.324,0,0,1-.412,1.439,1.315,1.315,0,0,1-1.1.544,1.36,1.36,0,0,1-1.144-.524l-.033.452h-.614V491h.668v2.069a1.353,1.353,0,0,1,1.115-.5,1.324,1.324,0,0,1,1.118.538,2.394,2.394,0,0,1,.407,1.473Zm-.668-.076a1.805,1.805,0,0,0-.264-1.054.871.871,0,0,0-.758-.372.981.981,0,0,0-.95.614v1.69a1.008,1.008,0,0,0,.957.614.866.866,0,0,0,.747-.372,1.917,1.917,0,0,0,.268-1.119" transform="translate(1014.477 1570.234)"/>
    <path id="Trazado_995539" data-name="Trazado 995539" d="M167.227,497.526a1.406,1.406,0,0,1-.094-.412,1.488,1.488,0,0,1-1.112.484,1.377,1.377,0,0,1-.948-.327,1.056,1.056,0,0,1-.37-.829,1.1,1.1,0,0,1,.464-.948,2.189,2.189,0,0,1,1.305-.338h.65v-.307a.749.749,0,0,0-.21-.558.84.84,0,0,0-.617-.208.976.976,0,0,0-.6.18.533.533,0,0,0-.242.437h-.672a.921.921,0,0,1,.208-.565,1.417,1.417,0,0,1,.563-.431,1.9,1.9,0,0,1,.782-.159,1.544,1.544,0,0,1,1.057.338,1.219,1.219,0,0,1,.4.93v1.8a2.188,2.188,0,0,0,.137.855v.058Zm-1.109-.509a1.174,1.174,0,0,0,.6-.163.984.984,0,0,0,.408-.422v-.8H166.6q-1.227,0-1.227.718a.608.608,0,0,0,.209.491.807.807,0,0,0,.538.177" transform="translate(1011.962 1569.258)"/>
    <path id="Trazado_995540" data-name="Trazado 995540" d="M171.641,492.778v4.358q0,1.127-1.022,1.126a1.246,1.246,0,0,1-.408-.065v-.531a1.3,1.3,0,0,0,.3.029.454.454,0,0,0,.341-.121.6.6,0,0,0,.117-.421v-4.376Zm-.736-1.036a.4.4,0,0,1,.1-.272.366.366,0,0,1,.291-.114.378.378,0,0,1,.3.112.392.392,0,0,1,.1.274.361.361,0,0,1-.4.379.373.373,0,0,1-.293-.108.39.39,0,0,1-.1-.271" transform="translate(1009.849 1570.1)"/>
    <path id="Trazado_995541" data-name="Trazado 995541" d="M173.99,495.536a2.309,2.309,0,0,1,.226-1.033,1.683,1.683,0,0,1,.628-.707,1.707,1.707,0,0,1,.919-.249,1.647,1.647,0,0,1,1.291.552,2.127,2.127,0,0,1,.493,1.47v.047a2.33,2.33,0,0,1-.219,1.023,1.659,1.659,0,0,1-.625.706,1.73,1.73,0,0,1-.933.253,1.643,1.643,0,0,1-1.287-.553,2.114,2.114,0,0,1-.493-1.462Zm.672.079a1.671,1.671,0,0,0,.3,1.043,1.022,1.022,0,0,0,1.616,0,1.826,1.826,0,0,0,.3-1.118,1.667,1.667,0,0,0-.305-1.041.971.971,0,0,0-.811-.4.959.959,0,0,0-.8.394,1.815,1.815,0,0,0-.3,1.126" transform="translate(1008.397 1569.258)"/>
    <path id="Trazado_995542" data-name="Trazado 995542" d="M183.295,496.489a.492.492,0,0,0-.2-.421,1.978,1.978,0,0,0-.711-.258,3.36,3.36,0,0,1-.805-.259,1.148,1.148,0,0,1-.441-.361.866.866,0,0,1-.142-.5,1.011,1.011,0,0,1,.406-.812,1.583,1.583,0,0,1,1.038-.332,1.632,1.632,0,0,1,1.078.343,1.088,1.088,0,0,1,.413.877h-.671a.6.6,0,0,0-.233-.473.876.876,0,0,0-.587-.2.911.911,0,0,0-.57.159.5.5,0,0,0-.206.415.4.4,0,0,0,.191.365,2.385,2.385,0,0,0,.691.235,3.609,3.609,0,0,1,.811.267,1.179,1.179,0,0,1,.46.374.918.918,0,0,1,.15.532,1,1,0,0,1-.419.839,1.755,1.755,0,0,1-1.086.316,1.966,1.966,0,0,1-.831-.166,1.344,1.344,0,0,1-.565-.464,1.117,1.117,0,0,1-.2-.645h.668a.691.691,0,0,0,.269.533,1.044,1.044,0,0,0,.663.2,1.076,1.076,0,0,0,.608-.153.472.472,0,0,0,.23-.41" transform="translate(1005.762 1569.258)"/>
    <path id="Trazado_995543" data-name="Trazado 995543" d="M301.658,164.437h2.491V165h-3.188v-5.257h.7Z" transform="translate(959.665 1697.375)"/>
    <path id="Trazado_995544" data-name="Trazado 995544" d="M308,159.284h.809l-.967,1.061-.538,0ZM308,164.826h-.672v-3.907H308Z" transform="translate(957.229 1697.553)"/>
    <path id="Trazado_995545" data-name="Trazado 995545" d="M310.845,161.893l.022.491a1.423,1.423,0,0,1,1.17-.563q1.238,0,1.249,1.4V165.8h-.668v-2.585a.9.9,0,0,0-.193-.625.773.773,0,0,0-.59-.2.96.96,0,0,0-.57.173,1.173,1.173,0,0,0-.383.455V165.8h-.668v-3.907Z" transform="translate(956.113 1696.579)"/>
    <path id="Trazado_995546" data-name="Trazado 995546" d="M318.35,165.871a1.708,1.708,0,0,1-1.293-.522,1.937,1.937,0,0,1-.5-1.4v-.123a2.349,2.349,0,0,1,.222-1.038,1.733,1.733,0,0,1,.621-.715,1.561,1.561,0,0,1,.865-.258,1.464,1.464,0,0,1,1.184.5,2.173,2.173,0,0,1,.422,1.437v.278h-2.646a1.389,1.389,0,0,0,.337.934,1.063,1.063,0,0,0,.821.356,1.16,1.16,0,0,0,.6-.145,1.5,1.5,0,0,0,.429-.383l.408.318a1.641,1.641,0,0,1-1.473.755m-.083-3.5a.891.891,0,0,0-.679.295,1.43,1.43,0,0,0-.339.824H319.2v-.051a1.271,1.271,0,0,0-.274-.789.839.839,0,0,0-.664-.28" transform="translate(953.678 1696.58)"/>
    <path id="Trazado_995547" data-name="Trazado 995547" d="M325.534,165.8a1.405,1.405,0,0,1-.094-.412,1.487,1.487,0,0,1-1.112.484,1.377,1.377,0,0,1-.948-.327,1.056,1.056,0,0,1-.37-.829,1.1,1.1,0,0,1,.464-.948,2.188,2.188,0,0,1,1.305-.338h.65v-.307a.749.749,0,0,0-.21-.558.84.84,0,0,0-.617-.208.976.976,0,0,0-.6.181.533.533,0,0,0-.242.437h-.672a.921.921,0,0,1,.208-.565,1.418,1.418,0,0,1,.563-.431,1.9,1.9,0,0,1,.782-.159,1.544,1.544,0,0,1,1.057.338,1.219,1.219,0,0,1,.4.93v1.8a2.188,2.188,0,0,0,.137.855v.058Zm-1.109-.509a1.174,1.174,0,0,0,.6-.163.983.983,0,0,0,.408-.422v-.8h-.524q-1.227,0-1.227.718a.608.608,0,0,0,.21.491.807.807,0,0,0,.538.177" transform="translate(951.202 1696.579)"/>
    <path id="Trazado_995548" data-name="Trazado 995548" d="M333.357,161.39a1.419,1.419,0,0,1,1.155-.545q1.239,0,1.249,1.4v2.581h-.668v-2.585a.9.9,0,0,0-.193-.625.776.776,0,0,0-.59-.2.966.966,0,0,0-.571.173,1.174,1.174,0,0,0-.383.455v2.783h-.668v-5.546h.668Z" transform="translate(947.487 1697.556)"/>
    <path id="Trazado_995549" data-name="Trazado 995549" d="M339.012,163.81a2.309,2.309,0,0,1,.226-1.033,1.683,1.683,0,0,1,.628-.707,1.707,1.707,0,0,1,.919-.249,1.647,1.647,0,0,1,1.291.552,2.127,2.127,0,0,1,.493,1.47v.047a2.329,2.329,0,0,1-.219,1.023,1.659,1.659,0,0,1-.625.706,1.73,1.73,0,0,1-.933.253,1.642,1.642,0,0,1-1.287-.553,2.114,2.114,0,0,1-.493-1.462Zm.672.079a1.67,1.67,0,0,0,.3,1.043,1.022,1.022,0,0,0,1.616,0,1.826,1.826,0,0,0,.3-1.118,1.668,1.668,0,0,0-.305-1.041.971.971,0,0,0-.811-.4.959.959,0,0,0-.8.394,1.814,1.814,0,0,0-.3,1.126" transform="translate(945.061 1696.579)"/>
    <path id="Trazado_995550" data-name="Trazado 995550" d="M346.769,161.893l.018.433a1.443,1.443,0,0,1,1.159-.505,1.118,1.118,0,0,1,1.116.628,1.485,1.485,0,0,1,.507-.455,1.5,1.5,0,0,1,.738-.173q1.286,0,1.307,1.361V165.8h-.668v-2.578a.9.9,0,0,0-.191-.626.842.842,0,0,0-.643-.208.885.885,0,0,0-.617.222.9.9,0,0,0-.285.6V165.8h-.672v-2.56a.745.745,0,0,0-.834-.852.893.893,0,0,0-.9.56V165.8h-.668v-3.907Z" transform="translate(942.325 1696.579)"/>
    <path id="Trazado_995551" data-name="Trazado 995551" d="M359.967,162.913a2.324,2.324,0,0,1-.412,1.439,1.315,1.315,0,0,1-1.1.543,1.36,1.36,0,0,1-1.144-.524l-.033.452h-.614v-5.546h.668v2.069a1.353,1.353,0,0,1,1.115-.5,1.324,1.324,0,0,1,1.118.538,2.394,2.394,0,0,1,.406,1.473Zm-.668-.076a1.805,1.805,0,0,0-.264-1.054.872.872,0,0,0-.758-.372.98.98,0,0,0-.95.614v1.69a1.008,1.008,0,0,0,.957.614.866.866,0,0,0,.747-.372,1.918,1.918,0,0,0,.267-1.119" transform="translate(938.286 1697.556)"/>
    <path id="Trazado_995552" data-name="Trazado 995552" d="M365.281,162.493a2.023,2.023,0,0,0-.328-.025.88.88,0,0,0-.892.56V165.8h-.668v-3.907h.649l.011.452a1.039,1.039,0,0,1,.932-.524.688.688,0,0,1,.3.051Z" transform="translate(935.702 1696.579)"/>
    <path id="Trazado_995553" data-name="Trazado 995553" d="M367.049,163.81a2.309,2.309,0,0,1,.225-1.033,1.683,1.683,0,0,1,.629-.707,1.707,1.707,0,0,1,.919-.249,1.647,1.647,0,0,1,1.291.552,2.127,2.127,0,0,1,.493,1.47v.047a2.33,2.33,0,0,1-.219,1.023,1.659,1.659,0,0,1-.625.706,1.73,1.73,0,0,1-.933.253,1.642,1.642,0,0,1-1.287-.553,2.114,2.114,0,0,1-.493-1.462Zm.672.079a1.67,1.67,0,0,0,.3,1.043,1.022,1.022,0,0,0,1.616,0,1.826,1.826,0,0,0,.3-1.118,1.667,1.667,0,0,0-.3-1.041.971.971,0,0,0-.811-.4.959.959,0,0,0-.8.394,1.815,1.815,0,0,0-.3,1.126" transform="translate(934.299 1696.579)"/>
    <path id="Trazado_995554" data-name="Trazado 995554" d="M376.353,164.763a.492.492,0,0,0-.2-.421,1.978,1.978,0,0,0-.711-.258,3.36,3.36,0,0,1-.805-.259,1.148,1.148,0,0,1-.441-.361.865.865,0,0,1-.142-.5,1.011,1.011,0,0,1,.406-.812,1.583,1.583,0,0,1,1.038-.332,1.632,1.632,0,0,1,1.078.343,1.088,1.088,0,0,1,.413.877h-.671a.6.6,0,0,0-.233-.473.876.876,0,0,0-.587-.2.911.911,0,0,0-.57.159.5.5,0,0,0-.206.415.405.405,0,0,0,.191.365,2.386,2.386,0,0,0,.691.235,3.6,3.6,0,0,1,.811.267,1.179,1.179,0,0,1,.46.374.918.918,0,0,1,.15.532,1,1,0,0,1-.419.839,1.755,1.755,0,0,1-1.086.316,1.966,1.966,0,0,1-.831-.166,1.344,1.344,0,0,1-.565-.464,1.117,1.117,0,0,1-.2-.645h.668a.691.691,0,0,0,.269.533,1.044,1.044,0,0,0,.663.2,1.077,1.077,0,0,0,.608-.153.472.472,0,0,0,.229-.41" transform="translate(931.663 1696.579)"/>
    <path id="Trazado_995555" data-name="Trazado 995555" d="M93.919,164.437h2.491V165H93.222v-5.257h.7Z" transform="translate(1039.397 1697.375)"/>
    <path id="Trazado_995556" data-name="Trazado 995556" d="M100.265,159.284h.809l-.968,1.061-.538,0Zm-.007,5.542h-.672v-3.907h.672Z" transform="translate(1036.962 1697.553)"/>
    <path id="Trazado_995557" data-name="Trazado 995557" d="M103.107,161.893l.022.491a1.423,1.423,0,0,1,1.17-.563q1.238,0,1.25,1.4V165.8h-.669v-2.585a.9.9,0,0,0-.193-.625.773.773,0,0,0-.59-.2.96.96,0,0,0-.57.173,1.173,1.173,0,0,0-.383.455V165.8h-.668v-3.907Z" transform="translate(1035.847 1696.579)"/>
    <path id="Trazado_995558" data-name="Trazado 995558" d="M110.613,165.871a1.708,1.708,0,0,1-1.293-.522,1.937,1.937,0,0,1-.5-1.4v-.123a2.349,2.349,0,0,1,.222-1.038,1.733,1.733,0,0,1,.621-.715,1.561,1.561,0,0,1,.865-.258,1.464,1.464,0,0,1,1.184.5,2.173,2.173,0,0,1,.422,1.437v.278H109.49a1.389,1.389,0,0,0,.337.934,1.063,1.063,0,0,0,.821.356,1.16,1.16,0,0,0,.6-.145,1.5,1.5,0,0,0,.429-.383l.408.318a1.641,1.641,0,0,1-1.473.755m-.083-3.5a.891.891,0,0,0-.679.295,1.43,1.43,0,0,0-.339.824h1.956v-.051a1.271,1.271,0,0,0-.274-.789.839.839,0,0,0-.664-.28" transform="translate(1033.41 1696.58)"/>
    <path id="Trazado_995559" data-name="Trazado 995559" d="M117.8,165.8a1.406,1.406,0,0,1-.094-.412,1.487,1.487,0,0,1-1.112.484,1.377,1.377,0,0,1-.948-.327,1.056,1.056,0,0,1-.37-.829,1.1,1.1,0,0,1,.464-.948,2.188,2.188,0,0,1,1.305-.338h.65v-.307a.749.749,0,0,0-.21-.558.84.84,0,0,0-.617-.208.976.976,0,0,0-.6.181.533.533,0,0,0-.242.437h-.672a.921.921,0,0,1,.208-.565,1.417,1.417,0,0,1,.563-.431,1.9,1.9,0,0,1,.782-.159,1.544,1.544,0,0,1,1.057.338,1.219,1.219,0,0,1,.4.93v1.8a2.188,2.188,0,0,0,.137.855v.058Zm-1.109-.509a1.174,1.174,0,0,0,.6-.163.984.984,0,0,0,.408-.422v-.8h-.524q-1.227,0-1.227.718a.608.608,0,0,0,.209.491.807.807,0,0,0,.538.177" transform="translate(1030.935 1696.579)"/>
    <path id="Trazado_995560" data-name="Trazado 995560" d="M125.564,160.4v.946h.73v.516h-.73v2.426a.545.545,0,0,0,.1.352.411.411,0,0,0,.332.117,1.612,1.612,0,0,0,.318-.043v.539a1.964,1.964,0,0,1-.513.071.831.831,0,0,1-.675-.271,1.163,1.163,0,0,1-.227-.769v-2.423h-.711v-.516h.711V160.4Z" transform="translate(1027.514 1697.123)"/>
    <path id="Trazado_995561" data-name="Trazado 995561" d="M128.468,162.834a2.306,2.306,0,0,1,.226-1.032,1.685,1.685,0,0,1,.629-.708,1.711,1.711,0,0,1,.919-.249,1.65,1.65,0,0,1,1.291.552,2.127,2.127,0,0,1,.492,1.47v.047a2.333,2.333,0,0,1-.218,1.024,1.654,1.654,0,0,1-.625.706,1.73,1.73,0,0,1-.933.253,1.644,1.644,0,0,1-1.287-.552,2.113,2.113,0,0,1-.493-1.462Zm.672.08a1.672,1.672,0,0,0,.3,1.044,1.022,1.022,0,0,0,1.616-.006,1.829,1.829,0,0,0,.3-1.118,1.669,1.669,0,0,0-.305-1.041.968.968,0,0,0-.81-.4.959.959,0,0,0-.8.393,1.814,1.814,0,0,0-.3,1.126m1.4-3.635h.808l-.967,1.062-.538,0Z" transform="translate(1025.87 1697.556)"/>
    <path id="Trazado_995562" data-name="Trazado 995562" d="M137.487,162.493a2.024,2.024,0,0,0-.328-.025.88.88,0,0,0-.892.56V165.8H135.6v-3.907h.649l.011.452a1.039,1.039,0,0,1,.932-.524.689.689,0,0,1,.3.051Z" transform="translate(1023.133 1696.579)"/>
    <path id="Trazado_995563" data-name="Trazado 995563" d="M141.767,165.8a1.4,1.4,0,0,1-.094-.412,1.487,1.487,0,0,1-1.112.484,1.377,1.377,0,0,1-.948-.327,1.056,1.056,0,0,1-.37-.829,1.1,1.1,0,0,1,.464-.948,2.188,2.188,0,0,1,1.305-.338h.65v-.307a.749.749,0,0,0-.21-.558.84.84,0,0,0-.617-.208.976.976,0,0,0-.6.181.533.533,0,0,0-.242.437h-.672a.921.921,0,0,1,.208-.565,1.418,1.418,0,0,1,.563-.431,1.9,1.9,0,0,1,.782-.159,1.544,1.544,0,0,1,1.057.338,1.219,1.219,0,0,1,.4.93v1.8a2.187,2.187,0,0,0,.137.855v.058Zm-1.109-.509a1.174,1.174,0,0,0,.6-.163.984.984,0,0,0,.408-.422v-.8h-.524q-1.227,0-1.227.718a.608.608,0,0,0,.21.491.807.807,0,0,0,.538.177" transform="translate(1021.734 1696.579)"/>
    <path id="Trazado_995564" data-name="Trazado 995564" d="M147.04,163.364l.866-1.426h.78l-1.278,1.931,1.317,1.975h-.773l-.9-1.462-.9,1.462h-.776l1.318-1.975-1.279-1.931h.773Z" transform="translate(1019.382 1696.534)"/>
    <path id="Trazado_996520" data-name="Trazado 996520" d="M0,0H280.2V322.623H0Z" transform="translate(1075.178 1758.688)" fill="none"/>
  </g>
</svg>
