<svg xmlns="http://www.w3.org/2000/svg" xmlns:xlink="http://www.w3.org/1999/xlink" width="99.318" height="87.5" viewBox="0 0 99.318 87.5">
  <defs>
    <clipPath id="clip-path">
      <rect id="Rectángulo_454621" data-name="Rectángulo 454621" width="99.318" height="75.49" fill="none"/>
    </clipPath>
  </defs>
  <g id="Grupo_1177304" data-name="Grupo 1177304" transform="translate(-918.416 -429.286)">
    <g id="Grupo_1176835" data-name="Grupo 1176835" transform="translate(15247.75 12357.286)">
      <path id="Rectángulo_454622" data-name="Rectángulo 454622" d="M40.356,0h0A40.356,40.356,0,0,1,80.711,40.356V87.5a0,0,0,0,1,0,0H0a0,0,0,0,1,0,0V40.356A40.356,40.356,0,0,1,40.356,0Z" transform="translate(-14320.784 -11928)" fill="#99b5e8"/>
      <g id="Grupo_1176834" data-name="Grupo 1176834" transform="translate(-14329.334 -11915.99)">
        <rect id="Rectángulo_454607" data-name="Rectángulo 454607" width="89.354" height="14.76" transform="translate(0 60.71)" fill="#ffcc5c"/>
        <rect id="Rectángulo_454608" data-name="Rectángulo 454608" width="1.49" height="4.062" transform="translate(7.378 60.71)" fill="#ff9000"/>
        <rect id="Rectángulo_454609" data-name="Rectángulo 454609" width="1.49" height="4.062" transform="translate(15.501 60.71)" fill="#ff9000"/>
        <rect id="Rectángulo_454610" data-name="Rectángulo 454610" width="1.49" height="4.062" transform="translate(23.624 60.71)" fill="#ff9000"/>
        <rect id="Rectángulo_454611" data-name="Rectángulo 454611" width="1.49" height="4.062" transform="translate(31.747 60.71)" fill="#ff9000"/>
        <rect id="Rectángulo_454612" data-name="Rectángulo 454612" width="1.49" height="4.062" transform="translate(39.87 60.71)" fill="#ff9000"/>
        <rect id="Rectángulo_454613" data-name="Rectángulo 454613" width="1.49" height="4.062" transform="translate(47.993 60.71)" fill="#ff9000"/>
        <rect id="Rectángulo_454614" data-name="Rectángulo 454614" width="1.49" height="4.062" transform="translate(56.117 60.71)" fill="#ff9000"/>
        <rect id="Rectángulo_454615" data-name="Rectángulo 454615" width="1.49" height="4.062" transform="translate(64.24 60.71)" fill="#ff9000"/>
        <rect id="Rectángulo_454616" data-name="Rectángulo 454616" width="1.49" height="4.062" transform="translate(72.363 60.71)" fill="#ff9000"/>
        <rect id="Rectángulo_454617" data-name="Rectángulo 454617" width="1.49" height="4.062" transform="translate(80.486 60.71)" fill="#ff9000"/>
        <rect id="Rectángulo_454618" data-name="Rectángulo 454618" width="51.445" height="71.375" transform="translate(17.708 4.096)" fill="#b7b0c6"/>
        <g id="Grupo_1176833" data-name="Grupo 1176833">
          <g id="Grupo_1176832" data-name="Grupo 1176832" clip-path="url(#clip-path)">
            <path id="Trazado_991974" data-name="Trazado 991974" d="M84.577,84.314H83.8V83.57h.247q.356-1.014.711-2.081l.707.236q-.4,1.2-.8,2.341Zm-3.753,0H77.844V83.57h2.979Zm-5.958,0H71.886V83.57h2.979Zm-5.958,0H65.929V83.57h2.979Zm-5.959,0h-1.03l.2-.511q.457-1.14.915-2.321l.694.269q-.392,1.012-.783,1.994Zm1.84-5.355-.7-.258q.508-1.374,1.01-2.8l.7.247q-.5,1.429-1.014,2.807m21.591-.081-.711-.22q.427-1.386.844-2.848l.716.2q-.418,1.471-.849,2.864m-19.6-5.549-.705-.237q.467-1.392.926-2.826l.71.227q-.462,1.439-.93,2.837m21.24-.2-.72-.187q.368-1.412.718-2.884l.724.172q-.351,1.48-.722,2.9M68.59,67.643l-.713-.215q.426-1.407.841-2.853l.716.205q-.416,1.451-.844,2.863M89.4,67.319l-.729-.156q.307-1.431.591-2.912l.732.14q-.286,1.49-.594,2.928M70.235,61.905l-.719-.195q.384-1.421.754-2.876l.721.183q-.371,1.461-.757,2.888m20.284-.452-.734-.125q.246-1.444.463-2.934l.738.108q-.219,1.5-.466,2.952M71.7,56.118l-.724-.171q.306-1.292.6-2.609l.065-.288.727.158-.065.293q-.3,1.32-.6,2.617m19.68-.578-.739-.09q.066-.542.129-1.09.109-.937.2-1.863l.74.074q-.094.932-.2,1.876-.064.549-.131,1.094M73,50.292l-.729-.151q.3-1.471.58-2.917l.732.14Q73.3,48.816,73,50.292m18.988-.7-.742-.058q.118-1.5.2-2.964l.743.042q-.084,1.471-.2,2.98m-17.87-5.169-.733-.128q.258-1.481.491-2.933l.736.118q-.234,1.458-.494,2.944m18.211-.8-.745-.026q.052-1.509.072-2.97l.745.01q-.02,1.467-.072,2.986m-17.27-5.1-.738-.106q.216-1.491.4-2.946l.739.094q-.189,1.461-.4,2.957m16.6-.868q-.013-1.516-.059-2.97l.745-.023q.045,1.463.059,2.987ZM75.824,32.613l-.74-.085q.171-1.5.314-2.957l.742.073q-.145,1.463-.316,2.968m15.656-.887q-.081-1.522-.19-2.966l.743-.055q.108,1.45.19,2.981ZM76.411,26.645l-.744-.034.058-.733h3.324v.745Zm14.555-.022H87.987v-.745h2.979Zm-5.958,0H82.028v-.745h2.979Z" transform="translate(-36.64 -15.313)" fill="#4c3a71"/>
            <rect id="Rectángulo_454619" data-name="Rectángulo 454619" width="37.185" height="37.185" transform="translate(0 4.096)" fill="#edebf0"/>
            <path id="Trazado_991975" data-name="Trazado 991975" d="M72.9,3.441V4.1H72V3.441a3.133,3.133,0,0,0-6.2,0v9.2a1.935,1.935,0,0,0,3.836,0V3.583a.645.645,0,0,0-.216-.462.817.817,0,0,0-1.028-.007.644.644,0,0,0-.223.477v8.915a.459.459,0,0,1-.9,0V3.59a1.27,1.27,0,0,1,.469-.983,1.89,1.89,0,0,1,2.331,0,1.266,1.266,0,0,1,.469.976V12.64a2.649,2.649,0,0,1-2.823,2.421,3.032,3.032,0,0,1-2-.715,2.246,2.246,0,0,1-.819-1.706v-9.2a4.049,4.049,0,0,1,8.007,0" transform="translate(-38.398)" fill="#714e55"/>
            <path id="Trazado_991976" data-name="Trazado 991976" d="M28.084,24.231l4.8,3.831,3.692-4.2,2.354.646s-2.123,7.754-1.2,12.185,3.921,13.938,3.921,13.938H24.346s4.246-12.554,4.154-14.4-2.216-10.892-2.216-10.892Z" transform="translate(-14.407 -14.12)" fill="#4c3a71"/>
            <path id="Trazado_991977" data-name="Trazado 991977" d="M189.71,89.492s.363,4.525.789,9.965c.58,7.389,1.276,16.465,1.345,18.184.119,2.986.6,7.762.6,7.762a3.755,3.755,0,0,0,3.4.656,78.117,78.117,0,0,0,2.6-14.031l.027-.356c.537-7.343,1.373-22.806,1.373-22.806Z" transform="translate(-112.26 -52.585)" fill="#4c3a71"/>
            <path id="Trazado_991978" data-name="Trazado 991978" d="M189.71,89.492s.363,4.525.789,9.965l7.945,12.571.027-.356c.537-7.343,1.373-22.806,1.373-22.806Z" transform="translate(-112.26 -52.585)" fill="#2d2243"/>
            <path id="Trazado_991979" data-name="Trazado 991979" d="M193.767,87.433s6.537,16.388,10.836,24.089,5.642,9.851,5.642,9.851q.627-.284,1.259-.576.789-.365,1.564-.732c-1.872-8.855-3.486-14.871-4.659-18.841-.421-1.425-1.593-5.318-2.869-10.677-.607-2.553-1.054-4.665-1.34-6.07Z" transform="translate(-114.661 -49.989)" fill="#4c3a71"/>
            <path id="Trazado_991980" data-name="Trazado 991980" d="M188.655,178.362s-5.55,1.417-5.743,2.653h8.736l.127-2.653Z" transform="translate(-108.237 -105.545)" fill="#003650"/>
            <path id="Trazado_991981" data-name="Trazado 991981" d="M227.562,172.856a7.9,7.9,0,0,1-2.527,2.06c-.752.379-1.694.684-1.88,1.438a1.273,1.273,0,0,0,.045.708h2.478l5.673-2.919-.91-2.5Z" transform="translate(-132.031 -101.571)" fill="#003650"/>
            <path id="Trazado_991982" data-name="Trazado 991982" d="M160.1,54.755a27.732,27.732,0,0,1-.824,3c-.623,1.855-1.6,4.073-2.944,5.092a2.657,2.657,0,0,1-1.162.536,7.643,7.643,0,0,1-2.9-.19,25.92,25.92,0,0,1-5.971-2.4l.43-1.743s3.27.519,5.234.688a3.432,3.432,0,0,0,1.435-.022c.285-.348,4.389-7.93,4.389-7.93Z" transform="translate(-86.571 -30.645)" fill="#bee645"/>
            <path id="Trazado_991983" data-name="Trazado 991983" d="M94.177,95.292l-1.739,1.38a2.208,2.208,0,0,0,1.472,3.935l2.218-.1Z" transform="translate(-54.205 -56.389)" fill="#003650"/>
            <rect id="Rectángulo_454620" data-name="Rectángulo 454620" width="3.426" height="12.849" transform="translate(82.247 19.197) rotate(-20.51)" fill="#003650"/>
            <path id="Trazado_991984" data-name="Trazado 991984" d="M107.74,92.936c-.091.011-.182.018-.273.021a3.52,3.52,0,0,1-.583-.021h-.011l-7.013-.819L97.91,86.9l4.753-5.221a.033.033,0,0,1,.007-.008,3.616,3.616,0,0,1,.427-.4c.07-.057.144-.111.219-.162Z" transform="translate(-57.938 -47.996)" fill="#f4dbcd"/>
            <path id="Trazado_991985" data-name="Trazado 991985" d="M213.825,53.767l-4.5-12.036,3.811-1.426a3.213,3.213,0,0,1,4.134,1.884l2.251,6.018a3.213,3.213,0,0,1-1.883,4.135Z" transform="translate(-123.866 -23.729)" fill="#ffa200"/>
            <path id="Trazado_991986" data-name="Trazado 991986" d="M147.241,51.047,110.333,64.854l-.578.216a.851.851,0,0,0-.58-.527l-1.242-.334a.857.857,0,0,1-.488-1.306l1.208-1.793c.07-.057.144-.111.219-.162a3.768,3.768,0,0,1,.816-.425l36.054-13.487Z" transform="translate(-63.493 -27.833)" fill="#ffda94"/>
            <path id="Trazado_991987" data-name="Trazado 991987" d="M154.594,70.7,118.54,84.188a3.788,3.788,0,0,1-.894.215c-.091.01-.182.018-.273.021l-2.088-.56a.857.857,0,0,1-.488-1.306l.719-1.067a.852.852,0,0,0,.091-.779l.578-.216L153.093,66.69Z" transform="translate(-67.844 -39.463)" fill="#ffa200"/>
            <path id="Trazado_991988" data-name="Trazado 991988" d="M149.416,56.862,111.931,70.884a.851.851,0,0,1-.092.779l-.718,1.067a.857.857,0,0,0,.488,1.306l1.242.334a.85.85,0,0,1,.58.527l37.486-14.022Z" transform="translate(-65.668 -33.648)" fill="#ffcc5c"/>
            <path id="Trazado_991989" data-name="Trazado 991989" d="M175.528,38.286s-.836,3.239-3.542,3.538a15.764,15.764,0,0,1-1.387-2c-.056-.106-.111-.208-.164-.3-.519-.965-.837-1.493-.837-1.493l0,0c.08-.1,2.7-3.207,2.756-3.092a6.673,6.673,0,0,0,3.172,3.352" transform="translate(-100.359 -20.67)" fill="#ffb29f"/>
            <path id="Trazado_991990" data-name="Trazado 991990" d="M172.348,36.88a5.885,5.885,0,0,1-1.914,3.785c-.519-.965-.837-1.493-.837-1.493l0,0a24.212,24.212,0,0,1,2.749-2.291" transform="translate(-100.358 -21.815)" fill="#ff876f"/>
            <path id="Trazado_991991" data-name="Trazado 991991" d="M163.569,31.834s4.043-1.044,3.354-3.6-.631-4.409-3.241-3.851-2.847,1.671-2.821,2.579,1.638,5.076,2.708,4.87" transform="translate(-95.188 -14.371)" fill="#ffb29f"/>
            <path id="Trazado_991992" data-name="Trazado 991992" d="M164.258,25.519c.768-.152,2.06-4.442-.48-6.354a4.248,4.248,0,0,0-5.205.244,3.77,3.77,0,0,0-1.026,1.611c-.088,0-1.658.059-1.925.819-.3.844,1.119,2.275,2.212,2.168.981-.1,1.236-1.382,2.107-1.273a2.812,2.812,0,0,1,1.589.979c.2.276.4.489,1.005-.168s.889.881.9,1.2c.237.4.553.831.821.778" transform="translate(-92.065 -10.882)" fill="#003650"/>
            <path id="Trazado_991993" data-name="Trazado 991993" d="M193.077,61.327a24.721,24.721,0,0,1-12.748,3.248,16.377,16.377,0,0,0-1.963-7.655c-1.8-3.231-4.468-5.11-4.772-8.94a9.036,9.036,0,0,1,.07-2.028l3.454-2.373a2.519,2.519,0,0,1,2.793-.055,30.616,30.616,0,0,1,3.028,2.242,33.4,33.4,0,0,1,10.137,15.56" transform="translate(-102.707 -25.522)" fill="#bee645"/>
            <path id="Trazado_991994" data-name="Trazado 991994" d="M184.124,67.174l2.532-5.338-1.044,8.374Z" transform="translate(-108.954 -36.591)" fill="#425018"/>
            <path id="Trazado_991995" data-name="Trazado 991995" d="M158.27,77.93a11.754,11.754,0,0,1-1.048,1.564,15.443,15.443,0,0,1-3.193,2.341c-2.95,1.765-6.591,3.416-6.591,3.416a2.532,2.532,0,0,1-2.336,1.055c-1.027-.033-.754.071-1.483.063a.4.4,0,0,1-.444-.463.911.911,0,0,1,.307-.645,3.608,3.608,0,0,1,1.95-1.09.565.565,0,0,1-.31-.292c-.029-.131.982-.075,1.433-.044,1.23-.436,3.511-2.642,5.168-4.374,1-1.042,1.771-1.912,1.951-2.118a10.649,10.649,0,0,0,.736-2.224,15.017,15.017,0,0,0,3.86,2.811" transform="translate(-84.723 -44.451)" fill="#ffb29f"/>
            <path id="Trazado_991996" data-name="Trazado 991996" d="M175.073,54.253c-1.5,2.918-4.283,8.365-5.1,9.607a11.82,11.82,0,0,1-2.314,3.156,4.484,4.484,0,0,1-3.545-3.068c1-1.042,1.771-1.912,1.952-2.118.483-.549,2.361-8.938,2.361-8.938s.616-3.386,2.51-3.87a3.517,3.517,0,0,1,3.658,1.254,3.558,3.558,0,0,1,.481,3.978" transform="translate(-97.112 -28.938)" fill="#bee645"/>
          </g>
        </g>
      </g>
    </g>
  </g>
</svg>
