<svg xmlns="http://www.w3.org/2000/svg" xmlns:xlink="http://www.w3.org/1999/xlink" width="89.714" height="87.5" viewBox="0 0 89.714 87.5">
  <defs>
    <clipPath id="clip-path">
      <rect id="Rectángulo_454623" data-name="Rectángulo 454623" width="85.013" height="74.786" fill="#4c3a71"/>
    </clipPath>
  </defs>
  <g id="Grupo_1176836" data-name="Grupo 1176836" transform="translate(14320.784 11928)">
    <path id="Rectángulo_454622" data-name="Rectángulo 454622" d="M40.356,0h0A40.356,40.356,0,0,1,80.711,40.356V87.5a0,0,0,0,1,0,0H0a0,0,0,0,1,0,0V40.356A40.356,40.356,0,0,1,40.356,0Z" transform="translate(-14320.784 -11928)" fill="#99b5e8"/>
    <g id="Grupo_1176838" data-name="Grupo 1176838" transform="translate(-14316.084 -11915.286)">
      <g id="Grupo_1176837" data-name="Grupo 1176837" clip-path="url(#clip-path)">
        <path id="Trazado_991997" data-name="Trazado 991997" d="M73.715,58.551a26.887,26.887,0,0,0,.8,2.914c.6,1.8,1.554,3.952,2.857,4.941a2.574,2.574,0,0,0,1.128.521,7.418,7.418,0,0,0,2.814-.185,25.151,25.151,0,0,0,5.793-2.331l-.417-1.691s-3.173.5-5.079.668a3.327,3.327,0,0,1-1.392-.022c-.276-.337-4.259-7.695-4.259-7.695Z" transform="translate(-44.515 -33.618)" fill="#abcf3e"/>
        <line id="Línea_3223" data-name="Línea 3223" x2="1.276" y2="10.098" transform="translate(15.848 33.974)" fill="#fff"/>
        <path id="Trazado_991998" data-name="Trazado 991998" d="M40.732,95.675a.361.361,0,0,1-.358-.316L39.1,85.26a.361.361,0,1,1,.717-.09l1.277,10.1a.361.361,0,0,1-.359.406" transform="translate(-23.608 -51.24)" fill="#ff5a19"/>
        <path id="Trazado_991999" data-name="Trazado 991999" d="M39.338,83.821a1.276,1.276,0,1,1-1.276-1.276,1.277,1.277,0,0,1,1.276,1.276" transform="translate(-22.214 -49.847)" fill="#fff"/>
        <path id="Trazado_992000" data-name="Trazado 992000" d="M37.511,84.908a1.638,1.638,0,1,1,1.638-1.637,1.639,1.639,0,0,1-1.638,1.637m0-2.553a.915.915,0,1,0,.915.915.916.916,0,0,0-.915-.915" transform="translate(-21.663 -49.296)" fill="#ff5a19"/>
        <path id="Trazado_992001" data-name="Trazado 992001" d="M50.21,172.131H5.3a5.3,5.3,0,0,1,0-10.6H50.21a5.3,5.3,0,0,1,0,10.6" transform="translate(0 -97.544)" fill="#4c3a71"/>
        <path id="Trazado_992002" data-name="Trazado 992002" d="M67.079,174.574H23.4a.643.643,0,0,1,0-1.287H67.079a.643.643,0,0,1,0,1.287" transform="translate(-13.745 -104.644)" fill="#2d2243"/>
        <path id="Trazado_992003" data-name="Trazado 992003" d="M50.21,145.369H5.3a5.3,5.3,0,0,1,0-10.6H50.21a5.3,5.3,0,0,1,0,10.6" transform="translate(0 -81.383)" fill="#4c3a71"/>
        <path id="Trazado_992004" data-name="Trazado 992004" d="M67.079,147.812H23.4a.643.643,0,1,1,0-1.287H67.079a.643.643,0,1,1,0,1.287" transform="translate(-13.745 -88.483)" fill="#2d2243"/>
        <path id="Trazado_992005" data-name="Trazado 992005" d="M50.21,118.46H5.3a5.3,5.3,0,0,1,0-10.6H50.21a5.3,5.3,0,0,1,0,10.6" transform="translate(0 -65.133)" fill="#4c3a71"/>
        <path id="Trazado_992006" data-name="Trazado 992006" d="M67.079,120.9H23.4a.643.643,0,1,1,0-1.287H67.079a.643.643,0,1,1,0,1.287" transform="translate(-13.745 -72.233)" fill="#2d2243"/>
        <path id="Trazado_992007" data-name="Trazado 992007" d="M60.6,107.859l6.54,6.961a1.508,1.508,0,0,0,2.04.145l8.884-7.105Z" transform="translate(-36.592 -65.133)" fill="#e5f5b4"/>
        <path id="Trazado_992008" data-name="Trazado 992008" d="M89.047,30.343c-.534,4.441.58,7.75,1.126,10.618.759,3.983,1.762,8.289,2.6,12.285h34.037a114.951,114.951,0,0,0,2.8-18.6q.082-1.214.136-2.4A2.345,2.345,0,0,1,132.078,30q1.626-7.919,3.251-15.837l.007-.024s-3.167-1.319-7.125-2.527c-.02,0-.041-.013-.058-.017-1.36-.415-2.809-.813-4.254-1.143a33.73,33.73,0,0,0-4.387-.728C115.64,9.389,115.436.6,115.436.6s-1.575-.7-5.36-.592A28.332,28.332,0,0,0,105.383.6s0,6.948-3.251,8.394c-1.674.745-4.853,2.105-7.972,3.425l-.313.132-1.027.435c-.449.191-.9.381-1.333.561-.214.092-.429.184-.639.272l-1.031.435-.07.029a5.962,5.962,0,0,0-3.35,7.417,39.475,39.475,0,0,0,3.029,6.426c-.115.516-.265,1.279-.378,2.211" transform="translate(-51.977 0)" fill="#003650"/>
        <path id="Trazado_992009" data-name="Trazado 992009" d="M198.777,43.678c-.747,4.4-.058,7.961,1.541,7.961s3.5-3.564,4.248-7.961.057-7.961-1.541-7.961-3.5,3.564-4.248,7.961" transform="translate(-119.855 -21.569)" fill="#003650"/>
        <path id="Trazado_992010" data-name="Trazado 992010" d="M133.709,90.363,92.9,90.118,95.128,61.54a27.4,27.4,0,0,1-2.5-12.482,26.343,26.343,0,0,1,.74-5.177q.711-7.154,1.422-14.308a9.071,9.071,0,0,1,4.242-2.738,8.83,8.83,0,0,1,3.09-.331c-.641,3.9.723,7.651,3.556,9.618a8.636,8.636,0,0,0,5.13,1.452,17.359,17.359,0,0,0,6.558-1.225c6.618-2.652,9.415-8.67,10.1-10.27q1.514.349,3.141.81,1.363.389,2.616.807c-.269,2.813-.593,7.078-.651,12.283-.02,1.84-.029,5.747.587,14.867,1.075,15.92,2.271,21.345,1.115,31.43-.2,1.758-.42,3.187-.567,4.085" transform="translate(-55.924 -15.748)" fill="#b7b0c6"/>
        <line id="Línea_3224" data-name="Línea 3224" x1="8.999" y2="4.819" transform="translate(73.286 47.1)" fill="#fff"/>
        <path id="Trazado_992011" data-name="Trazado 992011" d="M184.456,123.532a.361.361,0,0,1-.171-.68l9-4.819a.361.361,0,0,1,.342.637l-9,4.819a.354.354,0,0,1-.171.043" transform="translate(-111.17 -71.251)" fill="#4f363b"/>
        <path id="Trazado_992012" data-name="Trazado 992012" d="M206.249,118.017a1.663,1.663,0,1,1,.676-1.944,1.476,1.476,0,0,1-.676,1.944" transform="translate(-123.436 -69.388)" fill="#bee645"/>
        <path id="Trazado_992013" data-name="Trazado 992013" d="M69.7,42.07s.811,3.143,3.437,3.432a15.3,15.3,0,0,0,1.346-1.939c.055-.1.108-.2.159-.3.5-.936.812-1.448.812-1.448l0,0c-.078-.093-2.62-3.112-2.674-3A6.475,6.475,0,0,1,69.7,42.07" transform="translate(-42.088 -23.439)" fill="#ffb29f"/>
        <path id="Trazado_992014" data-name="Trazado 992014" d="M77.484,40.763a5.71,5.71,0,0,0,1.857,3.673c.5-.936.812-1.449.812-1.449l0,0a23.535,23.535,0,0,0-2.667-2.223" transform="translate(-46.791 -24.607)" fill="#ff876f"/>
        <path id="Trazado_992015" data-name="Trazado 992015" d="M80.765,35.618s-4.086-1.045-3.4-3.58.627-4.376,3.266-3.816,2.879,1.665,2.855,2.567-1.644,5.036-2.725,4.829" transform="translate(-46.674 -16.982)" fill="#ffb29f"/>
        <path id="Trazado_992016" data-name="Trazado 992016" d="M75.481,29.191c-.745-.147-2-4.31.465-6.166A4.122,4.122,0,0,1,81,23.263a3.66,3.66,0,0,1,1,1.564c.085,0,1.609.057,1.868.794.288.819-1.085,2.207-2.147,2.1-.952-.093-1.2-1.341-2.044-1.234a2.726,2.726,0,0,0-1.541.949c-.2.268-.387.475-.975-.163s-.862.854-.875,1.161c-.23.388-.536.806-.8.755" transform="translate(-44.984 -13.45)" fill="#003650"/>
        <path id="Trazado_992017" data-name="Trazado 992017" d="M49.121,93.357s-.352,4.391-.766,9.668c-.562,7.169-1.238,15.976-1.3,17.644-.116,2.9-.58,7.531-.58,7.531a3.643,3.643,0,0,1-3.3.637,75.817,75.817,0,0,1-2.523-13.614c-.009-.114-.017-.23-.026-.346-.521-7.125-1.332-22.129-1.332-22.129Z" transform="translate(-23.725 -56.009)" fill="#006a99"/>
        <path id="Trazado_992018" data-name="Trazado 992018" d="M49.121,93.357s-.352,4.391-.766,9.668l-7.709,12.2c-.009-.114-.017-.23-.026-.346-.521-7.125-1.332-22.129-1.332-22.129Z" transform="translate(-23.725 -56.009)" fill="#003650"/>
        <path id="Trazado_992019" data-name="Trazado 992019" d="M31.706,91.23s-6.343,15.9-10.514,23.374-5.474,9.558-5.474,9.558-2.389-.956-2.607-1.607c1.729-8.378,3.266-14.14,4.388-17.943.423-1.433,1.552-5.183,2.784-10.359.589-2.477,1.023-4.527,1.3-5.889Z" transform="translate(-7.917 -53.36)" fill="#006a99"/>
        <path id="Trazado_992020" data-name="Trazado 992020" d="M52.226,182.246s5.385,1.375,5.572,2.574H49.322l-.124-2.574Z" transform="translate(-29.709 -110.054)" fill="#003650"/>
        <path id="Trazado_992021" data-name="Trazado 992021" d="M14.221,176.7a7.662,7.662,0,0,0,2.452,2c.73.368,1.644.664,1.825,1.4a1.235,1.235,0,0,1-.043.687h-2.4l-5.5-2.832.883-2.422Z" transform="translate(-6.368 -105.999)" fill="#003650"/>
        <path id="Trazado_992022" data-name="Trazado 992022" d="M32.464,64.67a23.983,23.983,0,0,0,12.369,3.152,15.885,15.885,0,0,1,1.9-7.427c1.743-3.135,4.336-4.958,4.63-8.674a8.792,8.792,0,0,0-.068-1.968l-3.352-2.3a2.444,2.444,0,0,0-2.71-.053A29.7,29.7,0,0,0,42.3,49.573a32.4,32.4,0,0,0-9.836,15.1" transform="translate(-19.604 -28.39)" fill="#bee645"/>
        <path id="Trazado_992023" data-name="Trazado 992023" d="M73.671,81.73a11.355,11.355,0,0,0,1.017,1.518,14.969,14.969,0,0,0,3.1,2.271c2.862,1.713,6.4,3.315,6.4,3.315a2.457,2.457,0,0,0,2.266,1.024c1-.032.731.069,1.439.061a.388.388,0,0,0,.431-.449.884.884,0,0,0-.3-.626,3.5,3.5,0,0,0-1.891-1.057.547.547,0,0,0,.3-.283c.028-.127-.953-.073-1.39-.043-1.194-.423-3.407-2.564-5.014-4.244-.969-1.011-1.719-1.855-1.894-2.056A10.317,10.317,0,0,1,77.416,79a14.57,14.57,0,0,1-3.745,2.727" transform="translate(-44.488 -47.708)" fill="#ffb29f"/>
        <path id="Trazado_992024" data-name="Trazado 992024" d="M62.271,57.978c1.457,2.831,4.156,8.117,4.951,9.322a11.473,11.473,0,0,0,2.245,3.062,4.351,4.351,0,0,0,3.44-2.977c-.969-1.011-1.719-1.855-1.894-2.055-.468-.532-2.29-8.672-2.29-8.672s-.6-3.285-2.435-3.755a3.412,3.412,0,0,0-3.549,1.217,3.452,3.452,0,0,0-.467,3.859" transform="translate(-37.371 -31.877)" fill="#bee645"/>
        <path id="Trazado_992025" data-name="Trazado 992025" d="M66.285,71.857l-2.176-4.649.625,7.962Z" transform="translate(-38.714 -40.585)" fill="#425018"/>
        <path id="Trazado_992026" data-name="Trazado 992026" d="M187.608,89.138l-.717-.087c.1-.817.212-1.787.326-2.87l.718.076c-.114,1.088-.227,2.061-.327,2.881m.608-5.768-.72-.064c.081-.918.158-1.882.228-2.877l.721.051c-.07,1-.148,1.968-.229,2.89m.4-5.785-.721-.035c.045-.953.082-1.917.105-2.882l.723.017c-.023.971-.06,1.942-.107,2.9m-.591-5.8q0-.572-.017-1.139-.02-.9-.05-1.739l.723-.026q.03.844.05,1.75c.008.38.014.765.017,1.149Zm-.206-5.754c-.063-1.023-.135-1.974-.217-2.868l.72-.065c.081.9.155,1.859.218,2.889Zm-.516-5.728c-.12-1-.246-1.944-.37-2.856l.716-.1c.126.917.252,1.861.372,2.869Zm-.764-5.718c-.124-.938-.24-1.884-.341-2.876l.719-.074c.1.985.216,1.925.339,2.856Zm-.576-5.768c-.058-.953-.1-1.9-.115-2.9l.723-.013c.02.989.057,1.927.114,2.87Zm.237-5.795-.361-.006.014-.81q.021-1.067.064-2.089l.723.03c-.028.674-.05,1.367-.063,2.073l-.013.757Zm.6-5.751-.721-.05c.069-1.013.149-1.979.235-2.891l.72.068q-.129,1.359-.233,2.872m.545-5.737-.717-.088c.131-1.071.266-2.032.393-2.873l.714.107c-.126.835-.259,1.791-.39,2.854" transform="translate(-112.225 -17.255)" fill="#4c3a71"/>
      </g>
    </g>
  </g>
</svg>
