<svg xmlns="http://www.w3.org/2000/svg" xmlns:xlink="http://www.w3.org/1999/xlink" width="1328" height="559" viewBox="0 0 1328 559">
  <defs>
    <clipPath id="clip-path">
      <rect id="Rectángulo_454536" data-name="Rectángulo 454536" width="1328" height="559" rx="20" transform="translate(1464.5 659) rotate(180)" fill="#0048c5"/>
    </clipPath>
    <clipPath id="clip-path-2">
      <rect id="Rectángulo_454624" data-name="Rectángulo 454624" width="124.833" height="214.686" fill="#99b5e8" stroke="#99b5e8" stroke-width="1"/>
    </clipPath>
  </defs>
  <g id="Grupo_1177304" data-name="Grupo 1177304" transform="translate(-136.5 -100)">
    <rect id="Rectángulo_401156" data-name="Rectángulo 401156" width="1328" height="559" rx="20" transform="translate(1464.5 659) rotate(180)" fill="#0048c5"/>
    <g id="Enmascarar_grupo_1119118" data-name="Enmascarar grupo 1119118" clip-path="url(#clip-path)">
      <g id="Grupo_1176796" data-name="Grupo 1176796" opacity="0.5">
        <path id="Trazado_991694" data-name="Trazado 991694" d="M417.447,0,0,417.447V834.891L417.447,417.447,834.891,834.891V417.447Z" transform="translate(1712.283 7.108) rotate(90)" fill="#002b76"/>
        <path id="Trazado_991695" data-name="Trazado 991695" d="M0,417.447V834.891L417.447,417.445,834.891,834.891V417.447L417.447,0Z" transform="translate(877.392 7.106) rotate(90)" fill="#002b76"/>
      </g>
      <g id="Grupo_1176797" data-name="Grupo 1176797" transform="translate(703.999)" opacity="0.43">
        <path id="Trazado_991695-2" data-name="Trazado 991695" d="M0,255.447V510.892L255.447,255.445,510.892,510.892V255.447L255.447,0Z" transform="translate(-240.608 345.106) rotate(90)" fill="#002b76"/>
      </g>
      <g id="Grupo_1176795" data-name="Grupo 1176795">
        <path id="Trazado_991692" data-name="Trazado 991692" d="M201.5,0,0,201.5H87.4L288.9,0Z" transform="translate(992.815 100)" fill="#002b76"/>
        <path id="Trazado_991693" data-name="Trazado 991693" d="M144.346,0,0,144.346H62.608L206.954,0Z" transform="translate(871.546 191.327)" fill="#002b76"/>
        <path id="Trazado_991696" data-name="Trazado 991696" d="M144.346,0,0,144.346H62.608L206.954,0Z" transform="translate(1226.548 40.212)" fill="#002b76"/>
        <path id="Trazado_991697" data-name="Trazado 991697" d="M46.815,0,0,46.816H20.305L67.121,0Z" transform="translate(1163.333 191.327)" fill="#ffa200"/>
        <path id="Trazado_991688" data-name="Trazado 991688" d="M172.017,638.158H0V444.513a86.008,86.008,0,1,1,172.017,0ZM.973,637.185H171.044V444.513a85.036,85.036,0,1,0-170.071,0Z" transform="translate(558.983 136.342)" stroke="#bee645" stroke-width="5"/>
        <path id="Trazado_991698" data-name="Trazado 991698" d="M77.009,483.7H0V397.009a38.5,38.5,0,1,1,77.009,0ZM.435,483.265H76.573V397.009a38.069,38.069,0,1,0-76.138,0Z" transform="translate(385.499 521.2) rotate(180)" stroke="#bee645" stroke-width="5"/>
        <g id="Elipse_13614" data-name="Elipse 13614" transform="translate(1208.833 450)" fill="none" stroke="#bee645" stroke-width="41">
          <circle cx="135.5" cy="135.5" r="135.5" stroke="none"/>
          <circle cx="135.5" cy="135.5" r="115" fill="none"/>
        </g>
        <g id="Grupo_1176793" data-name="Grupo 1176793" transform="translate(-146.5 795.606) rotate(-90)">
          <path id="Trazado_991694-2" data-name="Trazado 991694" d="M26.333,0,0,26.333V52.666L26.333,26.333,52.666,52.666V26.333Z" transform="translate(628.833 307.001)" fill="#bee644"/>
          <path id="Trazado_991695-3" data-name="Trazado 991695" d="M0,368.924v26.333l26.333-26.333,26.333,26.333V368.924L26.333,342.591Z" transform="translate(628.833 17.076)" fill="#bee644"/>
        </g>
        <g id="Grupo_1176794" data-name="Grupo 1176794" transform="translate(1424.835 123.166) rotate(90)">
          <path id="Trazado_991699" data-name="Trazado 991699" d="M7.857,0V7.857H0v3.548H7.857v7.857H11.4V11.405h7.857V7.857H11.4V0Z" fill="#bee644"/>
          <path id="Trazado_991700" data-name="Trazado 991700" d="M220.226,0V7.857h-7.857v3.548h7.857v7.857h3.548V11.405h7.857V7.857h-7.857V0Z" transform="translate(-176.216)" fill="#bee644"/>
          <path id="Trazado_991701" data-name="Trazado 991701" d="M432.6,0V7.857H424.74v3.548H432.6v7.857h3.548V11.405H444V7.857h-7.857V0Z" transform="translate(-352.432)" fill="#bee644"/>
        </g>
        <path id="Unión_21" data-name="Unión 21" d="M88.053,102.01,102.01,90.1v5.1l-7.977,6.808Zm-15.935,0L102.009,76.5v5.1L78.1,102.01Zm-15.935,0L102.009,62.9V68L62.163,102.01Zm-15.935,0L102.01,49.3v5.1L46.227,102.01Zm-16.355,0L102.01,35.338V40.8L30.293,102.01Zm-15.934,0L102.01,21.739v5.1L13.938,102.01ZM0,95.2,102.009,8.138v5.1L0,100.3ZM0,81.6,95.61,0h5.98L0,86.7ZM0,68,79.675,0h5.98L0,73.1ZM0,54.4,63.739,0h5.98L0,59.5ZM0,40.8,47.8,0h5.979L0,45.9ZM0,27.2,31.869,0h5.98L0,32.3ZM0,13.6,15.935,0h5.979L0,18.7ZM0,0H5.98L0,5.1Z" transform="translate(1331.491 405.818)" fill="#4c3a71"/>
        <path id="Unión_24" data-name="Unión 24" d="M88.053,102.01,102.01,90.1v5.1l-7.977,6.808Zm-15.935,0L102.009,76.5v5.1L78.1,102.01Zm-15.935,0L102.009,62.9V68L62.163,102.01Zm-15.935,0L102.01,49.3v5.1L46.227,102.01Zm-16.355,0L102.01,35.338V40.8L30.293,102.01Zm-15.934,0L102.01,21.739v5.1L13.938,102.01ZM0,95.2,102.009,8.138v5.1L0,100.3ZM0,81.6,95.61,0h5.98L0,86.7ZM0,68,79.675,0h5.98L0,73.1ZM0,54.4,63.739,0h5.98L0,59.5ZM0,40.8,47.8,0h5.979L0,45.9ZM0,27.2,31.869,0h5.98L0,32.3ZM0,13.6,15.935,0h5.979L0,18.7ZM0,0H5.98L0,5.1Z" transform="translate(111.157 583.668)" fill="#002b76"/>
        <g id="Elipse_13615" data-name="Elipse 13615" transform="translate(172.833 577)" fill="none" stroke="#bee645" stroke-width="3">
          <circle cx="12.5" cy="12.5" r="12.5" stroke="none"/>
          <circle cx="12.5" cy="12.5" r="11" fill="none"/>
        </g>
        <path id="Unión_22" data-name="Unión 22" d="M216.1,1.327,217.6,0l28.969,32.706-1.5,1.326Zm-19.646,0L197.952,0l28.969,32.706-1.5,1.326Zm-19.645,0L178.307,0l28.969,32.706-1.5,1.326Zm-19.645,0L158.662,0l28.969,32.706-1.5,1.326Zm-19.646,0L139.016,0l28.969,32.706-1.5,1.326Zm-19.645,0L119.371,0,148.34,32.706l-1.5,1.326Zm-19.645,0L99.725,0l28.967,32.706-1.5,1.326Zm-19.646,0L80.079,0l28.968,32.706-1.5,1.326Zm-19.645,0L60.434,0,89.4,32.706l-1.5,1.326Zm-19.645,0L40.789,0,69.756,32.706l-1.5,1.326Zm-19.646,0L21.143,0,50.111,32.706l-1.5,1.326ZM0,1.327,1.5,0,30.466,32.706l-1.5,1.326Z" transform="translate(765.913 125.469)" fill="#99b5e8" stroke="rgba(0,0,0,0)" stroke-miterlimit="10" stroke-width="1"/>
      </g>
      <g id="Grupo_1176839" data-name="Grupo 1176839" transform="translate(517.333 202.803)" opacity="0.52">
        <g id="Grupo_1176841" data-name="Grupo 1176841">
          <path id="Trazado_992030" data-name="Trazado 992030" d="M32.7,21.4l.137-3.85.438-12.137a2.789,2.789,0,1,0-1.883,0l.438,12.137.14,3.85.364,0,.367,0M17.1,37.691H47.561a1.4,1.4,0,0,1,1.4,1.4v5.347a1.4,1.4,0,0,1-1.4,1.4H17.1a1.4,1.4,0,0,1-1.393-1.4V39.087a1.4,1.4,0,0,1,1.393-1.4M32.332,22.927A15.057,15.057,0,0,1,47.277,36.164H17.388A15.057,15.057,0,0,1,32.332,22.927M26.941,22.3l-1.554-2.928L19.7,8.637a2.793,2.793,0,1,0-1.634.941L24.514,19.87l1.694,2.7c.241-.1.487-.186.733-.274m11.518.274,1.691-2.7L46.6,9.578a2.79,2.79,0,1,0-1.631-.941l-5.689,10.73L37.723,22.3c.249.088.493.178.736.274" transform="translate(16.721 -41.083)" fill="#002b76" fill-rule="evenodd"/>
          <path id="Trazado_992031" data-name="Trazado 992031" d="M32.7,21.4l.137-3.85.438-12.137a2.789,2.789,0,1,0-1.883,0l.438,12.137.14,3.85.364,0,.367,0M17.1,37.691H47.561a1.4,1.4,0,0,1,1.4,1.4v5.347a1.4,1.4,0,0,1-1.4,1.4H17.1a1.4,1.4,0,0,1-1.393-1.4V39.087a1.4,1.4,0,0,1,1.393-1.4M32.332,22.927A15.057,15.057,0,0,1,47.277,36.164H17.388A15.057,15.057,0,0,1,32.332,22.927M26.941,22.3l-1.554-2.928L19.7,8.637a2.793,2.793,0,1,0-1.634.941L24.514,19.87l1.694,2.7c.241-.1.487-.186.733-.274m11.518.274,1.691-2.7L46.6,9.578a2.79,2.79,0,1,0-1.631-.941l-5.689,10.73L37.723,22.3c.249.088.493.178.736.274" transform="translate(-32.279 326.917)" fill="#002b76" fill-rule="evenodd"/>
          <path id="Trazado_992032" data-name="Trazado 992032" d="M32.7,21.4l.137-3.85.438-12.137a2.789,2.789,0,1,0-1.883,0l.438,12.137.14,3.85.364,0,.367,0M17.1,37.691H47.561a1.4,1.4,0,0,1,1.4,1.4v5.347a1.4,1.4,0,0,1-1.4,1.4H17.1a1.4,1.4,0,0,1-1.393-1.4V39.087a1.4,1.4,0,0,1,1.393-1.4M32.332,22.927A15.057,15.057,0,0,1,47.277,36.164H17.388A15.057,15.057,0,0,1,32.332,22.927M26.941,22.3l-1.554-2.928L19.7,8.637a2.793,2.793,0,1,0-1.634.941L24.514,19.87l1.694,2.7c.241-.1.487-.186.733-.274m11.518.274,1.691-2.7L46.6,9.578a2.79,2.79,0,1,0-1.631-.941l-5.689,10.73L37.723,22.3c.249.088.493.178.736.274" transform="translate(431.721 395.917)" fill="#002b76" fill-rule="evenodd"/>
          <path id="Trazado_992034" data-name="Trazado 992034" d="M32.7,21.4l.137-3.85.438-12.137a2.789,2.789,0,1,0-1.883,0l.438,12.137.14,3.85.364,0,.367,0M17.1,37.691H47.561a1.4,1.4,0,0,1,1.4,1.4v5.347a1.4,1.4,0,0,1-1.4,1.4H17.1a1.4,1.4,0,0,1-1.393-1.4V39.087a1.4,1.4,0,0,1,1.393-1.4M32.332,22.927A15.057,15.057,0,0,1,47.277,36.164H17.388A15.057,15.057,0,0,1,32.332,22.927M26.941,22.3l-1.554-2.928L19.7,8.637a2.793,2.793,0,1,0-1.634.941L24.514,19.87l1.694,2.7c.241-.1.487-.186.733-.274m11.518.274,1.691-2.7L46.6,9.578a2.79,2.79,0,1,0-1.631-.941l-5.689,10.73L37.723,22.3c.249.088.493.178.736.274" transform="translate(830.888 -32.998)" fill="#002b76" fill-rule="evenodd"/>
          <path id="Trazado_992033" data-name="Trazado 992033" d="M32.7,21.4l.137-3.85.438-12.137a2.789,2.789,0,1,0-1.883,0l.438,12.137.14,3.85.364,0,.367,0M17.1,37.691H47.561a1.4,1.4,0,0,1,1.4,1.4v5.347a1.4,1.4,0,0,1-1.4,1.4H17.1a1.4,1.4,0,0,1-1.393-1.4V39.087a1.4,1.4,0,0,1,1.393-1.4M32.332,22.927A15.057,15.057,0,0,1,47.277,36.164H17.388A15.057,15.057,0,0,1,32.332,22.927M26.941,22.3l-1.554-2.928L19.7,8.637a2.793,2.793,0,1,0-1.634.941L24.514,19.87l1.694,2.7c.241-.1.487-.186.733-.274m11.518.274,1.691-2.7L46.6,9.578a2.79,2.79,0,1,0-1.631-.941l-5.689,10.73L37.723,22.3c.249.088.493.178.736.274" transform="translate(-368.279 234.917)" fill="#002b76" fill-rule="evenodd"/>
        </g>
      </g>
    </g>
    <g id="Grupo_1176847" data-name="Grupo 1176847" transform="translate(856 179.134)">
      <g id="Grupo_1176846" data-name="Grupo 1176846" clip-path="url(#clip-path-2)">
        <path id="Trazado_992055" data-name="Trazado 992055" d="M11.936,150.242l-1.5-1.938,4.939-3.833,1.5,1.937Zm9.873-7.669L20.3,140.638c1.218-.949,2.3-1.793,3.06-2.39.564-.443,1.131-.937,1.686-1.466l1.694,1.774c-.611.584-1.238,1.129-1.864,1.621-.762.6-1.847,1.446-3.068,2.4m9.131-8.917-1.993-1.43a48.935,48.935,0,0,0,3.208-5.163l2.156,1.169a51.466,51.466,0,0,1-3.371,5.423m6.127-11.141-2.254-.967c.779-1.815,1.521-3.745,2.207-5.735l2.319.8c-.706,2.047-1.47,4.033-2.273,5.9m4.139-11.933-2.364-.653c.538-1.946,1.034-3.961,1.474-5.989l2.4.52c-.45,2.073-.957,4.132-1.507,6.122m2.679-12.311-2.421-.393c.328-2.026.607-4.084.829-6.119l2.438.266c-.226,2.077-.511,4.178-.846,6.245m1.361-12.527L42.8,85.61c.106-1.945.16-3.89.16-5.781v-.38l2.452-.01v.39c0,1.935-.055,3.925-.164,5.915M42.735,73.3c-.084-1.213-.194-2.419-.328-3.585L42.043,67.2l2.427-.352.37,2.553q.213,1.858.342,3.73ZM41.149,61.028l-.894-6.17,2.427-.352.894,6.17Zm-1.787-12.34-.894-6.17,2.427-.352.894,6.17Z" transform="translate(-4.876 -19.707)" fill="#99b5e8" stroke="#99b5e8" stroke-width="1"/>
        <path id="Trazado_992056" data-name="Trazado 992056" d="M154.813,214.216H152.36v-.634h2.453Zm0-6.868H152.36v-6.234h2.453Zm0-12.468H152.36v-6.234h2.453Zm0-12.469H152.36v-6.234h2.453Zm0-12.468H152.36v-6.234h2.453Zm0-12.469H152.36V151.24h2.453Zm0-12.468H152.36v-6.234h2.453Zm0-12.468H152.36V126.3h2.453Zm0-12.469H152.36v-6.234h2.453Zm0-12.468H152.36v-6.234h2.453Zm0-12.469H152.36V88.9h2.453Zm0-12.468H152.36V76.428h2.453Zm0-12.468H152.36V63.96h2.453Zm0-12.469H152.36V51.492h2.453Zm0-12.468H152.36V39.023h2.453Zm0-12.469H152.36V26.555h2.453Zm0-12.468H152.36V14.086h2.453Zm0-12.468H152.36V1.618h2.453Z" transform="translate(-71.205 -0.756)" fill="#99b5e8" stroke="#99b5e8" stroke-width="1"/>
        <path id="Trazado_992057" data-name="Trazado 992057" d="M156.529,400.9H150.3v-2.453h6.234Zm-12.469,0h-6.234v-2.453h6.234Zm-12.469,0h-6.234v-2.453h6.234Zm-12.468,0h-6.234v-2.453h6.234Zm-12.468,0h-6.234v-2.453h6.234Zm-12.468,0H87.952v-2.453h6.235Zm-12.469,0H75.484v-2.453h6.234Z" transform="translate(-35.277 -186.215)" fill="#99b5e8" stroke="#99b5e8" stroke-width="1"/>
        <path id="Trazado_992058" data-name="Trazado 992058" d="M124.833,214.073H39.794L0,116.3l.28-.287A78.934,78.934,0,0,0,22.242,51.752L19.449,27.259,82.831,0l3.162,15.614A52.844,52.844,0,0,0,124.378,56.42l.455.121Zm-84.214-1.227h82.987V57.481A54.379,54.379,0,0,1,84.792,15.858L81.93,1.723,20.77,28.026l2.69,23.587A80.149,80.149,0,0,1,1.438,116.581Z" fill="#99b5e8" stroke="#99b5e8" stroke-width="1"/>
      </g>
    </g>
    <path id="Trazado_991716" data-name="Trazado 991716" d="M279.34,0,0,279.34H121.16L400.5,0Z" transform="translate(944 271.912)" fill="none" stroke="#bee645" stroke-width="3"/>
    <path id="Trazado_991689" data-name="Trazado 991689" d="M90.667,266.625l-5.74-5.74L72.874,272.939,60.82,260.885l-5.74,5.74,12.054,12.053L55.08,290.732l5.74,5.74,12.054-12.054,12.053,12.054,5.74-5.74L78.614,278.678Z" transform="translate(444.46 336.536)" fill="#ffa200"/>
  </g>
</svg>
