<svg xmlns="http://www.w3.org/2000/svg" xmlns:xlink="http://www.w3.org/1999/xlink" width="527.029" height="562" viewBox="0 0 527.029 562">
  <defs>
    <clipPath id="clip-path">
      <rect id="Rectángulo_454740" data-name="Rectángulo 454740" width="527.029" height="562" fill="none"/>
    </clipPath>
  </defs>
  <g id="Grupo_1177307" data-name="Grupo 1177307" transform="translate(-223.711 -3687)">
    <g id="Grupo_1177139" data-name="Grupo 1177139" transform="translate(223.711 3687)">
      <g id="Grupo_1177138" data-name="Grupo 1177138" clip-path="url(#clip-path)">
        <text id="A" transform="translate(18.219 9.094)" font-size="11" font-family="Roboto-Bold, Roboto" font-weight="700"><tspan x="0" y="0">A</tspan></text>
        <text id="U" transform="translate(92.227 9.094)" font-size="11" font-family="Roboto-Bold, Roboto" font-weight="700"><tspan x="0" y="0">U</tspan></text>
        <text id="Z" transform="translate(206.752 9.094)" font-size="10" font-family="Roboto-Bold, Roboto" font-weight="700"><tspan x="0" y="0">Z</tspan></text>
      </g>
    </g>
    <path id="Trazado_996514" data-name="Trazado 996514" d="M2.406-1.294H6.349V0H.392V-.945l3.867-5.57H.4V-7.82H6.263V-6.9ZM10.968,0H9.416V-5.983l-1.853.575V-6.671L10.8-7.831h.167Z" transform="translate(442.217 3760.058)"/>
    <g id="Grupo_1177141" data-name="Grupo 1177141" transform="translate(223.711 3687)">
      <g id="Grupo_1177140" data-name="Grupo 1177140" clip-path="url(#clip-path)">
        <text id="F" transform="translate(258.183 9.094)" font-size="11" font-family="Roboto-Bold, Roboto" font-weight="700"><tspan x="0" y="0">F</tspan></text>
        <text id="G" transform="translate(304.166 9.094)" font-size="11" font-family="Roboto-Bold, Roboto" font-weight="700"><tspan x="0" y="0">G</tspan></text>
      </g>
    </g>
    <path id="Trazado_996515" data-name="Trazado 996515" d="M6.886-.988a2.8,2.8,0,0,1-1.23.808A5.151,5.151,0,0,1,3.894.107,3.49,3.49,0,0,1,2.114-.336,2.956,2.956,0,0,1,.932-1.622,4.527,4.527,0,0,1,.5-3.6v-.532A4.808,4.808,0,0,1,.9-6.163,2.92,2.92,0,0,1,2.038-7.474a3.28,3.28,0,0,1,1.743-.454,3.266,3.266,0,0,1,2.175.663,2.835,2.835,0,0,1,.929,1.931H5.317a1.559,1.559,0,0,0-.475-.983A1.518,1.518,0,0,0,3.83-6.628a1.429,1.429,0,0,0-1.251.618,3.248,3.248,0,0,0-.435,1.837v.5A3.092,3.092,0,0,0,2.61-1.815a1.6,1.6,0,0,0,1.37.628,1.787,1.787,0,0,0,1.294-.387V-2.922H3.808V-4.109H6.886ZM11.795,0H10.243V-5.983L8.39-5.409V-6.671l3.239-1.16h.167Z" transform="translate(507.742 3739.394)"/>
    <g id="Grupo_1177143" data-name="Grupo 1177143" transform="translate(223.711 3687)">
      <g id="Grupo_1177142" data-name="Grupo 1177142" clip-path="url(#clip-path)">
        <text id="P" transform="translate(423.639 9.094)" font-size="11" font-family="Roboto-Bold, Roboto" font-weight="700"><tspan x="0" y="0">P</tspan></text>
      </g>
    </g>
    <path id="Trazado_996516" data-name="Trazado 996516" d="M7.058,0H5.446L2.31-5.146V0H.7V-7.82H2.31L5.452-2.664V-7.82H7.058Z" transform="translate(645.445 3743.646)"/>
    <path id="Trazado_996517" data-name="Trazado 996517" d="M2.31-2.755V0H.7V-7.82H3.749A3.53,3.53,0,0,1,5.3-7.5a2.375,2.375,0,0,1,1.029.916,2.553,2.553,0,0,1,.36,1.351A2.245,2.245,0,0,1,5.9-3.419a3.277,3.277,0,0,1-2.178.663Zm0-1.305H3.749a1.415,1.415,0,0,0,.975-.3,1.094,1.094,0,0,0,.336-.859,1.29,1.29,0,0,0-.338-.929,1.264,1.264,0,0,0-.935-.365H2.31ZM11.4,0H9.845V-5.983l-1.853.575V-6.671l3.239-1.16H11.4Z" transform="translate(623.128 3700.396)"/>
    <g id="Grupo_1177145" data-name="Grupo 1177145" transform="translate(223.711 3687)">
      <g id="Grupo_1177144" data-name="Grupo 1177144" clip-path="url(#clip-path)">
        <text id="U1" transform="translate(0 88.689)" font-size="10" font-family="Roboto-Bold, Roboto" font-weight="700"><tspan x="0" y="0">U1</tspan></text>
        <text id="U3" transform="translate(0 105.575)" font-size="10" font-family="Roboto-Bold, Roboto" font-weight="700"><tspan x="0" y="0">U3</tspan></text>
      </g>
    </g>
    <path id="Trazado_996518" data-name="Trazado 996518" d="M2.8-7.82,4.813-2.148l2-5.672H8.927V0H7.31V-2.138l.161-3.69L5.36,0H4.254L2.148-5.822,2.31-2.138V0H.7V-7.82Z" transform="translate(225.78 3839.264)"/>
    <path id="Trazado_996519" data-name="Trazado 996519" d="M.7,0V-7.82H3.438A3.6,3.6,0,0,1,5.6-7.275a1.864,1.864,0,0,1,.736,1.6,1.767,1.767,0,0,1-.3,1.012,1.706,1.706,0,0,1-.822.642,1.651,1.651,0,0,1,.948.607A1.794,1.794,0,0,1,6.51-2.3,2.064,2.064,0,0,1,5.79-.591,3.24,3.24,0,0,1,3.738,0ZM2.31-3.405v2.111H3.69a1.332,1.332,0,0,0,.889-.271.93.93,0,0,0,.32-.749.982.982,0,0,0-1.112-1.09Zm0-1.139H3.5q1.219-.021,1.219-.972a.9.9,0,0,0-.309-.765,1.624,1.624,0,0,0-.975-.234H2.31Z" transform="translate(228.281 4056.87)"/>
    <path id="Trazado_996520" data-name="Trazado 996520" d="M2.412,0H.8V-7.82H2.412Z" transform="translate(229.955 3890.479)"/>
    <path id="Trazado_996521" data-name="Trazado 996521" d="M2.412,0H.8V-7.82H2.412Zm5.1,0H5.957V-5.983L4.1-5.409V-6.671l3.239-1.16h.167Z" transform="translate(425.42 3906.457)"/>
    <path id="Trazado_996522" data-name="Trazado 996522" d="M.7,0V-7.82H3.438A3.6,3.6,0,0,1,5.6-7.275a1.864,1.864,0,0,1,.736,1.6,1.767,1.767,0,0,1-.3,1.012,1.706,1.706,0,0,1-.822.642,1.651,1.651,0,0,1,.948.607A1.794,1.794,0,0,1,6.51-2.3,2.064,2.064,0,0,1,5.79-.591,3.24,3.24,0,0,1,3.738,0ZM2.31-3.405v2.111H3.69a1.332,1.332,0,0,0,.889-.271.93.93,0,0,0,.32-.749.982.982,0,0,0-1.112-1.09Zm0-1.139H3.5q1.219-.021,1.219-.972a.9.9,0,0,0-.309-.765,1.624,1.624,0,0,0-.975-.234H2.31ZM11.322,0H9.77V-5.983l-1.853.575V-6.671l3.239-1.16h.167Z" transform="translate(224.839 4223.599)"/>
    <path id="Trazado_996523" data-name="Trazado 996523" d="M.7,0V-7.82H3.1a3.654,3.654,0,0,1,1.845.465A3.24,3.24,0,0,1,6.22-6.034a4.075,4.075,0,0,1,.457,1.947v.36a4.087,4.087,0,0,1-.448,1.939A3.212,3.212,0,0,1,4.963-.473,3.682,3.682,0,0,1,3.121,0ZM2.31-6.515v5.221h.779a1.75,1.75,0,0,0,1.445-.618,2.791,2.791,0,0,0,.51-1.767v-.414A2.836,2.836,0,0,0,4.549-5.9,1.744,1.744,0,0,0,3.1-6.515Z" transform="translate(736.456 3708.051)"/>
    <g id="Grupo_1177147" data-name="Grupo 1177147" transform="translate(223.711 3687)">
      <g id="Grupo_1177146" data-name="Grupo 1177146" clip-path="url(#clip-path)">
        <text id="D1" transform="translate(512.749 41.948)" font-size="11" font-family="Roboto-Bold, Roboto" font-weight="700"><tspan x="0" y="0">D1</tspan></text>
      </g>
    </g>
    <path id="Trazado_996524" data-name="Trazado 996524" d="M2.31-1.294H5.731V0H.7V-7.82H2.31Z" transform="translate(736.46 3838.362)"/>
    <path id="Trazado_996525" data-name="Trazado 996525" d="M2.31-1.294H5.731V0H.7V-7.82H2.31ZM10.259,0H8.707V-5.983l-1.853.575V-6.671l3.239-1.16h.167Z" transform="translate(536.843 3832.756)"/>
    <path id="Trazado_996526" data-name="Trazado 996526" d="M3.851-7.82H5.462v5.414a2.589,2.589,0,0,1-.33,1.319A2.242,2.242,0,0,1,4.2-.2,2.911,2.911,0,0,1,2.841.107,2.767,2.767,0,0,1,.908-.524,2.293,2.293,0,0,1,.215-2.31H1.837a1.257,1.257,0,0,0,.242.849.967.967,0,0,0,.763.274A.923.923,0,0,0,3.577-1.5a1.339,1.339,0,0,0,.274-.9Z" transform="translate(441.355 3832.756)"/>
    <path id="Trazado_996527" data-name="Trazado 996527" d="M3.851-7.82H5.462v5.414a2.589,2.589,0,0,1-.33,1.319A2.242,2.242,0,0,1,4.2-.2,2.911,2.911,0,0,1,2.841.107,2.767,2.767,0,0,1,.908-.524,2.293,2.293,0,0,1,.215-2.31H1.837a1.257,1.257,0,0,0,.242.849.967.967,0,0,0,.763.274A.923.923,0,0,0,3.577-1.5a1.339,1.339,0,0,0,.274-.9ZM10.447,0H8.895V-5.983l-1.853.575V-6.671l3.239-1.16h.167Z" transform="translate(401.13 3832.756)"/>
    <path id="Trazado_996528" data-name="Trazado 996528" d="M7.063,0H5.452V-3.352H2.31V0H.7V-7.82H2.31v3.169H5.452V-7.82H7.063Z" transform="translate(736.447 3889.519)"/>
    <path id="Trazado_996529" data-name="Trazado 996529" d="M7.063,0H5.452V-3.352H2.31V0H.7V-7.82H2.31v3.169H5.452V-7.82H7.063Zm5.011,0H10.522V-5.983l-1.853.575V-6.671l3.239-1.16h.167Z" transform="translate(523.517 3904.66)"/>
    <path id="Trazado_996530" data-name="Trazado 996530" d="M5.4-3.389H2.31v2.095H5.94V0H.7V-7.82H5.93v1.305H2.31v1.864H5.4Z" transform="translate(486.604 4071.61)"/>
    <g id="Grupo_1177149" data-name="Grupo 1177149" transform="translate(223.711 3687)">
      <g id="Grupo_1177148" data-name="Grupo 1177148" clip-path="url(#clip-path)">
        <text id="E1" transform="translate(255.776 557.995)" font-size="11" font-family="Roboto-Bold, Roboto" font-weight="700"><tspan x="0" y="0">E1</tspan></text>
        <text id="C1" transform="translate(512.748 550.936)" font-size="10" font-family="Roboto-Bold, Roboto" font-weight="700"><tspan x="0" y="0">C1</tspan></text>
      </g>
    </g>
    <path id="Trazado_996531" data-name="Trazado 996531" d="M6.837-2.6A2.767,2.767,0,0,1,5.906-.618,3.273,3.273,0,0,1,3.69.107,2.943,2.943,0,0,1,1.324-.905a4.151,4.151,0,0,1-.862-2.78v-.478a4.688,4.688,0,0,1,.4-1.987A2.979,2.979,0,0,1,2-7.469a3.182,3.182,0,0,1,1.716-.459A3.188,3.188,0,0,1,5.892-7.2a2.974,2.974,0,0,1,.956,2.036H5.237a1.633,1.633,0,0,0-.422-1.1,1.561,1.561,0,0,0-1.1-.341,1.369,1.369,0,0,0-1.206.577,3.236,3.236,0,0,0-.411,1.791v.591a3.463,3.463,0,0,0,.384,1.853,1.344,1.344,0,0,0,1.211.585A1.591,1.591,0,0,0,4.8-1.55,1.54,1.54,0,0,0,5.226-2.6Z" transform="translate(736.46 4056.87)"/>
    <path id="Trazado_996532" data-name="Trazado 996532" d="M.952,0V-10.664H4.233a4.983,4.983,0,0,1,2.516.634,4.418,4.418,0,0,1,1.732,1.8A5.557,5.557,0,0,1,9.1-5.574v.491a5.573,5.573,0,0,1-.612,2.644A4.38,4.38,0,0,1,6.768-.645,5.021,5.021,0,0,1,4.255,0Zm2.2-8.884v7.119H4.211a2.386,2.386,0,0,0,1.97-.842,3.806,3.806,0,0,0,.7-2.41v-.564A3.867,3.867,0,0,0,6.2-8.046a2.378,2.378,0,0,0-1.97-.839ZM17.117-4.622H12.9v2.856h4.951V0H10.7V-10.664h7.134v1.78H12.9v2.542h4.219Zm4.219,2.856H26V0H19.138V-10.664h2.2ZM33.555-2.2H29.7L28.97,0H26.634L30.6-10.664H32.64L36.632,0H34.3ZM30.3-3.977h2.666l-1.34-3.992ZM46.3,0H44.1L39.825-7.017V0h-2.2V-10.664h2.2L44.11-3.633v-7.031H46.3Zm9.736-8.884H52.769V0h-2.2V-8.884H47.349v-1.78h8.687ZM63.7-4.622H59.486v2.856h4.951V0H57.288V-10.664h7.134v1.78H59.486v2.542H63.7Zm5.969.718h-1.75V0h-2.2V-10.664h3.962a4.479,4.479,0,0,1,2.915.842,2.907,2.907,0,0,1,1.025,2.38,3.281,3.281,0,0,1-.472,1.82A3.222,3.222,0,0,1,71.724-4.46L74.031-.1V0H71.673Zm-1.75-1.78H69.7A1.815,1.815,0,0,0,70.977-6.1a1.505,1.505,0,0,0,.454-1.161A1.611,1.611,0,0,0,71-8.452a1.781,1.781,0,0,0-1.315-.432H67.923ZM81.319-2.2H77.467L76.734,0H74.4l3.97-10.664H80.4L84.4,0H82.059ZM78.06-3.977h2.666l-1.34-3.992Z" transform="translate(328.026 3973.252)"/>
    <path id="Trazado_996533" data-name="Trazado 996533" d="M8.979-8.884H5.713V0h-2.2V-8.884H.293v-1.78H8.979Zm5.2,4.98h-1.75V0h-2.2V-10.664h3.962a4.479,4.479,0,0,1,2.915.842,2.907,2.907,0,0,1,1.025,2.38,3.281,3.281,0,0,1-.472,1.82A3.222,3.222,0,0,1,16.23-4.46L18.538-.1V0H16.179Zm-1.75-1.78H14.2A1.815,1.815,0,0,0,15.483-6.1a1.505,1.505,0,0,0,.454-1.161,1.611,1.611,0,0,0-.428-1.187,1.781,1.781,0,0,0-1.315-.432H12.429ZM25.825-2.2H21.973L21.24,0H18.9l3.97-10.664H24.91L28.9,0H26.565Zm-3.259-1.78h2.666l-1.34-3.992ZM35.427-2.8a1.128,1.128,0,0,0-.439-.956,5.764,5.764,0,0,0-1.582-.7A11.215,11.215,0,0,1,31.6-5.186,2.956,2.956,0,0,1,29.78-7.83a2.575,2.575,0,0,1,.487-1.542,3.177,3.177,0,0,1,1.4-1.058,5.265,5.265,0,0,1,2.047-.381,4.793,4.793,0,0,1,2.036.414,3.242,3.242,0,0,1,1.388,1.168,3.057,3.057,0,0,1,.494,1.714h-2.2a1.438,1.438,0,0,0-.461-1.139,1.9,1.9,0,0,0-1.3-.406,2.026,2.026,0,0,0-1.252.341,1.074,1.074,0,0,0-.447.9,1.029,1.029,0,0,0,.524.872,5.916,5.916,0,0,0,1.542.659,6.661,6.661,0,0,1,2.732,1.4,2.786,2.786,0,0,1,.857,2.08A2.566,2.566,0,0,1,36.584-.641a4.585,4.585,0,0,1-2.82.787A5.445,5.445,0,0,1,31.523-.3a3.546,3.546,0,0,1-1.542-1.234,3.161,3.161,0,0,1-.531-1.816h2.2q0,1.765,2.109,1.765a2.052,2.052,0,0,0,1.223-.319A1.037,1.037,0,0,0,35.427-2.8ZM45.535-4.622H41.316v2.856h4.951V0H39.119V-10.664h7.134v1.78H41.316v2.542h4.219ZM51.5-3.9h-1.75V0h-2.2V-10.664h3.962a4.479,4.479,0,0,1,2.915.842,2.907,2.907,0,0,1,1.025,2.38,3.281,3.281,0,0,1-.472,1.82A3.222,3.222,0,0,1,53.555-4.46L55.862-.1V0H53.5Zm-1.75-1.78h1.772A1.815,1.815,0,0,0,52.808-6.1a1.505,1.505,0,0,0,.454-1.161,1.611,1.611,0,0,0-.428-1.187,1.781,1.781,0,0,0-1.315-.432H49.753ZM63.149-2.2H59.3L58.564,0H56.228L60.2-10.664h2.036L66.226,0H63.889ZM59.89-3.977h2.666l-1.34-3.992Z" transform="translate(575.188 3973.252)"/>
    <path id="Trazado_996534" data-name="Trazado 996534" d="M2.3-1h4.38V0h-5.6V-9.242H2.3ZM9.16,0H7.979V-6.868H9.16Zm.013-9.744h1.422l-1.7,1.866H7.947Zm3.034,2.875L12.245-6A2.5,2.5,0,0,1,14.3-7q2.177,0,2.2,2.457V0H15.323V-4.545a1.581,1.581,0,0,0-.34-1.1A1.361,1.361,0,0,0,13.946-6a1.7,1.7,0,0,0-1,.3,2.069,2.069,0,0,0-.673.8V0H11.1V-6.868Zm8.912,7A3,3,0,0,1,18.846-.79a3.4,3.4,0,0,1-.876-2.453v-.216a4.121,4.121,0,0,1,.39-1.825,3.045,3.045,0,0,1,1.092-1.257A2.745,2.745,0,0,1,20.973-7a2.572,2.572,0,0,1,2.082.882A3.82,3.82,0,0,1,23.8-3.586V-3.1H19.145a2.441,2.441,0,0,0,.594,1.641,1.866,1.866,0,0,0,1.444.625,2.045,2.045,0,0,0,1.054-.254,2.648,2.648,0,0,0,.755-.673l.717.559A2.884,2.884,0,0,1,21.119.127ZM20.973-6.03a1.566,1.566,0,0,0-1.193.517,2.515,2.515,0,0,0-.6,1.45h3.44v-.089a2.237,2.237,0,0,0-.482-1.387A1.475,1.475,0,0,0,20.973-6.03ZM29.4,0a2.467,2.467,0,0,1-.165-.724,2.62,2.62,0,0,1-1.955.851A2.424,2.424,0,0,1,25.61-.448,1.859,1.859,0,0,1,24.959-1.9a1.942,1.942,0,0,1,.816-1.666,3.846,3.846,0,0,1,2.295-.594h1.143V-4.7a1.319,1.319,0,0,0-.368-.981,1.48,1.48,0,0,0-1.085-.365,1.712,1.712,0,0,0-1.054.317.935.935,0,0,0-.425.768H25.1a1.621,1.621,0,0,1,.365-.993,2.491,2.491,0,0,1,.99-.759A3.331,3.331,0,0,1,27.828-7a2.715,2.715,0,0,1,1.86.594,2.141,2.141,0,0,1,.7,1.635v3.161a3.865,3.865,0,0,0,.241,1.5V0ZM27.447-.9a2.064,2.064,0,0,0,1.047-.286,1.728,1.728,0,0,0,.717-.743V-3.333h-.92q-2.158,0-2.158,1.263a1.069,1.069,0,0,0,.368.863A1.415,1.415,0,0,0,27.447-.9ZM41.26-3.358a4.084,4.084,0,0,1-.724,2.53,2.312,2.312,0,0,1-1.942.955,2.394,2.394,0,0,1-2.012-.92L36.524,0H35.445V-9.75H36.62v3.637A2.381,2.381,0,0,1,38.581-7a2.326,2.326,0,0,1,1.965.946,4.206,4.206,0,0,1,.714,2.59Zm-1.174-.133a3.173,3.173,0,0,0-.463-1.854A1.534,1.534,0,0,0,38.289-6,1.724,1.724,0,0,0,36.62-4.919v2.971A1.772,1.772,0,0,0,38.3-.87a1.526,1.526,0,0,0,1.314-.654A3.374,3.374,0,0,0,40.085-3.491ZM46.979-.679a2.494,2.494,0,0,1-2.012.806,2.135,2.135,0,0,1-1.673-.638A2.761,2.761,0,0,1,42.713-2.4V-6.868h1.174v4.437q0,1.562,1.27,1.562a1.758,1.758,0,0,0,1.79-1v-5h1.174V0H47ZM53.9-1.822a.865.865,0,0,0-.359-.74,3.452,3.452,0,0,0-1.25-.454,5.912,5.912,0,0,1-1.416-.457,2.014,2.014,0,0,1-.774-.635,1.518,1.518,0,0,1-.251-.876,1.782,1.782,0,0,1,.714-1.428A2.789,2.789,0,0,1,52.394-7a2.87,2.87,0,0,1,1.895.6,1.915,1.915,0,0,1,.727,1.542H53.834a1.06,1.06,0,0,0-.409-.832,1.534,1.534,0,0,0-1.031-.349,1.605,1.605,0,0,0-1,.279.879.879,0,0,0-.362.73.712.712,0,0,0,.336.641,4.139,4.139,0,0,0,1.216.413,6.334,6.334,0,0,1,1.425.47,2.079,2.079,0,0,1,.809.657,1.615,1.615,0,0,1,.263.936,1.758,1.758,0,0,1-.736,1.476,3.089,3.089,0,0,1-1.911.555,3.459,3.459,0,0,1-1.46-.292,2.375,2.375,0,0,1-.993-.816,1.966,1.966,0,0,1-.359-1.133h1.174a1.216,1.216,0,0,0,.473.936,1.835,1.835,0,0,0,1.165.346A1.894,1.894,0,0,0,53.5-1.1.829.829,0,0,0,53.9-1.822Zm4.3-6.709v1.663h1.282v.908H58.2V-1.7a.951.951,0,0,0,.171.619.722.722,0,0,0,.584.206,2.843,2.843,0,0,0,.559-.076V0a3.4,3.4,0,0,1-.9.127,1.462,1.462,0,0,1-1.187-.476,2.045,2.045,0,0,1-.4-1.352V-5.96h-1.25v-.908h1.25V-8.531ZM60.287-3.5a4.057,4.057,0,0,1,.4-1.815,2.96,2.96,0,0,1,1.1-1.244A3.007,3.007,0,0,1,63.4-7a2.9,2.9,0,0,1,2.269.971,3.736,3.736,0,0,1,.866,2.583v.083a4.092,4.092,0,0,1-.384,1.8,2.916,2.916,0,0,1-1.1,1.241,3.041,3.041,0,0,1-1.641.444,2.889,2.889,0,0,1-2.263-.971,3.718,3.718,0,0,1-.866-2.571Zm1.181.14A2.938,2.938,0,0,0,62-1.523a1.7,1.7,0,0,0,1.419.692,1.686,1.686,0,0,0,1.422-.7A3.213,3.213,0,0,0,65.365-3.5a2.933,2.933,0,0,0-.536-1.831,1.705,1.705,0,0,0-1.425-.7,1.686,1.686,0,0,0-1.4.692A3.189,3.189,0,0,0,61.468-3.358Z" transform="translate(606.058 3882.313)"/>
    <path id="Trazado_996535" data-name="Trazado 996535" d="M2.3-1h4.38V0h-5.6V-9.242H2.3ZM9.16,0H7.979V-6.868H9.16Zm.013-9.744h1.422l-1.7,1.866H7.947Zm3.034,2.875L12.245-6A2.5,2.5,0,0,1,14.3-7q2.177,0,2.2,2.457V0H15.323V-4.545a1.581,1.581,0,0,0-.34-1.1A1.361,1.361,0,0,0,13.946-6a1.7,1.7,0,0,0-1,.3,2.069,2.069,0,0,0-.673.8V0H11.1V-6.868Zm8.912,7A3,3,0,0,1,18.846-.79a3.4,3.4,0,0,1-.876-2.453v-.216a4.121,4.121,0,0,1,.39-1.825,3.045,3.045,0,0,1,1.092-1.257A2.745,2.745,0,0,1,20.973-7a2.572,2.572,0,0,1,2.082.882A3.82,3.82,0,0,1,23.8-3.586V-3.1H19.145a2.441,2.441,0,0,0,.594,1.641,1.866,1.866,0,0,0,1.444.625,2.045,2.045,0,0,0,1.054-.254,2.648,2.648,0,0,0,.755-.673l.717.559A2.884,2.884,0,0,1,21.119.127ZM20.973-6.03a1.566,1.566,0,0,0-1.193.517,2.515,2.515,0,0,0-.6,1.45h3.44v-.089a2.237,2.237,0,0,0-.482-1.387A1.475,1.475,0,0,0,20.973-6.03ZM29.4,0a2.467,2.467,0,0,1-.165-.724,2.62,2.62,0,0,1-1.955.851A2.424,2.424,0,0,1,25.61-.448,1.859,1.859,0,0,1,24.959-1.9a1.942,1.942,0,0,1,.816-1.666,3.846,3.846,0,0,1,2.295-.594h1.143V-4.7a1.319,1.319,0,0,0-.368-.981,1.48,1.48,0,0,0-1.085-.365,1.712,1.712,0,0,0-1.054.317.935.935,0,0,0-.425.768H25.1a1.621,1.621,0,0,1,.365-.993,2.491,2.491,0,0,1,.99-.759A3.331,3.331,0,0,1,27.828-7a2.715,2.715,0,0,1,1.86.594,2.141,2.141,0,0,1,.7,1.635v3.161a3.865,3.865,0,0,0,.241,1.5V0ZM27.447-.9a2.064,2.064,0,0,0,1.047-.286,1.728,1.728,0,0,0,.717-.743V-3.333h-.92q-2.158,0-2.158,1.263a1.069,1.069,0,0,0,.368.863A1.415,1.415,0,0,0,27.447-.9ZM41.26-3.358a4.084,4.084,0,0,1-.724,2.53,2.312,2.312,0,0,1-1.942.955,2.394,2.394,0,0,1-2.012-.92L36.524,0H35.445V-9.75H36.62v3.637A2.381,2.381,0,0,1,38.581-7a2.326,2.326,0,0,1,1.965.946,4.206,4.206,0,0,1,.714,2.59Zm-1.174-.133a3.173,3.173,0,0,0-.463-1.854A1.534,1.534,0,0,0,38.289-6,1.724,1.724,0,0,0,36.62-4.919v2.971A1.772,1.772,0,0,0,38.3-.87a1.526,1.526,0,0,0,1.314-.654A3.374,3.374,0,0,0,40.085-3.491ZM46.979-.679a2.494,2.494,0,0,1-2.012.806,2.135,2.135,0,0,1-1.673-.638A2.761,2.761,0,0,1,42.713-2.4V-6.868h1.174v4.437q0,1.562,1.27,1.562a1.758,1.758,0,0,0,1.79-1v-5h1.174V0H47ZM53.9-1.822a.865.865,0,0,0-.359-.74,3.452,3.452,0,0,0-1.25-.454,5.912,5.912,0,0,1-1.416-.457,2.014,2.014,0,0,1-.774-.635,1.518,1.518,0,0,1-.251-.876,1.782,1.782,0,0,1,.714-1.428A2.789,2.789,0,0,1,52.394-7a2.87,2.87,0,0,1,1.895.6,1.915,1.915,0,0,1,.727,1.542H53.834a1.06,1.06,0,0,0-.409-.832,1.534,1.534,0,0,0-1.031-.349,1.605,1.605,0,0,0-1,.279.879.879,0,0,0-.362.73.712.712,0,0,0,.336.641,4.139,4.139,0,0,0,1.216.413,6.334,6.334,0,0,1,1.425.47,2.079,2.079,0,0,1,.809.657,1.615,1.615,0,0,1,.263.936,1.758,1.758,0,0,1-.736,1.476,3.089,3.089,0,0,1-1.911.555,3.459,3.459,0,0,1-1.46-.292,2.375,2.375,0,0,1-.993-.816,1.966,1.966,0,0,1-.359-1.133h1.174a1.216,1.216,0,0,0,.473.936,1.835,1.835,0,0,0,1.165.346A1.894,1.894,0,0,0,53.5-1.1.829.829,0,0,0,53.9-1.822Zm4.3-6.709v1.663h1.282v.908H58.2V-1.7a.951.951,0,0,0,.171.619.722.722,0,0,0,.584.206,2.843,2.843,0,0,0,.559-.076V0a3.4,3.4,0,0,1-.9.127,1.462,1.462,0,0,1-1.187-.476,2.045,2.045,0,0,1-.4-1.352V-5.96h-1.25v-.908h1.25V-8.531ZM60.287-3.5a4.057,4.057,0,0,1,.4-1.815,2.96,2.96,0,0,1,1.1-1.244A3.007,3.007,0,0,1,63.4-7a2.9,2.9,0,0,1,2.269.971,3.736,3.736,0,0,1,.866,2.583v.083a4.092,4.092,0,0,1-.384,1.8,2.916,2.916,0,0,1-1.1,1.241,3.041,3.041,0,0,1-1.641.444,2.889,2.889,0,0,1-2.263-.971,3.718,3.718,0,0,1-.866-2.571Zm1.181.14A2.938,2.938,0,0,0,62-1.523a1.7,1.7,0,0,0,1.419.692,1.686,1.686,0,0,0,1.422-.7A3.213,3.213,0,0,0,65.365-3.5a2.933,2.933,0,0,0-.536-1.831,1.705,1.705,0,0,0-1.425-.7,1.686,1.686,0,0,0-1.4.692A3.189,3.189,0,0,0,61.468-3.358Z" transform="translate(301.604 3882.313)"/>
    <path id="Trazado_996536" data-name="Trazado 996536" d="M2.3-1h4.38V0h-5.6V-9.242H2.3ZM9.16,0H7.979V-6.868H9.16Zm.013-9.744h1.422l-1.7,1.866H7.947Zm3.034,2.875L12.245-6A2.5,2.5,0,0,1,14.3-7q2.177,0,2.2,2.457V0H15.323V-4.545a1.581,1.581,0,0,0-.34-1.1A1.361,1.361,0,0,0,13.946-6a1.7,1.7,0,0,0-1,.3,2.069,2.069,0,0,0-.673.8V0H11.1V-6.868Zm8.912,7A3,3,0,0,1,18.846-.79a3.4,3.4,0,0,1-.876-2.453v-.216a4.121,4.121,0,0,1,.39-1.825,3.045,3.045,0,0,1,1.092-1.257A2.745,2.745,0,0,1,20.973-7a2.572,2.572,0,0,1,2.082.882A3.82,3.82,0,0,1,23.8-3.586V-3.1H19.145a2.441,2.441,0,0,0,.594,1.641,1.866,1.866,0,0,0,1.444.625,2.045,2.045,0,0,0,1.054-.254,2.648,2.648,0,0,0,.755-.673l.717.559A2.884,2.884,0,0,1,21.119.127ZM20.973-6.03a1.566,1.566,0,0,0-1.193.517,2.515,2.515,0,0,0-.6,1.45h3.44v-.089a2.237,2.237,0,0,0-.482-1.387A1.475,1.475,0,0,0,20.973-6.03ZM29.4,0a2.467,2.467,0,0,1-.165-.724,2.62,2.62,0,0,1-1.955.851A2.424,2.424,0,0,1,25.61-.448,1.859,1.859,0,0,1,24.959-1.9a1.942,1.942,0,0,1,.816-1.666,3.846,3.846,0,0,1,2.295-.594h1.143V-4.7a1.319,1.319,0,0,0-.368-.981,1.48,1.48,0,0,0-1.085-.365,1.712,1.712,0,0,0-1.054.317.935.935,0,0,0-.425.768H25.1a1.621,1.621,0,0,1,.365-.993,2.491,2.491,0,0,1,.99-.759A3.331,3.331,0,0,1,27.828-7a2.715,2.715,0,0,1,1.86.594,2.141,2.141,0,0,1,.7,1.635v3.161a3.865,3.865,0,0,0,.241,1.5V0ZM27.447-.9a2.064,2.064,0,0,0,1.047-.286,1.728,1.728,0,0,0,.717-.743V-3.333h-.92q-2.158,0-2.158,1.263a1.069,1.069,0,0,0,.368.863A1.415,1.415,0,0,0,27.447-.9ZM38.2-.832a1.692,1.692,0,0,0,1.1-.381,1.34,1.34,0,0,0,.521-.952H40.93a2.13,2.13,0,0,1-.406,1.124,2.676,2.676,0,0,1-1,.851A2.885,2.885,0,0,1,38.2.127a2.829,2.829,0,0,1-2.231-.936,3.729,3.729,0,0,1-.828-2.561v-.2a4.135,4.135,0,0,1,.368-1.784,2.8,2.8,0,0,1,1.057-1.212A3,3,0,0,1,38.194-7a2.755,2.755,0,0,1,1.92.692,2.473,2.473,0,0,1,.816,1.8H39.819a1.618,1.618,0,0,0-.5-1.095,1.57,1.57,0,0,0-1.12-.428,1.644,1.644,0,0,0-1.387.644,3.026,3.026,0,0,0-.492,1.863V-3.3A2.965,2.965,0,0,0,36.8-1.473,1.651,1.651,0,0,0,38.2-.832ZM43.526,0H42.352V-6.868h1.174Zm-1.27-8.69a.7.7,0,0,1,.175-.482.655.655,0,0,1,.517-.2.666.666,0,0,1,.521.2.694.694,0,0,1,.178.482.671.671,0,0,1-.178.476.678.678,0,0,1-.521.19.667.667,0,0,1-.517-.19A.678.678,0,0,1,42.256-8.69Zm4.259,1.822L46.554-6A2.5,2.5,0,0,1,48.61-7q2.177,0,2.2,2.457V0H49.632V-4.545a1.581,1.581,0,0,0-.34-1.1A1.361,1.361,0,0,0,48.255-6a1.7,1.7,0,0,0-1,.3,2.069,2.069,0,0,0-.673.8V0H45.4V-6.868Zm7.655-1.663v1.663h1.282v.908H54.171V-1.7a.951.951,0,0,0,.171.619.722.722,0,0,0,.584.206,2.843,2.843,0,0,0,.559-.076V0a3.4,3.4,0,0,1-.9.127A1.462,1.462,0,0,1,53.4-.349,2.045,2.045,0,0,1,53-1.7V-5.96h-1.25v-.908H53V-8.531ZM61.064-.679a2.494,2.494,0,0,1-2.012.806A2.135,2.135,0,0,1,57.38-.511,2.761,2.761,0,0,1,56.8-2.4V-6.868h1.174v4.437q0,1.562,1.27,1.562a1.758,1.758,0,0,0,1.79-1v-5h1.174V0H61.09Zm6.246-5.135a3.519,3.519,0,0,0-.578-.044,1.547,1.547,0,0,0-1.568.984V0H63.991V-6.868h1.143l.019.793A1.829,1.829,0,0,1,66.79-7a1.2,1.2,0,0,1,.521.089ZM72.129,0a2.467,2.467,0,0,1-.165-.724,2.62,2.62,0,0,1-1.955.851,2.424,2.424,0,0,1-1.666-.574A1.859,1.859,0,0,1,67.692-1.9a1.942,1.942,0,0,1,.816-1.666A3.846,3.846,0,0,1,70.8-4.164h1.143V-4.7a1.319,1.319,0,0,0-.368-.981,1.48,1.48,0,0,0-1.085-.365,1.712,1.712,0,0,0-1.054.317.935.935,0,0,0-.425.768H67.832a1.621,1.621,0,0,1,.365-.993,2.491,2.491,0,0,1,.99-.759A3.331,3.331,0,0,1,70.561-7a2.715,2.715,0,0,1,1.86.594,2.141,2.141,0,0,1,.7,1.635v3.161A3.865,3.865,0,0,0,73.36-.1V0ZM70.18-.9a2.064,2.064,0,0,0,1.047-.286,1.728,1.728,0,0,0,.717-.743V-3.333h-.92q-2.158,0-2.158,1.263a1.069,1.069,0,0,0,.368.863A1.415,1.415,0,0,0,70.18-.9Z" transform="translate(547.17 4048.866)"/>
    <path id="Trazado_996537" data-name="Trazado 996537" d="M9.324-3.552A3.774,3.774,0,0,1,8.053-.842,4.463,4.463,0,0,1,5.032.146,4.013,4.013,0,0,1,1.805-1.234,5.661,5.661,0,0,1,.63-5.024v-.652a6.393,6.393,0,0,1,.542-2.71,4.062,4.062,0,0,1,1.549-1.8,4.339,4.339,0,0,1,2.34-.626,4.348,4.348,0,0,1,2.974.989,4.055,4.055,0,0,1,1.3,2.776h-2.2a2.227,2.227,0,0,0-.575-1.5,2.129,2.129,0,0,0-1.505-.465,1.867,1.867,0,0,0-1.644.787,4.413,4.413,0,0,0-.56,2.443v.806A4.723,4.723,0,0,0,3.38-2.446a1.832,1.832,0,0,0,1.652.8,2.169,2.169,0,0,0,1.52-.465,2.1,2.1,0,0,0,.575-1.439Zm4.951,3.7A3.89,3.89,0,0,1,11.437-.923a3.8,3.8,0,0,1-1.095-2.849v-.205A4.787,4.787,0,0,1,10.8-6.112a3.386,3.386,0,0,1,1.307-1.45,3.669,3.669,0,0,1,1.93-.509A3.289,3.289,0,0,1,16.6-7.046a4.167,4.167,0,0,1,.934,2.908v.864H12.488a1.966,1.966,0,0,0,.619,1.245,1.871,1.871,0,0,0,1.307.469,2.285,2.285,0,0,0,1.912-.886l1.04,1.165A3.178,3.178,0,0,1,16.077-.231,4.229,4.229,0,0,1,14.275.146Zm-.242-6.5a1.326,1.326,0,0,0-1.022.425,2.195,2.195,0,0,0-.5,1.216h2.944v-.168a1.565,1.565,0,0,0-.381-1.088A1.368,1.368,0,0,0,14.033-6.357Zm6.65-1.567.066.916a2.767,2.767,0,0,1,2.278-1.062,2.3,2.3,0,0,1,1.875.74,3.451,3.451,0,0,1,.63,2.212V0H23.416V-5.068a1.373,1.373,0,0,0-.293-.978,1.312,1.312,0,0,0-.974-.3,1.456,1.456,0,0,0-1.34.762V0H18.691V-7.925ZM29.67-9.873v1.948h1.355v1.553H29.67v3.955a.944.944,0,0,0,.168.63.846.846,0,0,0,.645.19,3.376,3.376,0,0,0,.623-.051v1.6a4.358,4.358,0,0,1-1.282.19A2.021,2.021,0,0,1,27.554-2.1v-4.27H26.4V-7.925h1.157V-9.873ZM36.658-5.94A5.75,5.75,0,0,0,35.9-6a1.55,1.55,0,0,0-1.575.813V0H32.2V-7.925h2l.059.945a1.961,1.961,0,0,1,1.765-1.091,2.218,2.218,0,0,1,.659.1Zm.17,1.9a4.7,4.7,0,0,1,.454-2.1,3.324,3.324,0,0,1,1.307-1.428,3.814,3.814,0,0,1,1.981-.505,3.609,3.609,0,0,1,2.618.981A3.939,3.939,0,0,1,44.32-4.424l.015.542A4.142,4.142,0,0,1,43.317-.956a3.539,3.539,0,0,1-2.732,1.1,3.556,3.556,0,0,1-2.736-1.1A4.215,4.215,0,0,1,36.828-3.94Zm2.117.154a2.954,2.954,0,0,0,.425,1.725,1.4,1.4,0,0,0,1.216.6,1.405,1.405,0,0,0,1.2-.59,3.233,3.233,0,0,0,.432-1.886,2.925,2.925,0,0,0-.432-1.714,1.405,1.405,0,0,0-1.216-.608,1.382,1.382,0,0,0-1.2.6A3.287,3.287,0,0,0,38.944-3.882Zm10.1-.139a4.776,4.776,0,0,1,.831-2.952,2.7,2.7,0,0,1,2.274-1.1,2.427,2.427,0,0,1,1.912.864V-11.25h2.124V0H54.274l-.1-.842a2.491,2.491,0,0,1-2.036.989,2.69,2.69,0,0,1-2.245-1.1A4.93,4.93,0,0,1,49.044-4.021Zm2.117.154a3.12,3.12,0,0,0,.388,1.707,1.265,1.265,0,0,0,1.128.593A1.417,1.417,0,0,0,54.061-2.4V-5.522a1.4,1.4,0,0,0-1.37-.828Q51.161-6.35,51.161-3.867ZM61.474.146A3.89,3.89,0,0,1,58.635-.923,3.8,3.8,0,0,1,57.54-3.772v-.205A4.787,4.787,0,0,1,58-6.112a3.386,3.386,0,0,1,1.307-1.45,3.669,3.669,0,0,1,1.93-.509A3.289,3.289,0,0,1,63.8-7.046a4.167,4.167,0,0,1,.934,2.908v.864H59.686a1.966,1.966,0,0,0,.619,1.245,1.871,1.871,0,0,0,1.307.469,2.285,2.285,0,0,0,1.912-.886l1.04,1.165A3.178,3.178,0,0,1,63.275-.231,4.229,4.229,0,0,1,61.474.146Zm-.242-6.5a1.326,1.326,0,0,0-1.022.425,2.195,2.195,0,0,0-.5,1.216h2.944v-.168a1.565,1.565,0,0,0-.381-1.088A1.368,1.368,0,0,0,61.232-6.357ZM68.168,0H66.044V-11.25h2.124ZM74.5,0a2.351,2.351,0,0,1-.212-.71,2.561,2.561,0,0,1-2,.857,2.814,2.814,0,0,1-1.93-.674,2.167,2.167,0,0,1-.765-1.7A2.24,2.24,0,0,1,70.53-4.16a4.608,4.608,0,0,1,2.7-.681H74.2V-5.3a1.306,1.306,0,0,0-.282-.879,1.109,1.109,0,0,0-.89-.33,1.261,1.261,0,0,0-.839.256.871.871,0,0,0-.3.7H69.772A2.126,2.126,0,0,1,70.2-6.819a2.808,2.808,0,0,1,1.2-.919,4.378,4.378,0,0,1,1.743-.333,3.459,3.459,0,0,1,2.325.736,2.575,2.575,0,0,1,.861,2.069v3.435a3.789,3.789,0,0,0,.315,1.707V0Zm-1.75-1.472a1.823,1.823,0,0,0,.864-.209,1.371,1.371,0,0,0,.586-.56V-3.6h-.791q-1.589,0-1.692,1.1l-.007.125a.847.847,0,0,0,.278.652A1.081,1.081,0,0,0,72.753-1.472ZM79.9-7.925l.066.916a2.767,2.767,0,0,1,2.278-1.062,2.3,2.3,0,0,1,1.875.74,3.451,3.451,0,0,1,.63,2.212V0H82.633V-5.068a1.373,1.373,0,0,0-.293-.978,1.312,1.312,0,0,0-.974-.3,1.456,1.456,0,0,0-1.34.762V0H77.909V-7.925Zm8.987-1.948v1.948h1.355v1.553H88.888v3.955a.944.944,0,0,0,.168.63.846.846,0,0,0,.645.19,3.376,3.376,0,0,0,.623-.051v1.6a4.358,4.358,0,0,1-1.282.19A2.021,2.021,0,0,1,86.771-2.1v-4.27H85.614V-7.925h1.157V-9.873ZM95.07.146A3.89,3.89,0,0,1,92.232-.923a3.8,3.8,0,0,1-1.095-2.849v-.205A4.787,4.787,0,0,1,91.6-6.112a3.386,3.386,0,0,1,1.307-1.45,3.669,3.669,0,0,1,1.93-.509A3.289,3.289,0,0,1,97.4-7.046a4.167,4.167,0,0,1,.934,2.908v.864H93.283A1.966,1.966,0,0,0,93.9-2.029a1.871,1.871,0,0,0,1.307.469,2.285,2.285,0,0,0,1.912-.886l1.04,1.165A3.178,3.178,0,0,1,96.871-.231,4.229,4.229,0,0,1,95.07.146Zm-.242-6.5a1.326,1.326,0,0,0-1.022.425,2.195,2.195,0,0,0-.5,1.216h2.944v-.168a1.565,1.565,0,0,0-.381-1.088A1.368,1.368,0,0,0,94.828-6.357Zm9.155.417A5.75,5.75,0,0,0,103.222-6a1.55,1.55,0,0,0-1.575.813V0H99.53V-7.925h2l.059.945a1.961,1.961,0,0,1,1.765-1.091,2.218,2.218,0,0,1,.659.1Zm.17,1.9a4.7,4.7,0,0,1,.454-2.1,3.324,3.324,0,0,1,1.307-1.428,3.814,3.814,0,0,1,1.981-.505,3.609,3.609,0,0,1,2.618.981,3.939,3.939,0,0,1,1.132,2.666l.015.542a4.142,4.142,0,0,1-1.018,2.926,3.539,3.539,0,0,1-2.732,1.1,3.556,3.556,0,0,1-2.736-1.1,4.215,4.215,0,0,1-1.022-2.988Zm2.117.154a2.954,2.954,0,0,0,.425,1.725,1.4,1.4,0,0,0,1.216.6,1.405,1.405,0,0,0,1.2-.59,3.233,3.233,0,0,0,.432-1.886,2.925,2.925,0,0,0-.432-1.714,1.405,1.405,0,0,0-1.216-.608,1.382,1.382,0,0,0-1.2.6A3.287,3.287,0,0,0,106.27-3.882Z" transform="translate(262.339 4032.213) rotate(-90)"/>
    <path id="Trazado_996538" data-name="Trazado 996538" d="M9.324-3.552A3.774,3.774,0,0,1,8.053-.842,4.463,4.463,0,0,1,5.032.146,4.013,4.013,0,0,1,1.805-1.234,5.661,5.661,0,0,1,.63-5.024v-.652a6.393,6.393,0,0,1,.542-2.71,4.062,4.062,0,0,1,1.549-1.8,4.339,4.339,0,0,1,2.34-.626,4.348,4.348,0,0,1,2.974.989,4.055,4.055,0,0,1,1.3,2.776h-2.2a2.227,2.227,0,0,0-.575-1.5,2.129,2.129,0,0,0-1.505-.465,1.867,1.867,0,0,0-1.644.787,4.413,4.413,0,0,0-.56,2.443v.806A4.723,4.723,0,0,0,3.38-2.446a1.832,1.832,0,0,0,1.652.8,2.169,2.169,0,0,0,1.52-.465,2.1,2.1,0,0,0,.575-1.439Zm4.951,3.7A3.89,3.89,0,0,1,11.437-.923a3.8,3.8,0,0,1-1.095-2.849v-.205A4.787,4.787,0,0,1,10.8-6.112a3.386,3.386,0,0,1,1.307-1.45,3.669,3.669,0,0,1,1.93-.509A3.289,3.289,0,0,1,16.6-7.046a4.167,4.167,0,0,1,.934,2.908v.864H12.488a1.966,1.966,0,0,0,.619,1.245,1.871,1.871,0,0,0,1.307.469,2.285,2.285,0,0,0,1.912-.886l1.04,1.165A3.178,3.178,0,0,1,16.077-.231,4.229,4.229,0,0,1,14.275.146Zm-.242-6.5a1.326,1.326,0,0,0-1.022.425,2.195,2.195,0,0,0-.5,1.216h2.944v-.168a1.565,1.565,0,0,0-.381-1.088A1.368,1.368,0,0,0,14.033-6.357Zm6.65-1.567.066.916a2.767,2.767,0,0,1,2.278-1.062,2.3,2.3,0,0,1,1.875.74,3.451,3.451,0,0,1,.63,2.212V0H23.416V-5.068a1.373,1.373,0,0,0-.293-.978,1.312,1.312,0,0,0-.974-.3,1.456,1.456,0,0,0-1.34.762V0H18.691V-7.925ZM29.67-9.873v1.948h1.355v1.553H29.67v3.955a.944.944,0,0,0,.168.63.846.846,0,0,0,.645.19,3.376,3.376,0,0,0,.623-.051v1.6a4.358,4.358,0,0,1-1.282.19A2.021,2.021,0,0,1,27.554-2.1v-4.27H26.4V-7.925h1.157V-9.873ZM36.658-5.94A5.75,5.75,0,0,0,35.9-6a1.55,1.55,0,0,0-1.575.813V0H32.2V-7.925h2l.059.945a1.961,1.961,0,0,1,1.765-1.091,2.218,2.218,0,0,1,.659.1Zm.17,1.9a4.7,4.7,0,0,1,.454-2.1,3.324,3.324,0,0,1,1.307-1.428,3.814,3.814,0,0,1,1.981-.505,3.609,3.609,0,0,1,2.618.981A3.939,3.939,0,0,1,44.32-4.424l.015.542A4.142,4.142,0,0,1,43.317-.956a3.539,3.539,0,0,1-2.732,1.1,3.556,3.556,0,0,1-2.736-1.1A4.215,4.215,0,0,1,36.828-3.94Zm2.117.154a2.954,2.954,0,0,0,.425,1.725,1.4,1.4,0,0,0,1.216.6,1.405,1.405,0,0,0,1.2-.59,3.233,3.233,0,0,0,.432-1.886,2.925,2.925,0,0,0-.432-1.714,1.405,1.405,0,0,0-1.216-.608,1.382,1.382,0,0,0-1.2.6A3.287,3.287,0,0,0,38.944-3.882Zm10.1-.139a4.776,4.776,0,0,1,.831-2.952,2.7,2.7,0,0,1,2.274-1.1,2.427,2.427,0,0,1,1.912.864V-11.25h2.124V0H54.274l-.1-.842a2.491,2.491,0,0,1-2.036.989,2.69,2.69,0,0,1-2.245-1.1A4.93,4.93,0,0,1,49.044-4.021Zm2.117.154a3.12,3.12,0,0,0,.388,1.707,1.265,1.265,0,0,0,1.128.593A1.417,1.417,0,0,0,54.061-2.4V-5.522a1.4,1.4,0,0,0-1.37-.828Q51.161-6.35,51.161-3.867ZM61.474.146A3.89,3.89,0,0,1,58.635-.923,3.8,3.8,0,0,1,57.54-3.772v-.205A4.787,4.787,0,0,1,58-6.112a3.386,3.386,0,0,1,1.307-1.45,3.669,3.669,0,0,1,1.93-.509A3.289,3.289,0,0,1,63.8-7.046a4.167,4.167,0,0,1,.934,2.908v.864H59.686a1.966,1.966,0,0,0,.619,1.245,1.871,1.871,0,0,0,1.307.469,2.285,2.285,0,0,0,1.912-.886l1.04,1.165A3.178,3.178,0,0,1,63.275-.231,4.229,4.229,0,0,1,61.474.146Zm-.242-6.5a1.326,1.326,0,0,0-1.022.425,2.195,2.195,0,0,0-.5,1.216h2.944v-.168a1.565,1.565,0,0,0-.381-1.088A1.368,1.368,0,0,0,61.232-6.357ZM68.168,0H66.044V-11.25h2.124ZM74.5,0a2.351,2.351,0,0,1-.212-.71,2.561,2.561,0,0,1-2,.857,2.814,2.814,0,0,1-1.93-.674,2.167,2.167,0,0,1-.765-1.7A2.24,2.24,0,0,1,70.53-4.16a4.608,4.608,0,0,1,2.7-.681H74.2V-5.3a1.306,1.306,0,0,0-.282-.879,1.109,1.109,0,0,0-.89-.33,1.261,1.261,0,0,0-.839.256.871.871,0,0,0-.3.7H69.772A2.126,2.126,0,0,1,70.2-6.819a2.808,2.808,0,0,1,1.2-.919,4.378,4.378,0,0,1,1.743-.333,3.459,3.459,0,0,1,2.325.736,2.575,2.575,0,0,1,.861,2.069v3.435a3.789,3.789,0,0,0,.315,1.707V0Zm-1.75-1.472a1.823,1.823,0,0,0,.864-.209,1.371,1.371,0,0,0,.586-.56V-3.6h-.791q-1.589,0-1.692,1.1l-.007.125a.847.847,0,0,0,.278.652A1.081,1.081,0,0,0,72.753-1.472ZM79.9-7.925l.066.916a2.767,2.767,0,0,1,2.278-1.062,2.3,2.3,0,0,1,1.875.74,3.451,3.451,0,0,1,.63,2.212V0H82.633V-5.068a1.373,1.373,0,0,0-.293-.978,1.312,1.312,0,0,0-.974-.3,1.456,1.456,0,0,0-1.34.762V0H77.909V-7.925Zm8.987-1.948v1.948h1.355v1.553H88.888v3.955a.944.944,0,0,0,.168.63.846.846,0,0,0,.645.19,3.376,3.376,0,0,0,.623-.051v1.6a4.358,4.358,0,0,1-1.282.19A2.021,2.021,0,0,1,86.771-2.1v-4.27H85.614V-7.925h1.157V-9.873ZM95.07.146A3.89,3.89,0,0,1,92.232-.923a3.8,3.8,0,0,1-1.095-2.849v-.205A4.787,4.787,0,0,1,91.6-6.112a3.386,3.386,0,0,1,1.307-1.45,3.669,3.669,0,0,1,1.93-.509A3.289,3.289,0,0,1,97.4-7.046a4.167,4.167,0,0,1,.934,2.908v.864H93.283A1.966,1.966,0,0,0,93.9-2.029a1.871,1.871,0,0,0,1.307.469,2.285,2.285,0,0,0,1.912-.886l1.04,1.165A3.178,3.178,0,0,1,96.871-.231,4.229,4.229,0,0,1,95.07.146Zm-.242-6.5a1.326,1.326,0,0,0-1.022.425,2.195,2.195,0,0,0-.5,1.216h2.944v-.168a1.565,1.565,0,0,0-.381-1.088A1.368,1.368,0,0,0,94.828-6.357Zm9.155.417A5.75,5.75,0,0,0,103.222-6a1.55,1.55,0,0,0-1.575.813V0H99.53V-7.925h2l.059.945a1.961,1.961,0,0,1,1.765-1.091,2.218,2.218,0,0,1,.659.1Zm.17,1.9a4.7,4.7,0,0,1,.454-2.1,3.324,3.324,0,0,1,1.307-1.428,3.814,3.814,0,0,1,1.981-.505,3.609,3.609,0,0,1,2.618.981,3.939,3.939,0,0,1,1.132,2.666l.015.542a4.142,4.142,0,0,1-1.018,2.926,3.539,3.539,0,0,1-2.732,1.1,3.556,3.556,0,0,1-2.736-1.1,4.215,4.215,0,0,1-1.022-2.988Zm2.117.154a2.954,2.954,0,0,0,.425,1.725,1.4,1.4,0,0,0,1.216.6,1.405,1.405,0,0,0,1.2-.59,3.233,3.233,0,0,0,.432-1.886,2.925,2.925,0,0,0-.432-1.714,1.405,1.405,0,0,0-1.216-.608,1.382,1.382,0,0,0-1.2.6A3.287,3.287,0,0,0,106.27-3.882Z" transform="translate(717.523 4032.213) rotate(-90)"/>
    <path id="Trazado_996539" data-name="Trazado 996539" d="M2.3-1h4.38V0h-5.6V-9.242H2.3ZM9.16,0H7.979V-6.868H9.16Zm.013-9.744h1.422l-1.7,1.866H7.947Zm3.034,2.875L12.245-6A2.5,2.5,0,0,1,14.3-7q2.177,0,2.2,2.457V0H15.323V-4.545a1.581,1.581,0,0,0-.34-1.1A1.361,1.361,0,0,0,13.946-6a1.7,1.7,0,0,0-1,.3,2.069,2.069,0,0,0-.673.8V0H11.1V-6.868Zm8.912,7A3,3,0,0,1,18.846-.79a3.4,3.4,0,0,1-.876-2.453v-.216a4.121,4.121,0,0,1,.39-1.825,3.045,3.045,0,0,1,1.092-1.257A2.745,2.745,0,0,1,20.973-7a2.572,2.572,0,0,1,2.082.882A3.82,3.82,0,0,1,23.8-3.586V-3.1H19.145a2.441,2.441,0,0,0,.594,1.641,1.866,1.866,0,0,0,1.444.625,2.045,2.045,0,0,0,1.054-.254,2.648,2.648,0,0,0,.755-.673l.717.559A2.884,2.884,0,0,1,21.119.127ZM20.973-6.03a1.566,1.566,0,0,0-1.193.517,2.515,2.515,0,0,0-.6,1.45h3.44v-.089a2.237,2.237,0,0,0-.482-1.387A1.475,1.475,0,0,0,20.973-6.03ZM29.4,0a2.467,2.467,0,0,1-.165-.724,2.62,2.62,0,0,1-1.955.851A2.424,2.424,0,0,1,25.61-.448,1.859,1.859,0,0,1,24.959-1.9a1.942,1.942,0,0,1,.816-1.666,3.846,3.846,0,0,1,2.295-.594h1.143V-4.7a1.319,1.319,0,0,0-.368-.981,1.48,1.48,0,0,0-1.085-.365,1.712,1.712,0,0,0-1.054.317.935.935,0,0,0-.425.768H25.1a1.621,1.621,0,0,1,.365-.993,2.491,2.491,0,0,1,.99-.759A3.331,3.331,0,0,1,27.828-7a2.715,2.715,0,0,1,1.86.594,2.141,2.141,0,0,1,.7,1.635v3.161a3.865,3.865,0,0,0,.241,1.5V0ZM27.447-.9a2.064,2.064,0,0,0,1.047-.286,1.728,1.728,0,0,0,.717-.743V-3.333h-.92q-2.158,0-2.158,1.263a1.069,1.069,0,0,0,.368.863A1.415,1.415,0,0,0,27.447-.9ZM41.26-3.358a4.084,4.084,0,0,1-.724,2.53,2.312,2.312,0,0,1-1.942.955,2.394,2.394,0,0,1-2.012-.92L36.524,0H35.445V-9.75H36.62v3.637A2.381,2.381,0,0,1,38.581-7a2.326,2.326,0,0,1,1.965.946,4.206,4.206,0,0,1,.714,2.59Zm-1.174-.133a3.173,3.173,0,0,0-.463-1.854A1.534,1.534,0,0,0,38.289-6,1.724,1.724,0,0,0,36.62-4.919v2.971A1.772,1.772,0,0,0,38.3-.87a1.526,1.526,0,0,0,1.314-.654A3.374,3.374,0,0,0,40.085-3.491ZM46.979,0a2.467,2.467,0,0,1-.165-.724,2.62,2.62,0,0,1-1.955.851,2.424,2.424,0,0,1-1.666-.574A1.859,1.859,0,0,1,42.542-1.9a1.942,1.942,0,0,1,.816-1.666,3.846,3.846,0,0,1,2.295-.594h1.143V-4.7a1.319,1.319,0,0,0-.368-.981,1.48,1.48,0,0,0-1.085-.365,1.712,1.712,0,0,0-1.054.317.935.935,0,0,0-.425.768H42.682a1.621,1.621,0,0,1,.365-.993,2.491,2.491,0,0,1,.99-.759A3.331,3.331,0,0,1,45.411-7a2.715,2.715,0,0,1,1.86.594,2.141,2.141,0,0,1,.7,1.635v3.161A3.865,3.865,0,0,0,48.21-.1V0ZM45.03-.9a2.064,2.064,0,0,0,1.047-.286,1.728,1.728,0,0,0,.717-.743V-3.333h-.92q-2.158,0-2.158,1.263a1.069,1.069,0,0,0,.368.863A1.415,1.415,0,0,0,45.03-.9Zm5.992-5.973V.793q0,1.98-1.8,1.98a2.179,2.179,0,0,1-.717-.114V1.72a2.27,2.27,0,0,0,.533.051.8.8,0,0,0,.6-.213,1.051,1.051,0,0,0,.206-.74V-6.868ZM49.728-8.69a.7.7,0,0,1,.175-.479.642.642,0,0,1,.511-.2.666.666,0,0,1,.521.2.694.694,0,0,1,.178.482.671.671,0,0,1-.178.476.678.678,0,0,1-.521.19.657.657,0,0,1-.514-.19A.685.685,0,0,1,49.728-8.69ZM52.6-3.5A4.057,4.057,0,0,1,53-5.313a2.96,2.96,0,0,1,1.1-1.244A3.007,3.007,0,0,1,55.72-7a2.9,2.9,0,0,1,2.269.971,3.736,3.736,0,0,1,.866,2.583v.083a4.092,4.092,0,0,1-.384,1.8,2.916,2.916,0,0,1-1.1,1.241,3.041,3.041,0,0,1-1.641.444,2.889,2.889,0,0,1-2.263-.971A3.718,3.718,0,0,1,52.6-3.415Zm1.181.14a2.938,2.938,0,0,0,.53,1.834,1.7,1.7,0,0,0,1.419.692,1.686,1.686,0,0,0,1.422-.7A3.213,3.213,0,0,0,57.681-3.5a2.933,2.933,0,0,0-.536-1.831,1.705,1.705,0,0,0-1.425-.7,1.686,1.686,0,0,0-1.4.692A3.189,3.189,0,0,0,53.784-3.358ZM64.327-1.822a.864.864,0,0,0-.359-.74,3.452,3.452,0,0,0-1.25-.454A5.912,5.912,0,0,1,61.3-3.472a2.014,2.014,0,0,1-.774-.635,1.518,1.518,0,0,1-.251-.876,1.782,1.782,0,0,1,.714-1.428A2.789,2.789,0,0,1,62.816-7a2.87,2.87,0,0,1,1.895.6,1.915,1.915,0,0,1,.727,1.542H64.257a1.06,1.06,0,0,0-.409-.832,1.534,1.534,0,0,0-1.031-.349,1.605,1.605,0,0,0-1,.279.879.879,0,0,0-.362.73.712.712,0,0,0,.336.641A4.139,4.139,0,0,0,63-3.967a6.334,6.334,0,0,1,1.425.47,2.079,2.079,0,0,1,.809.657A1.615,1.615,0,0,1,65.5-1.9a1.758,1.758,0,0,1-.736,1.476,3.089,3.089,0,0,1-1.911.555,3.459,3.459,0,0,1-1.46-.292A2.375,2.375,0,0,1,60.4-.981a1.966,1.966,0,0,1-.359-1.133h1.174a1.216,1.216,0,0,0,.473.936,1.835,1.835,0,0,0,1.165.346,1.894,1.894,0,0,0,1.07-.27A.829.829,0,0,0,64.327-1.822Z" transform="translate(564.824 4224.043)"/>
    <path id="Trazado_996540" data-name="Trazado 996540" d="M2.3-1h4.38V0h-5.6V-9.242H2.3ZM9.16,0H7.979V-6.868H9.16Zm.013-9.744h1.422l-1.7,1.866H7.947Zm3.034,2.875L12.245-6A2.5,2.5,0,0,1,14.3-7q2.177,0,2.2,2.457V0H15.323V-4.545a1.581,1.581,0,0,0-.34-1.1A1.361,1.361,0,0,0,13.946-6a1.7,1.7,0,0,0-1,.3,2.069,2.069,0,0,0-.673.8V0H11.1V-6.868Zm8.912,7A3,3,0,0,1,18.846-.79a3.4,3.4,0,0,1-.876-2.453v-.216a4.121,4.121,0,0,1,.39-1.825,3.045,3.045,0,0,1,1.092-1.257A2.745,2.745,0,0,1,20.973-7a2.572,2.572,0,0,1,2.082.882A3.82,3.82,0,0,1,23.8-3.586V-3.1H19.145a2.441,2.441,0,0,0,.594,1.641,1.866,1.866,0,0,0,1.444.625,2.045,2.045,0,0,0,1.054-.254,2.648,2.648,0,0,0,.755-.673l.717.559A2.884,2.884,0,0,1,21.119.127ZM20.973-6.03a1.566,1.566,0,0,0-1.193.517,2.515,2.515,0,0,0-.6,1.45h3.44v-.089a2.237,2.237,0,0,0-.482-1.387A1.475,1.475,0,0,0,20.973-6.03ZM29.4,0a2.467,2.467,0,0,1-.165-.724,2.62,2.62,0,0,1-1.955.851A2.424,2.424,0,0,1,25.61-.448,1.859,1.859,0,0,1,24.959-1.9a1.942,1.942,0,0,1,.816-1.666,3.846,3.846,0,0,1,2.295-.594h1.143V-4.7a1.319,1.319,0,0,0-.368-.981,1.48,1.48,0,0,0-1.085-.365,1.712,1.712,0,0,0-1.054.317.935.935,0,0,0-.425.768H25.1a1.621,1.621,0,0,1,.365-.993,2.491,2.491,0,0,1,.99-.759A3.331,3.331,0,0,1,27.828-7a2.715,2.715,0,0,1,1.86.594,2.141,2.141,0,0,1,.7,1.635v3.161a3.865,3.865,0,0,0,.241,1.5V0ZM27.447-.9a2.064,2.064,0,0,0,1.047-.286,1.728,1.728,0,0,0,.717-.743V-3.333h-.92q-2.158,0-2.158,1.263a1.069,1.069,0,0,0,.368.863A1.415,1.415,0,0,0,27.447-.9ZM38.2-.832a1.692,1.692,0,0,0,1.1-.381,1.34,1.34,0,0,0,.521-.952H40.93a2.13,2.13,0,0,1-.406,1.124,2.676,2.676,0,0,1-1,.851A2.885,2.885,0,0,1,38.2.127a2.829,2.829,0,0,1-2.231-.936,3.729,3.729,0,0,1-.828-2.561v-.2a4.135,4.135,0,0,1,.368-1.784,2.8,2.8,0,0,1,1.057-1.212A3,3,0,0,1,38.194-7a2.755,2.755,0,0,1,1.92.692,2.473,2.473,0,0,1,.816,1.8H39.819a1.618,1.618,0,0,0-.5-1.095,1.57,1.57,0,0,0-1.12-.428,1.644,1.644,0,0,0-1.387.644,3.026,3.026,0,0,0-.492,1.863V-3.3A2.965,2.965,0,0,0,36.8-1.473,1.651,1.651,0,0,0,38.2-.832ZM43.526,0H42.352V-6.868h1.174Zm-1.27-8.69a.7.7,0,0,1,.175-.482.655.655,0,0,1,.517-.2.666.666,0,0,1,.521.2.694.694,0,0,1,.178.482.671.671,0,0,1-.178.476.678.678,0,0,1-.521.19.667.667,0,0,1-.517-.19A.678.678,0,0,1,42.256-8.69Zm4.259,1.822L46.554-6A2.5,2.5,0,0,1,48.61-7q2.177,0,2.2,2.457V0H49.632V-4.545a1.581,1.581,0,0,0-.34-1.1A1.361,1.361,0,0,0,48.255-6a1.7,1.7,0,0,0-1,.3,2.069,2.069,0,0,0-.673.8V0H45.4V-6.868Zm7.655-1.663v1.663h1.282v.908H54.171V-1.7a.951.951,0,0,0,.171.619.722.722,0,0,0,.584.206,2.843,2.843,0,0,0,.559-.076V0a3.4,3.4,0,0,1-.9.127A1.462,1.462,0,0,1,53.4-.349,2.045,2.045,0,0,1,53-1.7V-5.96h-1.25v-.908H53V-8.531ZM61.064-.679a2.494,2.494,0,0,1-2.012.806A2.135,2.135,0,0,1,57.38-.511,2.761,2.761,0,0,1,56.8-2.4V-6.868h1.174v4.437q0,1.562,1.27,1.562a1.758,1.758,0,0,0,1.79-1v-5h1.174V0H61.09Zm6.246-5.135a3.519,3.519,0,0,0-.578-.044,1.547,1.547,0,0,0-1.568.984V0H63.991V-6.868h1.143l.019.793A1.829,1.829,0,0,1,66.79-7a1.2,1.2,0,0,1,.521.089ZM72.129,0a2.467,2.467,0,0,1-.165-.724,2.62,2.62,0,0,1-1.955.851,2.424,2.424,0,0,1-1.666-.574A1.859,1.859,0,0,1,67.692-1.9a1.942,1.942,0,0,1,.816-1.666A3.846,3.846,0,0,1,70.8-4.164h1.143V-4.7a1.319,1.319,0,0,0-.368-.981,1.48,1.48,0,0,0-1.085-.365,1.712,1.712,0,0,0-1.054.317.935.935,0,0,0-.425.768H67.832a1.621,1.621,0,0,1,.365-.993,2.491,2.491,0,0,1,.99-.759A3.331,3.331,0,0,1,70.561-7a2.715,2.715,0,0,1,1.86.594,2.141,2.141,0,0,1,.7,1.635v3.161A3.865,3.865,0,0,0,73.36-.1V0ZM70.18-.9a2.064,2.064,0,0,0,1.047-.286,1.728,1.728,0,0,0,.717-.743V-3.333h-.92q-2.158,0-2.158,1.263a1.069,1.069,0,0,0,.368.863A1.415,1.415,0,0,0,70.18-.9Z" transform="translate(343.087 4048.87)"/>
    <path id="Trazado_996541" data-name="Trazado 996541" d="M2.3-1h4.38V0h-5.6V-9.242H2.3ZM9.16,0H7.979V-6.868H9.16Zm.013-9.744h1.422l-1.7,1.866H7.947Zm3.034,2.875L12.245-6A2.5,2.5,0,0,1,14.3-7q2.177,0,2.2,2.457V0H15.323V-4.545a1.581,1.581,0,0,0-.34-1.1A1.361,1.361,0,0,0,13.946-6a1.7,1.7,0,0,0-1,.3,2.069,2.069,0,0,0-.673.8V0H11.1V-6.868Zm8.912,7A3,3,0,0,1,18.846-.79a3.4,3.4,0,0,1-.876-2.453v-.216a4.121,4.121,0,0,1,.39-1.825,3.045,3.045,0,0,1,1.092-1.257A2.745,2.745,0,0,1,20.973-7a2.572,2.572,0,0,1,2.082.882A3.82,3.82,0,0,1,23.8-3.586V-3.1H19.145a2.441,2.441,0,0,0,.594,1.641,1.866,1.866,0,0,0,1.444.625,2.045,2.045,0,0,0,1.054-.254,2.648,2.648,0,0,0,.755-.673l.717.559A2.884,2.884,0,0,1,21.119.127ZM20.973-6.03a1.566,1.566,0,0,0-1.193.517,2.515,2.515,0,0,0-.6,1.45h3.44v-.089a2.237,2.237,0,0,0-.482-1.387A1.475,1.475,0,0,0,20.973-6.03ZM29.4,0a2.467,2.467,0,0,1-.165-.724,2.62,2.62,0,0,1-1.955.851A2.424,2.424,0,0,1,25.61-.448,1.859,1.859,0,0,1,24.959-1.9a1.942,1.942,0,0,1,.816-1.666,3.846,3.846,0,0,1,2.295-.594h1.143V-4.7a1.319,1.319,0,0,0-.368-.981,1.48,1.48,0,0,0-1.085-.365,1.712,1.712,0,0,0-1.054.317.935.935,0,0,0-.425.768H25.1a1.621,1.621,0,0,1,.365-.993,2.491,2.491,0,0,1,.99-.759A3.331,3.331,0,0,1,27.828-7a2.715,2.715,0,0,1,1.86.594,2.141,2.141,0,0,1,.7,1.635v3.161a3.865,3.865,0,0,0,.241,1.5V0ZM27.447-.9a2.064,2.064,0,0,0,1.047-.286,1.728,1.728,0,0,0,.717-.743V-3.333h-.92q-2.158,0-2.158,1.263a1.069,1.069,0,0,0,.368.863A1.415,1.415,0,0,0,27.447-.9ZM41.26-3.358a4.084,4.084,0,0,1-.724,2.53,2.312,2.312,0,0,1-1.942.955,2.394,2.394,0,0,1-2.012-.92L36.524,0H35.445V-9.75H36.62v3.637A2.381,2.381,0,0,1,38.581-7a2.326,2.326,0,0,1,1.965.946,4.206,4.206,0,0,1,.714,2.59Zm-1.174-.133a3.173,3.173,0,0,0-.463-1.854A1.534,1.534,0,0,0,38.289-6,1.724,1.724,0,0,0,36.62-4.919v2.971A1.772,1.772,0,0,0,38.3-.87a1.526,1.526,0,0,0,1.314-.654A3.374,3.374,0,0,0,40.085-3.491ZM46.979,0a2.467,2.467,0,0,1-.165-.724,2.62,2.62,0,0,1-1.955.851,2.424,2.424,0,0,1-1.666-.574A1.859,1.859,0,0,1,42.542-1.9a1.942,1.942,0,0,1,.816-1.666,3.846,3.846,0,0,1,2.295-.594h1.143V-4.7a1.319,1.319,0,0,0-.368-.981,1.48,1.48,0,0,0-1.085-.365,1.712,1.712,0,0,0-1.054.317.935.935,0,0,0-.425.768H42.682a1.621,1.621,0,0,1,.365-.993,2.491,2.491,0,0,1,.99-.759A3.331,3.331,0,0,1,45.411-7a2.715,2.715,0,0,1,1.86.594,2.141,2.141,0,0,1,.7,1.635v3.161A3.865,3.865,0,0,0,48.21-.1V0ZM45.03-.9a2.064,2.064,0,0,0,1.047-.286,1.728,1.728,0,0,0,.717-.743V-3.333h-.92q-2.158,0-2.158,1.263a1.069,1.069,0,0,0,.368.863A1.415,1.415,0,0,0,45.03-.9Zm5.992-5.973V.793q0,1.98-1.8,1.98a2.179,2.179,0,0,1-.717-.114V1.72a2.27,2.27,0,0,0,.533.051.8.8,0,0,0,.6-.213,1.051,1.051,0,0,0,.206-.74V-6.868ZM49.728-8.69a.7.7,0,0,1,.175-.479.642.642,0,0,1,.511-.2.666.666,0,0,1,.521.2.694.694,0,0,1,.178.482.671.671,0,0,1-.178.476.678.678,0,0,1-.521.19.657.657,0,0,1-.514-.19A.685.685,0,0,1,49.728-8.69ZM52.6-3.5A4.057,4.057,0,0,1,53-5.313a2.96,2.96,0,0,1,1.1-1.244A3.007,3.007,0,0,1,55.72-7a2.9,2.9,0,0,1,2.269.971,3.736,3.736,0,0,1,.866,2.583v.083a4.092,4.092,0,0,1-.384,1.8,2.916,2.916,0,0,1-1.1,1.241,3.041,3.041,0,0,1-1.641.444,2.889,2.889,0,0,1-2.263-.971A3.718,3.718,0,0,1,52.6-3.415Zm1.181.14a2.938,2.938,0,0,0,.53,1.834,1.7,1.7,0,0,0,1.419.692,1.686,1.686,0,0,0,1.422-.7A3.213,3.213,0,0,0,57.681-3.5a2.933,2.933,0,0,0-.536-1.831,1.705,1.705,0,0,0-1.425-.7,1.686,1.686,0,0,0-1.4.692A3.189,3.189,0,0,0,53.784-3.358ZM64.327-1.822a.864.864,0,0,0-.359-.74,3.452,3.452,0,0,0-1.25-.454A5.912,5.912,0,0,1,61.3-3.472a2.014,2.014,0,0,1-.774-.635,1.518,1.518,0,0,1-.251-.876,1.782,1.782,0,0,1,.714-1.428A2.789,2.789,0,0,1,62.816-7a2.87,2.87,0,0,1,1.895.6,1.915,1.915,0,0,1,.727,1.542H64.257a1.06,1.06,0,0,0-.409-.832,1.534,1.534,0,0,0-1.031-.349,1.605,1.605,0,0,0-1,.279.879.879,0,0,0-.362.73.712.712,0,0,0,.336.641A4.139,4.139,0,0,0,63-3.967a6.334,6.334,0,0,1,1.425.47,2.079,2.079,0,0,1,.809.657A1.615,1.615,0,0,1,65.5-1.9a1.758,1.758,0,0,1-.736,1.476,3.089,3.089,0,0,1-1.911.555,3.459,3.459,0,0,1-1.46-.292A2.375,2.375,0,0,1,60.4-.981a1.966,1.966,0,0,1-.359-1.133h1.174a1.216,1.216,0,0,0,.473.936,1.835,1.835,0,0,0,1.165.346,1.894,1.894,0,0,0,1.07-.27A.829.829,0,0,0,64.327-1.822Z" transform="translate(343.087 4224.043)"/>
    <path id="Trazado_996542" data-name="Trazado 996542" d="M2.3-1h4.38V0h-5.6V-9.242H2.3ZM9.16,0H7.979V-6.868H9.16Zm.013-9.744h1.422l-1.7,1.866H7.947Zm3.034,2.875L12.245-6A2.5,2.5,0,0,1,14.3-7q2.177,0,2.2,2.457V0H15.323V-4.545a1.581,1.581,0,0,0-.34-1.1A1.361,1.361,0,0,0,13.946-6a1.7,1.7,0,0,0-1,.3,2.069,2.069,0,0,0-.673.8V0H11.1V-6.868Zm8.912,7A3,3,0,0,1,18.846-.79a3.4,3.4,0,0,1-.876-2.453v-.216a4.121,4.121,0,0,1,.39-1.825,3.045,3.045,0,0,1,1.092-1.257A2.745,2.745,0,0,1,20.973-7a2.572,2.572,0,0,1,2.082.882A3.82,3.82,0,0,1,23.8-3.586V-3.1H19.145a2.441,2.441,0,0,0,.594,1.641,1.866,1.866,0,0,0,1.444.625,2.045,2.045,0,0,0,1.054-.254,2.648,2.648,0,0,0,.755-.673l.717.559A2.884,2.884,0,0,1,21.119.127ZM20.973-6.03a1.566,1.566,0,0,0-1.193.517,2.515,2.515,0,0,0-.6,1.45h3.44v-.089a2.237,2.237,0,0,0-.482-1.387A1.475,1.475,0,0,0,20.973-6.03ZM29.4,0a2.467,2.467,0,0,1-.165-.724,2.62,2.62,0,0,1-1.955.851A2.424,2.424,0,0,1,25.61-.448,1.859,1.859,0,0,1,24.959-1.9a1.942,1.942,0,0,1,.816-1.666,3.846,3.846,0,0,1,2.295-.594h1.143V-4.7a1.319,1.319,0,0,0-.368-.981,1.48,1.48,0,0,0-1.085-.365,1.712,1.712,0,0,0-1.054.317.935.935,0,0,0-.425.768H25.1a1.621,1.621,0,0,1,.365-.993,2.491,2.491,0,0,1,.99-.759A3.331,3.331,0,0,1,27.828-7a2.715,2.715,0,0,1,1.86.594,2.141,2.141,0,0,1,.7,1.635v3.161a3.865,3.865,0,0,0,.241,1.5V0ZM27.447-.9a2.064,2.064,0,0,0,1.047-.286,1.728,1.728,0,0,0,.717-.743V-3.333h-.92q-2.158,0-2.158,1.263a1.069,1.069,0,0,0,.368.863A1.415,1.415,0,0,0,27.447-.9ZM36.62-6.037A2.5,2.5,0,0,1,38.651-7q2.177,0,2.2,2.457V0H39.673V-4.545a1.581,1.581,0,0,0-.34-1.1A1.361,1.361,0,0,0,38.3-6a1.7,1.7,0,0,0-1,.3,2.069,2.069,0,0,0-.673.8V0H35.445V-9.75H36.62ZM42.294-3.5a4.057,4.057,0,0,1,.4-1.815,2.96,2.96,0,0,1,1.1-1.244A3.007,3.007,0,0,1,45.411-7a2.9,2.9,0,0,1,2.269.971,3.736,3.736,0,0,1,.866,2.583v.083a4.092,4.092,0,0,1-.384,1.8,2.916,2.916,0,0,1-1.1,1.241,3.041,3.041,0,0,1-1.641.444,2.889,2.889,0,0,1-2.263-.971,3.718,3.718,0,0,1-.866-2.571Zm1.181.14a2.938,2.938,0,0,0,.53,1.834,1.7,1.7,0,0,0,1.419.692,1.686,1.686,0,0,0,1.422-.7A3.213,3.213,0,0,0,47.373-3.5a2.933,2.933,0,0,0-.536-1.831,1.705,1.705,0,0,0-1.425-.7,1.686,1.686,0,0,0-1.4.692A3.189,3.189,0,0,0,43.475-3.358Zm7.649-3.51.032.762A2.536,2.536,0,0,1,53.193-7a1.964,1.964,0,0,1,1.961,1.1,2.6,2.6,0,0,1,.892-.8,2.634,2.634,0,0,1,1.3-.3q2.26,0,2.3,2.393V0H58.468V-4.532a1.577,1.577,0,0,0-.336-1.1A1.482,1.482,0,0,0,57-6a1.557,1.557,0,0,0-1.085.39,1.584,1.584,0,0,0-.5,1.051V0H54.234V-4.5A1.31,1.31,0,0,0,52.768-6a1.571,1.571,0,0,0-1.581.984V0H50.013V-6.868Zm16.1,3.51A4.084,4.084,0,0,1,66.5-.828a2.312,2.312,0,0,1-1.942.955,2.394,2.394,0,0,1-2.012-.92L62.493,0H61.414V-9.75h1.174v3.637A2.381,2.381,0,0,1,64.549-7a2.326,2.326,0,0,1,1.965.946,4.206,4.206,0,0,1,.714,2.59Zm-1.174-.133a3.173,3.173,0,0,0-.463-1.854A1.534,1.534,0,0,0,64.257-6a1.724,1.724,0,0,0-1.669,1.079v2.971A1.772,1.772,0,0,0,64.27-.87a1.526,1.526,0,0,0,1.314-.654A3.375,3.375,0,0,0,66.054-3.491Zm5.973-2.323a3.519,3.519,0,0,0-.578-.044,1.547,1.547,0,0,0-1.568.984V0H68.707V-6.868H69.85l.019.793A1.829,1.829,0,0,1,71.506-7a1.2,1.2,0,0,1,.521.089ZM72.551-3.5a4.057,4.057,0,0,1,.4-1.815,2.96,2.96,0,0,1,1.1-1.244A3.007,3.007,0,0,1,75.668-7a2.9,2.9,0,0,1,2.269.971A3.736,3.736,0,0,1,78.8-3.44v.083a4.092,4.092,0,0,1-.384,1.8,2.916,2.916,0,0,1-1.1,1.241A3.041,3.041,0,0,1,75.68.127a2.889,2.889,0,0,1-2.263-.971,3.718,3.718,0,0,1-.866-2.571Zm1.181.14a2.938,2.938,0,0,0,.53,1.834,1.7,1.7,0,0,0,1.419.692,1.686,1.686,0,0,0,1.422-.7A3.213,3.213,0,0,0,77.629-3.5a2.933,2.933,0,0,0-.536-1.831,1.705,1.705,0,0,0-1.425-.7,1.686,1.686,0,0,0-1.4.692A3.189,3.189,0,0,0,73.732-3.358ZM84.275-1.822a.864.864,0,0,0-.359-.74,3.452,3.452,0,0,0-1.25-.454,5.912,5.912,0,0,1-1.416-.457,2.014,2.014,0,0,1-.774-.635,1.518,1.518,0,0,1-.251-.876,1.782,1.782,0,0,1,.714-1.428A2.789,2.789,0,0,1,82.764-7a2.87,2.87,0,0,1,1.895.6,1.915,1.915,0,0,1,.727,1.542H84.205a1.06,1.06,0,0,0-.409-.832,1.534,1.534,0,0,0-1.031-.349,1.606,1.606,0,0,0-1,.279.879.879,0,0,0-.362.73.712.712,0,0,0,.336.641,4.139,4.139,0,0,0,1.216.413,6.334,6.334,0,0,1,1.425.47,2.079,2.079,0,0,1,.809.657,1.615,1.615,0,0,1,.263.936,1.758,1.758,0,0,1-.736,1.476A3.089,3.089,0,0,1,82.8.127a3.459,3.459,0,0,1-1.46-.292,2.375,2.375,0,0,1-.993-.816,1.966,1.966,0,0,1-.359-1.133h1.174a1.216,1.216,0,0,0,.473.936A1.835,1.835,0,0,0,82.8-.832a1.894,1.894,0,0,0,1.07-.27A.829.829,0,0,0,84.275-1.822Z" transform="translate(588.152 3833.208)"/>
    <path id="Trazado_996543" data-name="Trazado 996543" d="M2.3-1h4.38V0h-5.6V-9.242H2.3ZM9.16,0H7.979V-6.868H9.16Zm.013-9.744h1.422l-1.7,1.866H7.947Zm3.034,2.875L12.245-6A2.5,2.5,0,0,1,14.3-7q2.177,0,2.2,2.457V0H15.323V-4.545a1.581,1.581,0,0,0-.34-1.1A1.361,1.361,0,0,0,13.946-6a1.7,1.7,0,0,0-1,.3,2.069,2.069,0,0,0-.673.8V0H11.1V-6.868Zm8.912,7A3,3,0,0,1,18.846-.79a3.4,3.4,0,0,1-.876-2.453v-.216a4.121,4.121,0,0,1,.39-1.825,3.045,3.045,0,0,1,1.092-1.257A2.745,2.745,0,0,1,20.973-7a2.572,2.572,0,0,1,2.082.882A3.82,3.82,0,0,1,23.8-3.586V-3.1H19.145a2.441,2.441,0,0,0,.594,1.641,1.866,1.866,0,0,0,1.444.625,2.045,2.045,0,0,0,1.054-.254,2.648,2.648,0,0,0,.755-.673l.717.559A2.884,2.884,0,0,1,21.119.127ZM20.973-6.03a1.566,1.566,0,0,0-1.193.517,2.515,2.515,0,0,0-.6,1.45h3.44v-.089a2.237,2.237,0,0,0-.482-1.387A1.475,1.475,0,0,0,20.973-6.03ZM29.4,0a2.467,2.467,0,0,1-.165-.724,2.62,2.62,0,0,1-1.955.851A2.424,2.424,0,0,1,25.61-.448,1.859,1.859,0,0,1,24.959-1.9a1.942,1.942,0,0,1,.816-1.666,3.846,3.846,0,0,1,2.295-.594h1.143V-4.7a1.319,1.319,0,0,0-.368-.981,1.48,1.48,0,0,0-1.085-.365,1.712,1.712,0,0,0-1.054.317.935.935,0,0,0-.425.768H25.1a1.621,1.621,0,0,1,.365-.993,2.491,2.491,0,0,1,.99-.759A3.331,3.331,0,0,1,27.828-7a2.715,2.715,0,0,1,1.86.594,2.141,2.141,0,0,1,.7,1.635v3.161a3.865,3.865,0,0,0,.241,1.5V0ZM27.447-.9a2.064,2.064,0,0,0,1.047-.286,1.728,1.728,0,0,0,.717-.743V-3.333h-.92q-2.158,0-2.158,1.263a1.069,1.069,0,0,0,.368.863A1.415,1.415,0,0,0,27.447-.9Zm9.591-7.636v1.663h1.282v.908H37.039V-1.7a.951.951,0,0,0,.171.619.722.722,0,0,0,.584.206,2.843,2.843,0,0,0,.559-.076V0a3.4,3.4,0,0,1-.9.127,1.462,1.462,0,0,1-1.187-.476,2.045,2.045,0,0,1-.4-1.352V-5.96h-1.25v-.908h1.25V-8.531ZM39.264-3.5a4.057,4.057,0,0,1,.4-1.815,2.96,2.96,0,0,1,1.1-1.244A3.007,3.007,0,0,1,42.381-7a2.9,2.9,0,0,1,2.269.971,3.736,3.736,0,0,1,.866,2.583v.083a4.092,4.092,0,0,1-.384,1.8,2.916,2.916,0,0,1-1.1,1.241,3.041,3.041,0,0,1-1.641.444A2.889,2.889,0,0,1,40.13-.844a3.718,3.718,0,0,1-.866-2.571Zm1.181.14a2.938,2.938,0,0,0,.53,1.834,1.7,1.7,0,0,0,1.419.692,1.686,1.686,0,0,0,1.422-.7A3.213,3.213,0,0,0,44.342-3.5a2.933,2.933,0,0,0-.536-1.831,1.705,1.705,0,0,0-1.425-.7,1.686,1.686,0,0,0-1.4.692A3.189,3.189,0,0,0,40.445-3.358ZM42.914-9.75h1.422l-1.7,1.866h-.946Zm7.4,3.936a3.519,3.519,0,0,0-.578-.044,1.547,1.547,0,0,0-1.568.984V0H46.989V-6.868h1.143l.019.793A1.829,1.829,0,0,1,49.788-7a1.2,1.2,0,0,1,.521.089ZM55.127,0a2.467,2.467,0,0,1-.165-.724,2.62,2.62,0,0,1-1.955.851,2.424,2.424,0,0,1-1.666-.574A1.859,1.859,0,0,1,50.69-1.9a1.942,1.942,0,0,1,.816-1.666A3.846,3.846,0,0,1,53.8-4.164h1.143V-4.7a1.319,1.319,0,0,0-.368-.981,1.48,1.48,0,0,0-1.085-.365,1.712,1.712,0,0,0-1.054.317.935.935,0,0,0-.425.768H50.83a1.621,1.621,0,0,1,.365-.993,2.491,2.491,0,0,1,.99-.759A3.331,3.331,0,0,1,53.559-7a2.715,2.715,0,0,1,1.86.594,2.141,2.141,0,0,1,.7,1.635v3.161a3.865,3.865,0,0,0,.241,1.5V0ZM53.178-.9a2.064,2.064,0,0,0,1.047-.286,1.728,1.728,0,0,0,.717-.743V-3.333h-.92q-2.158,0-2.158,1.263a1.069,1.069,0,0,0,.368.863A1.415,1.415,0,0,0,53.178-.9Zm7.084-3.466,1.523-2.507h1.371l-2.247,3.4L63.227,0H61.868L60.282-2.571,58.695,0H57.33l2.317-3.472L57.4-6.868h1.358Z" transform="translate(317.347 3833.208)"/>
    <g id="Grupo_1177151" data-name="Grupo 1177151" transform="translate(223.711 3687)">
      <g id="Grupo_1177150" data-name="Grupo 1177150" clip-path="url(#clip-path)">
        <path id="Trazado_995571" data-name="Trazado 995571" d="M510.793,557.45h-.026L24.406,546.6a1.164,1.164,0,0,1-1.137-1.163V109.207a1.163,1.163,0,0,1,1.044-1.157c43.272-4.486,65.266-25.155,76.1-41.7a84.792,84.792,0,0,0,13.313-35.279,1.163,1.163,0,0,1,1.64-.964l100.27,45.483a1.161,1.161,0,0,1,.647,1.34c-9.034,36.252-12.392,66.45-9.98,89.752,1.937,18.722,7.588,33.066,16.795,42.634,17.136,17.808,41.2,13.033,41.437,12.982a.734.734,0,0,1,.093-.016c12.493-1.583,22.875-7.788,30.859-18.44,32.487-43.341,16.372-147.157,16.206-148.2a1.164,1.164,0,0,1,.883-1.316L416.46,30.029a1.164,1.164,0,0,1,1.282.568c17.773,32.042,87.09,26.853,87.789,26.8a1.162,1.162,0,0,1,1.256,1.147l5.168,497.732a1.162,1.162,0,0,1-1.163,1.175M25.595,544.3l484.023,10.8L504.475,59.8A201.506,201.506,0,0,1,467.9,58.415c-25.965-3.535-43.831-12.491-51.753-25.923l-102,23.85a424.382,424.382,0,0,1,4.076,57.063c.053,42.382-6.972,73.277-20.878,91.828-8.368,11.165-19.265,17.674-32.39,19.347-1.317.256-25.869,4.678-43.513-13.631-9.584-9.946-15.456-24.751-17.453-44-2.424-23.374.873-53.531,9.8-89.644L115.852,32.879a87.94,87.94,0,0,1-13.434,34.646C91.4,84.4,69.15,105.443,25.595,110.251Z" transform="translate(-5.229 -6.741)" fill="#0048c5"/>
        <path id="Trazado_995572" data-name="Trazado 995572" d="M24.657,108.171h-.015a.388.388,0,0,1-.373-.4l3.1-83.731a.388.388,0,0,1,.388-.373H506.883a.388.388,0,0,1,.388.4l-1.033,33.079a.4.4,0,0,1-.4.375.388.388,0,0,1-.375-.4l1.021-32.679H28.131L25.044,107.8a.388.388,0,0,1-.388.373" transform="translate(-5.454 -5.318)"/>
        <path id="Trazado_995573" data-name="Trazado 995573" d="M255.938,207.144q-.6,0-1.189-.019l.026-.775a36.662,36.662,0,0,0,3.832-.077l.054.775c-.917.064-1.834.1-2.724.1m-5.084-.369a30.846,30.846,0,0,1-3.821-.82l.211-.747a30.034,30.034,0,0,0,3.724.8Zm11.691-.18-.122-.766c1.149-.185,2.336-.422,3.528-.7l.06-.015.062.005c.007,0,.084.007.227.011l-.022.775c-.092,0-.162-.006-.207-.009-1.19.28-2.376.515-3.526.7m7.683-1.069-.147-.762a26.367,26.367,0,0,0,3.686-1l.256.732a27.126,27.126,0,0,1-3.8,1.032m-26.878-.88a29.768,29.768,0,0,1-3.479-1.789l.4-.664a29,29,0,0,0,3.388,1.741Zm34.284-1.685-.347-.694a33.752,33.752,0,0,0,3.318-1.906l.423.65a34.575,34.575,0,0,1-3.394,1.951m-40.982-2.327a34.489,34.489,0,0,1-2.928-2.591l.545-.551a33.681,33.681,0,0,0,2.862,2.533Zm47.536-1.92-.486-.6c.974-.785,1.939-1.638,2.869-2.539l.54.557c-.947.916-1.93,1.786-2.923,2.586m-53.1-3.559c-.806-.978-1.6-2.029-2.348-3.122l.64-.439c.739,1.075,1.514,2.107,2.306,3.067Zm58.708-1.849-.581-.512c.826-.938,1.644-1.937,2.433-2.972l.616.469c-.8,1.049-1.63,2.063-2.468,3.014m-63.14-4.571c-.637-1.1-1.259-2.252-1.847-3.435l.694-.346c.581,1.168,1.195,2.309,1.823,3.391Zm67.866-1.613-.645-.43c.7-1.044,1.384-2.141,2.044-3.26l.668.393c-.666,1.132-1.361,2.241-2.066,3.3m-71.349-5.361c-.5-1.154-.984-2.371-1.45-3.616l.727-.271c.461,1.232.944,2.438,1.434,3.581Zm75.3-1.333-.687-.361c.583-1.112,1.158-2.274,1.71-3.452l.7.328c-.557,1.19-1.138,2.362-1.726,3.485m-78.035-5.958c-.392-1.2-.773-2.454-1.134-3.724l.745-.212c.36,1.261.738,2.5,1.126,3.7Zm81.337-1.078-.715-.3c.49-1.166.971-2.372,1.429-3.583l.726.274c-.462,1.22-.946,2.434-1.44,3.608m-83.473-6.405c-.306-1.232-.6-2.507-.884-3.79l.757-.165c.279,1.275.574,2.542.88,3.767Zm86.226-.858-.734-.25c.4-1.185.806-2.42,1.192-3.672l.74.229c-.388,1.258-.792,2.5-1.2,3.693m-87.887-6.742q-.363-1.9-.681-3.828l.764-.128q.317,1.919.678,3.811Zm90.177-.677-.747-.209q.508-1.818.989-3.733l.752.189q-.485,1.923-.995,3.753m-91.451-7q-.274-1.919-.511-3.853l.769-.094q.236,1.925.509,3.837Zm93.35-.532-.755-.173q.42-1.846.816-3.776l.76.154q-.4,1.941-.82,3.8m-94.3-7.189q-.2-1.934-.369-3.87l.772-.067q.167,1.929.367,3.856Zm95.861-.414-.762-.14q.344-1.866.668-3.808l.764.127q-.323,1.948-.671,3.821m-96.534-7.327q-.137-1.942-.244-3.877l.774-.043q.108,1.928.244,3.866Zm97.806-.329-.767-.113q.279-1.882.537-3.831l.769.1q-.26,1.957-.54,3.843m-98.239-7.43q-.081-1.953-.136-3.883l.775-.022q.055,1.923.136,3.873Zm99.257-.264-.77-.089q.221-1.892.423-3.845l.771.079q-.2,1.96-.423,3.855m-99.48-7.5q-.031-1.963-.039-3.886l.775,0q.008,1.919.039,3.876Zm100.274-.215-.773-.069q.171-1.9.322-3.855l.772.059q-.151,1.961-.321,3.866m-99.532-7.547-.775-.006q.014-1.97.049-3.881l.775.014q-.034,1.906-.049,3.873m100.126-.188-.774-.05q.124-1.9.229-3.863l.774.043q-.106,1.96-.229,3.871m-99.986-7.56-.775-.021q.056-1.984.13-3.88l.775.03q-.073,1.89-.13,3.87m100.4-.186-.775-.033q.081-1.91.147-3.869l.775.026q-.065,1.962-.147,3.876m-100.1-7.555-.774-.037q.1-2.008.21-3.876l.774.045q-.11,1.864-.21,3.869m100.357-.2-.775-.019q.044-1.912.072-3.871l.775.011q-.027,1.962-.072,3.879M25.99,93.376c-.341,0-.519,0-.519,0l.022-.775s.175,0,.5,0c.557,0,1.733-.015,3.362-.116l.048.774c-1.65.1-2.845.117-3.41.117m7.3-.457-.087-.771c1.26-.141,2.551-.316,3.834-.519l.121.767c-1.295.2-2.6.38-3.868.523M41,91.7l-.154-.76c1.254-.255,2.523-.542,3.77-.853l.188.753c-1.259.313-2.538.6-3.8.86m7.567-1.886-.221-.743c1.24-.368,2.477-.768,3.677-1.185l.254.733c-1.21.422-2.459.823-3.711,1.2m166.171-.075-.774-.053c.095-1.374.192-2.668.288-3.873l.772.063c-.1,1.2-.192,2.493-.287,3.863m100.008-.222-.775,0q.007-1.2.006-2.424l0-1.448.775,0,0,1.451q0,1.223-.006,2.429M55.927,87.253l-.289-.719c1.2-.481,2.392-.994,3.545-1.524l.324.7c-1.166.535-2.37,1.053-3.58,1.539M63.008,84l-.359-.688c1.147-.6,2.28-1.227,3.372-1.872l.393.668c-1.1.651-2.248,1.288-3.406,1.892m152.347-1.986-.772-.07c.139-1.54.269-2.841.377-3.866l.771.08c-.107,1.024-.236,2.32-.375,3.856m98.593-.247q-.022-1.918-.057-3.873l.775-.016q.036,1.961.057,3.879ZM69.716,80.042l-.428-.646c1.066-.709,2.126-1.456,3.15-2.22l.464.621c-1.035.773-2.106,1.527-3.186,2.244m6.24-4.662-.5-.595c.979-.819,1.949-1.679,2.882-2.555l.53.564c-.943.886-1.923,1.755-2.914,2.585m138.459-.08-3.536-1.589L211.2,73l3.536,1.589ZM313.8,74.022q-.05-1.918-.114-3.872l.775-.026q.063,1.957.114,3.877Zm-106.457-1.9-3.537-1.589.318-.708,3.537,1.589ZM81.632,70.049l-.561-.534c.877-.923,1.742-1.887,2.57-2.865l.592.5c-.839.99-1.713,1.964-2.6,2.9m118.641-1.1-3.536-1.589.318-.707,3.536,1.589ZM313.545,66.28q-.077-1.918-.167-3.871l.774-.036q.092,1.956.169,3.876ZM193.2,65.766l-3.536-1.589.318-.707,3.536,1.589ZM86.666,64.11l-.619-.466c.766-1.016,1.517-2.071,2.233-3.137l.643.432c-.723,1.078-1.482,2.145-2.257,3.171m99.464-1.521L182.594,61l.318-.707,3.536,1.589Zm-7.073-3.177-3.535-1.589.318-.707,3.536,1.589Zm134.129-.871q-.1-1.918-.216-3.867l.774-.045q.116,1.953.216,3.871ZM91,57.649l-.666-.4c.649-1.091,1.282-2.221,1.882-3.359l.685.361c-.605,1.151-1.245,2.293-1.9,3.395m80.985-1.416-3.535-1.589.318-.707,3.536,1.589Zm144.806-2.414-.179-.754,3.773-.89.179.754Zm-151.877-.763-3.535-1.589.318-.707,3.535,1.588Zm159.422-1.018-.178-.754,3.773-.89.178.754ZM94.627,50.766l-.7-.326c.531-1.147,1.047-2.336,1.534-3.534l.718.292c-.491,1.208-1.012,2.409-1.548,3.567m237.255-.51L331.7,49.5l3.773-.891.179.754Zm-174.04-.378-3.535-1.589.318-.707,3.535,1.589Zm181.585-1.4-.179-.754,3.773-.891.178.754ZM150.771,46.7l-3.535-1.589.318-.707,3.535,1.589Zm196.2-.006-.178-.754,3.773-.891.179.754Zm7.546-1.78-.179-.754,3.773-.891.178.754Zm146.59-.086,0-.775q1.9-.009,3.872-.038l.012.775q-1.977.03-3.881.038m-3.88,0q-1.98-.012-3.879-.047l.014-.775q1.894.034,3.87.047Zm-7.757-.142q-1.984-.06-3.876-.147l.035-.774q1.887.084,3.866.145Zm-7.751-.349q-1.99-.12-3.871-.267l.06-.772q1.875.145,3.858.265Zm-7.737-.6q-1.994-.2-3.859-.419l.092-.769q1.857.221,3.841.416Zm-376.43-.169-.731-.257c.424-1.2.829-2.434,1.2-3.661l.742.226c-.378,1.238-.786,2.481-1.214,3.693m46.146-.04-3.536-1.589.319-.707,3.535,1.589Zm218.364-.39-.178-.754,3.773-.89.178.754ZM466.277,42.8c-1.3-.188-2.593-.395-3.835-.612l.133-.764c1.234.216,2.517.42,3.812.608Zm-7.65-1.344c-1.309-.274-2.582-.569-3.786-.874l.191-.751c1.193.3,2.456.594,3.755.867Zm-89.018-.109-.179-.754,3.773-.891.179.754ZM136.628,40.344l-3.536-1.589.319-.707,3.535,1.589Zm240.526-.775-.178-.754,3.773-.89.178.754Zm73.943-.029c-1.286-.4-2.526-.818-3.685-1.257l.274-.726c1.144.433,2.368.851,3.638,1.242Zm-66.4-1.752-.178-.754,3.773-.892.179.754Zm-255.143-.623-3.537-1.589.318-.707,3.537,1.589Zm314.264-.405a33.906,33.906,0,0,1-3.431-1.875l.412-.656a33.258,33.258,0,0,0,3.354,1.832Zm-344-.633-.75-.2c.32-1.23.621-2.493.9-3.751l.757.165c-.277,1.268-.581,2.541-.9,3.781m292.424-.121-.179-.754,3.773-.891.178.754Zm7.545-1.781-.178-.754,3.773-.892.179.754Zm-277.307-.237L118.948,32.4l.318-.707,3.536,1.589Zm314.758-1.453a14.471,14.471,0,0,1-2.588-3l.656-.414a13.726,13.726,0,0,0,2.45,2.836Zm-29.906-.091-.179-.754,3.773-.891.179.754ZM115.413,30.81l-3.536-1.589.318-.707,3.536,1.589Zm299.469-.147-.178-.754,3.773-.89.178.754Zm7.546-1.781-.179-.754,3.772-.89.179.754Zm-320.941-.349-.764-.138c.226-1.255.435-2.538.619-3.812l.768.111c-.185,1.283-.395,2.575-.623,3.839m6.855-.9-3.536-1.589.318-.707,3.536,1.589ZM429.973,27.1l-.178-.754,3.773-.89.178.754Z" transform="translate(-5.724 -5.524)" fill="#ffa200"/>
        <path id="Trazado_995574" data-name="Trazado 995574" d="M31.361,25.016A3.962,3.962,0,1,1,27.4,21.054a3.962,3.962,0,0,1,3.962,3.962" transform="translate(-5.266 -4.731)"/>
        <path id="Trazado_995575" data-name="Trazado 995575" d="M126.711,25.016a3.962,3.962,0,1,1-3.962-3.962,3.962,3.962,0,0,1,3.962,3.962" transform="translate(-26.693 -4.731)"/>
        <path id="Trazado_995576" data-name="Trazado 995576" d="M274.044,25.016a3.962,3.962,0,1,1-3.962-3.962,3.962,3.962,0,0,1,3.962,3.962" transform="translate(-59.801 -4.731)"/>
        <path id="Trazado_995577" data-name="Trazado 995577" d="M338.583,25.016a3.962,3.962,0,1,1-3.962-3.962,3.962,3.962,0,0,1,3.962,3.962" transform="translate(-74.304 -4.731)"/>
        <path id="Trazado_995578" data-name="Trazado 995578" d="M338.583,258.409a3.962,3.962,0,1,1-3.962-3.962,3.962,3.962,0,0,1,3.962,3.962" transform="translate(-74.304 -57.178)"/>
        <path id="Trazado_995579" data-name="Trazado 995579" d="M272.249,258.409a3.962,3.962,0,1,1-3.962-3.962,3.962,3.962,0,0,1,3.962,3.962" transform="translate(-59.398 -57.178)"/>
        <path id="Trazado_995580" data-name="Trazado 995580" d="M272.249,193.075a3.962,3.962,0,1,1-3.962-3.962,3.962,3.962,0,0,1,3.962,3.962" transform="translate(-59.398 -42.497)"/>
        <path id="Trazado_995581" data-name="Trazado 995581" d="M272.249,89.075a3.962,3.962,0,1,1-3.962-3.962,3.962,3.962,0,0,1,3.962,3.962" transform="translate(-59.398 -19.126)"/>
        <path id="Trazado_995582" data-name="Trazado 995582" d="M399.862,62.421a3.962,3.962,0,1,1-3.962-3.962,3.962,3.962,0,0,1,3.962,3.962" transform="translate(-88.075 -13.137)"/>
        <path id="Trazado_995583" data-name="Trazado 995583" d="M259.361,193.075a3.962,3.962,0,1,1-3.963-3.962,3.963,3.963,0,0,1,3.963,3.962" transform="translate(-56.502 -42.497)"/>
        <path id="Trazado_995584" data-name="Trazado 995584" d="M27.583,193.075a3.962,3.962,0,1,1-3.962-3.962,3.962,3.962,0,0,1,3.962,3.962" transform="translate(-4.417 -42.497)"/>
        <path id="Trazado_995585" data-name="Trazado 995585" d="M27.583,257.075a3.962,3.962,0,1,1-3.962-3.962,3.962,3.962,0,0,1,3.962,3.962" transform="translate(-4.417 -56.879)"/>
        <path id="Trazado_995586" data-name="Trazado 995586" d="M400.249,193.075a3.962,3.962,0,1,1-3.962-3.962,3.962,3.962,0,0,1,3.962,3.962" transform="translate(-88.162 -42.497)"/>
        <path id="Trazado_995587" data-name="Trazado 995587" d="M649.583,193.075a3.962,3.962,0,1,1-3.962-3.962,3.962,3.962,0,0,1,3.962,3.962" transform="translate(-144.191 -42.497)"/>
        <path id="Trazado_995588" data-name="Trazado 995588" d="M400.249,258.409a3.962,3.962,0,1,1-3.962-3.962,3.962,3.962,0,0,1,3.962,3.962" transform="translate(-88.162 -57.178)"/>
        <path id="Trazado_995589" data-name="Trazado 995589" d="M338.583,475.24a3.962,3.962,0,1,1-3.962-3.962,3.962,3.962,0,0,1,3.962,3.962" transform="translate(-74.304 -105.904)"/>
        <path id="Trazado_995590" data-name="Trazado 995590" d="M651.583,258.409a3.962,3.962,0,1,1-3.962-3.962,3.962,3.962,0,0,1,3.962,3.962" transform="translate(-144.64 -57.178)"/>
        <path id="Trazado_995591" data-name="Trazado 995591" d="M651.583,474.577a3.962,3.962,0,1,1-3.962-3.962,3.962,3.962,0,0,1,3.962,3.962" transform="translate(-144.64 -105.755)"/>
        <path id="Trazado_995592" data-name="Trazado 995592" d="M27.583,474.577a3.962,3.962,0,1,1-3.962-3.962,3.962,3.962,0,0,1,3.962,3.962" transform="translate(-4.417 -105.755)"/>
        <path id="Trazado_995593" data-name="Trazado 995593" d="M27.583,692.078a3.962,3.962,0,1,1-3.962-3.962,3.962,3.962,0,0,1,3.962,3.962" transform="translate(-4.417 -154.631)"/>
        <path id="Trazado_995594" data-name="Trazado 995594" d="M654.583,706.682a3.962,3.962,0,1,1-3.962-3.962,3.962,3.962,0,0,1,3.962,3.962" transform="translate(-145.315 -157.913)"/>
        <path id="Trazado_995595" data-name="Trazado 995595" d="M400.249,25.016a3.962,3.962,0,1,1-3.962-3.962,3.962,3.962,0,0,1,3.962,3.962" transform="translate(-88.162 -4.731)"/>
        <path id="Trazado_995596" data-name="Trazado 995596" d="M28.3,111.66a3.962,3.962,0,1,1-3.962-3.962A3.962,3.962,0,0,1,28.3,111.66" transform="translate(-4.579 -24.202)"/>
        <path id="Trazado_995597" data-name="Trazado 995597" d="M27.583,131.016a3.962,3.962,0,1,1-3.962-3.962,3.962,3.962,0,0,1,3.962,3.962" transform="translate(-4.417 -28.551)"/>
        <path id="Trazado_995598" data-name="Trazado 995598" d="M554.083,22.349a3.962,3.962,0,1,1-3.962-3.962,3.962,3.962,0,0,1,3.962,3.962" transform="translate(-122.731 -4.132)"/>
        <path id="Trazado_995599" data-name="Trazado 995599" d="M552.138,50.683a3.962,3.962,0,1,1-3.962-3.962,3.962,3.962,0,0,1,3.962,3.962" transform="translate(-122.294 -10.499)"/>
        <path id="Trazado_995600" data-name="Trazado 995600" d="M649.583,25.016a3.962,3.962,0,1,1-3.962-3.962,3.962,3.962,0,0,1,3.962,3.962" transform="translate(-144.191 -4.731)"/>
        <path id="Trazado_995601" data-name="Trazado 995601" d="M649.583,48.948a3.962,3.962,0,1,1-3.962-3.962,3.962,3.962,0,0,1,3.962,3.962" transform="translate(-144.191 -10.109)"/>
        <path id="Trazado_995602" data-name="Trazado 995602" d="M532.249,30.349a3.962,3.962,0,1,1-3.963-3.962,3.962,3.962,0,0,1,3.963,3.962" transform="translate(-117.824 -5.93)"/>
        <path id="Trazado_995603" data-name="Trazado 995603" d="M549.213,45.74a.388.388,0,0,1-.387-.415l1.507-21.966a.391.391,0,0,1,.163-.29.386.386,0,0,1,.328-.057l74.04,20.622a.387.387,0,0,1-.1.761L549.219,45.74Zm1.861-21.853-1.446,21.07,72.465-1.289Z" transform="translate(-123.33 -5.168)"/>
        <path id="Trazado_995604" data-name="Trazado 995604" d="M336.015,549.634a.388.388,0,0,1-.388-.388V23.387a.388.388,0,1,1,.775,0v525.86a.388.388,0,0,1-.388.388" transform="translate(-75.421 -5.168)"/>
        <path id="Trazado_995605" data-name="Trazado 995605" d="M269.576,202.829h0a.387.387,0,0,1-.385-.39L270.27,23.384a.388.388,0,0,1,.388-.385h0a.387.387,0,0,1,.385.39l-1.082,179.055a.389.389,0,0,1-.388.385" transform="translate(-60.491 -5.168)"/>
        <path id="Trazado_995606" data-name="Trazado 995606" d="M395.782,202.829h0a.388.388,0,0,1-.385-.39l1.082-179.055a.388.388,0,0,1,.388-.385h0a.387.387,0,0,1,.385.39l-1.082,179.055a.388.388,0,0,1-.388.385" transform="translate(-88.852 -5.168)"/>
        <path id="Trazado_995607" data-name="Trazado 995607" d="M505.735,194.5H19.546a.388.388,0,1,1,0-.775H505.735a.388.388,0,0,1,0,.775" transform="translate(-4.305 -43.533)"/>
        <path id="Trazado_995608" data-name="Trazado 995608" d="M508.595,259.533h0L25.373,258.5a.388.388,0,0,1,0-.775h0L508.6,258.757a.388.388,0,0,1,0,.775" transform="translate(-5.615 -57.915)"/>
        <path id="Trazado_995609" data-name="Trazado 995609" d="M508.595,477.035h0L25.373,476a.388.388,0,0,1,0-.775h0L508.6,476.259a.388.388,0,0,1,0,.775" transform="translate(-5.615 -106.791)"/>
        <path id="Trazado_995610" data-name="Trazado 995610" d="M333.114,608.018h0a1.163,1.163,0,0,1-1.146-.98c-14.023-88.2-13.3-172.324-10.221-227.365,3.334-59.642,10.076-98.955,10.144-99.345a1.163,1.163,0,0,1,2.3.044c12.426,92.969,11.786,176.827,9.061,230.8-2.954,58.5-8.927,95.5-8.986,95.867a1.163,1.163,0,0,1-1.148.975m-.184-319.273c-2.117,14.388-6.413,47.225-8.865,91.1-2.979,53.323-3.745,134.007,9.017,219.181,1.878-13.692,5.678-45.031,7.845-88.005,2.64-52.305,3.317-132.721-8-222.272" transform="translate(-71.889 -62.778)" fill="#0048c5"/>
      </g>
    </g>
  </g>
</svg>
