<svg xmlns="http://www.w3.org/2000/svg" xmlns:xlink="http://www.w3.org/1999/xlink" width="77" height="77" viewBox="0 0 77 77">
  <defs>
    <clipPath id="clip-path">
      <rect id="Rectángulo_454803" data-name="Rectángulo 454803" width="55.958" height="55.483" fill="#e5ecf9"/>
    </clipPath>
  </defs>
  <g id="Grupo_1177307" data-name="Grupo 1177307" transform="translate(-232.711 -5703)">
    <g id="Grupo_1177245" data-name="Grupo 1177245" transform="translate(0 62)">
      <rect id="Rectángulo_454679" data-name="Rectángulo 454679" width="77" height="77" rx="10" transform="translate(232.711 5641)" fill="#0048c5"/>
      <g id="Grupo_1177244" data-name="Grupo 1177244" transform="translate(243.711 5652)">
        <g id="Grupo_1177243" data-name="Grupo 1177243" clip-path="url(#clip-path)">
          <path id="Trazado_995867" data-name="Trazado 995867" d="M221.2,65.6a1.59,1.59,0,0,1-1.585-1.585V51.81H207.409a1.585,1.585,0,0,1,0-3.17H221.2a1.59,1.59,0,0,1,1.585,1.585V64.017A1.59,1.59,0,0,1,221.2,65.6" transform="translate(-173.961 -41.11)" fill="#e5ecf9"/>
          <path id="Trazado_995868" data-name="Trazado 995868" d="M155.7,81.592a1.565,1.565,0,0,1-1.11-.476,1.532,1.532,0,0,1,0-2.219l19.974-20.053a1.569,1.569,0,0,1,2.219,2.219L156.886,81.116A1.613,1.613,0,0,1,155.7,81.592Z" transform="translate(-130.254 -49.332)" fill="#e5ecf9"/>
          <path id="Trazado_995869" data-name="Trazado 995869" d="M56.97,55.483H30.813a1.585,1.585,0,1,1,0-3.17H55.384V3.17H6.242V27.741a1.585,1.585,0,0,1-3.17,0V1.585A1.59,1.59,0,0,1,4.657,0H56.97a1.59,1.59,0,0,1,1.585,1.585V53.9a1.59,1.59,0,0,1-1.585,1.585" transform="translate(-2.596)" fill="#e5ecf9"/>
          <path id="Trazado_995870" data-name="Trazado 995870" d="M20.291,238.964H1.585A1.59,1.59,0,0,1,0,237.379V218.673a1.59,1.59,0,0,1,1.585-1.585H20.291a1.59,1.59,0,0,1,1.585,1.585v18.706a1.59,1.59,0,0,1-1.585,1.585m-17.12-3.17H18.706V220.258H3.17Z" transform="translate(0 -183.481)" fill="#e5ecf9"/>
        </g>
      </g>
    </g>
  </g>
</svg>
