<svg xmlns="http://www.w3.org/2000/svg" xmlns:xlink="http://www.w3.org/1999/xlink" width="728.759" height="399.491" viewBox="0 0 728.759 399.491">
  <defs>
    <clipPath id="clip-path">
      <rect id="Rectángulo_454754" data-name="Rectángulo 454754" width="728.759" height="399.491" fill="none"/>
    </clipPath>
  </defs>
  <g id="Grupo_1177307" data-name="Grupo 1177307" transform="translate(-227.711 -6750)">
    <g id="Grupo_1177170" data-name="Grupo 1177170" transform="translate(227.711 6750)">
      <g id="Grupo_1177169" data-name="Grupo 1177169" clip-path="url(#clip-path)">
        <path id="Trazado_995642" data-name="Trazado 995642" d="M352.842,401.195h-.011L1.085,397.784A1.1,1.1,0,0,1,0,396.688V370.867a1.087,1.087,0,0,1,.061-.362C6.743,351.415,6.82,262.633,6.82,261.738c0-.031,0-.061,0-.091C8.743,238.629.093,150.68.005,149.794a1.1,1.1,0,0,1,.311-.878,1.074,1.074,0,0,1,.873-.322c13.666,1.159,24.189-2.592,31.279-11.16,22.965-27.755,3.82-97.342,3.625-98.042a1.1,1.1,0,0,1,.614-1.3l72.1-31.667a1.1,1.1,0,0,1,1.481.657c10.177,30.53,27.475,44.327,40.194,50.524,13.787,6.717,25.34,6.223,25.454,6.216,29.907-3.215,45.386-18.377,53.1-30.529a66.067,66.067,0,0,0,9.691-25.969,1.1,1.1,0,0,1,1.54-.9L311.88,38.583a1.1,1.1,0,0,1,.628,1.209C300.3,102.3,311.294,128.95,322.668,140.3c12.984,12.952,29.793,9.809,29.96,9.775a1.112,1.112,0,0,1,.936.251,1.1,1.1,0,0,1,.372.9l-7.308,112.539c-1.44,23.507,7.216,109.06,7.3,109.922,0,.037.006.074.006.11V400.1a1.1,1.1,0,0,1-1.1,1.1M2.192,395.6l349.554,3.389V373.847c-.264-2.612-8.741-86.789-7.306-110.226l7.22-111.187a37.368,37.368,0,0,1-30.512-10.555c-17.022-16.945-20.707-51.145-10.959-101.652l-69.481-31.2a69.077,69.077,0,0,1-9.77,25.352C222.974,46.978,207,62.688,176.112,66.006c-.549.031-12.2.55-26.477-6.376C136.659,53.338,119.084,39.436,108.6,8.914L38.45,39.721a252.831,252.831,0,0,1,6.721,38.092c2.672,28.425-1.035,48.954-11.014,61.017-7.344,8.876-18.053,12.922-31.843,12.045,1.115,11.444,8.513,88.893,6.7,110.908,0,4.272-.1,89.558-6.82,109.268Z" transform="translate(0 -1.704)" fill="#0048c5"/>
        <path id="Trazado_995643" data-name="Trazado 995643" d="M863.511,399.49h-.01l-357.824-3.41a1.1,1.1,0,0,1-1.085-1.1V369.163a1.087,1.087,0,0,1,.064-.368c6.8-19.088,6.875-107.868,6.875-108.762,0-.031,0-.062,0-.093,1.951-23.016-6.847-110.963-6.937-111.849a1.1,1.1,0,0,1,.833-1.176c11.895-2.87,21.081-10.957,27.305-24.035,5.039-10.59,8.166-24.444,9.295-41.178,1.93-28.613-2.731-56.031-2.778-56.3a1.1,1.1,0,0,1,.727-1.225L610.865.058a1.1,1.1,0,0,1,1.169.305c24.9,27.751,67.835,24.282,68.267,24.243C735.005,22.659,745.574,3,745.674,2.8a1.111,1.111,0,0,1,1.2-.584l76,15.346a1.1,1.1,0,0,1,.872,1.2c-6.649,58.678,3.609,88.633,13.386,103.43,10.508,15.9,22.713,18.115,22.835,18.136a1.1,1.1,0,0,1,.916,1.114l-3.707,120.578c-1.466,23.544,7.34,109.1,7.429,109.958,0,.037.005.075.005.112v26.308a1.1,1.1,0,0,1-1.1,1.1M506.784,393.9l355.631,3.389V372.142c-.271-2.631-8.892-86.792-7.432-110.228l3.679-119.637c-3.2-.821-13.779-4.5-23.225-18.674-9.995-15-20.5-45.223-13.983-104.093L747.206,4.518c-2.437,3.807-15.963,20.47-66.769,22.276-.379.037-43.834,3.57-69.547-24.428L541.563,25.95c.8,5.052,4.4,29.964,2.657,55.864-1.144,17.019-4.34,31.148-9.5,41.993-6.361,13.374-15.727,21.781-27.85,25,1,10.065,8.717,89,6.85,111.268,0,4.272-.105,89.558-6.939,109.27Z" transform="translate(-135.849 0.001)" fill="#0048c5"/>
        <path id="Trazado_995644" data-name="Trazado 995644" d="M322.922,136.42h0L61.43,134.96a.731.731,0,0,1-.726-.735.717.717,0,0,1,.735-.726l261.487,1.46a.731.731,0,0,1,0,1.462" transform="translate(-16.343 -35.94)"/>
        <path id="Trazado_995645" data-name="Trazado 995645" d="M330.776,184.937h0L47.633,184.1a.731.731,0,0,1,0-1.462h0l283.142.834a.731.731,0,0,1,0,1.462" transform="translate(-12.628 -49.171)"/>
        <path id="Trazado_995646" data-name="Trazado 995646" d="M10.552,359.932a.731.731,0,0,1,0-1.462l337.627-.972h0a.731.731,0,0,1,0,1.462l-337.627.972Z" transform="translate(-2.644 -96.247)"/>
        <path id="Trazado_995647" data-name="Trazado 995647" d="M245.162,412.35a1.1,1.1,0,0,1-1.1-1.081L239.6,104.214a1.1,1.1,0,0,1,1.08-1.112h.017a1.1,1.1,0,0,1,1.1,1.081l4.469,307.056a1.1,1.1,0,0,1-1.081,1.112Z" transform="translate(-64.505 -27.757)"/>
        <path id="Trazado_995648" data-name="Trazado 995648" d="M237.093,86.5c-2.219,6.258-6.048,14.04-10.153,18.888l10.37-3.923,10.478,3.62c-4.244-4.727-8.3-12.393-10.7-18.585" transform="translate(-61.098 -23.287)"/>
        <path id="Trazado_995649" data-name="Trazado 995649" d="M243.536,535.925c-2.4-6.191-6.454-13.858-10.7-18.585l10.48,3.619,10.368-3.923c-4.1,4.849-7.933,12.63-10.15,18.888" transform="translate(-62.686 -139.199)"/>
        <path id="Trazado_995650" data-name="Trazado 995650" d="M555.191,132.61a.731.731,0,0,1-.009-1.462l282.753-3.668a.743.743,0,0,1,.74.722.73.73,0,0,1-.721.74L555.2,132.61Z" transform="translate(-149.274 -34.32)"/>
        <path id="Trazado_995651" data-name="Trazado 995651" d="M534.79,182.479a.731.731,0,0,1-.012-1.462L849.035,175.8h.012a.731.731,0,0,1,.012,1.462L534.8,182.479Z" transform="translate(-143.782 -47.33)"/>
        <path id="Trazado_995652" data-name="Trazado 995652" d="M515.484,358.317a.731.731,0,0,1-.012-1.462L859.622,351.5h.011a.731.731,0,0,1,.012,1.462L515.5,358.317Z" transform="translate(-138.584 -94.632)"/>
        <path id="Trazado_995653" data-name="Trazado 995653" d="M752,387.587a1.1,1.1,0,0,1-1.1-1.1V60.248a1.1,1.1,0,1,1,2.192,0V386.491a1.1,1.1,0,0,1-1.1,1.1" transform="translate(-202.163 -15.924)"/>
        <path id="Trazado_995654" data-name="Trazado 995654" d="M748.567,42.547c-2.31,6.225-6.252,13.95-10.427,18.739l10.427-3.772,10.425,3.772c-4.175-4.788-8.117-12.513-10.425-18.739" transform="translate(-198.726 -11.454)"/>
        <path id="Trazado_995655" data-name="Trazado 995655" d="M748.567,518.288c-2.31-6.225-6.252-13.951-10.427-18.739l10.427,3.772,10.425-3.772c-4.175,4.788-8.117,12.513-10.425,18.739" transform="translate(-198.726 -134.49)"/>
      </g>
    </g>
    <path id="Trazado_996527" data-name="Trazado 996527" d="M.762,0V-8.531H3.387A3.986,3.986,0,0,1,5.4-8.024,3.534,3.534,0,0,1,6.785-6.583a4.446,4.446,0,0,1,.5,2.124v.393a4.458,4.458,0,0,1-.489,2.115A3.5,3.5,0,0,1,5.414-.516,4.016,4.016,0,0,1,3.4,0ZM2.52-7.107v5.7h.85a1.909,1.909,0,0,0,1.576-.674A3.045,3.045,0,0,0,5.5-4.014v-.451a3.093,3.093,0,0,0-.539-1.972,1.9,1.9,0,0,0-1.576-.671ZM13.693-3.7H10.318v2.285h3.961V0H8.561V-8.531h5.707v1.424H10.318v2.033h3.375Zm3.375,2.285H20.8V0h-5.49V-8.531h1.758Zm9.776-.346H23.762L23.176,0H21.307l3.176-8.531h1.629L29.305,0H27.436ZM24.237-3.182H26.37L25.3-6.375ZM37.04,0H35.282L31.86-5.613V0H30.1V-8.531H31.86l3.428,5.625V-8.531H37.04Zm7.789-7.107H42.215V0H40.458V-7.107H37.879V-8.531h6.949ZM50.963-3.7H47.588v2.285h3.961V0H45.831V-8.531h5.707v1.424H47.588v2.033h3.375Zm4.775.574h-1.4V0H52.581V-8.531h3.17a3.583,3.583,0,0,1,2.332.674,2.326,2.326,0,0,1,.82,1.9A2.625,2.625,0,0,1,58.525-4.5a2.578,2.578,0,0,1-1.146.929L59.225-.082V0H57.338Zm-1.4-1.424h1.418a1.452,1.452,0,0,0,1.025-.337,1.2,1.2,0,0,0,.363-.929,1.289,1.289,0,0,0-.343-.949,1.424,1.424,0,0,0-1.052-.346H54.338ZM65.055-1.758H61.973L61.387,0H59.518l3.176-8.531h1.629L67.516,0H65.647ZM62.448-3.182h2.133L63.508-6.375Z" transform="translate(423.4 7054.524)"/>
    <path id="Trazado_996528" data-name="Trazado 996528" d="M7.459-2.842A3.019,3.019,0,0,1,6.442-.674,3.57,3.57,0,0,1,4.025.117a3.21,3.21,0,0,1-2.581-1.1A4.529,4.529,0,0,1,.5-4.02v-.521A5.114,5.114,0,0,1,.938-6.709,3.249,3.249,0,0,1,2.177-8.147a3.471,3.471,0,0,1,1.872-.5,3.478,3.478,0,0,1,2.379.791A3.244,3.244,0,0,1,7.471-5.637H5.713a1.782,1.782,0,0,0-.46-1.2,1.7,1.7,0,0,0-1.2-.372,1.494,1.494,0,0,0-1.315.63,3.53,3.53,0,0,0-.448,1.954v.645A3.778,3.778,0,0,0,2.7-1.957a1.466,1.466,0,0,0,1.321.639A1.735,1.735,0,0,0,5.241-1.69,1.681,1.681,0,0,0,5.7-2.842ZM11.42.117A3.112,3.112,0,0,1,9.149-.738a3.041,3.041,0,0,1-.876-2.279v-.164A3.83,3.83,0,0,1,8.643-4.89,2.709,2.709,0,0,1,9.688-6.05a2.936,2.936,0,0,1,1.544-.407,2.631,2.631,0,0,1,2.048.82,3.333,3.333,0,0,1,.747,2.326v.691H9.99a1.573,1.573,0,0,0,.5,1,1.5,1.5,0,0,0,1.046.375,1.828,1.828,0,0,0,1.529-.709l.832.932a2.542,2.542,0,0,1-1.031.841A3.383,3.383,0,0,1,11.42.117Zm-.193-5.2a1.06,1.06,0,0,0-.817.34,1.756,1.756,0,0,0-.4.973h2.355v-.135a1.252,1.252,0,0,0-.3-.87A1.094,1.094,0,0,0,11.227-5.086Zm5.32-1.254.053.732a2.213,2.213,0,0,1,1.822-.85,1.84,1.84,0,0,1,1.5.592,2.761,2.761,0,0,1,.5,1.77V0H18.732V-4.055a1.1,1.1,0,0,0-.234-.782,1.049,1.049,0,0,0-.779-.243,1.165,1.165,0,0,0-1.072.609V0H14.953V-6.34ZM23.736-7.9V-6.34H24.82V-5.1H23.736v3.164a.756.756,0,0,0,.135.5.677.677,0,0,0,.516.152,2.7,2.7,0,0,0,.5-.041V-.035a3.486,3.486,0,0,1-1.025.152,1.617,1.617,0,0,1-1.816-1.8V-5.1h-.926V-6.34h.926V-7.9Zm5.59,3.146a4.6,4.6,0,0,0-.609-.047,1.24,1.24,0,0,0-1.26.65V0H25.764V-6.34h1.6l.047.756a1.569,1.569,0,0,1,1.412-.873,1.774,1.774,0,0,1,.527.076Zm.136,1.523a3.76,3.76,0,0,1,.363-1.682,2.659,2.659,0,0,1,1.046-1.143,3.051,3.051,0,0,1,1.585-.4,2.887,2.887,0,0,1,2.095.785,3.151,3.151,0,0,1,.905,2.133l.012.434a3.314,3.314,0,0,1-.814,2.341,2.831,2.831,0,0,1-2.186.882,2.845,2.845,0,0,1-2.188-.879,3.372,3.372,0,0,1-.817-2.391Zm1.693.123a2.363,2.363,0,0,0,.34,1.38,1.122,1.122,0,0,0,.973.478,1.124,1.124,0,0,0,.961-.472,2.586,2.586,0,0,0,.346-1.509A2.34,2.34,0,0,0,33.429-4.6a1.124,1.124,0,0,0-.973-.486A1.106,1.106,0,0,0,31.5-4.6,2.63,2.63,0,0,0,31.155-3.105Zm8.08-.111A3.821,3.821,0,0,1,39.9-5.578a2.158,2.158,0,0,1,1.819-.879,1.942,1.942,0,0,1,1.529.691V-9h1.7V0H43.419l-.082-.674a1.993,1.993,0,0,1-1.629.791,2.152,2.152,0,0,1-1.8-.882A3.944,3.944,0,0,1,39.235-3.217Zm1.693.123a2.5,2.5,0,0,0,.311,1.365,1.012,1.012,0,0,0,.9.475,1.133,1.133,0,0,0,1.107-.662v-2.5a1.117,1.117,0,0,0-1.1-.662Q40.929-5.08,40.929-3.094ZM49.179.117a3.112,3.112,0,0,1-2.271-.855,3.041,3.041,0,0,1-.876-2.279v-.164A3.83,3.83,0,0,1,46.4-4.89a2.709,2.709,0,0,1,1.046-1.16,2.936,2.936,0,0,1,1.544-.407,2.631,2.631,0,0,1,2.048.82,3.333,3.333,0,0,1,.747,2.326v.691H47.749a1.573,1.573,0,0,0,.5,1,1.5,1.5,0,0,0,1.046.375,1.828,1.828,0,0,0,1.529-.709l.832.932a2.542,2.542,0,0,1-1.031.841A3.383,3.383,0,0,1,49.179.117Zm-.193-5.2a1.06,1.06,0,0,0-.817.34,1.756,1.756,0,0,0-.4.973h2.355v-.135a1.252,1.252,0,0,0-.3-.87A1.094,1.094,0,0,0,48.985-5.086ZM54.534,0h-1.7V-9h1.7ZM59.6,0a1.88,1.88,0,0,1-.17-.568,2.049,2.049,0,0,1-1.6.686,2.251,2.251,0,0,1-1.544-.539,1.734,1.734,0,0,1-.612-1.359,1.792,1.792,0,0,1,.747-1.547,3.686,3.686,0,0,1,2.159-.545h.779v-.363a1.045,1.045,0,0,0-.226-.7.887.887,0,0,0-.712-.264A1.009,1.009,0,0,0,57.754-5a.7.7,0,0,0-.243.563H55.817a1.7,1.7,0,0,1,.34-1.02,2.246,2.246,0,0,1,.961-.735,3.5,3.5,0,0,1,1.395-.267,2.767,2.767,0,0,1,1.86.589,2.06,2.06,0,0,1,.688,1.655v2.748A3.031,3.031,0,0,0,61.314-.1V0ZM58.2-1.178a1.458,1.458,0,0,0,.691-.167,1.1,1.1,0,0,0,.469-.448v-1.09H58.73q-1.271,0-1.354.879l-.006.1a.678.678,0,0,0,.223.521A.865.865,0,0,0,58.2-1.178ZM63.921-6.34l.053.732a2.213,2.213,0,0,1,1.822-.85,1.84,1.84,0,0,1,1.5.592,2.761,2.761,0,0,1,.5,1.77V0H66.107V-4.055a1.1,1.1,0,0,0-.234-.782,1.049,1.049,0,0,0-.779-.243,1.165,1.165,0,0,0-1.072.609V0H62.327V-6.34ZM71.11-7.9V-6.34h1.084V-5.1H71.11v3.164a.756.756,0,0,0,.135.5.677.677,0,0,0,.516.152,2.7,2.7,0,0,0,.5-.041V-.035a3.486,3.486,0,0,1-1.025.152,1.617,1.617,0,0,1-1.816-1.8V-5.1h-.926V-6.34h.926V-7.9ZM76.056.117a3.112,3.112,0,0,1-2.271-.855,3.041,3.041,0,0,1-.876-2.279v-.164a3.83,3.83,0,0,1,.369-1.708,2.709,2.709,0,0,1,1.046-1.16,2.936,2.936,0,0,1,1.544-.407,2.631,2.631,0,0,1,2.048.82,3.333,3.333,0,0,1,.747,2.326v.691H74.626a1.573,1.573,0,0,0,.5,1,1.5,1.5,0,0,0,1.046.375A1.828,1.828,0,0,0,77.7-1.957l.832.932A2.542,2.542,0,0,1,77.5-.185,3.383,3.383,0,0,1,76.056.117Zm-.193-5.2a1.06,1.06,0,0,0-.817.34,1.756,1.756,0,0,0-.4.973H77v-.135a1.252,1.252,0,0,0-.3-.87A1.094,1.094,0,0,0,75.862-5.086Zm7.324.334a4.6,4.6,0,0,0-.609-.047,1.24,1.24,0,0,0-1.26.65V0H79.624V-6.34h1.6l.047.756a1.569,1.569,0,0,1,1.412-.873,1.774,1.774,0,0,1,.527.076Zm.136,1.523a3.76,3.76,0,0,1,.363-1.682,2.659,2.659,0,0,1,1.046-1.143,3.051,3.051,0,0,1,1.585-.4,2.887,2.887,0,0,1,2.095.785,3.151,3.151,0,0,1,.905,2.133l.012.434a3.314,3.314,0,0,1-.814,2.341,2.831,2.831,0,0,1-2.186.882A2.845,2.845,0,0,1,84.14-.762a3.372,3.372,0,0,1-.817-2.391Zm1.693.123a2.363,2.363,0,0,0,.34,1.38,1.122,1.122,0,0,0,.973.478,1.124,1.124,0,0,0,.961-.472,2.586,2.586,0,0,0,.346-1.509A2.34,2.34,0,0,0,87.289-4.6a1.124,1.124,0,0,0-.973-.486,1.106,1.106,0,0,0-.961.483A2.63,2.63,0,0,0,85.016-3.105Z" transform="translate(393.898 7003.638) rotate(-90)"/>
    <path id="Trazado_996529" data-name="Trazado 996529" d="M7.459-2.842A3.019,3.019,0,0,1,6.442-.674,3.57,3.57,0,0,1,4.025.117a3.21,3.21,0,0,1-2.581-1.1A4.529,4.529,0,0,1,.5-4.02v-.521A5.114,5.114,0,0,1,.938-6.709,3.249,3.249,0,0,1,2.177-8.147a3.471,3.471,0,0,1,1.872-.5,3.478,3.478,0,0,1,2.379.791A3.244,3.244,0,0,1,7.471-5.637H5.713a1.782,1.782,0,0,0-.46-1.2,1.7,1.7,0,0,0-1.2-.372,1.494,1.494,0,0,0-1.315.63,3.53,3.53,0,0,0-.448,1.954v.645A3.778,3.778,0,0,0,2.7-1.957a1.466,1.466,0,0,0,1.321.639A1.735,1.735,0,0,0,5.241-1.69,1.681,1.681,0,0,0,5.7-2.842ZM11.42.117A3.112,3.112,0,0,1,9.149-.738a3.041,3.041,0,0,1-.876-2.279v-.164A3.83,3.83,0,0,1,8.643-4.89,2.709,2.709,0,0,1,9.688-6.05a2.936,2.936,0,0,1,1.544-.407,2.631,2.631,0,0,1,2.048.82,3.333,3.333,0,0,1,.747,2.326v.691H9.99a1.573,1.573,0,0,0,.5,1,1.5,1.5,0,0,0,1.046.375,1.828,1.828,0,0,0,1.529-.709l.832.932a2.542,2.542,0,0,1-1.031.841A3.383,3.383,0,0,1,11.42.117Zm-.193-5.2a1.06,1.06,0,0,0-.817.34,1.756,1.756,0,0,0-.4.973h2.355v-.135a1.252,1.252,0,0,0-.3-.87A1.094,1.094,0,0,0,11.227-5.086Zm5.32-1.254.053.732a2.213,2.213,0,0,1,1.822-.85,1.84,1.84,0,0,1,1.5.592,2.761,2.761,0,0,1,.5,1.77V0H18.732V-4.055a1.1,1.1,0,0,0-.234-.782,1.049,1.049,0,0,0-.779-.243,1.165,1.165,0,0,0-1.072.609V0H14.953V-6.34ZM23.736-7.9V-6.34H24.82V-5.1H23.736v3.164a.756.756,0,0,0,.135.5.677.677,0,0,0,.516.152,2.7,2.7,0,0,0,.5-.041V-.035a3.486,3.486,0,0,1-1.025.152,1.617,1.617,0,0,1-1.816-1.8V-5.1h-.926V-6.34h.926V-7.9Zm5.59,3.146a4.6,4.6,0,0,0-.609-.047,1.24,1.24,0,0,0-1.26.65V0H25.764V-6.34h1.6l.047.756a1.569,1.569,0,0,1,1.412-.873,1.774,1.774,0,0,1,.527.076Zm.136,1.523a3.76,3.76,0,0,1,.363-1.682,2.659,2.659,0,0,1,1.046-1.143,3.051,3.051,0,0,1,1.585-.4,2.887,2.887,0,0,1,2.095.785,3.151,3.151,0,0,1,.905,2.133l.012.434a3.314,3.314,0,0,1-.814,2.341,2.831,2.831,0,0,1-2.186.882,2.845,2.845,0,0,1-2.188-.879,3.372,3.372,0,0,1-.817-2.391Zm1.693.123a2.363,2.363,0,0,0,.34,1.38,1.122,1.122,0,0,0,.973.478,1.124,1.124,0,0,0,.961-.472,2.586,2.586,0,0,0,.346-1.509A2.34,2.34,0,0,0,33.429-4.6a1.124,1.124,0,0,0-.973-.486A1.106,1.106,0,0,0,31.5-4.6,2.63,2.63,0,0,0,31.155-3.105ZM41.526-7.9V-6.34H42.61V-5.1H41.526v3.164a.756.756,0,0,0,.135.5.677.677,0,0,0,.516.152,2.7,2.7,0,0,0,.5-.041V-.035A3.486,3.486,0,0,1,41.65.117a1.617,1.617,0,0,1-1.816-1.8V-5.1h-.926V-6.34h.926V-7.9Zm5.59,3.146a4.6,4.6,0,0,0-.609-.047,1.24,1.24,0,0,0-1.26.65V0H43.554V-6.34h1.6l.047.756a1.569,1.569,0,0,1,1.412-.873,1.774,1.774,0,0,1,.527.076ZM51.261,0a1.88,1.88,0,0,1-.17-.568,2.049,2.049,0,0,1-1.6.686,2.251,2.251,0,0,1-1.544-.539,1.734,1.734,0,0,1-.612-1.359,1.792,1.792,0,0,1,.747-1.547,3.686,3.686,0,0,1,2.159-.545h.779v-.363a1.045,1.045,0,0,0-.226-.7.887.887,0,0,0-.712-.264A1.009,1.009,0,0,0,49.412-5a.7.7,0,0,0-.243.563H47.476a1.7,1.7,0,0,1,.34-1.02,2.246,2.246,0,0,1,.961-.735,3.5,3.5,0,0,1,1.395-.267,2.767,2.767,0,0,1,1.86.589,2.06,2.06,0,0,1,.688,1.655v2.748A3.031,3.031,0,0,0,52.972-.1V0Zm-1.4-1.178a1.458,1.458,0,0,0,.691-.167,1.1,1.1,0,0,0,.469-.448v-1.09h-.633q-1.271,0-1.354.879l-.006.1a.678.678,0,0,0,.223.521A.865.865,0,0,0,49.86-1.178Zm7.594-.574a.546.546,0,0,0-.308-.489,3.494,3.494,0,0,0-.987-.319Q53.9-3.035,53.9-4.482a1.742,1.742,0,0,1,.7-1.409,2.824,2.824,0,0,1,1.831-.565,3.04,3.04,0,0,1,1.931.568,1.791,1.791,0,0,1,.724,1.477H57.39a.819.819,0,0,0-.234-.6.992.992,0,0,0-.732-.237,1.013,1.013,0,0,0-.662.193.61.61,0,0,0-.234.492.522.522,0,0,0,.267.454,2.743,2.743,0,0,0,.9.3,7.346,7.346,0,0,1,1.066.284A1.752,1.752,0,0,1,59.1-1.822a1.654,1.654,0,0,1-.744,1.4,3.21,3.21,0,0,1-1.922.536A3.353,3.353,0,0,1,55.02-.167a2.374,2.374,0,0,1-.97-.779A1.811,1.811,0,0,1,53.7-2.016H55.3a.884.884,0,0,0,.334.691,1.325,1.325,0,0,0,.832.24,1.226,1.226,0,0,0,.735-.185A.574.574,0,0,0,57.454-1.752ZM63.108.117a3.112,3.112,0,0,1-2.271-.855,3.041,3.041,0,0,1-.876-2.279v-.164a3.83,3.83,0,0,1,.369-1.708,2.709,2.709,0,0,1,1.046-1.16,2.936,2.936,0,0,1,1.544-.407,2.631,2.631,0,0,1,2.048.82,3.333,3.333,0,0,1,.747,2.326v.691H61.679a1.573,1.573,0,0,0,.5,1,1.5,1.5,0,0,0,1.046.375,1.828,1.828,0,0,0,1.529-.709l.832.932a2.542,2.542,0,0,1-1.031.841A3.383,3.383,0,0,1,63.108.117Zm-.193-5.2a1.06,1.06,0,0,0-.817.34,1.756,1.756,0,0,0-.4.973h2.355v-.135a1.252,1.252,0,0,0-.3-.87A1.094,1.094,0,0,0,62.915-5.086Zm7.324.334A4.6,4.6,0,0,0,69.63-4.8a1.24,1.24,0,0,0-1.26.65V0H66.677V-6.34h1.6l.047.756a1.569,1.569,0,0,1,1.412-.873,1.774,1.774,0,0,1,.527.076Zm.136,1.523a3.76,3.76,0,0,1,.363-1.682,2.659,2.659,0,0,1,1.046-1.143,3.051,3.051,0,0,1,1.585-.4,2.887,2.887,0,0,1,2.095.785,3.151,3.151,0,0,1,.905,2.133l.012.434a3.314,3.314,0,0,1-.814,2.341,2.831,2.831,0,0,1-2.186.882,2.845,2.845,0,0,1-2.188-.879,3.372,3.372,0,0,1-.817-2.391Zm1.693.123a2.363,2.363,0,0,0,.34,1.38,1.122,1.122,0,0,0,.973.478,1.124,1.124,0,0,0,.961-.472,2.586,2.586,0,0,0,.346-1.509A2.34,2.34,0,0,0,74.342-4.6a1.124,1.124,0,0,0-.973-.486,1.106,1.106,0,0,0-.961.483A2.63,2.63,0,0,0,72.069-3.105Z" transform="translate(765.132 6992.677) rotate(-90)"/>
    <path id="Trazado_996530" data-name="Trazado 996530" d="M2.121-.92H6.164V0H.99V-8.531H2.121ZM8.455,0H7.365V-6.34h1.09Zm.012-8.994H9.779L8.209-7.271H7.336Zm2.8,2.654.035.8a2.31,2.31,0,0,1,1.9-.914q2.01,0,2.027,2.268V0H14.145V-4.2a1.459,1.459,0,0,0-.313-1.014,1.256,1.256,0,0,0-.958-.328,1.564,1.564,0,0,0-.926.281,1.91,1.91,0,0,0-.621.738V0H10.242V-6.34ZM19.494.117a2.77,2.77,0,0,1-2.1-.847,3.142,3.142,0,0,1-.809-2.265v-.2a3.8,3.8,0,0,1,.36-1.685,2.811,2.811,0,0,1,1.008-1.16,2.534,2.534,0,0,1,1.4-.419,2.374,2.374,0,0,1,1.922.814,3.526,3.526,0,0,1,.686,2.332v.451H17.672a2.254,2.254,0,0,0,.548,1.515,1.722,1.722,0,0,0,1.333.577A1.888,1.888,0,0,0,20.525-1a2.444,2.444,0,0,0,.7-.621l.662.516A2.662,2.662,0,0,1,19.494.117Zm-.135-5.684a1.446,1.446,0,0,0-1.1.478,2.321,2.321,0,0,0-.551,1.339h3.176v-.082a2.065,2.065,0,0,0-.445-1.28A1.361,1.361,0,0,0,19.359-5.566ZM27.135,0a2.277,2.277,0,0,1-.152-.668,2.419,2.419,0,0,1-1.8.785,2.238,2.238,0,0,1-1.538-.53,1.716,1.716,0,0,1-.6-1.345A1.792,1.792,0,0,1,23.792-3.3a3.55,3.55,0,0,1,2.118-.548h1.055v-.5a1.217,1.217,0,0,0-.34-.905,1.366,1.366,0,0,0-1-.337,1.581,1.581,0,0,0-.973.293.863.863,0,0,0-.393.709h-1.09A1.5,1.5,0,0,1,23.5-5.5a2.3,2.3,0,0,1,.914-.7,3.075,3.075,0,0,1,1.269-.258,2.506,2.506,0,0,1,1.717.548A1.976,1.976,0,0,1,28.049-4.4v2.918a3.567,3.567,0,0,0,.223,1.389V0Zm-1.8-.826A1.905,1.905,0,0,0,26.3-1.09a1.6,1.6,0,0,0,.662-.686v-1.3h-.85q-1.992,0-1.992,1.166a.987.987,0,0,0,.34.8A1.306,1.306,0,0,0,25.336-.826ZM38.086-3.1a3.77,3.77,0,0,1-.668,2.335,2.134,2.134,0,0,1-1.793.882,2.21,2.21,0,0,1-1.857-.85L33.715,0h-1V-9H33.8v3.357a2.2,2.2,0,0,1,1.811-.814,2.147,2.147,0,0,1,1.813.873,3.883,3.883,0,0,1,.659,2.391ZM37-3.223a2.929,2.929,0,0,0-.428-1.711,1.416,1.416,0,0,0-1.23-.6,1.591,1.591,0,0,0-1.541,1V-1.8a1.636,1.636,0,0,0,1.553,1,1.408,1.408,0,0,0,1.213-.6A3.115,3.115,0,0,0,37-3.223ZM43.365,0a2.277,2.277,0,0,1-.152-.668,2.419,2.419,0,0,1-1.8.785,2.238,2.238,0,0,1-1.538-.53,1.716,1.716,0,0,1-.6-1.345A1.792,1.792,0,0,1,40.022-3.3a3.55,3.55,0,0,1,2.118-.548H43.2v-.5a1.217,1.217,0,0,0-.34-.905,1.366,1.366,0,0,0-1-.337,1.581,1.581,0,0,0-.973.293.863.863,0,0,0-.393.709H39.4a1.5,1.5,0,0,1,.337-.917,2.3,2.3,0,0,1,.914-.7,3.075,3.075,0,0,1,1.269-.258,2.506,2.506,0,0,1,1.717.548A1.976,1.976,0,0,1,44.279-4.4v2.918A3.567,3.567,0,0,0,44.5-.094V0Zm-1.8-.826a1.905,1.905,0,0,0,.967-.264,1.6,1.6,0,0,0,.662-.686v-1.3h-.85q-1.992,0-1.992,1.166a.987.987,0,0,0,.34.8A1.306,1.306,0,0,0,41.566-.826ZM47.1-6.34V.732q0,1.828-1.658,1.828a2.011,2.011,0,0,1-.662-.105V1.588a2.1,2.1,0,0,0,.492.047.737.737,0,0,0,.554-.2.97.97,0,0,0,.19-.683v-7.1ZM45.9-8.021a.65.65,0,0,1,.161-.442.592.592,0,0,1,.472-.185.614.614,0,0,1,.48.182.64.64,0,0,1,.164.445.619.619,0,0,1-.164.439.626.626,0,0,1-.48.176.606.606,0,0,1-.475-.176A.632.632,0,0,1,45.9-8.021Zm2.654,4.793A3.745,3.745,0,0,1,48.923-4.9a2.732,2.732,0,0,1,1.02-1.148,2.775,2.775,0,0,1,1.491-.4,2.674,2.674,0,0,1,2.095.9,3.449,3.449,0,0,1,.8,2.385V-3.1a3.777,3.777,0,0,1-.354,1.661A2.692,2.692,0,0,1,52.96-.293a2.807,2.807,0,0,1-1.515.41,2.667,2.667,0,0,1-2.089-.9,3.432,3.432,0,0,1-.8-2.373Zm1.09.129a2.712,2.712,0,0,0,.489,1.693,1.566,1.566,0,0,0,1.31.639,1.556,1.556,0,0,0,1.313-.647,2.966,2.966,0,0,0,.486-1.813,2.708,2.708,0,0,0-.5-1.69,1.574,1.574,0,0,0-1.315-.647,1.557,1.557,0,0,0-1.295.639A2.944,2.944,0,0,0,49.646-3.1Zm9.732,1.418a.8.8,0,0,0-.331-.683,3.187,3.187,0,0,0-1.154-.419,5.457,5.457,0,0,1-1.307-.422,1.859,1.859,0,0,1-.715-.586,1.4,1.4,0,0,1-.231-.809A1.645,1.645,0,0,1,56.3-5.918a2.574,2.574,0,0,1,1.685-.539,2.649,2.649,0,0,1,1.749.557A1.768,1.768,0,0,1,60.4-4.477h-1.09a.979.979,0,0,0-.378-.768,1.416,1.416,0,0,0-.952-.322,1.482,1.482,0,0,0-.926.258.812.812,0,0,0-.334.674.658.658,0,0,0,.311.592,3.821,3.821,0,0,0,1.122.381,5.847,5.847,0,0,1,1.315.434,1.919,1.919,0,0,1,.747.606,1.491,1.491,0,0,1,.243.864A1.623,1.623,0,0,1,59.783-.4,2.851,2.851,0,0,1,58.02.117a3.193,3.193,0,0,1-1.348-.27,2.192,2.192,0,0,1-.917-.753,1.815,1.815,0,0,1-.331-1.046h1.084a1.122,1.122,0,0,0,.437.864,1.693,1.693,0,0,0,1.075.319,1.748,1.748,0,0,0,.987-.249A.765.765,0,0,0,59.379-1.682Z" transform="translate(427.902 7137.018)"/>
    <path id="Trazado_996531" data-name="Trazado 996531" d="M2.121-.92H6.164V0H.99V-8.531H2.121ZM8.455,0H7.365V-6.34h1.09Zm.012-8.994H9.779L8.209-7.271H7.336Zm2.8,2.654.035.8a2.31,2.31,0,0,1,1.9-.914q2.01,0,2.027,2.268V0H14.145V-4.2a1.459,1.459,0,0,0-.313-1.014,1.256,1.256,0,0,0-.958-.328,1.564,1.564,0,0,0-.926.281,1.91,1.91,0,0,0-.621.738V0H10.242V-6.34ZM19.494.117a2.77,2.77,0,0,1-2.1-.847,3.142,3.142,0,0,1-.809-2.265v-.2a3.8,3.8,0,0,1,.36-1.685,2.811,2.811,0,0,1,1.008-1.16,2.534,2.534,0,0,1,1.4-.419,2.374,2.374,0,0,1,1.922.814,3.526,3.526,0,0,1,.686,2.332v.451H17.672a2.254,2.254,0,0,0,.548,1.515,1.722,1.722,0,0,0,1.333.577A1.888,1.888,0,0,0,20.525-1a2.444,2.444,0,0,0,.7-.621l.662.516A2.662,2.662,0,0,1,19.494.117Zm-.135-5.684a1.446,1.446,0,0,0-1.1.478,2.321,2.321,0,0,0-.551,1.339h3.176v-.082a2.065,2.065,0,0,0-.445-1.28A1.361,1.361,0,0,0,19.359-5.566ZM27.135,0a2.277,2.277,0,0,1-.152-.668,2.419,2.419,0,0,1-1.8.785,2.238,2.238,0,0,1-1.538-.53,1.716,1.716,0,0,1-.6-1.345A1.792,1.792,0,0,1,23.792-3.3a3.55,3.55,0,0,1,2.118-.548h1.055v-.5a1.217,1.217,0,0,0-.34-.905,1.366,1.366,0,0,0-1-.337,1.581,1.581,0,0,0-.973.293.863.863,0,0,0-.393.709h-1.09A1.5,1.5,0,0,1,23.5-5.5a2.3,2.3,0,0,1,.914-.7,3.075,3.075,0,0,1,1.269-.258,2.506,2.506,0,0,1,1.717.548A1.976,1.976,0,0,1,28.049-4.4v2.918a3.567,3.567,0,0,0,.223,1.389V0Zm-1.8-.826A1.905,1.905,0,0,0,26.3-1.09a1.6,1.6,0,0,0,.662-.686v-1.3h-.85q-1.992,0-1.992,1.166a.987.987,0,0,0,.34.8A1.306,1.306,0,0,0,25.336-.826ZM38.086-3.1a3.77,3.77,0,0,1-.668,2.335,2.134,2.134,0,0,1-1.793.882,2.21,2.21,0,0,1-1.857-.85L33.715,0h-1V-9H33.8v3.357a2.2,2.2,0,0,1,1.811-.814,2.147,2.147,0,0,1,1.813.873,3.883,3.883,0,0,1,.659,2.391ZM37-3.223a2.929,2.929,0,0,0-.428-1.711,1.416,1.416,0,0,0-1.23-.6,1.591,1.591,0,0,0-1.541,1V-1.8a1.636,1.636,0,0,0,1.553,1,1.408,1.408,0,0,0,1.213-.6A3.115,3.115,0,0,0,37-3.223ZM43.365,0a2.277,2.277,0,0,1-.152-.668,2.419,2.419,0,0,1-1.8.785,2.238,2.238,0,0,1-1.538-.53,1.716,1.716,0,0,1-.6-1.345A1.792,1.792,0,0,1,40.022-3.3a3.55,3.55,0,0,1,2.118-.548H43.2v-.5a1.217,1.217,0,0,0-.34-.905,1.366,1.366,0,0,0-1-.337,1.581,1.581,0,0,0-.973.293.863.863,0,0,0-.393.709H39.4a1.5,1.5,0,0,1,.337-.917,2.3,2.3,0,0,1,.914-.7,3.075,3.075,0,0,1,1.269-.258,2.506,2.506,0,0,1,1.717.548A1.976,1.976,0,0,1,44.279-4.4v2.918A3.567,3.567,0,0,0,44.5-.094V0Zm-1.8-.826a1.905,1.905,0,0,0,.967-.264,1.6,1.6,0,0,0,.662-.686v-1.3h-.85q-1.992,0-1.992,1.166a.987.987,0,0,0,.34.8A1.306,1.306,0,0,0,41.566-.826ZM47.1-6.34V.732q0,1.828-1.658,1.828a2.011,2.011,0,0,1-.662-.105V1.588a2.1,2.1,0,0,0,.492.047.737.737,0,0,0,.554-.2.97.97,0,0,0,.19-.683v-7.1ZM45.9-8.021a.65.65,0,0,1,.161-.442.592.592,0,0,1,.472-.185.614.614,0,0,1,.48.182.64.64,0,0,1,.164.445.619.619,0,0,1-.164.439.626.626,0,0,1-.48.176.606.606,0,0,1-.475-.176A.632.632,0,0,1,45.9-8.021Zm2.654,4.793A3.745,3.745,0,0,1,48.923-4.9a2.732,2.732,0,0,1,1.02-1.148,2.775,2.775,0,0,1,1.491-.4,2.674,2.674,0,0,1,2.095.9,3.449,3.449,0,0,1,.8,2.385V-3.1a3.777,3.777,0,0,1-.354,1.661A2.692,2.692,0,0,1,52.96-.293a2.807,2.807,0,0,1-1.515.41,2.667,2.667,0,0,1-2.089-.9,3.432,3.432,0,0,1-.8-2.373Zm1.09.129a2.712,2.712,0,0,0,.489,1.693,1.566,1.566,0,0,0,1.31.639,1.556,1.556,0,0,0,1.313-.647,2.966,2.966,0,0,0,.486-1.813,2.708,2.708,0,0,0-.5-1.69,1.574,1.574,0,0,0-1.315-.647,1.557,1.557,0,0,0-1.295.639A2.944,2.944,0,0,0,49.646-3.1Zm9.732,1.418a.8.8,0,0,0-.331-.683,3.187,3.187,0,0,0-1.154-.419,5.457,5.457,0,0,1-1.307-.422,1.859,1.859,0,0,1-.715-.586,1.4,1.4,0,0,1-.231-.809A1.645,1.645,0,0,1,56.3-5.918a2.574,2.574,0,0,1,1.685-.539,2.649,2.649,0,0,1,1.749.557A1.768,1.768,0,0,1,60.4-4.477h-1.09a.979.979,0,0,0-.378-.768,1.416,1.416,0,0,0-.952-.322,1.482,1.482,0,0,0-.926.258.812.812,0,0,0-.334.674.658.658,0,0,0,.311.592,3.821,3.821,0,0,0,1.122.381,5.847,5.847,0,0,1,1.315.434,1.919,1.919,0,0,1,.747.606,1.491,1.491,0,0,1,.243.864A1.623,1.623,0,0,1,59.783-.4,2.851,2.851,0,0,1,58.02.117a3.193,3.193,0,0,1-1.348-.27,2.192,2.192,0,0,1-.917-.753,1.815,1.815,0,0,1-.331-1.046h1.084a1.122,1.122,0,0,0,.437.864,1.693,1.693,0,0,0,1.075.319,1.748,1.748,0,0,0,.987-.249A.765.765,0,0,0,59.379-1.682Z" transform="translate(798.055 7130.908)"/>
    <path id="Trazado_996532" data-name="Trazado 996532" d="M2.121-.92H6.164V0H.99V-8.531H2.121ZM8.455,0H7.365V-6.34h1.09Zm.012-8.994H9.779L8.209-7.271H7.336Zm2.8,2.654.035.8a2.31,2.31,0,0,1,1.9-.914q2.01,0,2.027,2.268V0H14.145V-4.2a1.459,1.459,0,0,0-.313-1.014,1.256,1.256,0,0,0-.958-.328,1.564,1.564,0,0,0-.926.281,1.91,1.91,0,0,0-.621.738V0H10.242V-6.34ZM19.494.117a2.77,2.77,0,0,1-2.1-.847,3.142,3.142,0,0,1-.809-2.265v-.2a3.8,3.8,0,0,1,.36-1.685,2.811,2.811,0,0,1,1.008-1.16,2.534,2.534,0,0,1,1.4-.419,2.374,2.374,0,0,1,1.922.814,3.526,3.526,0,0,1,.686,2.332v.451H17.672a2.254,2.254,0,0,0,.548,1.515,1.722,1.722,0,0,0,1.333.577A1.888,1.888,0,0,0,20.525-1a2.444,2.444,0,0,0,.7-.621l.662.516A2.662,2.662,0,0,1,19.494.117Zm-.135-5.684a1.446,1.446,0,0,0-1.1.478,2.321,2.321,0,0,0-.551,1.339h3.176v-.082a2.065,2.065,0,0,0-.445-1.28A1.361,1.361,0,0,0,19.359-5.566ZM27.135,0a2.277,2.277,0,0,1-.152-.668,2.419,2.419,0,0,1-1.8.785,2.238,2.238,0,0,1-1.538-.53,1.716,1.716,0,0,1-.6-1.345A1.792,1.792,0,0,1,23.792-3.3a3.55,3.55,0,0,1,2.118-.548h1.055v-.5a1.217,1.217,0,0,0-.34-.905,1.366,1.366,0,0,0-1-.337,1.581,1.581,0,0,0-.973.293.863.863,0,0,0-.393.709h-1.09A1.5,1.5,0,0,1,23.5-5.5a2.3,2.3,0,0,1,.914-.7,3.075,3.075,0,0,1,1.269-.258,2.506,2.506,0,0,1,1.717.548A1.976,1.976,0,0,1,28.049-4.4v2.918a3.567,3.567,0,0,0,.223,1.389V0Zm-1.8-.826A1.905,1.905,0,0,0,26.3-1.09a1.6,1.6,0,0,0,.662-.686v-1.3h-.85q-1.992,0-1.992,1.166a.987.987,0,0,0,.34.8A1.306,1.306,0,0,0,25.336-.826ZM33.8-5.572a2.3,2.3,0,0,1,1.875-.885q2.01,0,2.027,2.268V0H36.621V-4.2a1.459,1.459,0,0,0-.313-1.014,1.256,1.256,0,0,0-.958-.328,1.564,1.564,0,0,0-.926.281,1.91,1.91,0,0,0-.621.738V0H32.719V-9H33.8Zm5.238,2.344A3.745,3.745,0,0,1,39.407-4.9a2.732,2.732,0,0,1,1.02-1.148,2.775,2.775,0,0,1,1.491-.4,2.674,2.674,0,0,1,2.095.9,3.449,3.449,0,0,1,.8,2.385V-3.1a3.777,3.777,0,0,1-.354,1.661A2.692,2.692,0,0,1,43.444-.293a2.807,2.807,0,0,1-1.515.41,2.667,2.667,0,0,1-2.089-.9,3.432,3.432,0,0,1-.8-2.373Zm1.09.129a2.712,2.712,0,0,0,.489,1.693,1.566,1.566,0,0,0,1.31.639,1.556,1.556,0,0,0,1.313-.647,2.966,2.966,0,0,0,.486-1.813,2.708,2.708,0,0,0-.5-1.69,1.574,1.574,0,0,0-1.315-.647,1.557,1.557,0,0,0-1.295.639A2.944,2.944,0,0,0,40.131-3.1Zm7.061-3.24.029.7a2.341,2.341,0,0,1,1.881-.82,1.813,1.813,0,0,1,1.811,1.02,2.4,2.4,0,0,1,.823-.738,2.431,2.431,0,0,1,1.2-.281q2.086,0,2.121,2.209V0H53.971V-4.184A1.456,1.456,0,0,0,53.66-5.2a1.368,1.368,0,0,0-1.043-.337,1.437,1.437,0,0,0-1,.36,1.462,1.462,0,0,0-.463.97V0h-1.09V-4.154a1.209,1.209,0,0,0-1.354-1.383,1.45,1.45,0,0,0-1.459.908V0H46.166V-6.34ZM62.057-3.1a3.77,3.77,0,0,1-.668,2.335A2.134,2.134,0,0,1,59.6.117a2.21,2.21,0,0,1-1.857-.85L57.686,0h-1V-9h1.084v3.357a2.2,2.2,0,0,1,1.811-.814,2.147,2.147,0,0,1,1.813.873,3.883,3.883,0,0,1,.659,2.391Zm-1.084-.123a2.929,2.929,0,0,0-.428-1.711,1.416,1.416,0,0,0-1.23-.6,1.591,1.591,0,0,0-1.541,1V-1.8a1.636,1.636,0,0,0,1.553,1,1.408,1.408,0,0,0,1.213-.6A3.115,3.115,0,0,0,60.973-3.223Zm5.514-2.145a3.248,3.248,0,0,0-.533-.041,1.428,1.428,0,0,0-1.447.908V0H63.422V-6.34h1.055l.018.732a1.688,1.688,0,0,1,1.512-.85,1.107,1.107,0,0,1,.48.082Zm.472,2.139A3.745,3.745,0,0,1,67.324-4.9a2.732,2.732,0,0,1,1.02-1.148,2.775,2.775,0,0,1,1.491-.4,2.674,2.674,0,0,1,2.095.9,3.449,3.449,0,0,1,.8,2.385V-3.1a3.777,3.777,0,0,1-.354,1.661A2.692,2.692,0,0,1,71.361-.293a2.807,2.807,0,0,1-1.515.41,2.667,2.667,0,0,1-2.089-.9,3.432,3.432,0,0,1-.8-2.373Zm1.09.129a2.712,2.712,0,0,0,.489,1.693,1.566,1.566,0,0,0,1.31.639,1.556,1.556,0,0,0,1.313-.647,2.966,2.966,0,0,0,.486-1.813,2.708,2.708,0,0,0-.5-1.69,1.574,1.574,0,0,0-1.315-.647,1.557,1.557,0,0,0-1.295.639A2.944,2.944,0,0,0,68.048-3.1ZM77.78-1.682a.8.8,0,0,0-.331-.683A3.187,3.187,0,0,0,76.3-2.783a5.457,5.457,0,0,1-1.307-.422,1.859,1.859,0,0,1-.715-.586,1.4,1.4,0,0,1-.231-.809A1.645,1.645,0,0,1,74.7-5.918a2.574,2.574,0,0,1,1.685-.539,2.649,2.649,0,0,1,1.749.557,1.768,1.768,0,0,1,.671,1.424h-1.09a.979.979,0,0,0-.378-.768,1.416,1.416,0,0,0-.952-.322,1.482,1.482,0,0,0-.926.258.812.812,0,0,0-.334.674.658.658,0,0,0,.311.592,3.821,3.821,0,0,0,1.122.381,5.847,5.847,0,0,1,1.315.434,1.919,1.919,0,0,1,.747.606,1.491,1.491,0,0,1,.243.864A1.623,1.623,0,0,1,78.185-.4a2.851,2.851,0,0,1-1.764.513,3.193,3.193,0,0,1-1.348-.27,2.192,2.192,0,0,1-.917-.753,1.815,1.815,0,0,1-.331-1.046h1.084a1.122,1.122,0,0,0,.437.864,1.693,1.693,0,0,0,1.075.319,1.748,1.748,0,0,0,.987-.249A.765.765,0,0,0,77.78-1.682Z" transform="translate(797.719 6832.665)"/>
    <path id="Trazado_996533" data-name="Trazado 996533" d="M2.121-.92H6.164V0H.99V-8.531H2.121ZM8.455,0H7.365V-6.34h1.09Zm.012-8.994H9.779L8.209-7.271H7.336Zm2.8,2.654.035.8a2.31,2.31,0,0,1,1.9-.914q2.01,0,2.027,2.268V0H14.145V-4.2a1.459,1.459,0,0,0-.313-1.014,1.256,1.256,0,0,0-.958-.328,1.564,1.564,0,0,0-.926.281,1.91,1.91,0,0,0-.621.738V0H10.242V-6.34ZM19.494.117a2.77,2.77,0,0,1-2.1-.847,3.142,3.142,0,0,1-.809-2.265v-.2a3.8,3.8,0,0,1,.36-1.685,2.811,2.811,0,0,1,1.008-1.16,2.534,2.534,0,0,1,1.4-.419,2.374,2.374,0,0,1,1.922.814,3.526,3.526,0,0,1,.686,2.332v.451H17.672a2.254,2.254,0,0,0,.548,1.515,1.722,1.722,0,0,0,1.333.577A1.888,1.888,0,0,0,20.525-1a2.444,2.444,0,0,0,.7-.621l.662.516A2.662,2.662,0,0,1,19.494.117Zm-.135-5.684a1.446,1.446,0,0,0-1.1.478,2.321,2.321,0,0,0-.551,1.339h3.176v-.082a2.065,2.065,0,0,0-.445-1.28A1.361,1.361,0,0,0,19.359-5.566ZM27.135,0a2.277,2.277,0,0,1-.152-.668,2.419,2.419,0,0,1-1.8.785,2.238,2.238,0,0,1-1.538-.53,1.716,1.716,0,0,1-.6-1.345A1.792,1.792,0,0,1,23.792-3.3a3.55,3.55,0,0,1,2.118-.548h1.055v-.5a1.217,1.217,0,0,0-.34-.905,1.366,1.366,0,0,0-1-.337,1.581,1.581,0,0,0-.973.293.863.863,0,0,0-.393.709h-1.09A1.5,1.5,0,0,1,23.5-5.5a2.3,2.3,0,0,1,.914-.7,3.075,3.075,0,0,1,1.269-.258,2.506,2.506,0,0,1,1.717.548A1.976,1.976,0,0,1,28.049-4.4v2.918a3.567,3.567,0,0,0,.223,1.389V0Zm-1.8-.826A1.905,1.905,0,0,0,26.3-1.09a1.6,1.6,0,0,0,.662-.686v-1.3h-.85q-1.992,0-1.992,1.166a.987.987,0,0,0,.34.8A1.306,1.306,0,0,0,25.336-.826ZM33.8-5.572a2.3,2.3,0,0,1,1.875-.885q2.01,0,2.027,2.268V0H36.621V-4.2a1.459,1.459,0,0,0-.313-1.014,1.256,1.256,0,0,0-.958-.328,1.564,1.564,0,0,0-.926.281,1.91,1.91,0,0,0-.621.738V0H32.719V-9H33.8Zm5.238,2.344A3.745,3.745,0,0,1,39.407-4.9a2.732,2.732,0,0,1,1.02-1.148,2.775,2.775,0,0,1,1.491-.4,2.674,2.674,0,0,1,2.095.9,3.449,3.449,0,0,1,.8,2.385V-3.1a3.777,3.777,0,0,1-.354,1.661A2.692,2.692,0,0,1,43.444-.293a2.807,2.807,0,0,1-1.515.41,2.667,2.667,0,0,1-2.089-.9,3.432,3.432,0,0,1-.8-2.373Zm1.09.129a2.712,2.712,0,0,0,.489,1.693,1.566,1.566,0,0,0,1.31.639,1.556,1.556,0,0,0,1.313-.647,2.966,2.966,0,0,0,.486-1.813,2.708,2.708,0,0,0-.5-1.69,1.574,1.574,0,0,0-1.315-.647,1.557,1.557,0,0,0-1.295.639A2.944,2.944,0,0,0,40.131-3.1Zm7.061-3.24.029.7a2.341,2.341,0,0,1,1.881-.82,1.813,1.813,0,0,1,1.811,1.02,2.4,2.4,0,0,1,.823-.738,2.431,2.431,0,0,1,1.2-.281q2.086,0,2.121,2.209V0H53.971V-4.184A1.456,1.456,0,0,0,53.66-5.2a1.368,1.368,0,0,0-1.043-.337,1.437,1.437,0,0,0-1,.36,1.462,1.462,0,0,0-.463.97V0h-1.09V-4.154a1.209,1.209,0,0,0-1.354-1.383,1.45,1.45,0,0,0-1.459.908V0H46.166V-6.34ZM62.057-3.1a3.77,3.77,0,0,1-.668,2.335A2.134,2.134,0,0,1,59.6.117a2.21,2.21,0,0,1-1.857-.85L57.686,0h-1V-9h1.084v3.357a2.2,2.2,0,0,1,1.811-.814,2.147,2.147,0,0,1,1.813.873,3.883,3.883,0,0,1,.659,2.391Zm-1.084-.123a2.929,2.929,0,0,0-.428-1.711,1.416,1.416,0,0,0-1.23-.6,1.591,1.591,0,0,0-1.541,1V-1.8a1.636,1.636,0,0,0,1.553,1,1.408,1.408,0,0,0,1.213-.6A3.115,3.115,0,0,0,60.973-3.223Zm5.514-2.145a3.248,3.248,0,0,0-.533-.041,1.428,1.428,0,0,0-1.447.908V0H63.422V-6.34h1.055l.018.732a1.688,1.688,0,0,1,1.512-.85,1.107,1.107,0,0,1,.48.082Zm.472,2.139A3.745,3.745,0,0,1,67.324-4.9a2.732,2.732,0,0,1,1.02-1.148,2.775,2.775,0,0,1,1.491-.4,2.674,2.674,0,0,1,2.095.9,3.449,3.449,0,0,1,.8,2.385V-3.1a3.777,3.777,0,0,1-.354,1.661A2.692,2.692,0,0,1,71.361-.293a2.807,2.807,0,0,1-1.515.41,2.667,2.667,0,0,1-2.089-.9,3.432,3.432,0,0,1-.8-2.373Zm1.09.129a2.712,2.712,0,0,0,.489,1.693,1.566,1.566,0,0,0,1.31.639,1.556,1.556,0,0,0,1.313-.647,2.966,2.966,0,0,0,.486-1.813,2.708,2.708,0,0,0-.5-1.69,1.574,1.574,0,0,0-1.315-.647,1.557,1.557,0,0,0-1.295.639A2.944,2.944,0,0,0,68.048-3.1ZM77.78-1.682a.8.8,0,0,0-.331-.683A3.187,3.187,0,0,0,76.3-2.783a5.457,5.457,0,0,1-1.307-.422,1.859,1.859,0,0,1-.715-.586,1.4,1.4,0,0,1-.231-.809A1.645,1.645,0,0,1,74.7-5.918a2.574,2.574,0,0,1,1.685-.539,2.649,2.649,0,0,1,1.749.557,1.768,1.768,0,0,1,.671,1.424h-1.09a.979.979,0,0,0-.378-.768,1.416,1.416,0,0,0-.952-.322,1.482,1.482,0,0,0-.926.258.812.812,0,0,0-.334.674.658.658,0,0,0,.311.592,3.821,3.821,0,0,0,1.122.381,5.847,5.847,0,0,1,1.315.434,1.919,1.919,0,0,1,.747.606,1.491,1.491,0,0,1,.243.864A1.623,1.623,0,0,1,78.185-.4a2.851,2.851,0,0,1-1.764.513,3.193,3.193,0,0,1-1.348-.27,2.192,2.192,0,0,1-.917-.753,1.815,1.815,0,0,1-.331-1.046h1.084a1.122,1.122,0,0,0,.437.864,1.693,1.693,0,0,0,1.075.319,1.748,1.748,0,0,0,.987-.249A.765.765,0,0,0,77.78-1.682Z" transform="translate(656.839 6832.665)"/>
    <path id="Trazado_996534" data-name="Trazado 996534" d="M2.121-.92H6.164V0H.99V-8.531H2.121ZM8.455,0H7.365V-6.34h1.09Zm.012-8.994H9.779L8.209-7.271H7.336Zm2.8,2.654.035.8a2.31,2.31,0,0,1,1.9-.914q2.01,0,2.027,2.268V0H14.145V-4.2a1.459,1.459,0,0,0-.313-1.014,1.256,1.256,0,0,0-.958-.328,1.564,1.564,0,0,0-.926.281,1.91,1.91,0,0,0-.621.738V0H10.242V-6.34ZM19.494.117a2.77,2.77,0,0,1-2.1-.847,3.142,3.142,0,0,1-.809-2.265v-.2a3.8,3.8,0,0,1,.36-1.685,2.811,2.811,0,0,1,1.008-1.16,2.534,2.534,0,0,1,1.4-.419,2.374,2.374,0,0,1,1.922.814,3.526,3.526,0,0,1,.686,2.332v.451H17.672a2.254,2.254,0,0,0,.548,1.515,1.722,1.722,0,0,0,1.333.577A1.888,1.888,0,0,0,20.525-1a2.444,2.444,0,0,0,.7-.621l.662.516A2.662,2.662,0,0,1,19.494.117Zm-.135-5.684a1.446,1.446,0,0,0-1.1.478,2.321,2.321,0,0,0-.551,1.339h3.176v-.082a2.065,2.065,0,0,0-.445-1.28A1.361,1.361,0,0,0,19.359-5.566ZM27.135,0a2.277,2.277,0,0,1-.152-.668,2.419,2.419,0,0,1-1.8.785,2.238,2.238,0,0,1-1.538-.53,1.716,1.716,0,0,1-.6-1.345A1.792,1.792,0,0,1,23.792-3.3a3.55,3.55,0,0,1,2.118-.548h1.055v-.5a1.217,1.217,0,0,0-.34-.905,1.366,1.366,0,0,0-1-.337,1.581,1.581,0,0,0-.973.293.863.863,0,0,0-.393.709h-1.09A1.5,1.5,0,0,1,23.5-5.5a2.3,2.3,0,0,1,.914-.7,3.075,3.075,0,0,1,1.269-.258,2.506,2.506,0,0,1,1.717.548A1.976,1.976,0,0,1,28.049-4.4v2.918a3.567,3.567,0,0,0,.223,1.389V0Zm-1.8-.826A1.905,1.905,0,0,0,26.3-1.09a1.6,1.6,0,0,0,.662-.686v-1.3h-.85q-1.992,0-1.992,1.166a.987.987,0,0,0,.34.8A1.306,1.306,0,0,0,25.336-.826ZM33.8-5.572a2.3,2.3,0,0,1,1.875-.885q2.01,0,2.027,2.268V0H36.621V-4.2a1.459,1.459,0,0,0-.313-1.014,1.256,1.256,0,0,0-.958-.328,1.564,1.564,0,0,0-.926.281,1.91,1.91,0,0,0-.621.738V0H32.719V-9H33.8Zm5.238,2.344A3.745,3.745,0,0,1,39.407-4.9a2.732,2.732,0,0,1,1.02-1.148,2.775,2.775,0,0,1,1.491-.4,2.674,2.674,0,0,1,2.095.9,3.449,3.449,0,0,1,.8,2.385V-3.1a3.777,3.777,0,0,1-.354,1.661A2.692,2.692,0,0,1,43.444-.293a2.807,2.807,0,0,1-1.515.41,2.667,2.667,0,0,1-2.089-.9,3.432,3.432,0,0,1-.8-2.373Zm1.09.129a2.712,2.712,0,0,0,.489,1.693,1.566,1.566,0,0,0,1.31.639,1.556,1.556,0,0,0,1.313-.647,2.966,2.966,0,0,0,.486-1.813,2.708,2.708,0,0,0-.5-1.69,1.574,1.574,0,0,0-1.315-.647,1.557,1.557,0,0,0-1.295.639A2.944,2.944,0,0,0,40.131-3.1Zm7.061-3.24.029.7a2.341,2.341,0,0,1,1.881-.82,1.813,1.813,0,0,1,1.811,1.02,2.4,2.4,0,0,1,.823-.738,2.431,2.431,0,0,1,1.2-.281q2.086,0,2.121,2.209V0H53.971V-4.184A1.456,1.456,0,0,0,53.66-5.2a1.368,1.368,0,0,0-1.043-.337,1.437,1.437,0,0,0-1,.36,1.462,1.462,0,0,0-.463.97V0h-1.09V-4.154a1.209,1.209,0,0,0-1.354-1.383,1.45,1.45,0,0,0-1.459.908V0H46.166V-6.34ZM62.057-3.1a3.77,3.77,0,0,1-.668,2.335A2.134,2.134,0,0,1,59.6.117a2.21,2.21,0,0,1-1.857-.85L57.686,0h-1V-9h1.084v3.357a2.2,2.2,0,0,1,1.811-.814,2.147,2.147,0,0,1,1.813.873,3.883,3.883,0,0,1,.659,2.391Zm-1.084-.123a2.929,2.929,0,0,0-.428-1.711,1.416,1.416,0,0,0-1.23-.6,1.591,1.591,0,0,0-1.541,1V-1.8a1.636,1.636,0,0,0,1.553,1,1.408,1.408,0,0,0,1.213-.6A3.115,3.115,0,0,0,60.973-3.223Zm5.514-2.145a3.248,3.248,0,0,0-.533-.041,1.428,1.428,0,0,0-1.447.908V0H63.422V-6.34h1.055l.018.732a1.688,1.688,0,0,1,1.512-.85,1.107,1.107,0,0,1,.48.082Zm.472,2.139A3.745,3.745,0,0,1,67.324-4.9a2.732,2.732,0,0,1,1.02-1.148,2.775,2.775,0,0,1,1.491-.4,2.674,2.674,0,0,1,2.095.9,3.449,3.449,0,0,1,.8,2.385V-3.1a3.777,3.777,0,0,1-.354,1.661A2.692,2.692,0,0,1,71.361-.293a2.807,2.807,0,0,1-1.515.41,2.667,2.667,0,0,1-2.089-.9,3.432,3.432,0,0,1-.8-2.373Zm1.09.129a2.712,2.712,0,0,0,.489,1.693,1.566,1.566,0,0,0,1.31.639,1.556,1.556,0,0,0,1.313-.647,2.966,2.966,0,0,0,.486-1.813,2.708,2.708,0,0,0-.5-1.69,1.574,1.574,0,0,0-1.315-.647,1.557,1.557,0,0,0-1.295.639A2.944,2.944,0,0,0,68.048-3.1ZM77.78-1.682a.8.8,0,0,0-.331-.683A3.187,3.187,0,0,0,76.3-2.783a5.457,5.457,0,0,1-1.307-.422,1.859,1.859,0,0,1-.715-.586,1.4,1.4,0,0,1-.231-.809A1.645,1.645,0,0,1,74.7-5.918a2.574,2.574,0,0,1,1.685-.539,2.649,2.649,0,0,1,1.749.557,1.768,1.768,0,0,1,.671,1.424h-1.09a.979.979,0,0,0-.378-.768,1.416,1.416,0,0,0-.952-.322,1.482,1.482,0,0,0-.926.258.812.812,0,0,0-.334.674.658.658,0,0,0,.311.592,3.821,3.821,0,0,0,1.122.381,5.847,5.847,0,0,1,1.315.434,1.919,1.919,0,0,1,.747.606,1.491,1.491,0,0,1,.243.864A1.623,1.623,0,0,1,78.185-.4a2.851,2.851,0,0,1-1.764.513,3.193,3.193,0,0,1-1.348-.27,2.192,2.192,0,0,1-.917-.753,1.815,1.815,0,0,1-.331-1.046h1.084a1.122,1.122,0,0,0,.437.864,1.693,1.693,0,0,0,1.075.319,1.748,1.748,0,0,0,.987-.249A.765.765,0,0,0,77.78-1.682Z" transform="translate(421.267 6841.01)"/>
    <path id="Trazado_996535" data-name="Trazado 996535" d="M2.121-.92H6.164V0H.99V-8.531H2.121ZM8.455,0H7.365V-6.34h1.09Zm.012-8.994H9.779L8.209-7.271H7.336Zm2.8,2.654.035.8a2.31,2.31,0,0,1,1.9-.914q2.01,0,2.027,2.268V0H14.145V-4.2a1.459,1.459,0,0,0-.313-1.014,1.256,1.256,0,0,0-.958-.328,1.564,1.564,0,0,0-.926.281,1.91,1.91,0,0,0-.621.738V0H10.242V-6.34ZM19.494.117a2.77,2.77,0,0,1-2.1-.847,3.142,3.142,0,0,1-.809-2.265v-.2a3.8,3.8,0,0,1,.36-1.685,2.811,2.811,0,0,1,1.008-1.16,2.534,2.534,0,0,1,1.4-.419,2.374,2.374,0,0,1,1.922.814,3.526,3.526,0,0,1,.686,2.332v.451H17.672a2.254,2.254,0,0,0,.548,1.515,1.722,1.722,0,0,0,1.333.577A1.888,1.888,0,0,0,20.525-1a2.444,2.444,0,0,0,.7-.621l.662.516A2.662,2.662,0,0,1,19.494.117Zm-.135-5.684a1.446,1.446,0,0,0-1.1.478,2.321,2.321,0,0,0-.551,1.339h3.176v-.082a2.065,2.065,0,0,0-.445-1.28A1.361,1.361,0,0,0,19.359-5.566ZM27.135,0a2.277,2.277,0,0,1-.152-.668,2.419,2.419,0,0,1-1.8.785,2.238,2.238,0,0,1-1.538-.53,1.716,1.716,0,0,1-.6-1.345A1.792,1.792,0,0,1,23.792-3.3a3.55,3.55,0,0,1,2.118-.548h1.055v-.5a1.217,1.217,0,0,0-.34-.905,1.366,1.366,0,0,0-1-.337,1.581,1.581,0,0,0-.973.293.863.863,0,0,0-.393.709h-1.09A1.5,1.5,0,0,1,23.5-5.5a2.3,2.3,0,0,1,.914-.7,3.075,3.075,0,0,1,1.269-.258,2.506,2.506,0,0,1,1.717.548A1.976,1.976,0,0,1,28.049-4.4v2.918a3.567,3.567,0,0,0,.223,1.389V0Zm-1.8-.826A1.905,1.905,0,0,0,26.3-1.09a1.6,1.6,0,0,0,.662-.686v-1.3h-.85q-1.992,0-1.992,1.166a.987.987,0,0,0,.34.8A1.306,1.306,0,0,0,25.336-.826ZM33.8-5.572a2.3,2.3,0,0,1,1.875-.885q2.01,0,2.027,2.268V0H36.621V-4.2a1.459,1.459,0,0,0-.313-1.014,1.256,1.256,0,0,0-.958-.328,1.564,1.564,0,0,0-.926.281,1.91,1.91,0,0,0-.621.738V0H32.719V-9H33.8Zm5.238,2.344A3.745,3.745,0,0,1,39.407-4.9a2.732,2.732,0,0,1,1.02-1.148,2.775,2.775,0,0,1,1.491-.4,2.674,2.674,0,0,1,2.095.9,3.449,3.449,0,0,1,.8,2.385V-3.1a3.777,3.777,0,0,1-.354,1.661A2.692,2.692,0,0,1,43.444-.293a2.807,2.807,0,0,1-1.515.41,2.667,2.667,0,0,1-2.089-.9,3.432,3.432,0,0,1-.8-2.373Zm1.09.129a2.712,2.712,0,0,0,.489,1.693,1.566,1.566,0,0,0,1.31.639,1.556,1.556,0,0,0,1.313-.647,2.966,2.966,0,0,0,.486-1.813,2.708,2.708,0,0,0-.5-1.69,1.574,1.574,0,0,0-1.315-.647,1.557,1.557,0,0,0-1.295.639A2.944,2.944,0,0,0,40.131-3.1Zm7.061-3.24.029.7a2.341,2.341,0,0,1,1.881-.82,1.813,1.813,0,0,1,1.811,1.02,2.4,2.4,0,0,1,.823-.738,2.431,2.431,0,0,1,1.2-.281q2.086,0,2.121,2.209V0H53.971V-4.184A1.456,1.456,0,0,0,53.66-5.2a1.368,1.368,0,0,0-1.043-.337,1.437,1.437,0,0,0-1,.36,1.462,1.462,0,0,0-.463.97V0h-1.09V-4.154a1.209,1.209,0,0,0-1.354-1.383,1.45,1.45,0,0,0-1.459.908V0H46.166V-6.34ZM62.057-3.1a3.77,3.77,0,0,1-.668,2.335A2.134,2.134,0,0,1,59.6.117a2.21,2.21,0,0,1-1.857-.85L57.686,0h-1V-9h1.084v3.357a2.2,2.2,0,0,1,1.811-.814,2.147,2.147,0,0,1,1.813.873,3.883,3.883,0,0,1,.659,2.391Zm-1.084-.123a2.929,2.929,0,0,0-.428-1.711,1.416,1.416,0,0,0-1.23-.6,1.591,1.591,0,0,0-1.541,1V-1.8a1.636,1.636,0,0,0,1.553,1,1.408,1.408,0,0,0,1.213-.6A3.115,3.115,0,0,0,60.973-3.223Zm5.514-2.145a3.248,3.248,0,0,0-.533-.041,1.428,1.428,0,0,0-1.447.908V0H63.422V-6.34h1.055l.018.732a1.688,1.688,0,0,1,1.512-.85,1.107,1.107,0,0,1,.48.082Zm.472,2.139A3.745,3.745,0,0,1,67.324-4.9a2.732,2.732,0,0,1,1.02-1.148,2.775,2.775,0,0,1,1.491-.4,2.674,2.674,0,0,1,2.095.9,3.449,3.449,0,0,1,.8,2.385V-3.1a3.777,3.777,0,0,1-.354,1.661A2.692,2.692,0,0,1,71.361-.293a2.807,2.807,0,0,1-1.515.41,2.667,2.667,0,0,1-2.089-.9,3.432,3.432,0,0,1-.8-2.373Zm1.09.129a2.712,2.712,0,0,0,.489,1.693,1.566,1.566,0,0,0,1.31.639,1.556,1.556,0,0,0,1.313-.647,2.966,2.966,0,0,0,.486-1.813,2.708,2.708,0,0,0-.5-1.69,1.574,1.574,0,0,0-1.315-.647,1.557,1.557,0,0,0-1.295.639A2.944,2.944,0,0,0,68.048-3.1ZM77.78-1.682a.8.8,0,0,0-.331-.683A3.187,3.187,0,0,0,76.3-2.783a5.457,5.457,0,0,1-1.307-.422,1.859,1.859,0,0,1-.715-.586,1.4,1.4,0,0,1-.231-.809A1.645,1.645,0,0,1,74.7-5.918a2.574,2.574,0,0,1,1.685-.539,2.649,2.649,0,0,1,1.749.557,1.768,1.768,0,0,1,.671,1.424h-1.09a.979.979,0,0,0-.378-.768,1.416,1.416,0,0,0-.952-.322,1.482,1.482,0,0,0-.926.258.812.812,0,0,0-.334.674.658.658,0,0,0,.311.592,3.821,3.821,0,0,0,1.122.381,5.847,5.847,0,0,1,1.315.434,1.919,1.919,0,0,1,.747.606,1.491,1.491,0,0,1,.243.864A1.623,1.623,0,0,1,78.185-.4a2.851,2.851,0,0,1-1.764.513,3.193,3.193,0,0,1-1.348-.27,2.192,2.192,0,0,1-.917-.753,1.815,1.815,0,0,1-.331-1.046h1.084a1.122,1.122,0,0,0,.437.864,1.693,1.693,0,0,0,1.075.319,1.748,1.748,0,0,0,.987-.249A.765.765,0,0,0,77.78-1.682Z" transform="translate(288.104 6841.01)"/>
    <path id="Trazado_996536" data-name="Trazado 996536" d="M2.121-.92H6.164V0H.99V-8.531H2.121ZM8.455,0H7.365V-6.34h1.09Zm.012-8.994H9.779L8.209-7.271H7.336Zm2.8,2.654.035.8a2.31,2.31,0,0,1,1.9-.914q2.01,0,2.027,2.268V0H14.145V-4.2a1.459,1.459,0,0,0-.313-1.014,1.256,1.256,0,0,0-.958-.328,1.564,1.564,0,0,0-.926.281,1.91,1.91,0,0,0-.621.738V0H10.242V-6.34ZM19.494.117a2.77,2.77,0,0,1-2.1-.847,3.142,3.142,0,0,1-.809-2.265v-.2a3.8,3.8,0,0,1,.36-1.685,2.811,2.811,0,0,1,1.008-1.16,2.534,2.534,0,0,1,1.4-.419,2.374,2.374,0,0,1,1.922.814,3.526,3.526,0,0,1,.686,2.332v.451H17.672a2.254,2.254,0,0,0,.548,1.515,1.722,1.722,0,0,0,1.333.577A1.888,1.888,0,0,0,20.525-1a2.444,2.444,0,0,0,.7-.621l.662.516A2.662,2.662,0,0,1,19.494.117Zm-.135-5.684a1.446,1.446,0,0,0-1.1.478,2.321,2.321,0,0,0-.551,1.339h3.176v-.082a2.065,2.065,0,0,0-.445-1.28A1.361,1.361,0,0,0,19.359-5.566ZM27.135,0a2.277,2.277,0,0,1-.152-.668,2.419,2.419,0,0,1-1.8.785,2.238,2.238,0,0,1-1.538-.53,1.716,1.716,0,0,1-.6-1.345A1.792,1.792,0,0,1,23.792-3.3a3.55,3.55,0,0,1,2.118-.548h1.055v-.5a1.217,1.217,0,0,0-.34-.905,1.366,1.366,0,0,0-1-.337,1.581,1.581,0,0,0-.973.293.863.863,0,0,0-.393.709h-1.09A1.5,1.5,0,0,1,23.5-5.5a2.3,2.3,0,0,1,.914-.7,3.075,3.075,0,0,1,1.269-.258,2.506,2.506,0,0,1,1.717.548A1.976,1.976,0,0,1,28.049-4.4v2.918a3.567,3.567,0,0,0,.223,1.389V0Zm-1.8-.826A1.905,1.905,0,0,0,26.3-1.09a1.6,1.6,0,0,0,.662-.686v-1.3h-.85q-1.992,0-1.992,1.166a.987.987,0,0,0,.34.8A1.306,1.306,0,0,0,25.336-.826Zm8.854-7.049V-6.34h1.184V-5.5H34.189V-1.57A.878.878,0,0,0,34.348-1a.666.666,0,0,0,.539.19,2.624,2.624,0,0,0,.516-.07V0a3.143,3.143,0,0,1-.832.117,1.35,1.35,0,0,1-1.1-.439,1.888,1.888,0,0,1-.369-1.248V-5.5H31.951V-6.34h1.154V-7.875Zm2.042,4.646A3.745,3.745,0,0,1,36.6-4.9a2.732,2.732,0,0,1,1.02-1.148,2.775,2.775,0,0,1,1.491-.4,2.674,2.674,0,0,1,2.095.9A3.449,3.449,0,0,1,42-3.176V-3.1a3.777,3.777,0,0,1-.354,1.661A2.692,2.692,0,0,1,40.635-.293a2.807,2.807,0,0,1-1.515.41,2.667,2.667,0,0,1-2.089-.9,3.432,3.432,0,0,1-.8-2.373Zm1.09.129a2.712,2.712,0,0,0,.489,1.693,1.566,1.566,0,0,0,1.31.639,1.556,1.556,0,0,0,1.313-.647,2.966,2.966,0,0,0,.486-1.813,2.708,2.708,0,0,0-.5-1.69,1.574,1.574,0,0,0-1.315-.647,1.557,1.557,0,0,0-1.295.639A2.944,2.944,0,0,0,37.321-3.1ZM39.6-9h1.313l-1.57,1.723H38.47Zm6.826,3.633a3.248,3.248,0,0,0-.533-.041,1.428,1.428,0,0,0-1.447.908V0H43.362V-6.34h1.055l.018.732a1.688,1.688,0,0,1,1.512-.85,1.107,1.107,0,0,1,.48.082ZM50.875,0a2.277,2.277,0,0,1-.152-.668,2.419,2.419,0,0,1-1.8.785,2.238,2.238,0,0,1-1.538-.53,1.716,1.716,0,0,1-.6-1.345A1.792,1.792,0,0,1,47.532-3.3a3.55,3.55,0,0,1,2.118-.548H50.7v-.5a1.217,1.217,0,0,0-.34-.905,1.366,1.366,0,0,0-1-.337,1.581,1.581,0,0,0-.973.293A.863.863,0,0,0,48-4.582h-1.09a1.5,1.5,0,0,1,.337-.917,2.3,2.3,0,0,1,.914-.7,3.075,3.075,0,0,1,1.269-.258,2.506,2.506,0,0,1,1.717.548A1.976,1.976,0,0,1,51.789-4.4v2.918a3.567,3.567,0,0,0,.223,1.389V0Zm-1.8-.826a1.905,1.905,0,0,0,.967-.264,1.6,1.6,0,0,0,.662-.686v-1.3h-.85q-1.992,0-1.992,1.166a.987.987,0,0,0,.34.8A1.306,1.306,0,0,0,49.076-.826Zm6.539-3.2L57.021-6.34h1.266L56.213-3.205,58.351,0H57.1L55.632-2.373,54.168,0h-1.26l2.139-3.205L52.972-6.34h1.254Z" transform="translate(288.104 6872.36)"/>
    <path id="Trazado_996537" data-name="Trazado 996537" d="M2.121-.92H6.164V0H.99V-8.531H2.121ZM8.455,0H7.365V-6.34h1.09Zm.012-8.994H9.779L8.209-7.271H7.336Zm2.8,2.654.035.8a2.31,2.31,0,0,1,1.9-.914q2.01,0,2.027,2.268V0H14.145V-4.2a1.459,1.459,0,0,0-.313-1.014,1.256,1.256,0,0,0-.958-.328,1.564,1.564,0,0,0-.926.281,1.91,1.91,0,0,0-.621.738V0H10.242V-6.34ZM19.494.117a2.77,2.77,0,0,1-2.1-.847,3.142,3.142,0,0,1-.809-2.265v-.2a3.8,3.8,0,0,1,.36-1.685,2.811,2.811,0,0,1,1.008-1.16,2.534,2.534,0,0,1,1.4-.419,2.374,2.374,0,0,1,1.922.814,3.526,3.526,0,0,1,.686,2.332v.451H17.672a2.254,2.254,0,0,0,.548,1.515,1.722,1.722,0,0,0,1.333.577A1.888,1.888,0,0,0,20.525-1a2.444,2.444,0,0,0,.7-.621l.662.516A2.662,2.662,0,0,1,19.494.117Zm-.135-5.684a1.446,1.446,0,0,0-1.1.478,2.321,2.321,0,0,0-.551,1.339h3.176v-.082a2.065,2.065,0,0,0-.445-1.28A1.361,1.361,0,0,0,19.359-5.566ZM27.135,0a2.277,2.277,0,0,1-.152-.668,2.419,2.419,0,0,1-1.8.785,2.238,2.238,0,0,1-1.538-.53,1.716,1.716,0,0,1-.6-1.345A1.792,1.792,0,0,1,23.792-3.3a3.55,3.55,0,0,1,2.118-.548h1.055v-.5a1.217,1.217,0,0,0-.34-.905,1.366,1.366,0,0,0-1-.337,1.581,1.581,0,0,0-.973.293.863.863,0,0,0-.393.709h-1.09A1.5,1.5,0,0,1,23.5-5.5a2.3,2.3,0,0,1,.914-.7,3.075,3.075,0,0,1,1.269-.258,2.506,2.506,0,0,1,1.717.548A1.976,1.976,0,0,1,28.049-4.4v2.918a3.567,3.567,0,0,0,.223,1.389V0Zm-1.8-.826A1.905,1.905,0,0,0,26.3-1.09a1.6,1.6,0,0,0,.662-.686v-1.3h-.85q-1.992,0-1.992,1.166a.987.987,0,0,0,.34.8A1.306,1.306,0,0,0,25.336-.826Zm8.854-7.049V-6.34h1.184V-5.5H34.189V-1.57A.878.878,0,0,0,34.348-1a.666.666,0,0,0,.539.19,2.624,2.624,0,0,0,.516-.07V0a3.143,3.143,0,0,1-.832.117,1.35,1.35,0,0,1-1.1-.439,1.888,1.888,0,0,1-.369-1.248V-5.5H31.951V-6.34h1.154V-7.875Zm2.042,4.646A3.745,3.745,0,0,1,36.6-4.9a2.732,2.732,0,0,1,1.02-1.148,2.775,2.775,0,0,1,1.491-.4,2.674,2.674,0,0,1,2.095.9A3.449,3.449,0,0,1,42-3.176V-3.1a3.777,3.777,0,0,1-.354,1.661A2.692,2.692,0,0,1,40.635-.293a2.807,2.807,0,0,1-1.515.41,2.667,2.667,0,0,1-2.089-.9,3.432,3.432,0,0,1-.8-2.373Zm1.09.129a2.712,2.712,0,0,0,.489,1.693,1.566,1.566,0,0,0,1.31.639,1.556,1.556,0,0,0,1.313-.647,2.966,2.966,0,0,0,.486-1.813,2.708,2.708,0,0,0-.5-1.69,1.574,1.574,0,0,0-1.315-.647,1.557,1.557,0,0,0-1.295.639A2.944,2.944,0,0,0,37.321-3.1ZM39.6-9h1.313l-1.57,1.723H38.47Zm6.826,3.633a3.248,3.248,0,0,0-.533-.041,1.428,1.428,0,0,0-1.447.908V0H43.362V-6.34h1.055l.018.732a1.688,1.688,0,0,1,1.512-.85,1.107,1.107,0,0,1,.48.082ZM50.875,0a2.277,2.277,0,0,1-.152-.668,2.419,2.419,0,0,1-1.8.785,2.238,2.238,0,0,1-1.538-.53,1.716,1.716,0,0,1-.6-1.345A1.792,1.792,0,0,1,47.532-3.3a3.55,3.55,0,0,1,2.118-.548H50.7v-.5a1.217,1.217,0,0,0-.34-.905,1.366,1.366,0,0,0-1-.337,1.581,1.581,0,0,0-.973.293A.863.863,0,0,0,48-4.582h-1.09a1.5,1.5,0,0,1,.337-.917,2.3,2.3,0,0,1,.914-.7,3.075,3.075,0,0,1,1.269-.258,2.506,2.506,0,0,1,1.717.548A1.976,1.976,0,0,1,51.789-4.4v2.918a3.567,3.567,0,0,0,.223,1.389V0Zm-1.8-.826a1.905,1.905,0,0,0,.967-.264,1.6,1.6,0,0,0,.662-.686v-1.3h-.85q-1.992,0-1.992,1.166a.987.987,0,0,0,.34.8A1.306,1.306,0,0,0,49.076-.826Zm6.539-3.2L57.021-6.34h1.266L56.213-3.205,58.351,0H57.1L55.632-2.373,54.168,0h-1.26l2.139-3.205L52.972-6.34h1.254Z" transform="translate(434.45 6872.36)"/>
    <path id="Trazado_996538" data-name="Trazado 996538" d="M2.121-.92H6.164V0H.99V-8.531H2.121ZM8.455,0H7.365V-6.34h1.09Zm.012-8.994H9.779L8.209-7.271H7.336Zm2.8,2.654.035.8a2.31,2.31,0,0,1,1.9-.914q2.01,0,2.027,2.268V0H14.145V-4.2a1.459,1.459,0,0,0-.313-1.014,1.256,1.256,0,0,0-.958-.328,1.564,1.564,0,0,0-.926.281,1.91,1.91,0,0,0-.621.738V0H10.242V-6.34ZM19.494.117a2.77,2.77,0,0,1-2.1-.847,3.142,3.142,0,0,1-.809-2.265v-.2a3.8,3.8,0,0,1,.36-1.685,2.811,2.811,0,0,1,1.008-1.16,2.534,2.534,0,0,1,1.4-.419,2.374,2.374,0,0,1,1.922.814,3.526,3.526,0,0,1,.686,2.332v.451H17.672a2.254,2.254,0,0,0,.548,1.515,1.722,1.722,0,0,0,1.333.577A1.888,1.888,0,0,0,20.525-1a2.444,2.444,0,0,0,.7-.621l.662.516A2.662,2.662,0,0,1,19.494.117Zm-.135-5.684a1.446,1.446,0,0,0-1.1.478,2.321,2.321,0,0,0-.551,1.339h3.176v-.082a2.065,2.065,0,0,0-.445-1.28A1.361,1.361,0,0,0,19.359-5.566ZM27.135,0a2.277,2.277,0,0,1-.152-.668,2.419,2.419,0,0,1-1.8.785,2.238,2.238,0,0,1-1.538-.53,1.716,1.716,0,0,1-.6-1.345A1.792,1.792,0,0,1,23.792-3.3a3.55,3.55,0,0,1,2.118-.548h1.055v-.5a1.217,1.217,0,0,0-.34-.905,1.366,1.366,0,0,0-1-.337,1.581,1.581,0,0,0-.973.293.863.863,0,0,0-.393.709h-1.09A1.5,1.5,0,0,1,23.5-5.5a2.3,2.3,0,0,1,.914-.7,3.075,3.075,0,0,1,1.269-.258,2.506,2.506,0,0,1,1.717.548A1.976,1.976,0,0,1,28.049-4.4v2.918a3.567,3.567,0,0,0,.223,1.389V0Zm-1.8-.826A1.905,1.905,0,0,0,26.3-1.09a1.6,1.6,0,0,0,.662-.686v-1.3h-.85q-1.992,0-1.992,1.166a.987.987,0,0,0,.34.8A1.306,1.306,0,0,0,25.336-.826Zm9.926.059a1.561,1.561,0,0,0,1.014-.352A1.237,1.237,0,0,0,36.756-2h1.025a1.966,1.966,0,0,1-.375,1.037,2.47,2.47,0,0,1-.923.785,2.663,2.663,0,0,1-1.222.293A2.612,2.612,0,0,1,33.2-.747a3.442,3.442,0,0,1-.765-2.364v-.182a3.817,3.817,0,0,1,.34-1.646,2.588,2.588,0,0,1,.976-1.119,2.771,2.771,0,0,1,1.5-.4,2.543,2.543,0,0,1,1.772.639,2.283,2.283,0,0,1,.753,1.658H36.756a1.494,1.494,0,0,0-.466-1.011,1.449,1.449,0,0,0-1.034-.4,1.517,1.517,0,0,0-1.28.595,2.793,2.793,0,0,0-.454,1.72v.205a2.737,2.737,0,0,0,.451,1.688A1.524,1.524,0,0,0,35.262-.768ZM40.178,0H39.094V-6.34h1.084ZM39.006-8.021a.647.647,0,0,1,.161-.445.6.6,0,0,1,.478-.182.614.614,0,0,1,.48.182.64.64,0,0,1,.164.445.619.619,0,0,1-.164.439.626.626,0,0,1-.48.176.616.616,0,0,1-.478-.176A.626.626,0,0,1,39.006-8.021ZM42.938-6.34l.035.8a2.31,2.31,0,0,1,1.9-.914q2.01,0,2.027,2.268V0H45.814V-4.2A1.459,1.459,0,0,0,45.5-5.209a1.256,1.256,0,0,0-.958-.328,1.564,1.564,0,0,0-.926.281A1.91,1.91,0,0,0,43-4.518V0H41.912V-6.34ZM50-7.875V-6.34h1.184V-5.5H50V-1.57A.878.878,0,0,0,50.162-1a.666.666,0,0,0,.539.19,2.624,2.624,0,0,0,.516-.07V0a3.143,3.143,0,0,1-.832.117,1.35,1.35,0,0,1-1.1-.439A1.888,1.888,0,0,1,48.92-1.57V-5.5H47.766V-6.34H48.92V-7.875ZM56.367-.627A2.3,2.3,0,0,1,54.51.117a1.971,1.971,0,0,1-1.544-.589,2.549,2.549,0,0,1-.536-1.743V-6.34h1.084v4.1Q53.514-.8,54.686-.8a1.623,1.623,0,0,0,1.652-.926V-6.34h1.084V0H56.391Zm5.766-4.74a3.248,3.248,0,0,0-.533-.041,1.428,1.428,0,0,0-1.447.908V0H59.068V-6.34h1.055l.018.732a1.688,1.688,0,0,1,1.512-.85,1.107,1.107,0,0,1,.48.082ZM66.569,0a2.277,2.277,0,0,1-.152-.668,2.419,2.419,0,0,1-1.8.785,2.238,2.238,0,0,1-1.538-.53,1.716,1.716,0,0,1-.6-1.345A1.792,1.792,0,0,1,63.226-3.3a3.55,3.55,0,0,1,2.118-.548H66.4v-.5a1.217,1.217,0,0,0-.34-.905,1.366,1.366,0,0,0-1-.337,1.581,1.581,0,0,0-.973.293.863.863,0,0,0-.393.709H62.6a1.5,1.5,0,0,1,.337-.917,2.3,2.3,0,0,1,.914-.7,3.075,3.075,0,0,1,1.269-.258,2.506,2.506,0,0,1,1.717.548A1.976,1.976,0,0,1,67.483-4.4v2.918a3.567,3.567,0,0,0,.223,1.389V0Zm-1.8-.826a1.905,1.905,0,0,0,.967-.264,1.6,1.6,0,0,0,.662-.686v-1.3h-.85q-1.992,0-1.992,1.166a.987.987,0,0,0,.34.8A1.306,1.306,0,0,0,64.77-.826Z" transform="translate(272.817 7000.757)"/>
    <path id="Trazado_996539" data-name="Trazado 996539" d="M2.121-.92H6.164V0H.99V-8.531H2.121ZM8.455,0H7.365V-6.34h1.09Zm.012-8.994H9.779L8.209-7.271H7.336Zm2.8,2.654.035.8a2.31,2.31,0,0,1,1.9-.914q2.01,0,2.027,2.268V0H14.145V-4.2a1.459,1.459,0,0,0-.313-1.014,1.256,1.256,0,0,0-.958-.328,1.564,1.564,0,0,0-.926.281,1.91,1.91,0,0,0-.621.738V0H10.242V-6.34ZM19.494.117a2.77,2.77,0,0,1-2.1-.847,3.142,3.142,0,0,1-.809-2.265v-.2a3.8,3.8,0,0,1,.36-1.685,2.811,2.811,0,0,1,1.008-1.16,2.534,2.534,0,0,1,1.4-.419,2.374,2.374,0,0,1,1.922.814,3.526,3.526,0,0,1,.686,2.332v.451H17.672a2.254,2.254,0,0,0,.548,1.515,1.722,1.722,0,0,0,1.333.577A1.888,1.888,0,0,0,20.525-1a2.444,2.444,0,0,0,.7-.621l.662.516A2.662,2.662,0,0,1,19.494.117Zm-.135-5.684a1.446,1.446,0,0,0-1.1.478,2.321,2.321,0,0,0-.551,1.339h3.176v-.082a2.065,2.065,0,0,0-.445-1.28A1.361,1.361,0,0,0,19.359-5.566ZM27.135,0a2.277,2.277,0,0,1-.152-.668,2.419,2.419,0,0,1-1.8.785,2.238,2.238,0,0,1-1.538-.53,1.716,1.716,0,0,1-.6-1.345A1.792,1.792,0,0,1,23.792-3.3a3.55,3.55,0,0,1,2.118-.548h1.055v-.5a1.217,1.217,0,0,0-.34-.905,1.366,1.366,0,0,0-1-.337,1.581,1.581,0,0,0-.973.293.863.863,0,0,0-.393.709h-1.09A1.5,1.5,0,0,1,23.5-5.5a2.3,2.3,0,0,1,.914-.7,3.075,3.075,0,0,1,1.269-.258,2.506,2.506,0,0,1,1.717.548A1.976,1.976,0,0,1,28.049-4.4v2.918a3.567,3.567,0,0,0,.223,1.389V0Zm-1.8-.826A1.905,1.905,0,0,0,26.3-1.09a1.6,1.6,0,0,0,.662-.686v-1.3h-.85q-1.992,0-1.992,1.166a.987.987,0,0,0,.34.8A1.306,1.306,0,0,0,25.336-.826Zm9.926.059a1.561,1.561,0,0,0,1.014-.352A1.237,1.237,0,0,0,36.756-2h1.025a1.966,1.966,0,0,1-.375,1.037,2.47,2.47,0,0,1-.923.785,2.663,2.663,0,0,1-1.222.293A2.612,2.612,0,0,1,33.2-.747a3.442,3.442,0,0,1-.765-2.364v-.182a3.817,3.817,0,0,1,.34-1.646,2.588,2.588,0,0,1,.976-1.119,2.771,2.771,0,0,1,1.5-.4,2.543,2.543,0,0,1,1.772.639,2.283,2.283,0,0,1,.753,1.658H36.756a1.494,1.494,0,0,0-.466-1.011,1.449,1.449,0,0,0-1.034-.4,1.517,1.517,0,0,0-1.28.595,2.793,2.793,0,0,0-.454,1.72v.205a2.737,2.737,0,0,0,.451,1.688A1.524,1.524,0,0,0,35.262-.768ZM40.178,0H39.094V-6.34h1.084ZM39.006-8.021a.647.647,0,0,1,.161-.445.6.6,0,0,1,.478-.182.614.614,0,0,1,.48.182.64.64,0,0,1,.164.445.619.619,0,0,1-.164.439.626.626,0,0,1-.48.176.616.616,0,0,1-.478-.176A.626.626,0,0,1,39.006-8.021ZM42.938-6.34l.035.8a2.31,2.31,0,0,1,1.9-.914q2.01,0,2.027,2.268V0H45.814V-4.2A1.459,1.459,0,0,0,45.5-5.209a1.256,1.256,0,0,0-.958-.328,1.564,1.564,0,0,0-.926.281A1.91,1.91,0,0,0,43-4.518V0H41.912V-6.34ZM50-7.875V-6.34h1.184V-5.5H50V-1.57A.878.878,0,0,0,50.162-1a.666.666,0,0,0,.539.19,2.624,2.624,0,0,0,.516-.07V0a3.143,3.143,0,0,1-.832.117,1.35,1.35,0,0,1-1.1-.439A1.888,1.888,0,0,1,48.92-1.57V-5.5H47.766V-6.34H48.92V-7.875ZM56.367-.627A2.3,2.3,0,0,1,54.51.117a1.971,1.971,0,0,1-1.544-.589,2.549,2.549,0,0,1-.536-1.743V-6.34h1.084v4.1Q53.514-.8,54.686-.8a1.623,1.623,0,0,0,1.652-.926V-6.34h1.084V0H56.391Zm5.766-4.74a3.248,3.248,0,0,0-.533-.041,1.428,1.428,0,0,0-1.447.908V0H59.068V-6.34h1.055l.018.732a1.688,1.688,0,0,1,1.512-.85,1.107,1.107,0,0,1,.48.082ZM66.569,0a2.277,2.277,0,0,1-.152-.668,2.419,2.419,0,0,1-1.8.785,2.238,2.238,0,0,1-1.538-.53,1.716,1.716,0,0,1-.6-1.345A1.792,1.792,0,0,1,63.226-3.3a3.55,3.55,0,0,1,2.118-.548H66.4v-.5a1.217,1.217,0,0,0-.34-.905,1.366,1.366,0,0,0-1-.337,1.581,1.581,0,0,0-.973.293.863.863,0,0,0-.393.709H62.6a1.5,1.5,0,0,1,.337-.917,2.3,2.3,0,0,1,.914-.7,3.075,3.075,0,0,1,1.269-.258,2.506,2.506,0,0,1,1.717.548A1.976,1.976,0,0,1,67.483-4.4v2.918a3.567,3.567,0,0,0,.223,1.389V0Zm-1.8-.826a1.905,1.905,0,0,0,.967-.264,1.6,1.6,0,0,0,.662-.686v-1.3h-.85q-1.992,0-1.992,1.166a.987.987,0,0,0,.34.8A1.306,1.306,0,0,0,64.77-.826Z" transform="translate(453.61 7000.757)"/>
    <path id="Trazado_996540" data-name="Trazado 996540" d="M2.121-.92H6.164V0H.99V-8.531H2.121ZM8.455,0H7.365V-6.34h1.09Zm.012-8.994H9.779L8.209-7.271H7.336Zm2.8,2.654.035.8a2.31,2.31,0,0,1,1.9-.914q2.01,0,2.027,2.268V0H14.145V-4.2a1.459,1.459,0,0,0-.313-1.014,1.256,1.256,0,0,0-.958-.328,1.564,1.564,0,0,0-.926.281,1.91,1.91,0,0,0-.621.738V0H10.242V-6.34ZM19.494.117a2.77,2.77,0,0,1-2.1-.847,3.142,3.142,0,0,1-.809-2.265v-.2a3.8,3.8,0,0,1,.36-1.685,2.811,2.811,0,0,1,1.008-1.16,2.534,2.534,0,0,1,1.4-.419,2.374,2.374,0,0,1,1.922.814,3.526,3.526,0,0,1,.686,2.332v.451H17.672a2.254,2.254,0,0,0,.548,1.515,1.722,1.722,0,0,0,1.333.577A1.888,1.888,0,0,0,20.525-1a2.444,2.444,0,0,0,.7-.621l.662.516A2.662,2.662,0,0,1,19.494.117Zm-.135-5.684a1.446,1.446,0,0,0-1.1.478,2.321,2.321,0,0,0-.551,1.339h3.176v-.082a2.065,2.065,0,0,0-.445-1.28A1.361,1.361,0,0,0,19.359-5.566ZM27.135,0a2.277,2.277,0,0,1-.152-.668,2.419,2.419,0,0,1-1.8.785,2.238,2.238,0,0,1-1.538-.53,1.716,1.716,0,0,1-.6-1.345A1.792,1.792,0,0,1,23.792-3.3a3.55,3.55,0,0,1,2.118-.548h1.055v-.5a1.217,1.217,0,0,0-.34-.905,1.366,1.366,0,0,0-1-.337,1.581,1.581,0,0,0-.973.293.863.863,0,0,0-.393.709h-1.09A1.5,1.5,0,0,1,23.5-5.5a2.3,2.3,0,0,1,.914-.7,3.075,3.075,0,0,1,1.269-.258,2.506,2.506,0,0,1,1.717.548A1.976,1.976,0,0,1,28.049-4.4v2.918a3.567,3.567,0,0,0,.223,1.389V0Zm-1.8-.826A1.905,1.905,0,0,0,26.3-1.09a1.6,1.6,0,0,0,.662-.686v-1.3h-.85q-1.992,0-1.992,1.166a.987.987,0,0,0,.34.8A1.306,1.306,0,0,0,25.336-.826Zm9.926.059a1.561,1.561,0,0,0,1.014-.352A1.237,1.237,0,0,0,36.756-2h1.025a1.966,1.966,0,0,1-.375,1.037,2.47,2.47,0,0,1-.923.785,2.663,2.663,0,0,1-1.222.293A2.612,2.612,0,0,1,33.2-.747a3.442,3.442,0,0,1-.765-2.364v-.182a3.817,3.817,0,0,1,.34-1.646,2.588,2.588,0,0,1,.976-1.119,2.771,2.771,0,0,1,1.5-.4,2.543,2.543,0,0,1,1.772.639,2.283,2.283,0,0,1,.753,1.658H36.756a1.494,1.494,0,0,0-.466-1.011,1.449,1.449,0,0,0-1.034-.4,1.517,1.517,0,0,0-1.28.595,2.793,2.793,0,0,0-.454,1.72v.205a2.737,2.737,0,0,0,.451,1.688A1.524,1.524,0,0,0,35.262-.768ZM40.178,0H39.094V-6.34h1.084ZM39.006-8.021a.647.647,0,0,1,.161-.445.6.6,0,0,1,.478-.182.614.614,0,0,1,.48.182.64.64,0,0,1,.164.445.619.619,0,0,1-.164.439.626.626,0,0,1-.48.176.616.616,0,0,1-.478-.176A.626.626,0,0,1,39.006-8.021ZM42.938-6.34l.035.8a2.31,2.31,0,0,1,1.9-.914q2.01,0,2.027,2.268V0H45.814V-4.2A1.459,1.459,0,0,0,45.5-5.209a1.256,1.256,0,0,0-.958-.328,1.564,1.564,0,0,0-.926.281A1.91,1.91,0,0,0,43-4.518V0H41.912V-6.34ZM50-7.875V-6.34h1.184V-5.5H50V-1.57A.878.878,0,0,0,50.162-1a.666.666,0,0,0,.539.19,2.624,2.624,0,0,0,.516-.07V0a3.143,3.143,0,0,1-.832.117,1.35,1.35,0,0,1-1.1-.439A1.888,1.888,0,0,1,48.92-1.57V-5.5H47.766V-6.34H48.92V-7.875ZM56.367-.627A2.3,2.3,0,0,1,54.51.117a1.971,1.971,0,0,1-1.544-.589,2.549,2.549,0,0,1-.536-1.743V-6.34h1.084v4.1Q53.514-.8,54.686-.8a1.623,1.623,0,0,0,1.652-.926V-6.34h1.084V0H56.391Zm5.766-4.74a3.248,3.248,0,0,0-.533-.041,1.428,1.428,0,0,0-1.447.908V0H59.068V-6.34h1.055l.018.732a1.688,1.688,0,0,1,1.512-.85,1.107,1.107,0,0,1,.48.082ZM66.569,0a2.277,2.277,0,0,1-.152-.668,2.419,2.419,0,0,1-1.8.785,2.238,2.238,0,0,1-1.538-.53,1.716,1.716,0,0,1-.6-1.345A1.792,1.792,0,0,1,63.226-3.3a3.55,3.55,0,0,1,2.118-.548H66.4v-.5a1.217,1.217,0,0,0-.34-.905,1.366,1.366,0,0,0-1-.337,1.581,1.581,0,0,0-.973.293.863.863,0,0,0-.393.709H62.6a1.5,1.5,0,0,1,.337-.917,2.3,2.3,0,0,1,.914-.7,3.075,3.075,0,0,1,1.269-.258,2.506,2.506,0,0,1,1.717.548A1.976,1.976,0,0,1,67.483-4.4v2.918a3.567,3.567,0,0,0,.223,1.389V0Zm-1.8-.826a1.905,1.905,0,0,0,.967-.264,1.6,1.6,0,0,0,.662-.686v-1.3h-.85q-1.992,0-1.992,1.166a.987.987,0,0,0,.34.8A1.306,1.306,0,0,0,64.77-.826Z" transform="translate(645.469 7000.757)"/>
    <path id="Trazado_996541" data-name="Trazado 996541" d="M2.121-.92H6.164V0H.99V-8.531H2.121ZM8.455,0H7.365V-6.34h1.09Zm.012-8.994H9.779L8.209-7.271H7.336Zm2.8,2.654.035.8a2.31,2.31,0,0,1,1.9-.914q2.01,0,2.027,2.268V0H14.145V-4.2a1.459,1.459,0,0,0-.313-1.014,1.256,1.256,0,0,0-.958-.328,1.564,1.564,0,0,0-.926.281,1.91,1.91,0,0,0-.621.738V0H10.242V-6.34ZM19.494.117a2.77,2.77,0,0,1-2.1-.847,3.142,3.142,0,0,1-.809-2.265v-.2a3.8,3.8,0,0,1,.36-1.685,2.811,2.811,0,0,1,1.008-1.16,2.534,2.534,0,0,1,1.4-.419,2.374,2.374,0,0,1,1.922.814,3.526,3.526,0,0,1,.686,2.332v.451H17.672a2.254,2.254,0,0,0,.548,1.515,1.722,1.722,0,0,0,1.333.577A1.888,1.888,0,0,0,20.525-1a2.444,2.444,0,0,0,.7-.621l.662.516A2.662,2.662,0,0,1,19.494.117Zm-.135-5.684a1.446,1.446,0,0,0-1.1.478,2.321,2.321,0,0,0-.551,1.339h3.176v-.082a2.065,2.065,0,0,0-.445-1.28A1.361,1.361,0,0,0,19.359-5.566ZM27.135,0a2.277,2.277,0,0,1-.152-.668,2.419,2.419,0,0,1-1.8.785,2.238,2.238,0,0,1-1.538-.53,1.716,1.716,0,0,1-.6-1.345A1.792,1.792,0,0,1,23.792-3.3a3.55,3.55,0,0,1,2.118-.548h1.055v-.5a1.217,1.217,0,0,0-.34-.905,1.366,1.366,0,0,0-1-.337,1.581,1.581,0,0,0-.973.293.863.863,0,0,0-.393.709h-1.09A1.5,1.5,0,0,1,23.5-5.5a2.3,2.3,0,0,1,.914-.7,3.075,3.075,0,0,1,1.269-.258,2.506,2.506,0,0,1,1.717.548A1.976,1.976,0,0,1,28.049-4.4v2.918a3.567,3.567,0,0,0,.223,1.389V0Zm-1.8-.826A1.905,1.905,0,0,0,26.3-1.09a1.6,1.6,0,0,0,.662-.686v-1.3h-.85q-1.992,0-1.992,1.166a.987.987,0,0,0,.34.8A1.306,1.306,0,0,0,25.336-.826Zm9.926.059a1.561,1.561,0,0,0,1.014-.352A1.237,1.237,0,0,0,36.756-2h1.025a1.966,1.966,0,0,1-.375,1.037,2.47,2.47,0,0,1-.923.785,2.663,2.663,0,0,1-1.222.293A2.612,2.612,0,0,1,33.2-.747a3.442,3.442,0,0,1-.765-2.364v-.182a3.817,3.817,0,0,1,.34-1.646,2.588,2.588,0,0,1,.976-1.119,2.771,2.771,0,0,1,1.5-.4,2.543,2.543,0,0,1,1.772.639,2.283,2.283,0,0,1,.753,1.658H36.756a1.494,1.494,0,0,0-.466-1.011,1.449,1.449,0,0,0-1.034-.4,1.517,1.517,0,0,0-1.28.595,2.793,2.793,0,0,0-.454,1.72v.205a2.737,2.737,0,0,0,.451,1.688A1.524,1.524,0,0,0,35.262-.768ZM40.178,0H39.094V-6.34h1.084ZM39.006-8.021a.647.647,0,0,1,.161-.445.6.6,0,0,1,.478-.182.614.614,0,0,1,.48.182.64.64,0,0,1,.164.445.619.619,0,0,1-.164.439.626.626,0,0,1-.48.176.616.616,0,0,1-.478-.176A.626.626,0,0,1,39.006-8.021ZM42.938-6.34l.035.8a2.31,2.31,0,0,1,1.9-.914q2.01,0,2.027,2.268V0H45.814V-4.2A1.459,1.459,0,0,0,45.5-5.209a1.256,1.256,0,0,0-.958-.328,1.564,1.564,0,0,0-.926.281A1.91,1.91,0,0,0,43-4.518V0H41.912V-6.34ZM50-7.875V-6.34h1.184V-5.5H50V-1.57A.878.878,0,0,0,50.162-1a.666.666,0,0,0,.539.19,2.624,2.624,0,0,0,.516-.07V0a3.143,3.143,0,0,1-.832.117,1.35,1.35,0,0,1-1.1-.439A1.888,1.888,0,0,1,48.92-1.57V-5.5H47.766V-6.34H48.92V-7.875ZM56.367-.627A2.3,2.3,0,0,1,54.51.117a1.971,1.971,0,0,1-1.544-.589,2.549,2.549,0,0,1-.536-1.743V-6.34h1.084v4.1Q53.514-.8,54.686-.8a1.623,1.623,0,0,0,1.652-.926V-6.34h1.084V0H56.391Zm5.766-4.74a3.248,3.248,0,0,0-.533-.041,1.428,1.428,0,0,0-1.447.908V0H59.068V-6.34h1.055l.018.732a1.688,1.688,0,0,1,1.512-.85,1.107,1.107,0,0,1,.48.082ZM66.569,0a2.277,2.277,0,0,1-.152-.668,2.419,2.419,0,0,1-1.8.785,2.238,2.238,0,0,1-1.538-.53,1.716,1.716,0,0,1-.6-1.345A1.792,1.792,0,0,1,63.226-3.3a3.55,3.55,0,0,1,2.118-.548H66.4v-.5a1.217,1.217,0,0,0-.34-.905,1.366,1.366,0,0,0-1-.337,1.581,1.581,0,0,0-.973.293.863.863,0,0,0-.393.709H62.6a1.5,1.5,0,0,1,.337-.917,2.3,2.3,0,0,1,.914-.7,3.075,3.075,0,0,1,1.269-.258,2.506,2.506,0,0,1,1.717.548A1.976,1.976,0,0,1,67.483-4.4v2.918a3.567,3.567,0,0,0,.223,1.389V0Zm-1.8-.826a1.905,1.905,0,0,0,.967-.264,1.6,1.6,0,0,0,.662-.686v-1.3h-.85q-1.992,0-1.992,1.166a.987.987,0,0,0,.34.8A1.306,1.306,0,0,0,64.77-.826Z" transform="translate(821 7000.757)"/>
    <path id="Trazado_996542" data-name="Trazado 996542" d="M2.121-.92H6.164V0H.99V-8.531H2.121ZM8.455,0H7.365V-6.34h1.09Zm.012-8.994H9.779L8.209-7.271H7.336Zm2.8,2.654.035.8a2.31,2.31,0,0,1,1.9-.914q2.01,0,2.027,2.268V0H14.145V-4.2a1.459,1.459,0,0,0-.313-1.014,1.256,1.256,0,0,0-.958-.328,1.564,1.564,0,0,0-.926.281,1.91,1.91,0,0,0-.621.738V0H10.242V-6.34ZM19.494.117a2.77,2.77,0,0,1-2.1-.847,3.142,3.142,0,0,1-.809-2.265v-.2a3.8,3.8,0,0,1,.36-1.685,2.811,2.811,0,0,1,1.008-1.16,2.534,2.534,0,0,1,1.4-.419,2.374,2.374,0,0,1,1.922.814,3.526,3.526,0,0,1,.686,2.332v.451H17.672a2.254,2.254,0,0,0,.548,1.515,1.722,1.722,0,0,0,1.333.577A1.888,1.888,0,0,0,20.525-1a2.444,2.444,0,0,0,.7-.621l.662.516A2.662,2.662,0,0,1,19.494.117Zm-.135-5.684a1.446,1.446,0,0,0-1.1.478,2.321,2.321,0,0,0-.551,1.339h3.176v-.082a2.065,2.065,0,0,0-.445-1.28A1.361,1.361,0,0,0,19.359-5.566ZM27.135,0a2.277,2.277,0,0,1-.152-.668,2.419,2.419,0,0,1-1.8.785,2.238,2.238,0,0,1-1.538-.53,1.716,1.716,0,0,1-.6-1.345A1.792,1.792,0,0,1,23.792-3.3a3.55,3.55,0,0,1,2.118-.548h1.055v-.5a1.217,1.217,0,0,0-.34-.905,1.366,1.366,0,0,0-1-.337,1.581,1.581,0,0,0-.973.293.863.863,0,0,0-.393.709h-1.09A1.5,1.5,0,0,1,23.5-5.5a2.3,2.3,0,0,1,.914-.7,3.075,3.075,0,0,1,1.269-.258,2.506,2.506,0,0,1,1.717.548A1.976,1.976,0,0,1,28.049-4.4v2.918a3.567,3.567,0,0,0,.223,1.389V0Zm-1.8-.826A1.905,1.905,0,0,0,26.3-1.09a1.6,1.6,0,0,0,.662-.686v-1.3h-.85q-1.992,0-1.992,1.166a.987.987,0,0,0,.34.8A1.306,1.306,0,0,0,25.336-.826Zm8.854-7.049V-6.34h1.184V-5.5H34.189V-1.57A.878.878,0,0,0,34.348-1a.666.666,0,0,0,.539.19,2.624,2.624,0,0,0,.516-.07V0a3.143,3.143,0,0,1-.832.117,1.35,1.35,0,0,1-1.1-.439,1.888,1.888,0,0,1-.369-1.248V-5.5H31.951V-6.34h1.154V-7.875Zm2.042,4.646A3.745,3.745,0,0,1,36.6-4.9a2.732,2.732,0,0,1,1.02-1.148,2.775,2.775,0,0,1,1.491-.4,2.674,2.674,0,0,1,2.095.9A3.449,3.449,0,0,1,42-3.176V-3.1a3.777,3.777,0,0,1-.354,1.661A2.692,2.692,0,0,1,40.635-.293a2.807,2.807,0,0,1-1.515.41,2.667,2.667,0,0,1-2.089-.9,3.432,3.432,0,0,1-.8-2.373Zm1.09.129a2.712,2.712,0,0,0,.489,1.693,1.566,1.566,0,0,0,1.31.639,1.556,1.556,0,0,0,1.313-.647,2.966,2.966,0,0,0,.486-1.813,2.708,2.708,0,0,0-.5-1.69,1.574,1.574,0,0,0-1.315-.647,1.557,1.557,0,0,0-1.295.639A2.944,2.944,0,0,0,37.321-3.1ZM39.6-9h1.313l-1.57,1.723H38.47Zm6.826,3.633a3.248,3.248,0,0,0-.533-.041,1.428,1.428,0,0,0-1.447.908V0H43.362V-6.34h1.055l.018.732a1.688,1.688,0,0,1,1.512-.85,1.107,1.107,0,0,1,.48.082ZM50.875,0a2.277,2.277,0,0,1-.152-.668,2.419,2.419,0,0,1-1.8.785,2.238,2.238,0,0,1-1.538-.53,1.716,1.716,0,0,1-.6-1.345A1.792,1.792,0,0,1,47.532-3.3a3.55,3.55,0,0,1,2.118-.548H50.7v-.5a1.217,1.217,0,0,0-.34-.905,1.366,1.366,0,0,0-1-.337,1.581,1.581,0,0,0-.973.293A.863.863,0,0,0,48-4.582h-1.09a1.5,1.5,0,0,1,.337-.917,2.3,2.3,0,0,1,.914-.7,3.075,3.075,0,0,1,1.269-.258,2.506,2.506,0,0,1,1.717.548A1.976,1.976,0,0,1,51.789-4.4v2.918a3.567,3.567,0,0,0,.223,1.389V0Zm-1.8-.826a1.905,1.905,0,0,0,.967-.264,1.6,1.6,0,0,0,.662-.686v-1.3h-.85q-1.992,0-1.992,1.166a.987.987,0,0,0,.34.8A1.306,1.306,0,0,0,49.076-.826Zm6.539-3.2L57.021-6.34h1.266L56.213-3.205,58.351,0H57.1L55.632-2.373,54.168,0h-1.26l2.139-3.205L52.972-6.34h1.254Z" transform="translate(662.422 6872.36)"/>
    <path id="Trazado_996543" data-name="Trazado 996543" d="M2.121-.92H6.164V0H.99V-8.531H2.121ZM8.455,0H7.365V-6.34h1.09Zm.012-8.994H9.779L8.209-7.271H7.336Zm2.8,2.654.035.8a2.31,2.31,0,0,1,1.9-.914q2.01,0,2.027,2.268V0H14.145V-4.2a1.459,1.459,0,0,0-.313-1.014,1.256,1.256,0,0,0-.958-.328,1.564,1.564,0,0,0-.926.281,1.91,1.91,0,0,0-.621.738V0H10.242V-6.34ZM19.494.117a2.77,2.77,0,0,1-2.1-.847,3.142,3.142,0,0,1-.809-2.265v-.2a3.8,3.8,0,0,1,.36-1.685,2.811,2.811,0,0,1,1.008-1.16,2.534,2.534,0,0,1,1.4-.419,2.374,2.374,0,0,1,1.922.814,3.526,3.526,0,0,1,.686,2.332v.451H17.672a2.254,2.254,0,0,0,.548,1.515,1.722,1.722,0,0,0,1.333.577A1.888,1.888,0,0,0,20.525-1a2.444,2.444,0,0,0,.7-.621l.662.516A2.662,2.662,0,0,1,19.494.117Zm-.135-5.684a1.446,1.446,0,0,0-1.1.478,2.321,2.321,0,0,0-.551,1.339h3.176v-.082a2.065,2.065,0,0,0-.445-1.28A1.361,1.361,0,0,0,19.359-5.566ZM27.135,0a2.277,2.277,0,0,1-.152-.668,2.419,2.419,0,0,1-1.8.785,2.238,2.238,0,0,1-1.538-.53,1.716,1.716,0,0,1-.6-1.345A1.792,1.792,0,0,1,23.792-3.3a3.55,3.55,0,0,1,2.118-.548h1.055v-.5a1.217,1.217,0,0,0-.34-.905,1.366,1.366,0,0,0-1-.337,1.581,1.581,0,0,0-.973.293.863.863,0,0,0-.393.709h-1.09A1.5,1.5,0,0,1,23.5-5.5a2.3,2.3,0,0,1,.914-.7,3.075,3.075,0,0,1,1.269-.258,2.506,2.506,0,0,1,1.717.548A1.976,1.976,0,0,1,28.049-4.4v2.918a3.567,3.567,0,0,0,.223,1.389V0Zm-1.8-.826A1.905,1.905,0,0,0,26.3-1.09a1.6,1.6,0,0,0,.662-.686v-1.3h-.85q-1.992,0-1.992,1.166a.987.987,0,0,0,.34.8A1.306,1.306,0,0,0,25.336-.826Zm8.854-7.049V-6.34h1.184V-5.5H34.189V-1.57A.878.878,0,0,0,34.348-1a.666.666,0,0,0,.539.19,2.624,2.624,0,0,0,.516-.07V0a3.143,3.143,0,0,1-.832.117,1.35,1.35,0,0,1-1.1-.439,1.888,1.888,0,0,1-.369-1.248V-5.5H31.951V-6.34h1.154V-7.875Zm2.042,4.646A3.745,3.745,0,0,1,36.6-4.9a2.732,2.732,0,0,1,1.02-1.148,2.775,2.775,0,0,1,1.491-.4,2.674,2.674,0,0,1,2.095.9A3.449,3.449,0,0,1,42-3.176V-3.1a3.777,3.777,0,0,1-.354,1.661A2.692,2.692,0,0,1,40.635-.293a2.807,2.807,0,0,1-1.515.41,2.667,2.667,0,0,1-2.089-.9,3.432,3.432,0,0,1-.8-2.373Zm1.09.129a2.712,2.712,0,0,0,.489,1.693,1.566,1.566,0,0,0,1.31.639,1.556,1.556,0,0,0,1.313-.647,2.966,2.966,0,0,0,.486-1.813,2.708,2.708,0,0,0-.5-1.69,1.574,1.574,0,0,0-1.315-.647,1.557,1.557,0,0,0-1.295.639A2.944,2.944,0,0,0,37.321-3.1ZM39.6-9h1.313l-1.57,1.723H38.47Zm6.826,3.633a3.248,3.248,0,0,0-.533-.041,1.428,1.428,0,0,0-1.447.908V0H43.362V-6.34h1.055l.018.732a1.688,1.688,0,0,1,1.512-.85,1.107,1.107,0,0,1,.48.082ZM50.875,0a2.277,2.277,0,0,1-.152-.668,2.419,2.419,0,0,1-1.8.785,2.238,2.238,0,0,1-1.538-.53,1.716,1.716,0,0,1-.6-1.345A1.792,1.792,0,0,1,47.532-3.3a3.55,3.55,0,0,1,2.118-.548H50.7v-.5a1.217,1.217,0,0,0-.34-.905,1.366,1.366,0,0,0-1-.337,1.581,1.581,0,0,0-.973.293A.863.863,0,0,0,48-4.582h-1.09a1.5,1.5,0,0,1,.337-.917,2.3,2.3,0,0,1,.914-.7,3.075,3.075,0,0,1,1.269-.258,2.506,2.506,0,0,1,1.717.548A1.976,1.976,0,0,1,51.789-4.4v2.918a3.567,3.567,0,0,0,.223,1.389V0Zm-1.8-.826a1.905,1.905,0,0,0,.967-.264,1.6,1.6,0,0,0,.662-.686v-1.3h-.85q-1.992,0-1.992,1.166a.987.987,0,0,0,.34.8A1.306,1.306,0,0,0,49.076-.826Zm6.539-3.2L57.021-6.34h1.266L56.213-3.205,58.351,0H57.1L55.632-2.373,54.168,0h-1.26l2.139-3.205L52.972-6.34h1.254Z" transform="translate(807.452 6872.36)"/>
    <path id="Trazado_996544" data-name="Trazado 996544" d="M7.184-7.107H4.57V0H2.813V-7.107H.234V-8.531H7.184Zm4.16,3.984h-1.4V0H8.186V-8.531h3.17a3.583,3.583,0,0,1,2.332.674,2.326,2.326,0,0,1,.82,1.9A2.625,2.625,0,0,1,14.13-4.5a2.578,2.578,0,0,1-1.146.929L14.83-.082V0H12.943Zm-1.4-1.424h1.418a1.452,1.452,0,0,0,1.025-.337,1.2,1.2,0,0,0,.363-.929,1.289,1.289,0,0,0-.343-.949,1.424,1.424,0,0,0-1.052-.346H9.943ZM20.66-1.758H17.578L16.992,0H15.123L18.3-8.531h1.629L23.121,0H21.252ZM18.053-3.182h2.133L19.113-6.375Zm10.289.943A.9.9,0,0,0,27.99-3a4.611,4.611,0,0,0-1.266-.562,8.972,8.972,0,0,1-1.447-.583,2.365,2.365,0,0,1-1.453-2.115,2.06,2.06,0,0,1,.39-1.233,2.542,2.542,0,0,1,1.119-.847,4.212,4.212,0,0,1,1.638-.3,3.834,3.834,0,0,1,1.629.331,2.594,2.594,0,0,1,1.11.935,2.445,2.445,0,0,1,.4,1.371H28.348a1.15,1.15,0,0,0-.369-.911,1.517,1.517,0,0,0-1.037-.325,1.621,1.621,0,0,0-1,.272.859.859,0,0,0-.357.718.823.823,0,0,0,.419.7,4.733,4.733,0,0,0,1.233.527A5.329,5.329,0,0,1,29.42-3.914a2.229,2.229,0,0,1,.686,1.664,2.053,2.053,0,0,1-.838,1.737,3.668,3.668,0,0,1-2.256.63,4.356,4.356,0,0,1-1.793-.36,2.837,2.837,0,0,1-1.233-.987,2.528,2.528,0,0,1-.425-1.453h1.764q0,1.412,1.688,1.412a1.642,1.642,0,0,0,.979-.255A.829.829,0,0,0,28.342-2.238ZM36.428-3.7H33.053v2.285h3.961V0H31.295V-8.531H37v1.424H33.053v2.033h3.375Zm4.775.574H39.8V0H38.045V-8.531h3.17a3.583,3.583,0,0,1,2.332.674,2.326,2.326,0,0,1,.82,1.9A2.625,2.625,0,0,1,43.989-4.5a2.578,2.578,0,0,1-1.146.929L44.689-.082V0H42.8ZM39.8-4.547h1.418a1.452,1.452,0,0,0,1.025-.337,1.2,1.2,0,0,0,.363-.929,1.289,1.289,0,0,0-.343-.949,1.424,1.424,0,0,0-1.052-.346H39.8ZM50.52-1.758H47.438L46.852,0H44.982l3.176-8.531h1.629L52.98,0H51.111ZM47.912-3.182h2.133L48.973-6.375Z" transform="translate(799.341 7051.035)"/>
  </g>
</svg>
