<svg xmlns="http://www.w3.org/2000/svg" xmlns:xlink="http://www.w3.org/1999/xlink" width="370" height="279.719" viewBox="0 0 370 279.719">
  <defs>
    <clipPath id="clip-path">
      <rect id="Rectángulo_454755" data-name="Rectángulo 454755" width="370" height="279.719" fill="none"/>
    </clipPath>
  </defs>
  <g id="Grupo_1177308" data-name="Grupo 1177308" transform="translate(-1030.711 -6810)">
    <path id="Trazado_996545" data-name="Trazado 996545" d="M.571,0V-6.4H2.54a2.99,2.99,0,0,1,1.51.38A2.651,2.651,0,0,1,5.089-4.937a3.334,3.334,0,0,1,.374,1.593v.294A3.344,3.344,0,0,1,5.1-1.463,2.628,2.628,0,0,1,4.061-.387,3.012,3.012,0,0,1,2.553,0ZM1.89-5.331v4.271h.637a1.432,1.432,0,0,0,1.182-.505A2.284,2.284,0,0,0,4.126-3.01v-.338a2.32,2.32,0,0,0-.4-1.479,1.427,1.427,0,0,0-1.182-.5Zm8.38,2.558H7.739v1.714h2.971V0H6.42V-6.4H10.7v1.068H7.739v1.525H10.27ZM12.8-1.059h2.8V0H11.483V-6.4H12.8Zm7.332-.259H17.822L17.382,0h-1.4l2.382-6.4h1.222l2.4,6.4h-1.4ZM18.178-2.386h1.6l-.8-2.4ZM27.78,0H26.461L23.895-4.21V0H22.577V-6.4h1.318L26.466-2.18V-6.4H27.78Zm5.842-5.331h-1.96V0H30.343V-5.331H28.41V-6.4h5.212Zm4.6,2.558H35.691v1.714h2.971V0H34.373V-6.4h4.28v1.068H35.691v1.525h2.531Zm3.582.431h-1.05V0H39.435V-6.4h2.377a2.688,2.688,0,0,1,1.749.505,1.744,1.744,0,0,1,.615,1.428,1.969,1.969,0,0,1-.283,1.092,1.933,1.933,0,0,1-.859.7L44.419-.062V0H43ZM40.754-3.41h1.063a1.089,1.089,0,0,0,.769-.253.9.9,0,0,0,.272-.7.967.967,0,0,0-.257-.712,1.068,1.068,0,0,0-.789-.259H40.754Zm8.038,2.092H46.48L46.04,0h-1.4L47.02-6.4h1.222l2.4,6.4h-1.4ZM46.836-2.386h1.6l-.8-2.4Z" transform="translate(1102.172 7003.279)"/>
    <path id="Trazado_996546" data-name="Trazado 996546" d="M5.594-2.131A2.264,2.264,0,0,1,4.832-.505,2.678,2.678,0,0,1,3.019.088,2.408,2.408,0,0,1,1.083-.74,3.4,3.4,0,0,1,.378-3.015v-.391A3.836,3.836,0,0,1,.7-5.032a2.437,2.437,0,0,1,.929-1.079,2.6,2.6,0,0,1,1.4-.376,2.609,2.609,0,0,1,1.784.593A2.433,2.433,0,0,1,5.6-4.228H4.285a1.336,1.336,0,0,0-.345-.9,1.277,1.277,0,0,0-.9-.279,1.12,1.12,0,0,0-.987.472,2.648,2.648,0,0,0-.336,1.466v.483a2.834,2.834,0,0,0,.314,1.516,1.1,1.1,0,0,0,.991.479,1.3,1.3,0,0,0,.912-.279,1.26,1.26,0,0,0,.345-.864ZM8.565.088a2.334,2.334,0,0,1-1.7-.642,2.281,2.281,0,0,1-.657-1.709v-.123a2.872,2.872,0,0,1,.277-1.281,2.032,2.032,0,0,1,.784-.87,2.2,2.2,0,0,1,1.158-.305,1.973,1.973,0,0,1,1.536.615,2.5,2.5,0,0,1,.56,1.745v.519H7.493a1.18,1.18,0,0,0,.371.747,1.123,1.123,0,0,0,.784.281A1.371,1.371,0,0,0,9.8-1.468l.624.7a1.907,1.907,0,0,1-.773.631A2.538,2.538,0,0,1,8.565.088Zm-.145-3.9a.8.8,0,0,0-.613.255,1.317,1.317,0,0,0-.3.729H9.272v-.1a.939.939,0,0,0-.229-.653A.821.821,0,0,0,8.42-3.814Zm3.99-.94.04.549a1.66,1.66,0,0,1,1.367-.637,1.38,1.38,0,0,1,1.125.444,2.071,2.071,0,0,1,.378,1.327V0h-1.27V-3.041a.824.824,0,0,0-.176-.587.787.787,0,0,0-.584-.182.874.874,0,0,0-.8.457V0h-1.27V-4.755ZM17.8-5.924v1.169h.813v.932H17.8V-1.45a.567.567,0,0,0,.1.378.508.508,0,0,0,.387.114,2.025,2.025,0,0,0,.374-.031v.962a2.615,2.615,0,0,1-.769.114,1.213,1.213,0,0,1-1.362-1.349V-3.823h-.694v-.932h.694V-5.924Zm4.192,2.36a3.45,3.45,0,0,0-.457-.035.93.93,0,0,0-.945.488V0h-1.27V-4.755h1.2l.035.567a1.177,1.177,0,0,1,1.059-.655,1.331,1.331,0,0,1,.4.057Zm.1,1.143a2.82,2.82,0,0,1,.272-1.261,2,2,0,0,1,.784-.857,2.289,2.289,0,0,1,1.189-.3,2.165,2.165,0,0,1,1.571.589,2.363,2.363,0,0,1,.679,1.6l.009.325A2.485,2.485,0,0,1,25.99-.573a2.123,2.123,0,0,1-1.639.661A2.134,2.134,0,0,1,22.71-.571,2.529,2.529,0,0,1,22.1-2.364Zm1.27.092a1.773,1.773,0,0,0,.255,1.035.841.841,0,0,0,.729.358.843.843,0,0,0,.721-.354,1.94,1.94,0,0,0,.259-1.132,1.755,1.755,0,0,0-.259-1.028.843.843,0,0,0-.729-.365.829.829,0,0,0-.721.363A1.972,1.972,0,0,0,23.367-2.329Zm7.5-1.907a1.585,1.585,0,0,1,1.27-.606q1.547,0,1.569,1.8V0h-1.27V-3.01a.883.883,0,0,0-.176-.6.754.754,0,0,0-.584-.2.864.864,0,0,0-.809.431V0h-1.27V-6.75h1.27Zm3.6,1.815a2.82,2.82,0,0,1,.272-1.261,2,2,0,0,1,.784-.857,2.289,2.289,0,0,1,1.189-.3,2.165,2.165,0,0,1,1.571.589,2.363,2.363,0,0,1,.679,1.6l.009.325a2.485,2.485,0,0,1-.611,1.756,2.123,2.123,0,0,1-1.639.661,2.134,2.134,0,0,1-1.641-.659,2.529,2.529,0,0,1-.613-1.793Zm1.27.092a1.773,1.773,0,0,0,.255,1.035.841.841,0,0,0,.729.358.843.843,0,0,0,.721-.354A1.94,1.94,0,0,0,37.7-2.421a1.755,1.755,0,0,0-.259-1.028.843.843,0,0,0-.729-.365.829.829,0,0,0-.721.363A1.972,1.972,0,0,0,35.733-2.329ZM40.94-4.755l.04.532a1.671,1.671,0,0,1,1.367-.62,1.268,1.268,0,0,1,1.261.725,1.633,1.633,0,0,1,1.428-.725,1.418,1.418,0,0,1,1.151.45,2.07,2.07,0,0,1,.378,1.356V0H45.291V-3.032a.905.905,0,0,0-.158-.591.7.7,0,0,0-.558-.187.793.793,0,0,0-.791.545l0,3.265h-1.27V-3.028a.894.894,0,0,0-.163-.6A.708.708,0,0,0,41.8-3.81a.823.823,0,0,0-.782.448V0h-1.27V-4.755ZM51.826-2.333a2.879,2.879,0,0,1-.488,1.782,1.616,1.616,0,0,1-1.362.639,1.485,1.485,0,0,1-1.235-.593L48.683,0H47.541V-6.75h1.27v2.421a1.446,1.446,0,0,1,1.156-.514,1.629,1.629,0,0,1,1.365.639,2.883,2.883,0,0,1,.494,1.8Zm-1.27-.092a1.892,1.892,0,0,0-.229-1.052.773.773,0,0,0-.681-.332.838.838,0,0,0-.835.5v1.876a.849.849,0,0,0,.844.5.784.784,0,0,0,.809-.606A3.128,3.128,0,0,0,50.555-2.426ZM55.28-3.564a3.45,3.45,0,0,0-.457-.035.93.93,0,0,0-.945.488V0h-1.27V-4.755h1.2l.035.567A1.177,1.177,0,0,1,54.9-4.843a1.331,1.331,0,0,1,.4.057Zm.1,1.143a2.82,2.82,0,0,1,.272-1.261,2,2,0,0,1,.784-.857,2.289,2.289,0,0,1,1.189-.3,2.165,2.165,0,0,1,1.571.589,2.363,2.363,0,0,1,.679,1.6l.009.325a2.485,2.485,0,0,1-.611,1.756,2.123,2.123,0,0,1-1.639.661,2.134,2.134,0,0,1-1.641-.659,2.529,2.529,0,0,1-.613-1.793Zm1.27.092a1.773,1.773,0,0,0,.255,1.035.841.841,0,0,0,.729.358.843.843,0,0,0,.721-.354,1.94,1.94,0,0,0,.259-1.132,1.755,1.755,0,0,0-.259-1.028.843.843,0,0,0-.729-.365.829.829,0,0,0-.721.363A1.972,1.972,0,0,0,56.652-2.329Z" transform="translate(1193.12 6910.457) rotate(-90)"/>
    <path id="Trazado_996547" data-name="Trazado 996547" d="M5.388-5.331H3.428V0H2.109V-5.331H.176V-6.4H5.388Zm3.12,2.988H7.458V0H6.139V-6.4H8.517a2.688,2.688,0,0,1,1.749.505,1.744,1.744,0,0,1,.615,1.428A1.969,1.969,0,0,1,10.6-3.373a1.933,1.933,0,0,1-.859.7L11.123-.062V0H9.708ZM7.458-3.41H8.521a1.089,1.089,0,0,0,.769-.253.9.9,0,0,0,.272-.7.967.967,0,0,0-.257-.712,1.068,1.068,0,0,0-.789-.259H7.458ZM15.5-1.318H13.184L12.744,0h-1.4l2.382-6.4h1.222l2.4,6.4h-1.4ZM13.54-2.386h1.6l-.8-2.4Zm7.717.708a.677.677,0,0,0-.264-.573,3.458,3.458,0,0,0-.949-.422,6.729,6.729,0,0,1-1.085-.437A1.773,1.773,0,0,1,17.868-4.7a1.545,1.545,0,0,1,.292-.925A1.906,1.906,0,0,1,19-6.258a3.159,3.159,0,0,1,1.228-.229,2.876,2.876,0,0,1,1.222.248,1.945,1.945,0,0,1,.833.7,1.834,1.834,0,0,1,.3,1.028H21.261a.863.863,0,0,0-.277-.683,1.138,1.138,0,0,0-.778-.244,1.216,1.216,0,0,0-.751.2.645.645,0,0,0-.268.538.617.617,0,0,0,.314.523,3.55,3.55,0,0,0,.925.4,4,4,0,0,1,1.639.839,1.672,1.672,0,0,1,.514,1.248,1.54,1.54,0,0,1-.628,1.3,2.751,2.751,0,0,1-1.692.472,3.267,3.267,0,0,1-1.345-.27,2.128,2.128,0,0,1-.925-.74,1.9,1.9,0,0,1-.319-1.09h1.323q0,1.059,1.266,1.059a1.231,1.231,0,0,0,.734-.191A.622.622,0,0,0,21.256-1.679Zm6.064-1.094H24.79v1.714H27.76V0H23.471V-6.4h4.28v1.068H24.79v1.525h2.531Zm3.582.431h-1.05V0H28.534V-6.4h2.377a2.688,2.688,0,0,1,1.749.505,1.744,1.744,0,0,1,.615,1.428,1.969,1.969,0,0,1-.283,1.092,1.933,1.933,0,0,1-.859.7L33.517-.062V0H32.1ZM29.852-3.41h1.063a1.089,1.089,0,0,0,.769-.253.9.9,0,0,0,.272-.7.967.967,0,0,0-.257-.712,1.068,1.068,0,0,0-.789-.259H29.852ZM37.89-1.318H35.578L35.139,0h-1.4l2.382-6.4H37.34l2.4,6.4h-1.4ZM35.934-2.386h1.6l-.8-2.4Z" transform="translate(1271.846 7003.279)"/>
    <g id="Grupo_1177174" data-name="Grupo 1177174" transform="translate(1030.711 6810)">
      <g id="Grupo_1177173" data-name="Grupo 1177173" clip-path="url(#clip-path)">
        <path id="Trazado_995656" data-name="Trazado 995656" d="M331.564,279.719a1.431,1.431,0,0,1-.32-.037c-41.68-9.676-145.234-12.029-146.275-12.051L39.513,261.964a1.417,1.417,0,0,1-1.336-1.151L.025,60.231a1.415,1.415,0,0,1,.309-1.178,1.459,1.459,0,0,1,1.109-.5c24.193.458,37.547-9,54.457-20.978C79.535,20.833,108.947,0,181.978,0,237.8,0,285.813,19.151,316.257,35.216c32.982,17.405,53.067,35.07,53.266,35.246a1.417,1.417,0,0,1,.455,1.31l-37.019,206.78a1.417,1.417,0,0,1-1.394,1.167M40.749,259.177,185.055,264.8c1.008.022,102.519,2.328,145.375,11.794L367.047,72.067c-3.544-3.02-22.628-18.8-52.186-34.385-30.146-15.9-77.671-34.85-132.883-34.85-72.128,0-101.133,20.544-124.439,37.052C41.28,51.4,27.183,61.383,3.131,61.4Z" transform="translate(0)" fill="#0000b5"/>
        <path id="Trazado_995657" data-name="Trazado 995657" d="M369.234,117.521h-.018L2.049,105.965a.567.567,0,0,1,.017-1.133h.018l367.167,11.556a.567.567,0,0,1-.017,1.133" transform="translate(-0.65 -45.433)"/>
        <path id="Trazado_995658" data-name="Trazado 995658" d="M323.755,267.431a.566.566,0,0,1-.567-.56l-3.022-264.8a.567.567,0,0,1,.56-.573.573.573,0,0,1,.573.56l3.022,264.8a.567.567,0,0,1-.56.573Z" transform="translate(-138.755 -0.65)"/>
        <path id="Trazado_995659" data-name="Trazado 995659" d="M296.244,130.5a.567.567,0,0,1-.567-.56l-1.511-128.4a.566.566,0,0,1,.56-.573.577.577,0,0,1,.573.56l1.511,128.4a.567.567,0,0,1-.56.573Z" transform="translate(-127.487 -0.417)"/>
      </g>
    </g>
  </g>
</svg>
