<svg xmlns="http://www.w3.org/2000/svg" width="77" height="77" viewBox="0 0 77 77">
  <g id="Grupo_1177308" data-name="Grupo 1177308" transform="translate(-440.711 -7988)">
    <g id="Grupo_1177181" data-name="Grupo 1177181">
      <rect id="Rectángulo_454637" data-name="Rectángulo 454637" width="77" height="77" rx="10" transform="translate(440.711 7988)" fill="#0048c5"/>
      <g id="Grupo_1177180" data-name="Grupo 1177180" transform="translate(446.711 7957.704)">
        <g id="Grupo_1177178" data-name="Grupo 1177178" transform="translate(0.942 42.428)">
          <path id="Trazado_995660" data-name="Trazado 995660" d="M411.829,82.461l-11.808,5.584V62.909a7.947,7.947,0,0,1,5.419,3.78l6.788,11.5.6,1.015A2.3,2.3,0,0,1,411.829,82.461Z" transform="translate(-350.698 -61.159)" fill="#fe646f"/>
          <path id="Trazado_995661" data-name="Trazado 995661" d="M411.829,82.461l-11.808,5.584V86.188l7.881-3.727a2.3,2.3,0,0,0,1-3.253l-.6-1.015-6.788-11.5a7.931,7.931,0,0,0-1.493-1.836V62.909a7.947,7.947,0,0,1,5.419,3.78l6.788,11.5.6,1.015A2.3,2.3,0,0,1,411.829,82.461Z" transform="translate(-350.698 -61.159)" fill="#fd4755"/>
          <path id="Trazado_995662" data-name="Trazado 995662" d="M148.152,50.735V99.053a1.955,1.955,0,0,1-1.955,1.955H113.909a1.955,1.955,0,0,1-1.955-1.955V50.735l6.388-1.164,3.088-.564a1.359,1.359,0,0,1,1.215.393,10.942,10.942,0,0,0,14.814,0,1.359,1.359,0,0,1,1.215-.393l3.088.564Z" transform="translate(-98.828 -48.986)" fill="#eaf6ff"/>
          <path id="Trazado_995663" data-name="Trazado 995663" d="M325.03,50.735V99.053a1.956,1.956,0,0,1-1.955,1.955h-3.928a1.955,1.955,0,0,0,1.955-1.955V50.735l-6.388-1.165-.462-.084.087-.085a1.356,1.356,0,0,1,1.215-.393l3.089.563Z" transform="translate(-275.705 -48.985)" fill="#c8effe"/>
          <path id="Trazado_995664" data-name="Trazado 995664" d="M20.619,62.909V88.045L8.812,82.461a2.3,2.3,0,0,1-1-3.253l.6-1.015,6.788-11.5A7.947,7.947,0,0,1,20.619,62.909Z" transform="translate(-7.492 -61.159)" fill="#fe646f"/>
          <path id="Trazado_995665" data-name="Trazado 995665" d="M84.638,62.909V88.045l-3.927-1.857V64.853A7.949,7.949,0,0,1,84.638,62.909Z" transform="translate(-71.511 -61.159)" fill="#fd4755"/>
          <path id="Trazado_995666" data-name="Trazado 995666" d="M20.619,190.313v4.079l-3.927-1.857-7.881-3.727a2.3,2.3,0,0,1-1-3.253l.6-1.015,8.281,3.917Z" transform="translate(-7.492 -167.506)" fill="#ffd15b"/>
          <path id="Trazado_995667" data-name="Trazado 995667" d="M84.638,217.566v4.079l-3.927-1.857v-4.079Z" transform="translate(-71.511 -194.759)" fill="#ffc344"/>
          <path id="Trazado_995668" data-name="Trazado 995668" d="M411.829,188.808l-11.808,5.584v-4.079l9.089-4.3,3.119-1.475.6,1.015A2.3,2.3,0,0,1,411.829,188.808Z" transform="translate(-350.698 -167.506)" fill="#ffd15b"/>
          <path id="Trazado_995669" data-name="Trazado 995669" d="M411.829,188.807l-11.808,5.584v-1.857l7.881-3.727a2.306,2.306,0,0,0,1.208-2.793l3.119-1.475.6,1.015A2.3,2.3,0,0,1,411.829,188.807Z" transform="translate(-350.698 -167.506)" fill="#ffc344"/>
          <path id="Trazado_995670" data-name="Trazado 995670" d="M183.129,49.007a1.359,1.359,0,0,0-1.215.393,10.942,10.942,0,0,1-14.814,0,1.359,1.359,0,0,0-1.215-.393l-3.088.564c2.138,3.58,6.578,6.039,11.711,6.039s9.573-2.459,11.71-6.039Z" transform="translate(-143.282 -48.986)" fill="#ffd15b"/>
          <path id="Trazado_995671" data-name="Trazado 995671" d="M252.545,49.489a16.238,16.238,0,0,1-10.614,6.461,15.721,15.721,0,0,0,1.767.1c5.132,0,9.572-2.459,11.711-6.039Z" transform="translate(-212.473 -49.426)" fill="#ffc344"/>
          <circle id="Elipse_13633" data-name="Elipse 13633" cx="8.377" cy="8.377" r="8.377" transform="translate(22.848 18.509)" fill="#ffd15b"/>
          <path id="Trazado_995672" data-name="Trazado 995672" d="M250.335,204.665a8.382,8.382,0,0,1-10.394,8.132,8.378,8.378,0,0,0,0-16.263,8.382,8.382,0,0,1,10.394,8.131Z" transform="translate(-210.733 -177.78)" fill="#ffc344"/>
          <g id="Grupo_1177177" data-name="Grupo 1177177" transform="translate(22.463 23.34)">
            <path id="Trazado_995673" data-name="Trazado 995673" d="M191.656,238.769h-4.267a1.125,1.125,0,0,1-1.125-1.125v-1.927a.982.982,0,0,1,.982-.982h6.582l-.754,2.934A1.464,1.464,0,0,1,191.656,238.769Z" transform="translate(-186.264 -234.736)" fill="#7ca1b1"/>
            <path id="Trazado_995674" data-name="Trazado 995674" d="M267.694,238.769h4.267a1.125,1.125,0,0,0,1.125-1.125v-1.927a.982.982,0,0,0-.982-.982h-6.582l.754,2.934A1.464,1.464,0,0,0,267.694,238.769Z" transform="translate(-255.564 -234.736)" fill="#7ca1b1"/>
          </g>
        </g>
        <g id="Grupo_1177179" data-name="Grupo 1177179" transform="translate(0 41.486)">
          <path id="Trazado_995675" data-name="Trazado 995675" d="M63.883,60,56.5,47.479a8.885,8.885,0,0,0-6.062-4.228h0l-9.474-1.727a2.3,2.3,0,0,0-2.057.661,9.408,9.408,0,0,1-6.734,2.605,9.408,9.408,0,0,1-6.734-2.605,2.3,2.3,0,0,0-2.057-.661L13.9,43.251h0a8.885,8.885,0,0,0-6.062,4.228L.45,60a3.246,3.246,0,0,0,1.407,4.583l11.268,5.33V92.5a2.9,2.9,0,0,0,2.9,2.9h19.2a.942.942,0,1,0,0-1.885h-19.2A1.014,1.014,0,0,1,15.01,92.5V54.836a.942.942,0,1,0-1.885,0v8.91L3.2,59.051,9.46,48.437A7,7,0,0,1,13.125,45.4v5.022a.942.942,0,0,0,1.885,0V44.964L20,44.053a14.567,14.567,0,0,0,12.163,5.941,14.567,14.567,0,0,0,12.163-5.941l4.993.91V92.5a1.014,1.014,0,0,1-1.013,1.013H39.674a.942.942,0,0,0,0,1.885H48.31a2.9,2.9,0,0,0,2.9-2.9V69.911l11.268-5.33A3.246,3.246,0,0,0,63.883,60ZM13.125,65.831v1.995L2.663,62.878a1.361,1.361,0,0,1-.59-1.922l.162-.275ZM54.873,48.437l6.263,10.614-9.928,4.7V45.4a7,7,0,0,1,3.665,3.033ZM42.267,43.678a12.921,12.921,0,0,1-10.1,4.432,12.921,12.921,0,0,1-10.1-4.432l1.647-.3a.421.421,0,0,1,.373.126,11.3,11.3,0,0,0,8.08,3.171,11.3,11.3,0,0,0,8.08-3.171c.07-.035.01-.082.373-.126ZM62.389,62.047a1.346,1.346,0,0,1-.719.831L51.208,67.826V65.832L62.1,60.681l.162.275A1.345,1.345,0,0,1,62.389,62.047Z" transform="translate(0 -41.486)"/>
          <path id="Trazado_995676" data-name="Trazado 995676" d="M197.768,198.689a2.054,2.054,0,0,0,.4-1.223V195.54a1.926,1.926,0,0,0-1.924-1.924H182.542a7.436,7.436,0,0,1,9.673-1.935.942.942,0,0,0,.952-1.627,9.323,9.323,0,0,0-12.891,3.608,1.926,1.926,0,0,0-1.511,1.878v1.927a2.054,2.054,0,0,0,.4,1.223,9.318,9.318,0,0,0,18.6,0Zm-1.52-3.189a.039.039,0,0,1,.039.039v1.927a.183.183,0,0,1-.183.183h-4.267a.521.521,0,0,1-.505-.392l-.451-1.757h5.367Zm-15.416,2.148a.183.183,0,0,1-.183-.183V195.54a.039.039,0,0,1,.039-.039h5.367l-.451,1.757a.522.522,0,0,1-.505.392h-4.267Zm7.636,7.889a7.434,7.434,0,0,1-7.3-6H185.1a2.406,2.406,0,0,0,2.331-1.808L188,195.5h.934l.572,2.226a2.4,2.4,0,0,0,2.331,1.808h3.927a7.434,7.434,0,0,1-7.3,6Z" transform="translate(-156.302 -170.275)"/>
          <path id="Trazado_995677" data-name="Trazado 995677" d="M235.62,281.841a.943.943,0,0,0-1.328.113,2.221,2.221,0,0,1-3.4,0,.942.942,0,1,0-1.441,1.215,4.106,4.106,0,0,0,6.282,0A.943.943,0,0,0,235.62,281.841Z" transform="translate(-200.426 -251.445)"/>
          <path id="Trazado_995678" data-name="Trazado 995678" d="M317.041,179.433l-1.153,1.153a.942.942,0,0,0,1.333,1.333l1.153-1.153a.942.942,0,0,0-1.333-1.333Z" transform="translate(-275.954 -161.858)"/>
          <path id="Trazado_995679" data-name="Trazado 995679" d="M173.624,181.919a.942.942,0,0,0,1.333-1.333l-1.153-1.153a.942.942,0,0,0-1.333,1.333Z" transform="translate(-150.558 -161.859)"/>
          <path id="Trazado_995680" data-name="Trazado 995680" d="M172.471,325.338a.943.943,0,0,0,1.333,0l1.153-1.153a.942.942,0,1,0-1.333-1.333l-1.153,1.153A.942.942,0,0,0,172.471,325.338Z" transform="translate(-150.558 -287.256)"/>
          <path id="Trazado_995681" data-name="Trazado 995681" d="M317.222,322.851a.942.942,0,1,0-1.333,1.333l1.153,1.153A.942.942,0,1,0,318.375,324Z" transform="translate(-275.955 -287.255)"/>
          <path id="Trazado_995682" data-name="Trazado 995682" d="M345.988,257.339a.942.942,0,0,0,0-1.885h-1.63a.942.942,0,1,0,0,1.885Z" transform="translate(-300.263 -228.568)"/>
          <path id="Trazado_995683" data-name="Trazado 995683" d="M250.376,150.127V148.5a.942.942,0,1,0-1.885,0v1.63a.942.942,0,0,0,1.885,0Z" transform="translate(-217.267 -134.226)"/>
          <path id="Trazado_995684" data-name="Trazado 995684" d="M141.535,255.454a.942.942,0,0,0,0,1.885h1.63a.942.942,0,0,0,0-1.885Z" transform="translate(-122.927 -228.568)"/>
          <path id="Trazado_995685" data-name="Trazado 995685" d="M248.491,351.32v1.63a.942.942,0,1,0,1.885,0v-1.63a.942.942,0,0,0-1.885,0Z" transform="translate(-217.267 -311.564)"/>
        </g>
      </g>
    </g>
  </g>
</svg>
