<svg xmlns="http://www.w3.org/2000/svg" width="77" height="77" viewBox="0 0 77 77">
  <g id="Grupo_1177307" data-name="Grupo 1177307" transform="translate(-448.711 -8651)">
    <g id="Grupo_1177256" data-name="Grupo 1177256" transform="translate(0 78)">
      <rect id="Rectángulo_454687" data-name="Rectángulo 454687" width="77" height="77" rx="10" transform="translate(448.711 8573)" fill="#4c3a71"/>
      <g id="Grupo_1177255" data-name="Grupo 1177255" transform="translate(455.712 8581)">
        <path id="Trazado_996200" data-name="Trazado 996200" d="M34.98,441.29v.822a1.251,1.251,0,0,1-1.251,1.251H8.751A1.251,1.251,0,0,1,7.5,442.112v-.822a1.251,1.251,0,0,1,1.251-1.251H33.728A1.251,1.251,0,0,1,34.98,441.29Zm0,0" transform="translate(-6.566 -385.256)" fill="#9e9797"/>
        <path id="Trazado_996201" data-name="Trazado 996201" d="M147.561,441.291v.822a1.251,1.251,0,0,1-1.251,1.251h-10.22v-3.324h10.22a1.251,1.251,0,0,1,1.251,1.251Zm0,0" transform="translate(-119.147 -385.256)" fill="#756f6f"/>
        <path id="Trazado_996202" data-name="Trazado 996202" d="M69.816,273.109H84.082v7.409H69.816Zm0,0" transform="translate(-61.125 -239.108)" fill="#9e9797"/>
        <path id="Trazado_996203" data-name="Trazado 996203" d="M136.094,273.109h6.014v7.409h-6.014Zm0,0" transform="translate(-119.151 -239.108)" fill="#756f6f"/>
        <path id="Trazado_996204" data-name="Trazado 996204" d="M15.308,272.543H8.751A1.251,1.251,0,0,1,7.5,271.291v-7.71a2.429,2.429,0,0,1,2.429-2.429h5.379A1.251,1.251,0,0,1,16.56,262.4v8.888a1.251,1.251,0,0,1-1.251,1.251Zm0,0" transform="translate(-6.567 -228.639)" fill="#e0d3ce"/>
        <path id="Trazado_996205" data-name="Trazado 996205" d="M293.739,41.049s7.267-.193,7.267,8.972V62.371a3.66,3.66,0,0,1-3.66,3.66H289.48V41.049Zm0,0" transform="translate(-253.441 -35.938)" fill="#c99d5c"/>
        <path id="Trazado_996206" data-name="Trazado 996206" d="M178.305,41.049s-7.267-.193-7.267,8.972V62.371a3.659,3.659,0,0,0,3.66,3.66h5.829V41.049Zm0,0" transform="translate(-149.746 -35.938)" fill="#c99d5c"/>
        <path id="Trazado_996207" data-name="Trazado 996207" d="M347.9,136.223a2.805,2.805,0,1,1-2.805-2.805A2.8,2.8,0,0,1,347.9,136.223Zm0,0" transform="translate(-299.673 -116.808)" fill="#ffbc8a"/>
        <path id="Trazado_996208" data-name="Trazado 996208" d="M173.157,136.223a2.805,2.805,0,1,1-2.805-2.805A2.805,2.805,0,0,1,173.157,136.223Zm0,0" transform="translate(-146.688 -116.808)" fill="#ffbc8a"/>
        <path id="Trazado_996209" data-name="Trazado 996209" d="M185.35,240.906v18.971a1.358,1.358,0,0,1-1.358,1.358H156.174a1.358,1.358,0,0,1-1.358-1.358V240.906a11.027,11.027,0,0,1,11.028-11.027h8.479a11.027,11.027,0,0,1,11.027,11.027Zm0,0" transform="translate(-135.543 -201.26)" fill="#5592d7"/>
        <path id="Trazado_996210" data-name="Trazado 996210" d="M154.82,390.473v10a1.358,1.358,0,0,0,1.358,1.358h4.816V390.474H154.82Zm0,0" transform="translate(-135.546 -341.86)" fill="#fdd1a7"/>
        <path id="Trazado_996211" data-name="Trazado 996211" d="M301.8,240.906v18.971a1.358,1.358,0,0,1-1.358,1.358h-1.59V240.906a11.027,11.027,0,0,0-11.028-11.027h2.948A11.027,11.027,0,0,1,301.8,240.906Zm0,0" transform="translate(-251.988 -201.26)" fill="#1475cc"/>
        <path id="Trazado_996212" data-name="Trazado 996212" d="M356.658,390.473v10a1.358,1.358,0,0,1-1.358,1.358h-4.816V390.474h6.174Zm0,0" transform="translate(-306.851 -341.86)" fill="#fdd1a7"/>
        <path id="Trazado_996213" data-name="Trazado 996213" d="M379.346,390.473v10a1.358,1.358,0,0,1-1.358,1.358H376.4V390.474h2.948Zm0,0" transform="translate(-329.538 -341.86)" fill="#ffbc8a"/>
        <path id="Trazado_996214" data-name="Trazado 996214" d="M206.932,247.524h-1.278a1.251,1.251,0,0,1-1.251-1.252V221.178a1.245,1.245,0,0,1,1.245-1.245h1.291a1.245,1.245,0,0,1,1.245,1.245v25.094a1.251,1.251,0,0,1-1.251,1.252Zm0,0" transform="translate(-178.956 -192.552)" fill="#a4e540"/>
        <path id="Trazado_996215" data-name="Trazado 996215" d="M324.366,230.443v-9.264a1.245,1.245,0,0,0-1.245-1.245h-1.291a1.245,1.245,0,0,0-1.245,1.245v9.264a1.252,1.252,0,0,0,1.251,1.252h1.278A1.252,1.252,0,0,0,324.366,230.443Zm0,0" transform="translate(-280.675 -192.553)" fill="#a4e540"/>
        <path id="Trazado_996216" data-name="Trazado 996216" d="M201.429,101.48a3.827,3.827,0,0,0-3.8,4.291l.85,6.956a9.13,9.13,0,0,0,18.125,0l.85-6.956a3.827,3.827,0,0,0-3.8-4.291Zm0,0" transform="translate(-173.001 -88.846)" fill="#fdd1a7"/>
        <path id="Trazado_996217" data-name="Trazado 996217" d="M200.08,134.815a4.667,4.667,0,1,1-4.667-4.667A4.667,4.667,0,0,1,200.08,134.815Zm0,0" transform="translate(-167 -113.945)" fill="#daedff"/>
        <path id="Trazado_996218" data-name="Trazado 996218" d="M298.51,134.815a4.667,4.667,0,1,1-4.667-4.667A4.667,4.667,0,0,1,298.51,134.815Zm0,0" transform="translate(-253.175 -113.945)" fill="#daedff"/>
        <path id="Trazado_996219" data-name="Trazado 996219" d="M180.028,20.03H167.5a1.358,1.358,0,0,1-1.358-1.358v-1.6A9.569,9.569,0,0,1,175.709,7.5h9.755a3.547,3.547,0,0,1,3.547,3.547,8.983,8.983,0,0,1-8.983,8.983Zm0,0" transform="translate(-145.456 -6.567)" fill="#fac574"/>
        <path id="Trazado_996220" data-name="Trazado 996220" d="M266.8,11.044a8.984,8.984,0,0,1-8.983,8.983H255a8.982,8.982,0,0,0,8.982-8.983A3.547,3.547,0,0,0,260.432,7.5h2.826A3.547,3.547,0,0,1,266.8,11.044Zm0,0" transform="translate(-223.251 -6.563)" fill="#e8b76b"/>
        <path id="Trazado_996221" data-name="Trazado 996221" d="M426.9,445.693h-2.426a1.1,1.1,0,0,1-1.1-1.1v-2.921a1.1,1.1,0,0,1,1.1-1.1H426.9a1.1,1.1,0,0,1,1.1,1.1v2.921A1.1,1.1,0,0,1,426.9,445.693Zm0,0" transform="translate(-370.667 -385.717)" fill="#fff5f5"/>
        <path id="Trazado_996222" data-name="Trazado 996222" d="M426.9,260.708h-2.426a1.1,1.1,0,0,1-1.1-1.1v-2.921a1.1,1.1,0,0,1,1.1-1.1H426.9a1.1,1.1,0,0,1,1.1,1.1v2.921A1.1,1.1,0,0,1,426.9,260.708Zm0,0" transform="translate(-370.667 -223.763)" fill="#fff5f5"/>
        <path id="Trazado_996223" data-name="Trazado 996223" d="M393.913,299.75H380.55a1.1,1.1,0,0,1-1.095-1.235l2.5-20.642a1.1,1.1,0,0,1,1.095-.97h8.367a1.1,1.1,0,0,1,1.095.97l2.5,20.642A1.1,1.1,0,0,1,393.913,299.75Zm0,0" transform="translate(-332.208 -242.429)" fill="#e84649"/>
        <path id="Trazado_996224" data-name="Trazado 996224" d="M461.383,299.753h-2.374a1.1,1.1,0,0,0,1.1-1.235l-2.5-20.643a1.1,1.1,0,0,0-1.094-.969h2.374a1.1,1.1,0,0,1,1.095.969l2.5,20.643A1.1,1.1,0,0,1,461.383,299.753Zm0,0" transform="translate(-399.678 -242.432)" fill="#d73337"/>
        <path id="Trazado_996225" data-name="Trazado 996225" d="M49.18,279.742a.934.934,0,0,0-.934.934v1.945a.934.934,0,1,0,1.867,0v-1.945A.934.934,0,0,0,49.18,279.742Zm0,0" transform="translate(-42.24 -244.915)"/>
        <path id="Trazado_996226" data-name="Trazado 996226" d="M232.75,162.123a.934.934,0,0,0,.934-.934v-.012a.929.929,0,0,0-.934-.928.937.937,0,0,0,0,1.873Zm0,0" transform="translate(-202.956 -140.299)"/>
        <path id="Trazado_996227" data-name="Trazado 996227" d="M309.012,160.25a.937.937,0,1,0,.934.94v-.012A.928.928,0,0,0,309.012,160.25Zm0,0" transform="translate(-269.724 -140.299)"/>
        <path id="Trazado_996228" data-name="Trazado 996228" d="M63.727,55.974l-2.5-20.642a2.038,2.038,0,0,0-2.021-1.792h-.935v-.618a2.038,2.038,0,0,0-2.036-2.036H53.811a2.038,2.038,0,0,0-2.036,2.036v.618H50.84a2.032,2.032,0,0,0-1.44.6,11.987,11.987,0,0,0-3.09-3.787A4.576,4.576,0,0,0,48.5,26.433v-4.9a3.729,3.729,0,0,0,0-4.232V14.082c0-5.1-2.158-7.545-4.053-8.7.027-.3.042-.6.042-.9A4.486,4.486,0,0,0,40.007,0H36.96a.934.934,0,1,0,0,1.867h3.047A2.616,2.616,0,0,1,42.62,4.48a8.058,8.058,0,0,1-8.049,8.05H22.041a.42.42,0,0,1-.224-.065l-.021-.014a.423.423,0,0,1-.179-.345V10.5a8.646,8.646,0,0,1,8.636-8.636h2.256a.934.934,0,1,0,0-1.867H30.253a10.515,10.515,0,0,0-10.5,10.5v1.6a2.283,2.283,0,0,0,.615,1.557c0,.139,0,.279,0,.419v3.586a3.728,3.728,0,0,0,0,3.494v5.271a4.6,4.6,0,0,0,2.326,3.992,11.994,11.994,0,0,0-2.368,2.642H10.811a2.187,2.187,0,0,0-2.069-1.488H3.362A3.367,3.367,0,0,0,0,34.942v7.711a2.188,2.188,0,0,0,2.185,2.185H4.529v4.544a.934.934,0,1,0,1.867,0V44.837H8.741a2.187,2.187,0,0,0,2.185-2.185v-.309h1.663a.934.934,0,1,0,0-1.867H10.926V34.935H19.31a11.94,11.94,0,0,0-.97,4.711v.83h-1.3a.934.934,0,1,0,0,1.867h1.3V53.85H2.184A2.187,2.187,0,0,0,0,56.035v.822a2.188,2.188,0,0,0,2.185,2.185h16.2a2.3,2.3,0,0,0,2.251,1.867.934.934,0,1,0,0-1.867.424.424,0,0,1-.424-.424V49.546h4.305V59.975a.934.934,0,1,0,1.867,0v-4.1a2.141,2.141,0,0,0,.318.026h1.278a2.187,2.187,0,0,0,2.185-2.185V47.952a.934.934,0,0,0-1.867,0V53.72a.318.318,0,0,1-.318.318H26.7a.318.318,0,0,1-.318-.318V28.658a10.068,10.068,0,0,0,1.83,1.94l.083.064V43.5a.934.934,0,0,0,1.867,0V31.831a10.032,10.032,0,0,0,8.816-.027V37.89a2.188,2.188,0,0,0,2.185,2.186h1.278a2.188,2.188,0,0,0,2.185-2.186V31.42a10.092,10.092,0,0,1,3.961,5.83L47.324,47.679H44.568v-2.91a.934.934,0,1,0-1.867,0V59.975a.934.934,0,1,0,1.867,0V49.546H47.1l-.778,6.427a2.037,2.037,0,0,0,2.022,2.281h.532v.363a.424.424,0,0,1-.424.424.934.934,0,0,0,0,1.867,2.294,2.294,0,0,0,2.292-2.292v-.363h1.033v.618a2.039,2.039,0,0,0,2.036,2.036h2.426a2.039,2.039,0,0,0,2.037-2.036v-.618h3.432a2.038,2.038,0,0,0,2.022-2.281ZM9.059,42.652a.318.318,0,0,1-.318.318H2.184a.318.318,0,0,1-.318-.318v-7.71a1.5,1.5,0,0,1,1.5-1.5H8.741a.318.318,0,0,1,.318.318ZM24.68,20.87A3.733,3.733,0,1,1,28.413,24.6,3.737,3.737,0,0,1,24.68,20.87ZM22.227,14.4H24.14a4.749,4.749,0,0,0-.406,1.281l-.07,0a3.72,3.72,0,0,0-1.437.287Zm-.435,5.018a1.874,1.874,0,0,1,1.871-1.871c.034,0,.067,0,.1,0l.021.173a5.566,5.566,0,0,0-.973,3.149c0,.071,0,.142.005.213a1.872,1.872,0,0,1-1.026-1.668Zm12.221,1.506h1.055a5.572,5.572,0,0,0,1.263,3.488.956.956,0,0,0-.035.1,1.826,1.826,0,0,1-3.511,0,.957.957,0,0,0-.035-.1,5.576,5.576,0,0,0,1.262-3.488Zm2.922-.051A3.733,3.733,0,1,1,40.668,24.6,3.737,3.737,0,0,1,36.935,20.87Zm8.483-3.326a1.87,1.87,0,0,1,.845,3.539c0-.071.005-.142.005-.213A5.571,5.571,0,0,0,45.3,17.72l.021-.17c.034,0,.068-.006.1-.006Zm-.792,11.517v-.435a2.185,2.185,0,0,0-.894-1.759,9.946,9.946,0,0,0,.6-1.766,5.619,5.619,0,0,0,1.458-1.966,3.707,3.707,0,0,0,.843-.184v3.482a2.711,2.711,0,0,1-2.005,2.628ZM44.054,7.38c1.71,1.349,2.576,3.6,2.576,6.7v1.8a3.724,3.724,0,0,0-1.212-.2l-.071,0a4.751,4.751,0,0,0-4.038-3.931A9.934,9.934,0,0,0,44.054,7.38ZM38.54,13.566l.033,0h2.08a2.894,2.894,0,0,1,2.864,2.484,5.6,5.6,0,0,0-8.147,3H33.71a5.594,5.594,0,0,0-8.145-3A2.9,2.9,0,0,1,26.4,14.4h8.172a9.858,9.858,0,0,0,3.969-.832ZM1.867,56.857v-.822a.318.318,0,0,1,.318-.318H18.34v1.457H2.185a.318.318,0,0,1-.318-.318Zm18.341-9.178V39.646a10.115,10.115,0,0,1,4.305-8.27v16.3Zm4.305-19.053v.5a2.73,2.73,0,0,1-2.286-2.69V22.867a3.707,3.707,0,0,0,1.066.269A5.628,5.628,0,0,0,24.752,25.1a10.026,10.026,0,0,0,.612,1.8,2.183,2.183,0,0,0-.851,1.724Zm2.646-2.3a5.578,5.578,0,0,0,4.1-.636,3.686,3.686,0,0,0,6.564,0,5.574,5.574,0,0,0,4.1.636,8.191,8.191,0,0,1-14.766,0Zm15.6,11.564a.318.318,0,0,1-.318.318H41.163a.318.318,0,0,1-.318-.318V30.618l.008-.007a10.048,10.048,0,0,0,1.9-2.029.31.31,0,0,1,0,.044Zm6.783,7.016L60.31,43.279l.475,3.928L49.423,45.884Zm10.545-3.482L49.774,42.982l.2-1.631,9.914-1.588ZM49.2,47.738l11.818,1.375.136,1.126-12.561,2.51Zm4.444-14.817a.169.169,0,0,1,.169-.169h2.426a.169.169,0,0,1,.169.169v.618H53.642Zm-2.8,2.486h8.367a.169.169,0,0,1,.168.148l.285,2.353L50.2,39.423l.468-3.867A.169.169,0,0,1,50.84,35.407Zm5.565,23.466a.169.169,0,0,1-.169.169H53.811a.169.169,0,0,1-.169-.169v-.618h2.764Zm5.426-2.542a.166.166,0,0,1-.126.057H48.342a.169.169,0,0,1-.168-.189l.181-1.5,13.022-2.6.5,4.1a.166.166,0,0,1-.041.132Zm0,0"/>
      </g>
    </g>
  </g>
</svg>
