<svg xmlns="http://www.w3.org/2000/svg" width="86" height="86" viewBox="0 0 86 86">
  <g id="Grupo_1177306" data-name="Grupo 1177306" transform="translate(-169.96 -543.5)">
    <g id="Grupo_1176876" data-name="Grupo 1176876" transform="translate(-10.558 -4977.58)">
      <rect id="Rectángulo_402006" data-name="Rectángulo 402006" width="86" height="86" rx="5" transform="translate(180.518 5521.08)" fill="#bee645"/>
      <path id="Trazado_992092" data-name="Trazado 992092" d="M149.319,66.278a54.5,54.5,0,0,0-1.652-9.527,1.116,1.116,0,1,0-2.16.567,52.266,52.266,0,0,1,1.586,9.135,2.1,2.1,0,0,1-2.08,2.233H108.43a2.1,2.1,0,0,1-2.08-2.232c.955-12.975,7.245-24,9.061-26.938V55.162a1.9,1.9,0,0,0,1.9,1.9h2.923a1.9,1.9,0,0,0,1.9-1.9V39.237h6.332a1.116,1.116,0,0,0,0-2.233h-6.332V6.484h9.141v2.8h-4.855a1.116,1.116,0,0,0,0,2.233h4.855c0,2.309,0,16.8,0,18.719a1.9,1.9,0,0,0,1.9,1.9H136.1a1.9,1.9,0,0,0,1.9-1.9c0-2.007,0-13.867,0-16.139l7.535,3.325a.479.479,0,0,1,.273.463c-.563,9.041-8.161,19.464-8.238,19.568a1.116,1.116,0,0,0-.037,1.271,70.8,70.8,0,0,1,6.676,14.295,1.177,1.177,0,0,0,1.416.7,1.116,1.116,0,0,0,.7-1.416,74.164,74.164,0,0,0-6.514-14.147c1.709-2.462,7.7-11.642,8.226-20.132a2.7,2.7,0,0,0-1.569-2.631l-.018-.008-8.448-3.728v-.769A2.691,2.691,0,0,0,135.318,8.2h-1.806V5.368a1.207,1.207,0,0,0-1.29-1.116V2.688A2.691,2.691,0,0,0,129.533,0h-5.615a2.691,2.691,0,0,0-2.688,2.688V4.251a1.207,1.207,0,0,0-1.29,1.116V8.2H118.1a2.691,2.691,0,0,0-2.688,2.688v.785L107,15.389l-.018.008a2.7,2.7,0,0,0-1.569,2.631c.528,8.478,6.5,17.643,8.219,20.121a62.6,62.6,0,0,0-9.506,28.141,4.381,4.381,0,0,0,4.307,4.628h13.921V75.1a1.116,1.116,0,0,0,1.116,1.116h6.517A1.116,1.116,0,0,0,131.1,75.1V70.919h13.912A4.378,4.378,0,0,0,149.319,66.278ZM119.9,54.832h-2.261v-1.69H119.9Zm15.868-24.923h-2.261v-1.69h2.261Zm0-19.018v15.1h-2.261V10.436h1.806A.455.455,0,0,1,135.773,10.891Zm-12.31-8.2a.455.455,0,0,1,.455-.455h5.615a.455.455,0,0,1,.455.455V4.251h-6.525Zm-15.825,15.2a.478.478,0,0,1,.273-.463l7.5-3.31v5.1a1.116,1.116,0,0,0,2.233,0V10.891a.455.455,0,0,1,.455-.455H119.9V50.909h-2.261V23.818a1.116,1.116,0,0,0-2.233,0V36.8c-1.67-2.437-7.291-11.167-7.773-18.906Zm21.23,56.094h-4.284V70.919h4.284Z" transform="translate(97.357 5525.28)" fill="#425018"/>
    </g>
  </g>
</svg>
