<svg xmlns="http://www.w3.org/2000/svg" xmlns:xlink="http://www.w3.org/1999/xlink" width="383.11" height="499" viewBox="0 0 383.11 499">
  <defs>
    <clipPath id="clip-path">
      <rect id="Rectángulo_454757" data-name="Rectángulo 454757" width="383.11" height="499" fill="none"/>
    </clipPath>
  </defs>
  <g id="Grupo_1177311" data-name="Grupo 1177311" transform="translate(-711.711 -8371)">
    <path id="Trazado_996514" data-name="Trazado 996514" d="M.571,0V-6.4H2.54a2.99,2.99,0,0,1,1.51.38A2.651,2.651,0,0,1,5.089-4.937a3.334,3.334,0,0,1,.374,1.593v.294A3.344,3.344,0,0,1,5.1-1.463,2.628,2.628,0,0,1,4.061-.387,3.012,3.012,0,0,1,2.553,0ZM1.89-5.331v4.271h.637a1.432,1.432,0,0,0,1.182-.505A2.284,2.284,0,0,0,4.126-3.01v-.338a2.32,2.32,0,0,0-.4-1.479,1.427,1.427,0,0,0-1.182-.5Zm8.38,2.558H7.739v1.714h2.971V0H6.42V-6.4H10.7v1.068H7.739v1.525H10.27ZM12.8-1.059h2.8V0H11.483V-6.4H12.8Zm7.332-.259H17.822L17.382,0h-1.4l2.382-6.4h1.222l2.4,6.4h-1.4ZM18.178-2.386h1.6l-.8-2.4ZM27.78,0H26.461L23.895-4.21V0H22.577V-6.4h1.318L26.466-2.18V-6.4H27.78Zm5.842-5.331h-1.96V0H30.343V-5.331H28.41V-6.4h5.212Zm4.6,2.558H35.691v1.714h2.971V0H34.373V-6.4h4.28v1.068H35.691v1.525h2.531Zm3.582.431h-1.05V0H39.435V-6.4h2.377a2.688,2.688,0,0,1,1.749.505,1.744,1.744,0,0,1,.615,1.428,1.969,1.969,0,0,1-.283,1.092,1.933,1.933,0,0,1-.859.7L44.419-.062V0H43ZM40.754-3.41h1.063a1.089,1.089,0,0,0,.769-.253.9.9,0,0,0,.272-.7.967.967,0,0,0-.257-.712,1.068,1.068,0,0,0-.789-.259H40.754Zm8.038,2.092H46.48L46.04,0h-1.4L47.02-6.4h1.222l2.4,6.4h-1.4ZM46.836-2.386h1.6l-.8-2.4Z" transform="translate(798.881 8683.614)"/>
    <g id="Grupo_1177183" data-name="Grupo 1177183" transform="translate(711.711 8371)">
      <g id="Grupo_1177182" data-name="Grupo 1177182" clip-path="url(#clip-path)">
        <g id="Grupo_1177190" data-name="Grupo 1177190">
          <path id="Trazado_995690" data-name="Trazado 995690" d="M547.261,628.563l-.42-.321.935-1.221.42.321Zm2.541-3.319-.42-.321,1.606-2.1.42.321Zm3.212-4.2-.42-.321,1.606-2.1.42.321Zm3.212-4.2-.42-.321,1.606-2.1.42.321Zm3.212-4.2-.42-.321,1.606-2.1.42.321Zm3.212-4.2-.42-.321,1.606-2.1.42.321Zm3.212-4.2-.42-.321,1.606-2.1.42.321Zm3.212-4.2-.42-.321,1.606-2.1.42.321Zm3.212-4.2-.42-.321,1.606-2.1.42.321Zm3.212-4.2-.42-.321,1.606-2.1.42.321Zm3.212-4.2-.42-.321,1.606-2.1.42.321Zm3.212-4.2-.42-.321,1.606-2.1.42.321Zm3.212-4.2-.42-.321,1.607-2.1.42.321Zm3.213-4.2-.42-.321,1.606-2.1.42.321Zm3.212-4.2-.42-.321,1.606-2.1.42.321Zm3.212-4.2-.42-.321,1.606-2.1.42.321Zm3.212-4.2-.42-.321,1.606-2.1.42.321Zm3.212-4.2-.42-.321,1.606-2.1.42.321Zm3.212-4.2-.42-.321,1.606-2.1.42.321Zm3.212-4.2-.42-.321,1.606-2.1.42.321Zm3.212-4.2-.42-.321,1.606-2.1.42.321Zm3.212-4.2-.42-.321,1.606-2.1.42.321Zm3.212-4.2-.42-.321,1.606-2.1.42.321Zm3.212-4.2-.42-.321,1.605-2.1.42.321Zm3.212-4.2-.42-.321,1.606-2.1.42.321Z" transform="translate(-257.844 -248.158)" fill="#ffa200"/>
          <path id="Trazado_995691" data-name="Trazado 995691" d="M506.077,353.441l-2.24-1.4.28-.448,2.24,1.4Zm-4.481-2.8-2.241-1.4.281-.448,2.241,1.4Zm-4.48-2.8-2.241-1.4.28-.448,2.241,1.4Zm-4.482-2.8-2.24-1.4.28-.448,2.24,1.4Zm-4.48-2.8-2.24-1.4.28-.448,2.24,1.4Zm-4.481-2.8-2.241-1.4.281-.448,2.241,1.4Zm-4.481-2.8-2.24-1.4.28-.448,2.241,1.4Zm-4.481-2.8-2.24-1.4.28-.448,2.241,1.4Zm-4.481-2.8-2.24-1.4.28-.448,2.24,1.4Zm-4.48-2.8-2.24-1.4.28-.448,2.241,1.4Zm-4.48-2.8-2.24-1.4.28-.448,2.24,1.4Zm-4.482-2.8-2.24-1.4.28-.448,2.241,1.4Zm-4.481-2.8-2.24-1.4.28-.448,2.24,1.4Zm-4.481-2.8-2.24-1.4.28-.448,2.241,1.4Zm-4.48-2.8-2.24-1.4.28-.448,2.24,1.4Zm-4.482-2.8-2.24-1.4.281-.448,2.241,1.4Zm-4.48-2.8-2.241-1.4.28-.448,2.241,1.4Zm-4.482-2.8-2.24-1.4.28-.448,2.241,1.4Zm-4.48-2.8-2.24-1.4.28-.448,2.24,1.4Zm-4.481-2.8-2.24-1.4.28-.448,2.24,1.4Zm-4.48-2.8-2.24-1.4.28-.448,2.24,1.4Zm-4.482-2.8-2.241-1.4.281-.448,2.241,1.4Zm-4.481-2.8-2.24-1.4.28-.448,2.24,1.4Zm-4.481-2.8-2.24-1.4.28-.448,2.241,1.4Zm-4.48-2.8-2.241-1.4.28-.448,2.24,1.4Zm-4.481-2.8-2.241-1.4.28-.448,2.241,1.4Zm-4.481-2.8-2.241-1.4.28-.448,2.24,1.4Zm-4.481-2.8-2.24-1.4.28-.448,2.241,1.4Zm-4.48-2.8-2.241-1.4.28-.448,2.24,1.4Zm-4.482-2.8-2.24-1.4.281-.448,2.24,1.4Zm-4.48-2.8-2.241-1.4.28-.448,2.241,1.4Zm-4.482-2.8-2.24-1.4.28-.448,2.241,1.4Zm-4.48-2.8-2.241-1.4.28-.448,2.24,1.4Zm-4.481-2.8-2.24-1.4.28-.448,2.24,1.4Zm-4.48-2.8-2.241-1.4.28-.448,2.24,1.4Zm-4.482-2.8-2.241-1.4.281-.448,2.24,1.4Zm-4.48-2.8-2.241-1.4.28-.448,2.24,1.4Zm-4.481-2.8-2.24-1.4.28-.448,2.24,1.4Zm-4.48-2.8-2.241-1.4.28-.448,2.24,1.4Zm-4.481-2.8-2.241-1.4.28-.448,2.241,1.4Zm-4.481-2.8-2.241-1.4.28-.448,2.24,1.4Zm-4.482-2.8-2.24-1.4.28-.448,2.24,1.4Zm-4.48-2.8-2.241-1.4.28-.448,2.24,1.4Zm-4.481-2.8-2.24-1.4.28-.448,2.24,1.4Zm-4.481-2.8-2.241-1.4.28-.448,2.24,1.4Zm-4.481-2.8-2.24-1.4.28-.448,2.24,1.4Zm-4.48-2.8-2.241-1.4.28-.448,2.24,1.4Zm-4.481-2.8-2.24-1.4.28-.448,2.24,1.4Z" transform="translate(-138.266 -103.685)" fill="#ffa200"/>
          <path id="Trazado_995692" data-name="Trazado 995692" d="M207.291,118.835l-1.7-2.024.4-.34,1.7,2.024Zm-3.4-4.048-1.7-2.024.4-.34,1.7,2.024Zm-3.4-4.048-1.7-2.024.4-.339,1.7,2.024Zm-3.4-4.048-1.7-2.024.4-.34,1.7,2.024Zm-3.4-4.048-1.7-2.024.4-.339,1.7,2.024ZM190.3,98.6l-1.7-2.024.4-.339,1.7,2.024Zm-3.4-4.048-1.7-2.024.4-.34,1.7,2.024Zm-3.4-4.048-1.7-2.024.4-.34,1.7,2.024Zm-3.4-4.048-1.7-2.024.4-.34,1.7,2.024Zm-3.4-4.048-1.7-2.024.4-.34,1.7,2.024Zm-3.4-4.048-1.7-2.024.4-.339,1.7,2.024Zm-3.4-4.048-1.7-2.024.4-.339,1.7,2.024Zm-3.4-4.048-1.7-2.024.4-.34,1.7,2.024Zm-3.4-4.048-1.7-2.024.4-.339,1.7,2.024Zm-3.4-4.048-1.7-2.024.4-.34,1.7,2.024Zm-3.4-4.048-1.7-2.024.4-.34,1.7,2.024Zm-3.4-4.048-1.7-2.024.4-.34,1.7,2.024Zm-3.4-4.048L147.832,48l.4-.339,1.7,2.024Zm-3.4-4.048-1.7-2.024.4-.34,1.7,2.024Zm-3.4-4.048-1.7-2.024.4-.339,1.7,2.024Zm-3.4-4.048-1.7-2.024.4-.34,1.7,2.024Zm-3.4-4.048-1.7-2.024.4-.339,1.7,2.024Zm-3.4-4.048-1.7-2.024.4-.34,1.7,2.024Zm-3.4-4.048-1.7-2.024.4-.339,1.7,2.024Zm-3.4-4.048-1.7-2.024.4-.34,1.7,2.024Zm-3.4-4.048-1.7-2.024.4-.339,1.7,2.024Zm-3.4-4.048-1.7-2.024.4-.339,1.7,2.024Zm-3.4-4.048-1.7-2.024.4-.339,1.7,2.024Z" transform="translate(-53.685 -3.385)" fill="#ffa200"/>
          <path id="Trazado_995693" data-name="Trazado 995693" d="M207.455,138.512l-.528-.522.372-.376.528.522Zm-2.409-2.378-1.88-1.856.372-.376,1.88,1.856Zm-3.761-3.712-1.881-1.857.372-.376,1.881,1.856Zm-3.762-3.713-1.881-1.856.372-.376,1.881,1.856ZM193.761,125l-1.881-1.856.372-.376,1.881,1.856ZM190,121.286l-1.881-1.856.372-.376,1.881,1.856Zm-3.762-3.712-1.881-1.856.372-.376,1.881,1.856Zm-3.762-3.712-1.88-1.857.372-.376,1.88,1.857Zm-3.761-3.713-1.881-1.856.372-.376,1.88,1.856Zm-3.762-3.712-1.881-1.856.372-.376,1.881,1.856Zm-3.761-3.712-1.881-1.856.372-.376,1.881,1.856Zm-3.762-3.712-1.88-1.856.372-.376,1.881,1.856ZM163.668,95.3l-1.88-1.856.372-.376,1.88,1.857Zm-3.761-3.712-1.881-1.857.372-.376,1.881,1.857Zm-3.762-3.713-1.881-1.856.372-.376,1.881,1.856Zm-3.761-3.712L150.5,82.308l.372-.376,1.881,1.856Zm-3.762-3.712L146.741,78.6l.372-.376,1.881,1.856Zm-3.762-3.713-1.88-1.855.372-.376,1.881,1.856ZM141.1,73.027l-1.88-1.856.372-.376,1.88,1.857Zm-3.761-3.712-1.881-1.856.372-.376,1.88,1.856ZM133.576,65.6l-1.881-1.856.372-.376,1.881,1.856Zm-3.761-3.712-1.881-1.857.372-.376,1.881,1.856Zm-3.761-3.713-1.881-1.856.372-.376,1.881,1.856Zm-3.762-3.712-1.88-1.856.372-.376,1.88,1.856Zm-3.761-3.712L116.649,48.9l.372-.376,1.881,1.856Zm-3.762-3.712-1.881-1.856.372-.376,1.88,1.856Z" transform="translate(-53.228 -21.129)" fill="#ffa200"/>
          <path id="Trazado_995694" data-name="Trazado 995694" d="M208.536,175.435l-2.306-1.291.258-.461,2.306,1.291Zm-4.612-2.581-2.306-1.291.258-.461,2.306,1.291Zm-4.612-2.581-2.306-1.291.258-.461,2.306,1.291Zm-4.612-2.581-2.306-1.29.258-.462,2.306,1.291Zm-4.612-2.581-2.306-1.291.258-.461,2.306,1.291Zm-4.611-2.581-2.306-1.291.258-.461,2.306,1.291Zm-4.612-2.581-2.306-1.291.258-.461,2.306,1.291Zm-4.612-2.581-2.306-1.291.258-.461,2.306,1.291Zm-4.612-2.581-2.306-1.291.258-.461,2.306,1.291Zm-4.612-2.581-2.305-1.291.258-.461,2.306,1.291Zm-4.611-2.581-2.306-1.29.258-.462,2.306,1.291Zm-4.612-2.581-2.306-1.291.258-.461,2.306,1.291Zm-4.612-2.581-2.306-1.291.258-.461L153.453,144Zm-4.612-2.581-2.306-1.291.258-.461,2.306,1.291Zm-4.612-2.581-2.306-1.291.258-.461,2.306,1.291Zm-4.612-2.581-2.306-1.29.258-.461,2.306,1.29Zm-4.612-2.581-2.306-1.291.258-.461,2.306,1.291Zm-4.612-2.581-2.306-1.291.258-.461,2.306,1.291Zm-4.612-2.581-2.305-1.291.258-.461,2.305,1.291Zm-4.611-2.581-2.306-1.291.258-.461,2.306,1.291Zm-4.612-2.581L114,122.524l.258-.461,2.306,1.291Z" transform="translate(-53.75 -57.555)" fill="#ffa200"/>
          <path id="Trazado_995695" data-name="Trazado 995695" d="M231.145,325.358a20.563,20.563,0,0,0-2.478-.816l.138-.51a21.013,21.013,0,0,1,2.541.838Zm-5.038-1.44c-.706-.159-1.444-.319-2.211-.485l-.373-.081.111-.516.374.08c.768.166,1.507.327,2.214.486Zm-5.171-1.141c-.839-.193-1.7-.4-2.578-.628l.132-.512q1.31.338,2.565.624Zm-5.136-1.339c-.864-.259-1.714-.534-2.527-.818l.174-.5c.805.282,1.648.554,2.505.81Zm-5.011-1.76c-.828-.341-1.644-.705-2.427-1.083l.23-.476c.773.374,1.579.734,2.4,1.07Zm-4.78-2.318c-.771-.438-1.532-.907-2.263-1.394l.293-.44c.72.479,1.471.942,2.231,1.374Zm-4.42-2.949c-.7-.546-1.384-1.122-2.032-1.711l.355-.392c.638.58,1.312,1.147,2,1.686Zm-3.929-3.572c-.6-.641-1.194-1.312-1.75-2l.41-.333c.548.675,1.128,1.337,1.724,1.968Zm-3.35-4.116c-.5-.713-.986-1.461-1.447-2.224l.452-.274c.456.754.935,1.492,1.427,2.195Zm-2.745-4.539c-.4-.768-.788-1.572-1.154-2.388l.482-.216c.361.808.745,1.6,1.14,2.361Zm-2.169-4.837c-.311-.81-.609-1.65-.887-2.5l.5-.164c.275.839.57,1.671.878,2.472Zm-1.656-5.033c-.233-.833-.453-1.7-.657-2.566l.514-.121c.2.862.422,1.719.652,2.545Zm-1.212-5.156c-.164-.845-.32-1.721-.461-2.607l.522-.084c.141.88.295,1.751.458,2.59Zm-.835-5.228c-.109-.855-.208-1.74-.3-2.631l.526-.051c.086.885.185,1.765.293,2.615Zm-.517-5.267q-.091-1.3-.154-2.642l.527-.025q.063,1.341.154,2.629Zm-.246-5.288q-.03-1.3-.034-2.647l.528,0q0,1.341.034,2.637Zm.515-5.285-.528-.01q.022-1.3.069-2.646l.528.018q-.047,1.34-.069,2.637m.185-5.272-.528-.028q.068-1.3.16-2.641l.527.036q-.091,1.336-.159,2.633m.357-5.264-.526-.044q.108-1.3.237-2.636l.527.051q-.13,1.332-.237,2.628m.511-5.252-.525-.058q.143-1.3.307-2.628l.524.064q-.163,1.327-.306,2.621m.644-5.239-.523-.071q.174-1.295.367-2.619l.523.077q-.193,1.321-.367,2.613m.762-5.223-.522-.081q.2-1.291.423-2.611l.521.087q-.22,1.316-.422,2.6m.869-5.207-.521-.092q.228-1.288.472-2.6l.519.1q-.243,1.311-.47,2.6m.964-5.191-.519-.1q.25-1.285.516-2.594l.518.106q-.266,1.306-.515,2.589m1.051-5.175-.517-.109q.27-1.281.556-2.585l.516.113q-.285,1.3-.555,2.581m1.13-5.158-.515-.117q.29-1.278.592-2.577l.515.121q-.3,1.3-.592,2.573m1.2-5.142-.514-.124q.306-1.274.627-2.568l.513.127q-.319,1.293-.626,2.565m1.268-5.127-.512-.131q.322-1.271.657-2.56l.512.133q-.335,1.288-.657,2.558m1.329-5.112-.511-.136q.336-1.267.687-2.553l.51.138q-.35,1.284-.686,2.55m1.385-5.1-.508-.141q.35-1.264.713-2.546l.509.144q-.362,1.279-.713,2.543m-1.172-3.768-2.474-.929.186-.495,2.473.928Zm-4.948-1.857-2.474-.928.186-.495,2.474.928Zm-4.948-1.856-2.474-.929.186-.495,2.474.928Zm-4.948-1.856-2.474-.929.186-.495,2.474.928Zm-4.948-1.857-2.474-.928.186-.5,2.474.928Zm-4.948-1.856-2.474-.929.186-.495,2.474.928Zm-4.948-1.857-2.474-.928.186-.495,2.474.928Zm-4.948-1.856-2.474-.929.186-.495,2.474.928Zm-4.949-1.857-2.474-.928.186-.495,2.474.928Zm-4.948-1.856-2.474-.928.186-.5,2.474.928Zm-4.948-1.856-2.474-.929.186-.495,2.474.928Zm-4.949-1.857-2.473-.928.186-.5,2.474.928Zm-4.948-1.856-2.474-.929.186-.495,2.474.928Zm-4.948-1.857-2.474-.928.186-.5,2.474.929Zm-4.948-1.856-2.474-.928.186-.5,2.474.928Zm-4.949-1.857-2.474-.928.186-.495,2.474.928Zm-4.948-1.856-1.7-.638.186-.5,1.7.638Z" transform="translate(-54.254 -77.343)" fill="#ffa200"/>
          <path id="Trazado_995696" data-name="Trazado 995696" d="M484.155,646.109l-2.3-1.3.261-.461,2.3,1.3Zm-4.6-2.6-2.3-1.3.261-.461,2.3,1.3Zm-4.6-2.6-2.3-1.3.261-.461,2.3,1.3Zm-4.6-2.6-2.3-1.3.261-.46,2.3,1.3Zm-4.6-2.6-2.3-1.3.261-.46,2.3,1.3Zm-4.6-2.6-2.3-1.3.261-.46,2.3,1.3Zm-4.6-2.6-2.3-1.3.261-.46,2.3,1.3Zm-4.6-2.6-2.3-1.3.261-.46,2.3,1.3Zm-4.6-2.6-2.3-1.3.261-.46,2.3,1.3Zm-4.6-2.6-2.3-1.3.261-.46,2.3,1.3Zm-4.6-2.6-2.3-1.3.261-.46,2.3,1.3Zm-4.6-2.6-2.3-1.3.261-.46,2.3,1.3Zm-4.6-2.6-2.3-1.3.261-.46,2.3,1.3Zm-4.6-2.6-2.3-1.3.261-.46,2.3,1.3Zm-4.6-2.6-2.3-1.3.261-.46,2.3,1.3Zm-4.6-2.6-2.3-1.3.261-.46,2.3,1.3Zm-4.6-2.6-2.3-1.3.261-.46,2.3,1.3Zm-4.6-2.6-2.3-1.3.26-.46,2.3,1.3Zm-4.6-2.6-2.3-1.3.26-.46,2.3,1.3Zm-4.6-2.6-2.3-1.3.26-.46,2.3,1.3Zm-4.6-2.6-1.116-.629.26-.461,1.116.63Z" transform="translate(-184.359 -279.638)" fill="#ffa200"/>
          <path id="Trazado_995697" data-name="Trazado 995697" d="M470.7,436.5l-1.738-1.99.4-.348,1.738,1.991Zm-3.475-3.982-1.737-1.991.4-.348,1.737,1.991Zm-3.475-3.981-1.738-1.991.4-.348,1.738,1.991Zm-3.475-3.982-1.738-1.991.4-.348,1.738,1.99Zm-3.475-3.982-1.737-1.99.4-.348,1.738,1.99Zm-3.475-3.981-1.738-1.991.4-.348,1.738,1.991Zm-3.475-3.982-1.738-1.991.4-.348,1.738,1.991Zm-3.475-3.982-1.738-1.991.4-.348,1.738,1.991Zm-3.475-3.981-1.738-1.991.4-.348L443.3,404.3Zm-3.475-3.982-1.738-1.99.4-.348,1.738,1.99Zm-3.475-3.981-1.738-1.991.4-.348,1.738,1.991Zm-3.476-3.982-1.738-1.991.4-.348,1.738,1.991ZM429,388.719l-1.737-1.991.4-.348,1.737,1.991Zm-3.475-3.981-1.738-1.991.4-.348,1.738,1.991Zm-3.475-3.982-1.738-1.99.4-.348,1.738,1.99Zm-3.475-3.982-1.738-1.99.4-.348,1.738,1.99Zm-3.476-3.981-1.738-1.991.4-.348,1.738,1.991Zm-3.475-3.982-1.738-1.991.4-.348,1.738,1.991Zm-3.475-3.982-1.738-1.991.4-.348,1.738,1.991Zm-3.475-3.981-1.738-1.991.4-.348,1.738,1.991Zm-3.475-3.982-1.727-2.01.408-.336.458.557,1.259,1.441Zm-3.406-4.051-1.678-2.04.407-.336,1.679,2.04Zm-3.358-4.08-1.679-2.04.408-.335,1.678,2.04Zm-3.359-4.081-1.678-2.04.407-.336,1.679,2.04Zm-3.357-4.081-1.68-2.04.408-.336,1.679,2.04Zm-3.359-4.08-1.679-2.04.407-.336,1.68,2.041ZM381,332.413l-1.679-2.04.408-.336,1.678,2.04Zm-3.359-4.081-1.678-2.04.407-.336,1.679,2.04Zm-3.358-4.08-1.679-2.04.408-.336,1.678,2.04Zm-3.358-4.081-1.679-2.04.407-.336,1.68,2.04Zm-3.358-4.08-1.68-2.04.408-.337,1.679,2.04Zm-3.359-4.081-1.678-2.04.407-.336,1.679,2.04Zm-3.358-4.081-1.679-2.04.408-.336,1.678,2.04Zm-3.359-4.08-1.678-2.04.407-.335,1.679,2.04Zm-3.357-4.08-1.68-2.04.408-.336,1.679,2.04Zm-3.358-4.081-1.679-2.04.407-.336,1.68,2.041Zm-3.358-4.08-1.679-2.041.408-.336,1.678,2.04Zm-3.359-4.081-1.678-2.04.407-.336,1.679,2.041Zm-3.358-4.08-1.679-2.04.408-.336,1.678,2.04Zm-3.358-4.08-1.679-2.041.407-.336,1.68,2.04Zm-3.358-4.081-1.68-2.04.408-.336,1.679,2.04Zm-3.359-4.081-1.678-2.04.407-.336,1.679,2.039Zm-3.358-4.081-1.679-2.039.408-.337,1.678,2.04Zm-3.359-4.08L322.233,261l.407-.336,1.679,2.041Zm-3.357-4.081-1.68-2.039.408-.337,1.679,2.04Zm-3.359-4.08-1.679-2.04.407-.336,1.68,2.041Zm-3.358-4.08-1.679-2.041.408-.336,1.678,2.04Zm-3.359-4.081-1.678-2.04.407-.336,1.679,2.041Zm-3.358-4.08-1.679-2.041.408-.336,1.678,2.04Zm-3.358-4.081-1.679-2.04.408-.336,1.68,2.04Zm-3.358-4.08-1.68-2.04.408-.336,1.679,2.04Z" transform="translate(-140.854 -109.438)" fill="#ffa200"/>
          <path id="Trazado_995698" data-name="Trazado 995698" d="M478.528,403.841l-1.963-1.768.354-.393,1.963,1.768ZM474.6,400.3l-1.963-1.768.354-.392,1.963,1.768Zm-3.927-3.537L468.71,395l.354-.392,1.963,1.768Zm-3.927-3.536-1.964-1.768.354-.393,1.964,1.768Zm-3.927-3.537-1.964-1.768.354-.392,1.964,1.768Zm-3.927-3.537-1.964-1.768.354-.393,1.963,1.768Zm-3.927-3.537L453,380.852l.354-.392,1.963,1.768Zm-3.927-3.537-1.963-1.768.354-.392,1.963,1.768Zm-3.927-3.537-1.963-1.768.354-.392,1.963,1.768Zm-3.927-3.536-1.964-1.768.354-.393,1.964,1.768Zm-3.927-3.538-1.964-1.768.354-.392,1.964,1.768Zm-3.927-3.537-1.963-1.768.354-.392,1.963,1.768ZM431.4,361.4l-1.963-1.768.354-.392,1.963,1.768Zm-3.927-3.537-1.963-1.768.354-.393,1.963,1.768Zm-3.927-3.537-1.963-1.768.354-.392,1.963,1.768Zm-3.927-3.537-1.964-1.768.354-.393,1.964,1.768Zm-3.927-3.537-1.964-1.768.354-.392,1.964,1.768Zm-3.927-3.537-1.963-1.768.354-.392,1.963,1.768Zm-3.927-3.537-1.963-1.768.354-.393,1.963,1.768Zm-3.927-3.537-1.963-1.768.354-.392,1.963,1.768Zm-3.925-3.535-.017-.016-1.885-1.836.368-.379,1.876,1.828Zm-3.8-3.7-1.893-1.844.368-.379,1.893,1.844Zm-3.786-3.687-1.893-1.844.368-.378,1.893,1.843Zm-3.786-3.688-1.893-1.844.368-.378,1.893,1.844Zm-3.786-3.687-1.893-1.845.369-.377,1.892,1.844Zm-3.786-3.688-1.893-1.844.369-.378,1.892,1.844Zm-3.785-3.688-1.893-1.843.369-.378,1.893,1.844Zm-3.786-3.688-1.893-1.844.368-.378,1.893,1.844ZM369.7,303.6l-1.892-1.844.368-.377,1.893,1.843Zm-3.786-3.687-1.892-1.844.368-.378,1.892,1.844Zm-3.785-3.688-1.893-1.843L360.6,294l1.893,1.844Zm-3.786-3.687-1.893-1.844.368-.378,1.893,1.843Zm-3.786-3.688L352.664,287l.368-.378,1.892,1.844Zm-3.786-3.688-1.892-1.844.368-.378,1.892,1.843Zm-3.786-3.687-1.893-1.844.368-.379,1.893,1.844Zm-3.785-3.688-1.893-1.843.368-.379,1.893,1.844Zm-3.786-3.687-1.893-1.844.369-.378,1.893,1.844Zm-3.786-3.688-1.892-1.843.369-.379L336,270.027Zm-3.786-3.687-1.893-1.844.368-.378,1.893,1.844Zm-3.785-3.688-1.893-1.844.368-.378,1.893,1.844Zm-3.786-3.688-1.893-1.843.368-.379,1.893,1.845Zm-3.786-3.687-1.893-1.844.368-.378,1.893,1.844Zm-3.786-3.688-1.893-1.843.368-.378,1.893,1.843Zm-3.786-3.687-1.893-1.844.368-.378,1.893,1.844Zm-3.785-3.688-1.893-1.844.368-.378,1.893,1.844Zm-3.786-3.687-1.893-1.844.368-.379,1.893,1.844Zm-3.786-3.688-1.893-1.844.369-.378,1.893,1.844Zm-3.786-3.688-1.893-1.844.369-.377,1.892,1.843Zm-3.785-3.687L292.1,228l.369-.378,1.893,1.844Zm-3.786-3.687-1.893-1.844.368-.379,1.894,1.844Zm-3.786-3.688-1.893-1.844.368-.378,1.893,1.844Zm-3.786-3.688-1.892-1.844.368-.378L283,218.4Zm-3.786-3.688-1.892-1.843.368-.378,1.892,1.844Z" transform="translate(-130.588 -100.37)" fill="#ffa200"/>
          <path id="Trazado_995731" data-name="Trazado 995731" d="M612.024,476.12l-2.156-1.528.305-.432,2.156,1.528Zm-4.311-3.056-2.156-1.528.305-.432,2.156,1.528Zm-4.312-3.056-2.156-1.528.305-.431,2.156,1.528Zm-4.311-3.056-2.156-1.528.305-.431,2.156,1.528Zm-4.311-3.056-2.156-1.528.305-.431,2.156,1.528Zm-4.311-3.057-2.156-1.528.305-.432,2.156,1.528Zm-4.311-3.056L584,456.255l.305-.432,2.156,1.528Zm-4.312-3.056-2.156-1.528.305-.431,2.156,1.528Zm-4.311-3.056-2.156-1.528.305-.431,2.156,1.528Zm-4.311-3.056-2.156-1.528.305-.431,2.156,1.528Zm-4.311-3.057-2.156-1.527.305-.432,2.156,1.528ZM564.6,442.5l-2.156-1.528.305-.432,2.156,1.528Zm-4.312-3.056-2.156-1.528.305-.431,2.156,1.528Zm-4.311-3.056-2.156-1.528.305-.431,2.156,1.528Zm-4.311-3.056-2.156-1.528.305-.431,2.156,1.528Zm-4.311-3.057-2.156-1.528.305-.432,2.156,1.528Zm-4.311-3.056-2.156-1.527.305-.432,2.156,1.528Zm-4.312-3.056-2.156-1.528.305-.431,2.156,1.528Zm-4.311-3.056-2.156-1.528.305-.431,2.156,1.528Zm-4.311-3.057-2.156-1.528.305-.431,2.156,1.528Z" transform="translate(-248.937 -196.194)" fill="#ffa200"/>
        </g>
        <path id="Trazado_995686" data-name="Trazado 995686" d="M187.012,551.992H25.3a1.057,1.057,0,0,1-1.057-1.057V213.762a1.057,1.057,0,0,1,.963-1.053c19.3-1.715,32.912-10.472,40.462-26.025a57.917,57.917,0,0,0,5.61-23.116,1.057,1.057,0,0,1,1.244-1.052c63.934,11.529,91,27.986,91.269,28.151a1.008,1.008,0,0,1,.116.084L291.268,295.919a1.057,1.057,0,0,1,.163,1.462l-72.4,93.542a1.059,1.059,0,0,1-1.376.262l-29.584-17.55v177.3a1.057,1.057,0,0,1-1.057,1.057M26.353,549.878h159.6v-178.1a1.057,1.057,0,0,1,1.6-.909l30.377,18.02,71.2-91.993L162.617,192.429c-1.405-.843-28.057-16.435-89.256-27.613A60.084,60.084,0,0,1,67.6,187.533c-5.354,11.071-16.846,24.7-41.249,27.189Z" transform="translate(-11.429 -76.62)" fill="#0048c5"/>
        <path id="Trazado_995687" data-name="Trazado 995687" d="M224.423,392.711a1.051,1.051,0,0,1-.477-.114l-21.668-10.98a1.056,1.056,0,0,1-.552-.707,486.093,486.093,0,0,0-23.382-70.467c-14.526-34.629-39.2-80.757-74.285-103.852a1.057,1.057,0,0,1,1.162-1.766c15.71,10.342,30.671,26.027,44.466,46.618,11.011,16.435,21.313,36.022,30.62,58.215a492.213,492.213,0,0,1,23.365,70.3l21.23,10.758a1.057,1.057,0,0,1-.479,2" transform="translate(-48.841 -96.496)" fill="#0048c5"/>
        <path id="Trazado_995688" data-name="Trazado 995688" d="M114.06,90.5a.265.265,0,0,1-.264-.261L112.739,7.266A.264.264,0,0,1,113,7h0a.265.265,0,0,1,.264.261l1.057,82.972a.264.264,0,0,1-.261.267Z" transform="translate(-53.158 -3.3)"/>
        <path id="Trazado_995689" data-name="Trazado 995689" d="M292,557.04a.264.264,0,0,1-.264-.264V457.942a.264.264,0,1,1,.528,0v98.833a.264.264,0,0,1-.264.264" transform="translate(-137.559 -215.802)"/>
        <path id="Trazado_995699" data-name="Trazado 995699" d="M205.4,153.3a.266.266,0,0,1-.164-.057l-91.46-71.992a.264.264,0,0,1,.327-.415l91.46,71.992a.264.264,0,0,1-.164.472" transform="translate(-53.601 -38.087)"/>
        <path id="Trazado_995700" data-name="Trazado 995700" d="M226.975,359.267a.264.264,0,0,1-.2-.094l-53.1-62.922-67.617-89.064a.264.264,0,0,1,.421-.319l67.609,89.053,53.089,62.912a.264.264,0,0,1-.2.434" transform="translate(-49.983 -97.492)"/>
        <path id="Trazado_995701" data-name="Trazado 995701" d="M92.691,283.556H25.766a.528.528,0,0,1,0-1.057H92.691a.528.528,0,0,1,0,1.057" transform="translate(-11.9 -133.203)"/>
        <path id="Trazado_995702" data-name="Trazado 995702" d="M156.883,279.015a31.931,31.931,0,0,0-9.034,5.027l1.819-5.027-1.819-5.026a31.9,31.9,0,0,0,9.034,5.026" transform="translate(-69.713 -129.19)"/>
        <path id="Trazado_995703" data-name="Trazado 995703" d="M238.125,101.74a.552.552,0,0,1-.116-.013L134.516,78.541a.529.529,0,0,1,.231-1.032L238.241,100.7a.529.529,0,0,1-.115,1.044" transform="translate(-63.231 -36.541)"/>
        <path id="Trazado_995704" data-name="Trazado 995704" d="M123.326,73.244a31.939,31.939,0,0,0,9.915-2.929l-2.873,4.507.675,5.3a31.918,31.918,0,0,0-7.717-6.879" transform="translate(-58.15 -33.155)"/>
        <path id="Trazado_995705" data-name="Trazado 995705" d="M128.435,327.073a.528.528,0,0,1-.226-1.006l21.713-10.255a.529.529,0,0,1,.451.956L128.66,327.023a.527.527,0,0,1-.225.051" transform="translate(-60.31 -148.886)"/>
        <path id="Trazado_995706" data-name="Trazado 995706" d="M171.7,310.995a31.951,31.951,0,0,0-6.023,8.4l-.5-5.322-3.79-3.768a31.9,31.9,0,0,0,10.315.686" transform="translate(-76.096 -146.315)"/>
        <path id="Trazado_995707" data-name="Trazado 995707" d="M25.706,910.772a.528.528,0,0,1-.528-.522l-.31-24.011a.529.529,0,0,1,.522-.535.512.512,0,0,1,.535.522l.31,24.011a.529.529,0,0,1-.522.535Z" transform="translate(-11.725 -417.622)"/>
        <path id="Trazado_995708" data-name="Trazado 995708" d="M22.022,936.091a31.95,31.95,0,0,0-5.143-8.968l5.05,1.753,5-1.883a31.929,31.929,0,0,0-4.909,9.1" transform="translate(-7.959 -437.091)"/>
        <path id="Trazado_995709" data-name="Trazado 995709" d="M331.373,910.774a.528.528,0,0,1-.529-.522l-.31-24.011a.529.529,0,0,1,.522-.535h.007a.529.529,0,0,1,.529.522l.31,24.011a.529.529,0,0,1-.522.535Z" transform="translate(-155.852 -417.624)"/>
        <path id="Trazado_995710" data-name="Trazado 995710" d="M327.689,936.091a31.949,31.949,0,0,0-5.143-8.968l5.05,1.753,5-1.883a31.929,31.929,0,0,0-4.909,9.1" transform="translate(-152.085 -437.091)"/>
        <path id="Trazado_995711" data-name="Trazado 995711" d="M137.073,380.1H26a.264.264,0,0,1,0-.529h111.07a.264.264,0,0,1,0,.529" transform="translate(-12.136 -178.976)"/>
        <path id="Trazado_995712" data-name="Trazado 995712" d="M187.72,509.646h-.007a.265.265,0,0,1-.257-.272l1.4-52.467L26,454.86a.264.264,0,1,1,.006-.528l163.125,2.052a.263.263,0,0,1,.187.081.267.267,0,0,1,.074.191l-1.409,52.735a.264.264,0,0,1-.264.257" transform="translate(-12.136 -214.224)"/>
        <path id="Trazado_995713" data-name="Trazado 995713" d="M189.128,643.389h0L26,641.338a.265.265,0,0,1-.261-.267.275.275,0,0,1,.267-.261l163.125,2.052a.264.264,0,0,1,0,.528" transform="translate(-12.136 -302.151)"/>
        <path id="Trazado_995714" data-name="Trazado 995714" d="M294.951,457.807l-.047,0c-18.882-1.111-30.044-12.551-36.081-21.953a65.847,65.847,0,0,1-8.638-20.274.793.793,0,0,1,1.553-.318,65.572,65.572,0,0,0,8.446,19.778c8.491,13.2,20.2,20.324,34.813,21.184a.793.793,0,0,1-.046,1.584" transform="translate(-117.958 -195.503)"/>
        <path id="Trazado_995715" data-name="Trazado 995715" d="M138.637,555.062l-9.555-89.436-5.425,89.4-1.582-.1,6-98.853,1.579-.036,10.561,98.853Z" transform="translate(-57.56 -215.03)"/>
        <rect id="Rectángulo_454756" data-name="Rectángulo 454756" width="0.529" height="96.42" transform="matrix(1, -0.012, 0.012, 1, 70.892, 243.538)"/>
        <path id="Trazado_995716" data-name="Trazado 995716" d="M113.467,6.947a2.114,2.114,0,1,1-2.114-2.114,2.114,2.114,0,0,1,2.114,2.114" transform="translate(-51.508 -2.279)"/>
        <path id="Trazado_995717" data-name="Trazado 995717" d="M113.467,43.28a2.114,2.114,0,1,1-2.114-2.114,2.114,2.114,0,0,1,2.114,2.114" transform="translate(-51.508 -19.41)"/>
        <path id="Trazado_995718" data-name="Trazado 995718" d="M113.467,120.613a2.114,2.114,0,1,1-2.114-2.114,2.114,2.114,0,0,1,2.114,2.114" transform="translate(-51.508 -55.874)"/>
        <path id="Trazado_995719" data-name="Trazado 995719" d="M115.467,162.613a2.114,2.114,0,1,1-2.114-2.114,2.114,2.114,0,0,1,2.114,2.114" transform="translate(-52.451 -75.678)"/>
        <path id="Trazado_995720" data-name="Trazado 995720" d="M105.812,205.377a2.114,2.114,0,1,1-2.114-2.114,2.114,2.114,0,0,1,2.114,2.114" transform="translate(-47.898 -95.842)"/>
        <path id="Trazado_995721" data-name="Trazado 995721" d="M26.467,258.645a2.114,2.114,0,1,1-2.114-2.114,2.114,2.114,0,0,1,2.114,2.114" transform="translate(-10.486 -120.958)"/>
        <path id="Trazado_995722" data-name="Trazado 995722" d="M292.467,643.3a2.114,2.114,0,1,1-2.114-2.114,2.114,2.114,0,0,1,2.114,2.114" transform="translate(-135.909 -302.331)"/>
        <path id="Trazado_995723" data-name="Trazado 995723" d="M335.133,456.947a2.114,2.114,0,1,1-2.114-2.114,2.114,2.114,0,0,1,2.114,2.114" transform="translate(-156.027 -214.461)"/>
        <path id="Trazado_995724" data-name="Trazado 995724" d="M292.467,535.835a2.114,2.114,0,1,1-2.114-2.114,2.114,2.114,0,0,1,2.114,2.114" transform="translate(-135.909 -251.658)"/>
        <path id="Trazado_995725" data-name="Trazado 995725" d="M335.133,492.947a2.114,2.114,0,1,1-2.114-2.114,2.114,2.114,0,0,1,2.114,2.114" transform="translate(-156.027 -231.435)"/>
        <path id="Trazado_995726" data-name="Trazado 995726" d="M332.133,643.364a2.114,2.114,0,1,1-2.114-2.114,2.114,2.114,0,0,1,2.114,2.114" transform="translate(-154.612 -302.359)"/>
        <path id="Trazado_995727" data-name="Trazado 995727" d="M332.133,895.613a2.114,2.114,0,1,1-2.114-2.114,2.114,2.114,0,0,1,2.114,2.114" transform="translate(-154.612 -421.298)"/>
        <path id="Trazado_995728" data-name="Trazado 995728" d="M26.095,895.613a2.114,2.114,0,1,1-2.114-2.114,2.114,2.114,0,0,1,2.114,2.114" transform="translate(-10.311 -421.298)"/>
        <path id="Trazado_995729" data-name="Trazado 995729" d="M26.467,640.364a2.114,2.114,0,1,1-2.114-2.114,2.114,2.114,0,0,1,2.114,2.114" transform="translate(-10.486 -300.945)"/>
        <path id="Trazado_995730" data-name="Trazado 995730" d="M113.467,79.389a2.114,2.114,0,1,1-2.114-2.114,2.114,2.114,0,0,1,2.114,2.114" transform="translate(-51.508 -36.436)"/>
        <path id="Trazado_995732" data-name="Trazado 995732" d="M691.994,529.113A2.114,2.114,0,1,1,689.88,527a2.114,2.114,0,0,1,2.114,2.114" transform="translate(-324.292 -248.488)"/>
        <path id="Trazado_995733" data-name="Trazado 995733" d="M271.185,221.26a2.114,2.114,0,1,1-2.114-2.114,2.114,2.114,0,0,1,2.114,2.114" transform="translate(-125.874 -103.331)"/>
        <path id="Trazado_995734" data-name="Trazado 995734" d="M287.467,215.613a2.114,2.114,0,1,1-2.114-2.114,2.114,2.114,0,0,1,2.114,2.114" transform="translate(-133.552 -100.668)"/>
        <path id="Trazado_995735" data-name="Trazado 995735" d="M624.743,616.647a2.114,2.114,0,1,1-2.114-2.114,2.114,2.114,0,0,1,2.114,2.114" transform="translate(-292.582 -289.762)"/>
        <path id="Trazado_995736" data-name="Trazado 995736" d="M658.936,571.972a2.114,2.114,0,1,1-2.114-2.114,2.114,2.114,0,0,1,2.114,2.114" transform="translate(-308.705 -268.697)"/>
        <path id="Trazado_995737" data-name="Trazado 995737" d="M567.749,689.928a2.114,2.114,0,1,1-2.114-2.114,2.114,2.114,0,0,1,2.114,2.114" transform="translate(-265.709 -324.315)"/>
        <path id="Trazado_995738" data-name="Trazado 995738" d="M547.467,717.613a2.114,2.114,0,1,1-2.114-2.114,2.114,2.114,0,0,1,2.114,2.114" transform="translate(-256.146 -337.369)"/>
        <path id="Trazado_995739" data-name="Trazado 995739" d="M426.3,633.817a.26.26,0,0,1-.153-.049L290.851,537.7a.264.264,0,0,1,.305-.431l135.292,96.067a.264.264,0,0,1-.153.479" transform="translate(-137.088 -253.309)"/>
      </g>
    </g>
    <path id="Trazado_996515" data-name="Trazado 996515" d="M3.889-1.679a.677.677,0,0,0-.264-.573,3.458,3.458,0,0,0-.949-.422,6.729,6.729,0,0,1-1.085-.437A1.773,1.773,0,0,1,.5-4.7a1.545,1.545,0,0,1,.292-.925,1.906,1.906,0,0,1,.839-.635,3.159,3.159,0,0,1,1.228-.229,2.876,2.876,0,0,1,1.222.248,1.945,1.945,0,0,1,.833.7,1.834,1.834,0,0,1,.3,1.028H3.894a.863.863,0,0,0-.277-.683,1.138,1.138,0,0,0-.778-.244,1.216,1.216,0,0,0-.751.2.645.645,0,0,0-.268.538.617.617,0,0,0,.314.523,3.55,3.55,0,0,0,.925.4A4,4,0,0,1,4.7-2.936a1.672,1.672,0,0,1,.514,1.248,1.54,1.54,0,0,1-.628,1.3A2.751,2.751,0,0,1,2.892.088a3.267,3.267,0,0,1-1.345-.27,2.128,2.128,0,0,1-.925-.74A1.9,1.9,0,0,1,.3-2.013H1.626q0,1.059,1.266,1.059a1.231,1.231,0,0,0,.734-.191A.622.622,0,0,0,3.889-1.679Zm4.979,1.2a1.593,1.593,0,0,1-1.3.571A1.5,1.5,0,0,1,6.4-.352,1.876,1.876,0,0,1,5.99-1.639V-4.755H7.26v3.072q0,.743.677.743a.917.917,0,0,0,.888-.448V-4.755H10.1V0H8.9Zm6.473-1.85a2.879,2.879,0,0,1-.488,1.782,1.616,1.616,0,0,1-1.362.639,1.485,1.485,0,0,1-1.235-.593L12.2,0H11.057V-6.75h1.27v2.421a1.446,1.446,0,0,1,1.156-.514,1.629,1.629,0,0,1,1.365.639,2.883,2.883,0,0,1,.494,1.8Zm-1.27-.092a1.892,1.892,0,0,0-.229-1.052.773.773,0,0,0-.681-.332.838.838,0,0,0-.835.5v1.876a.849.849,0,0,0,.844.5.784.784,0,0,0,.809-.606A3.128,3.128,0,0,0,14.071-2.426ZM17.464,0H16.189V-4.755h1.274ZM16.115-5.985a.625.625,0,0,1,.191-.47.718.718,0,0,1,.521-.185.72.72,0,0,1,.519.185.622.622,0,0,1,.193.47.624.624,0,0,1-.2.475.722.722,0,0,1-.516.185.722.722,0,0,1-.516-.185A.624.624,0,0,1,16.115-5.985Zm5.067,2.421a3.45,3.45,0,0,0-.457-.035.93.93,0,0,0-.945.488V0H18.51V-4.755h1.2l.035.567A1.177,1.177,0,0,1,20.8-4.843a1.331,1.331,0,0,1,.4.057Zm5.427,2.25a.409.409,0,0,0-.231-.367,2.621,2.621,0,0,0-.74-.24q-1.7-.356-1.7-1.441a1.307,1.307,0,0,1,.525-1.057,2.118,2.118,0,0,1,1.373-.424,2.28,2.28,0,0,1,1.448.426,1.343,1.343,0,0,1,.543,1.107h-1.27a.615.615,0,0,0-.176-.45.744.744,0,0,0-.549-.178.76.76,0,0,0-.5.145.458.458,0,0,0-.176.369.391.391,0,0,0,.2.341,2.057,2.057,0,0,0,.675.224,5.51,5.51,0,0,1,.8.213,1.314,1.314,0,0,1,1.006,1.279,1.24,1.24,0,0,1-.558,1.052,2.408,2.408,0,0,1-1.441.4,2.515,2.515,0,0,1-1.061-.213,1.781,1.781,0,0,1-.727-.584,1.358,1.358,0,0,1-.264-.8H25a.663.663,0,0,0,.25.519.994.994,0,0,0,.624.18.92.92,0,0,0,.552-.138A.431.431,0,0,0,26.609-1.314ZM30.85.088a2.334,2.334,0,0,1-1.7-.642,2.281,2.281,0,0,1-.657-1.709v-.123a2.872,2.872,0,0,1,.277-1.281,2.032,2.032,0,0,1,.784-.87,2.2,2.2,0,0,1,1.158-.305,1.973,1.973,0,0,1,1.536.615,2.5,2.5,0,0,1,.56,1.745v.519H29.777a1.18,1.18,0,0,0,.371.747,1.123,1.123,0,0,0,.784.281,1.371,1.371,0,0,0,1.147-.532l.624.7a1.907,1.907,0,0,1-.773.631A2.538,2.538,0,0,1,30.85.088Zm-.145-3.9a.8.8,0,0,0-.613.255,1.317,1.317,0,0,0-.3.729h1.767v-.1a.939.939,0,0,0-.229-.653A.821.821,0,0,0,30.7-3.814Zm2.637,1.4a2.787,2.787,0,0,1,.521-1.762,1.687,1.687,0,0,1,1.4-.668,1.48,1.48,0,0,1,1.217.536l.053-.448h1.151v4.6A2.032,2.032,0,0,1,37.4.927a1.82,1.82,0,0,1-.8.7,2.8,2.8,0,0,1-1.2.242,2.607,2.607,0,0,1-1.02-.209,1.809,1.809,0,0,1-.751-.538l.563-.773a1.488,1.488,0,0,0,1.151.532,1.089,1.089,0,0,0,.787-.27,1.014,1.014,0,0,0,.281-.767V-.409a1.469,1.469,0,0,1-1.156.5,1.683,1.683,0,0,1-1.386-.67,2.786,2.786,0,0,1-.53-1.778Zm1.27.092a1.73,1.73,0,0,0,.259,1.013.825.825,0,0,0,.712.367.882.882,0,0,0,.831-.435v-2a.88.88,0,0,0-.822-.435.83.83,0,0,0-.719.374A1.95,1.95,0,0,0,34.611-2.32Zm6.9,1.837a1.593,1.593,0,0,1-1.3.571,1.5,1.5,0,0,1-1.167-.439,1.876,1.876,0,0,1-.411-1.288V-4.755H39.9v3.072q0,.743.677.743a.917.917,0,0,0,.888-.448V-4.755h1.274V0h-1.2ZM40.944-6.75h1.384L41.111-5.388H40.078Zm3.924,2,.04.549a1.66,1.66,0,0,1,1.367-.637A1.38,1.38,0,0,1,47.4-4.4a2.071,2.071,0,0,1,.378,1.327V0h-1.27V-3.041a.824.824,0,0,0-.176-.587.787.787,0,0,0-.584-.182.874.874,0,0,0-.8.457V0h-1.27V-4.755ZM1.828,11H.554V4.25H1.828Zm3.8,0a1.41,1.41,0,0,1-.127-.426,1.537,1.537,0,0,1-1.2.514,1.688,1.688,0,0,1-1.158-.4,1.3,1.3,0,0,1-.459-1.02,1.344,1.344,0,0,1,.56-1.16A2.765,2.765,0,0,1,4.865,8.1h.584V7.823A.784.784,0,0,0,5.28,7.3a.666.666,0,0,0-.534-.2.757.757,0,0,0-.5.154.523.523,0,0,0-.182.422H2.791a1.276,1.276,0,0,1,.255-.765,1.685,1.685,0,0,1,.721-.552,2.627,2.627,0,0,1,1.046-.2,2.075,2.075,0,0,1,1.4.442A1.545,1.545,0,0,1,6.724,7.84V9.9a2.273,2.273,0,0,0,.189,1.024V11Zm-1.05-.883A1.094,1.094,0,0,0,5.1,9.991a.823.823,0,0,0,.352-.336V8.838H4.975q-.954,0-1.015.659l0,.075a.508.508,0,0,0,.167.391A.649.649,0,0,0,4.579,10.117Zm6.7.883H10.006V6.245h1.274ZM9.932,5.015a.625.625,0,0,1,.191-.47.824.824,0,0,1,1.039,0,.671.671,0,0,1,0,.945.815.815,0,0,1-1.033,0A.624.624,0,0,1,9.932,5.015ZM13.5,6.245l.04.549A1.66,1.66,0,0,1,14.9,6.157a1.38,1.38,0,0,1,1.125.444A2.071,2.071,0,0,1,16.4,7.928V11h-1.27V7.959a.824.824,0,0,0-.176-.587.787.787,0,0,0-.584-.182.874.874,0,0,0-.8.457V11H12.3V6.245Zm5.849,3.819a.833.833,0,0,0,.571-.193.677.677,0,0,0,.229-.514h1.191a1.629,1.629,0,0,1-.264.885,1.74,1.74,0,0,1-.71.624,2.221,2.221,0,0,1-1,.222,2.064,2.064,0,0,1-1.608-.648,2.565,2.565,0,0,1-.589-1.791V8.565a2.536,2.536,0,0,1,.584-1.753,2.04,2.04,0,0,1,1.6-.655,2,2,0,0,1,1.43.508,1.8,1.8,0,0,1,.547,1.351H20.145a.866.866,0,0,0-.229-.6.851.851,0,0,0-1.25.092,1.87,1.87,0,0,0-.226,1.048v.132a1.893,1.893,0,0,0,.224,1.055A.775.775,0,0,0,19.345,10.064ZM23.4,11H22.126V4.25H23.4Zm2.386,0H24.513V6.245h1.274ZM24.438,5.015a.625.625,0,0,1,.191-.47.824.824,0,0,1,1.039,0,.671.671,0,0,1,0,.945.815.815,0,0,1-1.033,0A.624.624,0,0,1,24.438,5.015ZM28,6.245l.04.549a1.66,1.66,0,0,1,1.367-.637,1.38,1.38,0,0,1,1.125.444,2.071,2.071,0,0,1,.378,1.327V11h-1.27V7.959a.824.824,0,0,0-.176-.587.787.787,0,0,0-.584-.182.874.874,0,0,0-.8.457V11h-1.27V6.245ZM34.629,11a1.41,1.41,0,0,1-.127-.426,1.537,1.537,0,0,1-1.2.514,1.688,1.688,0,0,1-1.158-.4,1.3,1.3,0,0,1-.459-1.02,1.344,1.344,0,0,1,.56-1.16A2.765,2.765,0,0,1,33.864,8.1h.584V7.823A.784.784,0,0,0,34.28,7.3a.666.666,0,0,0-.534-.2.757.757,0,0,0-.5.154.523.523,0,0,0-.182.422H31.79a1.276,1.276,0,0,1,.255-.765,1.685,1.685,0,0,1,.721-.552,2.627,2.627,0,0,1,1.046-.2,2.075,2.075,0,0,1,1.4.442,1.545,1.545,0,0,1,.516,1.241V9.9a2.273,2.273,0,0,0,.189,1.024V11Zm-1.05-.883a1.094,1.094,0,0,0,.519-.125.823.823,0,0,0,.352-.336V8.838h-.475q-.954,0-1.015.659l0,.075a.508.508,0,0,0,.167.391A.649.649,0,0,0,33.579,10.117Zm5.1-.053a.833.833,0,0,0,.571-.193.677.677,0,0,0,.229-.514h1.191a1.629,1.629,0,0,1-.264.885,1.74,1.74,0,0,1-.71.624,2.221,2.221,0,0,1-1,.222,2.064,2.064,0,0,1-1.608-.648A2.565,2.565,0,0,1,36.5,8.649V8.565a2.536,2.536,0,0,1,.584-1.753,2.04,2.04,0,0,1,1.6-.655,2,2,0,0,1,1.43.508,1.8,1.8,0,0,1,.547,1.351H39.476a.866.866,0,0,0-.229-.6A.851.851,0,0,0,38,7.509a1.87,1.87,0,0,0-.226,1.048v.132A1.893,1.893,0,0,0,38,9.743.775.775,0,0,0,38.676,10.064ZM42.732,11H41.458V6.245h1.274ZM41.383,5.015a.625.625,0,0,1,.191-.47.824.824,0,0,1,1.039,0,.671.671,0,0,1,0,.945.815.815,0,0,1-1.033,0A.624.624,0,0,1,41.383,5.015Zm2.2,3.564a2.82,2.82,0,0,1,.272-1.261,2,2,0,0,1,.784-.857,2.289,2.289,0,0,1,1.189-.3,2.165,2.165,0,0,1,1.571.589,2.363,2.363,0,0,1,.679,1.6l.009.325a2.485,2.485,0,0,1-.611,1.756,2.367,2.367,0,0,1-3.281,0,2.529,2.529,0,0,1-.613-1.793Zm1.27.092a1.773,1.773,0,0,0,.255,1.035.917.917,0,0,0,1.45,0,1.94,1.94,0,0,0,.259-1.132,1.755,1.755,0,0,0-.259-1.028.843.843,0,0,0-.729-.365.829.829,0,0,0-.721.363A1.972,1.972,0,0,0,44.851,8.671ZM46.077,4.25h1.384L46.244,5.612H45.211Zm3.959,2,.04.549a1.66,1.66,0,0,1,1.367-.637,1.38,1.38,0,0,1,1.125.444,2.071,2.071,0,0,1,.378,1.327V11h-1.27V7.959a.824.824,0,0,0-.176-.587.787.787,0,0,0-.584-.182.874.874,0,0,0-.8.457V11h-1.27V6.245Z" transform="translate(834.915 8400.167)"/>
    <path id="Trazado_996516" data-name="Trazado 996516" d="M1.414-.613h2.7V0H.66V-5.687h.754ZM5.637,0H4.91V-4.227h.727Zm.008-6H6.52L5.473-4.848H4.891Zm1.867,1.77.023.531A1.54,1.54,0,0,1,8.8-4.3q1.34,0,1.352,1.512V0H9.43V-2.8a.973.973,0,0,0-.209-.676.837.837,0,0,0-.639-.219,1.043,1.043,0,0,0-.617.188,1.273,1.273,0,0,0-.414.492V0H6.828V-4.227ZM13,.078a1.847,1.847,0,0,1-1.4-.564A2.1,2.1,0,0,1,11.059-2v-.133a2.536,2.536,0,0,1,.24-1.123,1.874,1.874,0,0,1,.672-.773,1.689,1.689,0,0,1,.936-.279,1.583,1.583,0,0,1,1.281.543,2.351,2.351,0,0,1,.457,1.555v.3H11.781A1.5,1.5,0,0,0,12.146-.9a1.148,1.148,0,0,0,.889.385,1.259,1.259,0,0,0,.648-.156,1.629,1.629,0,0,0,.465-.414l.441.344A1.775,1.775,0,0,1,13,.078Zm-.09-3.789a.964.964,0,0,0-.734.318A1.547,1.547,0,0,0,11.8-2.5h2.117v-.055a1.376,1.376,0,0,0-.3-.854A.908.908,0,0,0,12.906-3.711ZM18.09,0a1.518,1.518,0,0,1-.1-.445,1.612,1.612,0,0,1-1.2.523A1.492,1.492,0,0,1,15.76-.275a1.144,1.144,0,0,1-.4-.9,1.2,1.2,0,0,1,.5-1.025,2.367,2.367,0,0,1,1.412-.365h.7v-.332a.812.812,0,0,0-.227-.6.911.911,0,0,0-.668-.225,1.054,1.054,0,0,0-.648.2.576.576,0,0,0-.262.473h-.727a1,1,0,0,1,.225-.611,1.533,1.533,0,0,1,.609-.467,2.05,2.05,0,0,1,.846-.172,1.671,1.671,0,0,1,1.145.365,1.318,1.318,0,0,1,.43,1.006V-.988a2.378,2.378,0,0,0,.148.926V0Zm-1.2-.551a1.27,1.27,0,0,0,.645-.176,1.063,1.063,0,0,0,.441-.457v-.867H17.41q-1.328,0-1.328.777a.658.658,0,0,0,.227.531A.871.871,0,0,0,16.891-.551Zm4.75-1.6A2.484,2.484,0,0,1,22.1-3.721,1.462,1.462,0,0,1,23.309-4.3a1.454,1.454,0,0,1,1.207.547l.035-.469h.66V-.1a1.719,1.719,0,0,1-.486,1.293,1.8,1.8,0,0,1-1.307.473,2.174,2.174,0,0,1-.895-.2,1.54,1.54,0,0,1-.668-.535L22.23.5a1.413,1.413,0,0,0,1.137.574,1.107,1.107,0,0,0,.822-.3,1.135,1.135,0,0,0,.295-.836V-.422a1.485,1.485,0,0,1-1.184.5,1.444,1.444,0,0,1-1.2-.6A2.612,2.612,0,0,1,21.641-2.148Zm.727.082A1.9,1.9,0,0,0,22.66-.943a.952.952,0,0,0,.82.408,1.059,1.059,0,0,0,1-.621v-1.93a1.071,1.071,0,0,0-1-.605.96.96,0,0,0-.824.41A2.064,2.064,0,0,0,22.367-2.066ZM28.91-.418a1.535,1.535,0,0,1-1.238.5,1.314,1.314,0,0,1-1.029-.393,1.7,1.7,0,0,1-.357-1.162v-2.75h.723V-1.5q0,.961.781.961a1.082,1.082,0,0,0,1.1-.617V-4.227h.723V0h-.687ZM31.5,0H30.77V-4.227H31.5ZM31.5-6h.875L31.332-4.848H30.75ZM35.3,0a1.518,1.518,0,0,1-.1-.445,1.612,1.612,0,0,1-1.2.523,1.492,1.492,0,0,1-1.025-.354,1.144,1.144,0,0,1-.4-.9,1.2,1.2,0,0,1,.5-1.025,2.367,2.367,0,0,1,1.412-.365h.7v-.332a.812.812,0,0,0-.227-.6.911.911,0,0,0-.668-.225,1.054,1.054,0,0,0-.648.2.576.576,0,0,0-.262.473h-.727a1,1,0,0,1,.225-.611,1.533,1.533,0,0,1,.609-.467,2.05,2.05,0,0,1,.846-.172,1.671,1.671,0,0,1,1.145.365,1.318,1.318,0,0,1,.43,1.006V-.988a2.378,2.378,0,0,0,.148.926V0ZM34.1-.551a1.27,1.27,0,0,0,.645-.176,1.063,1.063,0,0,0,.441-.457v-.867h-.566q-1.328,0-1.328.777a.658.658,0,0,0,.227.531A.871.871,0,0,0,34.1-.551Z" transform="translate(737.493 8516.66)"/>
    <path id="Trazado_996517" data-name="Trazado 996517" d="M1.414-.613h2.7V0H.66V-5.687h.754ZM5.637,0H4.91V-4.227h.727Zm.008-6H6.52L5.473-4.848H4.891Zm1.867,1.77.023.531A1.54,1.54,0,0,1,8.8-4.3q1.34,0,1.352,1.512V0H9.43V-2.8a.973.973,0,0,0-.209-.676.837.837,0,0,0-.639-.219,1.043,1.043,0,0,0-.617.188,1.273,1.273,0,0,0-.414.492V0H6.828V-4.227ZM13,.078a1.847,1.847,0,0,1-1.4-.564A2.1,2.1,0,0,1,11.059-2v-.133a2.536,2.536,0,0,1,.24-1.123,1.874,1.874,0,0,1,.672-.773,1.689,1.689,0,0,1,.936-.279,1.583,1.583,0,0,1,1.281.543,2.351,2.351,0,0,1,.457,1.555v.3H11.781A1.5,1.5,0,0,0,12.146-.9a1.148,1.148,0,0,0,.889.385,1.259,1.259,0,0,0,.648-.156,1.629,1.629,0,0,0,.465-.414l.441.344A1.775,1.775,0,0,1,13,.078Zm-.09-3.789a.964.964,0,0,0-.734.318A1.547,1.547,0,0,0,11.8-2.5h2.117v-.055a1.376,1.376,0,0,0-.3-.854A.908.908,0,0,0,12.906-3.711ZM18.09,0a1.518,1.518,0,0,1-.1-.445,1.612,1.612,0,0,1-1.2.523A1.492,1.492,0,0,1,15.76-.275a1.144,1.144,0,0,1-.4-.9,1.2,1.2,0,0,1,.5-1.025,2.367,2.367,0,0,1,1.412-.365h.7v-.332a.812.812,0,0,0-.227-.6.911.911,0,0,0-.668-.225,1.054,1.054,0,0,0-.648.2.576.576,0,0,0-.262.473h-.727a1,1,0,0,1,.225-.611,1.533,1.533,0,0,1,.609-.467,2.05,2.05,0,0,1,.846-.172,1.671,1.671,0,0,1,1.145.365,1.318,1.318,0,0,1,.43,1.006V-.988a2.378,2.378,0,0,0,.148.926V0Zm-1.2-.551a1.27,1.27,0,0,0,.645-.176,1.063,1.063,0,0,0,.441-.457v-.867H17.41q-1.328,0-1.328.777a.658.658,0,0,0,.227.531A.871.871,0,0,0,16.891-.551Zm5.9-4.7v1.023h.789v.559h-.789v2.621a.585.585,0,0,0,.105.381.444.444,0,0,0,.359.127A1.75,1.75,0,0,0,23.6-.586V0a2.1,2.1,0,0,1-.555.078.9.9,0,0,1-.73-.293,1.259,1.259,0,0,1-.246-.832V-3.668H21.3v-.559h.77V-5.25Zm1.369,3.1a2.5,2.5,0,0,1,.244-1.117,1.821,1.821,0,0,1,.68-.766,1.85,1.85,0,0,1,.994-.27,1.782,1.782,0,0,1,1.4.6,2.3,2.3,0,0,1,.533,1.59v.051a2.518,2.518,0,0,1-.236,1.107A1.794,1.794,0,0,1,27.1-.2a1.871,1.871,0,0,1-1.01.273A1.778,1.778,0,0,1,24.7-.52,2.288,2.288,0,0,1,24.162-2.1Zm.727.086a1.808,1.808,0,0,0,.326,1.129,1.044,1.044,0,0,0,.873.426,1.038,1.038,0,0,0,.875-.432,1.977,1.977,0,0,0,.324-1.209,1.805,1.805,0,0,0-.33-1.127,1.049,1.049,0,0,0-.877-.432,1.038,1.038,0,0,0-.863.426A1.963,1.963,0,0,0,24.889-2.066ZM26.408-6h.875L26.237-4.852h-.582Zm4.551,2.422a2.166,2.166,0,0,0-.355-.027A.952.952,0,0,0,29.639-3V0h-.723V-4.227h.7l.012.488A1.125,1.125,0,0,1,30.639-4.3a.738.738,0,0,1,.32.055ZM33.924,0a1.518,1.518,0,0,1-.1-.445,1.612,1.612,0,0,1-1.2.523,1.492,1.492,0,0,1-1.025-.354,1.144,1.144,0,0,1-.4-.9A1.2,1.2,0,0,1,31.7-2.2a2.367,2.367,0,0,1,1.412-.365h.7v-.332a.812.812,0,0,0-.227-.6.911.911,0,0,0-.668-.225,1.054,1.054,0,0,0-.648.2.576.576,0,0,0-.262.473H31.28a1,1,0,0,1,.225-.611,1.533,1.533,0,0,1,.609-.467A2.05,2.05,0,0,1,32.96-4.3a1.671,1.671,0,0,1,1.145.365,1.318,1.318,0,0,1,.43,1.006V-.988a2.378,2.378,0,0,0,.148.926V0Zm-1.2-.551a1.27,1.27,0,0,0,.645-.176,1.063,1.063,0,0,0,.441-.457v-.867h-.566q-1.328,0-1.328.777a.658.658,0,0,0,.227.531A.871.871,0,0,0,32.725-.551Zm4.359-2.133.938-1.543h.844l-1.383,2.09L38.909,0h-.836L37.1-1.582,36.12,0h-.84l1.426-2.137-1.383-2.09h.836Z" transform="translate(756.549 8567.798)"/>
    <path id="Trazado_996518" data-name="Trazado 996518" d="M1.414-.613h2.7V0H.66V-5.687h.754ZM5.637,0H4.91V-4.227h.727Zm.008-6H6.52L5.473-4.848H4.891Zm1.867,1.77.023.531A1.54,1.54,0,0,1,8.8-4.3q1.34,0,1.352,1.512V0H9.43V-2.8a.973.973,0,0,0-.209-.676.837.837,0,0,0-.639-.219,1.043,1.043,0,0,0-.617.188,1.273,1.273,0,0,0-.414.492V0H6.828V-4.227ZM13,.078a1.847,1.847,0,0,1-1.4-.564A2.1,2.1,0,0,1,11.059-2v-.133a2.536,2.536,0,0,1,.24-1.123,1.874,1.874,0,0,1,.672-.773,1.689,1.689,0,0,1,.936-.279,1.583,1.583,0,0,1,1.281.543,2.351,2.351,0,0,1,.457,1.555v.3H11.781A1.5,1.5,0,0,0,12.146-.9a1.148,1.148,0,0,0,.889.385,1.259,1.259,0,0,0,.648-.156,1.629,1.629,0,0,0,.465-.414l.441.344A1.775,1.775,0,0,1,13,.078Zm-.09-3.789a.964.964,0,0,0-.734.318A1.547,1.547,0,0,0,11.8-2.5h2.117v-.055a1.376,1.376,0,0,0-.3-.854A.908.908,0,0,0,12.906-3.711ZM18.09,0a1.518,1.518,0,0,1-.1-.445,1.612,1.612,0,0,1-1.2.523A1.492,1.492,0,0,1,15.76-.275a1.144,1.144,0,0,1-.4-.9,1.2,1.2,0,0,1,.5-1.025,2.367,2.367,0,0,1,1.412-.365h.7v-.332a.812.812,0,0,0-.227-.6.911.911,0,0,0-.668-.225,1.054,1.054,0,0,0-.648.2.576.576,0,0,0-.262.473h-.727a1,1,0,0,1,.225-.611,1.533,1.533,0,0,1,.609-.467,2.05,2.05,0,0,1,.846-.172,1.671,1.671,0,0,1,1.145.365,1.318,1.318,0,0,1,.43,1.006V-.988a2.378,2.378,0,0,0,.148.926V0Zm-1.2-.551a1.27,1.27,0,0,0,.645-.176,1.063,1.063,0,0,0,.441-.457v-.867H17.41q-1.328,0-1.328.777a.658.658,0,0,0,.227.531A.871.871,0,0,0,16.891-.551Zm8.5-1.516A2.513,2.513,0,0,1,24.945-.51a1.423,1.423,0,0,1-1.2.588,1.473,1.473,0,0,1-1.238-.566L22.477,0h-.664V-6h.723v2.238A1.465,1.465,0,0,1,23.742-4.3a1.432,1.432,0,0,1,1.209.582,2.589,2.589,0,0,1,.439,1.594Zm-.723-.082a1.953,1.953,0,0,0-.285-1.141.944.944,0,0,0-.82-.4,1.061,1.061,0,0,0-1.027.664V-1.2a1.091,1.091,0,0,0,1.035.664.939.939,0,0,0,.809-.4A2.077,2.077,0,0,0,24.668-2.148ZM28.91-.418a1.535,1.535,0,0,1-1.238.5,1.314,1.314,0,0,1-1.029-.393,1.7,1.7,0,0,1-.357-1.162v-2.75h.723V-1.5q0,.961.781.961a1.082,1.082,0,0,0,1.1-.617V-4.227h.723V0h-.687Zm4.262-.7a.532.532,0,0,0-.221-.455,2.124,2.124,0,0,0-.77-.279,3.638,3.638,0,0,1-.871-.281,1.239,1.239,0,0,1-.477-.391.934.934,0,0,1-.154-.539,1.1,1.1,0,0,1,.439-.879A1.716,1.716,0,0,1,32.242-4.3a1.766,1.766,0,0,1,1.166.371,1.179,1.179,0,0,1,.447.949h-.727a.652.652,0,0,0-.252-.512.944.944,0,0,0-.635-.215.988.988,0,0,0-.617.172.541.541,0,0,0-.223.449.438.438,0,0,0,.207.395,2.547,2.547,0,0,0,.748.254,3.9,3.9,0,0,1,.877.289,1.279,1.279,0,0,1,.5.4.994.994,0,0,1,.162.576,1.082,1.082,0,0,1-.453.908,1.9,1.9,0,0,1-1.176.342,2.128,2.128,0,0,1-.9-.18,1.461,1.461,0,0,1-.611-.5,1.21,1.21,0,0,1-.221-.7h.723a.748.748,0,0,0,.291.576,1.129,1.129,0,0,0,.717.213,1.165,1.165,0,0,0,.658-.166A.51.51,0,0,0,33.172-1.121ZM35.816-5.25v1.023h.789v.559h-.789v2.621a.585.585,0,0,0,.105.381.444.444,0,0,0,.359.127,1.75,1.75,0,0,0,.344-.047V0a2.1,2.1,0,0,1-.555.078.9.9,0,0,1-.73-.293,1.259,1.259,0,0,1-.246-.832V-3.668h-.77v-.559h.77V-5.25Zm1.283,3.1a2.5,2.5,0,0,1,.244-1.117,1.821,1.821,0,0,1,.68-.766,1.85,1.85,0,0,1,.994-.27,1.782,1.782,0,0,1,1.4.6,2.3,2.3,0,0,1,.533,1.59v.051a2.518,2.518,0,0,1-.236,1.107,1.794,1.794,0,0,1-.676.764,1.871,1.871,0,0,1-1.01.273,1.778,1.778,0,0,1-1.393-.6A2.288,2.288,0,0,1,37.1-2.1Zm.727.086a1.808,1.808,0,0,0,.326,1.129,1.044,1.044,0,0,0,.873.426A1.038,1.038,0,0,0,39.9-.943a1.977,1.977,0,0,0,.324-1.209,1.805,1.805,0,0,0-.33-1.127,1.049,1.049,0,0,0-.877-.432,1.038,1.038,0,0,0-.863.426A1.963,1.963,0,0,0,37.826-2.066Z" transform="translate(756.549 8607.751)"/>
    <path id="Trazado_996519" data-name="Trazado 996519" d="M1.414-.613h2.7V0H.66V-5.687h.754ZM5.637,0H4.91V-4.227h.727Zm.008-6H6.52L5.473-4.848H4.891Zm1.867,1.77.023.531A1.54,1.54,0,0,1,8.8-4.3q1.34,0,1.352,1.512V0H9.43V-2.8a.973.973,0,0,0-.209-.676.837.837,0,0,0-.639-.219,1.043,1.043,0,0,0-.617.188,1.273,1.273,0,0,0-.414.492V0H6.828V-4.227ZM13,.078a1.847,1.847,0,0,1-1.4-.564A2.1,2.1,0,0,1,11.059-2v-.133a2.536,2.536,0,0,1,.24-1.123,1.874,1.874,0,0,1,.672-.773,1.689,1.689,0,0,1,.936-.279,1.583,1.583,0,0,1,1.281.543,2.351,2.351,0,0,1,.457,1.555v.3H11.781A1.5,1.5,0,0,0,12.146-.9a1.148,1.148,0,0,0,.889.385,1.259,1.259,0,0,0,.648-.156,1.629,1.629,0,0,0,.465-.414l.441.344A1.775,1.775,0,0,1,13,.078Zm-.09-3.789a.964.964,0,0,0-.734.318A1.547,1.547,0,0,0,11.8-2.5h2.117v-.055a1.376,1.376,0,0,0-.3-.854A.908.908,0,0,0,12.906-3.711ZM18.09,0a1.518,1.518,0,0,1-.1-.445,1.612,1.612,0,0,1-1.2.523A1.492,1.492,0,0,1,15.76-.275a1.144,1.144,0,0,1-.4-.9,1.2,1.2,0,0,1,.5-1.025,2.367,2.367,0,0,1,1.412-.365h.7v-.332a.812.812,0,0,0-.227-.6.911.911,0,0,0-.668-.225,1.054,1.054,0,0,0-.648.2.576.576,0,0,0-.262.473h-.727a1,1,0,0,1,.225-.611,1.533,1.533,0,0,1,.609-.467,2.05,2.05,0,0,1,.846-.172,1.671,1.671,0,0,1,1.145.365,1.318,1.318,0,0,1,.43,1.006V-.988a2.378,2.378,0,0,0,.148.926V0Zm-1.2-.551a1.27,1.27,0,0,0,.645-.176,1.063,1.063,0,0,0,.441-.457v-.867H17.41q-1.328,0-1.328.777a.658.658,0,0,0,.227.531A.871.871,0,0,0,16.891-.551Zm6.617.039a1.041,1.041,0,0,0,.676-.234.825.825,0,0,0,.32-.586h.684a1.31,1.31,0,0,1-.25.691,1.647,1.647,0,0,1-.615.523,1.775,1.775,0,0,1-.814.2A1.741,1.741,0,0,1,22.135-.5a2.3,2.3,0,0,1-.51-1.576V-2.2a2.545,2.545,0,0,1,.227-1.1,1.726,1.726,0,0,1,.65-.746,1.848,1.848,0,0,1,1-.266,1.7,1.7,0,0,1,1.182.426,1.522,1.522,0,0,1,.5,1.105H24.5a1,1,0,0,0-.311-.674.966.966,0,0,0-.689-.264,1.011,1.011,0,0,0-.854.4,1.862,1.862,0,0,0-.3,1.146v.137a1.825,1.825,0,0,0,.3,1.125A1.016,1.016,0,0,0,23.508-.512ZM26.785,0h-.723V-4.227h.723ZM26-5.348a.431.431,0,0,1,.107-.3.4.4,0,0,1,.318-.121.41.41,0,0,1,.32.121.427.427,0,0,1,.109.3.413.413,0,0,1-.109.293.417.417,0,0,1-.32.117.411.411,0,0,1-.318-.117A.417.417,0,0,1,26-5.348Zm2.621,1.121.023.531A1.54,1.54,0,0,1,29.914-4.3q1.34,0,1.352,1.512V0h-.723V-2.8a.973.973,0,0,0-.209-.676.837.837,0,0,0-.639-.219,1.043,1.043,0,0,0-.617.188,1.273,1.273,0,0,0-.414.492V0h-.723V-4.227ZM33.336-5.25v1.023h.789v.559h-.789v2.621a.585.585,0,0,0,.105.381.444.444,0,0,0,.359.127,1.75,1.75,0,0,0,.344-.047V0a2.1,2.1,0,0,1-.555.078.9.9,0,0,1-.73-.293,1.259,1.259,0,0,1-.246-.832V-3.668h-.77v-.559h.77V-5.25ZM37.578-.418a1.535,1.535,0,0,1-1.238.5,1.314,1.314,0,0,1-1.029-.393,1.7,1.7,0,0,1-.357-1.162v-2.75h.723V-1.5q0,.961.781.961a1.082,1.082,0,0,0,1.1-.617V-4.227h.723V0h-.687Zm3.844-3.16a2.166,2.166,0,0,0-.355-.027A.952.952,0,0,0,40.1-3V0h-.723V-4.227h.7l.012.488A1.125,1.125,0,0,1,41.1-4.3a.738.738,0,0,1,.32.055ZM44.387,0a1.518,1.518,0,0,1-.1-.445,1.612,1.612,0,0,1-1.2.523,1.492,1.492,0,0,1-1.025-.354,1.144,1.144,0,0,1-.4-.9,1.2,1.2,0,0,1,.5-1.025,2.367,2.367,0,0,1,1.412-.365h.7v-.332a.812.812,0,0,0-.227-.6.911.911,0,0,0-.668-.225,1.054,1.054,0,0,0-.648.2.576.576,0,0,0-.262.473h-.727a1,1,0,0,1,.225-.611,1.533,1.533,0,0,1,.609-.467,2.05,2.05,0,0,1,.846-.172,1.671,1.671,0,0,1,1.145.365A1.318,1.318,0,0,1,45-2.934V-.988a2.378,2.378,0,0,0,.148.926V0Zm-1.2-.551a1.27,1.27,0,0,0,.645-.176,1.063,1.063,0,0,0,.441-.457v-.867h-.566q-1.328,0-1.328.777a.658.658,0,0,0,.227.531A.871.871,0,0,0,43.188-.551Z" transform="translate(804.498 8705.859)"/>
    <path id="Trazado_996520" data-name="Trazado 996520" d="M5.594-2.131A2.264,2.264,0,0,1,4.832-.505,2.678,2.678,0,0,1,3.019.088,2.408,2.408,0,0,1,1.083-.74,3.4,3.4,0,0,1,.378-3.015v-.391A3.836,3.836,0,0,1,.7-5.032a2.437,2.437,0,0,1,.929-1.079,2.6,2.6,0,0,1,1.4-.376,2.609,2.609,0,0,1,1.784.593A2.433,2.433,0,0,1,5.6-4.228H4.285a1.336,1.336,0,0,0-.345-.9,1.277,1.277,0,0,0-.9-.279,1.12,1.12,0,0,0-.987.472,2.648,2.648,0,0,0-.336,1.466v.483a2.834,2.834,0,0,0,.314,1.516,1.1,1.1,0,0,0,.991.479,1.3,1.3,0,0,0,.912-.279,1.26,1.26,0,0,0,.345-.864ZM8.565.088a2.334,2.334,0,0,1-1.7-.642,2.281,2.281,0,0,1-.657-1.709v-.123a2.872,2.872,0,0,1,.277-1.281,2.032,2.032,0,0,1,.784-.87,2.2,2.2,0,0,1,1.158-.305,1.973,1.973,0,0,1,1.536.615,2.5,2.5,0,0,1,.56,1.745v.519H7.493a1.18,1.18,0,0,0,.371.747,1.123,1.123,0,0,0,.784.281A1.371,1.371,0,0,0,9.8-1.468l.624.7a1.907,1.907,0,0,1-.773.631A2.538,2.538,0,0,1,8.565.088Zm-.145-3.9a.8.8,0,0,0-.613.255,1.317,1.317,0,0,0-.3.729H9.272v-.1a.939.939,0,0,0-.229-.653A.821.821,0,0,0,8.42-3.814Zm3.99-.94.04.549a1.66,1.66,0,0,1,1.367-.637,1.38,1.38,0,0,1,1.125.444,2.071,2.071,0,0,1,.378,1.327V0h-1.27V-3.041a.824.824,0,0,0-.176-.587.787.787,0,0,0-.584-.182.874.874,0,0,0-.8.457V0h-1.27V-4.755ZM17.8-5.924v1.169h.813v.932H17.8V-1.45a.567.567,0,0,0,.1.378.508.508,0,0,0,.387.114,2.025,2.025,0,0,0,.374-.031v.962a2.615,2.615,0,0,1-.769.114,1.213,1.213,0,0,1-1.362-1.349V-3.823h-.694v-.932h.694V-5.924Zm4.192,2.36a3.45,3.45,0,0,0-.457-.035.93.93,0,0,0-.945.488V0h-1.27V-4.755h1.2l.035.567a1.177,1.177,0,0,1,1.059-.655,1.331,1.331,0,0,1,.4.057Zm.1,1.143a2.82,2.82,0,0,1,.272-1.261,2,2,0,0,1,.784-.857,2.289,2.289,0,0,1,1.189-.3,2.165,2.165,0,0,1,1.571.589,2.363,2.363,0,0,1,.679,1.6l.009.325A2.485,2.485,0,0,1,25.99-.573a2.123,2.123,0,0,1-1.639.661A2.134,2.134,0,0,1,22.71-.571,2.529,2.529,0,0,1,22.1-2.364Zm1.27.092a1.773,1.773,0,0,0,.255,1.035.841.841,0,0,0,.729.358.843.843,0,0,0,.721-.354,1.94,1.94,0,0,0,.259-1.132,1.755,1.755,0,0,0-.259-1.028.843.843,0,0,0-.729-.365.829.829,0,0,0-.721.363A1.972,1.972,0,0,0,23.367-2.329Zm6.06-.083a2.865,2.865,0,0,1,.5-1.771,1.618,1.618,0,0,1,1.365-.659,1.456,1.456,0,0,1,1.147.519V-6.75h1.274V0H32.564L32.5-.505a1.5,1.5,0,0,1-1.222.593,1.614,1.614,0,0,1-1.347-.661A2.958,2.958,0,0,1,29.427-2.413Zm1.27.092A1.872,1.872,0,0,0,30.93-1.3a.759.759,0,0,0,.677.356.85.85,0,0,0,.831-.5V-3.313a.838.838,0,0,0-.822-.5Q30.7-3.81,30.7-2.32ZM36.884.088a2.334,2.334,0,0,1-1.7-.642,2.281,2.281,0,0,1-.657-1.709v-.123A2.872,2.872,0,0,1,34.8-3.667a2.032,2.032,0,0,1,.784-.87,2.2,2.2,0,0,1,1.158-.305,1.973,1.973,0,0,1,1.536.615,2.5,2.5,0,0,1,.56,1.745v.519H35.812a1.18,1.18,0,0,0,.371.747,1.123,1.123,0,0,0,.784.281,1.371,1.371,0,0,0,1.147-.532l.624.7a1.907,1.907,0,0,1-.773.631A2.538,2.538,0,0,1,36.884.088Zm-.145-3.9a.8.8,0,0,0-.613.255,1.317,1.317,0,0,0-.3.729h1.767v-.1a.939.939,0,0,0-.229-.653A.821.821,0,0,0,36.739-3.814ZM40.9,0H39.626V-6.75H40.9Zm3.8,0a1.41,1.41,0,0,1-.127-.426,1.537,1.537,0,0,1-1.2.514,1.688,1.688,0,0,1-1.158-.4,1.3,1.3,0,0,1-.459-1.02,1.344,1.344,0,0,1,.56-1.16A2.765,2.765,0,0,1,43.937-2.9h.584v-.272a.784.784,0,0,0-.169-.527.666.666,0,0,0-.534-.2.757.757,0,0,0-.5.154.523.523,0,0,0-.182.422h-1.27a1.276,1.276,0,0,1,.255-.765,1.685,1.685,0,0,1,.721-.552,2.627,2.627,0,0,1,1.046-.2,2.075,2.075,0,0,1,1.4.442A1.545,1.545,0,0,1,45.8-3.16V-1.1a2.273,2.273,0,0,0,.189,1.024V0Zm-1.05-.883a1.094,1.094,0,0,0,.519-.125.823.823,0,0,0,.352-.336v-.817h-.475q-.954,0-1.015.659l0,.075a.508.508,0,0,0,.167.391A.649.649,0,0,0,43.652-.883Zm4.289-3.872.04.549a1.66,1.66,0,0,1,1.367-.637,1.38,1.38,0,0,1,1.125.444,2.071,2.071,0,0,1,.378,1.327V0H49.58V-3.041a.824.824,0,0,0-.176-.587.787.787,0,0,0-.584-.182.874.874,0,0,0-.8.457V0h-1.27V-4.755Zm5.392-1.169v1.169h.813v.932h-.813V-1.45a.567.567,0,0,0,.1.378.508.508,0,0,0,.387.114,2.025,2.025,0,0,0,.374-.031v.962a2.615,2.615,0,0,1-.769.114,1.213,1.213,0,0,1-1.362-1.349V-3.823h-.694v-.932h.694V-5.924ZM57.042.088a2.334,2.334,0,0,1-1.7-.642,2.281,2.281,0,0,1-.657-1.709v-.123a2.872,2.872,0,0,1,.277-1.281,2.032,2.032,0,0,1,.784-.87A2.2,2.2,0,0,1,56.9-4.843a1.973,1.973,0,0,1,1.536.615A2.5,2.5,0,0,1,59-2.483v.519H55.97a1.18,1.18,0,0,0,.371.747,1.123,1.123,0,0,0,.784.281,1.371,1.371,0,0,0,1.147-.532l.624.7a1.907,1.907,0,0,1-.773.631A2.538,2.538,0,0,1,57.042.088Zm-.145-3.9a.8.8,0,0,0-.613.255,1.317,1.317,0,0,0-.3.729h1.767v-.1a.939.939,0,0,0-.229-.653A.821.821,0,0,0,56.9-3.814Zm5.493.25a3.45,3.45,0,0,0-.457-.035.93.93,0,0,0-.945.488V0h-1.27V-4.755h1.2l.035.567a1.177,1.177,0,0,1,1.059-.655,1.331,1.331,0,0,1,.4.057Zm.1,1.143a2.82,2.82,0,0,1,.272-1.261,2,2,0,0,1,.784-.857,2.289,2.289,0,0,1,1.189-.3,2.165,2.165,0,0,1,1.571.589,2.363,2.363,0,0,1,.679,1.6L67-2.329a2.485,2.485,0,0,1-.611,1.756,2.123,2.123,0,0,1-1.639.661A2.134,2.134,0,0,1,63.1-.571a2.529,2.529,0,0,1-.613-1.793Zm1.27.092a1.773,1.773,0,0,0,.255,1.035.841.841,0,0,0,.729.358.843.843,0,0,0,.721-.354,1.94,1.94,0,0,0,.259-1.132,1.755,1.755,0,0,0-.259-1.028.843.843,0,0,0-.729-.365.829.829,0,0,0-.721.363A1.972,1.972,0,0,0,63.762-2.329Z" transform="translate(738.23 8701.569) rotate(-90)"/>
    <path id="Trazado_996521" data-name="Trazado 996521" d="M4.844-1.8A2.092,2.092,0,0,1,4.178-.412a2.183,2.183,0,0,1-1.49.49A2,2,0,0,1,1.072-.645,2.907,2.907,0,0,1,.465-2.578v-.547A3.241,3.241,0,0,1,.748-4.52a2.115,2.115,0,0,1,.8-.924,2.235,2.235,0,0,1,1.2-.322,2.055,2.055,0,0,1,1.453.506,2.118,2.118,0,0,1,.637,1.4H4.09a1.627,1.627,0,0,0-.424-.984,1.285,1.285,0,0,0-.912-.3,1.342,1.342,0,0,0-1.127.531,2.437,2.437,0,0,0-.408,1.512v.551a2.505,2.505,0,0,0,.387,1.473,1.25,1.25,0,0,0,1.082.547,1.443,1.443,0,0,0,.959-.283A1.572,1.572,0,0,0,4.09-1.8Zm.719-.348A2.5,2.5,0,0,1,5.807-3.27a1.821,1.821,0,0,1,.68-.766A1.85,1.85,0,0,1,7.48-4.3a1.782,1.782,0,0,1,1.4.6,2.3,2.3,0,0,1,.533,1.59v.051A2.518,2.518,0,0,1,9.174-.959,1.794,1.794,0,0,1,8.5-.2a1.871,1.871,0,0,1-1.01.273A1.778,1.778,0,0,1,6.1-.52,2.288,2.288,0,0,1,5.563-2.1Zm.727.086A1.808,1.808,0,0,0,6.615-.937a1.044,1.044,0,0,0,.873.426,1.038,1.038,0,0,0,.875-.432,1.977,1.977,0,0,0,.324-1.209,1.805,1.805,0,0,0-.33-1.127,1.049,1.049,0,0,0-.877-.432,1.038,1.038,0,0,0-.863.426A1.963,1.963,0,0,0,6.289-2.066Zm6.488.945a.532.532,0,0,0-.221-.455,2.124,2.124,0,0,0-.77-.279,3.638,3.638,0,0,1-.871-.281,1.239,1.239,0,0,1-.477-.391.934.934,0,0,1-.154-.539,1.1,1.1,0,0,1,.439-.879A1.716,1.716,0,0,1,11.848-4.3a1.766,1.766,0,0,1,1.166.371,1.179,1.179,0,0,1,.447.949h-.727a.652.652,0,0,0-.252-.512.944.944,0,0,0-.635-.215.988.988,0,0,0-.617.172.541.541,0,0,0-.223.449.438.438,0,0,0,.207.395,2.547,2.547,0,0,0,.748.254,3.9,3.9,0,0,1,.877.289,1.279,1.279,0,0,1,.5.4.994.994,0,0,1,.162.576,1.082,1.082,0,0,1-.453.908,1.9,1.9,0,0,1-1.176.342,2.128,2.128,0,0,1-.9-.18,1.461,1.461,0,0,1-.611-.5,1.21,1.21,0,0,1-.221-.7h.723a.748.748,0,0,0,.291.576,1.129,1.129,0,0,0,.717.213,1.165,1.165,0,0,0,.658-.166A.51.51,0,0,0,12.777-1.121ZM15.422-5.25v1.023h.789v.559h-.789v2.621a.585.585,0,0,0,.105.381.444.444,0,0,0,.359.127,1.75,1.75,0,0,0,.344-.047V0a2.1,2.1,0,0,1-.555.078.9.9,0,0,1-.73-.293,1.259,1.259,0,0,1-.246-.832V-3.668h-.77v-.559h.77V-5.25ZM19.664,0a1.518,1.518,0,0,1-.1-.445,1.612,1.612,0,0,1-1.2.523,1.492,1.492,0,0,1-1.025-.354,1.144,1.144,0,0,1-.4-.9,1.2,1.2,0,0,1,.5-1.025,2.367,2.367,0,0,1,1.412-.365h.7v-.332a.812.812,0,0,0-.227-.6.911.911,0,0,0-.668-.225,1.054,1.054,0,0,0-.648.2.576.576,0,0,0-.262.473H17.02a1,1,0,0,1,.225-.611,1.533,1.533,0,0,1,.609-.467A2.05,2.05,0,0,1,18.7-4.3a1.671,1.671,0,0,1,1.145.365,1.318,1.318,0,0,1,.43,1.006V-.988a2.378,2.378,0,0,0,.148.926V0Zm-1.2-.551a1.27,1.27,0,0,0,.645-.176,1.063,1.063,0,0,0,.441-.457v-.867h-.566q-1.328,0-1.328.777a.658.658,0,0,0,.227.531A.871.871,0,0,0,18.465-.551Zm2.766-1.6a2.476,2.476,0,0,1,.461-1.564A1.458,1.458,0,0,1,22.9-4.3a1.466,1.466,0,0,1,1.176.508V-6H24.8V0h-.664L24.1-.453a1.472,1.472,0,0,1-1.207.531,1.444,1.444,0,0,1-1.2-.6,2.5,2.5,0,0,1-.463-1.57Zm.723.082a1.875,1.875,0,0,0,.3,1.125.96.96,0,0,0,.82.406,1.054,1.054,0,0,0,1-.617V-3.094a1.062,1.062,0,0,0-1-.6.964.964,0,0,0-.828.41A2.064,2.064,0,0,0,21.953-2.066Zm3.773-.086a2.5,2.5,0,0,1,.244-1.117,1.821,1.821,0,0,1,.68-.766,1.85,1.85,0,0,1,.994-.27,1.782,1.782,0,0,1,1.4.6,2.3,2.3,0,0,1,.533,1.59v.051a2.518,2.518,0,0,1-.236,1.107,1.794,1.794,0,0,1-.676.764,1.871,1.871,0,0,1-1.01.273,1.778,1.778,0,0,1-1.393-.6A2.288,2.288,0,0,1,25.727-2.1Zm.727.086a1.808,1.808,0,0,0,.326,1.129,1.044,1.044,0,0,0,.873.426,1.038,1.038,0,0,0,.875-.432,1.977,1.977,0,0,0,.324-1.209,1.805,1.805,0,0,0-.33-1.127,1.049,1.049,0,0,0-.877-.432,1.038,1.038,0,0,0-.863.426A1.963,1.963,0,0,0,26.453-2.066Z" transform="translate(882.148 8706.313) rotate(-90)"/>
    <path id="Trazado_996522" data-name="Trazado 996522" d="M2.625,0H.3V-.325l1.23-1.367A2.923,2.923,0,0,0,1.9-2.2a.841.841,0,0,0,.1-.4.638.638,0,0,0-.168-.457.589.589,0,0,0-.449-.178.7.7,0,0,0-.524.192.732.732,0,0,0-.187.533H.227A1.048,1.048,0,0,1,.543-3.3a1.172,1.172,0,0,1,.846-.3,1.126,1.126,0,0,1,.784.26.887.887,0,0,1,.288.692A2.033,2.033,0,0,1,1.792-1.4L.84-.369H2.625Zm.51.708L2.878.532a1.178,1.178,0,0,0,.239-.659V-.535H3.56v.354a1.112,1.112,0,0,1-.121.493A1.155,1.155,0,0,1,3.135.708Zm1.157-2.49.181-1.772H6.294v.417H4.856l-.107.969a1.147,1.147,0,0,1,.593-.154A.981.981,0,0,1,6.113-2a1.258,1.258,0,0,1,.286.868,1.214,1.214,0,0,1-.3.865,1.081,1.081,0,0,1-.829.316A1.124,1.124,0,0,1,4.5-.212a1.043,1.043,0,0,1-.339-.723h.427a.717.717,0,0,0,.217.46.676.676,0,0,0,.464.155.609.609,0,0,0,.494-.215.9.9,0,0,0,.179-.593A.824.824,0,0,0,5.753-1.7a.66.66,0,0,0-.516-.216.745.745,0,0,0-.464.129l-.12.1Z" transform="translate(774.198 8474.966)"/>
    <path id="Trazado_996523" data-name="Trazado 996523" d="M2.2-1.194H2.7v.369H2.2V0H1.748V-.825H.129v-.266L1.721-3.555H2.2Zm-1.56,0H1.748V-2.937l-.054.1Z" transform="translate(773.672 8409.942)"/>
    <g id="Grupo_1177185" data-name="Grupo 1177185" transform="translate(711.711 8371)">
      <g id="Grupo_1177184" data-name="Grupo 1177184" clip-path="url(#clip-path)">
        <text id="_12" data-name="12" transform="translate(45.022 6.383)" font-size="7" font-family="Roboto-Bold, Roboto" font-weight="700"><tspan x="0" y="0">12</tspan></text>
      </g>
    </g>
    <path id="Trazado_996524" data-name="Trazado 996524" d="M2.649-1.989a1.247,1.247,0,0,1-.9.379A1.334,1.334,0,0,1,.69-2.063a1.79,1.79,0,0,1-.4-1.222,1.906,1.906,0,0,1,.214-.9,1.567,1.567,0,0,1,.6-.636,1.655,1.655,0,0,1,.861-.227A1.583,1.583,0,0,1,2.84-4.8a1.618,1.618,0,0,1,.595.708A2.54,2.54,0,0,1,3.65-3.035v.366A2.879,2.879,0,0,1,3.032-.714,2.339,2.339,0,0,1,1.278.044l-.243,0V-.776l.219,0A1.263,1.263,0,0,0,2.649-1.989Zm-.66-.376A.691.691,0,0,0,2.4-2.488a.822.822,0,0,0,.261-.3v-.407a1.358,1.358,0,0,0-.191-.779.594.594,0,0,0-.513-.277.577.577,0,0,0-.489.272,1.155,1.155,0,0,0-.191.682,1.124,1.124,0,0,0,.186.668A.607.607,0,0,0,1.989-2.365Z" transform="translate(761.281 8396.585)"/>
    <path id="Trazado_996525" data-name="Trazado 996525" d="M1.343-2.926H1.87a.742.742,0,0,0,.557-.188.689.689,0,0,0,.181-.5.609.609,0,0,0-.179-.468.7.7,0,0,0-.494-.167.729.729,0,0,0-.475.156.5.5,0,0,0-.191.405H.28a1.215,1.215,0,0,1,.21-.7,1.4,1.4,0,0,1,.588-.484,1.962,1.962,0,0,1,.832-.174,1.861,1.861,0,0,1,1.237.378A1.289,1.289,0,0,1,3.6-3.626,1.047,1.047,0,0,1,3.387-3a1.355,1.355,0,0,1-.547.441,1.237,1.237,0,0,1,.627.451,1.224,1.224,0,0,1,.207.711A1.31,1.31,0,0,1,3.191-.332a1.945,1.945,0,0,1-1.28.4A1.844,1.844,0,0,1,.692-.325,1.284,1.284,0,0,1,.219-1.364h.988a.572.572,0,0,0,.21.458.775.775,0,0,0,.518.178.778.778,0,0,0,.552-.186.643.643,0,0,0,.2-.494q0-.745-.82-.745H1.343Z" transform="translate(761.281 8437.458)"/>
    <path id="Trazado_996526" data-name="Trazado 996526" d="M4.211-4.977V-1.7A1.678,1.678,0,0,1,3.7-.407,1.97,1.97,0,0,1,2.3.068,1.992,1.992,0,0,1,.919-.393,1.65,1.65,0,0,1,.4-1.661V-4.977H1.422v3.285a.948.948,0,0,0,.234.713A.9.9,0,0,0,2.3-.755q.865,0,.878-.909V-4.977Z" transform="translate(760.948 8459.654)"/>
    <path id="Trazado_996527" data-name="Trazado 996527" d="M4.211-4.977V-1.7A1.678,1.678,0,0,1,3.7-.407,1.97,1.97,0,0,1,2.3.068,1.992,1.992,0,0,1,.919-.393,1.65,1.65,0,0,1,.4-1.661V-4.977H1.422v3.285a.948.948,0,0,0,.234.713A.9.9,0,0,0,2.3-.755q.865,0,.878-.909V-4.977ZM8.357,0H4.946V-.677l1.61-1.716a3.972,3.972,0,0,0,.49-.632,1.016,1.016,0,0,0,.159-.513.76.76,0,0,0-.167-.521.6.6,0,0,0-.479-.19.652.652,0,0,0-.528.231.914.914,0,0,0-.193.607H4.847a1.631,1.631,0,0,1,.217-.831,1.53,1.53,0,0,1,.614-.59,1.865,1.865,0,0,1,.9-.214,1.766,1.766,0,0,1,1.195.369A1.306,1.306,0,0,1,8.2-3.633,1.673,1.673,0,0,1,8-2.881a4.179,4.179,0,0,1-.656.892L6.217-.8h2.14Z" transform="translate(754.273 8479.813)"/>
    <path id="Trazado_996528" data-name="Trazado 996528" d="M1.531-.824H4.04V0H.25V-.6L2.71-4.146H.253v-.831H3.985v.588Z" transform="translate(857.415 8499.869)"/>
    <path id="Trazado_996529" data-name="Trazado 996529" d="M1.531-.824H4.04V0H.25V-.6L2.71-4.146H.253v-.831H3.985v.588ZM6.979,0H5.992V-3.808l-1.179.366v-.8l2.061-.738h.106Z" transform="translate(867.649 8483.785)"/>
    <path id="Trazado_996530" data-name="Trazado 996530" d="M4.525-2.375A3,3,0,0,1,4.3-1.164a2.08,2.08,0,0,1-.625.825L4.5.311,3.849.889,2.789.038a2.243,2.243,0,0,1-.376.031,2.07,2.07,0,0,1-1.1-.3,1.975,1.975,0,0,1-.752-.849,2.918,2.918,0,0,1-.27-1.27v-.246A2.988,2.988,0,0,1,.552-3.888,1.972,1.972,0,0,1,1.3-4.746a2.059,2.059,0,0,1,1.106-.3,2.059,2.059,0,0,1,1.106.3,1.972,1.972,0,0,1,.749.858A2.98,2.98,0,0,1,4.525-2.6ZM3.486-2.6a2.094,2.094,0,0,0-.28-1.189.913.913,0,0,0-.8-.407.914.914,0,0,0-.8.4,2.07,2.07,0,0,0-.284,1.177v.243a2.12,2.12,0,0,0,.28,1.183.911.911,0,0,0,.807.42.9.9,0,0,0,.793-.405,2.108,2.108,0,0,0,.28-1.181Zm2.69-.325H6.7a.742.742,0,0,0,.557-.188.689.689,0,0,0,.181-.5.609.609,0,0,0-.179-.468.7.7,0,0,0-.494-.167.729.729,0,0,0-.475.156.5.5,0,0,0-.191.405H5.113a1.215,1.215,0,0,1,.21-.7,1.4,1.4,0,0,1,.588-.484,1.962,1.962,0,0,1,.832-.174,1.861,1.861,0,0,1,1.237.378,1.289,1.289,0,0,1,.448,1.041A1.047,1.047,0,0,1,8.22-3a1.355,1.355,0,0,1-.547.441,1.237,1.237,0,0,1,.627.451,1.224,1.224,0,0,1,.207.711A1.31,1.31,0,0,1,8.024-.332a1.945,1.945,0,0,1-1.28.4A1.844,1.844,0,0,1,5.525-.325a1.284,1.284,0,0,1-.473-1.039H6.04a.572.572,0,0,0,.21.458.775.775,0,0,0,.518.178A.778.778,0,0,0,7.32-.914a.643.643,0,0,0,.2-.494q0-.745-.82-.745H6.176Z" transform="translate(834.941 8609.915)"/>
    <path id="Trazado_996531" data-name="Trazado 996531" d="M3.438-2.157H1.47V-.824H3.78V0H.444V-4.977H3.773v.831H1.47V-2.96H3.438Zm1.842-.769h.526a.742.742,0,0,0,.557-.188.689.689,0,0,0,.181-.5.609.609,0,0,0-.179-.468.7.7,0,0,0-.494-.167.729.729,0,0,0-.475.156.5.5,0,0,0-.191.405H4.218a1.215,1.215,0,0,1,.21-.7,1.4,1.4,0,0,1,.588-.484,1.962,1.962,0,0,1,.832-.174,1.861,1.861,0,0,1,1.237.378,1.289,1.289,0,0,1,.448,1.041A1.047,1.047,0,0,1,7.325-3a1.355,1.355,0,0,1-.547.441,1.237,1.237,0,0,1,.627.451,1.224,1.224,0,0,1,.207.711A1.31,1.31,0,0,1,7.128-.332a1.945,1.945,0,0,1-1.28.4A1.844,1.844,0,0,1,4.63-.325a1.284,1.284,0,0,1-.473-1.039h.988a.572.572,0,0,0,.21.458.775.775,0,0,0,.518.178.778.778,0,0,0,.552-.186.643.643,0,0,0,.2-.494q0-.745-.82-.745H5.281Z" transform="translate(848.505 8656.893)"/>
    <path id="Trazado_996532" data-name="Trazado 996532" d="M3.438-2.157H1.47V-.824H3.78V0H.444V-4.977H3.773v.831H1.47V-2.96H3.438Z" transform="translate(898.55 8713.691)"/>
    <path id="Trazado_996533" data-name="Trazado 996533" d="M.444,0V-4.977H2.188a2.289,2.289,0,0,1,1.374.347A1.186,1.186,0,0,1,4.03-3.613a1.124,1.124,0,0,1-.188.644,1.086,1.086,0,0,1-.523.408,1.051,1.051,0,0,1,.6.386,1.142,1.142,0,0,1,.22.711A1.313,1.313,0,0,1,3.685-.376,2.062,2.062,0,0,1,2.379,0ZM1.47-2.167V-.824h.878A.848.848,0,0,0,2.914-1a.592.592,0,0,0,.2-.477.625.625,0,0,0-.708-.694Zm0-.725h.759Q3-2.905,3-3.51A.572.572,0,0,0,2.808-4a1.034,1.034,0,0,0-.62-.149H1.47Z" transform="translate(714.931 8712.867)"/>
    <path id="Trazado_996534" data-name="Trazado 996534" d="M3.254-1.025h-1.8L1.114,0H.024L1.876-4.977h.95L4.689,0H3.6ZM1.733-1.856H2.977L2.352-3.719Z" transform="translate(714.796 8847.028)"/>
    <path id="Trazado_996535" data-name="Trazado 996535" d="M3.438-2.157H1.47V-.824H3.78V0H.444V-4.977H3.773v.831H1.47V-2.96H3.438Zm3.76.284h.564v.8H7.2V0H6.21V-1.077H4.17L4.125-1.7,6.2-4.977h1Zm-2.088,0h1.1V-3.63l-.065.113Z" transform="translate(862.188 8722.902)"/>
    <path id="Trazado_996536" data-name="Trazado 996536" d="M3.438-2.157H1.47V-.824H3.78V0H.444V-4.977H3.773v.831H1.47V-2.96H3.438ZM7.687,0H4.276V-.677l1.61-1.716a3.972,3.972,0,0,0,.49-.632,1.016,1.016,0,0,0,.159-.513.76.76,0,0,0-.167-.521.6.6,0,0,0-.479-.19.652.652,0,0,0-.528.231.914.914,0,0,0-.193.607H4.177a1.631,1.631,0,0,1,.217-.831,1.53,1.53,0,0,1,.614-.59,1.865,1.865,0,0,1,.9-.214A1.766,1.766,0,0,1,7.1-4.676a1.306,1.306,0,0,1,.426,1.042,1.673,1.673,0,0,1-.191.752,4.179,4.179,0,0,1-.656.892L5.547-.8h2.14Z" transform="translate(996.42 8762.579)"/>
    <path id="Trazado_996537" data-name="Trazado 996537" d="M3.438-2.157H1.47V-.824H3.78V0H.444V-4.977H3.773v.831H1.47V-2.96H3.438ZM6.675,0H5.688V-3.808l-1.179.366v-.8l2.061-.738h.106Z" transform="translate(892.168 8847.021)"/>
    <path id="Trazado_996538" data-name="Trazado 996538" d="M4.525-2.375A3,3,0,0,1,4.3-1.164a2.08,2.08,0,0,1-.625.825L4.5.311,3.849.889,2.789.038a2.243,2.243,0,0,1-.376.031,2.07,2.07,0,0,1-1.1-.3,1.975,1.975,0,0,1-.752-.849,2.918,2.918,0,0,1-.27-1.27v-.246A2.988,2.988,0,0,1,.552-3.888,1.972,1.972,0,0,1,1.3-4.746a2.059,2.059,0,0,1,1.106-.3,2.059,2.059,0,0,1,1.106.3,1.972,1.972,0,0,1,.749.858A2.98,2.98,0,0,1,4.525-2.6ZM3.486-2.6a2.094,2.094,0,0,0-.28-1.189.913.913,0,0,0-.8-.407.914.914,0,0,0-.8.4,2.07,2.07,0,0,0-.284,1.177v.243a2.12,2.12,0,0,0,.28,1.183.911.911,0,0,0,.807.42.9.9,0,0,0,.793-.405,2.108,2.108,0,0,0,.28-1.181ZM8.583,0H5.171V-.677l1.61-1.716a3.972,3.972,0,0,0,.49-.632,1.016,1.016,0,0,0,.159-.513.76.76,0,0,0-.167-.521.6.6,0,0,0-.479-.19.652.652,0,0,0-.528.231.914.914,0,0,0-.193.607H5.072a1.631,1.631,0,0,1,.217-.831,1.53,1.53,0,0,1,.614-.59,1.865,1.865,0,0,1,.9-.214A1.766,1.766,0,0,1,8-4.676a1.306,1.306,0,0,1,.426,1.042,1.673,1.673,0,0,1-.191.752,4.179,4.179,0,0,1-.656.892L6.443-.8h2.14Z" transform="translate(872.865 8609.907)"/>
    <path id="Trazado_996539" data-name="Trazado 996539" d="M4.525-2.375A3,3,0,0,1,4.3-1.164a2.08,2.08,0,0,1-.625.825L4.5.311,3.849.889,2.789.038a2.243,2.243,0,0,1-.376.031,2.07,2.07,0,0,1-1.1-.3,1.975,1.975,0,0,1-.752-.849,2.918,2.918,0,0,1-.27-1.27v-.246A2.988,2.988,0,0,1,.552-3.888,1.972,1.972,0,0,1,1.3-4.746a2.059,2.059,0,0,1,1.106-.3,2.059,2.059,0,0,1,1.106.3,1.972,1.972,0,0,1,.749.858A2.98,2.98,0,0,1,4.525-2.6ZM3.486-2.6a2.094,2.094,0,0,0-.28-1.189.913.913,0,0,0-.8-.407.914.914,0,0,0-.8.4,2.07,2.07,0,0,0-.284,1.177v.243a2.12,2.12,0,0,0,.28,1.183.911.911,0,0,0,.807.42.9.9,0,0,0,.793-.405,2.108,2.108,0,0,0,.28-1.181Z" transform="translate(892.216 8615.718)"/>
    <path id="Trazado_996540" data-name="Trazado 996540" d="M4.525-2.375A3,3,0,0,1,4.3-1.164a2.08,2.08,0,0,1-.625.825L4.5.311,3.849.889,2.789.038a2.243,2.243,0,0,1-.376.031,2.07,2.07,0,0,1-1.1-.3,1.975,1.975,0,0,1-.752-.849,2.918,2.918,0,0,1-.27-1.27v-.246A2.988,2.988,0,0,1,.552-3.888,1.972,1.972,0,0,1,1.3-4.746a2.059,2.059,0,0,1,1.106-.3,2.059,2.059,0,0,1,1.106.3,1.972,1.972,0,0,1,.749.858A2.98,2.98,0,0,1,4.525-2.6ZM3.486-2.6a2.094,2.094,0,0,0-.28-1.189.913.913,0,0,0-.8-.407.914.914,0,0,0-.8.4,2.07,2.07,0,0,0-.284,1.177v.243a2.12,2.12,0,0,0,.28,1.183.911.911,0,0,0,.807.42.9.9,0,0,0,.793-.405,2.108,2.108,0,0,0,.28-1.181ZM7.571,0H6.583V-3.808L5.4-3.442v-.8l2.061-.738h.106Z" transform="translate(892.58 8634.419)"/>
    <g id="Grupo_1177187" data-name="Grupo 1177187" transform="translate(711.711 8371)">
      <g id="Grupo_1177186" data-name="Grupo 1177186" clip-path="url(#clip-path)">
        <text id="Z2" transform="translate(373.758 283.778)" font-size="7" font-family="Roboto-Bold, Roboto" font-weight="700"><tspan x="0" y="0">Z2</tspan></text>
        <text id="U1" transform="translate(0.003 140.105)" font-size="7" font-family="Roboto-Bold, Roboto" font-weight="700"><tspan x="0" y="0">U1</tspan></text>
      </g>
    </g>
    <path id="Trazado_996541" data-name="Trazado 996541" d="M3.582-3.654a1.158,1.158,0,0,1-.181.643,1.3,1.3,0,0,1-.5.448,1.443,1.443,0,0,1,.574.48,1.232,1.232,0,0,1,.212.719A1.3,1.3,0,0,1,3.237-.316,1.83,1.83,0,0,1,2.01.068,1.838,1.838,0,0,1,.779-.318,1.3,1.3,0,0,1,.325-1.364a1.24,1.24,0,0,1,.212-.721,1.417,1.417,0,0,1,.571-.479,1.29,1.29,0,0,1-.5-.448,1.166,1.166,0,0,1-.179-.643A1.29,1.29,0,0,1,.854-4.667a1.669,1.669,0,0,1,1.152-.378,1.68,1.68,0,0,1,1.15.374A1.285,1.285,0,0,1,3.582-3.654ZM2.7-1.436a.717.717,0,0,0-.188-.52A.67.67,0,0,0,2-2.15a.669.669,0,0,0-.5.193.715.715,0,0,0-.188.521A.715.715,0,0,0,1.5-.923a.672.672,0,0,0,.513.195.671.671,0,0,0,.5-.188A.714.714,0,0,0,2.7-1.436Zm-.1-2.17a.684.684,0,0,0-.154-.467.546.546,0,0,0-.434-.176.55.55,0,0,0-.431.171.68.68,0,0,0-.154.472.714.714,0,0,0,.154.479.538.538,0,0,0,.434.181.533.533,0,0,0,.432-.181A.72.72,0,0,0,2.594-3.606Z" transform="translate(761.281 8415.667)"/>
  </g>
</svg>
