<svg xmlns="http://www.w3.org/2000/svg" xmlns:xlink="http://www.w3.org/1999/xlink" width="726.072" height="601.525" viewBox="0 0 726.072 601.525">
  <defs>
    <clipPath id="clip-path">
      <rect id="Rectángulo_454760" data-name="Rectángulo 454760" width="726.072" height="601.525" fill="none"/>
    </clipPath>
  </defs>
  <g id="Grupo_1177307" data-name="Grupo 1177307" transform="translate(-230.711 -10214)">
    <path id="Trazado_996533" data-name="Trazado 996533" d="M2.121-.92H6.164V0H.99V-8.531H2.121ZM8.455,0H7.365V-6.34h1.09Zm.012-8.994H9.779L8.209-7.271H7.336Zm2.8,2.654.035.8a2.31,2.31,0,0,1,1.9-.914q2.01,0,2.027,2.268V0H14.145V-4.2a1.459,1.459,0,0,0-.313-1.014,1.256,1.256,0,0,0-.958-.328,1.564,1.564,0,0,0-.926.281,1.91,1.91,0,0,0-.621.738V0H10.242V-6.34ZM19.494.117a2.77,2.77,0,0,1-2.1-.847,3.142,3.142,0,0,1-.809-2.265v-.2a3.8,3.8,0,0,1,.36-1.685,2.811,2.811,0,0,1,1.008-1.16,2.534,2.534,0,0,1,1.4-.419,2.374,2.374,0,0,1,1.922.814,3.526,3.526,0,0,1,.686,2.332v.451H17.672a2.254,2.254,0,0,0,.548,1.515,1.722,1.722,0,0,0,1.333.577A1.888,1.888,0,0,0,20.525-1a2.444,2.444,0,0,0,.7-.621l.662.516A2.662,2.662,0,0,1,19.494.117Zm-.135-5.684a1.446,1.446,0,0,0-1.1.478,2.321,2.321,0,0,0-.551,1.339h3.176v-.082a2.065,2.065,0,0,0-.445-1.28A1.361,1.361,0,0,0,19.359-5.566ZM27.135,0a2.277,2.277,0,0,1-.152-.668,2.419,2.419,0,0,1-1.8.785,2.238,2.238,0,0,1-1.538-.53,1.716,1.716,0,0,1-.6-1.345A1.792,1.792,0,0,1,23.792-3.3a3.55,3.55,0,0,1,2.118-.548h1.055v-.5a1.217,1.217,0,0,0-.34-.905,1.366,1.366,0,0,0-1-.337,1.581,1.581,0,0,0-.973.293.863.863,0,0,0-.393.709h-1.09A1.5,1.5,0,0,1,23.5-5.5a2.3,2.3,0,0,1,.914-.7,3.075,3.075,0,0,1,1.269-.258,2.506,2.506,0,0,1,1.717.548A1.976,1.976,0,0,1,28.049-4.4v2.918a3.567,3.567,0,0,0,.223,1.389V0Zm-1.8-.826A1.905,1.905,0,0,0,26.3-1.09a1.6,1.6,0,0,0,.662-.686v-1.3h-.85q-1.992,0-1.992,1.166a.987.987,0,0,0,.34.8A1.306,1.306,0,0,0,25.336-.826Zm7.125-2.4a3.726,3.726,0,0,1,.686-2.358,2.192,2.192,0,0,1,1.816-.876,2.181,2.181,0,0,1,1.811.82l.053-.7h.99V-.152a2.579,2.579,0,0,1-.729,1.939,2.692,2.692,0,0,1-1.96.709A3.261,3.261,0,0,1,33.785,2.2a2.31,2.31,0,0,1-1-.8l.563-.65a2.12,2.12,0,0,0,1.705.861,1.661,1.661,0,0,0,1.233-.445,1.7,1.7,0,0,0,.442-1.254V-.633a2.228,2.228,0,0,1-1.775.75,2.166,2.166,0,0,1-1.8-.9A3.918,3.918,0,0,1,32.461-3.223Zm1.09.123a2.843,2.843,0,0,0,.439,1.685,1.428,1.428,0,0,0,1.23.612,1.588,1.588,0,0,0,1.506-.932V-4.629a1.606,1.606,0,0,0-1.494-.908A1.441,1.441,0,0,0,34-4.922,3.1,3.1,0,0,0,33.551-3.1ZM43.365-.627a2.3,2.3,0,0,1-1.857.744,1.971,1.971,0,0,1-1.544-.589,2.549,2.549,0,0,1-.536-1.743V-6.34h1.084v4.1Q40.512-.8,41.684-.8a1.623,1.623,0,0,0,1.652-.926V-6.34H44.42V0H43.389ZM47.244,0h-1.09V-6.34h1.09Zm.012-8.994h1.313L47-7.271h-.873ZM52.945,0a2.277,2.277,0,0,1-.152-.668,2.419,2.419,0,0,1-1.8.785,2.238,2.238,0,0,1-1.538-.53,1.716,1.716,0,0,1-.6-1.345A1.792,1.792,0,0,1,49.6-3.3a3.55,3.55,0,0,1,2.118-.548h1.055v-.5a1.217,1.217,0,0,0-.34-.905,1.366,1.366,0,0,0-1-.337,1.581,1.581,0,0,0-.973.293.863.863,0,0,0-.393.709h-1.09a1.5,1.5,0,0,1,.337-.917,2.3,2.3,0,0,1,.914-.7A3.075,3.075,0,0,1,51.5-6.457a2.506,2.506,0,0,1,1.717.548A1.976,1.976,0,0,1,53.859-4.4v2.918a3.567,3.567,0,0,0,.223,1.389V0Zm-1.8-.826a1.905,1.905,0,0,0,.967-.264,1.6,1.6,0,0,0,.662-.686v-1.3h-.85q-1.992,0-1.992,1.166a.987.987,0,0,0,.34.8A1.306,1.306,0,0,0,51.146-.826Z" transform="matrix(1, -0.03, 0.03, 1, 862.688, 10422.271)"/>
    <path id="Trazado_996531" data-name="Trazado 996531" d="M2.121-.92H6.164V0H.99V-8.531H2.121ZM8.455,0H7.365V-6.34h1.09Zm.012-8.994H9.779L8.209-7.271H7.336Zm2.8,2.654.035.8a2.31,2.31,0,0,1,1.9-.914q2.01,0,2.027,2.268V0H14.145V-4.2a1.459,1.459,0,0,0-.313-1.014,1.256,1.256,0,0,0-.958-.328,1.564,1.564,0,0,0-.926.281,1.91,1.91,0,0,0-.621.738V0H10.242V-6.34ZM19.494.117a2.77,2.77,0,0,1-2.1-.847,3.142,3.142,0,0,1-.809-2.265v-.2a3.8,3.8,0,0,1,.36-1.685,2.811,2.811,0,0,1,1.008-1.16,2.534,2.534,0,0,1,1.4-.419,2.374,2.374,0,0,1,1.922.814,3.526,3.526,0,0,1,.686,2.332v.451H17.672a2.254,2.254,0,0,0,.548,1.515,1.722,1.722,0,0,0,1.333.577A1.888,1.888,0,0,0,20.525-1a2.444,2.444,0,0,0,.7-.621l.662.516A2.662,2.662,0,0,1,19.494.117Zm-.135-5.684a1.446,1.446,0,0,0-1.1.478,2.321,2.321,0,0,0-.551,1.339h3.176v-.082a2.065,2.065,0,0,0-.445-1.28A1.361,1.361,0,0,0,19.359-5.566ZM27.135,0a2.277,2.277,0,0,1-.152-.668,2.419,2.419,0,0,1-1.8.785,2.238,2.238,0,0,1-1.538-.53,1.716,1.716,0,0,1-.6-1.345A1.792,1.792,0,0,1,23.792-3.3a3.55,3.55,0,0,1,2.118-.548h1.055v-.5a1.217,1.217,0,0,0-.34-.905,1.366,1.366,0,0,0-1-.337,1.581,1.581,0,0,0-.973.293.863.863,0,0,0-.393.709h-1.09A1.5,1.5,0,0,1,23.5-5.5a2.3,2.3,0,0,1,.914-.7,3.075,3.075,0,0,1,1.269-.258,2.506,2.506,0,0,1,1.717.548A1.976,1.976,0,0,1,28.049-4.4v2.918a3.567,3.567,0,0,0,.223,1.389V0Zm-1.8-.826A1.905,1.905,0,0,0,26.3-1.09a1.6,1.6,0,0,0,.662-.686v-1.3h-.85q-1.992,0-1.992,1.166a.987.987,0,0,0,.34.8A1.306,1.306,0,0,0,25.336-.826ZM33.8-5.572a2.3,2.3,0,0,1,1.875-.885q2.01,0,2.027,2.268V0H36.621V-4.2a1.459,1.459,0,0,0-.313-1.014,1.256,1.256,0,0,0-.958-.328,1.564,1.564,0,0,0-.926.281,1.91,1.91,0,0,0-.621.738V0H32.719V-9H33.8Zm5.238,2.344A3.745,3.745,0,0,1,39.407-4.9a2.732,2.732,0,0,1,1.02-1.148,2.775,2.775,0,0,1,1.491-.4,2.674,2.674,0,0,1,2.095.9,3.449,3.449,0,0,1,.8,2.385V-3.1a3.777,3.777,0,0,1-.354,1.661A2.692,2.692,0,0,1,43.444-.293a2.807,2.807,0,0,1-1.515.41,2.667,2.667,0,0,1-2.089-.9,3.432,3.432,0,0,1-.8-2.373Zm1.09.129a2.712,2.712,0,0,0,.489,1.693,1.566,1.566,0,0,0,1.31.639,1.556,1.556,0,0,0,1.313-.647,2.966,2.966,0,0,0,.486-1.813,2.708,2.708,0,0,0-.5-1.69,1.574,1.574,0,0,0-1.315-.647,1.557,1.557,0,0,0-1.295.639A2.944,2.944,0,0,0,40.131-3.1Zm7.061-3.24.029.7a2.341,2.341,0,0,1,1.881-.82,1.813,1.813,0,0,1,1.811,1.02,2.4,2.4,0,0,1,.823-.738,2.431,2.431,0,0,1,1.2-.281q2.086,0,2.121,2.209V0H53.971V-4.184A1.456,1.456,0,0,0,53.66-5.2a1.368,1.368,0,0,0-1.043-.337,1.437,1.437,0,0,0-1,.36,1.462,1.462,0,0,0-.463.97V0h-1.09V-4.154a1.209,1.209,0,0,0-1.354-1.383,1.45,1.45,0,0,0-1.459.908V0H46.166V-6.34ZM62.057-3.1a3.77,3.77,0,0,1-.668,2.335A2.134,2.134,0,0,1,59.6.117a2.21,2.21,0,0,1-1.857-.85L57.686,0h-1V-9h1.084v3.357a2.2,2.2,0,0,1,1.811-.814,2.147,2.147,0,0,1,1.813.873,3.883,3.883,0,0,1,.659,2.391Zm-1.084-.123a2.929,2.929,0,0,0-.428-1.711,1.416,1.416,0,0,0-1.23-.6,1.591,1.591,0,0,0-1.541,1V-1.8a1.636,1.636,0,0,0,1.553,1,1.408,1.408,0,0,0,1.213-.6A3.115,3.115,0,0,0,60.973-3.223Zm5.514-2.145a3.248,3.248,0,0,0-.533-.041,1.428,1.428,0,0,0-1.447.908V0H63.422V-6.34h1.055l.018.732a1.688,1.688,0,0,1,1.512-.85,1.107,1.107,0,0,1,.48.082Zm.484,2.139A3.745,3.745,0,0,1,67.336-4.9a2.732,2.732,0,0,1,1.02-1.148,2.775,2.775,0,0,1,1.491-.4,2.674,2.674,0,0,1,2.095.9,3.449,3.449,0,0,1,.8,2.385V-3.1a3.777,3.777,0,0,1-.354,1.661A2.692,2.692,0,0,1,71.373-.293a2.807,2.807,0,0,1-1.515.41,2.667,2.667,0,0,1-2.089-.9,3.432,3.432,0,0,1-.8-2.373Zm1.09.129a2.712,2.712,0,0,0,.489,1.693,1.566,1.566,0,0,0,1.31.639,1.556,1.556,0,0,0,1.313-.647,2.966,2.966,0,0,0,.486-1.813,2.708,2.708,0,0,0-.5-1.69,1.574,1.574,0,0,0-1.315-.647,1.557,1.557,0,0,0-1.295.639A2.944,2.944,0,0,0,68.06-3.1Zm9.732,1.418a.8.8,0,0,0-.331-.683,3.187,3.187,0,0,0-1.154-.419A5.457,5.457,0,0,1,75-3.205a1.859,1.859,0,0,1-.715-.586,1.4,1.4,0,0,1-.231-.809,1.645,1.645,0,0,1,.659-1.318A2.574,2.574,0,0,1,76.4-6.457a2.649,2.649,0,0,1,1.749.557,1.768,1.768,0,0,1,.671,1.424h-1.09a.979.979,0,0,0-.378-.768,1.416,1.416,0,0,0-.952-.322,1.482,1.482,0,0,0-.926.258.812.812,0,0,0-.334.674.658.658,0,0,0,.311.592,3.821,3.821,0,0,0,1.122.381,5.847,5.847,0,0,1,1.315.434,1.919,1.919,0,0,1,.747.606,1.491,1.491,0,0,1,.243.864A1.623,1.623,0,0,1,78.2-.4a2.851,2.851,0,0,1-1.764.513,3.193,3.193,0,0,1-1.348-.27,2.192,2.192,0,0,1-.917-.753,1.815,1.815,0,0,1-.331-1.046h1.084a1.122,1.122,0,0,0,.437.864,1.693,1.693,0,0,0,1.075.319,1.748,1.748,0,0,0,.987-.249A.765.765,0,0,0,77.792-1.682Z" transform="translate(811.279 10511.041)"/>
    <path id="Trazado_996515" data-name="Trazado 996515" d="M2.121-.92H6.164V0H.99V-8.531H2.121ZM8.455,0H7.365V-6.34h1.09Zm.012-8.994H9.779L8.209-7.271H7.336Zm2.8,2.654.035.8a2.31,2.31,0,0,1,1.9-.914q2.01,0,2.027,2.268V0H14.145V-4.2a1.459,1.459,0,0,0-.313-1.014,1.256,1.256,0,0,0-.958-.328,1.564,1.564,0,0,0-.926.281,1.91,1.91,0,0,0-.621.738V0H10.242V-6.34ZM19.494.117a2.77,2.77,0,0,1-2.1-.847,3.142,3.142,0,0,1-.809-2.265v-.2a3.8,3.8,0,0,1,.36-1.685,2.811,2.811,0,0,1,1.008-1.16,2.534,2.534,0,0,1,1.4-.419,2.374,2.374,0,0,1,1.922.814,3.526,3.526,0,0,1,.686,2.332v.451H17.672a2.254,2.254,0,0,0,.548,1.515,1.722,1.722,0,0,0,1.333.577A1.888,1.888,0,0,0,20.525-1a2.444,2.444,0,0,0,.7-.621l.662.516A2.662,2.662,0,0,1,19.494.117Zm-.135-5.684a1.446,1.446,0,0,0-1.1.478,2.321,2.321,0,0,0-.551,1.339h3.176v-.082a2.065,2.065,0,0,0-.445-1.28A1.361,1.361,0,0,0,19.359-5.566ZM27.135,0a2.277,2.277,0,0,1-.152-.668,2.419,2.419,0,0,1-1.8.785,2.238,2.238,0,0,1-1.538-.53,1.716,1.716,0,0,1-.6-1.345A1.792,1.792,0,0,1,23.792-3.3a3.55,3.55,0,0,1,2.118-.548h1.055v-.5a1.217,1.217,0,0,0-.34-.905,1.366,1.366,0,0,0-1-.337,1.581,1.581,0,0,0-.973.293.863.863,0,0,0-.393.709h-1.09A1.5,1.5,0,0,1,23.5-5.5a2.3,2.3,0,0,1,.914-.7,3.075,3.075,0,0,1,1.269-.258,2.506,2.506,0,0,1,1.717.548A1.976,1.976,0,0,1,28.049-4.4v2.918a3.567,3.567,0,0,0,.223,1.389V0Zm-1.8-.826A1.905,1.905,0,0,0,26.3-1.09a1.6,1.6,0,0,0,.662-.686v-1.3h-.85q-1.992,0-1.992,1.166a.987.987,0,0,0,.34.8A1.306,1.306,0,0,0,25.336-.826Zm9.926.059a1.561,1.561,0,0,0,1.014-.352A1.237,1.237,0,0,0,36.756-2h1.025a1.966,1.966,0,0,1-.375,1.037,2.47,2.47,0,0,1-.923.785,2.663,2.663,0,0,1-1.222.293A2.612,2.612,0,0,1,33.2-.747a3.442,3.442,0,0,1-.765-2.364v-.182a3.817,3.817,0,0,1,.34-1.646,2.588,2.588,0,0,1,.976-1.119,2.771,2.771,0,0,1,1.5-.4,2.543,2.543,0,0,1,1.772.639,2.283,2.283,0,0,1,.753,1.658H36.756a1.494,1.494,0,0,0-.466-1.011,1.449,1.449,0,0,0-1.034-.4,1.517,1.517,0,0,0-1.28.595,2.793,2.793,0,0,0-.454,1.72v.205a2.737,2.737,0,0,0,.451,1.688A1.524,1.524,0,0,0,35.262-.768ZM40.178,0H39.094V-6.34h1.084ZM39.006-8.021a.647.647,0,0,1,.161-.445.6.6,0,0,1,.478-.182.614.614,0,0,1,.48.182.64.64,0,0,1,.164.445.619.619,0,0,1-.164.439.626.626,0,0,1-.48.176.616.616,0,0,1-.478-.176A.626.626,0,0,1,39.006-8.021ZM42.938-6.34l.035.8a2.31,2.31,0,0,1,1.9-.914q2.01,0,2.027,2.268V0H45.814V-4.2A1.459,1.459,0,0,0,45.5-5.209a1.256,1.256,0,0,0-.958-.328,1.564,1.564,0,0,0-.926.281A1.91,1.91,0,0,0,43-4.518V0H41.912V-6.34ZM50-7.875V-6.34h1.184V-5.5H50V-1.57A.878.878,0,0,0,50.162-1a.666.666,0,0,0,.539.19,2.624,2.624,0,0,0,.516-.07V0a3.143,3.143,0,0,1-.832.117,1.35,1.35,0,0,1-1.1-.439A1.888,1.888,0,0,1,48.92-1.57V-5.5H47.766V-6.34H48.92V-7.875ZM56.367-.627A2.3,2.3,0,0,1,54.51.117a1.971,1.971,0,0,1-1.544-.589,2.549,2.549,0,0,1-.536-1.743V-6.34h1.084v4.1Q53.514-.8,54.686-.8a1.623,1.623,0,0,0,1.652-.926V-6.34h1.084V0H56.391Zm5.766-4.74a3.248,3.248,0,0,0-.533-.041,1.428,1.428,0,0,0-1.447.908V0H59.068V-6.34h1.055l.018.732a1.688,1.688,0,0,1,1.512-.85,1.107,1.107,0,0,1,.48.082ZM66.581,0a2.277,2.277,0,0,1-.152-.668,2.419,2.419,0,0,1-1.8.785,2.238,2.238,0,0,1-1.538-.53,1.716,1.716,0,0,1-.6-1.345A1.792,1.792,0,0,1,63.238-3.3a3.55,3.55,0,0,1,2.118-.548h1.055v-.5a1.217,1.217,0,0,0-.34-.905,1.366,1.366,0,0,0-1-.337,1.581,1.581,0,0,0-.973.293.863.863,0,0,0-.393.709h-1.09a1.5,1.5,0,0,1,.337-.917,2.3,2.3,0,0,1,.914-.7,3.075,3.075,0,0,1,1.269-.258,2.506,2.506,0,0,1,1.717.548A1.976,1.976,0,0,1,67.495-4.4v2.918a3.567,3.567,0,0,0,.223,1.389V0Zm-1.8-.826a1.905,1.905,0,0,0,.967-.264,1.6,1.6,0,0,0,.662-.686v-1.3h-.85q-1.992,0-1.992,1.166a.987.987,0,0,0,.34.8A1.306,1.306,0,0,0,64.782-.826Z" transform="matrix(1, -0.03, 0.03, 1, 718.364, 10727.583)"/>
    <path id="Trazado_996528" data-name="Trazado 996528" d="M2.121-.92H6.164V0H.99V-8.531H2.121ZM8.455,0H7.365V-6.34h1.09Zm.012-8.994H9.779L8.209-7.271H7.336Zm2.8,2.654.035.8a2.31,2.31,0,0,1,1.9-.914q2.01,0,2.027,2.268V0H14.145V-4.2a1.459,1.459,0,0,0-.313-1.014,1.256,1.256,0,0,0-.958-.328,1.564,1.564,0,0,0-.926.281,1.91,1.91,0,0,0-.621.738V0H10.242V-6.34ZM19.494.117a2.77,2.77,0,0,1-2.1-.847,3.142,3.142,0,0,1-.809-2.265v-.2a3.8,3.8,0,0,1,.36-1.685,2.811,2.811,0,0,1,1.008-1.16,2.534,2.534,0,0,1,1.4-.419,2.374,2.374,0,0,1,1.922.814,3.526,3.526,0,0,1,.686,2.332v.451H17.672a2.254,2.254,0,0,0,.548,1.515,1.722,1.722,0,0,0,1.333.577A1.888,1.888,0,0,0,20.525-1a2.444,2.444,0,0,0,.7-.621l.662.516A2.662,2.662,0,0,1,19.494.117Zm-.135-5.684a1.446,1.446,0,0,0-1.1.478,2.321,2.321,0,0,0-.551,1.339h3.176v-.082a2.065,2.065,0,0,0-.445-1.28A1.361,1.361,0,0,0,19.359-5.566ZM27.135,0a2.277,2.277,0,0,1-.152-.668,2.419,2.419,0,0,1-1.8.785,2.238,2.238,0,0,1-1.538-.53,1.716,1.716,0,0,1-.6-1.345A1.792,1.792,0,0,1,23.792-3.3a3.55,3.55,0,0,1,2.118-.548h1.055v-.5a1.217,1.217,0,0,0-.34-.905,1.366,1.366,0,0,0-1-.337,1.581,1.581,0,0,0-.973.293.863.863,0,0,0-.393.709h-1.09A1.5,1.5,0,0,1,23.5-5.5a2.3,2.3,0,0,1,.914-.7,3.075,3.075,0,0,1,1.269-.258,2.506,2.506,0,0,1,1.717.548A1.976,1.976,0,0,1,28.049-4.4v2.918a3.567,3.567,0,0,0,.223,1.389V0Zm-1.8-.826A1.905,1.905,0,0,0,26.3-1.09a1.6,1.6,0,0,0,.662-.686v-1.3h-.85q-1.992,0-1.992,1.166a.987.987,0,0,0,.34.8A1.306,1.306,0,0,0,25.336-.826ZM32.889,0V-8.531h2.789a3.238,3.238,0,0,1,2.089.574,2.07,2.07,0,0,1,.7,1.7,1.733,1.733,0,0,1-.34,1.058,2.2,2.2,0,0,1-.926.712,1.979,1.979,0,0,1,1.093.735,2.11,2.11,0,0,1,.4,1.292,2.282,2.282,0,0,1-.744,1.8,3.077,3.077,0,0,1-2.1.656Zm1.125-3.99V-.92h1.857a1.788,1.788,0,0,0,1.239-.407,1.43,1.43,0,0,0,.454-1.122q0-1.541-1.676-1.541Zm0-.9h1.7a1.784,1.784,0,0,0,1.181-.369,1.236,1.236,0,0,0,.442-1,1.216,1.216,0,0,0-.41-1.022,2.017,2.017,0,0,0-1.248-.319H34.014ZM44.1-.627a2.3,2.3,0,0,1-1.857.744A1.971,1.971,0,0,1,40.7-.472a2.549,2.549,0,0,1-.536-1.743V-6.34H41.25v4.1Q41.25-.8,42.422-.8a1.623,1.623,0,0,0,1.652-.926V-6.34h1.084V0H44.127ZM50.5-1.682a.8.8,0,0,0-.331-.683,3.187,3.187,0,0,0-1.154-.419A5.457,5.457,0,0,1,47.7-3.205a1.859,1.859,0,0,1-.715-.586,1.4,1.4,0,0,1-.231-.809,1.645,1.645,0,0,1,.659-1.318A2.574,2.574,0,0,1,49.1-6.457a2.649,2.649,0,0,1,1.749.557,1.768,1.768,0,0,1,.671,1.424h-1.09a.979.979,0,0,0-.378-.768,1.416,1.416,0,0,0-.952-.322,1.482,1.482,0,0,0-.926.258.812.812,0,0,0-.334.674.658.658,0,0,0,.311.592,3.821,3.821,0,0,0,1.122.381,5.847,5.847,0,0,1,1.315.434,1.919,1.919,0,0,1,.747.606,1.491,1.491,0,0,1,.243.864A1.623,1.623,0,0,1,50.9-.4a2.851,2.851,0,0,1-1.764.513,3.193,3.193,0,0,1-1.348-.27,2.192,2.192,0,0,1-.917-.753,1.815,1.815,0,0,1-.331-1.046h1.084a1.122,1.122,0,0,0,.437.864,1.693,1.693,0,0,0,1.075.319,1.748,1.748,0,0,0,.987-.249A.765.765,0,0,0,50.5-1.682Zm3.967-6.193V-6.34h1.184V-5.5H54.463V-1.57A.878.878,0,0,0,54.621-1a.666.666,0,0,0,.539.19,2.624,2.624,0,0,0,.516-.07V0a3.143,3.143,0,0,1-.832.117,1.35,1.35,0,0,1-1.1-.439,1.888,1.888,0,0,1-.369-1.248V-5.5H52.225V-6.34h1.154V-7.875Zm1.925,4.646A3.745,3.745,0,0,1,56.754-4.9a2.732,2.732,0,0,1,1.02-1.148,2.775,2.775,0,0,1,1.491-.4,2.674,2.674,0,0,1,2.095.9,3.449,3.449,0,0,1,.8,2.385V-3.1A3.777,3.777,0,0,1,61.8-1.438,2.692,2.692,0,0,1,60.791-.293a2.807,2.807,0,0,1-1.515.41,2.667,2.667,0,0,1-2.089-.9,3.432,3.432,0,0,1-.8-2.373Zm1.09.129a2.712,2.712,0,0,0,.489,1.693,1.566,1.566,0,0,0,1.31.639,1.556,1.556,0,0,0,1.313-.647,2.966,2.966,0,0,0,.486-1.813,2.708,2.708,0,0,0-.5-1.69,1.574,1.574,0,0,0-1.315-.647,1.557,1.557,0,0,0-1.295.639A2.944,2.944,0,0,0,57.478-3.1Z" transform="translate(783.813 10573.552)"/>
    <path id="Trazado_996517" data-name="Trazado 996517" d="M8.7-3.315A3.522,3.522,0,0,1,7.516-.786,4.165,4.165,0,0,1,4.7.137,3.745,3.745,0,0,1,1.685-1.152a5.284,5.284,0,0,1-1.1-3.538V-5.3a5.966,5.966,0,0,1,.506-2.529A3.791,3.791,0,0,1,2.54-9.505a4.05,4.05,0,0,1,2.184-.584A4.058,4.058,0,0,1,7.5-9.167,3.785,3.785,0,0,1,8.716-6.576H6.665a2.079,2.079,0,0,0-.537-1.4,1.987,1.987,0,0,0-1.4-.434,1.742,1.742,0,0,0-1.535.735,4.118,4.118,0,0,0-.523,2.28v.752a4.408,4.408,0,0,0,.489,2.358A1.71,1.71,0,0,0,4.7-1.538a2.025,2.025,0,0,0,1.418-.434,1.961,1.961,0,0,0,.537-1.343ZM13.323.137a3.631,3.631,0,0,1-2.649-1A3.548,3.548,0,0,1,9.652-3.521v-.191A4.468,4.468,0,0,1,10.083-5.7,3.161,3.161,0,0,1,11.3-7.058a3.425,3.425,0,0,1,1.8-.475,3.07,3.07,0,0,1,2.389.957,3.889,3.889,0,0,1,.872,2.714v.807h-4.71a1.835,1.835,0,0,0,.578,1.162,1.746,1.746,0,0,0,1.22.438,2.132,2.132,0,0,0,1.784-.827L16.208-1.2A2.966,2.966,0,0,1,15-.215,3.947,3.947,0,0,1,13.323.137ZM13.1-5.934a1.237,1.237,0,0,0-.954.4A2.048,2.048,0,0,0,11.676-4.4h2.748V-4.56a1.46,1.46,0,0,0-.355-1.015A1.277,1.277,0,0,0,13.1-5.934ZM19.3-7.4l.062.854a2.582,2.582,0,0,1,2.126-.991,2.146,2.146,0,0,1,1.75.69,3.221,3.221,0,0,1,.588,2.064V0H21.854V-4.73a1.282,1.282,0,0,0-.273-.913,1.224,1.224,0,0,0-.909-.284,1.359,1.359,0,0,0-1.251.711V0H17.445V-7.4Zm8.388-1.818V-7.4h1.265v1.449H27.692v3.691a.881.881,0,0,0,.157.588.79.79,0,0,0,.6.178,3.151,3.151,0,0,0,.581-.048v1.5a4.067,4.067,0,0,1-1.2.178,1.886,1.886,0,0,1-2.119-2.1V-5.947h-1.08V-7.4h1.08V-9.215Zm6.521,3.671A5.367,5.367,0,0,0,33.5-5.6a1.447,1.447,0,0,0-1.47.759V0H30.058V-7.4h1.866l.055.882a1.831,1.831,0,0,1,1.647-1.019,2.07,2.07,0,0,1,.615.089Zm.158,1.777A4.387,4.387,0,0,1,34.8-5.729a3.1,3.1,0,0,1,1.22-1.333,3.56,3.56,0,0,1,1.849-.472,3.368,3.368,0,0,1,2.444.916,3.676,3.676,0,0,1,1.056,2.488l.014.506a3.866,3.866,0,0,1-.95,2.731A3.3,3.3,0,0,1,37.879.137,3.319,3.319,0,0,1,35.326-.889a3.934,3.934,0,0,1-.954-2.789Zm1.976.144a2.757,2.757,0,0,0,.4,1.61,1.309,1.309,0,0,0,1.135.557A1.312,1.312,0,0,0,39-2.006a3.017,3.017,0,0,0,.4-1.76,2.73,2.73,0,0,0-.4-1.6,1.312,1.312,0,0,0-1.135-.567,1.29,1.29,0,0,0-1.121.564A3.068,3.068,0,0,0,36.348-3.623Zm12.1-5.592V-7.4h1.265v1.449H48.448v3.691a.881.881,0,0,0,.157.588.79.79,0,0,0,.6.178,3.151,3.151,0,0,0,.581-.048v1.5a4.067,4.067,0,0,1-1.2.178,1.886,1.886,0,0,1-2.119-2.1V-5.947h-1.08V-7.4h1.08V-9.215Zm6.521,3.671a5.367,5.367,0,0,0-.711-.055,1.447,1.447,0,0,0-1.47.759V0H50.813V-7.4h1.866l.055.882a1.831,1.831,0,0,1,1.647-1.019A2.07,2.07,0,0,1,55-7.444ZM59.8,0a2.194,2.194,0,0,1-.2-.663,2.39,2.39,0,0,1-1.866.8,2.626,2.626,0,0,1-1.8-.629,2.023,2.023,0,0,1-.714-1.586,2.09,2.09,0,0,1,.872-1.8,4.3,4.3,0,0,1,2.519-.636h.909v-.424a1.219,1.219,0,0,0-.263-.82,1.035,1.035,0,0,0-.831-.308,1.177,1.177,0,0,0-.783.239.813.813,0,0,0-.284.656H55.388a1.984,1.984,0,0,1,.4-1.189,2.621,2.621,0,0,1,1.121-.858,4.086,4.086,0,0,1,1.627-.311,3.228,3.228,0,0,1,2.17.687,2.4,2.4,0,0,1,.8,1.931v3.206A3.536,3.536,0,0,0,61.8-.116V0ZM58.17-1.374a1.7,1.7,0,0,0,.807-.195,1.28,1.28,0,0,0,.547-.523V-3.363h-.738q-1.483,0-1.579,1.025l-.007.116a.791.791,0,0,0,.26.608A1.009,1.009,0,0,0,58.17-1.374Zm8.859-.67a.637.637,0,0,0-.359-.571,4.077,4.077,0,0,0-1.152-.373Q62.88-3.541,62.88-5.229A2.032,2.032,0,0,1,63.7-6.874a3.3,3.3,0,0,1,2.136-.66,3.547,3.547,0,0,1,2.252.663,2.09,2.09,0,0,1,.844,1.723H66.955a.956.956,0,0,0-.273-.7,1.157,1.157,0,0,0-.854-.277,1.182,1.182,0,0,0-.772.226.712.712,0,0,0-.273.574.609.609,0,0,0,.311.53,3.2,3.2,0,0,0,1.049.349,8.571,8.571,0,0,1,1.244.332,2.044,2.044,0,0,1,1.565,1.989,1.929,1.929,0,0,1-.868,1.637A3.745,3.745,0,0,1,65.84.137,3.912,3.912,0,0,1,64.19-.195,2.77,2.77,0,0,1,63.058-1.1a2.113,2.113,0,0,1-.41-1.248h1.873a1.031,1.031,0,0,0,.39.807,1.546,1.546,0,0,0,.971.28,1.43,1.43,0,0,0,.858-.215A.67.67,0,0,0,67.03-2.044Zm6.6,2.181a3.631,3.631,0,0,1-2.649-1,3.548,3.548,0,0,1-1.022-2.659v-.191A4.468,4.468,0,0,1,70.386-5.7a3.161,3.161,0,0,1,1.22-1.354,3.425,3.425,0,0,1,1.8-.475,3.07,3.07,0,0,1,2.389.957,3.889,3.889,0,0,1,.872,2.714v.807h-4.71a1.835,1.835,0,0,0,.578,1.162,1.746,1.746,0,0,0,1.22.438,2.132,2.132,0,0,0,1.784-.827L76.511-1.2a2.966,2.966,0,0,1-1.2.981A3.947,3.947,0,0,1,73.627.137ZM73.4-5.934a1.237,1.237,0,0,0-.954.4A2.048,2.048,0,0,0,71.979-4.4h2.748V-4.56a1.46,1.46,0,0,0-.355-1.015A1.277,1.277,0,0,0,73.4-5.934Zm8.545.39a5.367,5.367,0,0,0-.711-.055,1.447,1.447,0,0,0-1.47.759V0H77.79V-7.4h1.866l.055.882a1.831,1.831,0,0,1,1.647-1.019,2.07,2.07,0,0,1,.615.089ZM82.1-3.767a4.387,4.387,0,0,1,.424-1.962,3.1,3.1,0,0,1,1.22-1.333A3.56,3.56,0,0,1,85.6-7.533a3.368,3.368,0,0,1,2.444.916A3.676,3.676,0,0,1,89.1-4.129l.014.506a3.866,3.866,0,0,1-.95,2.731A3.3,3.3,0,0,1,85.611.137,3.319,3.319,0,0,1,83.058-.889,3.934,3.934,0,0,1,82.1-3.678Zm1.976.144a2.757,2.757,0,0,0,.4,1.61,1.309,1.309,0,0,0,1.135.557,1.312,1.312,0,0,0,1.121-.55,3.017,3.017,0,0,0,.4-1.76,2.73,2.73,0,0,0-.4-1.6A1.312,1.312,0,0,0,85.6-5.934a1.29,1.29,0,0,0-1.121.564A3.068,3.068,0,0,0,84.08-3.623Z" transform="translate(918.535 10714.604) rotate(-90)"/>
    <path id="Trazado_996518" data-name="Trazado 996518" d="M7.266-2.707a3.139,3.139,0,0,1-1,2.089A3.274,3.274,0,0,1,4.031.117,3.006,3.006,0,0,1,1.608-.967,4.361,4.361,0,0,1,.7-3.867v-.82a4.861,4.861,0,0,1,.425-2.092,3.173,3.173,0,0,1,1.2-1.386,3.353,3.353,0,0,1,1.8-.483,3.083,3.083,0,0,1,2.18.759,3.176,3.176,0,0,1,.955,2.1H6.135A2.44,2.44,0,0,0,5.5-7.266a1.927,1.927,0,0,0-1.368-.457,2.013,2.013,0,0,0-1.69.8,3.656,3.656,0,0,0-.612,2.268v.826a3.758,3.758,0,0,0,.58,2.209A1.875,1.875,0,0,0,4.031-.8,2.165,2.165,0,0,0,5.47-1.228a2.357,2.357,0,0,0,.665-1.479Zm1.078-.521A3.745,3.745,0,0,1,8.71-4.9a2.732,2.732,0,0,1,1.02-1.148,2.775,2.775,0,0,1,1.491-.4,2.674,2.674,0,0,1,2.095.9,3.449,3.449,0,0,1,.8,2.385V-3.1a3.777,3.777,0,0,1-.354,1.661A2.692,2.692,0,0,1,12.747-.293a2.807,2.807,0,0,1-1.515.41,2.667,2.667,0,0,1-2.089-.9,3.432,3.432,0,0,1-.8-2.373Zm1.09.129a2.712,2.712,0,0,0,.489,1.693,1.566,1.566,0,0,0,1.31.639,1.556,1.556,0,0,0,1.313-.647,2.966,2.966,0,0,0,.486-1.813,2.708,2.708,0,0,0-.5-1.69,1.574,1.574,0,0,0-1.315-.647,1.557,1.557,0,0,0-1.295.639A2.944,2.944,0,0,0,9.434-3.1Zm9.732,1.418a.8.8,0,0,0-.331-.683,3.187,3.187,0,0,0-1.154-.419,5.457,5.457,0,0,1-1.307-.422,1.859,1.859,0,0,1-.715-.586,1.4,1.4,0,0,1-.231-.809,1.645,1.645,0,0,1,.659-1.318,2.574,2.574,0,0,1,1.685-.539,2.649,2.649,0,0,1,1.749.557,1.768,1.768,0,0,1,.671,1.424H19.1a.979.979,0,0,0-.378-.768,1.416,1.416,0,0,0-.952-.322,1.482,1.482,0,0,0-.926.258.812.812,0,0,0-.334.674.658.658,0,0,0,.311.592,3.821,3.821,0,0,0,1.122.381,5.847,5.847,0,0,1,1.315.434,1.919,1.919,0,0,1,.747.606,1.491,1.491,0,0,1,.243.864A1.623,1.623,0,0,1,19.57-.4a2.851,2.851,0,0,1-1.764.513,3.193,3.193,0,0,1-1.348-.27,2.192,2.192,0,0,1-.917-.753,1.815,1.815,0,0,1-.331-1.046h1.084a1.122,1.122,0,0,0,.437.864,1.693,1.693,0,0,0,1.075.319,1.748,1.748,0,0,0,.987-.249A.765.765,0,0,0,19.166-1.682Zm3.967-6.193V-6.34h1.184V-5.5H23.133V-1.57A.878.878,0,0,0,23.291-1a.666.666,0,0,0,.539.19,2.624,2.624,0,0,0,.516-.07V0a3.143,3.143,0,0,1-.832.117,1.35,1.35,0,0,1-1.1-.439,1.888,1.888,0,0,1-.369-1.248V-5.5H20.895V-6.34h1.154V-7.875ZM29.5,0a2.277,2.277,0,0,1-.152-.668,2.419,2.419,0,0,1-1.8.785A2.238,2.238,0,0,1,26-.413a1.716,1.716,0,0,1-.6-1.345A1.792,1.792,0,0,1,26.153-3.3a3.55,3.55,0,0,1,2.118-.548h1.055v-.5a1.217,1.217,0,0,0-.34-.905,1.366,1.366,0,0,0-1-.337,1.581,1.581,0,0,0-.973.293.863.863,0,0,0-.393.709h-1.09a1.5,1.5,0,0,1,.337-.917,2.3,2.3,0,0,1,.914-.7,3.075,3.075,0,0,1,1.269-.258,2.506,2.506,0,0,1,1.717.548A1.976,1.976,0,0,1,30.41-4.4v2.918a3.567,3.567,0,0,0,.223,1.389V0ZM27.7-.826a1.905,1.905,0,0,0,.967-.264,1.6,1.6,0,0,0,.662-.686v-1.3h-.85q-1.992,0-1.992,1.166a.987.987,0,0,0,.34.8A1.306,1.306,0,0,0,27.7-.826Zm4.148-2.4a3.714,3.714,0,0,1,.691-2.347,2.186,2.186,0,0,1,1.811-.888,2.2,2.2,0,0,1,1.764.762V-9H37.2V0h-1l-.053-.68a2.208,2.208,0,0,1-1.811.8,2.165,2.165,0,0,1-1.8-.9,3.756,3.756,0,0,1-.694-2.355ZM32.93-3.1a2.812,2.812,0,0,0,.445,1.688,1.44,1.44,0,0,0,1.23.609,1.581,1.581,0,0,0,1.506-.926V-4.641a1.593,1.593,0,0,0-1.494-.9,1.446,1.446,0,0,0-1.242.615A3.1,3.1,0,0,0,32.93-3.1Zm5.66-.129A3.745,3.745,0,0,1,38.956-4.9a2.732,2.732,0,0,1,1.02-1.148,2.775,2.775,0,0,1,1.491-.4,2.674,2.674,0,0,1,2.095.9,3.449,3.449,0,0,1,.8,2.385V-3.1a3.777,3.777,0,0,1-.354,1.661A2.692,2.692,0,0,1,42.993-.293a2.807,2.807,0,0,1-1.515.41,2.667,2.667,0,0,1-2.089-.9,3.432,3.432,0,0,1-.8-2.373Zm1.09.129a2.712,2.712,0,0,0,.489,1.693,1.566,1.566,0,0,0,1.31.639,1.556,1.556,0,0,0,1.313-.647,2.966,2.966,0,0,0,.486-1.813,2.708,2.708,0,0,0-.5-1.69,1.574,1.574,0,0,0-1.315-.647,1.557,1.557,0,0,0-1.295.639A2.944,2.944,0,0,0,39.68-3.1Z" transform="translate(659.351 10723.573) rotate(-91.719)"/>
    <path id="Trazado_996514" data-name="Trazado 996514" d="M7.459-2.842A3.019,3.019,0,0,1,6.442-.674,3.57,3.57,0,0,1,4.025.117a3.21,3.21,0,0,1-2.581-1.1A4.529,4.529,0,0,1,.5-4.02v-.521A5.114,5.114,0,0,1,.938-6.709,3.249,3.249,0,0,1,2.177-8.147a3.471,3.471,0,0,1,1.872-.5,3.478,3.478,0,0,1,2.379.791A3.244,3.244,0,0,1,7.471-5.637H5.713a1.782,1.782,0,0,0-.46-1.2,1.7,1.7,0,0,0-1.2-.372,1.494,1.494,0,0,0-1.315.63,3.53,3.53,0,0,0-.448,1.954v.645A3.778,3.778,0,0,0,2.7-1.957a1.466,1.466,0,0,0,1.321.639A1.735,1.735,0,0,0,5.241-1.69,1.681,1.681,0,0,0,5.7-2.842Z" transform="translate(942.904 10735.759)"/>
    <path id="Trazado_996526" data-name="Trazado 996526" d="M7.705,0H5.947V-3.656H2.52V0H.762V-8.531H2.52v3.457H5.947V-8.531H7.705Z" transform="translate(946.532 10586.63)"/>
    <g id="Grupo_1177192" data-name="Grupo 1177192" transform="translate(230.711 10214)">
      <g id="Grupo_1177191" data-name="Grupo 1177191" clip-path="url(#clip-path)">
        <text id="D" transform="translate(717.858 154.868)" font-size="12" font-family="Roboto-Bold, Roboto" font-weight="700"><tspan x="0" y="0">D</tspan></text>
      </g>
    </g>
    <path id="Trazado_996542" data-name="Trazado 996542" d="M5.578-1.758H2.5L1.91,0H.041L3.217-8.531H4.846L8.039,0H6.17ZM2.971-3.182H5.1L4.031-6.375Z" transform="translate(860.845 10274.376)"/>
    <path id="Trazado_996538" data-name="Trazado 996538" d="M2.52-3.006V0H.762V-8.531H4.09a3.85,3.85,0,0,1,1.69.352,2.591,2.591,0,0,1,1.122,1,2.786,2.786,0,0,1,.393,1.474,2.45,2.45,0,0,1-.858,1.978,3.575,3.575,0,0,1-2.376.724Zm0-1.424H4.09a1.544,1.544,0,0,0,1.063-.328A1.193,1.193,0,0,0,5.52-5.7,1.407,1.407,0,0,0,5.15-6.709a1.379,1.379,0,0,0-1.02-.4H2.52Zm7.523-.586h.9a1.271,1.271,0,0,0,.955-.322,1.181,1.181,0,0,0,.311-.855A1.044,1.044,0,0,0,11.9-7a1.192,1.192,0,0,0-.847-.287,1.25,1.25,0,0,0-.814.267.852.852,0,0,0-.328.694H8.221a2.083,2.083,0,0,1,.36-1.2A2.4,2.4,0,0,1,9.589-8.35a3.364,3.364,0,0,1,1.427-.3A3.19,3.19,0,0,1,13.137-8,2.209,2.209,0,0,1,13.9-6.217a1.8,1.8,0,0,1-.357,1.078,2.322,2.322,0,0,1-.937.756,2.12,2.12,0,0,1,1.075.773,2.1,2.1,0,0,1,.354,1.219A2.246,2.246,0,0,1,13.21-.568a3.334,3.334,0,0,1-2.194.686A3.161,3.161,0,0,1,8.927-.557a2.2,2.2,0,0,1-.812-1.781H9.809a.981.981,0,0,0,.36.785,1.328,1.328,0,0,0,.888.3A1.334,1.334,0,0,0,12-1.567a1.1,1.1,0,0,0,.343-.847q0-1.277-1.406-1.277h-.9Z" transform="translate(880.084 10351.684)"/>
    <path id="Trazado_996516" data-name="Trazado 996516" d="M5.895-3.7H2.52v2.285H6.48V0H.762V-8.531H6.469v1.424H2.52v2.033H5.895Zm6.445.486h.967v1.365H12.34V0H10.646V-1.846h-3.5L7.072-2.912l3.557-5.619H12.34Zm-3.58,0h1.887V-6.223l-.111.193Z" transform="translate(698.217 10751.96)"/>
    <g id="Grupo_1177194" data-name="Grupo 1177194" transform="translate(230.711 10214)">
      <g id="Grupo_1177193" data-name="Grupo 1177193" clip-path="url(#clip-path)">
        <text id="E2" transform="translate(150.333 597.204)" font-size="12" font-family="Roboto-Bold, Roboto" font-weight="700"><tspan x="0" y="0">E2</tspan></text>
      </g>
    </g>
    <path id="Trazado_996520" data-name="Trazado 996520" d="M5.895-3.7H2.52v2.285H6.48V0H.762V-8.531H6.469v1.424H2.52v2.033H5.895Z" transform="translate(625.381 10738.756)"/>
    <path id="Trazado_996536" data-name="Trazado 996536" d="M2.52-3.006V0H.762V-8.531H4.09a3.85,3.85,0,0,1,1.69.352,2.591,2.591,0,0,1,1.122,1,2.786,2.786,0,0,1,.393,1.474,2.45,2.45,0,0,1-.858,1.978,3.575,3.575,0,0,1-2.376.724Zm0-1.424H4.09a1.544,1.544,0,0,0,1.063-.328A1.193,1.193,0,0,0,5.52-5.7,1.407,1.407,0,0,0,5.15-6.709a1.379,1.379,0,0,0-1.02-.4H2.52ZM14.168,0H8.32V-1.16L11.08-4.1a6.808,6.808,0,0,0,.841-1.084,1.742,1.742,0,0,0,.272-.879,1.3,1.3,0,0,0-.287-.894,1.036,1.036,0,0,0-.82-.325,1.118,1.118,0,0,0-.905.4,1.567,1.567,0,0,0-.331,1.04H8.15a2.8,2.8,0,0,1,.372-1.424A2.622,2.622,0,0,1,9.574-8.282a3.2,3.2,0,0,1,1.541-.366,3.027,3.027,0,0,1,2.048.633,2.239,2.239,0,0,1,.729,1.787,2.868,2.868,0,0,1-.328,1.289A7.164,7.164,0,0,1,12.439-3.41L10.5-1.365h3.668Z" transform="translate(682.198 10369.068)"/>
    <path id="Trazado_996530" data-name="Trazado 996530" d="M7.758-4.072A5.14,5.14,0,0,1,7.371-2,3.566,3.566,0,0,1,6.3-.58L7.717.533,6.6,1.523,4.781.064a3.845,3.845,0,0,1-.645.053,3.549,3.549,0,0,1-1.893-.51A3.387,3.387,0,0,1,.955-1.849,5,5,0,0,1,.492-4.025v-.422A5.123,5.123,0,0,1,.946-6.665,3.381,3.381,0,0,1,2.229-8.136a3.53,3.53,0,0,1,1.9-.513,3.53,3.53,0,0,1,1.9.513A3.381,3.381,0,0,1,7.3-6.665a5.109,5.109,0,0,1,.454,2.212ZM5.977-4.459A3.59,3.59,0,0,0,5.5-6.5a1.566,1.566,0,0,0-1.371-.7,1.566,1.566,0,0,0-1.365.688,3.549,3.549,0,0,0-.486,2.019v.416a3.635,3.635,0,0,0,.48,2.027,1.562,1.562,0,0,0,1.383.721A1.548,1.548,0,0,0,5.5-2.019a3.614,3.614,0,0,0,.48-2.024Zm4.611-.557h.9a1.271,1.271,0,0,0,.955-.322,1.181,1.181,0,0,0,.311-.855,1.044,1.044,0,0,0-.308-.8,1.192,1.192,0,0,0-.847-.287,1.25,1.25,0,0,0-.814.267.852.852,0,0,0-.328.694H8.766a2.083,2.083,0,0,1,.36-1.2,2.4,2.4,0,0,1,1.008-.829,3.364,3.364,0,0,1,1.427-.3A3.19,3.19,0,0,1,13.682-8a2.209,2.209,0,0,1,.768,1.784,1.8,1.8,0,0,1-.357,1.078,2.322,2.322,0,0,1-.937.756,2.12,2.12,0,0,1,1.075.773,2.1,2.1,0,0,1,.354,1.219,2.246,2.246,0,0,1-.829,1.822,3.334,3.334,0,0,1-2.194.686A3.161,3.161,0,0,1,9.472-.557,2.2,2.2,0,0,1,8.66-2.338h1.693a.981.981,0,0,0,.36.785,1.328,1.328,0,0,0,.888.3,1.334,1.334,0,0,0,.946-.319,1.1,1.1,0,0,0,.343-.847q0-1.277-1.406-1.277h-.9Z" transform="translate(727.159 10541.797)"/>
    <path id="Trazado_996529" data-name="Trazado 996529" d="M7.758-4.072A5.14,5.14,0,0,1,7.371-2,3.566,3.566,0,0,1,6.3-.58L7.717.533,6.6,1.523,4.781.064a3.845,3.845,0,0,1-.645.053,3.549,3.549,0,0,1-1.893-.51A3.387,3.387,0,0,1,.955-1.849,5,5,0,0,1,.492-4.025v-.422A5.123,5.123,0,0,1,.946-6.665,3.381,3.381,0,0,1,2.229-8.136a3.53,3.53,0,0,1,1.9-.513,3.53,3.53,0,0,1,1.9.513A3.381,3.381,0,0,1,7.3-6.665a5.109,5.109,0,0,1,.454,2.212ZM5.977-4.459A3.59,3.59,0,0,0,5.5-6.5a1.566,1.566,0,0,0-1.371-.7,1.566,1.566,0,0,0-1.365.688,3.549,3.549,0,0,0-.486,2.019v.416a3.635,3.635,0,0,0,.48,2.027,1.562,1.562,0,0,0,1.383.721A1.548,1.548,0,0,0,5.5-2.019a3.614,3.614,0,0,0,.48-2.024Z" transform="translate(638.273 10572.07)"/>
    <path id="Trazado_996522" data-name="Trazado 996522" d="M7.758-4.072A5.14,5.14,0,0,1,7.371-2,3.566,3.566,0,0,1,6.3-.58L7.717.533,6.6,1.523,4.781.064a3.845,3.845,0,0,1-.645.053,3.549,3.549,0,0,1-1.893-.51A3.387,3.387,0,0,1,.955-1.849,5,5,0,0,1,.492-4.025v-.422A5.123,5.123,0,0,1,.946-6.665,3.381,3.381,0,0,1,2.229-8.136a3.53,3.53,0,0,1,1.9-.513,3.53,3.53,0,0,1,1.9.513A3.381,3.381,0,0,1,7.3-6.665a5.109,5.109,0,0,1,.454,2.212ZM5.977-4.459A3.59,3.59,0,0,0,5.5-6.5a1.566,1.566,0,0,0-1.371-.7,1.566,1.566,0,0,0-1.365.688,3.549,3.549,0,0,0-.486,2.019v.416a3.635,3.635,0,0,0,.48,2.027,1.562,1.562,0,0,0,1.383.721A1.548,1.548,0,0,0,5.5-2.019a3.614,3.614,0,0,0,.48-2.024Zm7,4.459H11.285V-6.527L9.264-5.9V-7.277L12.8-8.543h.182Z" transform="translate(621.108 10613.214)"/>
    <path id="Trazado_996534" data-name="Trazado 996534" d="M2.52-3.006V0H.762V-8.531H4.09a3.85,3.85,0,0,1,1.69.352,2.591,2.591,0,0,1,1.122,1,2.786,2.786,0,0,1,.393,1.474,2.45,2.45,0,0,1-.858,1.978,3.575,3.575,0,0,1-2.376.724Zm0-1.424H4.09a1.544,1.544,0,0,0,1.063-.328A1.193,1.193,0,0,0,5.52-5.7,1.407,1.407,0,0,0,5.15-6.709a1.379,1.379,0,0,0-1.02-.4H2.52ZM12.434,0H10.74V-6.527L8.719-5.9V-7.277l3.533-1.266h.182Z" transform="translate(707.795 10404.625)"/>
    <path id="Trazado_996539" data-name="Trazado 996539" d="M2.52-3.006V0H.762V-8.531H4.09a3.85,3.85,0,0,1,1.69.352,2.591,2.591,0,0,1,1.122,1,2.786,2.786,0,0,1,.393,1.474,2.45,2.45,0,0,1-.858,1.978,3.575,3.575,0,0,1-2.376.724Zm0-1.424H4.09a1.544,1.544,0,0,0,1.063-.328A1.193,1.193,0,0,0,5.52-5.7,1.407,1.407,0,0,0,5.15-6.709a1.379,1.379,0,0,0-1.02-.4H2.52Z" transform="translate(840.213 10337.557)"/>
    <g id="Grupo_1177196" data-name="Grupo 1177196" transform="translate(230.711 10214)">
      <g id="Grupo_1177195" data-name="Grupo 1177195" clip-path="url(#clip-path)">
        <text id="_12" data-name="12" transform="matrix(1, -0.03, 0.03, 1, 642.852, 9.512)" font-size="10" font-family="Roboto-Bold, Roboto" font-weight="700"><tspan x="0" y="0">12</tspan></text>
      </g>
    </g>
    <path id="Trazado_996543" data-name="Trazado 996543" d="M4.163-3.126a1.96,1.96,0,0,1-1.418.6,2.1,2.1,0,0,1-1.66-.712,2.812,2.812,0,0,1-.623-1.92A3,3,0,0,1,.8-6.572a2.462,2.462,0,0,1,.937-1,2.6,2.6,0,0,1,1.354-.357,2.487,2.487,0,0,1,1.375.387A2.543,2.543,0,0,1,5.4-6.429a3.992,3.992,0,0,1,.338,1.66v.575a4.523,4.523,0,0,1-.972,3.072A3.675,3.675,0,0,1,2.009.07L1.627.075V-1.219l.344-.005A1.985,1.985,0,0,0,4.163-3.126ZM3.126-3.717a1.086,1.086,0,0,0,.647-.193,1.292,1.292,0,0,0,.411-.467v-.639a2.134,2.134,0,0,0-.3-1.225.933.933,0,0,0-.806-.435.906.906,0,0,0-.768.427,1.816,1.816,0,0,0-.3,1.072A1.767,1.767,0,0,0,2.3-4.128.954.954,0,0,0,3.126-3.717Z" transform="matrix(1, -0.03, 0.03, 1, 872.672, 10256.998)"/>
    <path id="Trazado_996540" data-name="Trazado 996540" d="M2.111-4.6h.827a1.166,1.166,0,0,0,.875-.3A1.082,1.082,0,0,0,4.1-5.677a.957.957,0,0,0-.282-.736,1.093,1.093,0,0,0-.776-.263,1.145,1.145,0,0,0-.747.244.781.781,0,0,0-.3.636H.44a1.909,1.909,0,0,1,.33-1.1,2.2,2.2,0,0,1,.924-.76A3.083,3.083,0,0,1,3-7.928a2.924,2.924,0,0,1,1.944.594A2.025,2.025,0,0,1,5.65-5.7a1.646,1.646,0,0,1-.328.988,2.129,2.129,0,0,1-.859.693,1.943,1.943,0,0,1,.986.709,1.923,1.923,0,0,1,.325,1.117,2.059,2.059,0,0,1-.76,1.67A3.056,3.056,0,0,1,3,.107,2.9,2.9,0,0,1,1.088-.51,2.017,2.017,0,0,1,.344-2.143H1.9a.9.9,0,0,0,.33.72,1.217,1.217,0,0,0,.814.279,1.223,1.223,0,0,0,.867-.293,1.01,1.01,0,0,0,.314-.776q0-1.171-1.289-1.171H2.111Z" transform="matrix(1, -0.03, 0.03, 1, 869.599, 10318.572)"/>
    <path id="Trazado_996537" data-name="Trazado 996537" d="M4.2,0H.473V-.52L2.441-2.707a4.677,4.677,0,0,0,.6-.807,1.346,1.346,0,0,0,.166-.643,1.02,1.02,0,0,0-.27-.73.942.942,0,0,0-.719-.285,1.116,1.116,0,0,0-.838.307,1.171,1.171,0,0,0-.3.854H.363a1.677,1.677,0,0,1,.506-1.27,1.875,1.875,0,0,1,1.354-.484,1.8,1.8,0,0,1,1.254.416,1.419,1.419,0,0,1,.461,1.107,3.253,3.253,0,0,1-1.07,2L1.344-.59H4.2Z" transform="matrix(1, -0.03, 0.03, 1, 852.236, 10362.018)"/>
    <path id="Trazado_996525" data-name="Trazado 996525" d="M1.523-3.2h.543a1.193,1.193,0,0,0,.8-.27.9.9,0,0,0,.293-.707.882.882,0,0,0-1-1A1.036,1.036,0,0,0,1.42-4.9a.936.936,0,0,0-.279.709H.418A1.451,1.451,0,0,1,.912-5.318a1.8,1.8,0,0,1,1.256-.447A1.779,1.779,0,0,1,3.43-5.34a1.538,1.538,0,0,1,.457,1.184,1.248,1.248,0,0,1-.24.719,1.451,1.451,0,0,1-.654.52,1.4,1.4,0,0,1,.725.492,1.367,1.367,0,0,1,.256.84,1.551,1.551,0,0,1-.5,1.215,1.872,1.872,0,0,1-1.3.449,1.922,1.922,0,0,1-1.3-.434A1.438,1.438,0,0,1,.367-1.5h.727a.93.93,0,0,0,.293.719,1.114,1.114,0,0,0,.785.27,1.093,1.093,0,0,0,.8-.273A1.054,1.054,0,0,0,3.25-1.57a.956.956,0,0,0-.3-.762,1.328,1.328,0,0,0-.879-.273H1.523Z" transform="matrix(1, -0.03, 0.03, 1, 648.694, 10591.638)"/>
    <path id="Trazado_996527" data-name="Trazado 996527" d="M4.2,0H.473V-.52L2.441-2.707a4.677,4.677,0,0,0,.6-.807,1.346,1.346,0,0,0,.166-.643,1.02,1.02,0,0,0-.27-.73.942.942,0,0,0-.719-.285,1.116,1.116,0,0,0-.838.307,1.171,1.171,0,0,0-.3.854H.363a1.677,1.677,0,0,1,.506-1.27,1.875,1.875,0,0,1,1.354-.484,1.8,1.8,0,0,1,1.254.416,1.419,1.419,0,0,1,.461,1.107,3.253,3.253,0,0,1-1.07,2L1.344-.59H4.2Z" transform="matrix(1, -0.03, 0.03, 1, 672.654, 10576.521)"/>
    <path id="Trazado_996523" data-name="Trazado 996523" d="M2.848,0H2.121V-4.816L.664-4.281v-.656l2.07-.777h.113ZM8.531-2.426A3.305,3.305,0,0,1,8.1-.539,1.542,1.542,0,0,1,6.742.078a1.553,1.553,0,0,1-1.348-.6,3.137,3.137,0,0,1-.453-1.8v-.965a3.232,3.232,0,0,1,.434-1.863,1.554,1.554,0,0,1,1.359-.609,1.568,1.568,0,0,1,1.352.588,3.119,3.119,0,0,1,.445,1.814Zm-.723-.988a2.648,2.648,0,0,0-.258-1.338.887.887,0,0,0-.816-.42.876.876,0,0,0-.809.418,2.585,2.585,0,0,0-.262,1.285v1.156A2.69,2.69,0,0,0,5.932-.951a.886.886,0,0,0,.811.439.874.874,0,0,0,.795-.414,2.593,2.593,0,0,0,.271-1.3Z" transform="matrix(1, -0.03, 0.03, 1, 684.774, 10613.925)"/>
    <path id="Trazado_996519" data-name="Trazado 996519" d="M3.523-1.91h.789v.59H3.523V0H2.8V-1.32H.207v-.426L2.754-5.687h.77Zm-2.5,0H2.8V-4.7l-.086.156ZM5.016,1.133,4.605.852A1.885,1.885,0,0,0,4.988-.2V-.855H5.7v.566A1.779,1.779,0,0,1,5.5.5,1.847,1.847,0,0,1,5.016,1.133ZM6.867-2.852l.289-2.836H10.07v.668H7.77L7.6-3.469a1.835,1.835,0,0,1,.949-.246A1.569,1.569,0,0,1,9.781-3.2a2.013,2.013,0,0,1,.457,1.389A1.943,1.943,0,0,1,9.764-.428,1.73,1.73,0,0,1,8.438.078,1.8,1.8,0,0,1,7.207-.34,1.668,1.668,0,0,1,6.664-1.5h.684A1.148,1.148,0,0,0,7.7-.76a1.081,1.081,0,0,0,.742.248.975.975,0,0,0,.791-.344A1.437,1.437,0,0,0,9.516-1.8a1.319,1.319,0,0,0-.311-.916,1.056,1.056,0,0,0-.826-.346,1.191,1.191,0,0,0-.742.207L7.445-2.7Z" transform="matrix(1, -0.03, 0.03, 1, 672.661, 10727.529)"/>
    <path id="Trazado_996535" data-name="Trazado 996535" d="M2.848,0H2.121V-4.816L.664-4.281v-.656l2.07-.777h.113Z" transform="matrix(1, -0.03, 0.03, 1, 705.107, 10388.741)"/>
    <path id="Trazado_996532" data-name="Trazado 996532" d="M2.848,0H2.121V-4.816L.664-4.281v-.656l2.07-.777h.113Z" transform="matrix(1, -0.03, 0.03, 1, 798.312, 10438.19)"/>
    <path id="Trazado_996541" data-name="Trazado 996541" d="M5.629-5.742a1.819,1.819,0,0,1-.285,1.01,2.049,2.049,0,0,1-.784.7,2.268,2.268,0,0,1,.9.755A1.936,1.936,0,0,1,5.8-2.143,2.05,2.05,0,0,1,5.086-.5a2.876,2.876,0,0,1-1.928.6A2.889,2.889,0,0,1,1.225-.5,2.045,2.045,0,0,1,.51-2.143,1.948,1.948,0,0,1,.843-3.276a2.227,2.227,0,0,1,.9-.752,2.028,2.028,0,0,1-.781-.7,1.832,1.832,0,0,1-.282-1.01,2.027,2.027,0,0,1,.666-1.593,2.622,2.622,0,0,1,1.81-.594A2.64,2.64,0,0,1,4.96-7.34,2.019,2.019,0,0,1,5.629-5.742ZM4.238-2.256a1.126,1.126,0,0,0-.3-.816,1.053,1.053,0,0,0-.795-.306,1.051,1.051,0,0,0-.79.3,1.124,1.124,0,0,0-.3.819,1.123,1.123,0,0,0,.29.806,1.056,1.056,0,0,0,.806.306,1.054,1.054,0,0,0,.792-.3A1.121,1.121,0,0,0,4.238-2.256ZM4.077-5.667A1.074,1.074,0,0,0,3.835-6.4a.858.858,0,0,0-.682-.277.864.864,0,0,0-.677.269,1.068,1.068,0,0,0-.242.741,1.122,1.122,0,0,0,.242.752.846.846,0,0,0,.682.285.838.838,0,0,0,.679-.285A1.131,1.131,0,0,0,4.077-5.667Z" transform="matrix(1, -0.03, 0.03, 1, 873.869, 10286.104)"/>
    <path id="Trazado_996521" data-name="Trazado 996521" d="M8.381-8.292H5.332V0H3.281V-8.292H.273V-9.953H8.381Zm4.854,4.648H11.6V0H9.55V-9.953h3.7a4.181,4.181,0,0,1,2.721.786,2.713,2.713,0,0,1,.957,2.222,3.062,3.062,0,0,1-.441,1.7,3.007,3.007,0,0,1-1.336,1.083L17.3-.1V0H15.1ZM11.6-5.3h1.654a1.694,1.694,0,0,0,1.2-.393,1.4,1.4,0,0,0,.424-1.083,1.5,1.5,0,0,0-.4-1.107,1.662,1.662,0,0,0-1.227-.4H11.6ZM24.1-2.051h-3.6L19.824,0H17.644l3.705-9.953h1.9L26.975,0H24.794ZM21.062-3.712H23.55L22.3-7.437Zm12,1.1a1.052,1.052,0,0,0-.41-.892,5.38,5.38,0,0,0-1.477-.656,10.467,10.467,0,0,1-1.688-.68,2.759,2.759,0,0,1-1.7-2.468,2.4,2.4,0,0,1,.455-1.439,2.965,2.965,0,0,1,1.306-.988,4.914,4.914,0,0,1,1.911-.355,4.473,4.473,0,0,1,1.9.386,3.026,3.026,0,0,1,1.3,1.09,2.853,2.853,0,0,1,.461,1.6H33.072a1.342,1.342,0,0,0-.431-1.063,1.77,1.77,0,0,0-1.21-.379,1.891,1.891,0,0,0-1.169.318,1,1,0,0,0-.417.837.96.96,0,0,0,.489.813,5.522,5.522,0,0,0,1.439.615,6.217,6.217,0,0,1,2.55,1.306,2.6,2.6,0,0,1,.8,1.941A2.4,2.4,0,0,1,34.146-.6a4.279,4.279,0,0,1-2.632.735,5.082,5.082,0,0,1-2.092-.42,3.31,3.31,0,0,1-1.439-1.152,2.95,2.95,0,0,1-.5-1.7h2.058q0,1.647,1.969,1.647a1.915,1.915,0,0,0,1.142-.3A.967.967,0,0,0,33.065-2.611Zm9.434-1.7H38.562v2.666h4.621V0H36.511V-9.953h6.658v1.661H38.562V-5.92H42.5Zm5.571.67H46.437V0H44.386V-9.953h3.7a4.181,4.181,0,0,1,2.721.786,2.713,2.713,0,0,1,.957,2.222,3.062,3.062,0,0,1-.441,1.7,3.007,3.007,0,0,1-1.336,1.083L52.138-.1V0h-2.2ZM46.437-5.3h1.654a1.694,1.694,0,0,0,1.2-.393,1.4,1.4,0,0,0,.424-1.083,1.5,1.5,0,0,0-.4-1.107,1.662,1.662,0,0,0-1.227-.4H46.437Zm12.5,3.254h-3.6L54.66,0H52.479l3.705-9.953h1.9L61.811,0H59.63ZM55.9-3.712h2.488L57.135-7.437Z" transform="translate(718.391 10666.583)"/>
    <g id="Grupo_1177198" data-name="Grupo 1177198" transform="translate(230.711 10214)">
      <g id="Grupo_1177197" data-name="Grupo 1177197" clip-path="url(#clip-path)">
        <path id="Trazado_995740" data-name="Trazado 995740" d="M488.912,565.388l1.492-72.9-67.174,37.263-.589-.733L300.569,377,543.655,208.263l.209-.049L700.8,172.05l.271,1.053c.059.206,7.2,21.959,89.506,19.5l1.185-.036-.036,1.184L780.44,563.385Zm3.8-76.728-1.524,74.482,287.088-1.973,11.186-366.3c-74.417,2.057-87.916-15.633-90.145-20.189L544.574,210.34,303.806,377.474,423.792,526.893Z" transform="translate(-77.084 -44.124)" fill="#0048c5"/>
        <path id="Trazado_995741" data-name="Trazado 995741" d="M555.6,496.094l-.975-49.339.915-.183c.286-.059,29.51-6.913,78.678-84.481.693-1.463,12.309-25.674,37.008-57.755A467.238,467.238,0,0,1,793.873,193.479l1.175,1.9A465.028,465.028,0,0,0,673.035,305.638c-25.225,32.754-36.715,57.218-36.828,57.462l-.07.127c-45.619,71.988-73.839,83.642-79.249,85.292l.94,47.532Z" transform="translate(-142.238 -49.619)" fill="#0048c5"/>
        <path id="Trazado_995742" data-name="Trazado 995742" d="M557.683,552.765l-1-1.993,56.591-28.458c-.413-3.37-1.769-17.014.448-36.478a219.218,219.218,0,0,1,29.241-86.085l1.92,1.134c-37.665,63.748-29.385,121.326-29.3,121.9l.123.8Z" transform="translate(-142.766 -102.52)" fill="#0048c5"/>
        <rect id="Rectángulo_454763" data-name="Rectángulo 454763" width="3.718" height="0.744" transform="matrix(1, -0.029, 0.029, 1, 635.45, 7.255)" fill="aqua"/>
        <path id="Trazado_995745" data-name="Trazado 995745" d="M628.288,221.427l-.52-.532,2.654-2.6.52.532Z" transform="translate(-160.997 -55.983)" fill="aqua"/>
        <path id="Trazado_995747" data-name="Trazado 995747" d="M624.951,190.5a.372.372,0,0,1-.194-.689L785.913,91.4a.371.371,0,0,1,.189-.054l12.755-.176a.372.372,0,1,1,.01.744l-12.652.175L625.145,190.444a.369.369,0,0,1-.194.054" transform="translate(-160.179 -23.38)"/>
        <path id="Trazado_995754" data-name="Trazado 995754" d="M846.312,9.046a4.471,4.471,0,1,1-4.6-4.336,4.472,4.472,0,0,1,4.6,4.336" transform="translate(-214.751 -1.207)"/>
        <path id="Trazado_995755" data-name="Trazado 995755" d="M844.848,93.573a4.472,4.472,0,1,1-4.6-4.336,4.473,4.473,0,0,1,4.6,4.336" transform="translate(-214.376 -22.885)"/>
        <path id="Trazado_995756" data-name="Trazado 995756" d="M846.085,51.948a4.471,4.471,0,1,1-4.6-4.336,4.472,4.472,0,0,1,4.6,4.336" transform="translate(-214.693 -12.21)"/>
        <path id="Trazado_995757" data-name="Trazado 995757" d="M842.588,135.882a4.471,4.471,0,1,1-4.6-4.336,4.472,4.472,0,0,1,4.6,4.336" transform="translate(-213.796 -33.736)"/>
        <path id="Trazado_995758" data-name="Trazado 995758" d="M637.184,217.643a4.471,4.471,0,1,1-4.6-4.336,4.472,4.472,0,0,1,4.6,4.336" transform="translate(-161.119 -54.704)"/>
        <path id="Trazado_995759" data-name="Trazado 995759" d="M841.722,173.706a4.471,4.471,0,1,1-4.6-4.336,4.472,4.472,0,0,1,4.6,4.336" transform="translate(-213.574 -43.436)"/>
        <path id="Trazado_995760" data-name="Trazado 995760" d="M557.16,492.146a4.471,4.471,0,1,1-4.6-4.336,4.472,4.472,0,0,1,4.6,4.336" transform="translate(-140.596 -125.103)"/>
        <path id="Trazado_995761" data-name="Trazado 995761" d="M559.073,532.3a4.471,4.471,0,1,1-4.6-4.336,4.472,4.472,0,0,1,4.6,4.336" transform="translate(-141.086 -135.4)"/>
        <path id="Trazado_995762" data-name="Trazado 995762" d="M876.127,194.653a4.471,4.471,0,1,1-4.6-4.336,4.472,4.472,0,0,1,4.6,4.336" transform="translate(-222.398 -48.808)"/>
        <path id="Trazado_995764" data-name="Trazado 995764" d="M44.262,485.953a.372.372,0,0,1-.191-.691l426.19-255.45a.371.371,0,0,1,.381.637L44.453,485.9a.364.364,0,0,1-.191.053" transform="translate(-11.256 -58.924)"/>
        <rect id="Rectángulo_454764" data-name="Rectángulo 454764" width="122.623" height="1.487" transform="translate(622.612 130.391) rotate(-88.051)"/>
        <g id="Grupo_1177203" data-name="Grupo 1177203">
          <path id="Trazado_995743" data-name="Trazado 995743" d="M638,225.28l-.23-.708,7.073-2.293.23.708Zm14.146-4.587-.229-.708,7.073-2.293.23.708Zm14.146-4.586-.23-.708,7.073-2.292.23.707Zm14.146-4.586-.229-.707,7.073-2.294.23.707Zm14.147-4.587-.23-.707,7.073-2.293.229.707Zm14.145-4.586-.23-.707,7.073-2.294.23.707Zm14.146-4.587-.229-.707,7.073-2.293.23.707Zm14.146-4.586-.23-.707,7.073-2.294.229.707Zm14.146-4.587-.229-.707,7.073-2.293.23.707ZM765.311,184l-.23-.707L772.154,181l.229.707Zm14.145-4.587-.23-.707,7.073-2.293.23.707Z" transform="translate(-163.562 -45.243)" fill="#ffa200"/>
          <path id="Trazado_995744" data-name="Trazado 995744" d="M638.952,160.251l-.52-.532,5.275-5.168.521.532Zm10.55-10.337-.52-.532,5.275-5.169.52.532Zm10.549-10.338-.519-.532,5.275-5.168.52.532ZM670.6,129.237l-.521-.531,5.275-5.17.521.532ZM681.151,118.9l-.52-.532,5.275-5.168.52.532Zm10.55-10.337-.52-.532,5.275-5.169.52.532ZM702.25,98.223l-.52-.531,5.276-5.17.519.532ZM712.8,87.885l-.52-.532,5.275-5.169.52.532ZM723.35,77.547l-.52-.532,5.275-5.169.52.532ZM733.9,67.209l-.521-.532,5.276-5.169.519.531Zm10.549-10.338-.519-.532L749.2,51.17l.52.532ZM755,46.533,754.479,46l5.275-5.169.52.532ZM765.548,36.2l-.52-.532,5.275-5.169.52.531ZM776.1,25.856l-.52-.532,5.275-5.169.519.532Zm10.55-10.337-.521-.532,5.009-4.91.661-.021.023.744-.37.012Z" transform="translate(-163.731 -2.579)" fill="#ffa200"/>
          <path id="Trazado_995746" data-name="Trazado 995746" d="M641.184,169.57l-.454-.588,5.834-4.5.455.588Zm11.723-9.039-.455-.588,5.888-4.54.455.588Zm11.775-9.082-.454-.588,5.887-4.54.454.588Zm11.776-9.081L676,141.78l5.888-4.54.454.588Zm11.776-9.081-.454-.588,5.888-4.541.454.588Zm11.776-9.081-.454-.588,5.888-4.541.454.588Zm11.776-9.081-.454-.588L717.22,110l.454.588Zm11.776-9.082-.454-.588L729,100.915l.454.588Zm11.776-9.081-.455-.588,5.888-4.541.455.588Zm11.776-9.082-.455-.588,5.888-4.54.455.588ZM758.891,78.8l-.455-.588,5.888-4.54.455.588Zm11.776-9.081-.455-.588,5.888-4.541.454.588Zm11.775-9.082-.454-.588,5.888-4.54.454.588Zm12.281-6.989-.022-.744,7.432-.223.022.744Z" transform="translate(-164.321 -13.511)" fill="#ffa200"/>
          <path id="Trazado_995748" data-name="Trazado 995748" d="M641.417,198.3l-.283-.689,5.494-2.259.283.689Zm12.371-5.087-.283-.688,6.876-2.828.283.689Zm13.753-5.655-.283-.689,6.877-2.828.283.689Zm13.753-5.655-.283-.688,6.877-2.828.283.689Zm13.754-5.655-.283-.689,6.877-2.828.283.689ZM708.8,170.6l-.283-.688,6.877-2.828.283.689Zm13.754-5.655-.283-.689,6.876-2.828.283.689Zm13.753-5.655-.283-.689,6.877-2.828.283.689Zm13.754-5.655-.283-.689,6.876-2.827.283.688Zm13.753-5.655-.283-.689,6.877-2.828.283.689Zm13.753-5.655-.283-.689,6.877-2.827.283.688Zm13.82-4.705-.022-.744,7.432-.223.022.744Z" transform="translate(-164.425 -35.046)" fill="#ffa200"/>
          <path id="Trazado_995749" data-name="Trazado 995749" d="M557.11,425.184a18.763,18.763,0,0,1-2.963-.191l.128-.732a18.653,18.653,0,0,0,2.835.179,31.121,31.121,0,0,0,4.469-.336l.108.736a31.877,31.877,0,0,1-4.577.344m11.848-2.19-.254-.7a40.54,40.54,0,0,0,6.649-3.141l.375.642a41.2,41.2,0,0,1-6.77,3.2m12.888-7.5-.475-.572a53.564,53.564,0,0,0,5.327-5.089l.549.5a54.534,54.534,0,0,1-5.4,5.158m10.1-10.95-.6-.436c1.39-1.924,2.744-4.006,4.022-6.191l.642.376c-1.291,2.2-2.657,4.307-4.06,6.251m7.552-12.832-.669-.323c1.036-2.152,2.037-4.431,2.974-6.771l.689.276c-.943,2.357-1.95,4.651-2.994,6.818m5.559-13.806-.7-.236c.764-2.277,1.5-4.658,2.177-7.079l.716.2c-.685,2.431-1.421,4.826-2.188,7.113m4.048-14.318-.724-.171c.552-2.339,1.079-4.777,1.566-7.245l.729.143c-.488,2.478-1.016,4.924-1.571,7.273M611.994,349l-.733-.121c.388-2.379.753-4.847,1.085-7.337l.738.1c-.333,2.5-.7,4.972-1.089,7.359m1.974-14.745-.739-.08c.259-2.42.494-4.906.7-7.387l.74.061c-.206,2.488-.442,4.979-.7,7.406m1.239-14.823-.742-.047c.149-2.4.278-4.9.385-7.412l.744.032c-.108,2.518-.238,5.017-.387,7.427m.634-14.86-.744-.019c.06-2.443.1-4.942.12-7.426l.744.006c-.021,2.487-.06,4.991-.12,7.439m-.617-14.875c-.017-2.456-.052-4.955-.1-7.429l.744-.016c.052,2.477.087,4.98.1,7.439Zm-.308-14.859q-.125-3.653-.3-7.424l.742-.035q.175,3.779.3,7.435Zm-.681-14.845q-.211-3.654-.466-7.416l.742-.051q.255,3.768.466,7.426Zm-1.008-14.828q-.286-3.654-.614-7.406l.741-.065q.329,3.757.614,7.414Zm-1.3-14.807q-.3-3.1-.628-6.263l.739-.077q.329,3.166.63,6.268Z" transform="translate(-142.116 -57.451)" fill="#ffa200"/>
          <path id="Trazado_995750" data-name="Trazado 995750" d="M211.95,743.387l-.325-.668,6.685-3.254.325.668Zm13.371-6.509L225,736.21l6.685-3.254.326.668Zm13.37-6.508-.325-.668,6.685-3.254.325.668Zm13.371-6.509-.325-.668,6.685-3.254.326.668Zm13.371-6.509-.326-.668,6.686-3.254.325.668Zm13.37-6.509-.325-.668,6.685-3.254.325.668Zm13.371-6.508-.326-.668,6.685-3.254.326.668Zm13.37-6.509-.325-.668,6.685-3.254.325.668Zm13.371-6.509-.326-.668,6.686-3.255.326.668Zm13.371-6.508-.326-.668,6.686-3.254.325.668Zm13.37-6.509-.325-.668,6.685-3.255.326.668Zm13.371-6.509-.326-.668,6.685-3.254.326.668Zm13.37-6.509-.325-.668,6.685-3.254.325.668Zm13.371-6.508-.326-.668,6.685-3.254.326.668Zm13.371-6.509-.325-.668,1.721-.838.325.668Z" transform="translate(-54.273 -166.894)" fill="#ffa200"/>
          <path id="Trazado_995751" data-name="Trazado 995751" d="M136.537,565.874l-.51-.542,2.584-2.428.509.541Zm8-7.519-.51-.542,5.418-5.091.51.541Zm10.836-10.184-.51-.541,5.419-5.092.51.542Zm10.837-10.184-.51-.541,5.418-5.092.51.541ZM177.05,527.8l-.509-.542,5.418-5.091.509.541Zm10.836-10.183-.509-.541,5.419-5.093.509.542Zm10.838-10.184-.51-.541,5.418-5.092.51.542Zm10.837-10.183-.51-.542,5.418-5.091.51.541ZM220.4,487.071l-.51-.542,5.419-5.092.51.542Zm10.837-10.184-.509-.541,5.418-5.092.509.542ZM242.072,466.7l-.509-.542,5.418-5.092.509.541Zm10.837-10.184-.51-.542,5.419-5.092.51.542Zm10.837-10.184-.51-.541,5.419-5.092.51.542Zm10.837-10.184-.51-.541,5.419-5.092.509.541Zm10.836-10.183-.509-.542,5.419-5.091.509.541Zm10.837-10.184-.509-.541,5.419-5.093.509.542ZM307.095,405.6l-.51-.541L312,399.971l.51.541Zm10.837-10.183-.51-.542,5.418-5.091.51.541Zm10.836-10.184-.51-.542,5.42-5.092.509.542Zm10.837-10.184-.509-.541,5.418-5.092.509.542Zm10.837-10.184-.509-.542,5.418-5.091.509.541Zm10.837-10.183-.51-.542,5.419-5.092.51.542ZM372.117,344.5l-.51-.541,5.418-5.092.51.542Zm10.837-10.184-.51-.541,5.419-5.092.509.541Zm10.836-10.183-.509-.542,5.419-5.091.509.541Zm10.837-10.184-.509-.541,5.418-5.092.509.542Zm10.838-10.183-.51-.541,5.418-5.092.51.541ZM426.3,293.589l-.51-.542,5.418-5.092.51.541ZM437.139,283.4l-.51-.542,5.42-5.092.509.542Zm10.837-10.184-.509-.541,5.418-5.092.509.542Zm10.837-10.184-.509-.542,5.418-5.091.509.541Zm10.837-10.183-.51-.542,5.419-5.092.51.542Zm10.837-10.184-.51-.541,5.418-5.093.51.542Zm10.837-10.184-.51-.542,5.419-5.091.509.541Z" transform="translate(-34.886 -58.179)" fill="#ffa200"/>
          <path id="Trazado_995752" data-name="Trazado 995752" d="M90.311,533.748l-.452-.59,5.9-4.521.451.59Zm11.805-9.043-.452-.59,5.9-4.521.451.59Zm11.805-9.043-.452-.59,5.9-4.521.451.59Zm11.805-9.043-.451-.59,5.9-4.521.451.59Zm11.805-9.043-.451-.59,5.9-4.521.452.59Zm11.805-9.043-.451-.59,5.9-4.521.452.59Zm11.805-9.043-.451-.59,5.9-4.521.452.59Zm11.805-9.043-.451-.59,5.9-4.522.452.59Zm11.806-9.043-.451-.59,5.9-4.521.452.59Zm11.805-9.044-.451-.59,5.9-4.521.452.59Zm11.805-9.042-.451-.59,5.9-4.521.452.59Zm11.805-9.043-.451-.59,5.9-4.522.452.59Zm11.806-9.043-.451-.59,5.9-4.521.451.59Zm11.805-9.043-.451-.59,5.9-4.521.451.59Zm11.805-9.043-.452-.59,5.9-4.521.451.59Zm11.805-9.043-.452-.59,5.9-4.521.451.59Zm11.805-9.043-.452-.59,5.9-4.521.451.59ZM291,380.018l-.452-.59,5.9-4.521.451.589Zm11.805-9.044-.452-.59,5.9-4.521.451.59Zm11.805-9.043-.452-.59,5.9-4.521.451.59Zm11.805-9.043-.452-.59,5.9-4.521.451.59Zm11.806-9.043-.452-.59,5.9-4.521.451.59Zm11.8-9.043-.451-.59,5.9-4.521.451.59Zm11.805-9.043-.451-.59,5.9-4.521.452.59Zm11.805-9.043-.451-.59,5.9-4.521.452.59Zm11.805-9.043-.451-.59,5.9-4.521.452.59Zm11.806-9.043-.451-.59,5.9-4.521.452.59Zm11.805-9.044L408.6,289l5.9-4.521.452.59Zm11.805-9.043-.451-.59,5.9-4.521.452.59Zm11.805-9.043-.451-.59,5.9-4.521.452.59Zm11.805-9.042-.451-.59,5.9-4.521.452.59Zm11.806-9.043-.451-.59,5.9-4.521.451.59Z" transform="translate(-23.045 -63.68)" fill="#ffa200"/>
          <path id="Trazado_995753" data-name="Trazado 995753" d="M69.571,516.681l-.422-.613,6.124-4.217.421.613Zm12.247-8.435-.421-.613,6.123-4.217.422.613Zm12.247-8.435-.421-.613,6.124-4.217.421.613Zm12.248-8.435-.422-.613,6.125-4.217.421.613Zm12.247-8.435-.421-.613,6.123-4.217.422.613Zm12.248-8.435-.421-.613,6.123-4.217.421.613Zm12.247-8.435-.422-.613,6.125-4.218.421.613Zm12.248-8.435-.422-.613L161,452.806l.422.613Zm12.247-8.435-.421-.613,6.123-4.218.422.613Zm12.248-8.435-.422-.613,6.124-4.217.421.613Zm12.247-8.435-.422-.613,6.125-4.218.421.613Zm12.247-8.435-.421-.613,6.123-4.217.422.613Zm12.248-8.435-.421-.613,6.123-4.217.421.613Zm12.247-8.435-.422-.613,6.125-4.217.421.613Zm12.247-8.435-.421-.613,6.123-4.217.422.613Zm12.248-8.435-.421-.613,6.123-4.217.421.613Zm12.248-8.435-.422-.613,6.124-4.217.421.613Zm12.246-8.435-.421-.613,6.124-4.217.422.613Zm12.248-8.435-.421-.613,6.123-4.217.421.613Zm12.248-8.435-.422-.613,6.124-4.218.421.613Zm12.246-8.435-.421-.613,6.124-4.217.422.613Zm12.248-8.435-.421-.613,6.124-4.218.421.613Zm12.248-8.435-.422-.613,6.124-4.217.421.613Zm12.247-8.435-.421-.613,6.123-4.218.422.613Zm12.247-8.435-.421-.613,6.124-4.217.422.613Zm12.248-8.435-.422-.613,6.124-4.217.421.613ZM388,297.373l-.422-.613,6.123-4.217.422.613Zm12.247-8.435-.421-.613,6.123-4.217.422.613Zm12.247-8.435-.421-.613,6.124-4.217.421.613Zm12.248-8.435-.422-.613,6.124-4.217.421.613Zm12.247-8.434-.421-.613,6.123-4.218.422.613Zm12.247-8.435-.421-.613,4.548-3.132.421.613Z" transform="translate(-17.734 -64.487)" fill="#ffa200"/>
          <path id="Trazado_995763" data-name="Trazado 995763" d="M167.667,723.5l-1.793-2.111.566-.483,1.794,2.111Zm-6.609-7.777-4.814-5.666.566-.483,4.815,5.666Zm-9.63-11.332-4.815-5.666.567-.482L152,703.913ZM141.8,693.063l-4.815-5.667.567-.482,4.815,5.667Zm-9.63-11.332-4.815-5.666.567-.483,4.814,5.667ZM122.54,670.4l-4.814-5.666.567-.483,4.814,5.666Zm-9.629-11.332L108.1,653.4l.566-.482,4.815,5.666Zm-9.63-11.332-4.814-5.666.566-.482,4.815,5.666ZM93.652,636.4l-4.815-5.666.567-.482,4.815,5.666Zm-9.63-11.332-4.815-5.666.567-.483,4.814,5.666Zm-9.629-11.332-4.815-5.667.567-.483,4.814,5.667Zm-9.63-11.333-4.814-5.666.566-.482,4.815,5.666Zm-9.63-11.332-4.814-5.667.566-.48,4.814,5.667Zm-9.629-11.332-4.815-5.666.567-.483,4.815,5.667Z" transform="translate(-10.436 -147.104)" fill="#ffa200"/>
          <path id="Trazado_995765" data-name="Trazado 995765" d="M.321,447.754,0,447.083l6.71-3.2.32.671Zm13.419-6.408-.321-.671,6.71-3.2.32.671Zm13.419-6.408-.321-.671,6.71-3.2.32.671Zm13.419-6.409-.321-.671,6.709-3.2.321.671ZM54,422.122l-.32-.671,6.709-3.2.321.671Zm13.419-6.408-.32-.671,6.709-3.2.321.671Zm13.419-6.409-.321-.671,6.71-3.2.321.671ZM94.256,402.9l-.321-.671,6.71-3.2.32.671Zm13.419-6.408-.321-.671,6.71-3.2.32.671Zm13.419-6.408-.321-.671,6.709-3.2.321.671Zm13.419-6.408-.321-.671,6.709-3.2.321.671Zm13.419-6.408-.32-.671,6.709-3.2.321.671Zm13.419-6.409-.32-.671,6.709-3.2.321.671Zm13.419-6.408-.321-.671,6.71-3.2.321.671Zm13.419-6.408-.321-.671,6.71-3.2.32.671Zm13.419-6.408-.321-.671,6.71-3.2.32.671Zm13.419-6.409-.321-.671,6.71-3.2.321.671Zm13.419-6.408-.321-.671,6.71-3.2.321.671Zm13.419-6.408-.32-.671,6.71-3.2.321.671ZM255.287,326l-.32-.671,6.71-3.2.321.671Zm13.419-6.408-.321-.671,6.71-3.2.32.671Zm13.419-6.409-.321-.671,6.71-3.2.32.671Zm13.419-6.408-.321-.671,6.71-3.2.32.671Zm13.419-6.408-.321-.671,6.71-3.2.321.671Zm13.419-6.408-.32-.671,6.709-3.2.321.671ZM335.8,287.55l-.32-.671,6.71-3.2.321.671Zm13.419-6.408-.32-.671,6.709-3.2.321.671Zm13.419-6.408-.321-.671,6.71-3.2.32.671Zm13.419-6.408-.321-.671,6.71-3.2.32.671Zm13.419-6.408-.321-.671,6.71-3.2.32.671ZM402.9,255.51l-.321-.671,6.709-3.2.321.671Zm13.419-6.409-.32-.671,6.709-3.2.321.671Zm13.419-6.408-.32-.671,6.709-3.2.321.671Zm13.419-6.408-.32-.671,6.709-3.2.321.671Zm13.419-6.409-.321-.671,6.71-3.2.32.671Z" transform="translate(0 -57.961)" fill="#ffa200"/>
        </g>
        <path id="Trazado_995766" data-name="Trazado 995766" d="M556.018,448.236a.372.372,0,0,1-.271-.627l238.7-253.24a.372.372,0,0,1,.541.51l-238.7,253.24a.371.371,0,0,1-.271.117" transform="translate(-142.5 -49.818)"/>
        <path id="Trazado_995767" data-name="Trazado 995767" d="M555.527,524.935a.371.371,0,0,1-.371-.355l-1.422-30.869a.367.367,0,0,1,.1-.274.378.378,0,0,1,.27-.115l296.424,1.022a.372.372,0,0,1,0,.744h0l-296.033-1.021,1.4,30.479a.371.371,0,0,1-.354.388h-.017" transform="translate(-142.01 -126.517)"/>
        <path id="Trazado_995768" data-name="Trazado 995768" d="M626.931,413.972a.372.372,0,0,1,0-.744l242.463-.1a.372.372,0,1,1,0,.744Z" transform="translate(-160.687 -105.95)"/>
        <path id="Trazado_995769" data-name="Trazado 995769" d="M799.229,646.558l-12.84-140.736L771.169,645.979l-2.218-.242,16.426-151.254,2.219.019L801.45,646.355Z" transform="translate(-197.204 -126.815)"/>
        <rect id="Rectángulo_454765" data-name="Rectángulo 454765" width="150.314" height="0.744" transform="translate(587.713 518.095) rotate(-89.542)"/>
        <path id="Trazado_995770" data-name="Trazado 995770" d="M810.848,288.515a.744.744,0,0,1-.022-1.487l85.541-2.567a.744.744,0,1,1,.045,1.487l-85.541,2.567Z" transform="translate(-207.759 -72.953)"/>
        <path id="Trazado_995771" data-name="Trazado 995771" d="M799.041,286.706a44.94,44.94,0,0,0,12.492-7.45l-2.345,7.145,2.77,6.992a44.918,44.918,0,0,0-12.917-6.687" transform="translate(-204.921 -71.618)"/>
        <path id="Trazado_995772" data-name="Trazado 995772" d="M556.608,733.988a1.115,1.115,0,0,1-1.114-1.082l-.97-32.313a1.114,1.114,0,0,1,1.081-1.148,1.094,1.094,0,0,1,1.148,1.081l.97,32.313a1.115,1.115,0,0,1-1.081,1.148h-.034" transform="translate(-142.213 -179.378)"/>
        <path id="Trazado_995773" data-name="Trazado 995773" d="M554.017,755.818c-2.539-6.261-6.784-14-11.175-18.739l10.719,3.517,10.486-4.153c-4.1,5-7.873,12.973-10.03,19.375" transform="translate(-139.217 -188.868)"/>
        <path id="Trazado_995774" data-name="Trazado 995774" d="M632.487,100.631a.744.744,0,0,1-.022-1.487l133.544-4.008a.744.744,0,0,1,.045,1.487L632.51,100.631Z" transform="translate(-162.016 -24.398)"/>
        <path id="Trazado_995775" data-name="Trazado 995775" d="M819.959,93.469a44.939,44.939,0,0,0-12.492,7.45l2.344-7.145-2.769-6.992a44.894,44.894,0,0,0,12.917,6.687" transform="translate(-206.973 -22.256)"/>
        <path id="Trazado_995776" data-name="Trazado 995776" d="M815.081,339.876a.736.736,0,0,1-.372-.1l-30.532-17.658a.743.743,0,1,1,.745-1.286l30.532,17.658a.743.743,0,0,1-.373,1.387" transform="translate(-201.014 -82.254)"/>
        <path id="Trazado_995777" data-name="Trazado 995777" d="M774.358,315.689a44.947,44.947,0,0,0,14.544.242l-5.755,4.841-1.326,7.4a44.9,44.9,0,0,0-7.463-12.485" transform="translate(-198.591 -80.961)"/>
      </g>
    </g>
    <path id="Trazado_996544" data-name="Trazado 996544" d="M-69.009-2.611a1.052,1.052,0,0,0-.41-.892A5.38,5.38,0,0,0-70.9-4.16a10.467,10.467,0,0,1-1.688-.68,2.759,2.759,0,0,1-1.7-2.468,2.4,2.4,0,0,1,.455-1.439,2.965,2.965,0,0,1,1.306-.988,4.914,4.914,0,0,1,1.911-.355,4.473,4.473,0,0,1,1.9.386,3.026,3.026,0,0,1,1.3,1.09,2.853,2.853,0,0,1,.461,1.6H-69a1.342,1.342,0,0,0-.431-1.063,1.77,1.77,0,0,0-1.21-.379,1.891,1.891,0,0,0-1.169.318,1,1,0,0,0-.417.837.96.96,0,0,0,.489.813,5.522,5.522,0,0,0,1.439.615,6.217,6.217,0,0,1,2.55,1.306,2.6,2.6,0,0,1,.8,1.941A2.4,2.4,0,0,1-67.929-.6a4.279,4.279,0,0,1-2.632.735,5.082,5.082,0,0,1-2.092-.42,3.31,3.31,0,0,1-1.439-1.152,2.95,2.95,0,0,1-.5-1.7h2.058q0,1.647,1.969,1.647a1.915,1.915,0,0,0,1.142-.3A.967.967,0,0,0-69.009-2.611Zm7.745,1.859a2.477,2.477,0,0,1-2.023.889A2.337,2.337,0,0,1-65.1-.547a2.918,2.918,0,0,1-.639-2V-7.4h1.976v4.778q0,1.155,1.053,1.155a1.427,1.427,0,0,0,1.381-.7V-7.4h1.982V0h-1.859ZM-51.194-3.63a4.479,4.479,0,0,1-.759,2.772,2.513,2.513,0,0,1-2.119.995,2.309,2.309,0,0,1-1.921-.923L-56.082,0h-1.777V-10.5h1.976v3.767a2.25,2.25,0,0,1,1.8-.8,2.534,2.534,0,0,1,2.123.995,4.485,4.485,0,0,1,.769,2.8Zm-1.976-.144a2.942,2.942,0,0,0-.355-1.637,1.2,1.2,0,0,0-1.06-.516,1.3,1.3,0,0,0-1.3.772v2.919a1.321,1.321,0,0,0,1.313.779A1.22,1.22,0,0,0-53.313-2.4,4.866,4.866,0,0,0-53.17-3.773ZM-47.893,0h-1.982V-7.4h1.982Zm-2.1-9.311a.973.973,0,0,1,.3-.731,1.117,1.117,0,0,1,.81-.287,1.12,1.12,0,0,1,.807.287.967.967,0,0,1,.3.731.97.97,0,0,1-.3.738,1.122,1.122,0,0,1-.8.287,1.122,1.122,0,0,1-.8-.287A.97.97,0,0,1-49.991-9.311Zm7.882,3.767A5.367,5.367,0,0,0-42.82-5.6a1.447,1.447,0,0,0-1.47.759V0h-1.976V-7.4H-44.4l.055.882A1.831,1.831,0,0,1-42.7-7.533a2.07,2.07,0,0,1,.615.089Zm8.442,3.5a.637.637,0,0,0-.359-.571,4.077,4.077,0,0,0-1.152-.373q-2.639-.554-2.639-2.242A2.032,2.032,0,0,1-37-6.874a3.3,3.3,0,0,1,2.136-.66,3.547,3.547,0,0,1,2.252.663,2.09,2.09,0,0,1,.844,1.723h-1.976a.956.956,0,0,0-.273-.7,1.157,1.157,0,0,0-.854-.277,1.182,1.182,0,0,0-.772.226.712.712,0,0,0-.273.574.609.609,0,0,0,.311.53,3.2,3.2,0,0,0,1.049.349,8.571,8.571,0,0,1,1.244.332,2.044,2.044,0,0,1,1.565,1.989,1.929,1.929,0,0,1-.868,1.637,3.745,3.745,0,0,1-2.242.625,3.912,3.912,0,0,1-1.651-.332A2.77,2.77,0,0,1-37.639-1.1a2.113,2.113,0,0,1-.41-1.248h1.873a1.031,1.031,0,0,0,.39.807,1.546,1.546,0,0,0,.971.28,1.43,1.43,0,0,0,.858-.215A.67.67,0,0,0-33.667-2.044Zm6.6,2.181a3.631,3.631,0,0,1-2.649-1,3.548,3.548,0,0,1-1.022-2.659v-.191A4.468,4.468,0,0,1-30.311-5.7a3.161,3.161,0,0,1,1.22-1.354,3.425,3.425,0,0,1,1.8-.475,3.07,3.07,0,0,1,2.389.957,3.889,3.889,0,0,1,.872,2.714v.807h-4.71a1.835,1.835,0,0,0,.578,1.162,1.746,1.746,0,0,0,1.22.438,2.132,2.132,0,0,0,1.784-.827l.971,1.087a2.966,2.966,0,0,1-1.2.981A3.947,3.947,0,0,1-27.07.137Zm-.226-6.07a1.237,1.237,0,0,0-.954.4A2.048,2.048,0,0,0-28.718-4.4h2.748V-4.56a1.46,1.46,0,0,0-.355-1.015A1.277,1.277,0,0,0-27.3-5.934Zm4.1,2.181a4.335,4.335,0,0,1,.81-2.741A2.625,2.625,0,0,1-20.2-7.533a2.3,2.3,0,0,1,1.894.834l.082-.7h1.791v7.15a3.161,3.161,0,0,1-.441,1.688,2.832,2.832,0,0,1-1.241,1.094,4.362,4.362,0,0,1-1.873.376,4.056,4.056,0,0,1-1.586-.325,2.815,2.815,0,0,1-1.169-.837l.875-1.2a2.314,2.314,0,0,0,1.791.827,1.694,1.694,0,0,0,1.224-.42,1.577,1.577,0,0,0,.438-1.193v-.4a2.285,2.285,0,0,1-1.8.772A2.618,2.618,0,0,1-22.371-.906a4.334,4.334,0,0,1-.824-2.765Zm1.976.144a2.692,2.692,0,0,0,.4,1.576,1.284,1.284,0,0,0,1.107.571,1.372,1.372,0,0,0,1.292-.677V-5.25a1.369,1.369,0,0,0-1.278-.677,1.292,1.292,0,0,0-1.118.581A3.034,3.034,0,0,0-21.219-3.609ZM-10.486-.752A2.477,2.477,0,0,1-12.51.137a2.337,2.337,0,0,1-1.815-.684,2.918,2.918,0,0,1-.639-2V-7.4h1.976v4.778q0,1.155,1.053,1.155a1.427,1.427,0,0,0,1.381-.7V-7.4h1.982V0h-1.859Zm-.882-9.748h2.153l-1.894,2.119h-1.606Zm6.1,3.1.062.854a2.582,2.582,0,0,1,2.126-.991,2.146,2.146,0,0,1,1.75.69A3.221,3.221,0,0,1-.738-4.778V0H-2.714V-4.73a1.282,1.282,0,0,0-.273-.913A1.224,1.224,0,0,0-3.9-5.927a1.359,1.359,0,0,0-1.251.711V0H-7.123V-7.4ZM-80.254,17h-1.982V6.5h1.982Zm5.913,0a2.194,2.194,0,0,1-.2-.663,2.39,2.39,0,0,1-1.866.8,2.626,2.626,0,0,1-1.8-.629,2.023,2.023,0,0,1-.714-1.586,2.09,2.09,0,0,1,.872-1.8,4.3,4.3,0,0,1,2.519-.636h.909v-.424a1.219,1.219,0,0,0-.263-.82,1.035,1.035,0,0,0-.831-.308,1.177,1.177,0,0,0-.783.239.813.813,0,0,0-.284.656h-1.976a1.985,1.985,0,0,1,.4-1.189,2.621,2.621,0,0,1,1.121-.858,4.086,4.086,0,0,1,1.627-.311,3.228,3.228,0,0,1,2.17.687,2.4,2.4,0,0,1,.8,1.931v3.206a3.536,3.536,0,0,0,.294,1.593V17Zm-1.634-1.374a1.7,1.7,0,0,0,.807-.195,1.28,1.28,0,0,0,.547-.523V13.637h-.738q-1.483,0-1.579,1.025l-.007.116a.791.791,0,0,0,.26.608A1.009,1.009,0,0,0-75.975,15.626ZM-65.55,17h-1.982V9.6h1.982Zm-2.1-9.311a.973.973,0,0,1,.3-.731,1.117,1.117,0,0,1,.81-.287,1.12,1.12,0,0,1,.807.287.967.967,0,0,1,.3.731.97.97,0,0,1-.3.738,1.122,1.122,0,0,1-.8.287,1.122,1.122,0,0,1-.8-.287A.97.97,0,0,1-67.648,7.689ZM-62.1,9.6l.062.854a2.582,2.582,0,0,1,2.126-.991,2.146,2.146,0,0,1,1.75.69,3.221,3.221,0,0,1,.588,2.064V17h-1.976V12.27a1.282,1.282,0,0,0-.273-.913,1.224,1.224,0,0,0-.909-.284,1.359,1.359,0,0,0-1.251.711V17h-1.976V9.6Zm9.1,5.94a1.3,1.3,0,0,0,.889-.3,1.054,1.054,0,0,0,.355-.8h1.853a2.534,2.534,0,0,1-.41,1.377,2.706,2.706,0,0,1-1.1.971,3.455,3.455,0,0,1-1.548.345,3.211,3.211,0,0,1-2.5-1.008,3.99,3.99,0,0,1-.916-2.786v-.13a3.944,3.944,0,0,1,.909-2.728,3.174,3.174,0,0,1,2.5-1.019,3.111,3.111,0,0,1,2.225.79,2.8,2.8,0,0,1,.851,2.1h-1.853a1.346,1.346,0,0,0-.355-.933,1.188,1.188,0,0,0-.9-.359,1.19,1.19,0,0,0-1.042.5,2.908,2.908,0,0,0-.352,1.63V13.4a2.945,2.945,0,0,0,.349,1.641A1.205,1.205,0,0,0-53.006,15.544ZM-46.7,17h-1.982V6.5H-46.7Zm3.712,0h-1.982V9.6h1.982Zm-2.1-9.311a.973.973,0,0,1,.3-.731,1.117,1.117,0,0,1,.81-.287,1.12,1.12,0,0,1,.807.287.967.967,0,0,1,.3.731.97.97,0,0,1-.3.738,1.122,1.122,0,0,1-.8.287,1.122,1.122,0,0,1-.8-.287A.97.97,0,0,1-45.083,7.689ZM-39.539,9.6l.062.854a2.582,2.582,0,0,1,2.126-.991,2.146,2.146,0,0,1,1.75.69,3.221,3.221,0,0,1,.588,2.064V17h-1.976V12.27a1.282,1.282,0,0,0-.273-.913,1.224,1.224,0,0,0-.909-.284,1.359,1.359,0,0,0-1.251.711V17H-41.4V9.6ZM-29.23,17a2.194,2.194,0,0,1-.2-.663,2.39,2.39,0,0,1-1.866.8,2.626,2.626,0,0,1-1.8-.629,2.023,2.023,0,0,1-.714-1.586,2.09,2.09,0,0,1,.872-1.8,4.3,4.3,0,0,1,2.519-.636h.909v-.424a1.219,1.219,0,0,0-.263-.82,1.035,1.035,0,0,0-.831-.308,1.177,1.177,0,0,0-.783.239.813.813,0,0,0-.284.656h-1.976a1.984,1.984,0,0,1,.4-1.189,2.621,2.621,0,0,1,1.121-.858A4.086,4.086,0,0,1-30.5,9.467a3.228,3.228,0,0,1,2.17.687,2.4,2.4,0,0,1,.8,1.931v3.206a3.536,3.536,0,0,0,.294,1.593V17Zm-1.634-1.374a1.7,1.7,0,0,0,.807-.195,1.28,1.28,0,0,0,.547-.523V13.637h-.738q-1.483,0-1.579,1.025l-.007.116a.791.791,0,0,0,.26.608A1.009,1.009,0,0,0-30.864,15.626Zm7.93-.082a1.3,1.3,0,0,0,.889-.3,1.054,1.054,0,0,0,.355-.8h1.853a2.534,2.534,0,0,1-.41,1.377,2.706,2.706,0,0,1-1.1.971,3.455,3.455,0,0,1-1.548.345,3.211,3.211,0,0,1-2.5-1.008,3.99,3.99,0,0,1-.916-2.786v-.13a3.944,3.944,0,0,1,.909-2.728,3.174,3.174,0,0,1,2.5-1.019,3.111,3.111,0,0,1,2.225.79,2.8,2.8,0,0,1,.851,2.1H-21.69a1.346,1.346,0,0,0-.355-.933,1.188,1.188,0,0,0-.9-.359,1.19,1.19,0,0,0-1.042.5,2.908,2.908,0,0,0-.352,1.63V13.4a2.945,2.945,0,0,0,.349,1.641A1.205,1.205,0,0,0-22.935,15.544ZM-16.625,17h-1.982V9.6h1.982Zm-2.1-9.311a.973.973,0,0,1,.3-.731,1.117,1.117,0,0,1,.81-.287,1.12,1.12,0,0,1,.807.287.967.967,0,0,1,.3.731.97.97,0,0,1-.3.738,1.122,1.122,0,0,1-.8.287,1.122,1.122,0,0,1-.8-.287A.97.97,0,0,1-18.724,7.689Zm3.418,5.544a4.387,4.387,0,0,1,.424-1.962,3.1,3.1,0,0,1,1.22-1.333,3.56,3.56,0,0,1,1.849-.472,3.368,3.368,0,0,1,2.444.916,3.676,3.676,0,0,1,1.056,2.488l.014.506a3.866,3.866,0,0,1-.95,2.731,3.3,3.3,0,0,1-2.55,1.029,3.319,3.319,0,0,1-2.553-1.025,3.934,3.934,0,0,1-.954-2.789Zm1.976.144a2.757,2.757,0,0,0,.4,1.61,1.309,1.309,0,0,0,1.135.557,1.312,1.312,0,0,0,1.121-.55,3.017,3.017,0,0,0,.4-1.76,2.73,2.73,0,0,0-.4-1.6,1.312,1.312,0,0,0-1.135-.567,1.29,1.29,0,0,0-1.121.564A3.068,3.068,0,0,0-13.33,13.377ZM-11.423,6.5H-9.27l-1.894,2.119H-12.77Zm6.159,3.1.062.854a2.582,2.582,0,0,1,2.126-.991,2.146,2.146,0,0,1,1.75.69,3.221,3.221,0,0,1,.588,2.064V17H-2.714V12.27a1.282,1.282,0,0,0-.273-.913,1.224,1.224,0,0,0-.909-.284,1.359,1.359,0,0,0-1.251.711V17H-7.123V9.6Z" transform="matrix(1, -0.03, 0.03, 1, 791.147, 10239.547)"/>
    <g id="Grupo_1177200" data-name="Grupo 1177200" transform="translate(230.711 10214)">
      <g id="Grupo_1177199" data-name="Grupo 1177199" clip-path="url(#clip-path)">
        <path id="Trazado_995778" data-name="Trazado 995778" d="M47.317,572.143a4.471,4.471,0,1,1-4.6-4.336,4.472,4.472,0,0,1,4.6,4.336" transform="translate(-9.842 -145.619)"/>
        <path id="Trazado_995779" data-name="Trazado 995779" d="M214.771,773.21a4.471,4.471,0,1,1-4.6-4.336,4.472,4.472,0,0,1,4.6,4.336" transform="translate(-52.787 -197.184)"/>
        <path id="Trazado_995780" data-name="Trazado 995780" d="M558.952,699.269a4.472,4.472,0,1,1-4.6-4.336,4.473,4.473,0,0,1,4.6,4.336" transform="translate(-141.055 -178.221)"/>
        <path id="Trazado_995781" data-name="Trazado 995781" d="M641.337,696.8a4.471,4.471,0,1,1-4.6-4.336,4.472,4.472,0,0,1,4.6,4.336" transform="translate(-162.184 -177.587)"/>
        <path id="Trazado_995782" data-name="Trazado 995782" d="M946.079,695.237a4.471,4.471,0,1,1-4.6-4.336,4.472,4.472,0,0,1,4.6,4.336" transform="translate(-240.338 -177.187)"/>
        <path id="Trazado_995783" data-name="Trazado 995783" d="M952.824,493.611a4.471,4.471,0,1,1-4.6-4.336,4.472,4.472,0,0,1,4.6,4.336" transform="translate(-242.067 -125.479)"/>
        <path id="Trazado_995784" data-name="Trazado 995784" d="M72.36,606.073a4.471,4.471,0,1,1-4.6-4.336,4.472,4.472,0,0,1,4.6,4.336" transform="translate(-16.264 -154.32)"/>
        <rect id="Rectángulo_454767" data-name="Rectángulo 454767" width="0.744" height="98.953" transform="translate(471.344 420.446) rotate(-1.719)"/>
      </g>
    </g>
    <path id="Trazado_996524" data-name="Trazado 996524" d="M2.52-3.006V0H.762V-8.531H4.09a3.85,3.85,0,0,1,1.69.352,2.591,2.591,0,0,1,1.122,1,2.786,2.786,0,0,1,.393,1.474,2.45,2.45,0,0,1-.858,1.978,3.575,3.575,0,0,1-2.376.724Zm0-1.424H4.09a1.544,1.544,0,0,0,1.063-.328A1.193,1.193,0,0,0,5.52-5.7,1.407,1.407,0,0,0,5.15-6.709a1.379,1.379,0,0,0-1.02-.4H2.52ZM8.572-4.2l.492-4.336h4.781v1.412H10.453l-.211,1.834a2.685,2.685,0,0,1,1.283-.322,2.459,2.459,0,0,1,1.91.756,3.019,3.019,0,0,1,.691,2.115,3.093,3.093,0,0,1-.349,1.479,2.461,2.461,0,0,1-1,1.014,3.119,3.119,0,0,1-1.535.36A3.312,3.312,0,0,1,9.809-.2a2.546,2.546,0,0,1-1.046-.882,2.4,2.4,0,0,1-.407-1.295h1.676a1.252,1.252,0,0,0,.372.829,1.18,1.18,0,0,0,.835.3,1.041,1.041,0,0,0,.885-.413,1.914,1.914,0,0,0,.311-1.169,1.582,1.582,0,0,0-.357-1.113,1.312,1.312,0,0,0-1.014-.387,1.466,1.466,0,0,0-.979.316l-.164.152Z" transform="translate(238.48 10644.232)"/>
  </g>
</svg>
