<svg xmlns="http://www.w3.org/2000/svg" xmlns:xlink="http://www.w3.org/1999/xlink" width="650.859" height="697.412" viewBox="0 0 650.859 697.412">
  <defs>
    <clipPath id="clip-path">
      <rect id="Rectángulo_454769" data-name="Rectángulo 454769" width="650.859" height="697.412" fill="none"/>
    </clipPath>
  </defs>
  <g id="Grupo_1177310" data-name="Grupo 1177310" transform="translate(-733.711 -12801)">
    <path id="Trazado_996545" data-name="Trazado 996545" d="M1.143,0V-12.8H5.08a5.98,5.98,0,0,1,3.019.76,5.3,5.3,0,0,1,2.079,2.162,6.669,6.669,0,0,1,.747,3.186V-6.1a6.688,6.688,0,0,1-.734,3.173A5.256,5.256,0,0,1,8.121-.773,6.025,6.025,0,0,1,5.106,0ZM3.779-10.661v8.543H5.054A2.863,2.863,0,0,0,7.418-3.129a4.567,4.567,0,0,0,.835-2.892V-6.7a4.64,4.64,0,0,0-.809-2.958A2.854,2.854,0,0,0,5.08-10.661ZM20.54-5.546H15.478v3.428h5.941V0H12.841V-12.8H21.4v2.136H15.478v3.05H20.54ZM25.6-2.118h5.6V0H22.966V-12.8H25.6Zm14.664-.519H35.643L34.765,0h-2.8l4.764-12.8h2.443L43.958,0h-2.8ZM36.355-4.772h3.2l-1.608-4.79ZM55.559,0H52.923L47.79-8.42V0H45.153V-12.8H47.79l5.142,8.438V-12.8h2.628ZM67.243-10.661h-3.92V0H60.686V-10.661H56.819V-12.8H67.243Zm9.2,5.115H71.383v3.428h5.941V0H68.746V-12.8h8.561v2.136H71.383v3.05h5.063Zm7.163.861h-2.1V0H78.871V-12.8h4.755a5.375,5.375,0,0,1,3.5,1.011,3.488,3.488,0,0,1,1.23,2.856,3.937,3.937,0,0,1-.567,2.184,3.866,3.866,0,0,1-1.718,1.393L88.838-.123V0h-2.83Zm-2.1-2.136h2.127a2.178,2.178,0,0,0,1.538-.505,1.806,1.806,0,0,0,.545-1.393,1.933,1.933,0,0,0-.514-1.424,2.137,2.137,0,0,0-1.578-.519H81.508ZM97.583-2.637H92.96L92.081,0h-2.8l4.764-12.8h2.443L101.274,0h-2.8ZM93.672-4.772h3.2l-1.608-4.79Z" transform="translate(846.553 13083.52)"/>
    <path id="Trazado_996546" data-name="Trazado 996546" d="M10.775-10.661H6.855V0H4.219V-10.661H.352V-12.8H10.775Zm6.24,5.977h-2.1V0H12.278V-12.8h4.755a5.375,5.375,0,0,1,3.5,1.011,3.488,3.488,0,0,1,1.23,2.856,3.937,3.937,0,0,1-.567,2.184,3.866,3.866,0,0,1-1.718,1.393L22.245-.123V0h-2.83Zm-2.1-2.136h2.127a2.178,2.178,0,0,0,1.538-.505,1.806,1.806,0,0,0,.545-1.393,1.933,1.933,0,0,0-.514-1.424,2.137,2.137,0,0,0-1.578-.519H14.915ZM30.99-2.637H26.367L25.488,0h-2.8l4.764-12.8h2.443L34.682,0h-2.8ZM27.079-4.772h3.2L28.67-9.562ZM42.513-3.357A1.353,1.353,0,0,0,41.985-4.5a6.917,6.917,0,0,0-1.9-.844,13.458,13.458,0,0,1-2.171-.875A3.547,3.547,0,0,1,35.736-9.4a3.09,3.09,0,0,1,.584-1.85A3.812,3.812,0,0,1,38-12.516a6.318,6.318,0,0,1,2.457-.457,5.751,5.751,0,0,1,2.443.5,3.891,3.891,0,0,1,1.666,1.4,3.668,3.668,0,0,1,.593,2.057H42.521a1.726,1.726,0,0,0-.554-1.367,2.276,2.276,0,0,0-1.556-.488,2.432,2.432,0,0,0-1.5.409,1.289,1.289,0,0,0-.536,1.077A1.235,1.235,0,0,0,39-8.341a7.1,7.1,0,0,0,1.85.791A7.994,7.994,0,0,1,44.13-5.871a3.343,3.343,0,0,1,1.028,2.5A3.08,3.08,0,0,1,43.9-.769a5.5,5.5,0,0,1-3.384.945,6.534,6.534,0,0,1-2.689-.541,4.256,4.256,0,0,1-1.85-1.481,3.793,3.793,0,0,1-.637-2.18h2.646q0,2.118,2.531,2.118a2.462,2.462,0,0,0,1.468-.382A1.244,1.244,0,0,0,42.513-3.357ZM54.642-5.546H49.579v3.428h5.941V0H46.942V-12.8H55.5v2.136H49.579v3.05h5.063Zm7.163.861H59.7V0H57.067V-12.8h4.755a5.375,5.375,0,0,1,3.5,1.011,3.488,3.488,0,0,1,1.23,2.856,3.937,3.937,0,0,1-.567,2.184,3.866,3.866,0,0,1-1.718,1.393L67.034-.123V0H64.2ZM59.7-6.82h2.127a2.178,2.178,0,0,0,1.538-.505,1.806,1.806,0,0,0,.545-1.393,1.933,1.933,0,0,0-.514-1.424,2.137,2.137,0,0,0-1.578-.519H59.7ZM75.779-2.637H71.156L70.277,0h-2.8l4.764-12.8h2.443L79.471,0h-2.8ZM71.868-4.772h3.2l-1.608-4.79Z" transform="translate(1182.533 13083.52)"/>
    <path id="Trazado_996547" data-name="Trazado 996547" d="M2.651-1.15H7.705V0H1.238V-10.664H2.651ZM10.569,0H9.207V-7.925h1.362Zm.015-11.243h1.641L10.261-9.089H9.17Zm3.5,3.318.044,1A2.888,2.888,0,0,1,16.5-8.071q2.512,0,2.534,2.834V0H17.681V-5.244a1.824,1.824,0,0,0-.392-1.267,1.57,1.57,0,0,0-1.2-.41,1.956,1.956,0,0,0-1.157.352,2.387,2.387,0,0,0-.776.923V0H12.8V-7.925ZM24.368.146A3.463,3.463,0,0,1,21.746-.912a3.928,3.928,0,0,1-1.011-2.831v-.249a4.756,4.756,0,0,1,.45-2.106,3.514,3.514,0,0,1,1.26-1.45A3.167,3.167,0,0,1,24.2-8.071a2.968,2.968,0,0,1,2.4,1.018,4.408,4.408,0,0,1,.857,2.915v.564H22.09a2.817,2.817,0,0,0,.685,1.893,2.153,2.153,0,0,0,1.666.721,2.36,2.36,0,0,0,1.216-.293,3.055,3.055,0,0,0,.872-.776l.828.645A3.328,3.328,0,0,1,24.368.146Zm-.168-7.1a1.807,1.807,0,0,0-1.377.6,2.9,2.9,0,0,0-.688,1.674H26.1v-.1a2.581,2.581,0,0,0-.557-1.6A1.7,1.7,0,0,0,24.2-6.958ZM33.918,0a2.846,2.846,0,0,1-.19-.835,3.023,3.023,0,0,1-2.256.981A2.8,2.8,0,0,1,29.55-.516,2.145,2.145,0,0,1,28.8-2.2,2.24,2.24,0,0,1,29.74-4.12,4.437,4.437,0,0,1,32.388-4.8h1.318v-.623a1.522,1.522,0,0,0-.425-1.132,1.707,1.707,0,0,0-1.252-.421,1.976,1.976,0,0,0-1.216.366,1.079,1.079,0,0,0-.491.886H28.96a1.87,1.87,0,0,1,.421-1.146,2.874,2.874,0,0,1,1.143-.875,3.844,3.844,0,0,1,1.586-.322,3.133,3.133,0,0,1,2.146.685A2.47,2.47,0,0,1,35.061-5.5v3.647a4.459,4.459,0,0,0,.278,1.736V0ZM31.67-1.033a2.381,2.381,0,0,0,1.208-.33,1.994,1.994,0,0,0,.828-.857V-3.845H32.644q-2.49,0-2.49,1.458a1.234,1.234,0,0,0,.425,1A1.633,1.633,0,0,0,31.67-1.033Zm12.407.073A1.952,1.952,0,0,0,45.344-1.4a1.546,1.546,0,0,0,.6-1.1h1.282a2.457,2.457,0,0,1-.469,1.3A3.087,3.087,0,0,1,45.6-.22a3.329,3.329,0,0,1-1.527.366A3.265,3.265,0,0,1,41.5-.934a4.3,4.3,0,0,1-.956-2.955v-.227a4.771,4.771,0,0,1,.425-2.058,3.236,3.236,0,0,1,1.219-1.4,3.464,3.464,0,0,1,1.879-.5,3.178,3.178,0,0,1,2.216.8A2.853,2.853,0,0,1,47.227-5.2H45.945a1.867,1.867,0,0,0-.582-1.263,1.811,1.811,0,0,0-1.293-.494,1.9,1.9,0,0,0-1.6.743,3.491,3.491,0,0,0-.568,2.15v.256A3.422,3.422,0,0,0,42.466-1.7,1.906,1.906,0,0,0,44.077-.959ZM50.222,0H48.867V-7.925h1.355ZM48.757-10.027a.809.809,0,0,1,.2-.557.756.756,0,0,1,.6-.227.768.768,0,0,1,.6.227.8.8,0,0,1,.205.557.774.774,0,0,1-.205.549.782.782,0,0,1-.6.22.77.77,0,0,1-.6-.22A.782.782,0,0,1,48.757-10.027Zm4.915,2.1.044,1a2.888,2.888,0,0,1,2.373-1.143q2.512,0,2.534,2.834V0H57.268V-5.244a1.824,1.824,0,0,0-.392-1.267,1.57,1.57,0,0,0-1.2-.41,1.956,1.956,0,0,0-1.157.352,2.387,2.387,0,0,0-.776.923V0H52.39V-7.925ZM62.5-9.844v1.919h1.479v1.047H62.5v4.915a1.1,1.1,0,0,0,.2.714.833.833,0,0,0,.674.238,3.281,3.281,0,0,0,.645-.088V0a3.928,3.928,0,0,1-1.04.146A1.687,1.687,0,0,1,61.611-.4a2.36,2.36,0,0,1-.461-1.56V-6.877H59.707V-7.925H61.15V-9.844Zm7.954,9.06a2.878,2.878,0,0,1-2.322.93,2.464,2.464,0,0,1-1.93-.736,3.186,3.186,0,0,1-.67-2.179V-7.925h1.355v5.12q0,1.8,1.465,1.8a2.028,2.028,0,0,0,2.065-1.157V-7.925h1.355V0H70.488Zm7.207-5.925A4.06,4.06,0,0,0,77-6.76,1.786,1.786,0,0,0,75.19-5.625V0H73.835V-7.925h1.318l.022.916a2.11,2.11,0,0,1,1.89-1.062,1.384,1.384,0,0,1,.6.1ZM83.226,0a2.846,2.846,0,0,1-.19-.835,3.023,3.023,0,0,1-2.256.981,2.8,2.8,0,0,1-1.923-.663A2.145,2.145,0,0,1,78.106-2.2a2.24,2.24,0,0,1,.941-1.923A4.437,4.437,0,0,1,81.695-4.8h1.318v-.623a1.522,1.522,0,0,0-.425-1.132,1.707,1.707,0,0,0-1.252-.421,1.976,1.976,0,0,0-1.216.366,1.079,1.079,0,0,0-.491.886H78.267a1.87,1.87,0,0,1,.421-1.146,2.874,2.874,0,0,1,1.143-.875,3.844,3.844,0,0,1,1.586-.322,3.133,3.133,0,0,1,2.146.685A2.47,2.47,0,0,1,84.368-5.5v3.647a4.459,4.459,0,0,0,.278,1.736V0ZM80.977-1.033a2.381,2.381,0,0,0,1.208-.33,1.994,1.994,0,0,0,.828-.857V-3.845H81.951q-2.49,0-2.49,1.458a1.234,1.234,0,0,0,.425,1A1.633,1.633,0,0,0,80.977-1.033Z" transform="translate(1181.242 13238.368)"/>
    <path id="Trazado_996548" data-name="Trazado 996548" d="M2.828-1.227H8.219V0H1.32V-11.375H2.828ZM11.273,0H9.82V-8.453h1.453Zm.016-11.992h1.75L10.945-9.7H9.781Zm3.734,3.539.047,1.063A3.08,3.08,0,0,1,17.6-8.609q2.68,0,2.7,3.023V0H18.859V-5.594a1.946,1.946,0,0,0-.418-1.352,1.675,1.675,0,0,0-1.277-.437,2.086,2.086,0,0,0-1.234.375,2.546,2.546,0,0,0-.828.984V0H13.656V-8.453ZM25.992.156A3.693,3.693,0,0,1,23.2-.973a4.19,4.19,0,0,1-1.078-3.02v-.266A5.073,5.073,0,0,1,22.6-6.5a3.748,3.748,0,0,1,1.344-1.547,3.378,3.378,0,0,1,1.871-.559,3.166,3.166,0,0,1,2.563,1.086,4.7,4.7,0,0,1,.914,3.109v.6H23.563a3,3,0,0,0,.73,2.02,2.3,2.3,0,0,0,1.777.77,2.517,2.517,0,0,0,1.3-.312,3.259,3.259,0,0,0,.93-.828l.883.688A3.55,3.55,0,0,1,25.992.156Zm-.18-7.578a1.928,1.928,0,0,0-1.469.637A3.1,3.1,0,0,0,23.609-5h4.234v-.109a2.753,2.753,0,0,0-.594-1.707A1.815,1.815,0,0,0,25.813-7.422ZM36.18,0a3.036,3.036,0,0,1-.2-.891A3.225,3.225,0,0,1,33.57.156,2.984,2.984,0,0,1,31.52-.551a2.287,2.287,0,0,1-.8-1.793,2.39,2.39,0,0,1,1-2.051,4.733,4.733,0,0,1,2.824-.73h1.406v-.664A1.623,1.623,0,0,0,35.5-7a1.821,1.821,0,0,0-1.336-.449,2.107,2.107,0,0,0-1.3.391,1.151,1.151,0,0,0-.523.945H30.891a2,2,0,0,1,.449-1.223,3.066,3.066,0,0,1,1.219-.934,4.1,4.1,0,0,1,1.691-.344,3.342,3.342,0,0,1,2.289.73A2.635,2.635,0,0,1,37.4-5.867v3.891a4.757,4.757,0,0,0,.3,1.852V0Zm-2.4-1.1a2.54,2.54,0,0,0,1.289-.352,2.127,2.127,0,0,0,.883-.914V-4.1H34.82q-2.656,0-2.656,1.555a1.316,1.316,0,0,0,.453,1.063A1.742,1.742,0,0,0,33.781-1.1Zm17-3.031a5.026,5.026,0,0,1-.891,3.113A2.846,2.846,0,0,1,47.5.156,2.947,2.947,0,0,1,45.023-.977L44.953,0H43.625V-12H45.07v4.477a2.93,2.93,0,0,1,2.414-1.086A2.863,2.863,0,0,1,49.9-7.445a5.177,5.177,0,0,1,.879,3.188ZM49.336-4.3a3.906,3.906,0,0,0-.57-2.281,1.888,1.888,0,0,0-1.641-.8A2.122,2.122,0,0,0,45.07-6.055V-2.4a2.181,2.181,0,0,0,2.07,1.328,1.878,1.878,0,0,0,1.617-.8A4.153,4.153,0,0,0,49.336-4.3ZM57.82,0a3.036,3.036,0,0,1-.2-.891A3.225,3.225,0,0,1,55.211.156,2.984,2.984,0,0,1,53.16-.551a2.287,2.287,0,0,1-.8-1.793,2.39,2.39,0,0,1,1-2.051,4.733,4.733,0,0,1,2.824-.73h1.406v-.664A1.623,1.623,0,0,0,57.141-7,1.821,1.821,0,0,0,55.8-7.445a2.107,2.107,0,0,0-1.3.391,1.151,1.151,0,0,0-.523.945H52.531a2,2,0,0,1,.449-1.223A3.066,3.066,0,0,1,54.2-8.266a4.1,4.1,0,0,1,1.691-.344,3.342,3.342,0,0,1,2.289.73,2.635,2.635,0,0,1,.859,2.012v3.891a4.757,4.757,0,0,0,.3,1.852V0Zm-2.4-1.1a2.54,2.54,0,0,0,1.289-.352,2.127,2.127,0,0,0,.883-.914V-4.1H56.461Q53.8-4.1,53.8-2.547a1.316,1.316,0,0,0,.453,1.063A1.742,1.742,0,0,0,55.422-1.1ZM62.8-8.453V.977q0,2.438-2.211,2.438a2.682,2.682,0,0,1-.883-.141V2.117a2.794,2.794,0,0,0,.656.063.982.982,0,0,0,.738-.262,1.294,1.294,0,0,0,.254-.91V-8.453ZM61.2-10.7a.867.867,0,0,1,.215-.59.79.79,0,0,1,.629-.246.819.819,0,0,1,.641.242.854.854,0,0,1,.219.594.826.826,0,0,1-.219.586.834.834,0,0,1-.641.234.808.808,0,0,1-.633-.234A.843.843,0,0,1,61.2-10.7ZM64.742-4.3a4.993,4.993,0,0,1,.488-2.234A3.643,3.643,0,0,1,66.59-8.07a3.7,3.7,0,0,1,1.988-.539,3.565,3.565,0,0,1,2.793,1.2,4.6,4.6,0,0,1,1.066,3.18v.1a5.036,5.036,0,0,1-.473,2.215A3.589,3.589,0,0,1,70.613-.391a3.743,3.743,0,0,1-2.02.547,3.556,3.556,0,0,1-2.785-1.2A4.575,4.575,0,0,1,64.742-4.2Zm1.453.172a3.616,3.616,0,0,0,.652,2.258,2.088,2.088,0,0,0,1.746.852,2.075,2.075,0,0,0,1.75-.863A3.955,3.955,0,0,0,70.992-4.3a3.61,3.61,0,0,0-.66-2.254,2.1,2.1,0,0,0-1.754-.863,2.075,2.075,0,0,0-1.727.852A3.925,3.925,0,0,0,66.2-4.133ZM79.172-2.242a1.064,1.064,0,0,0-.441-.91,4.249,4.249,0,0,0-1.539-.559,7.277,7.277,0,0,1-1.742-.562,2.479,2.479,0,0,1-.953-.781,1.869,1.869,0,0,1-.309-1.078,2.193,2.193,0,0,1,.879-1.758,3.432,3.432,0,0,1,2.246-.719,3.532,3.532,0,0,1,2.332.742,2.357,2.357,0,0,1,.895,1.9H79.086a1.3,1.3,0,0,0-.5-1.023,1.888,1.888,0,0,0-1.27-.43,1.976,1.976,0,0,0-1.234.344,1.082,1.082,0,0,0-.445.9.877.877,0,0,0,.414.789,5.1,5.1,0,0,0,1.5.508A7.8,7.8,0,0,1,79.3-4.3a2.558,2.558,0,0,1,1,.809,1.988,1.988,0,0,1,.324,1.152,2.163,2.163,0,0,1-.906,1.816,3.8,3.8,0,0,1-2.352.684,4.257,4.257,0,0,1-1.8-.359,2.922,2.922,0,0,1-1.223-1A2.42,2.42,0,0,1,73.9-2.6h1.445a1.5,1.5,0,0,0,.582,1.152,2.258,2.258,0,0,0,1.434.426,2.331,2.331,0,0,0,1.316-.332A1.02,1.02,0,0,0,79.172-2.242Z" transform="translate(1164.534 13364.24)"/>
    <path id="Trazado_996549" data-name="Trazado 996549" d="M2.651-1.15H7.705V0H1.238V-10.664H2.651ZM10.569,0H9.207V-7.925h1.362Zm.015-11.243h1.641L10.261-9.089H9.17Zm3.5,3.318.044,1A2.888,2.888,0,0,1,16.5-8.071q2.512,0,2.534,2.834V0H17.681V-5.244a1.824,1.824,0,0,0-.392-1.267,1.57,1.57,0,0,0-1.2-.41,1.956,1.956,0,0,0-1.157.352,2.387,2.387,0,0,0-.776.923V0H12.8V-7.925ZM24.368.146A3.463,3.463,0,0,1,21.746-.912a3.928,3.928,0,0,1-1.011-2.831v-.249a4.756,4.756,0,0,1,.45-2.106,3.514,3.514,0,0,1,1.26-1.45A3.167,3.167,0,0,1,24.2-8.071a2.968,2.968,0,0,1,2.4,1.018,4.408,4.408,0,0,1,.857,2.915v.564H22.09a2.817,2.817,0,0,0,.685,1.893,2.153,2.153,0,0,0,1.666.721,2.36,2.36,0,0,0,1.216-.293,3.055,3.055,0,0,0,.872-.776l.828.645A3.328,3.328,0,0,1,24.368.146Zm-.168-7.1a1.807,1.807,0,0,0-1.377.6,2.9,2.9,0,0,0-.688,1.674H26.1v-.1a2.581,2.581,0,0,0-.557-1.6A1.7,1.7,0,0,0,24.2-6.958ZM33.918,0a2.846,2.846,0,0,1-.19-.835,3.023,3.023,0,0,1-2.256.981A2.8,2.8,0,0,1,29.55-.516,2.145,2.145,0,0,1,28.8-2.2,2.24,2.24,0,0,1,29.74-4.12,4.437,4.437,0,0,1,32.388-4.8h1.318v-.623a1.522,1.522,0,0,0-.425-1.132,1.707,1.707,0,0,0-1.252-.421,1.976,1.976,0,0,0-1.216.366,1.079,1.079,0,0,0-.491.886H28.96a1.87,1.87,0,0,1,.421-1.146,2.874,2.874,0,0,1,1.143-.875,3.844,3.844,0,0,1,1.586-.322,3.133,3.133,0,0,1,2.146.685A2.47,2.47,0,0,1,35.061-5.5v3.647a4.459,4.459,0,0,0,.278,1.736V0ZM31.67-1.033a2.381,2.381,0,0,0,1.208-.33,1.994,1.994,0,0,0,.828-.857V-3.845H32.644q-2.49,0-2.49,1.458a1.234,1.234,0,0,0,.425,1A1.633,1.633,0,0,0,31.67-1.033Zm12.407.073A1.952,1.952,0,0,0,45.344-1.4a1.546,1.546,0,0,0,.6-1.1h1.282a2.457,2.457,0,0,1-.469,1.3A3.087,3.087,0,0,1,45.6-.22a3.329,3.329,0,0,1-1.527.366A3.265,3.265,0,0,1,41.5-.934a4.3,4.3,0,0,1-.956-2.955v-.227a4.771,4.771,0,0,1,.425-2.058,3.236,3.236,0,0,1,1.219-1.4,3.464,3.464,0,0,1,1.879-.5,3.178,3.178,0,0,1,2.216.8A2.853,2.853,0,0,1,47.227-5.2H45.945a1.867,1.867,0,0,0-.582-1.263,1.811,1.811,0,0,0-1.293-.494,1.9,1.9,0,0,0-1.6.743,3.491,3.491,0,0,0-.568,2.15v.256A3.422,3.422,0,0,0,42.466-1.7,1.906,1.906,0,0,0,44.077-.959ZM50.222,0H48.867V-7.925h1.355ZM48.757-10.027a.809.809,0,0,1,.2-.557.756.756,0,0,1,.6-.227.768.768,0,0,1,.6.227.8.8,0,0,1,.205.557.774.774,0,0,1-.205.549.782.782,0,0,1-.6.22.77.77,0,0,1-.6-.22A.782.782,0,0,1,48.757-10.027Zm4.915,2.1.044,1a2.888,2.888,0,0,1,2.373-1.143q2.512,0,2.534,2.834V0H57.268V-5.244a1.824,1.824,0,0,0-.392-1.267,1.57,1.57,0,0,0-1.2-.41,1.956,1.956,0,0,0-1.157.352,2.387,2.387,0,0,0-.776.923V0H52.39V-7.925ZM62.5-9.844v1.919h1.479v1.047H62.5v4.915a1.1,1.1,0,0,0,.2.714.833.833,0,0,0,.674.238,3.281,3.281,0,0,0,.645-.088V0a3.928,3.928,0,0,1-1.04.146A1.687,1.687,0,0,1,61.611-.4a2.36,2.36,0,0,1-.461-1.56V-6.877H59.707V-7.925H61.15V-9.844Zm7.954,9.06a2.878,2.878,0,0,1-2.322.93,2.464,2.464,0,0,1-1.93-.736,3.186,3.186,0,0,1-.67-2.179V-7.925h1.355v5.12q0,1.8,1.465,1.8a2.028,2.028,0,0,0,2.065-1.157V-7.925h1.355V0H70.488Zm7.207-5.925A4.06,4.06,0,0,0,77-6.76,1.786,1.786,0,0,0,75.19-5.625V0H73.835V-7.925h1.318l.022.916a2.11,2.11,0,0,1,1.89-1.062,1.384,1.384,0,0,1,.6.1ZM83.226,0a2.846,2.846,0,0,1-.19-.835,3.023,3.023,0,0,1-2.256.981,2.8,2.8,0,0,1-1.923-.663A2.145,2.145,0,0,1,78.106-2.2a2.24,2.24,0,0,1,.941-1.923A4.437,4.437,0,0,1,81.695-4.8h1.318v-.623a1.522,1.522,0,0,0-.425-1.132,1.707,1.707,0,0,0-1.252-.421,1.976,1.976,0,0,0-1.216.366,1.079,1.079,0,0,0-.491.886H78.267a1.87,1.87,0,0,1,.421-1.146,2.874,2.874,0,0,1,1.143-.875,3.844,3.844,0,0,1,1.586-.322,3.133,3.133,0,0,1,2.146.685A2.47,2.47,0,0,1,84.368-5.5v3.647a4.459,4.459,0,0,0,.278,1.736V0ZM80.977-1.033a2.381,2.381,0,0,0,1.208-.33,1.994,1.994,0,0,0,.828-.857V-3.845H81.951q-2.49,0-2.49,1.458a1.234,1.234,0,0,0,.425,1A1.633,1.633,0,0,0,80.977-1.033Z" transform="translate(871.476 13238.368)"/>
    <path id="Trazado_996550" data-name="Trazado 996550" d="M6.086-11.375H7.594V-3.32a3.336,3.336,0,0,1-.98,2.555A3.66,3.66,0,0,1,4,.156,3.762,3.762,0,0,1,1.359-.711a3.132,3.132,0,0,1-.945-2.43h1.5a2.086,2.086,0,0,0,.535,1.523A2.073,2.073,0,0,0,4-1.07a2.012,2.012,0,0,0,1.5-.586A2.27,2.27,0,0,0,6.086-3.3ZM15.141,0a3.036,3.036,0,0,1-.2-.891A3.225,3.225,0,0,1,12.531.156,2.984,2.984,0,0,1,10.48-.551a2.287,2.287,0,0,1-.8-1.793,2.39,2.39,0,0,1,1-2.051,4.733,4.733,0,0,1,2.824-.73h1.406v-.664A1.623,1.623,0,0,0,14.461-7a1.821,1.821,0,0,0-1.336-.449,2.107,2.107,0,0,0-1.3.391,1.151,1.151,0,0,0-.523.945H9.852A2,2,0,0,1,10.3-7.332a3.066,3.066,0,0,1,1.219-.934,4.1,4.1,0,0,1,1.691-.344,3.342,3.342,0,0,1,2.289.73,2.635,2.635,0,0,1,.859,2.012v3.891a4.757,4.757,0,0,0,.3,1.852V0Zm-2.4-1.1a2.54,2.54,0,0,0,1.289-.352,2.127,2.127,0,0,0,.883-.914V-4.1H13.781q-2.656,0-2.656,1.555a1.316,1.316,0,0,0,.453,1.063A1.742,1.742,0,0,0,12.742-1.1Zm9.969-6.055A4.331,4.331,0,0,0,22-7.211,1.9,1.9,0,0,0,20.07-6V0H18.625V-8.453h1.406l.023.977A2.251,2.251,0,0,1,22.07-8.609a1.477,1.477,0,0,1,.641.109Zm5.414,0a4.331,4.331,0,0,0-.711-.055A1.9,1.9,0,0,0,25.484-6V0H24.039V-8.453h1.406l.023.977a2.251,2.251,0,0,1,2.016-1.133,1.477,1.477,0,0,1,.641.109ZM32.817.156a3.693,3.693,0,0,1-2.8-1.129,4.19,4.19,0,0,1-1.078-3.02v-.266a5.073,5.073,0,0,1,.48-2.246,3.748,3.748,0,0,1,1.344-1.547,3.378,3.378,0,0,1,1.871-.559A3.166,3.166,0,0,1,35.2-7.523a4.7,4.7,0,0,1,.914,3.109v.6H30.387a3,3,0,0,0,.73,2.02,2.3,2.3,0,0,0,1.777.77,2.517,2.517,0,0,0,1.3-.312,3.259,3.259,0,0,0,.93-.828L36-1.477A3.55,3.55,0,0,1,32.817.156Zm-.18-7.578a1.928,1.928,0,0,0-1.469.637A3.1,3.1,0,0,0,30.434-5h4.234v-.109a2.753,2.753,0,0,0-.594-1.707A1.815,1.815,0,0,0,32.637-7.422ZM39.747-10.5v2.047h1.578v1.117H39.747v5.242a1.171,1.171,0,0,0,.211.762.888.888,0,0,0,.719.254,3.5,3.5,0,0,0,.688-.094V0a4.19,4.19,0,0,1-1.109.156A1.8,1.8,0,0,1,38.793-.43,2.517,2.517,0,0,1,38.3-2.094V-7.336H36.762V-8.453H38.3V-10.5ZM48.231,0a3.036,3.036,0,0,1-.2-.891A3.225,3.225,0,0,1,45.622.156a2.984,2.984,0,0,1-2.051-.707,2.287,2.287,0,0,1-.8-1.793,2.39,2.39,0,0,1,1-2.051,4.733,4.733,0,0,1,2.824-.73H48v-.664A1.623,1.623,0,0,0,47.551-7a1.821,1.821,0,0,0-1.336-.449,2.107,2.107,0,0,0-1.3.391,1.151,1.151,0,0,0-.523.945H42.942a2,2,0,0,1,.449-1.223,3.066,3.066,0,0,1,1.219-.934A4.1,4.1,0,0,1,46.3-8.609a3.342,3.342,0,0,1,2.289.73,2.635,2.635,0,0,1,.859,2.012v3.891a4.757,4.757,0,0,0,.3,1.852V0Zm-2.4-1.1a2.54,2.54,0,0,0,1.289-.352A2.127,2.127,0,0,0,48-2.367V-4.1H46.872q-2.656,0-2.656,1.555a1.316,1.316,0,0,0,.453,1.063A1.742,1.742,0,0,0,45.833-1.1Z" transform="translate(892.677 13377.256)"/>
    <path id="Trazado_996551" data-name="Trazado 996551" d="M9.688-3.609A4.185,4.185,0,0,1,8.355-.824a4.365,4.365,0,0,1-2.98.98,4.008,4.008,0,0,1-3.23-1.445A5.815,5.815,0,0,1,.93-5.156V-6.25A6.481,6.481,0,0,1,1.5-9.039,4.231,4.231,0,0,1,3.1-10.887a4.47,4.47,0,0,1,2.406-.645A4.11,4.11,0,0,1,8.414-10.52a4.235,4.235,0,0,1,1.273,2.8H8.18a3.254,3.254,0,0,0-.848-1.969A2.569,2.569,0,0,0,5.508-10.3,2.685,2.685,0,0,0,3.254-9.234a4.875,4.875,0,0,0-.816,3.023v1.1a5.011,5.011,0,0,0,.773,2.945A2.5,2.5,0,0,0,5.375-1.07a2.887,2.887,0,0,0,1.918-.566A3.143,3.143,0,0,0,8.18-3.609Zm5.906-3.547a4.331,4.331,0,0,0-.711-.055A1.9,1.9,0,0,0,12.953-6V0H11.508V-8.453h1.406l.023.977a2.251,2.251,0,0,1,2.016-1.133,1.477,1.477,0,0,1,.641.109ZM20.286.156a3.693,3.693,0,0,1-2.8-1.129,4.19,4.19,0,0,1-1.078-3.02v-.266a5.073,5.073,0,0,1,.48-2.246,3.748,3.748,0,0,1,1.344-1.547,3.378,3.378,0,0,1,1.871-.559,3.166,3.166,0,0,1,2.563,1.086,4.7,4.7,0,0,1,.914,3.109v.6H17.856a3,3,0,0,0,.73,2.02,2.3,2.3,0,0,0,1.777.77,2.517,2.517,0,0,0,1.3-.312,3.259,3.259,0,0,0,.93-.828l.883.688A3.55,3.55,0,0,1,20.286.156Zm-.18-7.578a1.928,1.928,0,0,0-1.469.637A3.1,3.1,0,0,0,17.9-5h4.234v-.109a2.753,2.753,0,0,0-.594-1.707A1.815,1.815,0,0,0,20.106-7.422Zm6.508-1.031.039.938a3.122,3.122,0,0,1,2.508-1.094A2.417,2.417,0,0,1,31.575-7.25a3.2,3.2,0,0,1,1.1-.984,3.242,3.242,0,0,1,1.6-.375q2.781,0,2.828,2.945V0H35.653V-5.578a1.941,1.941,0,0,0-.414-1.355,1.823,1.823,0,0,0-1.391-.449,1.916,1.916,0,0,0-1.336.48A1.949,1.949,0,0,0,31.9-5.609V0H30.442V-5.539a1.613,1.613,0,0,0-1.8-1.844,1.934,1.934,0,0,0-1.945,1.211V0H25.247V-8.453ZM44.5,0a3.036,3.036,0,0,1-.2-.891A3.225,3.225,0,0,1,41.887.156a2.984,2.984,0,0,1-2.051-.707,2.287,2.287,0,0,1-.8-1.793,2.39,2.39,0,0,1,1-2.051,4.733,4.733,0,0,1,2.824-.73H44.27v-.664A1.623,1.623,0,0,0,43.817-7a1.821,1.821,0,0,0-1.336-.449,2.107,2.107,0,0,0-1.3.391,1.151,1.151,0,0,0-.523.945H39.208a2,2,0,0,1,.449-1.223,3.066,3.066,0,0,1,1.219-.934,4.1,4.1,0,0,1,1.691-.344,3.342,3.342,0,0,1,2.289.73,2.635,2.635,0,0,1,.859,2.012v3.891a4.757,4.757,0,0,0,.3,1.852V0ZM42.1-1.1a2.54,2.54,0,0,0,1.289-.352,2.127,2.127,0,0,0,.883-.914V-4.1H43.137q-2.656,0-2.656,1.555a1.316,1.316,0,0,0,.453,1.063A1.742,1.742,0,0,0,42.1-1.1ZM49.551,0H48.106V-12h1.445Zm3.883,0H51.989V-12h1.445Zm5.82.156a3.693,3.693,0,0,1-2.8-1.129,4.19,4.19,0,0,1-1.078-3.02v-.266A5.073,5.073,0,0,1,55.86-6.5,3.748,3.748,0,0,1,57.2-8.051a3.378,3.378,0,0,1,1.871-.559,3.166,3.166,0,0,1,2.563,1.086,4.7,4.7,0,0,1,.914,3.109v.6H56.825a3,3,0,0,0,.73,2.02,2.3,2.3,0,0,0,1.777.77,2.517,2.517,0,0,0,1.3-.312,3.259,3.259,0,0,0,.93-.828l.883.688A3.55,3.55,0,0,1,59.254.156Zm-.18-7.578a1.928,1.928,0,0,0-1.469.637A3.1,3.1,0,0,0,56.872-5h4.234v-.109a2.753,2.753,0,0,0-.594-1.707A1.815,1.815,0,0,0,59.075-7.422Zm9.234.266a4.331,4.331,0,0,0-.711-.055A1.9,1.9,0,0,0,65.669-6V0H64.223V-8.453h1.406l.023.977a2.251,2.251,0,0,1,2.016-1.133,1.477,1.477,0,0,1,.641.109ZM74.24,0a3.036,3.036,0,0,1-.2-.891A3.225,3.225,0,0,1,71.63.156a2.984,2.984,0,0,1-2.051-.707,2.288,2.288,0,0,1-.8-1.793,2.39,2.39,0,0,1,1-2.051,4.733,4.733,0,0,1,2.824-.73h1.406v-.664A1.623,1.623,0,0,0,73.56-7a1.821,1.821,0,0,0-1.336-.449,2.108,2.108,0,0,0-1.3.391,1.151,1.151,0,0,0-.523.945H68.95A2,2,0,0,1,69.4-7.332a3.066,3.066,0,0,1,1.219-.934,4.1,4.1,0,0,1,1.691-.344,3.342,3.342,0,0,1,2.289.73,2.635,2.635,0,0,1,.859,2.012v3.891a4.757,4.757,0,0,0,.3,1.852V0Zm-2.4-1.1a2.54,2.54,0,0,0,1.289-.352,2.127,2.127,0,0,0,.883-.914V-4.1H72.88q-2.656,0-2.656,1.555a1.316,1.316,0,0,0,.453,1.063A1.742,1.742,0,0,0,71.841-1.1Z" transform="translate(897.299 13172.288) rotate(28.296)"/>
    <path id="Trazado_996552" data-name="Trazado 996552" d="M2.651-1.15H7.705V0H1.238V-10.664H2.651ZM10.569,0H9.207V-7.925h1.362Zm.015-11.243h1.641L10.261-9.089H9.17Zm3.5,3.318.044,1A2.888,2.888,0,0,1,16.5-8.071q2.512,0,2.534,2.834V0H17.681V-5.244a1.824,1.824,0,0,0-.392-1.267,1.57,1.57,0,0,0-1.2-.41,1.956,1.956,0,0,0-1.157.352,2.387,2.387,0,0,0-.776.923V0H12.8V-7.925ZM24.368.146A3.463,3.463,0,0,1,21.746-.912a3.928,3.928,0,0,1-1.011-2.831v-.249a4.756,4.756,0,0,1,.45-2.106,3.514,3.514,0,0,1,1.26-1.45A3.167,3.167,0,0,1,24.2-8.071a2.968,2.968,0,0,1,2.4,1.018,4.408,4.408,0,0,1,.857,2.915v.564H22.09a2.817,2.817,0,0,0,.685,1.893,2.153,2.153,0,0,0,1.666.721,2.36,2.36,0,0,0,1.216-.293,3.055,3.055,0,0,0,.872-.776l.828.645A3.328,3.328,0,0,1,24.368.146Zm-.168-7.1a1.807,1.807,0,0,0-1.377.6,2.9,2.9,0,0,0-.688,1.674H26.1v-.1a2.581,2.581,0,0,0-.557-1.6A1.7,1.7,0,0,0,24.2-6.958ZM33.918,0a2.846,2.846,0,0,1-.19-.835,3.023,3.023,0,0,1-2.256.981A2.8,2.8,0,0,1,29.55-.516,2.145,2.145,0,0,1,28.8-2.2,2.24,2.24,0,0,1,29.74-4.12,4.437,4.437,0,0,1,32.388-4.8h1.318v-.623a1.522,1.522,0,0,0-.425-1.132,1.707,1.707,0,0,0-1.252-.421,1.976,1.976,0,0,0-1.216.366,1.079,1.079,0,0,0-.491.886H28.96a1.87,1.87,0,0,1,.421-1.146,2.874,2.874,0,0,1,1.143-.875,3.844,3.844,0,0,1,1.586-.322,3.133,3.133,0,0,1,2.146.685A2.47,2.47,0,0,1,35.061-5.5v3.647a4.459,4.459,0,0,0,.278,1.736V0ZM31.67-1.033a2.381,2.381,0,0,0,1.208-.33,1.994,1.994,0,0,0,.828-.857V-3.845H32.644q-2.49,0-2.49,1.458a1.234,1.234,0,0,0,.425,1A1.633,1.633,0,0,0,31.67-1.033ZM47.607-3.875a4.712,4.712,0,0,1-.835,2.919,2.668,2.668,0,0,1-2.241,1.1A2.763,2.763,0,0,1,42.209-.916L42.144,0H40.9V-11.25h1.355v4.2a2.747,2.747,0,0,1,2.263-1.018A2.684,2.684,0,0,1,46.783-6.98a4.853,4.853,0,0,1,.824,2.988Zm-1.355-.154a3.662,3.662,0,0,0-.535-2.139,1.77,1.77,0,0,0-1.538-.754,1.989,1.989,0,0,0-1.926,1.245v3.428A2.045,2.045,0,0,0,44.194-1a1.76,1.76,0,0,0,1.516-.754A3.894,3.894,0,0,0,46.252-4.028ZM54.207-.784a2.878,2.878,0,0,1-2.322.93,2.464,2.464,0,0,1-1.93-.736,3.186,3.186,0,0,1-.67-2.179V-7.925H50.64v5.12Q50.64-1,52.1-1A2.028,2.028,0,0,0,54.17-2.161V-7.925h1.355V0H54.236ZM62.2-2.1a1,1,0,0,0-.414-.853,3.983,3.983,0,0,0-1.443-.524,6.822,6.822,0,0,1-1.633-.527,2.324,2.324,0,0,1-.894-.732,1.752,1.752,0,0,1-.289-1.011A2.056,2.056,0,0,1,58.348-7.4a3.218,3.218,0,0,1,2.106-.674,3.311,3.311,0,0,1,2.186.7,2.21,2.21,0,0,1,.839,1.78H62.117a1.223,1.223,0,0,0-.472-.959,1.77,1.77,0,0,0-1.19-.4,1.852,1.852,0,0,0-1.157.322,1.014,1.014,0,0,0-.417.842.822.822,0,0,0,.388.74,4.776,4.776,0,0,0,1.4.476,7.308,7.308,0,0,1,1.644.542,2.4,2.4,0,0,1,.934.758,1.864,1.864,0,0,1,.3,1.08,2.028,2.028,0,0,1-.85,1.7,3.564,3.564,0,0,1-2.2.641A3.991,3.991,0,0,1,58.813-.19a2.74,2.74,0,0,1-1.146-.941,2.268,2.268,0,0,1-.414-1.307h1.355a1.4,1.4,0,0,0,.546,1.08,2.117,2.117,0,0,0,1.344.4,2.185,2.185,0,0,0,1.234-.311A.956.956,0,0,0,62.2-2.1Zm4.958-7.742v1.919h1.479v1.047H67.156v4.915a1.1,1.1,0,0,0,.2.714.833.833,0,0,0,.674.238,3.281,3.281,0,0,0,.645-.088V0a3.928,3.928,0,0,1-1.04.146A1.687,1.687,0,0,1,66.262-.4a2.36,2.36,0,0,1-.461-1.56V-6.877H64.358V-7.925H65.8V-9.844Zm2.406,5.808A4.681,4.681,0,0,1,70.02-6.13a3.415,3.415,0,0,1,1.274-1.436,3.469,3.469,0,0,1,1.864-.505,3.342,3.342,0,0,1,2.618,1.121,4.311,4.311,0,0,1,1,2.981v.1A4.722,4.722,0,0,1,76.333-1.8,3.365,3.365,0,0,1,75.066-.366a3.509,3.509,0,0,1-1.893.513A3.334,3.334,0,0,1,70.562-.974a4.29,4.29,0,0,1-1-2.966Zm1.362.161a3.39,3.39,0,0,0,.612,2.117,1.957,1.957,0,0,0,1.637.8,1.945,1.945,0,0,0,1.641-.809,3.707,3.707,0,0,0,.608-2.267A3.384,3.384,0,0,0,74.8-6.149a1.968,1.968,0,0,0-1.644-.809,1.946,1.946,0,0,0-1.619.8A3.68,3.68,0,0,0,70.924-3.875Z" transform="translate(840.669 13032.097)"/>
    <path id="Trazado_996553" data-name="Trazado 996553" d="M9.324-3.552A3.774,3.774,0,0,1,8.053-.842,4.463,4.463,0,0,1,5.032.146,4.013,4.013,0,0,1,1.805-1.234,5.661,5.661,0,0,1,.63-5.024v-.652a6.393,6.393,0,0,1,.542-2.71,4.062,4.062,0,0,1,1.549-1.8,4.339,4.339,0,0,1,2.34-.626,4.348,4.348,0,0,1,2.974.989,4.055,4.055,0,0,1,1.3,2.776h-2.2a2.227,2.227,0,0,0-.575-1.5,2.129,2.129,0,0,0-1.505-.465,1.867,1.867,0,0,0-1.644.787,4.413,4.413,0,0,0-.56,2.443v.806A4.723,4.723,0,0,0,3.38-2.446a1.832,1.832,0,0,0,1.652.8,2.169,2.169,0,0,0,1.52-.465,2.1,2.1,0,0,0,.575-1.439Zm4.951,3.7A3.89,3.89,0,0,1,11.437-.923a3.8,3.8,0,0,1-1.095-2.849v-.205A4.787,4.787,0,0,1,10.8-6.112a3.386,3.386,0,0,1,1.307-1.45,3.669,3.669,0,0,1,1.93-.509A3.289,3.289,0,0,1,16.6-7.046a4.167,4.167,0,0,1,.934,2.908v.864H12.488a1.966,1.966,0,0,0,.619,1.245,1.871,1.871,0,0,0,1.307.469,2.285,2.285,0,0,0,1.912-.886l1.04,1.165A3.178,3.178,0,0,1,16.077-.231,4.229,4.229,0,0,1,14.275.146Zm-.242-6.5a1.326,1.326,0,0,0-1.022.425,2.195,2.195,0,0,0-.5,1.216h2.944v-.168a1.565,1.565,0,0,0-.381-1.088A1.368,1.368,0,0,0,14.033-6.357Zm6.65-1.567.066.916a2.767,2.767,0,0,1,2.278-1.062,2.3,2.3,0,0,1,1.875.74,3.451,3.451,0,0,1,.63,2.212V0H23.416V-5.068a1.373,1.373,0,0,0-.293-.978,1.312,1.312,0,0,0-.974-.3,1.456,1.456,0,0,0-1.34.762V0H18.691V-7.925ZM29.67-9.873v1.948h1.355v1.553H29.67v3.955a.944.944,0,0,0,.168.63.846.846,0,0,0,.645.19,3.376,3.376,0,0,0,.623-.051v1.6a4.358,4.358,0,0,1-1.282.19A2.021,2.021,0,0,1,27.554-2.1v-4.27H26.4V-7.925h1.157V-9.873ZM36.658-5.94A5.75,5.75,0,0,0,35.9-6a1.55,1.55,0,0,0-1.575.813V0H32.2V-7.925h2l.059.945a1.961,1.961,0,0,1,1.765-1.091,2.218,2.218,0,0,1,.659.1Zm.17,1.9a4.7,4.7,0,0,1,.454-2.1,3.324,3.324,0,0,1,1.307-1.428,3.814,3.814,0,0,1,1.981-.505,3.609,3.609,0,0,1,2.618.981A3.939,3.939,0,0,1,44.32-4.424l.015.542A4.142,4.142,0,0,1,43.317-.956a3.539,3.539,0,0,1-2.732,1.1,3.556,3.556,0,0,1-2.736-1.1A4.215,4.215,0,0,1,36.828-3.94Zm2.117.154a2.954,2.954,0,0,0,.425,1.725,1.4,1.4,0,0,0,1.216.6,1.405,1.405,0,0,0,1.2-.59,3.233,3.233,0,0,0,.432-1.886,2.925,2.925,0,0,0-.432-1.714,1.405,1.405,0,0,0-1.216-.608,1.382,1.382,0,0,0-1.2.6A3.287,3.287,0,0,0,38.944-3.882Zm10.1-.139a4.776,4.776,0,0,1,.831-2.952,2.7,2.7,0,0,1,2.274-1.1,2.427,2.427,0,0,1,1.912.864V-11.25h2.124V0H54.274l-.1-.842a2.491,2.491,0,0,1-2.036.989,2.69,2.69,0,0,1-2.245-1.1A4.93,4.93,0,0,1,49.044-4.021Zm2.117.154a3.12,3.12,0,0,0,.388,1.707,1.265,1.265,0,0,0,1.128.593A1.417,1.417,0,0,0,54.061-2.4V-5.522a1.4,1.4,0,0,0-1.37-.828Q51.161-6.35,51.161-3.867ZM61.474.146A3.89,3.89,0,0,1,58.635-.923,3.8,3.8,0,0,1,57.54-3.772v-.205A4.787,4.787,0,0,1,58-6.112a3.386,3.386,0,0,1,1.307-1.45,3.669,3.669,0,0,1,1.93-.509A3.289,3.289,0,0,1,63.8-7.046a4.167,4.167,0,0,1,.934,2.908v.864H59.686a1.966,1.966,0,0,0,.619,1.245,1.871,1.871,0,0,0,1.307.469,2.285,2.285,0,0,0,1.912-.886l1.04,1.165A3.178,3.178,0,0,1,63.275-.231,4.229,4.229,0,0,1,61.474.146Zm-.242-6.5a1.326,1.326,0,0,0-1.022.425,2.195,2.195,0,0,0-.5,1.216h2.944v-.168a1.565,1.565,0,0,0-.381-1.088A1.368,1.368,0,0,0,61.232-6.357ZM68.168,0H66.044V-11.25h2.124ZM74.5,0a2.351,2.351,0,0,1-.212-.71,2.561,2.561,0,0,1-2,.857,2.814,2.814,0,0,1-1.93-.674,2.167,2.167,0,0,1-.765-1.7A2.24,2.24,0,0,1,70.53-4.16a4.608,4.608,0,0,1,2.7-.681H74.2V-5.3a1.306,1.306,0,0,0-.282-.879,1.109,1.109,0,0,0-.89-.33,1.261,1.261,0,0,0-.839.256.871.871,0,0,0-.3.7H69.772A2.126,2.126,0,0,1,70.2-6.819a2.808,2.808,0,0,1,1.2-.919,4.378,4.378,0,0,1,1.743-.333,3.459,3.459,0,0,1,2.325.736,2.575,2.575,0,0,1,.861,2.069v3.435a3.789,3.789,0,0,0,.315,1.707V0Zm-1.75-1.472a1.823,1.823,0,0,0,.864-.209,1.371,1.371,0,0,0,.586-.56V-3.6h-.791q-1.589,0-1.692,1.1l-.007.125a.847.847,0,0,0,.278.652A1.081,1.081,0,0,0,72.753-1.472ZM79.9-7.925l.066.916a2.767,2.767,0,0,1,2.278-1.062,2.3,2.3,0,0,1,1.875.74,3.451,3.451,0,0,1,.63,2.212V0H82.633V-5.068a1.373,1.373,0,0,0-.293-.978,1.312,1.312,0,0,0-.974-.3,1.456,1.456,0,0,0-1.34.762V0H77.909V-7.925Zm8.987-1.948v1.948h1.355v1.553H88.888v3.955a.944.944,0,0,0,.168.63.846.846,0,0,0,.645.19,3.376,3.376,0,0,0,.623-.051v1.6a4.358,4.358,0,0,1-1.282.19A2.021,2.021,0,0,1,86.771-2.1v-4.27H85.614V-7.925h1.157V-9.873ZM95.07.146A3.89,3.89,0,0,1,92.232-.923a3.8,3.8,0,0,1-1.095-2.849v-.205A4.787,4.787,0,0,1,91.6-6.112a3.386,3.386,0,0,1,1.307-1.45,3.669,3.669,0,0,1,1.93-.509A3.289,3.289,0,0,1,97.4-7.046a4.167,4.167,0,0,1,.934,2.908v.864H93.283A1.966,1.966,0,0,0,93.9-2.029a1.871,1.871,0,0,0,1.307.469,2.285,2.285,0,0,0,1.912-.886l1.04,1.165A3.178,3.178,0,0,1,96.871-.231,4.229,4.229,0,0,1,95.07.146Zm-.242-6.5a1.326,1.326,0,0,0-1.022.425,2.195,2.195,0,0,0-.5,1.216h2.944v-.168a1.565,1.565,0,0,0-.381-1.088A1.368,1.368,0,0,0,94.828-6.357Zm9.155.417A5.75,5.75,0,0,0,103.222-6a1.55,1.55,0,0,0-1.575.813V0H99.53V-7.925h2l.059.945a1.961,1.961,0,0,1,1.765-1.091,2.218,2.218,0,0,1,.659.1Zm.17,1.9a4.7,4.7,0,0,1,.454-2.1,3.324,3.324,0,0,1,1.307-1.428,3.814,3.814,0,0,1,1.981-.505,3.609,3.609,0,0,1,2.618.981,3.939,3.939,0,0,1,1.132,2.666l.015.542a4.142,4.142,0,0,1-1.018,2.926,3.539,3.539,0,0,1-2.732,1.1,3.556,3.556,0,0,1-2.736-1.1,4.215,4.215,0,0,1-1.022-2.988Zm2.117.154a2.954,2.954,0,0,0,.425,1.725,1.4,1.4,0,0,0,1.216.6,1.405,1.405,0,0,0,1.2-.59,3.233,3.233,0,0,0,.432-1.886,2.925,2.925,0,0,0-.432-1.714,1.405,1.405,0,0,0-1.216-.608,1.382,1.382,0,0,0-1.2.6A3.287,3.287,0,0,0,106.27-3.882Z" transform="translate(786.235 13239.516) rotate(-90)"/>
    <path id="Trazado_996554" data-name="Trazado 996554" d="M9.945-3.789A4.025,4.025,0,0,1,8.59-.9,4.76,4.76,0,0,1,5.367.156,4.28,4.28,0,0,1,1.926-1.316,6.038,6.038,0,0,1,.672-5.359v-.7A6.819,6.819,0,0,1,1.25-8.945,4.332,4.332,0,0,1,2.9-10.863a4.629,4.629,0,0,1,2.5-.668A4.637,4.637,0,0,1,8.57-10.477,4.326,4.326,0,0,1,9.961-7.516H7.617A2.376,2.376,0,0,0,7-9.113a2.271,2.271,0,0,0-1.605-.5,1.991,1.991,0,0,0-1.754.84,4.707,4.707,0,0,0-.6,2.605V-5.3a5.038,5.038,0,0,0,.559,2.7,1.954,1.954,0,0,0,1.762.852,2.314,2.314,0,0,0,1.621-.5A2.241,2.241,0,0,0,7.6-3.789ZM15.227.156A4.15,4.15,0,0,1,12.2-.984a4.054,4.054,0,0,1-1.168-3.039v-.219a5.106,5.106,0,0,1,.492-2.277,3.612,3.612,0,0,1,1.395-1.547,3.914,3.914,0,0,1,2.059-.543,3.508,3.508,0,0,1,2.73,1.094,4.444,4.444,0,0,1,1,3.1v.922H13.32a2.1,2.1,0,0,0,.66,1.328,2,2,0,0,0,1.395.5,2.437,2.437,0,0,0,2.039-.945l1.109,1.242A3.389,3.389,0,0,1,17.148-.246,4.511,4.511,0,0,1,15.227.156Zm-.258-6.937a1.414,1.414,0,0,0-1.09.453,2.341,2.341,0,0,0-.535,1.3h3.141v-.18a1.669,1.669,0,0,0-.406-1.16A1.459,1.459,0,0,0,14.969-6.781Zm7.094-1.672.07.977a2.951,2.951,0,0,1,2.43-1.133,2.453,2.453,0,0,1,2,.789,3.682,3.682,0,0,1,.672,2.359V0H24.977V-5.406a1.465,1.465,0,0,0-.312-1.043,1.4,1.4,0,0,0-1.039-.324,1.553,1.553,0,0,0-1.43.813V0H19.938V-8.453Zm9.586-2.078v2.078h1.445V-6.8H31.648v4.219a1.007,1.007,0,0,0,.18.672.9.9,0,0,0,.688.2,3.6,3.6,0,0,0,.664-.055V-.047a4.648,4.648,0,0,1-1.367.2,2.156,2.156,0,0,1-2.422-2.4V-6.8H28.156V-8.453h1.234v-2.078Zm7.453,4.2a6.134,6.134,0,0,0-.812-.062,1.654,1.654,0,0,0-1.68.867V0H34.352V-8.453h2.133l.063,1.008A2.092,2.092,0,0,1,38.43-8.609a2.366,2.366,0,0,1,.7.1ZM39.283-4.3a5.013,5.013,0,0,1,.484-2.242A3.546,3.546,0,0,1,41.162-8.07a4.069,4.069,0,0,1,2.113-.539,3.849,3.849,0,0,1,2.793,1.047,4.2,4.2,0,0,1,1.207,2.844l.016.578A4.418,4.418,0,0,1,46.2-1.02,3.775,3.775,0,0,1,43.291.156a3.793,3.793,0,0,1-2.918-1.172A4.5,4.5,0,0,1,39.283-4.2Zm2.258.164a3.151,3.151,0,0,0,.453,1.84,1.5,1.5,0,0,0,1.3.637,1.5,1.5,0,0,0,1.281-.629A3.448,3.448,0,0,0,45.033-4.3a3.12,3.12,0,0,0-.461-1.828,1.5,1.5,0,0,0-1.3-.648,1.475,1.475,0,0,0-1.281.645A3.506,3.506,0,0,0,41.541-4.141Zm13.828-6.391v2.078h1.445V-6.8H55.369v4.219a1.007,1.007,0,0,0,.18.672.9.9,0,0,0,.688.2,3.6,3.6,0,0,0,.664-.055V-.047a4.648,4.648,0,0,1-1.367.2,2.156,2.156,0,0,1-2.422-2.4V-6.8H51.876V-8.453h1.234v-2.078Zm7.453,4.2a6.134,6.134,0,0,0-.812-.062,1.654,1.654,0,0,0-1.68.867V0H58.072V-8.453H60.2l.063,1.008A2.092,2.092,0,0,1,62.15-8.609a2.366,2.366,0,0,1,.7.1ZM68.348,0a2.507,2.507,0,0,1-.227-.758,2.732,2.732,0,0,1-2.133.914A3,3,0,0,1,63.93-.562a2.312,2.312,0,0,1-.816-1.812,2.389,2.389,0,0,1,1-2.062,4.915,4.915,0,0,1,2.879-.727h1.039v-.484a1.393,1.393,0,0,0-.3-.937,1.183,1.183,0,0,0-.949-.352,1.345,1.345,0,0,0-.895.273.929.929,0,0,0-.324.75H63.3a2.268,2.268,0,0,1,.453-1.359,3,3,0,0,1,1.281-.98,4.669,4.669,0,0,1,1.859-.355,3.689,3.689,0,0,1,2.48.785,2.747,2.747,0,0,1,.918,2.207v3.664a4.041,4.041,0,0,0,.336,1.82V0ZM66.481-1.57a1.945,1.945,0,0,0,.922-.223,1.462,1.462,0,0,0,.625-.6V-3.844h-.844q-1.7,0-1.8,1.172l-.008.133a.9.9,0,0,0,.3.7A1.153,1.153,0,0,0,66.481-1.57Zm10.125-.766a.727.727,0,0,0-.41-.652,4.659,4.659,0,0,0-1.316-.426q-3.016-.633-3.016-2.562A2.323,2.323,0,0,1,72.8-7.855a3.766,3.766,0,0,1,2.441-.754,4.053,4.053,0,0,1,2.574.758,2.388,2.388,0,0,1,.965,1.969H76.52a1.092,1.092,0,0,0-.312-.8A1.322,1.322,0,0,0,75.231-7a1.351,1.351,0,0,0-.883.258.814.814,0,0,0-.312.656.7.7,0,0,0,.355.605,3.657,3.657,0,0,0,1.2.4,9.8,9.8,0,0,1,1.422.379A2.336,2.336,0,0,1,78.8-2.43a2.2,2.2,0,0,1-.992,1.871,4.28,4.28,0,0,1-2.562.715,4.47,4.47,0,0,1-1.887-.379,3.166,3.166,0,0,1-1.293-1.039A2.414,2.414,0,0,1,71.6-2.687h2.141a1.179,1.179,0,0,0,.445.922,1.766,1.766,0,0,0,1.109.32,1.635,1.635,0,0,0,.98-.246A.766.766,0,0,0,76.606-2.336ZM84.145.156A4.15,4.15,0,0,1,81.117-.984a4.054,4.054,0,0,1-1.168-3.039v-.219a5.106,5.106,0,0,1,.492-2.277,3.612,3.612,0,0,1,1.395-1.547,3.914,3.914,0,0,1,2.059-.543,3.508,3.508,0,0,1,2.73,1.094,4.444,4.444,0,0,1,1,3.1v.922H82.238a2.1,2.1,0,0,0,.66,1.328,2,2,0,0,0,1.395.5,2.437,2.437,0,0,0,2.039-.945l1.109,1.242A3.389,3.389,0,0,1,86.066-.246,4.511,4.511,0,0,1,84.145.156Zm-.258-6.937a1.414,1.414,0,0,0-1.09.453,2.341,2.341,0,0,0-.535,1.3H85.4v-.18A1.669,1.669,0,0,0,85-6.371,1.459,1.459,0,0,0,83.887-6.781Zm9.766.445A6.134,6.134,0,0,0,92.84-6.4a1.654,1.654,0,0,0-1.68.867V0H88.9V-8.453h2.133L91.1-7.445a2.092,2.092,0,0,1,1.883-1.164,2.366,2.366,0,0,1,.7.1ZM93.834-4.3a5.013,5.013,0,0,1,.484-2.242A3.546,3.546,0,0,1,95.712-8.07a4.069,4.069,0,0,1,2.113-.539,3.849,3.849,0,0,1,2.793,1.047,4.2,4.2,0,0,1,1.207,2.844l.016.578a4.418,4.418,0,0,1-1.086,3.121A3.775,3.775,0,0,1,97.841.156a3.793,3.793,0,0,1-2.918-1.172A4.5,4.5,0,0,1,93.834-4.2Zm2.258.164a3.151,3.151,0,0,0,.453,1.84,1.5,1.5,0,0,0,1.3.637,1.5,1.5,0,0,0,1.281-.629A3.448,3.448,0,0,0,99.584-4.3a3.12,3.12,0,0,0-.461-1.828,1.5,1.5,0,0,0-1.3-.648,1.475,1.475,0,0,0-1.281.645A3.506,3.506,0,0,0,96.091-4.141Z" transform="translate(1342.718 13216.155) rotate(-90)"/>
    <path id="Trazado_996555" data-name="Trazado 996555" d="M2.828-1.227H8.219V0H1.32V-11.375H2.828ZM11.273,0H9.82V-8.453h1.453Zm.016-11.992h1.75L10.945-9.7H9.781Zm3.734,3.539.047,1.063A3.08,3.08,0,0,1,17.6-8.609q2.68,0,2.7,3.023V0H18.859V-5.594a1.946,1.946,0,0,0-.418-1.352,1.675,1.675,0,0,0-1.277-.437,2.086,2.086,0,0,0-1.234.375,2.546,2.546,0,0,0-.828.984V0H13.656V-8.453ZM25.992.156A3.693,3.693,0,0,1,23.2-.973a4.19,4.19,0,0,1-1.078-3.02v-.266A5.073,5.073,0,0,1,22.6-6.5a3.748,3.748,0,0,1,1.344-1.547,3.378,3.378,0,0,1,1.871-.559,3.166,3.166,0,0,1,2.563,1.086,4.7,4.7,0,0,1,.914,3.109v.6H23.563a3,3,0,0,0,.73,2.02,2.3,2.3,0,0,0,1.777.77,2.517,2.517,0,0,0,1.3-.312,3.259,3.259,0,0,0,.93-.828l.883.688A3.55,3.55,0,0,1,25.992.156Zm-.18-7.578a1.928,1.928,0,0,0-1.469.637A3.1,3.1,0,0,0,23.609-5h4.234v-.109a2.753,2.753,0,0,0-.594-1.707A1.815,1.815,0,0,0,25.813-7.422ZM36.18,0a3.036,3.036,0,0,1-.2-.891A3.225,3.225,0,0,1,33.57.156,2.984,2.984,0,0,1,31.52-.551a2.287,2.287,0,0,1-.8-1.793,2.39,2.39,0,0,1,1-2.051,4.733,4.733,0,0,1,2.824-.73h1.406v-.664A1.623,1.623,0,0,0,35.5-7a1.821,1.821,0,0,0-1.336-.449,2.107,2.107,0,0,0-1.3.391,1.151,1.151,0,0,0-.523.945H30.891a2,2,0,0,1,.449-1.223,3.066,3.066,0,0,1,1.219-.934,4.1,4.1,0,0,1,1.691-.344,3.342,3.342,0,0,1,2.289.73A2.635,2.635,0,0,1,37.4-5.867v3.891a4.757,4.757,0,0,0,.3,1.852V0Zm-2.4-1.1a2.54,2.54,0,0,0,1.289-.352,2.127,2.127,0,0,0,.883-.914V-4.1H34.82q-2.656,0-2.656,1.555a1.316,1.316,0,0,0,.453,1.063A1.742,1.742,0,0,0,33.781-1.1Zm11.8-9.4v2.047h1.578v1.117H45.586v5.242a1.171,1.171,0,0,0,.211.762.888.888,0,0,0,.719.254,3.5,3.5,0,0,0,.688-.094V0a4.19,4.19,0,0,1-1.109.156A1.8,1.8,0,0,1,44.633-.43a2.517,2.517,0,0,1-.492-1.664V-7.336H42.6V-8.453h1.539V-10.5Zm2.739,6.2a4.993,4.993,0,0,1,.488-2.234A3.643,3.643,0,0,1,50.172-8.07a3.7,3.7,0,0,1,1.988-.539,3.565,3.565,0,0,1,2.793,1.2,4.6,4.6,0,0,1,1.066,3.18v.1a5.036,5.036,0,0,1-.473,2.215A3.589,3.589,0,0,1,54.2-.391a3.743,3.743,0,0,1-2.02.547,3.556,3.556,0,0,1-2.785-1.2A4.575,4.575,0,0,1,48.325-4.2Zm1.453.172a3.616,3.616,0,0,0,.652,2.258,2.088,2.088,0,0,0,1.746.852,2.075,2.075,0,0,0,1.75-.863A3.955,3.955,0,0,0,54.575-4.3a3.61,3.61,0,0,0-.66-2.254,2.1,2.1,0,0,0-1.754-.863,2.075,2.075,0,0,0-1.727.852A3.925,3.925,0,0,0,49.778-4.133ZM52.817-12h1.75L52.473-9.7H51.309Zm9.1,4.844a4.331,4.331,0,0,0-.711-.055A1.9,1.9,0,0,0,59.278-6V0H57.833V-8.453h1.406l.023.977a2.251,2.251,0,0,1,2.016-1.133,1.477,1.477,0,0,1,.641.109ZM67.849,0a3.036,3.036,0,0,1-.2-.891A3.225,3.225,0,0,1,65.24.156a2.984,2.984,0,0,1-2.051-.707,2.287,2.287,0,0,1-.8-1.793,2.39,2.39,0,0,1,1-2.051,4.733,4.733,0,0,1,2.824-.73h1.406v-.664A1.623,1.623,0,0,0,67.169-7a1.821,1.821,0,0,0-1.336-.449,2.108,2.108,0,0,0-1.3.391,1.151,1.151,0,0,0-.523.945H62.56a2,2,0,0,1,.449-1.223,3.066,3.066,0,0,1,1.219-.934,4.1,4.1,0,0,1,1.691-.344,3.342,3.342,0,0,1,2.289.73,2.635,2.635,0,0,1,.859,2.012v3.891a4.757,4.757,0,0,0,.3,1.852V0Zm-2.4-1.1a2.54,2.54,0,0,0,1.289-.352,2.127,2.127,0,0,0,.883-.914V-4.1H66.49q-2.656,0-2.656,1.555a1.316,1.316,0,0,0,.453,1.063A1.742,1.742,0,0,0,65.45-1.1Zm8.719-4.266,1.875-3.086h1.688l-2.766,4.18L77.818,0H76.146L74.193-3.164,72.24,0H70.56l2.852-4.273-2.766-4.18h1.672Z" transform="translate(840.669 12973.963)"/>
    <path id="Trazado_996556" data-name="Trazado 996556" d="M2.828-1.227H8.219V0H1.32V-11.375H2.828ZM11.273,0H9.82V-8.453h1.453Zm.016-11.992h1.75L10.945-9.7H9.781Zm3.734,3.539.047,1.063A3.08,3.08,0,0,1,17.6-8.609q2.68,0,2.7,3.023V0H18.859V-5.594a1.946,1.946,0,0,0-.418-1.352,1.675,1.675,0,0,0-1.277-.437,2.086,2.086,0,0,0-1.234.375,2.546,2.546,0,0,0-.828.984V0H13.656V-8.453ZM25.992.156A3.693,3.693,0,0,1,23.2-.973a4.19,4.19,0,0,1-1.078-3.02v-.266A5.073,5.073,0,0,1,22.6-6.5a3.748,3.748,0,0,1,1.344-1.547,3.378,3.378,0,0,1,1.871-.559,3.166,3.166,0,0,1,2.563,1.086,4.7,4.7,0,0,1,.914,3.109v.6H23.563a3,3,0,0,0,.73,2.02,2.3,2.3,0,0,0,1.777.77,2.517,2.517,0,0,0,1.3-.312,3.259,3.259,0,0,0,.93-.828l.883.688A3.55,3.55,0,0,1,25.992.156Zm-.18-7.578a1.928,1.928,0,0,0-1.469.637A3.1,3.1,0,0,0,23.609-5h4.234v-.109a2.753,2.753,0,0,0-.594-1.707A1.815,1.815,0,0,0,25.813-7.422ZM36.18,0a3.036,3.036,0,0,1-.2-.891A3.225,3.225,0,0,1,33.57.156,2.984,2.984,0,0,1,31.52-.551a2.287,2.287,0,0,1-.8-1.793,2.39,2.39,0,0,1,1-2.051,4.733,4.733,0,0,1,2.824-.73h1.406v-.664A1.623,1.623,0,0,0,35.5-7a1.821,1.821,0,0,0-1.336-.449,2.107,2.107,0,0,0-1.3.391,1.151,1.151,0,0,0-.523.945H30.891a2,2,0,0,1,.449-1.223,3.066,3.066,0,0,1,1.219-.934,4.1,4.1,0,0,1,1.691-.344,3.342,3.342,0,0,1,2.289.73A2.635,2.635,0,0,1,37.4-5.867v3.891a4.757,4.757,0,0,0,.3,1.852V0Zm-2.4-1.1a2.54,2.54,0,0,0,1.289-.352,2.127,2.127,0,0,0,.883-.914V-4.1H34.82q-2.656,0-2.656,1.555a1.316,1.316,0,0,0,.453,1.063A1.742,1.742,0,0,0,33.781-1.1ZM45.07-7.43a3.073,3.073,0,0,1,2.5-1.18q2.68,0,2.7,3.023V0H48.828V-5.594a1.946,1.946,0,0,0-.418-1.352,1.675,1.675,0,0,0-1.277-.437,2.086,2.086,0,0,0-1.234.375,2.546,2.546,0,0,0-.828.984V0H43.625V-12H45.07ZM52.055-4.3a4.993,4.993,0,0,1,.488-2.234A3.643,3.643,0,0,1,53.9-8.07a3.7,3.7,0,0,1,1.988-.539,3.565,3.565,0,0,1,2.793,1.2,4.6,4.6,0,0,1,1.066,3.18v.1a5.036,5.036,0,0,1-.473,2.215A3.589,3.589,0,0,1,57.926-.391a3.743,3.743,0,0,1-2.02.547,3.556,3.556,0,0,1-2.785-1.2A4.575,4.575,0,0,1,52.055-4.2Zm1.453.172a3.616,3.616,0,0,0,.652,2.258,2.088,2.088,0,0,0,1.746.852,2.075,2.075,0,0,0,1.75-.863A3.955,3.955,0,0,0,58.3-4.3a3.61,3.61,0,0,0-.66-2.254,2.1,2.1,0,0,0-1.754-.863,2.075,2.075,0,0,0-1.727.852A3.925,3.925,0,0,0,53.508-4.133Zm9.414-4.32.039.938a3.122,3.122,0,0,1,2.508-1.094A2.417,2.417,0,0,1,67.883-7.25a3.2,3.2,0,0,1,1.1-.984,3.242,3.242,0,0,1,1.6-.375q2.781,0,2.828,2.945V0H71.961V-5.578a1.941,1.941,0,0,0-.414-1.355,1.823,1.823,0,0,0-1.391-.449,1.916,1.916,0,0,0-1.336.48A1.949,1.949,0,0,0,68.2-5.609V0H66.75V-5.539a1.613,1.613,0,0,0-1.8-1.844A1.934,1.934,0,0,0,63-6.172V0H61.555V-8.453Zm19.82,4.32a5.026,5.026,0,0,1-.891,3.113A2.846,2.846,0,0,1,79.461.156,2.947,2.947,0,0,1,76.984-.977L76.914,0H75.586V-12h1.445v4.477a2.93,2.93,0,0,1,2.414-1.086,2.863,2.863,0,0,1,2.418,1.164,5.177,5.177,0,0,1,.879,3.188ZM81.3-4.3a3.906,3.906,0,0,0-.57-2.281,1.888,1.888,0,0,0-1.641-.8,2.122,2.122,0,0,0-2.055,1.328V-2.4A2.181,2.181,0,0,0,79.1-1.07a1.878,1.878,0,0,0,1.617-.8A4.153,4.153,0,0,0,81.3-4.3Zm7.352-2.859a4.331,4.331,0,0,0-.711-.055A1.9,1.9,0,0,0,86.008-6V0H84.563V-8.453h1.406l.023.977a2.251,2.251,0,0,1,2.016-1.133,1.477,1.477,0,0,1,.641.109ZM89.294-4.3a4.993,4.993,0,0,1,.488-2.234A3.643,3.643,0,0,1,91.141-8.07a3.7,3.7,0,0,1,1.988-.539,3.565,3.565,0,0,1,2.793,1.2,4.6,4.6,0,0,1,1.066,3.18v.1a5.036,5.036,0,0,1-.473,2.215A3.589,3.589,0,0,1,95.165-.391a3.743,3.743,0,0,1-2.02.547,3.556,3.556,0,0,1-2.785-1.2A4.575,4.575,0,0,1,89.294-4.2Zm1.453.172A3.616,3.616,0,0,0,91.4-1.875a2.088,2.088,0,0,0,1.746.852,2.075,2.075,0,0,0,1.75-.863A3.955,3.955,0,0,0,95.544-4.3a3.61,3.61,0,0,0-.66-2.254,2.1,2.1,0,0,0-1.754-.863A2.075,2.075,0,0,0,91.4-6.57,3.925,3.925,0,0,0,90.747-4.133Zm12.977,1.891a1.064,1.064,0,0,0-.441-.91,4.249,4.249,0,0,0-1.539-.559A7.277,7.277,0,0,1,100-4.273a2.479,2.479,0,0,1-.953-.781,1.869,1.869,0,0,1-.309-1.078,2.193,2.193,0,0,1,.879-1.758,3.432,3.432,0,0,1,2.246-.719,3.532,3.532,0,0,1,2.332.742,2.357,2.357,0,0,1,.895,1.9h-1.453a1.3,1.3,0,0,0-.5-1.023,1.888,1.888,0,0,0-1.27-.43,1.976,1.976,0,0,0-1.234.344,1.082,1.082,0,0,0-.445.9.877.877,0,0,0,.414.789,5.1,5.1,0,0,0,1.5.508,7.8,7.8,0,0,1,1.754.578,2.558,2.558,0,0,1,1,.809,1.988,1.988,0,0,1,.324,1.152,2.163,2.163,0,0,1-.906,1.816,3.8,3.8,0,0,1-2.352.684,4.257,4.257,0,0,1-1.8-.359,2.922,2.922,0,0,1-1.223-1A2.42,2.42,0,0,1,98.45-2.6H99.9a1.5,1.5,0,0,0,.582,1.152,2.258,2.258,0,0,0,1.434.426,2.331,2.331,0,0,0,1.316-.332A1.02,1.02,0,0,0,103.723-2.242Z" transform="translate(1194.629 12973.963)"/>
    <path id="Trazado_996557" data-name="Trazado 996557" d="M2.651-1.15H7.705V0H1.238V-10.664H2.651ZM10.569,0H9.207V-7.925h1.362Zm.015-11.243h1.641L10.261-9.089H9.17Zm3.5,3.318.044,1A2.888,2.888,0,0,1,16.5-8.071q2.512,0,2.534,2.834V0H17.681V-5.244a1.824,1.824,0,0,0-.392-1.267,1.57,1.57,0,0,0-1.2-.41,1.956,1.956,0,0,0-1.157.352,2.387,2.387,0,0,0-.776.923V0H12.8V-7.925ZM24.368.146A3.463,3.463,0,0,1,21.746-.912a3.928,3.928,0,0,1-1.011-2.831v-.249a4.756,4.756,0,0,1,.45-2.106,3.514,3.514,0,0,1,1.26-1.45A3.167,3.167,0,0,1,24.2-8.071a2.968,2.968,0,0,1,2.4,1.018,4.408,4.408,0,0,1,.857,2.915v.564H22.09a2.817,2.817,0,0,0,.685,1.893,2.153,2.153,0,0,0,1.666.721,2.36,2.36,0,0,0,1.216-.293,3.055,3.055,0,0,0,.872-.776l.828.645A3.328,3.328,0,0,1,24.368.146Zm-.168-7.1a1.807,1.807,0,0,0-1.377.6,2.9,2.9,0,0,0-.688,1.674H26.1v-.1a2.581,2.581,0,0,0-.557-1.6A1.7,1.7,0,0,0,24.2-6.958ZM33.918,0a2.846,2.846,0,0,1-.19-.835,3.023,3.023,0,0,1-2.256.981A2.8,2.8,0,0,1,29.55-.516,2.145,2.145,0,0,1,28.8-2.2,2.24,2.24,0,0,1,29.74-4.12,4.437,4.437,0,0,1,32.388-4.8h1.318v-.623a1.522,1.522,0,0,0-.425-1.132,1.707,1.707,0,0,0-1.252-.421,1.976,1.976,0,0,0-1.216.366,1.079,1.079,0,0,0-.491.886H28.96a1.87,1.87,0,0,1,.421-1.146,2.874,2.874,0,0,1,1.143-.875,3.844,3.844,0,0,1,1.586-.322,3.133,3.133,0,0,1,2.146.685A2.47,2.47,0,0,1,35.061-5.5v3.647a4.459,4.459,0,0,0,.278,1.736V0ZM31.67-1.033a2.381,2.381,0,0,0,1.208-.33,1.994,1.994,0,0,0,.828-.857V-3.845H32.644q-2.49,0-2.49,1.458a1.234,1.234,0,0,0,.425,1A1.633,1.633,0,0,0,31.67-1.033ZM47.607-3.875a4.712,4.712,0,0,1-.835,2.919,2.668,2.668,0,0,1-2.241,1.1A2.763,2.763,0,0,1,42.209-.916L42.144,0H40.9V-11.25h1.355v4.2a2.747,2.747,0,0,1,2.263-1.018A2.684,2.684,0,0,1,46.783-6.98a4.853,4.853,0,0,1,.824,2.988Zm-1.355-.154a3.662,3.662,0,0,0-.535-2.139,1.77,1.77,0,0,0-1.538-.754,1.989,1.989,0,0,0-1.926,1.245v3.428A2.045,2.045,0,0,0,44.194-1a1.76,1.76,0,0,0,1.516-.754A3.894,3.894,0,0,0,46.252-4.028ZM54.207-.784a2.878,2.878,0,0,1-2.322.93,2.464,2.464,0,0,1-1.93-.736,3.186,3.186,0,0,1-.67-2.179V-7.925H50.64v5.12Q50.64-1,52.1-1A2.028,2.028,0,0,0,54.17-2.161V-7.925h1.355V0H54.236ZM62.2-2.1a1,1,0,0,0-.414-.853,3.983,3.983,0,0,0-1.443-.524,6.822,6.822,0,0,1-1.633-.527,2.324,2.324,0,0,1-.894-.732,1.752,1.752,0,0,1-.289-1.011A2.056,2.056,0,0,1,58.348-7.4a3.218,3.218,0,0,1,2.106-.674,3.311,3.311,0,0,1,2.186.7,2.21,2.21,0,0,1,.839,1.78H62.117a1.223,1.223,0,0,0-.472-.959,1.77,1.77,0,0,0-1.19-.4,1.852,1.852,0,0,0-1.157.322,1.014,1.014,0,0,0-.417.842.822.822,0,0,0,.388.74,4.776,4.776,0,0,0,1.4.476,7.308,7.308,0,0,1,1.644.542,2.4,2.4,0,0,1,.934.758,1.864,1.864,0,0,1,.3,1.08,2.028,2.028,0,0,1-.85,1.7,3.564,3.564,0,0,1-2.2.641A3.991,3.991,0,0,1,58.813-.19a2.74,2.74,0,0,1-1.146-.941,2.268,2.268,0,0,1-.414-1.307h1.355a1.4,1.4,0,0,0,.546,1.08,2.117,2.117,0,0,0,1.344.4,2.185,2.185,0,0,0,1.234-.311A.956.956,0,0,0,62.2-2.1Zm4.958-7.742v1.919h1.479v1.047H67.156v4.915a1.1,1.1,0,0,0,.2.714.833.833,0,0,0,.674.238,3.281,3.281,0,0,0,.645-.088V0a3.928,3.928,0,0,1-1.04.146A1.687,1.687,0,0,1,66.262-.4a2.36,2.36,0,0,1-.461-1.56V-6.877H64.358V-7.925H65.8V-9.844Zm2.406,5.808A4.681,4.681,0,0,1,70.02-6.13a3.415,3.415,0,0,1,1.274-1.436,3.469,3.469,0,0,1,1.864-.505,3.342,3.342,0,0,1,2.618,1.121,4.311,4.311,0,0,1,1,2.981v.1A4.722,4.722,0,0,1,76.333-1.8,3.365,3.365,0,0,1,75.066-.366a3.509,3.509,0,0,1-1.893.513A3.334,3.334,0,0,1,70.562-.974a4.29,4.29,0,0,1-1-2.966Zm1.362.161a3.39,3.39,0,0,0,.612,2.117,1.957,1.957,0,0,0,1.637.8,1.945,1.945,0,0,0,1.641-.809,3.707,3.707,0,0,0,.608-2.267A3.384,3.384,0,0,0,74.8-6.149a1.968,1.968,0,0,0-1.644-.809,1.946,1.946,0,0,0-1.619.8A3.68,3.68,0,0,0,70.924-3.875Z" transform="translate(1197.73 13032.105)"/>
    <path id="Trazado_996558" data-name="Trazado 996558" d="M9.023-10.664V-3.64A3.6,3.6,0,0,1,7.928-.872,4.221,4.221,0,0,1,4.937.146,4.269,4.269,0,0,1,1.97-.842,3.535,3.535,0,0,1,.85-3.56v-7.1h2.2v7.039a2.032,2.032,0,0,0,.5,1.527,1.926,1.926,0,0,0,1.388.48q1.853,0,1.882-1.948v-7.1ZM17.908,0H10.6V-1.45l3.45-3.677A8.51,8.51,0,0,0,15.1-6.482a2.177,2.177,0,0,0,.341-1.1A1.629,1.629,0,0,0,15.081-8.7,1.3,1.3,0,0,0,14.055-9.1a1.4,1.4,0,0,0-1.132.494,1.958,1.958,0,0,0-.414,1.3H10.386a3.5,3.5,0,0,1,.465-1.78,3.278,3.278,0,0,1,1.315-1.263,4,4,0,0,1,1.926-.458,3.784,3.784,0,0,1,2.56.791,2.8,2.8,0,0,1,.912,2.234,3.586,3.586,0,0,1-.41,1.611,8.954,8.954,0,0,1-1.406,1.912L13.323-1.707h4.585Z" transform="translate(897.314 12864.835)"/>
    <path id="Trazado_996559" data-name="Trazado 996559" d="M3.063-1.647H8.08V0H.5V-1.2L5.421-8.292H.506V-9.953H7.971v1.176ZM13.959,0H11.983V-7.615l-2.358.731V-8.49l4.122-1.477h.212Z" transform="translate(1019.856 12894.19)"/>
    <path id="Trazado_996560" data-name="Trazado 996560" d="M9.39-1.348a3.814,3.814,0,0,1-1.677,1.1,7.024,7.024,0,0,1-2.4.392,4.759,4.759,0,0,1-2.428-.6A4.03,4.03,0,0,1,1.271-2.212a6.174,6.174,0,0,1-.582-2.7V-5.64A6.557,6.557,0,0,1,1.227-8.4,3.982,3.982,0,0,1,2.78-10.192a4.473,4.473,0,0,1,2.377-.619,4.454,4.454,0,0,1,2.966.9A3.866,3.866,0,0,1,9.39-7.273H7.251A2.126,2.126,0,0,0,6.6-8.613a2.07,2.07,0,0,0-1.381-.425A1.948,1.948,0,0,0,3.516-8.2a4.429,4.429,0,0,0-.593,2.5v.681A4.216,4.216,0,0,0,3.56-2.476a2.182,2.182,0,0,0,1.868.857,2.437,2.437,0,0,0,1.765-.527V-3.984h-2V-5.6h4.2ZM16.084,0H13.967V-8.159l-2.527.784V-9.1l4.417-1.582h.227Z" transform="translate(1107.65 12874.227)"/>
    <path id="Trazado_996561" data-name="Trazado 996561" d="M9.7-5.09a6.425,6.425,0,0,1-.483,2.6A4.457,4.457,0,0,1,7.874-.725L9.646.667,8.247,1.9,5.977.081a4.806,4.806,0,0,1-.806.066A4.437,4.437,0,0,1,2.805-.491a4.233,4.233,0,0,1-1.611-1.82A6.253,6.253,0,0,1,.615-5.032v-.527a6.4,6.4,0,0,1,.568-2.772,4.226,4.226,0,0,1,1.6-1.838,4.412,4.412,0,0,1,2.369-.641,4.412,4.412,0,0,1,2.369.641,4.226,4.226,0,0,1,1.6,1.838A6.386,6.386,0,0,1,9.7-5.566ZM7.471-5.574a4.488,4.488,0,0,0-.6-2.549,1.957,1.957,0,0,0-1.714-.872,1.958,1.958,0,0,0-1.707.861A4.436,4.436,0,0,0,2.842-5.61v.52a4.544,4.544,0,0,0,.6,2.534,1.952,1.952,0,0,0,1.729.9,1.935,1.935,0,0,0,1.7-.868,4.517,4.517,0,0,0,.6-2.531Z" transform="translate(1068.207 13032.939)"/>
    <path id="Trazado_996562" data-name="Trazado 996562" d="M9.39-1.348a3.814,3.814,0,0,1-1.677,1.1,7.024,7.024,0,0,1-2.4.392,4.759,4.759,0,0,1-2.428-.6A4.03,4.03,0,0,1,1.271-2.212a6.174,6.174,0,0,1-.582-2.7V-5.64A6.557,6.557,0,0,1,1.227-8.4,3.982,3.982,0,0,1,2.78-10.192a4.473,4.473,0,0,1,2.377-.619,4.454,4.454,0,0,1,2.966.9A3.866,3.866,0,0,1,9.39-7.273H7.251A2.126,2.126,0,0,0,6.6-8.613a2.07,2.07,0,0,0-1.381-.425A1.948,1.948,0,0,0,3.516-8.2a4.429,4.429,0,0,0-.593,2.5v.681A4.216,4.216,0,0,0,3.56-2.476a2.182,2.182,0,0,0,1.868.857,2.437,2.437,0,0,0,1.765-.527V-3.984h-2V-5.6h4.2ZM16.084,0H13.967V-8.159l-2.527.784V-9.1l4.417-1.582h.227Z" transform="translate(1144.019 12977.168)"/>
    <path id="Trazado_996563" data-name="Trazado 996563" d="M7.368-4.622H3.149v2.856H8.1V0H.952V-10.664H8.086v1.78H3.149v2.542H7.368Z" transform="translate(1079.779 13267.935)"/>
    <path id="Trazado_996564" data-name="Trazado 996564" d="M4.9-9.953H6.952v6.891a3.3,3.3,0,0,1-.42,1.678A2.853,2.853,0,0,1,5.346-.26a3.705,3.705,0,0,1-1.729.4,3.522,3.522,0,0,1-2.461-.8A2.918,2.918,0,0,1,.273-2.939H2.338a1.6,1.6,0,0,0,.308,1.08,1.231,1.231,0,0,0,.971.349,1.175,1.175,0,0,0,.937-.4A1.7,1.7,0,0,0,4.9-3.062ZM13.3,0H11.32V-7.615l-2.358.731V-8.49l4.122-1.477H13.3Z" transform="translate(972.778 12972.805)"/>
    <path id="Trazado_996565" data-name="Trazado 996565" d="M3.289,0h-2.2V-10.664h2.2Zm6.951,0H8.123V-8.159L5.6-7.375V-9.1l4.417-1.582h.227Z" transform="translate(1014.01 13075.64)"/>
    <path id="Trazado_996566" data-name="Trazado 996566" d="M3.149-3.757V0H.952V-10.664h4.16a4.813,4.813,0,0,1,2.113.439,3.238,3.238,0,0,1,1.4,1.249,3.482,3.482,0,0,1,.491,1.842A3.062,3.062,0,0,1,8.046-4.662a4.469,4.469,0,0,1-2.97.9Zm0-1.78H5.112a1.93,1.93,0,0,0,1.329-.41A1.492,1.492,0,0,0,6.9-7.119a1.759,1.759,0,0,0-.461-1.267,1.724,1.724,0,0,0-1.274-.5H3.149ZM15.542,0H13.425V-8.159L10.9-7.375V-9.1l4.417-1.582h.227Z" transform="translate(1235.78 12874.227)"/>
    <path id="Trazado_996567" data-name="Trazado 996567" d="M3.149-3.757V0H.952V-10.664h4.16a4.813,4.813,0,0,1,2.113.439,3.238,3.238,0,0,1,1.4,1.249,3.482,3.482,0,0,1,.491,1.842A3.062,3.062,0,0,1,8.046-4.662a4.469,4.469,0,0,1-2.97.9Zm0-1.78H5.112a1.93,1.93,0,0,0,1.329-.41A1.492,1.492,0,0,0,6.9-7.119a1.759,1.759,0,0,0-.461-1.267,1.724,1.724,0,0,0-1.274-.5H3.149Z" transform="translate(1270.195 12822.136)"/>
    <path id="Trazado_996568" data-name="Trazado 996568" d="M.952,0V-10.664H4.233a4.983,4.983,0,0,1,2.516.634,4.418,4.418,0,0,1,1.732,1.8A5.557,5.557,0,0,1,9.1-5.574v.491a5.573,5.573,0,0,1-.612,2.644A4.38,4.38,0,0,1,6.768-.645,5.021,5.021,0,0,1,4.255,0Zm2.2-8.884v7.119H4.211a2.386,2.386,0,0,0,1.97-.842,3.806,3.806,0,0,0,.7-2.41v-.564A3.867,3.867,0,0,0,6.2-8.046a2.378,2.378,0,0,0-1.97-.839Z" transform="translate(1364.502 12861.17)"/>
    <path id="Trazado_996569" data-name="Trazado 996569" d="M3.149-1.765H7.815V0H.952V-10.664h2.2Z" transform="translate(1365.32 12986.286)"/>
    <path id="Trazado_996570" data-name="Trazado 996570" d="M8.989,0H6.938V-4.266h-4V0H.889V-9.953H2.939V-5.92h4V-9.953H8.989Z" transform="translate(1364.063 13048.48)"/>
    <path id="Trazado_996571" data-name="Trazado 996571" d="M9.324-3.552A3.774,3.774,0,0,1,8.053-.842,4.463,4.463,0,0,1,5.032.146,4.013,4.013,0,0,1,1.805-1.234,5.661,5.661,0,0,1,.63-5.024v-.652a6.393,6.393,0,0,1,.542-2.71,4.062,4.062,0,0,1,1.549-1.8,4.339,4.339,0,0,1,2.34-.626,4.348,4.348,0,0,1,2.974.989,4.055,4.055,0,0,1,1.3,2.776h-2.2a2.227,2.227,0,0,0-.575-1.5,2.129,2.129,0,0,0-1.505-.465,1.867,1.867,0,0,0-1.644.787,4.413,4.413,0,0,0-.56,2.443v.806A4.723,4.723,0,0,0,3.38-2.446a1.832,1.832,0,0,0,1.652.8,2.169,2.169,0,0,0,1.52-.465,2.1,2.1,0,0,0,.575-1.439Z" transform="translate(1364.457 13249.288)"/>
    <path id="Trazado_996572" data-name="Trazado 996572" d="M9.324-3.552A3.774,3.774,0,0,1,8.053-.842,4.463,4.463,0,0,1,5.032.146,4.013,4.013,0,0,1,1.805-1.234,5.661,5.661,0,0,1,.63-5.024v-.652a6.393,6.393,0,0,1,.542-2.71,4.062,4.062,0,0,1,1.549-1.8,4.339,4.339,0,0,1,2.34-.626,4.348,4.348,0,0,1,2.974.989,4.055,4.055,0,0,1,1.3,2.776h-2.2a2.227,2.227,0,0,0-.575-1.5,2.129,2.129,0,0,0-1.505-.465,1.867,1.867,0,0,0-1.644.787,4.413,4.413,0,0,0-.56,2.443v.806A4.723,4.723,0,0,0,3.38-2.446a1.832,1.832,0,0,0,1.652.8,2.169,2.169,0,0,0,1.52-.465,2.1,2.1,0,0,0,.575-1.439ZM15.681,0H13.564V-8.159l-2.527.784V-9.1l4.417-1.582h.227Z" transform="translate(1333.89 13360)"/>
    <path id="Trazado_996573" data-name="Trazado 996573" d="M9.324-3.552A3.774,3.774,0,0,1,8.053-.842,4.463,4.463,0,0,1,5.032.146,4.013,4.013,0,0,1,1.805-1.234,5.661,5.661,0,0,1,.63-5.024v-.652a6.393,6.393,0,0,1,.542-2.71,4.062,4.062,0,0,1,1.549-1.8,4.339,4.339,0,0,1,2.34-.626,4.348,4.348,0,0,1,2.974.989,4.055,4.055,0,0,1,1.3,2.776h-2.2a2.227,2.227,0,0,0-.575-1.5,2.129,2.129,0,0,0-1.505-.465,1.867,1.867,0,0,0-1.644.787,4.413,4.413,0,0,0-.56,2.443v.806A4.723,4.723,0,0,0,3.38-2.446a1.832,1.832,0,0,0,1.652.8,2.169,2.169,0,0,0,1.52-.465,2.1,2.1,0,0,0,.575-1.439ZM15.681,0H13.564V-8.159l-2.527.784V-9.1l4.417-1.582h.227Z" transform="translate(1349.84 13468.5)"/>
    <g id="Grupo_1177205" data-name="Grupo 1177205" transform="translate(733.711 12801)">
      <g id="Grupo_1177204" data-name="Grupo 1177204" clip-path="url(#clip-path)">
        <text id="E1" transform="translate(333.033 692.002)" font-size="14" font-family="Roboto-Bold, Roboto" font-weight="700"><tspan x="0" y="0">E1</tspan></text>
        <text id="B1" transform="translate(0.005 683.807)" font-size="15" font-family="Roboto-Bold, Roboto" font-weight="700"><tspan x="0" y="0">B1</tspan></text>
      </g>
    </g>
    <path id="Trazado_996574" data-name="Trazado 996574" d="M.889,0V-9.953H4.375a4.578,4.578,0,0,1,2.748.694A2.373,2.373,0,0,1,8.06-7.226a2.249,2.249,0,0,1-.376,1.289,2.172,2.172,0,0,1-1.046.817,2.1,2.1,0,0,1,1.207.772,2.284,2.284,0,0,1,.441,1.422A2.627,2.627,0,0,1,7.369-.752,4.124,4.124,0,0,1,4.758,0ZM2.939-4.334v2.687H4.7a1.7,1.7,0,0,0,1.131-.345,1.184,1.184,0,0,0,.407-.954A1.25,1.25,0,0,0,4.819-4.334Zm0-1.449H4.457q1.552-.027,1.552-1.237a1.143,1.143,0,0,0-.393-.974,2.067,2.067,0,0,0-1.241-.3H2.939Z" transform="translate(771.781 13269.18)"/>
    <g id="Grupo_1177207" data-name="Grupo 1177207" transform="translate(733.711 12801)">
      <g id="Grupo_1177206" data-name="Grupo 1177206" clip-path="url(#clip-path)">
        <text id="D1" transform="translate(632.324 79.997)" font-size="15" font-family="Roboto-Bold, Roboto" font-weight="700"><tspan x="0" y="0">D1</tspan></text>
      </g>
    </g>
    <path id="Trazado_996575" data-name="Trazado 996575" d="M9.023-10.664V-3.64A3.6,3.6,0,0,1,7.928-.872,4.221,4.221,0,0,1,4.937.146,4.269,4.269,0,0,1,1.97-.842,3.535,3.535,0,0,1,.85-3.56v-7.1h2.2v7.039a2.032,2.032,0,0,0,.5,1.527,1.926,1.926,0,0,0,1.388.48q1.853,0,1.882-1.948v-7.1ZM15.74,0H13.623V-8.159L11.1-7.375V-9.1l4.417-1.582h.227Z" transform="translate(738.95 12924.638)"/>
    <g id="Grupo_1177209" data-name="Grupo 1177209" transform="translate(733.711 12801)">
      <g id="Grupo_1177208" data-name="Grupo 1177208" clip-path="url(#clip-path)">
        <text id="U" transform="translate(128.238 12.652)" font-size="15" font-family="Roboto-Bold, Roboto" font-weight="700"><tspan x="0" y="0">U</tspan></text>
      </g>
    </g>
    <path id="Trazado_996576" data-name="Trazado 996576" d="M4.724,0H.532V-.584L2.747-3.045a5.262,5.262,0,0,0,.679-.907,1.515,1.515,0,0,0,.187-.723,1.148,1.148,0,0,0-.3-.822A1.06,1.06,0,0,0,2.5-5.818a1.256,1.256,0,0,0-.943.345,1.318,1.318,0,0,0-.336.96H.409A1.887,1.887,0,0,1,.978-5.941,2.11,2.11,0,0,1,2.5-6.486a2.027,2.027,0,0,1,1.411.468A1.6,1.6,0,0,1,4.43-4.772a3.66,3.66,0,0,1-1.2,2.25L1.512-.664H4.724Z" transform="translate(882.127 12832.276)"/>
    <path id="Trazado_996577" data-name="Trazado 996577" d="M.905-3.208,1.23-6.4H4.509v.751H1.92L1.727-3.9a2.065,2.065,0,0,1,1.068-.277A1.765,1.765,0,0,1,4.184-3.6,2.265,2.265,0,0,1,4.7-2.039,2.186,2.186,0,0,1,4.164-.481,1.946,1.946,0,0,1,2.672.088a2.023,2.023,0,0,1-1.384-.47,1.877,1.877,0,0,1-.611-1.3h.769a1.291,1.291,0,0,0,.391.828,1.216,1.216,0,0,0,.835.279,1.1,1.1,0,0,0,.89-.387A1.617,1.617,0,0,0,3.885-2.03a1.484,1.484,0,0,0-.349-1.031,1.188,1.188,0,0,0-.929-.389,1.34,1.34,0,0,0-.835.233l-.215.176Z" transform="translate(1342.866 13297.833)"/>
    <path id="Trazado_996578" data-name="Trazado 996578" d="M4.724,0H.532V-.584L2.747-3.045a5.262,5.262,0,0,0,.679-.907,1.515,1.515,0,0,0,.187-.723,1.148,1.148,0,0,0-.3-.822A1.06,1.06,0,0,0,2.5-5.818a1.256,1.256,0,0,0-.943.345,1.318,1.318,0,0,0-.336.96H.409A1.887,1.887,0,0,1,.978-5.941,2.11,2.11,0,0,1,2.5-6.486a2.027,2.027,0,0,1,1.411.468A1.6,1.6,0,0,1,4.43-4.772a3.66,3.66,0,0,1-1.2,2.25L1.512-.664H4.724Z" transform="translate(768.815 13381.9)"/>
    <path id="Trazado_996579" data-name="Trazado 996579" d="M1.714-3.595h.611a1.343,1.343,0,0,0,.905-.3,1.013,1.013,0,0,0,.33-.8A.992.992,0,0,0,2.439-5.818a1.166,1.166,0,0,0-.842.3,1.054,1.054,0,0,0-.314.8H.47a1.632,1.632,0,0,1,.556-1.263,2.025,2.025,0,0,1,1.413-.5,2,2,0,0,1,1.419.479,1.73,1.73,0,0,1,.514,1.332,1.4,1.4,0,0,1-.27.809,1.632,1.632,0,0,1-.736.584,1.572,1.572,0,0,1,.815.554,1.538,1.538,0,0,1,.288.945A1.745,1.745,0,0,1,3.907-.417,2.106,2.106,0,0,1,2.443.088,2.162,2.162,0,0,1,.978-.4,1.618,1.618,0,0,1,.413-1.687H1.23a1.046,1.046,0,0,0,.33.809,1.254,1.254,0,0,0,.883.3,1.23,1.23,0,0,0,.9-.308,1.186,1.186,0,0,0,.312-.883,1.076,1.076,0,0,0-.343-.857,1.493,1.493,0,0,0-.989-.308H1.714Z" transform="translate(773.439 12946.225)"/>
    <path id="Trazado_996580" data-name="Trazado 996580" d="M4.724,0H.532V-.584L2.747-3.045a5.262,5.262,0,0,0,.679-.907,1.515,1.515,0,0,0,.187-.723,1.148,1.148,0,0,0-.3-.822A1.06,1.06,0,0,0,2.5-5.818a1.256,1.256,0,0,0-.943.345,1.318,1.318,0,0,0-.336.96H.409A1.887,1.887,0,0,1,.978-5.941,2.11,2.11,0,0,1,2.5-6.486a2.027,2.027,0,0,1,1.411.468A1.6,1.6,0,0,1,4.43-4.772a3.66,3.66,0,0,1-1.2,2.25L1.512-.664H4.724Z" transform="translate(1242.28 12832.276)"/>
    <path id="Trazado_996581" data-name="Trazado 996581" d="M3.2,0H2.386V-5.418l-1.639.6v-.738l2.329-.875H3.2Z" transform="translate(754.354 13383.103)"/>
    <path id="Trazado_996582" data-name="Trazado 996582" d="M3.823-10.664,6.563-2.93l2.725-7.734h2.886V0h-2.2V-2.915l.22-5.032L7.31,0H5.8L2.93-7.939l.22,5.024V0H.952V-10.664Z" transform="translate(774.432 12979.223)"/>
    <path id="Trazado_996583" data-name="Trazado 996583" d="M6.973-2.2H3.12L2.388,0H.051l3.97-10.664H6.057L10.049,0H7.712ZM3.713-3.977H6.379L5.039-7.969Z" transform="translate(748.196 12832.916)"/>
    <g id="Grupo_1177211" data-name="Grupo 1177211" transform="translate(733.711 12801)">
      <g id="Grupo_1177210" data-name="Grupo 1177210" clip-path="url(#clip-path)">
        <path id="Trazado_995785" data-name="Trazado 995785" d="M37.154,455.331h-.012a.842.842,0,0,1-.83-.853L42.2,32.71a.842.842,0,0,1,.842-.83h95.933a.848.848,0,0,1,.323.064L169.6,44.529a.842.842,0,1,1-.646,1.554l-30.138-12.52H43.875L38,454.5a.842.842,0,0,1-.842.83" transform="translate(-5.755 -5.053)"/>
        <path id="Trazado_995786" data-name="Trazado 995786" d="M42.83,125.427l-.1-1.681c.015,0,1.543-.092,4.163-.435l.218,1.669c-2.686.353-4.219.443-4.284.447m8.494-1.086-.284-1.659c1.35-.231,2.736-.492,4.121-.778l.34,1.649c-1.4.289-2.809.555-4.176.789m8.321-1.717-.395-1.637c1.347-.324,2.712-.677,4.057-1.047l.448,1.622c-1.363.375-2.746.732-4.11,1.061m8.18-2.253-.5-1.607c1.321-.411,2.659-.85,3.977-1.306l.551,1.59c-1.335.462-2.691.907-4.03,1.323m8.014-2.779-.605-1.571c1.306-.5,2.611-1.03,3.879-1.568L79.771,116c-1.285.545-2.609,1.081-3.932,1.59m7.806-3.316-.711-1.525c1.27-.592,2.532-1.211,3.755-1.836l.767,1.5c-1.241.634-2.522,1.261-3.811,1.863m7.549-3.866-.823-1.468c1.211-.678,2.424-1.389,3.6-2.111l.879,1.435c-1.2.734-2.429,1.456-3.659,2.145m7.232-4.433-.937-1.4c1.15-.77,2.3-1.575,3.419-2.392l.993,1.359c-1.137.831-2.306,1.649-3.475,2.432m6.847-5.009-1.05-1.314c1.09-.87,2.166-1.77,3.2-2.673l1.108,1.267c-1.053.92-2.148,1.835-3.257,2.72m6.39-5.58L110.5,94.173c1-.957,1.994-1.947,2.947-2.944l1.217,1.162c-.972,1.016-1.981,2.026-3,3m5.863-6.133-1.269-1.1c.911-1.045,1.807-2.123,2.662-3.2l1.32,1.045c-.872,1.1-1.785,2.2-2.713,3.263m5.269-6.649-1.367-.982c.8-1.118,1.595-2.275,2.352-3.437l1.41.918c-.77,1.184-1.576,2.361-2.395,3.5m4.623-7.109-1.452-.852c.7-1.195,1.382-2.419,2.023-3.639l1.489.783c-.652,1.242-1.346,2.49-2.06,3.708m3.95-7.5-1.523-.717c.584-1.241,1.151-2.521,1.688-3.807l1.553.649c-.545,1.308-1.123,2.611-1.718,3.875m3.266-7.821-1.58-.581c.47-1.277.927-2.6,1.358-3.941l1.6.517c-.439,1.359-.9,2.706-1.381,4m2.6-8.063-1.622-.45c.37-1.33.719-2.689,1.039-4.038l1.637.388c-.324,1.37-.678,2.75-1.054,4.1m1.951-8.238-1.65-.327c.268-1.355.516-2.737.737-4.108l1.661.268c-.224,1.391-.475,2.794-.748,4.168m1.352-8.359-1.67-.212q.159-1.253.3-2.53l1.673.178q-.136,1.294-.3,2.564" transform="translate(-6.773 -5.194)" fill="#ffa200"/>
        <path id="Trazado_995787" data-name="Trazado 995787" d="M703.049,68.37l-.011-1.683q2.049-.014,4.19-.075l.048,1.682q-2.16.063-4.227.076m-4.227-.024q-2.167-.038-4.227-.13l.074-1.681q2.037.09,4.181.128Zm12.673-.216-.082-1.681q2.051-.1,4.184-.245l.115,1.679q-2.152.146-4.218.247m-21.119-.159c-1.42-.1-2.838-.23-4.216-.375l.178-1.675c1.361.144,2.759.268,4.16.37Zm29.546-.412-.145-1.676.732-.064.146,1.676Zm-37.962-.481c-1.418-.2-2.825-.428-4.183-.676l.3-1.656c1.336.244,2.721.468,4.117.666Zm-8.337-1.529c-1.4-.321-2.785-.675-4.113-1.051l.458-1.619c1.3.368,2.658.714,4.032,1.03Zm-8.168-2.325c-1.367-.475-2.705-.988-3.974-1.527l.655-1.549c1.238.523,2.54,1.023,3.871,1.485Zm-7.839-3.338c-1.3-.672-2.546-1.389-3.708-2.132l.905-1.419c1.12.716,2.323,1.408,3.576,2.058Zm-7.2-4.627a33.927,33.927,0,0,1-3.191-2.9l1.212-1.169a32.285,32.285,0,0,0,3.031,2.752Zm-5.955-6.239a15.543,15.543,0,0,1-2.1-3.943l1.609-.488a14.439,14.439,0,0,0,1.876,3.47Z" transform="translate(-101.804 -7.067)" fill="#ffa200"/>
        <path id="Trazado_995788" data-name="Trazado 995788" d="M32.968,765.079l.05-4.1L34.7,761l-.029,2.328.11,0,.064,1.681Zm6.083-.231-.064-1.681,4.2-.16.065,1.681Zm8.409-.32-.065-1.681,4.205-.161.064,1.682Zm8.409-.32-.064-1.681,4.2-.16.064,1.681Zm8.408-.321-.064-1.681,4.205-.159.064,1.681Zm8.409-.32-.064-1.681,4.2-.159.064,1.681Zm8.409-.32-.064-1.681,4.2-.16.064,1.681Zm8.408-.319-.064-1.681,4.2-.161.065,1.681Zm8.41-.321-.065-1.681,4.205-.16.064,1.681Zm8.408-.32-.064-1.681,4.205-.161.064,1.681Zm8.409-.32-.064-1.681,4.2-.161.064,1.681Zm8.409-.321-.064-1.681,4.2-.159.064,1.681Zm8.408-.32-.064-1.681,4.2-.159.064,1.681Zm8.41-.32-.065-1.681,4.2-.16.065,1.681Zm8.408-.32-.064-1.681,4.205-.16.064,1.681Zm8.409-.32-.064-1.681,4.2-.16.064,1.681Zm8.409-.32-.064-1.681,4.2-.161.064,1.681Zm8.408-.32-.064-1.681,4.2-.161.064,1.681Zm8.409-.321-.064-1.681,4.2-.16.064,1.681Zm8.409-.32-.065-1.681,4.205-.159.065,1.681Zm8.409-.32-.064-1.681,4.2-.16.064,1.681Zm8.409-.32-.064-1.681,4.2-.16.064,1.681Zm8.408-.321-.064-1.681,4.2-.159.064,1.681Zm8.409-.319-.064-1.682,4.2-.16.064,1.681Zm8.408-.32-.064-1.681,4.205-.161.065,1.681Zm8.41-.32-.065-1.681,4.205-.161.064,1.681Zm8.409-.321-.064-1.681,4.2-.16.064,1.681ZM34.752,756.8l-1.683-.019.051-4.208,1.683.019Zm222.935-.265-.064-1.681,4.2-.16.064,1.681Zm8.409-.32-.064-1.681,4.2-.16.064,1.681Zm8.408-.321-.064-1.681,4.205-.159.064,1.681Zm8.409-.32-.064-1.681,4.2-.16.065,1.681Zm8.41-.319-.065-1.682,4.205-.16.064,1.681Zm8.408-.32-.064-1.681,4.2-.161.064,1.681Zm8.409-.321-.064-1.681,4.2-.16.064,1.681Zm8.408-.32-.064-1.681,4.205-.161.064,1.681Zm8.409-.32-.064-1.681,4.2-.16.064,1.681Zm8.409-.321-.064-1.681,4.2-.159.065,1.681Zm8.409-.32-.064-1.681,1.752-.067,2.419-.177.121,1.678-2.448.178Zm8.425-.552-.123-1.678,4.2-.306.124,1.678Zm8.392-.613-.121-1.678,4.2-.305.121,1.678Zm8.393-.612-.122-1.678,4.2-.306.122,1.678Zm8.393-.612-.123-1.678,4.2-.306.124,1.678Zm8.392-.612-.122-1.678,4.2-.306.121,1.679Zm8.394-.612-.124-1.678,4.2-.306.124,1.678Zm8.391-.612-.121-1.678,4.2-.306.122,1.678Zm8.393-.613-.122-1.678,4.2-.305.121,1.678Zm-374.1-.114-1.683-.019.051-4.208,1.683.019Zm382.491-.5-.123-1.678,4.2-.307.124,1.678Zm8.392-.613-.121-1.678,4.2-.306.121,1.678Zm8.394-.611-.124-1.679,4.2-.306.123,1.678Zm8.392-.613-.121-1.678,4.2-.305.122,1.678Zm8.393-.613-.122-1.678,4.2-.306.121,1.678Zm8.394-.611-.124-1.678,4.2-.306.124,1.678Zm8.392-.613-.121-1.678,4.2-.305.122,1.678Zm8.393-.611-.124-1.678,4.2-.307.123,1.679Zm8.392-.613-.122-1.678,4.2-.306.122,1.678Zm8.392-.612-.121-1.678,4.2-.306.122,1.678Zm8.393-.612-.122-1.678,4.2-.305.121,1.678Zm8.392-.612-.121-1.679,4.2-.306.122,1.678Zm8.394-.612-.123-1.678,4.2-.306.123,1.678Zm-483.1-.575-1.683-.019.051-4.207,1.683.019Zm491.5-.037-.122-1.679,4.2-.305.121,1.678Zm8.392-.613-.121-1.678,4.2-.306.122,1.678Zm8.393-.612-.122-1.678,4.2-.305.121,1.678Zm8.393-.612-.122-1.678,4.2-.306.122,1.679Zm8.392-.612L559.9,735.8l4.2-.306.124,1.678Zm8.392-.612-.122-1.678,4.2-.306.121,1.678Zm8.393-.613-.122-1.678,4.2-.305.122,1.678Zm8.392-.611-.121-1.678,4.2-.306.121,1.678Zm8.393-.613-.122-1.678,4.2-.306.121,1.678Zm8.393-.611-.123-1.679,4.2-.306.124,1.678Zm8.392-.613-.121-1.678,4.2-.305.121,1.678Zm8.393-.613-.122-1.678,4.2-.306.121,1.678Zm8.393-.611-.123-1.678.323-.024v-2.318h1.683v3.884ZM35.059,731.553l-1.683-.021.052-4.208,1.683.021Zm593.993-7.195h-1.683V720.15h1.683Zm-593.89-1.219-1.683-.021.052-4.208,1.683.021Zm593.89-7.2h-1.683v-4.208h1.683ZM35.264,714.723l-1.683-.019.051-4.208,1.683.019Zm593.787-7.2h-1.683V703.32h1.683ZM35.367,706.308l-1.682-.019.05-4.207,1.683.019Zm593.685-7.2h-1.683V694.9h1.683ZM35.471,697.894l-1.683-.019.05-4.207,1.683.019Zm593.581-7.2h-1.683v-4.208h1.683ZM35.572,689.48l-1.683-.021.051-4.208,1.683.021Zm593.479-7.2h-1.683v-4.208h1.683ZM35.675,681.066l-1.683-.021.051-4.208,1.683.021Zm593.377-7.2h-1.683v-4.208h1.683ZM35.778,672.65l-1.683-.019.05-4.207,1.683.019Zm593.274-7.2h-1.683v-4.208h1.683ZM35.88,664.236l-1.683-.019.05-4.207,1.683.019Zm593.171-7.2h-1.683v-4.208h1.683ZM35.983,655.821,34.3,655.8l.05-4.208,1.683.019Zm.1-8.414-1.683-.021.052-4.208,1.683.021Zm.1-8.415-1.683-.021.052-4.207,1.683.021Zm.1-8.415-1.683-.019.051-4.207,1.683.019Zm.1-8.414-1.683-.019.051-4.208,1.683.019Zm.1-8.414-1.683-.019.051-4.208,1.683.019Zm.1-8.413-1.683-.021.052-4.208,1.683.021Zm.1-8.415-1.683-.021.052-4.207,1.683.021Zm.1-8.415-1.683-.019.05-4.208,1.683.019Zm.1-8.414-1.683-.019.05-4.208,1.683.019Zm.1-8.414-1.683-.019.05-4.208,1.683.019Zm.1-8.414-1.683-.021.051-4.207,1.683.021Zm.1-8.414-1.683-.021.051-4.208,1.683.021Zm.1-8.415-1.683-.019.05-4.208,1.683.019Zm.1-8.414L35.736,538l.048-3.929,1.683.019Z" transform="translate(-5.225 -84.642)" fill="#ffa200"/>
        <path id="Trazado_995789" data-name="Trazado 995789" d="M400.548,777.252l-.066-2.5,1.683-.045.066,2.5Zm-.178-6.7-.112-4.206,1.683-.045.112,4.206Zm-.224-8.413-.112-4.206,1.683-.045.112,4.206Zm-.224-8.412-.111-4.206,1.683-.045.111,4.206Zm-.222-8.413-.112-4.207,1.683-.044.112,4.207Zm-.224-8.413-.112-4.206,1.683-.044.112,4.206Zm-.223-8.412-.111-4.206,1.683-.044.111,4.206Zm-.223-8.413-.112-4.206,1.683-.045.112,4.207Zm-.224-8.412-.112-4.206,1.683-.045.112,4.206Zm-.223-8.412-.111-4.207,1.683-.045.111,4.207Zm-.223-8.413-.112-4.206,1.683-.045.112,4.206Z" transform="translate(-63.117 -109.448)" fill="#ffa200"/>
        <path id="Trazado_995790" data-name="Trazado 995790" d="M387.449,258.129c-1.063,0-2.132-.024-3.178-.073l.079-1.681c1.019.048,2.062.072,3.1.072.339,0,.7,0,1.054-.008l.026,1.683c-.362.006-.709.01-1.08.008m5.461-.2-.191-.831.011-.844c1.4-.1,2.737-.248,4.033-.443l.25,1.664c-1.339.2-2.72.354-4.1.454m-12.883-.213c-1.423-.162-2.84-.376-4.211-.635l.312-1.653c1.33.251,2.707.458,4.09.616Zm21.171-1.048-.388-1.638c1.337-.317,2.671-.7,3.964-1.124l.529,1.6c-1.339.443-2.719.835-4.1,1.164m-29.537-.539c-1.376-.373-2.745-.8-4.067-1.282l.571-1.583c1.28.463,2.6.88,3.936,1.24Zm37.63-2.148-.671-1.544c1.251-.543,2.5-1.15,3.7-1.807l.8,1.479c-1.25.679-2.541,1.309-3.837,1.872m-45.646-.757c-1.289-.6-2.566-1.256-3.794-1.958l.837-1.461c1.185.679,2.418,1.315,3.663,1.891Zm53.137-3.313-.929-1.4c1.134-.75,2.26-1.564,3.347-2.419l1.04,1.323c-1.123.884-2.286,1.724-3.458,2.5m-60.54-.926c-1.157-.8-2.3-1.671-3.4-2.581l1.074-1.3c1.062.879,2.168,1.719,3.286,2.5Zm67.245-4.338-1.139-1.239c1-.916,1.986-1.9,2.944-2.912l1.224,1.155c-.985,1.046-2.005,2.054-3.029,3m-73.816-1.1c-1.007-.98-2-2.021-2.944-3.1l1.262-1.112c.919,1.042,1.88,2.053,2.855,3Zm79.661-5.1-1.3-1.072c.865-1.048,1.723-2.153,2.548-3.282l1.359.994c-.845,1.155-1.723,2.286-2.609,3.36m-85.309-1.3c-.849-1.112-1.681-2.279-2.472-3.467l1.4-.932c.772,1.158,1.582,2.295,2.41,3.378Zm90.331-5.566-1.41-.918c.741-1.139,1.476-2.332,2.185-3.546l1.453.848c-.723,1.238-1.473,2.455-2.228,3.616M339.3,230.086c-.7-1.2-1.39-2.456-2.044-3.727l1.5-.77c.64,1.245,1.313,2.472,2,3.648Zm99.341-5.817-1.489-.784c.635-1.205,1.263-2.461,1.869-3.733l1.519.724c-.614,1.293-1.254,2.568-1.9,3.794m-103.234-1.734c-.577-1.271-1.139-2.583-1.67-3.9L335.3,218c.522,1.3,1.073,2.588,1.639,3.835Zm106.886-5.921-1.545-.668c.542-1.251,1.078-2.552,1.6-3.865l1.566.616c-.524,1.33-1.067,2.648-1.617,3.917m-110.058-1.949c-.466-1.312-.92-2.663-1.348-4.019l1.6-.507c.422,1.337.869,2.67,1.33,3.962ZM445.4,208.733l-1.585-.569c.459-1.277.917-2.61,1.36-3.959l1.6.525c-.449,1.365-.911,2.711-1.374,4m-115.719-2.148c-.372-1.329-.734-2.707-1.076-4.1l1.633-.4c.338,1.373.7,2.734,1.063,4.046Zm118.361-5.892-1.612-.485q.6-2,1.158-4.027l1.622.447q-.563,2.047-1.168,4.065M327.65,198.364q-.448-2.063-.842-4.148l1.654-.314q.39,2.064.834,4.1Zm122.634-5.827-1.632-.41q.509-2.028.981-4.078l1.64.378q-.477,2.066-.99,4.11m-124.215-2.5q-.347-2.088-.644-4.188l1.667-.236q.3,2.08.637,4.15Zm126.11-5.732-1.647-.347q.432-2.049.826-4.11l1.653.317q-.4,2.075-.832,4.139m-127.305-2.65q-.253-2.1-.466-4.2l1.675-.17q.211,2.083.463,4.166Zm128.9-5.647-1.659-.29q.362-2.071.692-4.149l1.662.264q-.332,2.089-.7,4.175m-129.752-2.753q-.175-2.112-.313-4.214l1.68-.11q.136,2.087.31,4.185Zm131.078-5.6-1.667-.239q.3-2.083.568-4.161l1.67.216q-.271,2.089-.571,4.184m-131.633-2.833q-.1-2.121-.175-4.219l1.681-.058q.072,2.087.175,4.2Zm132.719-5.541-1.671-.2q.242-2.094.458-4.176l1.675.173q-.217,2.092-.461,4.2m-133.007-2.9q-.042-2.129-.051-4.223l1.683-.009q.011,2.08.051,4.2Zm133.875-5.5-1.676-.153q.192-2.1.358-4.187l1.678.135q-.169,2.09-.36,4.205m-132.237-2.929-1.683-.014q.018-2.137.061-4.22l1.683.035q-.043,2.071-.061,4.2m132.909-5.487-1.68-.115q.145-2.113.266-4.195l1.68.1q-.12,2.089-.266,4.213m-132.733-2.909-1.682-.056q.072-2.147.167-4.217l1.681.077q-.093,2.059-.166,4.2m133.223-5.519-1.681-.08q.1-2.123.18-4.2l1.681.064q-.079,2.083-.18,4.216m-132.84-2.871-1.68-.1q.124-2.164.267-4.211l1.68.116q-.141,2.037-.267,4.192m133.159-5.564-1.683-.048q.061-2.135.1-4.2l1.683.032q-.039,2.076-.1,4.22m-132.577-2.815-1.678-.136q.178-2.193.365-4.2l1.677.156q-.187,2-.364,4.184m132.736-5.626-1.683-.016q.022-2.147.022-4.2h1.683q0,2.061-.022,4.217m-131.96-2.737-1.673-.176c.159-1.519.318-2.922.468-4.2l1.672.2c-.151,1.268-.308,2.663-.467,4.174m130.281-5.681q-.018-2.169-.054-4.2l1.683-.029q.034,2.037.054,4.215Zm-129.29-2.659-1.669-.223c.356-2.666.6-4.181.6-4.2l1.662.271c0,.014-.245,1.509-.6,4.149m129.143-5.741q-.058-2.213-.13-4.2l1.681-.061q.072,1.992.132,4.214Zm-.3-8.4c-.072-1.569-.146-2.972-.216-4.194l1.68-.1c.071,1.228.146,2.638.218,4.213Zm-.486-8.383c-.067-.919-.11-1.415-.112-1.437l.808-.916c.821-.019.843.317.982,2.231Z" transform="translate(-51.211 -12.871)" fill="#ffa200"/>
        <path id="Trazado_995791" data-name="Trazado 995791" d="M17,604.639a1.682,1.682,0,0,1-1.683-1.709l6.732-430.846a1.683,1.683,0,0,1,1.612-1.654c60.541-2.572,95.527-35.87,114.215-63.351,20.326-29.891,26.362-59.589,26.421-59.886a1.684,1.684,0,0,1,2.318-1.219L279.374,94.65a1.684,1.684,0,0,1,.947,2.025c-.293.985-28.829,99.13,6.152,144.855,12.289,16.064,31.168,23.911,56.149,23.323a1.873,1.873,0,0,1,.229.01c.173.019,17.65,1.7,34.428-14.93,19.242-19.075,39.9-64.628,29.066-173.318a1.683,1.683,0,0,1,1.3-1.808L517.321,49.641a1.682,1.682,0,0,1,1.531.416c.1.089,9.736,9.047,27.036,15.356,15.942,5.814,41.862,10.5,74.8-.16a1.682,1.682,0,0,1,2.2,1.6V252.792a1.683,1.683,0,1,1-3.366,0V69.149c-32.887,10.079-58.839,5.272-74.948-.633-15.459-5.667-24.824-13.2-27.349-15.4L409.84,77.757c4.713,48.284,3.614,88.384-3.269,119.209-5.471,24.5-14.563,43.16-27.024,55.46-17.392,17.164-35.159,15.964-36.951,15.8-26.037.585-45.837-7.7-58.8-24.65-18.883-24.686-19.678-63.635-17.02-91.962a334.346,334.346,0,0,1,9.909-54.453L167.138,49.867a189.646,189.646,0,0,1-26.415,59c-12.162,17.912-26.9,32.4-43.819,43.07-20.738,13.08-44.792,20.4-71.518,21.777l-6.68,427.477,606.629-27.425.077,0a1.683,1.683,0,0,1,.075,3.364L17.072,604.637l-.076,0" transform="translate(-2.427 -7.264)" fill="#0048c5"/>
        <path id="Trazado_995792" data-name="Trazado 995792" d="M739.362,611.424a.841.841,0,0,1-.842-.83l-4.208-318.973a.842.842,0,0,1,.83-.852h.012a.841.841,0,0,1,.841.831L740.2,610.571a.842.842,0,0,1-.83.853Z" transform="translate(-116.378 -46.083)"/>
        <path id="Trazado_995793" data-name="Trazado 995793" d="M41.549,219.6a.842.842,0,0,1-.012-1.683l241.377-3.353h.012a.842.842,0,0,1,.012,1.683L41.56,219.6Z" transform="translate(-6.451 -34.006)"/>
        <path id="Trazado_995794" data-name="Trazado 995794" d="M627.332,292.452H41.549a.842.842,0,0,1,0-1.683H627.332a.842.842,0,0,1,0,1.683" transform="translate(-6.451 -46.083)"/>
        <path id="Trazado_995795" data-name="Trazado 995795" d="M399.011,628.18h-.021a1.261,1.261,0,0,1-1.241-1.282l5.664-336.943a1.262,1.262,0,1,1,2.525.042L400.274,626.94a1.263,1.263,0,0,1-1.262,1.24" transform="translate(-63.037 -45.757)"/>
        <path id="Trazado_995796" data-name="Trazado 995796" d="M37.155,534.038a.842.842,0,0,1-.006-1.683L626.63,528.5h.006a.842.842,0,0,1,.006,1.683L37.16,534.038Z" transform="translate(-5.755 -83.76)"/>
        <path id="Trazado_995797" data-name="Trazado 995797" d="M17.154,666.013a.842.842,0,0,1-.04-1.682L625.53,635.214a.842.842,0,0,1,.081,1.681L17.195,666.012h-.04" transform="translate(-2.585 -100.672)"/>
        <path id="Trazado_995798" data-name="Trazado 995798" d="M694.666,218.243H479.684a.842.842,0,1,1,0-1.683H694.666a.842.842,0,0,1,0,1.683" transform="translate(-75.889 -34.321)"/>
        <path id="Trazado_995799" data-name="Trazado 995799" d="M344.9,482.1a.831.831,0,0,1-.429-.119L151.137,367.043,39.252,365.272a.841.841,0,0,1-.828-.855.83.83,0,0,1,.854-.828l112.11,1.776a.841.841,0,0,1,.417.118L345.326,480.538a.841.841,0,0,1-.431,1.564" transform="translate(-6.09 -57.623)"/>
        <path id="Trazado_995800" data-name="Trazado 995800" d="M312.346,476.52a.845.845,0,0,1-.408-.105l-154.19-85.5a.843.843,0,0,1-.24-1.273l6.141-7.412a.842.842,0,0,1,1.3,1.074l-5.494,6.631,152.7,84.67,4.055-4.84a.842.842,0,1,1,1.29,1.081l-4.5,5.371a.843.843,0,0,1-.645.3" transform="translate(-24.932 -60.53)"/>
        <path id="Trazado_995801" data-name="Trazado 995801" d="M351.751,477.7c-4.43,2.524-10.558,5.124-15.375,5.882l7.994,2.923,4.273,7.36c-.1-4.876,1.4-11.365,3.109-16.165" transform="translate(-53.311 -75.709)"/>
        <path id="Trazado_995802" data-name="Trazado 995802" d="M170.425,373.633c-1.684,4.812-3.138,11.308-3.015,16.184l-4.316-7.336-8.01-2.877c4.813-.785,10.927-3.421,15.341-5.971" transform="translate(-24.578 -59.215)"/>
        <path id="Trazado_995803" data-name="Trazado 995803" d="M715.661,67.07a.819.819,0,0,1-.236-.035l-80.339-23.43L612.43,51.45a.841.841,0,1,1-.55-1.59l22.909-7.932a.837.837,0,0,1,.512-.013l80.6,23.507a.842.842,0,0,1-.236,1.649" transform="translate(-96.884 -6.637)"/>
        <path id="Trazado_995804" data-name="Trazado 995804" d="M48.485,32.023a4.55,4.55,0,1,1-4.551-4.551,4.551,4.551,0,0,1,4.551,4.551" transform="translate(-6.242 -4.354)"/>
        <path id="Trazado_995805" data-name="Trazado 995805" d="M45.4,141.022a4.55,4.55,0,1,1-4.551-4.551,4.551,4.551,0,0,1,4.551,4.551" transform="translate(-5.753 -21.629)"/>
        <path id="Trazado_995806" data-name="Trazado 995806" d="M45.4,218.671a4.55,4.55,0,1,1-4.551-4.551,4.551,4.551,0,0,1,4.551,4.551" transform="translate(-5.753 -33.935)"/>
        <path id="Trazado_995807" data-name="Trazado 995807" d="M42.4,532.2a4.55,4.55,0,1,1-4.551-4.55A4.551,4.551,0,0,1,42.4,532.2" transform="translate(-5.277 -83.624)"/>
        <path id="Trazado_995808" data-name="Trazado 995808" d="M405.592,532.2a4.55,4.55,0,1,1-4.551-4.55,4.551,4.551,0,0,1,4.551,4.55" transform="translate(-62.838 -83.624)"/>
        <path id="Trazado_995809" data-name="Trazado 995809" d="M741.507,529.2a4.551,4.551,0,1,1-4.551-4.55,4.551,4.551,0,0,1,4.551,4.55" transform="translate(-116.075 -83.148)"/>
        <path id="Trazado_995810" data-name="Trazado 995810" d="M738.987,289.356a4.55,4.55,0,1,1-4.551-4.551,4.551,4.551,0,0,1,4.551,4.551" transform="translate(-115.676 -45.137)"/>
        <path id="Trazado_995811" data-name="Trazado 995811" d="M738.987,216.7a4.55,4.55,0,1,1-4.551-4.551,4.551,4.551,0,0,1,4.551,4.551" transform="translate(-115.676 -33.623)"/>
        <path id="Trazado_995812" data-name="Trazado 995812" d="M738.987,69.956a4.55,4.55,0,1,1-4.551-4.551,4.551,4.551,0,0,1,4.551,4.551" transform="translate(-115.676 -10.366)"/>
        <path id="Trazado_995813" data-name="Trazado 995813" d="M741.987,768.035a4.55,4.55,0,1,1-4.551-4.551,4.551,4.551,0,0,1,4.551,4.551" transform="translate(-116.151 -121.001)"/>
        <path id="Trazado_995814" data-name="Trazado 995814" d="M407.381,792.69a4.55,4.55,0,1,1-4.551-4.551,4.551,4.551,0,0,1,4.551,4.551" transform="translate(-63.121 -124.908)"/>
        <path id="Trazado_995815" data-name="Trazado 995815" d="M36.993,806.69a4.55,4.55,0,1,1-4.551-4.551,4.551,4.551,0,0,1,4.551,4.551" transform="translate(-4.42 -127.127)"/>
        <path id="Trazado_995816" data-name="Trazado 995816" d="M647.007,42.023a4.551,4.551,0,1,1-4.551-4.551,4.551,4.551,0,0,1,4.551,4.551" transform="translate(-101.099 -5.939)"/>
        <path id="Trazado_995817" data-name="Trazado 995817" d="M616.007,53.178a4.551,4.551,0,1,1-4.551-4.551,4.551,4.551,0,0,1,4.551,4.551" transform="translate(-96.185 -7.707)"/>
        <path id="Trazado_995818" data-name="Trazado 995818" d="M333.237,214.263a4.551,4.551,0,1,1-4.552-4.551,4.551,4.551,0,0,1,4.552,4.551" transform="translate(-51.371 -33.236)"/>
        <path id="Trazado_995819" data-name="Trazado 995819" d="M318.609,214.263a4.551,4.551,0,1,1-4.551-4.551,4.551,4.551,0,0,1,4.551,4.551" transform="translate(-49.052 -33.236)"/>
        <path id="Trazado_995820" data-name="Trazado 995820" d="M43.078,289.591a4.551,4.551,0,1,1-4.552-4.551,4.551,4.551,0,0,1,4.552,4.551" transform="translate(-5.385 -45.175)"/>
        <path id="Trazado_995821" data-name="Trazado 995821" d="M349.967,290.912a4.55,4.55,0,1,1-4.551-4.551,4.551,4.551,0,0,1,4.551,4.551" transform="translate(-54.022 -45.384)"/>
        <path id="Trazado_995822" data-name="Trazado 995822" d="M45.4,192.882a4.55,4.55,0,1,1-4.551-4.551,4.551,4.551,0,0,1,4.551,4.551" transform="translate(-5.753 -29.848)"/>
        <path id="Trazado_995823" data-name="Trazado 995823" d="M162.007,32.023a4.55,4.55,0,1,1-4.551-4.551,4.551,4.551,0,0,1,4.551,4.551" transform="translate(-24.233 -4.354)"/>
        <path id="Trazado_995824" data-name="Trazado 995824" d="M198.007,47.77a4.55,4.55,0,1,1-4.551-4.551,4.551,4.551,0,0,1,4.551,4.551" transform="translate(-29.939 -6.85)"/>
        <path id="Trazado_995825" data-name="Trazado 995825" d="M332.237,106.023a4.551,4.551,0,1,1-4.552-4.551,4.551,4.551,0,0,1,4.552,4.551" transform="translate(-51.212 -16.082)"/>
        <path id="Trazado_995826" data-name="Trazado 995826" d="M483.537,81.356a4.55,4.55,0,1,1-4.551-4.551,4.551,4.551,0,0,1,4.551,4.551" transform="translate(-75.191 -12.172)"/>
        <path id="Trazado_995827" data-name="Trazado 995827" d="M484.537,214.71a4.551,4.551,0,1,1-4.551-4.551,4.551,4.551,0,0,1,4.551,4.551" transform="translate(-75.349 -33.307)"/>
        <path id="Trazado_995828" data-name="Trazado 995828" d="M407.381,289.591a4.55,4.55,0,1,1-4.551-4.551,4.551,4.551,0,0,1,4.551,4.551" transform="translate(-63.121 -45.175)"/>
      </g>
    </g>
  </g>
</svg>
