<svg xmlns="http://www.w3.org/2000/svg" xmlns:xlink="http://www.w3.org/1999/xlink" width="469.531" height="426.677" viewBox="0 0 469.531 426.677">
  <defs>
    <clipPath id="clip-path">
      <rect id="Rectángulo_454791" data-name="Rectángulo 454791" width="469.531" height="426.677" fill="none"/>
    </clipPath>
  </defs>
  <g id="Grupo_1177307" data-name="Grupo 1177307" transform="translate(-914 -14470.656)">
    <g id="Grupo_1177219" data-name="Grupo 1177219" transform="translate(914 14470.656)">
      <g id="Grupo_1177218" data-name="Grupo 1177218" clip-path="url(#clip-path)">
        <path id="Trazado_995832" data-name="Trazado 995832" d="M79.2,438.22,49.569,147.964l.6-.526c28.455-24.756,56.778-45.457,84.184-61.526,21.95-12.872,43.369-22.82,63.661-29.569,34.688-11.538,53.838-9.751,54.637-9.671l-.315,3.078c-.277-.027-19.549-1.755-53.616,9.619-31.443,10.5-82.247,34.613-145.915,89.877L81.988,435.073,265.394,431.6l.059,3.093ZM252.342,49.75h0l.157-1.538Z" transform="translate(-30.401 -28.536)" fill="#0000b5"/>
        <path id="Trazado_995833" data-name="Trazado 995833" d="M63.092,151.036H62.8l.014-3.094h.266c23.508,0,35.654-13.724,51.018-31.082,12.016-13.575,25.635-28.961,47.893-42.149C187.783,59.431,220,50.333,260.484,46.9l.261,3.083c-90.081,7.645-120.159,41.626-144.327,68.931-15.879,17.939-28.438,32.125-53.326,32.125" transform="translate(-38.517 -28.763)" fill="#0000b5"/>
        <rect id="Rectángulo_454786" data-name="Rectángulo 454786" width="0.773" height="385.154" transform="matrix(0.999, -0.034, 0.034, 0.999, 221.711, 19.688)"/>
        <rect id="Rectángulo_454787" data-name="Rectángulo 454787" width="0.774" height="204.886" transform="translate(20.78 120.456) rotate(-88.713)"/>
        <path id="Trazado_995834" data-name="Trazado 995834" d="M93.114,685.322l-.024-1.547,5.8-.092.024,1.547Zm11.6-.183-.024-1.547,5.8-.092.024,1.547Zm11.6-.183-.024-1.547,5.8-.092.024,1.547Zm11.6-.183-.024-1.547,5.8-.092.024,1.547Zm11.6-.184-.024-1.547,5.8-.091.024,1.547Zm11.6-.183-.024-1.547,5.8-.092.024,1.547Zm11.6-.183-.024-1.547,5.8-.092.024,1.547Zm11.6-.184-.024-1.547,5.8-.091.024,1.547Zm11.6-.183-.024-1.547,5.8-.092.024,1.547Zm11.6-.183-.024-1.547,5.8-.092.024,1.547Zm11.6-.183-.024-1.547,5.8-.092.024,1.547Zm11.6-.183-.024-1.547,5.8-.092.024,1.547Zm11.6-.184-.024-1.547,5.8-.091.024,1.547Zm11.6-.183-.024-1.547,5.8-.092.024,1.547Zm11.6-.183-.024-1.547,5.8-.092.024,1.547Zm11.6-.184-.024-1.547,5.8-.091.024,1.547Zm11.6-.183-.024-1.547,5.8-.092.024,1.547Zm11.6-.184-.024-1.547,5.8-.091.024,1.547Zm11.6-.183-.024-1.547,5.8-.092.024,1.547Zm11.6-.183-.024-1.547,5.8-.092.024,1.547Zm11.6-.184-.024-1.547,5.8-.091.024,1.547Zm11.6-.183-.024-1.547,5.8-.092.024,1.547Zm11.6-.184-.024-1.547,5.8-.091.024,1.547Zm11.6-.183-.024-1.547,5.8-.092.024,1.547Zm11.6-.183-.024-1.547,5.8-.092.024,1.547Zm11.6-.184-.024-1.547,5.8-.091.024,1.547Zm11.6-.183-.024-1.547,5.8-.092.024,1.547Zm11.6-.183-.024-1.547,5.8-.092.024,1.547Zm11.6-.184-.024-1.547,5.8-.092.024,1.547Zm11.6-.183-.024-1.547,5.8-.092.024,1.547Zm11.6-.184-.024-1.547,5.8-.091.024,1.547Zm11.6-.183-.024-1.547,5.8-.092.024,1.547Zm11.6-.183-.024-1.547,5.8-.092.024,1.547Zm11.6-.184-.024-1.547,5.8-.091.024,1.547Zm11.6-.183-.024-1.547,5.8-.092L493.3,679Zm11.6-.184-.024-1.547,5.8-.091.024,1.547Z" transform="translate(-57.092 -415.369)" fill="#ffa200"/>
        <path id="Trazado_995835" data-name="Trazado 995835" d="M594.387,315.644l-.024-1.547,5.8-.092.024,1.547Zm11.6-.183-.024-1.547,5.8-.092.024,1.547Zm11.6-.184-.024-1.547,5.8-.091.024,1.547Zm11.6-.183-.024-1.547,5.8-.092.024,1.547Zm11.6-.183-.024-1.547,5.8-.092.024,1.547Zm11.6-.183-.024-1.547,5.8-.092.024,1.547Zm11.6-.183L663.96,313l5.8-.092.024,1.547Zm11.6-.183-.024-1.547,5.8-.091.024,1.547Zm11.6-.183-.024-1.547,5.8-.092.024,1.547Zm11.6-.183-.024-1.547,5.8-.092.024,1.547Zm11.6-.183-.024-1.547,5.8-.092.024,1.547Zm11.6-.183-.024-1.547,5.8-.092.024,1.547Zm11.6-.183-.024-1.547,5.8-.092.024,1.547Zm11.6-.183-.024-1.547,5.8-.092.024,1.547Zm11.6-.183-.024-1.547,5.8-.092.024,1.547Zm11.6-.183-.024-1.547,5.8-.092.024,1.547Zm11.6-.183-.024-1.547,5.8-.092.024,1.547Zm11.6-.183-.024-1.547,5.8-.092.024,1.547Zm11.6-.183-.024-1.547,5.8-.092.024,1.547Z" transform="translate(-364.522 -190.557)" fill="#ffa200"/>
        <rect id="Rectángulo_454788" data-name="Rectángulo 454788" width="0.774" height="138.067" transform="translate(207.673 20.165) rotate(-2.777)"/>
        <path id="Trazado_995836" data-name="Trazado 995836" d="M593.012,434.314l-.036-3.094,7.734-.091.036,3.094Zm15.467-.181-.036-3.094,7.734-.091.036,3.094Zm15.467-.182-.036-3.094,7.734-.091.036,3.094Zm15.467-.182-.036-3.094,7.733-.09.036,3.094Zm15.467-.182-.036-3.094,7.733-.091.036,3.094Zm15.467-.181-.036-3.094,7.733-.091.036,3.094Zm15.467-.182-.036-3.094,7.734-.091.036,3.094Zm15.467-.182-.036-3.094,7.734-.09.036,3.094Zm15.467-.182-.036-3.094,7.734-.09.036,3.094Zm15.467-.181-.036-3.094,7.734-.091.036,3.094Zm15.467-.182-.036-3.094,7.733-.091.036,3.094Zm15.467-.182-.036-3.094,7.733-.091.036,3.094Zm15.467-.181-.036-3.094,7.734-.091.036,3.094Zm15.467-.182-.036-3.094,4.2-.049,0-.492,3.094.015-.017,3.534Zm7.295-11.354-3.094-.015.036-7.734,3.094.015Zm.072-15.468-3.094-.015.036-7.734,3.094.015Zm.072-15.468-3.094-.015.036-7.734,3.094.015Zm.072-15.468-3.094-.015.036-7.734,3.094.014Zm.072-15.468-3.094-.014.036-7.734,3.094.014Zm.072-15.468-3.094-.014.036-7.734,3.094.014Zm.072-15.468-3.094-.014.036-7.734,3.094.014Zm.072-15.468-3.094-.014.036-7.734,3.094.014Zm.072-15.468-3.094-.014.036-7.734,3.094.014Zm.072-15.468-3.094-.014.036-7.734,3.094.014Zm.072-15.468L799,265.9l.036-7.734,3.094.014Zm.072-15.468-3.094-.014.036-7.734,3.094.014Zm.072-15.468-3.094-.014.036-7.734,3.094.014Zm.072-15.468-3.094-.014.036-7.734,3.094.014Zm.072-15.468-3.094-.014.036-7.734,3.094.014Zm.072-15.468-3.094-.014.036-7.734,3.094.014Zm.072-15.468-3.094-.014.036-7.734,3.094.014Zm-4.753-12.925c-1.516-.995-3.716-2.431-6.512-4.241l1.681-2.6c2.8,1.814,5.007,3.254,6.527,4.25Zm-13.038-8.444q-3.022-1.937-6.539-4.172l1.659-2.612q3.516,2.233,6.55,4.179Zm-13.092-8.316q-3.15-1.983-6.567-4.116l1.638-2.625q3.417,2.133,6.576,4.123ZM758.5,135.221q-3.211-1.988-6.594-4.063l1.618-2.637q3.385,2.077,6.6,4.07Zm-13.2-8.1q-3.253-1.978-6.625-4.009l1.6-2.65q3.375,2.032,6.636,4.016Zm-13.265-7.988q-3.288-1.961-6.658-3.95l1.572-2.665q3.374,1.992,6.67,3.957ZM718.7,111.263q-3.32-1.938-6.694-3.886l1.547-2.68q3.379,1.951,6.707,3.894Zm-13.406-7.738q-3.341-1.9-6.714-3.8l1.517-2.7q3.379,1.9,6.73,3.812Zm-13.47-7.577c-2.3-1.273-4.582-2.531-6.8-3.741l1.483-2.715c2.221,1.212,4.514,2.474,6.816,3.751Zm-13.6-7.423c-2.271-1.218-4.568-2.44-6.829-3.631l1.442-2.737c2.268,1.194,4.572,2.42,6.85,3.642Zm-13.688-7.2c-2.321-1.2-4.639-2.377-6.89-3.51l1.391-2.763c2.26,1.138,4.586,2.323,6.916,3.524ZM650.72,74.372c-2.362-1.157-4.7-2.287-6.961-3.358l1.326-2.795c2.268,1.077,4.622,2.212,7,3.374ZM636.757,67.75c-2.4-1.1-4.772-2.159-7.049-3.154l1.239-2.835c2.292,1,4.68,2.07,7.1,3.175Zm-14.15-6.178c-2.441-1.01-4.85-1.974-7.16-2.865l1.113-2.886c2.333.9,4.766,1.873,7.229,2.893ZM608.221,56.04c-2.527-.887-4.983-1.7-7.3-2.407l.906-2.958c2.356.722,4.852,1.545,7.418,2.446ZM593.54,51.578c-2.647-.654-5.155-1.171-7.455-1.538l.487-3.055c2.385.381,4.979.915,7.71,1.589Zm-19.321-2.012-.411-3.067a33.293,33.293,0,0,1,4.852-.259l-.048,3.093a29.9,29.9,0,0,0-4.394.233" transform="translate(-351.916 -28.358)" fill="#0000b5"/>
        <path id="Trazado_995837" data-name="Trazado 995837" d="M47.339,149.1,43.921,47.308l.4,0,204.713.994,0,.773L44.72,48.086l3.391,100.986Z" transform="translate(-26.937 -29.015)"/>
        <path id="Trazado_995838" data-name="Trazado 995838" d="M806.642,153.294l-.194-5.8,1.546-.052.195,5.8Zm-.389-11.595-.194-5.8,1.546-.052.195,5.8Zm-.389-11.594-.195-5.8,1.546-.052.194,5.8Zm-.389-11.595-.195-5.8,1.546-.052.195,5.8Zm-.389-11.594-.194-5.8,1.546-.052.195,5.8ZM804.7,95.321l-.195-5.8,1.546-.052.194,5.8Zm-.389-11.594-.194-5.8,1.546-.052.194,5.8Zm-.389-11.594-.195-5.8,1.546-.052.195,5.8Zm-.389-11.595-.194-5.8,1.546-.052.195,5.8Zm-.389-11.594-.195-5.8,1.546-.052.194,5.8Zm-218.9-7.6-.037-1.546.94-.023.037,1.546Zm6.739-.163-.037-1.546,5.8-.14.037,1.546Zm11.6-.281-.038-1.546,5.8-.14.038,1.546Zm11.6-.28-.038-1.546,5.8-.141.038,1.546Zm11.6-.281-.038-1.546,5.8-.14.038,1.546Zm11.6-.281-.037-1.546,5.8-.14.037,1.546Zm11.6-.281-.037-1.546,5.8-.14.037,1.546Zm11.6-.281-.038-1.546,5.8-.14.038,1.546Zm11.6-.28-.038-1.546,5.8-.141.038,1.546Zm11.6-.281-.038-1.546,5.8-.14.037,1.546Zm11.6-.281-.037-1.546,5.8-.14.037,1.546Zm11.6-.281-.037-1.546,5.8-.14.037,1.546Zm11.6-.281-.038-1.546,5.8-.14.038,1.546Zm11.6-.28-.038-1.546,5.8-.14.038,1.546Zm11.6-.281-.038-1.546,5.8-.14.038,1.546Zm61-.18-.043-1.3-2.971.072-.037-1.546,4.5-.109.095,2.827Zm-49.405-.1-.037-1.546,5.8-.14.037,1.546Zm11.6-.281-.038-1.546,5.8-.14.038,1.546Zm11.6-.28-.038-1.546L782.3,35l.038,1.546Zm11.6-.281L788.1,34.86l5.8-.14.038,1.546Z" transform="translate(-358.29 -21.142)" fill="#ffa200"/>
        <rect id="Rectángulo_454789" data-name="Rectángulo 454789" width="190.906" height="0.773" transform="translate(20.618 119.74) rotate(-27.321)"/>
        <rect id="Rectángulo_454790" data-name="Rectángulo 454790" width="1.16" height="39.596" transform="matrix(0.999, -0.034, 0.034, 0.999, 65.453, 30.997)"/>
        <path id="Trazado_995839" data-name="Trazado 995839" d="M165.53,184.531a35.068,35.068,0,0,0-5.847-9.725l5.581,1.809,5.446-2.179a35.019,35.019,0,0,0-5.18,10.1" transform="translate(-97.933 -106.983)"/>
        <path id="Trazado_995840" data-name="Trazado 995840" d="M44.181,42.48a2.965,2.965,0,1,1-3.063-2.864,2.965,2.965,0,0,1,3.063,2.864" transform="translate(-23.461 -24.297)"/>
        <path id="Trazado_995841" data-name="Trazado 995841" d="M594,683.351a2.965,2.965,0,1,1-3.063-2.863A2.965,2.965,0,0,1,594,683.351" transform="translate(-360.663 -417.342)"/>
        <path id="Trazado_995842" data-name="Trazado 995842" d="M1158.938,672.053a2.965,2.965,0,1,1-3.063-2.864,2.965,2.965,0,0,1,3.063,2.864" transform="translate(-707.14 -410.413)"/>
        <path id="Trazado_995843" data-name="Trazado 995843" d="M131.143,1049.795a2.965,2.965,0,1,1-3.063-2.864,2.965,2.965,0,0,1,3.063,2.864" transform="translate(-76.794 -642.082)"/>
        <path id="Trazado_995844" data-name="Trazado 995844" d="M91.425,692.556a2.965,2.965,0,1,1-3.063-2.863,2.965,2.965,0,0,1,3.063,2.863" transform="translate(-52.436 -422.988)"/>
        <path id="Trazado_995845" data-name="Trazado 995845" d="M581.7,317.041a2.965,2.965,0,1,1-3.063-2.863,2.965,2.965,0,0,1,3.063,2.863" transform="translate(-353.119 -192.685)"/>
        <path id="Trazado_995846" data-name="Trazado 995846" d="M606.025,1041.521a2.965,2.965,0,1,1-3.063-2.863,2.966,2.966,0,0,1,3.063,2.863" transform="translate(-368.039 -637.008)"/>
        <path id="Trazado_995847" data-name="Trazado 995847" d="M1156.741,1036.036a2.965,2.965,0,1,1-3.063-2.864,2.965,2.965,0,0,1,3.063,2.864" transform="translate(-705.793 -633.644)"/>
        <path id="Trazado_995848" data-name="Trazado 995848" d="M73.155,182.2A4.691,4.691,0,0,1,73,172.823l.159,0a4.691,4.691,0,0,1,.156,9.379l-.16,0m0-7.449-.093,0a2.746,2.746,0,1,0,.093,0" transform="translate(-41.99 -105.992)"/>
        <path id="Trazado_995849" data-name="Trazado 995849" d="M1121.747,165.746a4.691,4.691,0,0,1-.155-9.379l.159,0a4.691,4.691,0,0,1,.156,9.379l-.16,0m0-7.449-.093,0a2.745,2.745,0,1,0,.093,0" transform="translate(-685.091 -95.899)"/>
        <path id="Trazado_995850" data-name="Trazado 995850" d="M53,305.19a2.965,2.965,0,1,1-3.063-2.864A2.965,2.965,0,0,1,53,305.19" transform="translate(-28.871 -185.417)"/>
        <path id="Trazado_995851" data-name="Trazado 995851" d="M796.959,161.184l-5.2-2.575.686-1.386,5.2,2.575Zm-10.4-5.149-5.2-2.575.686-1.386,5.2,2.575Zm-10.4-5.15-5.2-2.574.686-1.386,5.2,2.574Zm-10.4-5.149-5.2-2.575.687-1.386,5.2,2.575Zm-10.4-5.149-5.2-2.574.687-1.386,5.2,2.574Zm-10.4-5.149-5.2-2.575.687-1.386,5.2,2.575Zm-10.4-5.149-5.2-2.575.686-1.386,5.2,2.575Zm-10.4-5.149-5.2-2.575.686-1.386,5.2,2.575Zm-10.4-5.149-5.2-2.575.686-1.386,5.2,2.575Zm-10.4-5.15-5.2-2.574.687-1.386,5.2,2.574ZM693,109.692l-5.2-2.575.687-1.386,5.2,2.575Zm-10.4-5.149-5.2-2.575.686-1.386,5.2,2.575Zm-10.4-5.149-5.2-2.575.686-1.386,5.2,2.575Zm-10.4-5.149-5.2-2.575.686-1.386,5.2,2.575Zm-10.4-5.149-5.2-2.575.687-1.386,5.2,2.575Zm-10.4-5.149-5.2-2.575.687-1.386,5.2,2.575Zm-10.4-5.149-5.2-2.574.686-1.386,5.2,2.574Zm-10.4-5.149-5.2-2.575.686-1.386,5.2,2.574Zm-10.4-5.149-5.2-2.575.686-1.386,5.2,2.575Zm-10.4-5.149-5.2-2.575.687-1.386,5.2,2.575Zm-10.4-5.149-5.2-2.575.687-1.386,5.2,2.575Zm-10.4-5.149-5.2-2.575.686-1.386,5.2,2.575Z" transform="translate(-351.698 -30.109)" fill="#ffa200"/>
      </g>
    </g>
    <path id="Trazado_996526" data-name="Trazado 996526" d="M1.016,0V-11.375h3.5A5.315,5.315,0,0,1,7.2-10.7,4.712,4.712,0,0,1,9.047-8.777a5.928,5.928,0,0,1,.664,2.832v.523A5.945,5.945,0,0,1,9.059-2.6,4.672,4.672,0,0,1,7.219-.687,5.355,5.355,0,0,1,4.539,0ZM3.359-9.477v7.594H4.492a2.545,2.545,0,0,0,2.1-.9,4.06,4.06,0,0,0,.742-2.57v-.6a4.124,4.124,0,0,0-.719-2.629,2.537,2.537,0,0,0-2.1-.895Zm14.9,4.547h-4.5v3.047h5.281V0H11.414V-11.375h7.609v1.9H13.758v2.711h4.5Zm4.5,3.047h4.977V0h-7.32V-11.375h2.344Zm13.035-.461H31.683L30.9,0H28.41l4.234-11.375h2.172L39.074,0H36.581Zm-3.477-1.9H35.16L33.73-8.5ZM49.386,0H47.042L42.48-7.484V0H40.136V-11.375H42.48l4.57,7.5v-7.5h2.336ZM59.772-9.477H56.287V0H53.943V-9.477H50.506v-1.9h9.266Zm8.18,4.547h-4.5v3.047h5.281V0H61.107V-11.375h7.609v1.9H63.451v2.711h4.5Zm6.367.766H72.451V0H70.107V-11.375h4.227a4.778,4.778,0,0,1,3.109.9,3.1,3.1,0,0,1,1.094,2.539A3.5,3.5,0,0,1,78.033-6a3.437,3.437,0,0,1-1.527,1.238L78.967-.109V0H76.451Zm-1.867-1.9h1.891a1.936,1.936,0,0,0,1.367-.449,1.606,1.606,0,0,0,.484-1.238,1.719,1.719,0,0,0-.457-1.266,1.9,1.9,0,0,0-1.4-.461H72.451ZM86.74-2.344H82.631L81.85,0H79.357l4.234-11.375h2.172L90.022,0H87.529Zm-3.477-1.9h2.844L84.678-8.5Z" transform="translate(995.842 14679.374)"/>
    <g id="Grupo_1177221" data-name="Grupo 1177221" transform="translate(914 14470.656)">
      <g id="Grupo_1177220" data-name="Grupo 1177220" clip-path="url(#clip-path)">
        <text id="Copa_trasera" data-name="Copa trasera" transform="translate(32.966 8.71)" font-size="10" font-family="Roboto-Regular, Roboto"><tspan x="0" y="0">Copa t</tspan><tspan y="0" letter-spacing="-0.02em">r</tspan><tspan y="0">ase</tspan><tspan y="0" letter-spacing="-0.02em">r</tspan><tspan y="0">a</tspan></text>
      </g>
    </g>
    <path id="Trazado_996527" data-name="Trazado 996527" d="M6.055-2.256A2.616,2.616,0,0,1,5.222-.515,2.728,2.728,0,0,1,3.359.1a2.505,2.505,0,0,1-2.019-.9A3.634,3.634,0,0,1,.581-3.223v-.684A4.051,4.051,0,0,1,.935-5.649a2.644,2.644,0,0,1,1-1.155,2.794,2.794,0,0,1,1.5-.4,2.569,2.569,0,0,1,1.816.632,2.647,2.647,0,0,1,.8,1.75H5.112a2.034,2.034,0,0,0-.53-1.23,1.606,1.606,0,0,0-1.14-.381,1.678,1.678,0,0,0-1.409.664,3.047,3.047,0,0,0-.51,1.89v.688a3.132,3.132,0,0,0,.483,1.841,1.562,1.562,0,0,0,1.353.684,1.8,1.8,0,0,0,1.2-.354,1.964,1.964,0,0,0,.554-1.233Zm.9-.435a3.121,3.121,0,0,1,.305-1.4,2.277,2.277,0,0,1,.85-.957,2.313,2.313,0,0,1,1.243-.337,2.228,2.228,0,0,1,1.746.747,2.874,2.874,0,0,1,.667,1.987v.063a3.148,3.148,0,0,1-.3,1.384,2.243,2.243,0,0,1-.845.955A2.339,2.339,0,0,1,9.36.1,2.222,2.222,0,0,1,7.62-.649a2.86,2.86,0,0,1-.667-1.978Zm.908.107a2.26,2.26,0,0,0,.408,1.411A1.3,1.3,0,0,0,9.36-.64a1.3,1.3,0,0,0,1.094-.54,2.472,2.472,0,0,0,.405-1.511A2.256,2.256,0,0,0,10.447-4.1a1.312,1.312,0,0,0-1.1-.54,1.3,1.3,0,0,0-1.079.532A2.453,2.453,0,0,0,7.861-2.583Zm9.5,0A3.163,3.163,0,0,1,16.807-.64,1.768,1.768,0,0,1,15.313.1,1.938,1.938,0,0,1,13.8-.513V2.031h-.9V-5.283h.825l.044.586A1.861,1.861,0,0,1,15.3-5.381a1.8,1.8,0,0,1,1.506.718,3.2,3.2,0,0,1,.554,2Zm-.9-.1A2.334,2.334,0,0,0,16.074-4.1a1.227,1.227,0,0,0-1.045-.518,1.328,1.328,0,0,0-1.23.728v2.524a1.33,1.33,0,0,0,1.24.723,1.221,1.221,0,0,0,1.033-.515A2.548,2.548,0,0,0,16.455-2.686ZM21.768,0a1.9,1.9,0,0,1-.127-.557,2.015,2.015,0,0,1-1.5.654,1.865,1.865,0,0,1-1.282-.442,1.43,1.43,0,0,1-.5-1.121,1.494,1.494,0,0,1,.627-1.282A2.958,2.958,0,0,1,20.747-3.2h.879v-.415a1.015,1.015,0,0,0-.283-.754,1.138,1.138,0,0,0-.835-.281,1.317,1.317,0,0,0-.811.244.719.719,0,0,0-.327.591h-.908a1.247,1.247,0,0,1,.281-.764,1.916,1.916,0,0,1,.762-.583,2.563,2.563,0,0,1,1.057-.215,2.089,2.089,0,0,1,1.431.457,1.647,1.647,0,0,1,.537,1.257v2.432a2.973,2.973,0,0,0,.186,1.157V0Zm-1.5-.688a1.588,1.588,0,0,0,.806-.22,1.329,1.329,0,0,0,.552-.571V-2.563h-.708q-1.66,0-1.66.972a.822.822,0,0,0,.283.664A1.089,1.089,0,0,0,20.269-.688Zm5.933-2a3.1,3.1,0,0,1,.576-1.956,1.822,1.822,0,0,1,1.509-.74,1.832,1.832,0,0,1,1.47.635V-7.5h.9V0h-.83l-.044-.566A1.84,1.84,0,0,1,28.276.1a1.8,1.8,0,0,1-1.5-.752A3.13,3.13,0,0,1,26.2-2.617Zm.9.1a2.343,2.343,0,0,0,.371,1.406A1.2,1.2,0,0,0,28.5-.669a1.318,1.318,0,0,0,1.255-.771V-3.867a1.328,1.328,0,0,0-1.245-.747,1.205,1.205,0,0,0-1.035.513A2.58,2.58,0,0,0,27.1-2.583ZM34.253.1A2.308,2.308,0,0,1,32.5-.608,2.619,2.619,0,0,1,31.831-2.5v-.166a3.17,3.17,0,0,1,.3-1.4,2.343,2.343,0,0,1,.84-.967,2.112,2.112,0,0,1,1.169-.349,1.979,1.979,0,0,1,1.6.679,2.939,2.939,0,0,1,.571,1.943v.376H32.734a1.878,1.878,0,0,0,.457,1.262A1.435,1.435,0,0,0,34.3-.64a1.573,1.573,0,0,0,.811-.2,2.037,2.037,0,0,0,.581-.518l.552.43A2.219,2.219,0,0,1,34.253.1Zm-.112-4.736a1.2,1.2,0,0,0-.918.4,1.934,1.934,0,0,0-.459,1.116H35.41v-.068a1.721,1.721,0,0,0-.371-1.067A1.134,1.134,0,0,0,34.141-4.639ZM38.34,0h-.9V-7.5h.9Zm4.707,0a1.9,1.9,0,0,1-.127-.557,2.015,2.015,0,0,1-1.5.654,1.865,1.865,0,0,1-1.282-.442,1.43,1.43,0,0,1-.5-1.121,1.494,1.494,0,0,1,.627-1.282A2.958,2.958,0,0,1,42.026-3.2h.879v-.415a1.015,1.015,0,0,0-.283-.754,1.138,1.138,0,0,0-.835-.281,1.317,1.317,0,0,0-.811.244.719.719,0,0,0-.327.591h-.908a1.247,1.247,0,0,1,.281-.764,1.916,1.916,0,0,1,.762-.583,2.563,2.563,0,0,1,1.057-.215,2.089,2.089,0,0,1,1.431.457,1.647,1.647,0,0,1,.537,1.257v2.432a2.973,2.973,0,0,0,.186,1.157V0Zm-1.5-.688a1.588,1.588,0,0,0,.806-.22,1.329,1.329,0,0,0,.552-.571V-2.563H42.2q-1.66,0-1.66.972a.822.822,0,0,0,.283.664A1.089,1.089,0,0,0,41.548-.688Zm4.531-4.595.029.664a1.925,1.925,0,0,1,1.582-.762q1.675,0,1.689,1.89V0h-.9V-3.5a1.216,1.216,0,0,0-.261-.845,1.047,1.047,0,0,0-.8-.273,1.3,1.3,0,0,0-.771.234,1.592,1.592,0,0,0-.518.615V0h-.9V-5.283Zm5.889-1.279v1.279h.986v.7h-.986v3.276a.732.732,0,0,0,.132.476.555.555,0,0,0,.449.159,2.187,2.187,0,0,0,.43-.059V0a2.619,2.619,0,0,1-.693.1,1.125,1.125,0,0,1-.913-.366,1.573,1.573,0,0,1-.308-1.04V-4.585H50.1v-.7h.962V-6.562ZM56.2.1a2.308,2.308,0,0,1-1.748-.706A2.619,2.619,0,0,1,53.779-2.5v-.166a3.17,3.17,0,0,1,.3-1.4,2.343,2.343,0,0,1,.84-.967,2.112,2.112,0,0,1,1.169-.349,1.979,1.979,0,0,1,1.6.679,2.939,2.939,0,0,1,.571,1.943v.376H54.683a1.878,1.878,0,0,0,.457,1.262A1.435,1.435,0,0,0,56.25-.64a1.573,1.573,0,0,0,.811-.2,2.037,2.037,0,0,0,.581-.518l.552.43A2.219,2.219,0,0,1,56.2.1Zm-.112-4.736a1.2,1.2,0,0,0-.918.4,1.934,1.934,0,0,0-.459,1.116h2.646v-.068a1.721,1.721,0,0,0-.371-1.067A1.134,1.134,0,0,0,56.089-4.639Zm5.771.166a2.707,2.707,0,0,0-.444-.034,1.19,1.19,0,0,0-1.206.757V0h-.9V-5.283h.879l.015.61a1.407,1.407,0,0,1,1.26-.708.923.923,0,0,1,.4.068ZM65.547,0a1.9,1.9,0,0,1-.127-.557,2.016,2.016,0,0,1-1.5.654,1.865,1.865,0,0,1-1.282-.442,1.43,1.43,0,0,1-.5-1.121,1.494,1.494,0,0,1,.627-1.282A2.958,2.958,0,0,1,64.526-3.2h.879v-.415a1.015,1.015,0,0,0-.283-.754,1.138,1.138,0,0,0-.835-.281,1.317,1.317,0,0,0-.811.244.719.719,0,0,0-.327.591h-.908a1.247,1.247,0,0,1,.281-.764,1.916,1.916,0,0,1,.762-.583,2.563,2.563,0,0,1,1.057-.215,2.089,2.089,0,0,1,1.431.457,1.647,1.647,0,0,1,.537,1.257v2.432a2.973,2.973,0,0,0,.186,1.157V0Zm-1.5-.688a1.588,1.588,0,0,0,.806-.22,1.329,1.329,0,0,0,.552-.571V-2.563H64.7q-1.66,0-1.66.972a.822.822,0,0,0,.283.664A1.089,1.089,0,0,0,64.048-.688Z" transform="translate(1008.743 14586.351)"/>
    <path id="Trazado_996528" data-name="Trazado 996528" d="M6.055-2.256A2.616,2.616,0,0,1,5.222-.515,2.728,2.728,0,0,1,3.359.1a2.505,2.505,0,0,1-2.019-.9A3.634,3.634,0,0,1,.581-3.223v-.684A4.051,4.051,0,0,1,.935-5.649a2.644,2.644,0,0,1,1-1.155,2.794,2.794,0,0,1,1.5-.4,2.569,2.569,0,0,1,1.816.632,2.647,2.647,0,0,1,.8,1.75H5.112a2.034,2.034,0,0,0-.53-1.23,1.606,1.606,0,0,0-1.14-.381,1.678,1.678,0,0,0-1.409.664,3.047,3.047,0,0,0-.51,1.89v.688a3.132,3.132,0,0,0,.483,1.841,1.562,1.562,0,0,0,1.353.684,1.8,1.8,0,0,0,1.2-.354,1.964,1.964,0,0,0,.554-1.233Zm.9-.435a3.121,3.121,0,0,1,.305-1.4,2.277,2.277,0,0,1,.85-.957,2.313,2.313,0,0,1,1.243-.337,2.228,2.228,0,0,1,1.746.747,2.874,2.874,0,0,1,.667,1.987v.063a3.148,3.148,0,0,1-.3,1.384,2.243,2.243,0,0,1-.845.955A2.339,2.339,0,0,1,9.36.1,2.222,2.222,0,0,1,7.62-.649a2.86,2.86,0,0,1-.667-1.978Zm.908.107a2.26,2.26,0,0,0,.408,1.411A1.3,1.3,0,0,0,9.36-.64a1.3,1.3,0,0,0,1.094-.54,2.472,2.472,0,0,0,.405-1.511A2.256,2.256,0,0,0,10.447-4.1a1.312,1.312,0,0,0-1.1-.54,1.3,1.3,0,0,0-1.079.532A2.453,2.453,0,0,0,7.861-2.583Zm9.5,0A3.163,3.163,0,0,1,16.807-.64,1.768,1.768,0,0,1,15.313.1,1.938,1.938,0,0,1,13.8-.513V2.031h-.9V-5.283h.825l.044.586A1.861,1.861,0,0,1,15.3-5.381a1.8,1.8,0,0,1,1.506.718,3.2,3.2,0,0,1,.554,2Zm-.9-.1A2.334,2.334,0,0,0,16.074-4.1a1.227,1.227,0,0,0-1.045-.518,1.328,1.328,0,0,0-1.23.728v2.524a1.33,1.33,0,0,0,1.24.723,1.221,1.221,0,0,0,1.033-.515A2.548,2.548,0,0,0,16.455-2.686ZM21.768,0a1.9,1.9,0,0,1-.127-.557,2.015,2.015,0,0,1-1.5.654,1.865,1.865,0,0,1-1.282-.442,1.43,1.43,0,0,1-.5-1.121,1.494,1.494,0,0,1,.627-1.282A2.958,2.958,0,0,1,20.747-3.2h.879v-.415a1.015,1.015,0,0,0-.283-.754,1.138,1.138,0,0,0-.835-.281,1.317,1.317,0,0,0-.811.244.719.719,0,0,0-.327.591h-.908a1.247,1.247,0,0,1,.281-.764,1.916,1.916,0,0,1,.762-.583,2.563,2.563,0,0,1,1.057-.215,2.089,2.089,0,0,1,1.431.457,1.647,1.647,0,0,1,.537,1.257v2.432a2.973,2.973,0,0,0,.186,1.157V0Zm-1.5-.688a1.588,1.588,0,0,0,.806-.22,1.329,1.329,0,0,0,.552-.571V-2.563h-.708q-1.66,0-1.66.972a.822.822,0,0,0,.283.664A1.089,1.089,0,0,0,20.269-.688ZM28.54-.64a1.3,1.3,0,0,0,.845-.293,1.031,1.031,0,0,0,.4-.732h.854a1.638,1.638,0,0,1-.312.864,2.058,2.058,0,0,1-.769.654A2.219,2.219,0,0,1,28.54.1a2.176,2.176,0,0,1-1.716-.72,2.869,2.869,0,0,1-.637-1.97v-.151a3.181,3.181,0,0,1,.283-1.372,2.157,2.157,0,0,1,.813-.933,2.309,2.309,0,0,1,1.252-.332,2.119,2.119,0,0,1,1.477.532,1.9,1.9,0,0,1,.627,1.382h-.854a1.245,1.245,0,0,0-.388-.842,1.208,1.208,0,0,0-.862-.33,1.264,1.264,0,0,0-1.067.5A2.328,2.328,0,0,0,27.09-2.71v.171a2.281,2.281,0,0,0,.376,1.406A1.27,1.27,0,0,0,28.54-.64ZM31.416-2.69a3.121,3.121,0,0,1,.305-1.4,2.277,2.277,0,0,1,.85-.957,2.313,2.313,0,0,1,1.243-.337,2.228,2.228,0,0,1,1.746.747,2.874,2.874,0,0,1,.667,1.987v.063a3.148,3.148,0,0,1-.3,1.384,2.243,2.243,0,0,1-.845.955A2.339,2.339,0,0,1,33.823.1a2.222,2.222,0,0,1-1.741-.747,2.86,2.86,0,0,1-.667-1.978Zm.908.107a2.26,2.26,0,0,0,.408,1.411,1.3,1.3,0,0,0,1.091.532,1.3,1.3,0,0,0,1.094-.54,2.472,2.472,0,0,0,.405-1.511A2.256,2.256,0,0,0,34.91-4.1a1.312,1.312,0,0,0-1.1-.54,1.3,1.3,0,0,0-1.079.532A2.453,2.453,0,0,0,32.324-2.583Zm4.814-.1a3.1,3.1,0,0,1,.576-1.956,1.822,1.822,0,0,1,1.509-.74,1.832,1.832,0,0,1,1.47.635V-7.5h.9V0h-.83l-.044-.566A1.84,1.84,0,0,1,39.214.1a1.8,1.8,0,0,1-1.5-.752,3.13,3.13,0,0,1-.579-1.963Zm.9.1a2.343,2.343,0,0,0,.371,1.406,1.2,1.2,0,0,0,1.025.508,1.318,1.318,0,0,0,1.255-.771V-3.867a1.328,1.328,0,0,0-1.245-.747,1.205,1.205,0,0,0-1.035.513A2.58,2.58,0,0,0,38.042-2.583Zm4.717-.107a3.121,3.121,0,0,1,.305-1.4,2.277,2.277,0,0,1,.85-.957,2.313,2.313,0,0,1,1.243-.337,2.228,2.228,0,0,1,1.746.747,2.874,2.874,0,0,1,.667,1.987v.063a3.148,3.148,0,0,1-.3,1.384,2.243,2.243,0,0,1-.845.955A2.339,2.339,0,0,1,45.166.1a2.222,2.222,0,0,1-1.741-.747,2.86,2.86,0,0,1-.667-1.978Zm.908.107a2.26,2.26,0,0,0,.408,1.411,1.3,1.3,0,0,0,1.091.532,1.3,1.3,0,0,0,1.094-.54,2.472,2.472,0,0,0,.405-1.511A2.256,2.256,0,0,0,46.252-4.1a1.312,1.312,0,0,0-1.1-.54,1.3,1.3,0,0,0-1.079.532A2.453,2.453,0,0,0,43.667-2.583Z" transform="translate(1008.743 14728.22)"/>
    <path id="Trazado_996529" data-name="Trazado 996529" d="M6.055-2.256A2.616,2.616,0,0,1,5.222-.515,2.728,2.728,0,0,1,3.359.1a2.505,2.505,0,0,1-2.019-.9A3.634,3.634,0,0,1,.581-3.223v-.684A4.051,4.051,0,0,1,.935-5.649a2.644,2.644,0,0,1,1-1.155,2.794,2.794,0,0,1,1.5-.4,2.569,2.569,0,0,1,1.816.632,2.647,2.647,0,0,1,.8,1.75H5.112a2.034,2.034,0,0,0-.53-1.23,1.606,1.606,0,0,0-1.14-.381,1.678,1.678,0,0,0-1.409.664,3.047,3.047,0,0,0-.51,1.89v.688a3.132,3.132,0,0,0,.483,1.841,1.562,1.562,0,0,0,1.353.684,1.8,1.8,0,0,0,1.2-.354,1.964,1.964,0,0,0,.554-1.233Zm.9-.435a3.121,3.121,0,0,1,.305-1.4,2.277,2.277,0,0,1,.85-.957,2.313,2.313,0,0,1,1.243-.337,2.228,2.228,0,0,1,1.746.747,2.874,2.874,0,0,1,.667,1.987v.063a3.148,3.148,0,0,1-.3,1.384,2.243,2.243,0,0,1-.845.955A2.339,2.339,0,0,1,9.36.1,2.222,2.222,0,0,1,7.62-.649a2.86,2.86,0,0,1-.667-1.978Zm.908.107a2.26,2.26,0,0,0,.408,1.411A1.3,1.3,0,0,0,9.36-.64a1.3,1.3,0,0,0,1.094-.54,2.472,2.472,0,0,0,.405-1.511A2.256,2.256,0,0,0,10.447-4.1a1.312,1.312,0,0,0-1.1-.54,1.3,1.3,0,0,0-1.079.532A2.453,2.453,0,0,0,7.861-2.583Zm9.5,0A3.163,3.163,0,0,1,16.807-.64,1.768,1.768,0,0,1,15.313.1,1.938,1.938,0,0,1,13.8-.513V2.031h-.9V-5.283h.825l.044.586A1.861,1.861,0,0,1,15.3-5.381a1.8,1.8,0,0,1,1.506.718,3.2,3.2,0,0,1,.554,2Zm-.9-.1A2.334,2.334,0,0,0,16.074-4.1a1.227,1.227,0,0,0-1.045-.518,1.328,1.328,0,0,0-1.23.728v2.524a1.33,1.33,0,0,0,1.24.723,1.221,1.221,0,0,0,1.033-.515A2.548,2.548,0,0,0,16.455-2.686ZM21.768,0a1.9,1.9,0,0,1-.127-.557,2.015,2.015,0,0,1-1.5.654,1.865,1.865,0,0,1-1.282-.442,1.43,1.43,0,0,1-.5-1.121,1.494,1.494,0,0,1,.627-1.282A2.958,2.958,0,0,1,20.747-3.2h.879v-.415a1.015,1.015,0,0,0-.283-.754,1.138,1.138,0,0,0-.835-.281,1.317,1.317,0,0,0-.811.244.719.719,0,0,0-.327.591h-.908a1.247,1.247,0,0,1,.281-.764,1.916,1.916,0,0,1,.762-.583,2.563,2.563,0,0,1,1.057-.215,2.089,2.089,0,0,1,1.431.457,1.647,1.647,0,0,1,.537,1.257v2.432a2.973,2.973,0,0,0,.186,1.157V0Zm-1.5-.688a1.588,1.588,0,0,0,.806-.22,1.329,1.329,0,0,0,.552-.571V-2.563h-.708q-1.66,0-1.66.972a.822.822,0,0,0,.283.664A1.089,1.089,0,0,0,20.269-.688ZM28.54-.64a1.3,1.3,0,0,0,.845-.293,1.031,1.031,0,0,0,.4-.732h.854a1.638,1.638,0,0,1-.312.864,2.058,2.058,0,0,1-.769.654A2.219,2.219,0,0,1,28.54.1a2.176,2.176,0,0,1-1.716-.72,2.869,2.869,0,0,1-.637-1.97v-.151a3.181,3.181,0,0,1,.283-1.372,2.157,2.157,0,0,1,.813-.933,2.309,2.309,0,0,1,1.252-.332,2.119,2.119,0,0,1,1.477.532,1.9,1.9,0,0,1,.627,1.382h-.854a1.245,1.245,0,0,0-.388-.842,1.208,1.208,0,0,0-.862-.33,1.264,1.264,0,0,0-1.067.5A2.328,2.328,0,0,0,27.09-2.71v.171a2.281,2.281,0,0,0,.376,1.406A1.27,1.27,0,0,0,28.54-.64ZM31.416-2.69a3.121,3.121,0,0,1,.305-1.4,2.277,2.277,0,0,1,.85-.957,2.313,2.313,0,0,1,1.243-.337,2.228,2.228,0,0,1,1.746.747,2.874,2.874,0,0,1,.667,1.987v.063a3.148,3.148,0,0,1-.3,1.384,2.243,2.243,0,0,1-.845.955A2.339,2.339,0,0,1,33.823.1a2.222,2.222,0,0,1-1.741-.747,2.86,2.86,0,0,1-.667-1.978Zm.908.107a2.26,2.26,0,0,0,.408,1.411,1.3,1.3,0,0,0,1.091.532,1.3,1.3,0,0,0,1.094-.54,2.472,2.472,0,0,0,.405-1.511A2.256,2.256,0,0,0,34.91-4.1a1.312,1.312,0,0,0-1.1-.54,1.3,1.3,0,0,0-1.079.532A2.453,2.453,0,0,0,32.324-2.583Zm4.814-.1a3.1,3.1,0,0,1,.576-1.956,1.822,1.822,0,0,1,1.509-.74,1.832,1.832,0,0,1,1.47.635V-7.5h.9V0h-.83l-.044-.566A1.84,1.84,0,0,1,39.214.1a1.8,1.8,0,0,1-1.5-.752,3.13,3.13,0,0,1-.579-1.963Zm.9.1a2.343,2.343,0,0,0,.371,1.406,1.2,1.2,0,0,0,1.025.508,1.318,1.318,0,0,0,1.255-.771V-3.867a1.328,1.328,0,0,0-1.245-.747,1.205,1.205,0,0,0-1.035.513A2.58,2.58,0,0,0,38.042-2.583Zm4.717-.107a3.121,3.121,0,0,1,.305-1.4,2.277,2.277,0,0,1,.85-.957,2.313,2.313,0,0,1,1.243-.337,2.228,2.228,0,0,1,1.746.747,2.874,2.874,0,0,1,.667,1.987v.063a3.148,3.148,0,0,1-.3,1.384,2.243,2.243,0,0,1-.845.955A2.339,2.339,0,0,1,45.166.1a2.222,2.222,0,0,1-1.741-.747,2.86,2.86,0,0,1-.667-1.978Zm.908.107a2.26,2.26,0,0,0,.408,1.411,1.3,1.3,0,0,0,1.091.532,1.3,1.3,0,0,0,1.094-.54,2.472,2.472,0,0,0,.405-1.511A2.256,2.256,0,0,0,46.252-4.1a1.312,1.312,0,0,0-1.1-.54,1.3,1.3,0,0,0-1.079.532A2.453,2.453,0,0,0,43.667-2.583Z" transform="translate(1228.42 14728.22)"/>
    <path id="Trazado_996530" data-name="Trazado 996530" d="M6.216-2.368A2.516,2.516,0,0,1,5.369-.562,2.975,2.975,0,0,1,3.354.1,2.675,2.675,0,0,1,1.2-.823,3.774,3.774,0,0,1,.42-3.35v-.435A4.262,4.262,0,0,1,.781-5.591a2.708,2.708,0,0,1,1.033-1.2,2.893,2.893,0,0,1,1.56-.417,2.9,2.9,0,0,1,1.982.659A2.7,2.7,0,0,1,6.226-4.7H4.761a1.485,1.485,0,0,0-.383-1,1.419,1.419,0,0,0-1-.31,1.245,1.245,0,0,0-1.1.525A2.942,2.942,0,0,0,1.9-3.853v.537a3.148,3.148,0,0,0,.349,1.685,1.222,1.222,0,0,0,1.1.532,1.446,1.446,0,0,0,1.013-.31,1.4,1.4,0,0,0,.383-.959ZM9.517.1A2.594,2.594,0,0,1,7.625-.615a2.534,2.534,0,0,1-.73-1.9v-.137A3.192,3.192,0,0,1,7.2-4.075a2.258,2.258,0,0,1,.872-.967A2.446,2.446,0,0,1,9.36-5.381a2.193,2.193,0,0,1,1.707.684,2.778,2.778,0,0,1,.623,1.938v.576H8.325a1.311,1.311,0,0,0,.413.83,1.247,1.247,0,0,0,.872.313,1.523,1.523,0,0,0,1.274-.591l.693.776a2.118,2.118,0,0,1-.859.7A2.819,2.819,0,0,1,9.517.1ZM9.355-4.238a.884.884,0,0,0-.681.283,1.463,1.463,0,0,0-.334.811H10.3v-.112a1.043,1.043,0,0,0-.254-.725A.912.912,0,0,0,9.355-4.238Zm4.434-1.045.044.61a1.845,1.845,0,0,1,1.519-.708,1.533,1.533,0,0,1,1.25.493,2.3,2.3,0,0,1,.42,1.475V0H15.61V-3.379a.915.915,0,0,0-.2-.652.874.874,0,0,0-.649-.2.971.971,0,0,0-.894.508V0H12.461V-5.283Zm5.991-1.3v1.3h.9v1.035h-.9v2.637a.63.63,0,0,0,.112.42.564.564,0,0,0,.43.127,2.25,2.25,0,0,0,.415-.034V-.029A2.905,2.905,0,0,1,19.883.1a1.347,1.347,0,0,1-1.514-1.5V-4.248H17.6V-5.283h.771v-1.3ZM24.438-3.96A3.834,3.834,0,0,0,23.931-4a1.034,1.034,0,0,0-1.05.542V0H21.47V-5.283H22.8l.039.63a1.308,1.308,0,0,1,1.177-.728,1.479,1.479,0,0,1,.439.063Zm.113,1.27a3.133,3.133,0,0,1,.3-1.4,2.216,2.216,0,0,1,.872-.952,2.543,2.543,0,0,1,1.321-.337,2.406,2.406,0,0,1,1.746.654,2.626,2.626,0,0,1,.754,1.777l.01.361a2.761,2.761,0,0,1-.679,1.951A2.359,2.359,0,0,1,27.057.1a2.371,2.371,0,0,1-1.824-.732,2.81,2.81,0,0,1-.681-1.992Zm1.411.1a1.97,1.97,0,0,0,.283,1.15.935.935,0,0,0,.811.4.937.937,0,0,0,.8-.393,2.155,2.155,0,0,0,.288-1.257,1.95,1.95,0,0,0-.288-1.143.937.937,0,0,0-.811-.405.922.922,0,0,0-.8.4A2.191,2.191,0,0,0,25.963-2.588Zm8.33-2.119A1.761,1.761,0,0,1,35.7-5.381q1.719,0,1.743,2V0H36.036V-3.345a.982.982,0,0,0-.2-.671.837.837,0,0,0-.649-.217.96.96,0,0,0-.9.479V0H32.882V-7.5h1.411Zm4,2.017a3.133,3.133,0,0,1,.3-1.4,2.216,2.216,0,0,1,.872-.952,2.543,2.543,0,0,1,1.321-.337,2.406,2.406,0,0,1,1.746.654,2.626,2.626,0,0,1,.754,1.777l.01.361a2.761,2.761,0,0,1-.679,1.951A2.359,2.359,0,0,1,40.8.1a2.371,2.371,0,0,1-1.824-.732,2.81,2.81,0,0,1-.681-1.992Zm1.411.1a1.97,1.97,0,0,0,.283,1.15.935.935,0,0,0,.811.4.937.937,0,0,0,.8-.393,2.155,2.155,0,0,0,.288-1.257A1.95,1.95,0,0,0,41.6-3.833a.937.937,0,0,0-.811-.405.922.922,0,0,0-.8.4A2.191,2.191,0,0,0,39.7-2.588Zm5.786-2.7.044.591a1.857,1.857,0,0,1,1.519-.688,1.409,1.409,0,0,1,1.4.806,1.814,1.814,0,0,1,1.587-.806,1.576,1.576,0,0,1,1.279.5,2.3,2.3,0,0,1,.42,1.506V0H50.323V-3.369a1.006,1.006,0,0,0-.176-.657.779.779,0,0,0-.62-.208.881.881,0,0,0-.879.605l0,3.628H47.242V-3.364a.994.994,0,0,0-.181-.664.787.787,0,0,0-.615-.205.914.914,0,0,0-.869.5V0H44.166V-5.283Zm12.095,2.69a3.2,3.2,0,0,1-.542,1.98A1.8,1.8,0,0,1,55.528.1a1.649,1.649,0,0,1-1.372-.659L54.093,0h-1.27V-7.5h1.411v2.69a1.607,1.607,0,0,1,1.284-.571,1.81,1.81,0,0,1,1.516.71,3.2,3.2,0,0,1,.549,2Zm-1.411-.1a2.1,2.1,0,0,0-.254-1.169.859.859,0,0,0-.757-.369.931.931,0,0,0-.928.552V-1.6a.943.943,0,0,0,.938.557.871.871,0,0,0,.9-.674A3.476,3.476,0,0,0,56.173-2.7ZM61.422-3.96A3.834,3.834,0,0,0,60.914-4a1.034,1.034,0,0,0-1.05.542V0H58.453V-5.283h1.333l.039.63A1.308,1.308,0,0,1,61-5.381a1.479,1.479,0,0,1,.439.063Zm.113,1.27a3.133,3.133,0,0,1,.3-1.4,2.216,2.216,0,0,1,.872-.952,2.543,2.543,0,0,1,1.321-.337,2.406,2.406,0,0,1,1.746.654,2.626,2.626,0,0,1,.754,1.777l.01.361a2.761,2.761,0,0,1-.679,1.951A2.359,2.359,0,0,1,64.04.1a2.371,2.371,0,0,1-1.824-.732,2.81,2.81,0,0,1-.681-1.992Zm1.411.1a1.97,1.97,0,0,0,.283,1.15.935.935,0,0,0,.811.4.937.937,0,0,0,.8-.393,2.155,2.155,0,0,0,.288-1.257,1.95,1.95,0,0,0-.288-1.143.937.937,0,0,0-.811-.405.922.922,0,0,0-.8.4A2.191,2.191,0,0,0,62.946-2.588Z" transform="translate(1121.875 14583.876) rotate(-92.777)"/>
    <path id="Trazado_996531" data-name="Trazado 996531" d="M.571,0V-6.4H2.54a2.99,2.99,0,0,1,1.51.38A2.651,2.651,0,0,1,5.089-4.937a3.334,3.334,0,0,1,.374,1.593v.294A3.344,3.344,0,0,1,5.1-1.463,2.628,2.628,0,0,1,4.061-.387,3.012,3.012,0,0,1,2.553,0ZM1.89-5.331v4.271h.637a1.432,1.432,0,0,0,1.182-.505A2.284,2.284,0,0,0,4.126-3.01v-.338a2.32,2.32,0,0,0-.4-1.479,1.427,1.427,0,0,0-1.182-.5ZM9.369,0H8.1V-4.9l-1.516.47V-5.458l2.65-.949h.136Z" transform="translate(1144.07 14585.353) rotate(-2.778)"/>
    <path id="Trazado_996532" data-name="Trazado 996532" d="M.571,0V-6.4H2.54a2.99,2.99,0,0,1,1.51.38A2.651,2.651,0,0,1,5.089-4.937a3.334,3.334,0,0,1,.374,1.593v.294A3.344,3.344,0,0,1,5.1-1.463,2.628,2.628,0,0,1,4.061-.387,3.012,3.012,0,0,1,2.553,0ZM1.89-5.331v4.271h.637a1.432,1.432,0,0,0,1.182-.505A2.284,2.284,0,0,0,4.126-3.01v-.338a2.32,2.32,0,0,0-.4-1.479,1.427,1.427,0,0,0-1.182-.5ZM10.67,0H6.284V-.87l2.07-2.206a5.106,5.106,0,0,0,.631-.813,1.306,1.306,0,0,0,.2-.659.977.977,0,0,0-.215-.67.777.777,0,0,0-.615-.244.838.838,0,0,0-.679.3,1.175,1.175,0,0,0-.248.78H6.157a2.1,2.1,0,0,1,.279-1.068,1.967,1.967,0,0,1,.789-.758A2.4,2.4,0,0,1,8.38-6.486a2.27,2.27,0,0,1,1.536.475,1.679,1.679,0,0,1,.547,1.34,2.151,2.151,0,0,1-.246.967,5.373,5.373,0,0,1-.844,1.147L7.919-1.024H10.67Z" transform="translate(1106.631 14482.568) rotate(-2.778)"/>
    <path id="Trazado_996533" data-name="Trazado 996533" d="M.7-2.5.957-4.977h2.55v.584H1.494l-.15,1.357a1.606,1.606,0,0,1,.831-.215,1.373,1.373,0,0,1,1.08.449,1.762,1.762,0,0,1,.4,1.215A1.7,1.7,0,0,1,3.239-.374a1.514,1.514,0,0,1-1.16.443A1.573,1.573,0,0,1,1-.3,1.46,1.46,0,0,1,.526-1.309h.6a1,1,0,0,0,.3.644.946.946,0,0,0,.649.217.853.853,0,0,0,.692-.3,1.257,1.257,0,0,0,.251-.831,1.154,1.154,0,0,0-.272-.8.924.924,0,0,0-.723-.3,1.042,1.042,0,0,0-.649.181l-.167.137Z" transform="translate(1124.881 14483.657) rotate(-2.778)"/>
    <g id="Grupo_1177223" data-name="Grupo 1177223" transform="translate(914 14470.656)">
      <g id="Grupo_1177222" data-name="Grupo 1177222" clip-path="url(#clip-path)">
        <text id="D" transform="translate(219.282 10.492) rotate(-2.778)" font-size="9" font-family="Roboto-Bold, Roboto" font-weight="700"><tspan x="0" y="0">D</tspan></text>
      </g>
    </g>
    <path id="Trazado_996534" data-name="Trazado 996534" d="M4.184-1.318H1.872L1.433,0H.031L2.413-6.4H3.634L6.029,0h-1.4ZM2.228-2.386h1.6l-.8-2.4Z" transform="translate(917.081 14489.691) rotate(-2.778)"/>
    <g id="Grupo_1177225" data-name="Grupo 1177225" transform="translate(914 14470.656)">
      <g id="Grupo_1177224" data-name="Grupo 1177224" clip-path="url(#clip-path)">
        <text id="A1" transform="translate(0.374 122.244) rotate(-2.778)" font-size="9" font-family="Roboto-Bold, Roboto" font-weight="700"><tspan x="0" y="0">A1</tspan></text>
      </g>
    </g>
    <path id="Trazado_996535" data-name="Trazado 996535" d="M4.421-2.773H1.89v1.714H4.86V0H.571V-6.4h4.28v1.068H1.89v1.525H4.421Z" transform="translate(933.713 14741.077) rotate(-2.778)"/>
    <path id="Trazado_996536" data-name="Trazado 996536" d="M4.421-2.615H1.89V0H.571V-6.4H4.737v1.068H1.89v1.652H4.421Z" transform="translate(1371.942 14734.548) rotate(-2.778)"/>
    <path id="Trazado_996537" data-name="Trazado 996537" d="M.571,0V-6.4H2.813a2.943,2.943,0,0,1,1.767.446,1.525,1.525,0,0,1,.6,1.307,1.446,1.446,0,0,1-.242.828,1.4,1.4,0,0,1-.672.525,1.351,1.351,0,0,1,.776.5,1.468,1.468,0,0,1,.283.914,1.689,1.689,0,0,1-.589,1.4A2.651,2.651,0,0,1,3.059,0ZM1.89-2.786v1.727H3.019a1.09,1.09,0,0,0,.727-.222.761.761,0,0,0,.261-.613.8.8,0,0,0-.91-.892Zm0-.932h.976q1-.018,1-.8a.735.735,0,0,0-.253-.626,1.329,1.329,0,0,0-.8-.191H1.89Z" transform="translate(948.791 14879.222) rotate(-2.778)"/>
    <g id="Grupo_1177227" data-name="Grupo 1177227" transform="translate(914 14470.656)">
      <g id="Grupo_1177226" data-name="Grupo 1177226" clip-path="url(#clip-path)">
        <text id="C" transform="translate(232.843 421.325) rotate(-2.778)" font-size="9" font-family="Roboto-Bold, Roboto" font-weight="700"><tspan x="0" y="0">C</tspan></text>
        <text id="C1" transform="translate(455.038 405.896) rotate(-2.778)" font-size="9" font-family="Roboto-Bold, Roboto" font-weight="700"><tspan x="0" y="0">C1</tspan></text>
      </g>
    </g>
    <path id="Trazado_996538" data-name="Trazado 996538" d="M4.421-2.615H1.89V0H.571V-6.4H4.737v1.068H1.89v1.652H4.421Z" transform="translate(1148.916 14748.138) rotate(-2.778)"/>
    <path id="Trazado_996539" data-name="Trazado 996539" d="M8.979-8.884H5.713V0h-2.2V-8.884H.293v-1.78H8.979Zm5.2,4.98h-1.75V0h-2.2V-10.664h3.962a4.479,4.479,0,0,1,2.915.842,2.907,2.907,0,0,1,1.025,2.38,3.281,3.281,0,0,1-.472,1.82A3.222,3.222,0,0,1,16.23-4.46L18.538-.1V0H16.179Zm-1.75-1.78H14.2A1.815,1.815,0,0,0,15.483-6.1a1.505,1.505,0,0,0,.454-1.161,1.611,1.611,0,0,0-.428-1.187,1.781,1.781,0,0,0-1.315-.432H12.429ZM25.825-2.2H21.973L21.24,0H18.9l3.97-10.664H24.91L28.9,0H26.565Zm-3.259-1.78h2.666l-1.34-3.992ZM35.427-2.8a1.128,1.128,0,0,0-.439-.956,5.764,5.764,0,0,0-1.582-.7A11.215,11.215,0,0,1,31.6-5.186,2.956,2.956,0,0,1,29.78-7.83a2.575,2.575,0,0,1,.487-1.542,3.177,3.177,0,0,1,1.4-1.058,5.265,5.265,0,0,1,2.047-.381,4.793,4.793,0,0,1,2.036.414,3.242,3.242,0,0,1,1.388,1.168,3.057,3.057,0,0,1,.494,1.714h-2.2a1.438,1.438,0,0,0-.461-1.139,1.9,1.9,0,0,0-1.3-.406,2.026,2.026,0,0,0-1.252.341,1.074,1.074,0,0,0-.447.9,1.029,1.029,0,0,0,.524.872,5.916,5.916,0,0,0,1.542.659,6.661,6.661,0,0,1,2.732,1.4,2.786,2.786,0,0,1,.857,2.08A2.566,2.566,0,0,1,36.584-.641a4.585,4.585,0,0,1-2.82.787A5.445,5.445,0,0,1,31.523-.3a3.546,3.546,0,0,1-1.542-1.234,3.161,3.161,0,0,1-.531-1.816h2.2q0,1.765,2.109,1.765a2.052,2.052,0,0,0,1.223-.319A1.037,1.037,0,0,0,35.427-2.8ZM45.535-4.622H41.316v2.856h4.951V0H39.119V-10.664h7.134v1.78H41.316v2.542h4.219ZM51.5-3.9h-1.75V0h-2.2V-10.664h3.962a4.479,4.479,0,0,1,2.915.842,2.907,2.907,0,0,1,1.025,2.38,3.281,3.281,0,0,1-.472,1.82A3.222,3.222,0,0,1,53.555-4.46L55.862-.1V0H53.5Zm-1.75-1.78h1.772A1.815,1.815,0,0,0,52.808-6.1a1.505,1.505,0,0,0,.454-1.161,1.611,1.611,0,0,0-.428-1.187,1.781,1.781,0,0,0-1.315-.432H49.753ZM63.149-2.2H59.3L58.564,0H56.228L60.2-10.664h2.036L66.226,0H63.889ZM59.89-3.977h2.666l-1.34-3.992Z" transform="translate(1215.316 14676.663)"/>
    <g id="Grupo_1177229" data-name="Grupo 1177229" transform="translate(914 14470.656)">
      <g id="Grupo_1177228" data-name="Grupo 1177228" clip-path="url(#clip-path)">
        <path id="Trazado_995852" data-name="Trazado 995852" d="M538.958,47.211a2.965,2.965,0,1,1-3.063-2.864,2.965,2.965,0,0,1,3.063,2.864" transform="translate(-326.907 -27.198)"/>
        <path id="Trazado_995853" data-name="Trazado 995853" d="M572.6,46.082a2.965,2.965,0,1,1-3.063-2.864,2.965,2.965,0,0,1,3.063,2.864" transform="translate(-347.539 -26.506)"/>
      </g>
    </g>
  </g>
</svg>
