<svg xmlns="http://www.w3.org/2000/svg" xmlns:xlink="http://www.w3.org/1999/xlink" width="412.341" height="704.266" viewBox="0 0 412.341 704.266">
  <defs>
    <clipPath id="clip-path">
      <rect id="Rectángulo_454805" data-name="Rectángulo 454805" width="412.341" height="704.265" fill="none"/>
    </clipPath>
  </defs>
  <g id="Grupo_1177312" data-name="Grupo 1177312" transform="translate(-905.686 -18595)">
    <path id="Trazado_996540" data-name="Trazado 996540" d="M1.591-.69H4.623V0H.743V-6.4h.848ZM6.341,0H5.524V-4.755h.817ZM6.35-6.746h.984L6.157-5.454H5.5Zm2.1,1.991.026.6A1.733,1.733,0,0,1,9.9-4.843q1.507,0,1.521,1.7V0h-.813V-3.146a1.1,1.1,0,0,0-.235-.76.942.942,0,0,0-.719-.246,1.173,1.173,0,0,0-.694.211,1.432,1.432,0,0,0-.466.554V0H7.682V-4.755ZM14.621.088a2.078,2.078,0,0,1-1.573-.635,2.357,2.357,0,0,1-.606-1.7V-2.4a2.853,2.853,0,0,1,.27-1.263,2.108,2.108,0,0,1,.756-.87,1.9,1.9,0,0,1,1.052-.314,1.781,1.781,0,0,1,1.441.611,2.645,2.645,0,0,1,.514,1.749v.338H13.254a1.69,1.69,0,0,0,.411,1.136,1.292,1.292,0,0,0,1,.433,1.416,1.416,0,0,0,.729-.176,1.833,1.833,0,0,0,.523-.466l.5.387A2,2,0,0,1,14.621.088Zm-.1-4.263a1.084,1.084,0,0,0-.826.358,1.741,1.741,0,0,0-.413,1h2.382v-.062a1.548,1.548,0,0,0-.334-.96A1.021,1.021,0,0,0,14.52-4.175ZM20.351,0a1.708,1.708,0,0,1-.114-.5,1.814,1.814,0,0,1-1.354.589,1.678,1.678,0,0,1-1.154-.4,1.287,1.287,0,0,1-.45-1.009,1.344,1.344,0,0,1,.565-1.154,2.662,2.662,0,0,1,1.589-.411h.791v-.374a.913.913,0,0,0-.255-.679,1.024,1.024,0,0,0-.751-.253,1.185,1.185,0,0,0-.729.22.647.647,0,0,0-.294.532h-.817a1.122,1.122,0,0,1,.253-.688,1.725,1.725,0,0,1,.686-.525,2.306,2.306,0,0,1,.951-.193,1.88,1.88,0,0,1,1.288.411A1.482,1.482,0,0,1,21.037-3.3v2.188A2.676,2.676,0,0,0,21.2-.07V0ZM19-.62a1.429,1.429,0,0,0,.725-.2,1.2,1.2,0,0,0,.5-.514v-.976h-.637q-1.494,0-1.494.875a.74.74,0,0,0,.255.6A.98.98,0,0,0,19-.62Zm9.563-1.705a2.827,2.827,0,0,1-.5,1.751,1.6,1.6,0,0,1-1.345.661,1.658,1.658,0,0,1-1.393-.637L25.286,0h-.747V-6.75h.813v2.518a1.648,1.648,0,0,1,1.358-.611,1.61,1.61,0,0,1,1.36.655A2.912,2.912,0,0,1,28.564-2.4Zm-.813-.092A2.2,2.2,0,0,0,27.431-3.7a1.062,1.062,0,0,0-.923-.453,1.194,1.194,0,0,0-1.156.747v2.057A1.227,1.227,0,0,0,26.517-.6a1.056,1.056,0,0,0,.91-.453A2.336,2.336,0,0,0,27.751-2.417ZM32.524-.47a1.727,1.727,0,0,1-1.393.558,1.478,1.478,0,0,1-1.158-.442,1.912,1.912,0,0,1-.4-1.307V-4.755h.813v3.072q0,1.081.879,1.081A1.217,1.217,0,0,0,32.5-1.3V-4.755h.813V0h-.773Zm4.794-.791a.6.6,0,0,0-.248-.512,2.39,2.39,0,0,0-.866-.314,4.093,4.093,0,0,1-.98-.316,1.394,1.394,0,0,1-.536-.439,1.051,1.051,0,0,1-.174-.606,1.233,1.233,0,0,1,.494-.989,1.931,1.931,0,0,1,1.263-.4,1.987,1.987,0,0,1,1.312.417,1.326,1.326,0,0,1,.5,1.068H37.27a.734.734,0,0,0-.283-.576,1.062,1.062,0,0,0-.714-.242,1.111,1.111,0,0,0-.694.193.609.609,0,0,0-.25.505.493.493,0,0,0,.233.444,2.866,2.866,0,0,0,.842.286,4.385,4.385,0,0,1,.987.325,1.439,1.439,0,0,1,.56.455,1.118,1.118,0,0,1,.182.648A1.217,1.217,0,0,1,37.622-.3,2.138,2.138,0,0,1,36.3.088a2.394,2.394,0,0,1-1.011-.2A1.644,1.644,0,0,1,34.6-.679a1.361,1.361,0,0,1-.248-.784h.813a.842.842,0,0,0,.327.648,1.27,1.27,0,0,0,.806.24,1.311,1.311,0,0,0,.74-.187A.574.574,0,0,0,37.318-1.261Zm2.975-4.645v1.151h.888v.628h-.888v2.949a.659.659,0,0,0,.119.428.5.5,0,0,0,.4.143A1.968,1.968,0,0,0,41.2-.659V0a2.357,2.357,0,0,1-.624.088,1.012,1.012,0,0,1-.822-.33,1.416,1.416,0,0,1-.277-.936V-4.126h-.866v-.628h.866V-5.906Zm1.444,3.485a2.808,2.808,0,0,1,.275-1.257,2.049,2.049,0,0,1,.765-.861,2.081,2.081,0,0,1,1.118-.3,2.005,2.005,0,0,1,1.571.672,2.587,2.587,0,0,1,.6,1.789v.057A2.833,2.833,0,0,1,45.8-1.079a2.019,2.019,0,0,1-.76.859A2.105,2.105,0,0,1,43.9.088a2,2,0,0,1-1.567-.672,2.574,2.574,0,0,1-.6-1.78Zm.817.1a2.034,2.034,0,0,0,.367,1.27,1.174,1.174,0,0,0,.982.479,1.167,1.167,0,0,0,.984-.486,2.224,2.224,0,0,0,.365-1.36,2.031,2.031,0,0,0-.371-1.268,1.181,1.181,0,0,0-.987-.486,1.167,1.167,0,0,0-.971.479A2.208,2.208,0,0,0,42.555-2.325Z" transform="translate(991.903 18713.918)"/>
    <path id="Trazado_996541" data-name="Trazado 996541" d="M1.591-.69H4.623V0H.743V-6.4h.848ZM6.341,0H5.524V-4.755h.817ZM6.35-6.746h.984L6.157-5.454H5.5Zm2.1,1.991.026.6A1.733,1.733,0,0,1,9.9-4.843q1.507,0,1.521,1.7V0h-.813V-3.146a1.1,1.1,0,0,0-.235-.76.942.942,0,0,0-.719-.246,1.173,1.173,0,0,0-.694.211,1.432,1.432,0,0,0-.466.554V0H7.682V-4.755ZM14.621.088a2.078,2.078,0,0,1-1.573-.635,2.357,2.357,0,0,1-.606-1.7V-2.4a2.853,2.853,0,0,1,.27-1.263,2.108,2.108,0,0,1,.756-.87,1.9,1.9,0,0,1,1.052-.314,1.781,1.781,0,0,1,1.441.611,2.645,2.645,0,0,1,.514,1.749v.338H13.254a1.69,1.69,0,0,0,.411,1.136,1.292,1.292,0,0,0,1,.433,1.416,1.416,0,0,0,.729-.176,1.833,1.833,0,0,0,.523-.466l.5.387A2,2,0,0,1,14.621.088Zm-.1-4.263a1.084,1.084,0,0,0-.826.358,1.741,1.741,0,0,0-.413,1h2.382v-.062a1.548,1.548,0,0,0-.334-.96A1.021,1.021,0,0,0,14.52-4.175ZM20.351,0a1.708,1.708,0,0,1-.114-.5,1.814,1.814,0,0,1-1.354.589,1.678,1.678,0,0,1-1.154-.4,1.287,1.287,0,0,1-.45-1.009,1.344,1.344,0,0,1,.565-1.154,2.662,2.662,0,0,1,1.589-.411h.791v-.374a.913.913,0,0,0-.255-.679,1.024,1.024,0,0,0-.751-.253,1.185,1.185,0,0,0-.729.22.647.647,0,0,0-.294.532h-.817a1.122,1.122,0,0,1,.253-.688,1.725,1.725,0,0,1,.686-.525,2.306,2.306,0,0,1,.951-.193,1.88,1.88,0,0,1,1.288.411A1.482,1.482,0,0,1,21.037-3.3v2.188A2.676,2.676,0,0,0,21.2-.07V0ZM19-.62a1.429,1.429,0,0,0,.725-.2,1.2,1.2,0,0,0,.5-.514v-.976h-.637q-1.494,0-1.494.875a.74.74,0,0,0,.255.6A.98.98,0,0,0,19-.62Zm7.444.044a1.171,1.171,0,0,0,.76-.264.928.928,0,0,0,.36-.659h.769a1.474,1.474,0,0,1-.281.778,1.852,1.852,0,0,1-.692.589,2,2,0,0,1-.916.22A1.959,1.959,0,0,1,24.9-.56a2.582,2.582,0,0,1-.573-1.773V-2.47A2.863,2.863,0,0,1,24.583-3.7a1.941,1.941,0,0,1,.732-.839,2.078,2.078,0,0,1,1.127-.3,1.907,1.907,0,0,1,1.329.479,1.712,1.712,0,0,1,.565,1.244h-.769a1.12,1.12,0,0,0-.349-.758,1.087,1.087,0,0,0-.776-.3,1.138,1.138,0,0,0-.96.446,2.1,2.1,0,0,0-.341,1.29v.154a2.053,2.053,0,0,0,.338,1.266A1.143,1.143,0,0,0,26.446-.576ZM32.186,0a1.708,1.708,0,0,1-.114-.5,1.814,1.814,0,0,1-1.354.589,1.678,1.678,0,0,1-1.154-.4,1.287,1.287,0,0,1-.45-1.009,1.344,1.344,0,0,1,.565-1.154,2.662,2.662,0,0,1,1.589-.411h.791v-.374a.913.913,0,0,0-.255-.679,1.024,1.024,0,0,0-.751-.253,1.185,1.185,0,0,0-.729.22.647.647,0,0,0-.294.532H29.21a1.122,1.122,0,0,1,.253-.688,1.725,1.725,0,0,1,.686-.525,2.306,2.306,0,0,1,.951-.193,1.88,1.88,0,0,1,1.288.411A1.482,1.482,0,0,1,32.871-3.3v2.188A2.676,2.676,0,0,0,33.038-.07V0ZM30.836-.62a1.429,1.429,0,0,0,.725-.2,1.2,1.2,0,0,0,.5-.514v-.976h-.637q-1.494,0-1.494.875a.74.74,0,0,0,.255.6A.98.98,0,0,0,30.836-.62Zm3.111-1.8a2.785,2.785,0,0,1,.519-1.76,1.64,1.64,0,0,1,1.358-.666,1.649,1.649,0,0,1,1.323.571V-6.75h.813V0h-.747l-.04-.51a1.656,1.656,0,0,1-1.358.6,1.624,1.624,0,0,1-1.347-.677,2.817,2.817,0,0,1-.521-1.767Zm.813.092a2.109,2.109,0,0,0,.334,1.266,1.08,1.08,0,0,0,.923.457A1.186,1.186,0,0,0,37.147-1.3V-3.48a1.2,1.2,0,0,0-1.121-.672,1.085,1.085,0,0,0-.932.461A2.322,2.322,0,0,0,34.761-2.325ZM41.194.088a2.078,2.078,0,0,1-1.573-.635,2.357,2.357,0,0,1-.606-1.7V-2.4a2.853,2.853,0,0,1,.27-1.263,2.108,2.108,0,0,1,.756-.87,1.9,1.9,0,0,1,1.052-.314,1.781,1.781,0,0,1,1.441.611,2.645,2.645,0,0,1,.514,1.749v.338H39.828a1.69,1.69,0,0,0,.411,1.136,1.292,1.292,0,0,0,1,.433,1.416,1.416,0,0,0,.729-.176,1.833,1.833,0,0,0,.523-.466l.5.387A2,2,0,0,1,41.194.088Zm-.1-4.263a1.084,1.084,0,0,0-.826.358,1.741,1.741,0,0,0-.413,1h2.382v-.062a1.548,1.548,0,0,0-.334-.96A1.021,1.021,0,0,0,41.093-4.175Zm5.194.149a2.436,2.436,0,0,0-.4-.031,1.071,1.071,0,0,0-1.085.681V0h-.813V-4.755h.791l.013.549a1.266,1.266,0,0,1,1.134-.637.831.831,0,0,1,.36.062ZM49.623,0a1.708,1.708,0,0,1-.114-.5,1.814,1.814,0,0,1-1.354.589A1.678,1.678,0,0,1,47-.31a1.287,1.287,0,0,1-.45-1.009,1.344,1.344,0,0,1,.565-1.154A2.662,2.662,0,0,1,48.7-2.883H49.5v-.374a.913.913,0,0,0-.255-.679,1.024,1.024,0,0,0-.751-.253,1.185,1.185,0,0,0-.729.22.647.647,0,0,0-.294.532h-.817a1.122,1.122,0,0,1,.253-.688,1.725,1.725,0,0,1,.686-.525,2.306,2.306,0,0,1,.951-.193,1.88,1.88,0,0,1,1.288.411A1.482,1.482,0,0,1,50.309-3.3v2.188A2.676,2.676,0,0,0,50.476-.07V0ZM48.274-.62A1.429,1.429,0,0,0,49-.817a1.2,1.2,0,0,0,.5-.514v-.976h-.637q-1.494,0-1.494.875a.74.74,0,0,0,.255.6A.98.98,0,0,0,48.274-.62Z" transform="translate(1011.12 18973.963)"/>
    <path id="Trazado_996542" data-name="Trazado 996542" d="M1.591-.69H4.623V0H.743V-6.4h.848ZM6.341,0H5.524V-4.755h.817ZM6.35-6.746h.984L6.157-5.454H5.5Zm2.1,1.991.026.6A1.733,1.733,0,0,1,9.9-4.843q1.507,0,1.521,1.7V0h-.813V-3.146a1.1,1.1,0,0,0-.235-.76.942.942,0,0,0-.719-.246,1.173,1.173,0,0,0-.694.211,1.432,1.432,0,0,0-.466.554V0H7.682V-4.755ZM14.621.088a2.078,2.078,0,0,1-1.573-.635,2.357,2.357,0,0,1-.606-1.7V-2.4a2.853,2.853,0,0,1,.27-1.263,2.108,2.108,0,0,1,.756-.87,1.9,1.9,0,0,1,1.052-.314,1.781,1.781,0,0,1,1.441.611,2.645,2.645,0,0,1,.514,1.749v.338H13.254a1.69,1.69,0,0,0,.411,1.136,1.292,1.292,0,0,0,1,.433,1.416,1.416,0,0,0,.729-.176,1.833,1.833,0,0,0,.523-.466l.5.387A2,2,0,0,1,14.621.088Zm-.1-4.263a1.084,1.084,0,0,0-.826.358,1.741,1.741,0,0,0-.413,1h2.382v-.062a1.548,1.548,0,0,0-.334-.96A1.021,1.021,0,0,0,14.52-4.175ZM20.351,0a1.708,1.708,0,0,1-.114-.5,1.814,1.814,0,0,1-1.354.589,1.678,1.678,0,0,1-1.154-.4,1.287,1.287,0,0,1-.45-1.009,1.344,1.344,0,0,1,.565-1.154,2.662,2.662,0,0,1,1.589-.411h.791v-.374a.913.913,0,0,0-.255-.679,1.024,1.024,0,0,0-.751-.253,1.185,1.185,0,0,0-.729.22.647.647,0,0,0-.294.532h-.817a1.122,1.122,0,0,1,.253-.688,1.725,1.725,0,0,1,.686-.525,2.306,2.306,0,0,1,.951-.193,1.88,1.88,0,0,1,1.288.411A1.482,1.482,0,0,1,21.037-3.3v2.188A2.676,2.676,0,0,0,21.2-.07V0ZM19-.62a1.429,1.429,0,0,0,.725-.2,1.2,1.2,0,0,0,.5-.514v-.976h-.637q-1.494,0-1.494.875a.74.74,0,0,0,.255.6A.98.98,0,0,0,19-.62Zm7.444.044a1.171,1.171,0,0,0,.76-.264.928.928,0,0,0,.36-.659h.769a1.474,1.474,0,0,1-.281.778,1.852,1.852,0,0,1-.692.589,2,2,0,0,1-.916.22A1.959,1.959,0,0,1,24.9-.56a2.582,2.582,0,0,1-.573-1.773V-2.47A2.863,2.863,0,0,1,24.583-3.7a1.941,1.941,0,0,1,.732-.839,2.078,2.078,0,0,1,1.127-.3,1.907,1.907,0,0,1,1.329.479,1.712,1.712,0,0,1,.565,1.244h-.769a1.12,1.12,0,0,0-.349-.758,1.087,1.087,0,0,0-.776-.3,1.138,1.138,0,0,0-.96.446,2.1,2.1,0,0,0-.341,1.29v.154a2.053,2.053,0,0,0,.338,1.266A1.143,1.143,0,0,0,26.446-.576ZM32.186,0a1.708,1.708,0,0,1-.114-.5,1.814,1.814,0,0,1-1.354.589,1.678,1.678,0,0,1-1.154-.4,1.287,1.287,0,0,1-.45-1.009,1.344,1.344,0,0,1,.565-1.154,2.662,2.662,0,0,1,1.589-.411h.791v-.374a.913.913,0,0,0-.255-.679,1.024,1.024,0,0,0-.751-.253,1.185,1.185,0,0,0-.729.22.647.647,0,0,0-.294.532H29.21a1.122,1.122,0,0,1,.253-.688,1.725,1.725,0,0,1,.686-.525,2.306,2.306,0,0,1,.951-.193,1.88,1.88,0,0,1,1.288.411A1.482,1.482,0,0,1,32.871-3.3v2.188A2.676,2.676,0,0,0,33.038-.07V0ZM30.836-.62a1.429,1.429,0,0,0,.725-.2,1.2,1.2,0,0,0,.5-.514v-.976h-.637q-1.494,0-1.494.875a.74.74,0,0,0,.255.6A.98.98,0,0,0,30.836-.62Zm3.111-1.8a2.785,2.785,0,0,1,.519-1.76,1.64,1.64,0,0,1,1.358-.666,1.649,1.649,0,0,1,1.323.571V-6.75h.813V0h-.747l-.04-.51a1.656,1.656,0,0,1-1.358.6,1.624,1.624,0,0,1-1.347-.677,2.817,2.817,0,0,1-.521-1.767Zm.813.092a2.109,2.109,0,0,0,.334,1.266,1.08,1.08,0,0,0,.923.457A1.186,1.186,0,0,0,37.147-1.3V-3.48a1.2,1.2,0,0,0-1.121-.672,1.085,1.085,0,0,0-.932.461A2.322,2.322,0,0,0,34.761-2.325ZM41.194.088a2.078,2.078,0,0,1-1.573-.635,2.357,2.357,0,0,1-.606-1.7V-2.4a2.853,2.853,0,0,1,.27-1.263,2.108,2.108,0,0,1,.756-.87,1.9,1.9,0,0,1,1.052-.314,1.781,1.781,0,0,1,1.441.611,2.645,2.645,0,0,1,.514,1.749v.338H39.828a1.69,1.69,0,0,0,.411,1.136,1.292,1.292,0,0,0,1,.433,1.416,1.416,0,0,0,.729-.176,1.833,1.833,0,0,0,.523-.466l.5.387A2,2,0,0,1,41.194.088Zm-.1-4.263a1.084,1.084,0,0,0-.826.358,1.741,1.741,0,0,0-.413,1h2.382v-.062a1.548,1.548,0,0,0-.334-.96A1.021,1.021,0,0,0,41.093-4.175Zm5.194.149a2.436,2.436,0,0,0-.4-.031,1.071,1.071,0,0,0-1.085.681V0h-.813V-4.755h.791l.013.549a1.266,1.266,0,0,1,1.134-.637.831.831,0,0,1,.36.062ZM49.623,0a1.708,1.708,0,0,1-.114-.5,1.814,1.814,0,0,1-1.354.589A1.678,1.678,0,0,1,47-.31a1.287,1.287,0,0,1-.45-1.009,1.344,1.344,0,0,1,.565-1.154A2.662,2.662,0,0,1,48.7-2.883H49.5v-.374a.913.913,0,0,0-.255-.679,1.024,1.024,0,0,0-.751-.253,1.185,1.185,0,0,0-.729.22.647.647,0,0,0-.294.532h-.817a1.122,1.122,0,0,1,.253-.688,1.725,1.725,0,0,1,.686-.525,2.306,2.306,0,0,1,.951-.193,1.88,1.88,0,0,1,1.288.411A1.482,1.482,0,0,1,50.309-3.3v2.188A2.676,2.676,0,0,0,50.476-.07V0ZM48.274-.62A1.429,1.429,0,0,0,49-.817a1.2,1.2,0,0,0,.5-.514v-.976h-.637q-1.494,0-1.494.875a.74.74,0,0,0,.255.6A.98.98,0,0,0,48.274-.62Z" transform="translate(1145.719 18973.963)"/>
    <path id="Trazado_996543" data-name="Trazado 996543" d="M1.591-.69H4.623V0H.743V-6.4h.848ZM6.341,0H5.524V-4.755h.817ZM6.35-6.746h.984L6.157-5.454H5.5Zm2.1,1.991.026.6A1.733,1.733,0,0,1,9.9-4.843q1.507,0,1.521,1.7V0h-.813V-3.146a1.1,1.1,0,0,0-.235-.76.942.942,0,0,0-.719-.246,1.173,1.173,0,0,0-.694.211,1.432,1.432,0,0,0-.466.554V0H7.682V-4.755ZM14.621.088a2.078,2.078,0,0,1-1.573-.635,2.357,2.357,0,0,1-.606-1.7V-2.4a2.853,2.853,0,0,1,.27-1.263,2.108,2.108,0,0,1,.756-.87,1.9,1.9,0,0,1,1.052-.314,1.781,1.781,0,0,1,1.441.611,2.645,2.645,0,0,1,.514,1.749v.338H13.254a1.69,1.69,0,0,0,.411,1.136,1.292,1.292,0,0,0,1,.433,1.416,1.416,0,0,0,.729-.176,1.833,1.833,0,0,0,.523-.466l.5.387A2,2,0,0,1,14.621.088Zm-.1-4.263a1.084,1.084,0,0,0-.826.358,1.741,1.741,0,0,0-.413,1h2.382v-.062a1.548,1.548,0,0,0-.334-.96A1.021,1.021,0,0,0,14.52-4.175ZM20.351,0a1.708,1.708,0,0,1-.114-.5,1.814,1.814,0,0,1-1.354.589,1.678,1.678,0,0,1-1.154-.4,1.287,1.287,0,0,1-.45-1.009,1.344,1.344,0,0,1,.565-1.154,2.662,2.662,0,0,1,1.589-.411h.791v-.374a.913.913,0,0,0-.255-.679,1.024,1.024,0,0,0-.751-.253,1.185,1.185,0,0,0-.729.22.647.647,0,0,0-.294.532h-.817a1.122,1.122,0,0,1,.253-.688,1.725,1.725,0,0,1,.686-.525,2.306,2.306,0,0,1,.951-.193,1.88,1.88,0,0,1,1.288.411A1.482,1.482,0,0,1,21.037-3.3v2.188A2.676,2.676,0,0,0,21.2-.07V0ZM19-.62a1.429,1.429,0,0,0,.725-.2,1.2,1.2,0,0,0,.5-.514v-.976h-.637q-1.494,0-1.494.875a.74.74,0,0,0,.255.6A.98.98,0,0,0,19-.62Zm6.64-5.287v1.151h.888v.628h-.888v2.949a.659.659,0,0,0,.119.428.5.5,0,0,0,.4.143,1.968,1.968,0,0,0,.387-.053V0a2.357,2.357,0,0,1-.624.088,1.012,1.012,0,0,1-.822-.33,1.416,1.416,0,0,1-.277-.936V-4.126h-.866v-.628h.866V-5.906ZM28.362,0h-.813V-4.755h.813Zm-.879-6.016A.485.485,0,0,1,27.6-6.35a.454.454,0,0,1,.358-.136.461.461,0,0,1,.36.136.48.48,0,0,1,.123.334.464.464,0,0,1-.123.33.469.469,0,0,1-.36.132.462.462,0,0,1-.358-.132A.469.469,0,0,1,27.483-6.016Zm4.478,1.991a2.436,2.436,0,0,0-.4-.031,1.071,1.071,0,0,0-1.085.681V0h-.813V-4.755h.791l.013.549A1.266,1.266,0,0,1,31.6-4.843a.831.831,0,0,1,.36.062Zm.363,1.6A2.808,2.808,0,0,1,32.6-3.678a2.049,2.049,0,0,1,.765-.861,2.081,2.081,0,0,1,1.118-.3,2.005,2.005,0,0,1,1.571.672,2.587,2.587,0,0,1,.6,1.789v.057a2.833,2.833,0,0,1-.266,1.246,2.019,2.019,0,0,1-.76.859,2.105,2.105,0,0,1-1.136.308,2,2,0,0,1-1.567-.672,2.574,2.574,0,0,1-.6-1.78Zm.817.1a2.034,2.034,0,0,0,.367,1.27,1.174,1.174,0,0,0,.982.479,1.167,1.167,0,0,0,.984-.486,2.224,2.224,0,0,0,.365-1.36,2.031,2.031,0,0,0-.371-1.268,1.181,1.181,0,0,0-.987-.486,1.167,1.167,0,0,0-.971.479A2.208,2.208,0,0,0,33.142-2.325Z" transform="translate(1115.564 19023.357)"/>
    <path id="Trazado_996544" data-name="Trazado 996544" d="M5.449-2.03A2.354,2.354,0,0,1,4.7-.464,2.456,2.456,0,0,1,3.023.088,2.255,2.255,0,0,1,1.206-.725,3.271,3.271,0,0,1,.523-2.9v-.615A3.646,3.646,0,0,1,.842-5.084a2.38,2.38,0,0,1,.9-1.039A2.514,2.514,0,0,1,3.1-6.486a2.312,2.312,0,0,1,1.635.569,2.382,2.382,0,0,1,.716,1.575H4.6a1.83,1.83,0,0,0-.477-1.107A1.445,1.445,0,0,0,3.1-5.792a1.51,1.51,0,0,0-1.268.6,2.742,2.742,0,0,0-.459,1.7v.62a2.819,2.819,0,0,0,.435,1.657A1.406,1.406,0,0,0,3.023-.6,1.624,1.624,0,0,0,4.1-.921a1.768,1.768,0,0,0,.5-1.11ZM7.356,0H6.543V-4.755h.813ZM6.478-6.016A.485.485,0,0,1,6.6-6.35a.454.454,0,0,1,.358-.136.461.461,0,0,1,.36.136.48.48,0,0,1,.123.334.464.464,0,0,1-.123.33.469.469,0,0,1-.36.132A.462.462,0,0,1,6.6-5.687.469.469,0,0,1,6.478-6.016ZM9.426-4.755l.026.6a1.733,1.733,0,0,1,1.424-.686q1.507,0,1.521,1.7V0h-.813V-3.146a1.1,1.1,0,0,0-.235-.76.942.942,0,0,0-.719-.246,1.173,1.173,0,0,0-.694.211,1.432,1.432,0,0,0-.466.554V0H8.657V-4.755Zm5.3-1.151v1.151h.888v.628h-.888v2.949a.659.659,0,0,0,.119.428.5.5,0,0,0,.4.143,1.968,1.968,0,0,0,.387-.053V0a2.357,2.357,0,0,1-.624.088,1.012,1.012,0,0,1-.822-.33,1.416,1.416,0,0,1-.277-.936V-4.126h-.866v-.628h.866V-5.906ZM19.5-.47a1.727,1.727,0,0,1-1.393.558,1.478,1.478,0,0,1-1.158-.442,1.912,1.912,0,0,1-.4-1.307V-4.755h.813v3.072q0,1.081.879,1.081A1.217,1.217,0,0,0,19.477-1.3V-4.755h.813V0h-.773Zm4.324-3.555a2.436,2.436,0,0,0-.4-.031,1.071,1.071,0,0,0-1.085.681V0h-.813V-4.755h.791l.013.549a1.266,1.266,0,0,1,1.134-.637.831.831,0,0,1,.36.062ZM27.159,0a1.708,1.708,0,0,1-.114-.5,1.814,1.814,0,0,1-1.354.589,1.678,1.678,0,0,1-1.154-.4,1.287,1.287,0,0,1-.45-1.009,1.344,1.344,0,0,1,.565-1.154,2.662,2.662,0,0,1,1.589-.411h.791v-.374a.913.913,0,0,0-.255-.679,1.024,1.024,0,0,0-.751-.253,1.185,1.185,0,0,0-.729.22A.647.647,0,0,0,25-3.437h-.817a1.122,1.122,0,0,1,.253-.688,1.725,1.725,0,0,1,.686-.525,2.306,2.306,0,0,1,.951-.193,1.88,1.88,0,0,1,1.288.411A1.482,1.482,0,0,1,27.844-3.3v2.188A2.676,2.676,0,0,0,28.011-.07V0ZM25.809-.62a1.429,1.429,0,0,0,.725-.2,1.2,1.2,0,0,0,.5-.514v-.976h-.637q-1.494,0-1.494.875a.74.74,0,0,0,.255.6A.98.98,0,0,0,25.809-.62Z" transform="translate(991.914 18825.504)"/>
    <path id="Trazado_996545" data-name="Trazado 996545" d="M5.449-2.03A2.354,2.354,0,0,1,4.7-.464,2.456,2.456,0,0,1,3.023.088,2.255,2.255,0,0,1,1.206-.725,3.271,3.271,0,0,1,.523-2.9v-.615A3.646,3.646,0,0,1,.842-5.084a2.38,2.38,0,0,1,.9-1.039A2.514,2.514,0,0,1,3.1-6.486a2.312,2.312,0,0,1,1.635.569,2.382,2.382,0,0,1,.716,1.575H4.6a1.83,1.83,0,0,0-.477-1.107A1.445,1.445,0,0,0,3.1-5.792a1.51,1.51,0,0,0-1.268.6,2.742,2.742,0,0,0-.459,1.7v.62a2.819,2.819,0,0,0,.435,1.657A1.406,1.406,0,0,0,3.023-.6,1.624,1.624,0,0,0,4.1-.921a1.768,1.768,0,0,0,.5-1.11ZM7.356,0H6.543V-4.755h.813ZM6.478-6.016A.485.485,0,0,1,6.6-6.35a.454.454,0,0,1,.358-.136.461.461,0,0,1,.36.136.48.48,0,0,1,.123.334.464.464,0,0,1-.123.33.469.469,0,0,1-.36.132A.462.462,0,0,1,6.6-5.687.469.469,0,0,1,6.478-6.016ZM9.426-4.755l.026.6a1.733,1.733,0,0,1,1.424-.686q1.507,0,1.521,1.7V0h-.813V-3.146a1.1,1.1,0,0,0-.235-.76.942.942,0,0,0-.719-.246,1.173,1.173,0,0,0-.694.211,1.432,1.432,0,0,0-.466.554V0H8.657V-4.755Zm5.3-1.151v1.151h.888v.628h-.888v2.949a.659.659,0,0,0,.119.428.5.5,0,0,0,.4.143,1.968,1.968,0,0,0,.387-.053V0a2.357,2.357,0,0,1-.624.088,1.012,1.012,0,0,1-.822-.33,1.416,1.416,0,0,1-.277-.936V-4.126h-.866v-.628h.866V-5.906ZM19.5-.47a1.727,1.727,0,0,1-1.393.558,1.478,1.478,0,0,1-1.158-.442,1.912,1.912,0,0,1-.4-1.307V-4.755h.813v3.072q0,1.081.879,1.081A1.217,1.217,0,0,0,19.477-1.3V-4.755h.813V0h-.773Zm4.324-3.555a2.436,2.436,0,0,0-.4-.031,1.071,1.071,0,0,0-1.085.681V0h-.813V-4.755h.791l.013.549a1.266,1.266,0,0,1,1.134-.637.831.831,0,0,1,.36.062ZM27.159,0a1.708,1.708,0,0,1-.114-.5,1.814,1.814,0,0,1-1.354.589,1.678,1.678,0,0,1-1.154-.4,1.287,1.287,0,0,1-.45-1.009,1.344,1.344,0,0,1,.565-1.154,2.662,2.662,0,0,1,1.589-.411h.791v-.374a.913.913,0,0,0-.255-.679,1.024,1.024,0,0,0-.751-.253,1.185,1.185,0,0,0-.729.22A.647.647,0,0,0,25-3.437h-.817a1.122,1.122,0,0,1,.253-.688,1.725,1.725,0,0,1,.686-.525,2.306,2.306,0,0,1,.951-.193,1.88,1.88,0,0,1,1.288.411A1.482,1.482,0,0,1,27.844-3.3v2.188A2.676,2.676,0,0,0,28.011-.07V0ZM25.809-.62a1.429,1.429,0,0,0,.725-.2,1.2,1.2,0,0,0,.5-.514v-.976h-.637q-1.494,0-1.494.875a.74.74,0,0,0,.255.6A.98.98,0,0,0,25.809-.62Z" transform="translate(1186.34 18825.504)"/>
    <path id="Trazado_996546" data-name="Trazado 996546" d="M1.591-.69H4.623V0H.743V-6.4h.848ZM6.341,0H5.524V-4.755h.817ZM6.35-6.746h.984L6.157-5.454H5.5Zm2.1,1.991.026.6A1.733,1.733,0,0,1,9.9-4.843q1.507,0,1.521,1.7V0h-.813V-3.146a1.1,1.1,0,0,0-.235-.76.942.942,0,0,0-.719-.246,1.173,1.173,0,0,0-.694.211,1.432,1.432,0,0,0-.466.554V0H7.682V-4.755ZM14.621.088a2.078,2.078,0,0,1-1.573-.635,2.357,2.357,0,0,1-.606-1.7V-2.4a2.853,2.853,0,0,1,.27-1.263,2.108,2.108,0,0,1,.756-.87,1.9,1.9,0,0,1,1.052-.314,1.781,1.781,0,0,1,1.441.611,2.645,2.645,0,0,1,.514,1.749v.338H13.254a1.69,1.69,0,0,0,.411,1.136,1.292,1.292,0,0,0,1,.433,1.416,1.416,0,0,0,.729-.176,1.833,1.833,0,0,0,.523-.466l.5.387A2,2,0,0,1,14.621.088Zm-.1-4.263a1.084,1.084,0,0,0-.826.358,1.741,1.741,0,0,0-.413,1h2.382v-.062a1.548,1.548,0,0,0-.334-.96A1.021,1.021,0,0,0,14.52-4.175ZM20.351,0a1.708,1.708,0,0,1-.114-.5,1.814,1.814,0,0,1-1.354.589,1.678,1.678,0,0,1-1.154-.4,1.287,1.287,0,0,1-.45-1.009,1.344,1.344,0,0,1,.565-1.154,2.662,2.662,0,0,1,1.589-.411h.791v-.374a.913.913,0,0,0-.255-.679,1.024,1.024,0,0,0-.751-.253,1.185,1.185,0,0,0-.729.22.647.647,0,0,0-.294.532h-.817a1.122,1.122,0,0,1,.253-.688,1.725,1.725,0,0,1,.686-.525,2.306,2.306,0,0,1,.951-.193,1.88,1.88,0,0,1,1.288.411A1.482,1.482,0,0,1,21.037-3.3v2.188A2.676,2.676,0,0,0,21.2-.07V0ZM19-.62a1.429,1.429,0,0,0,.725-.2,1.2,1.2,0,0,0,.5-.514v-.976h-.637q-1.494,0-1.494.875a.74.74,0,0,0,.255.6A.98.98,0,0,0,19-.62Zm9.563-1.705a2.827,2.827,0,0,1-.5,1.751,1.6,1.6,0,0,1-1.345.661,1.658,1.658,0,0,1-1.393-.637L25.286,0h-.747V-6.75h.813v2.518a1.648,1.648,0,0,1,1.358-.611,1.61,1.61,0,0,1,1.36.655A2.912,2.912,0,0,1,28.564-2.4Zm-.813-.092A2.2,2.2,0,0,0,27.431-3.7a1.062,1.062,0,0,0-.923-.453,1.194,1.194,0,0,0-1.156.747v2.057A1.227,1.227,0,0,0,26.517-.6a1.056,1.056,0,0,0,.91-.453A2.336,2.336,0,0,0,27.751-2.417ZM32.524-.47a1.727,1.727,0,0,1-1.393.558,1.478,1.478,0,0,1-1.158-.442,1.912,1.912,0,0,1-.4-1.307V-4.755h.813v3.072q0,1.081.879,1.081A1.217,1.217,0,0,0,32.5-1.3V-4.755h.813V0h-.773Zm4.794-.791a.6.6,0,0,0-.248-.512,2.39,2.39,0,0,0-.866-.314,4.093,4.093,0,0,1-.98-.316,1.394,1.394,0,0,1-.536-.439,1.051,1.051,0,0,1-.174-.606,1.233,1.233,0,0,1,.494-.989,1.931,1.931,0,0,1,1.263-.4,1.987,1.987,0,0,1,1.312.417,1.326,1.326,0,0,1,.5,1.068H37.27a.734.734,0,0,0-.283-.576,1.062,1.062,0,0,0-.714-.242,1.111,1.111,0,0,0-.694.193.609.609,0,0,0-.25.505.493.493,0,0,0,.233.444,2.866,2.866,0,0,0,.842.286,4.385,4.385,0,0,1,.987.325,1.439,1.439,0,0,1,.56.455,1.118,1.118,0,0,1,.182.648A1.217,1.217,0,0,1,37.622-.3,2.138,2.138,0,0,1,36.3.088a2.394,2.394,0,0,1-1.011-.2A1.644,1.644,0,0,1,34.6-.679a1.361,1.361,0,0,1-.248-.784h.813a.842.842,0,0,0,.327.648,1.27,1.27,0,0,0,.806.24,1.311,1.311,0,0,0,.74-.187A.574.574,0,0,0,37.318-1.261Zm2.975-4.645v1.151h.888v.628h-.888v2.949a.659.659,0,0,0,.119.428.5.5,0,0,0,.4.143A1.968,1.968,0,0,0,41.2-.659V0a2.357,2.357,0,0,1-.624.088,1.012,1.012,0,0,1-.822-.33,1.416,1.416,0,0,1-.277-.936V-4.126h-.866v-.628h.866V-5.906Zm1.444,3.485a2.808,2.808,0,0,1,.275-1.257,2.049,2.049,0,0,1,.765-.861,2.081,2.081,0,0,1,1.118-.3,2.005,2.005,0,0,1,1.571.672,2.587,2.587,0,0,1,.6,1.789v.057A2.833,2.833,0,0,1,45.8-1.079a2.019,2.019,0,0,1-.76.859A2.105,2.105,0,0,1,43.9.088a2,2,0,0,1-1.567-.672,2.574,2.574,0,0,1-.6-1.78Zm.817.1a2.034,2.034,0,0,0,.367,1.27,1.174,1.174,0,0,0,.982.479,1.167,1.167,0,0,0,.984-.486,2.224,2.224,0,0,0,.365-1.36,2.031,2.031,0,0,0-.371-1.268,1.181,1.181,0,0,0-.987-.486,1.167,1.167,0,0,0-.971.479A2.208,2.208,0,0,0,42.555-2.325Z" transform="translate(1182.534 18713.918)"/>
    <path id="Trazado_996547" data-name="Trazado 996547" d="M5.66,0H4.812V-2.958H1.586V0H.743V-6.4h.844v2.751H4.812V-6.4H5.66ZM6.816-2.421a2.808,2.808,0,0,1,.275-1.257,2.049,2.049,0,0,1,.765-.861,2.081,2.081,0,0,1,1.118-.3,2.005,2.005,0,0,1,1.571.672,2.587,2.587,0,0,1,.6,1.789v.057a2.833,2.833,0,0,1-.266,1.246,2.019,2.019,0,0,1-.76.859A2.105,2.105,0,0,1,8.982.088,2,2,0,0,1,7.416-.584a2.574,2.574,0,0,1-.6-1.78Zm.817.1A2.034,2.034,0,0,0,8-1.055a1.174,1.174,0,0,0,.982.479,1.167,1.167,0,0,0,.984-.486,2.224,2.224,0,0,0,.365-1.36A2.031,2.031,0,0,0,9.96-3.689a1.181,1.181,0,0,0-.987-.486A1.167,1.167,0,0,0,8-3.7,2.208,2.208,0,0,0,7.633-2.325Zm5.3-2.43.022.527a1.756,1.756,0,0,1,1.411-.615,1.359,1.359,0,0,1,1.358.765,1.8,1.8,0,0,1,.617-.554,1.824,1.824,0,0,1,.9-.211q1.564,0,1.591,1.657V0h-.813V-3.138A1.092,1.092,0,0,0,17.78-3.9,1.026,1.026,0,0,0,17-4.153a1.078,1.078,0,0,0-.751.27,1.1,1.1,0,0,0-.347.727V0h-.817V-3.116a.907.907,0,0,0-1.015-1.037,1.088,1.088,0,0,0-1.094.681V0H12.16V-4.755Zm11.149,2.43a2.827,2.827,0,0,1-.5,1.751,1.6,1.6,0,0,1-1.345.661,1.658,1.658,0,0,1-1.393-.637L20.8,0h-.747V-6.75h.813v2.518a1.648,1.648,0,0,1,1.358-.611,1.61,1.61,0,0,1,1.36.655A2.912,2.912,0,0,1,24.078-2.4Zm-.813-.092A2.2,2.2,0,0,0,22.944-3.7a1.062,1.062,0,0,0-.923-.453,1.194,1.194,0,0,0-1.156.747v2.057A1.227,1.227,0,0,0,22.03-.6a1.056,1.056,0,0,0,.91-.453A2.336,2.336,0,0,0,23.265-2.417ZM27.4-4.025a2.436,2.436,0,0,0-.4-.031,1.071,1.071,0,0,0-1.085.681V0H25.1V-4.755h.791l.013.549a1.266,1.266,0,0,1,1.134-.637.831.831,0,0,1,.36.062Zm.363,1.6a2.808,2.808,0,0,1,.275-1.257A2.049,2.049,0,0,1,28.8-4.54a2.081,2.081,0,0,1,1.118-.3,2.005,2.005,0,0,1,1.571.672,2.587,2.587,0,0,1,.6,1.789v.057a2.833,2.833,0,0,1-.266,1.246,2.019,2.019,0,0,1-.76.859,2.105,2.105,0,0,1-1.136.308,2,2,0,0,1-1.567-.672,2.574,2.574,0,0,1-.6-1.78Zm.817.1a2.034,2.034,0,0,0,.367,1.27,1.174,1.174,0,0,0,.982.479,1.167,1.167,0,0,0,.984-.486,2.224,2.224,0,0,0,.365-1.36,2.031,2.031,0,0,0-.371-1.268,1.181,1.181,0,0,0-.987-.486,1.167,1.167,0,0,0-.971.479A2.208,2.208,0,0,0,28.58-2.325Zm7.3,1.063a.6.6,0,0,0-.248-.512,2.39,2.39,0,0,0-.866-.314,4.093,4.093,0,0,1-.98-.316,1.394,1.394,0,0,1-.536-.439,1.051,1.051,0,0,1-.174-.606,1.233,1.233,0,0,1,.494-.989,1.931,1.931,0,0,1,1.263-.4,1.987,1.987,0,0,1,1.312.417,1.326,1.326,0,0,1,.5,1.068h-.817a.734.734,0,0,0-.283-.576,1.062,1.062,0,0,0-.714-.242,1.111,1.111,0,0,0-.694.193.609.609,0,0,0-.25.505.493.493,0,0,0,.233.444,2.866,2.866,0,0,0,.842.286,4.385,4.385,0,0,1,.987.325,1.439,1.439,0,0,1,.56.455,1.118,1.118,0,0,1,.182.648A1.217,1.217,0,0,1,36.183-.3,2.138,2.138,0,0,1,34.86.088a2.394,2.394,0,0,1-1.011-.2,1.644,1.644,0,0,1-.688-.565,1.361,1.361,0,0,1-.248-.784h.813a.842.842,0,0,0,.327.648,1.27,1.27,0,0,0,.806.24,1.311,1.311,0,0,0,.74-.187A.574.574,0,0,0,35.879-1.261Z" transform="translate(1190.146 18673.877)"/>
    <path id="Trazado_996548" data-name="Trazado 996548" d="M5.449-2.03A2.354,2.354,0,0,1,4.7-.464,2.456,2.456,0,0,1,3.023.088,2.255,2.255,0,0,1,1.206-.725,3.271,3.271,0,0,1,.523-2.9v-.615A3.646,3.646,0,0,1,.842-5.084a2.38,2.38,0,0,1,.9-1.039A2.514,2.514,0,0,1,3.1-6.486a2.312,2.312,0,0,1,1.635.569,2.382,2.382,0,0,1,.716,1.575H4.6a1.83,1.83,0,0,0-.477-1.107A1.445,1.445,0,0,0,3.1-5.792a1.51,1.51,0,0,0-1.268.6,2.742,2.742,0,0,0-.459,1.7v.62a2.819,2.819,0,0,0,.435,1.657A1.406,1.406,0,0,0,3.023-.6,1.624,1.624,0,0,0,4.1-.921a1.768,1.768,0,0,0,.5-1.11Zm.809-.391a2.808,2.808,0,0,1,.275-1.257A2.049,2.049,0,0,1,7.3-4.54a2.081,2.081,0,0,1,1.118-.3,2.005,2.005,0,0,1,1.571.672,2.587,2.587,0,0,1,.6,1.789v.057a2.833,2.833,0,0,1-.266,1.246,2.019,2.019,0,0,1-.76.859A2.105,2.105,0,0,1,8.424.088,2,2,0,0,1,6.858-.584a2.574,2.574,0,0,1-.6-1.78Zm.817.1a2.034,2.034,0,0,0,.367,1.27,1.174,1.174,0,0,0,.982.479,1.167,1.167,0,0,0,.984-.486,2.224,2.224,0,0,0,.365-1.36A2.031,2.031,0,0,0,9.4-3.689a1.181,1.181,0,0,0-.987-.486,1.167,1.167,0,0,0-.971.479A2.208,2.208,0,0,0,7.075-2.325Zm7.3,1.063a.6.6,0,0,0-.248-.512,2.39,2.39,0,0,0-.866-.314,4.093,4.093,0,0,1-.98-.316,1.394,1.394,0,0,1-.536-.439,1.051,1.051,0,0,1-.174-.606,1.233,1.233,0,0,1,.494-.989,1.931,1.931,0,0,1,1.263-.4,1.987,1.987,0,0,1,1.312.417,1.326,1.326,0,0,1,.5,1.068h-.817a.734.734,0,0,0-.283-.576,1.062,1.062,0,0,0-.714-.242,1.111,1.111,0,0,0-.694.193.609.609,0,0,0-.25.505.493.493,0,0,0,.233.444,2.866,2.866,0,0,0,.842.286,4.385,4.385,0,0,1,.987.325,1.439,1.439,0,0,1,.56.455,1.118,1.118,0,0,1,.182.648A1.217,1.217,0,0,1,14.678-.3a2.138,2.138,0,0,1-1.323.385,2.394,2.394,0,0,1-1.011-.2,1.644,1.644,0,0,1-.688-.565,1.361,1.361,0,0,1-.248-.784h.813a.842.842,0,0,0,.327.648,1.27,1.27,0,0,0,.806.24,1.311,1.311,0,0,0,.74-.187A.574.574,0,0,0,14.375-1.261ZM17.35-5.906v1.151h.888v.628H17.35v2.949a.659.659,0,0,0,.119.428.5.5,0,0,0,.4.143,1.968,1.968,0,0,0,.387-.053V0a2.357,2.357,0,0,1-.624.088,1.012,1.012,0,0,1-.822-.33,1.416,1.416,0,0,1-.277-.936V-4.126h-.866v-.628h.866V-5.906ZM22.122,0a1.708,1.708,0,0,1-.114-.5,1.814,1.814,0,0,1-1.354.589A1.678,1.678,0,0,1,19.5-.31a1.287,1.287,0,0,1-.45-1.009,1.344,1.344,0,0,1,.565-1.154A2.662,2.662,0,0,1,21.2-2.883h.791v-.374a.913.913,0,0,0-.255-.679,1.024,1.024,0,0,0-.751-.253,1.185,1.185,0,0,0-.729.22.647.647,0,0,0-.294.532h-.817a1.122,1.122,0,0,1,.253-.688,1.725,1.725,0,0,1,.686-.525,2.306,2.306,0,0,1,.951-.193,1.88,1.88,0,0,1,1.288.411A1.482,1.482,0,0,1,22.808-3.3v2.188A2.676,2.676,0,0,0,22.975-.07V0ZM20.773-.62a1.429,1.429,0,0,0,.725-.2,1.2,1.2,0,0,0,.5-.514v-.976h-.637q-1.494,0-1.494.875a.74.74,0,0,0,.255.6A.98.98,0,0,0,20.773-.62Zm3.111-1.8a2.785,2.785,0,0,1,.519-1.76,1.64,1.64,0,0,1,1.358-.666,1.649,1.649,0,0,1,1.323.571V-6.75H27.9V0h-.747l-.04-.51a1.656,1.656,0,0,1-1.358.6,1.624,1.624,0,0,1-1.347-.677,2.817,2.817,0,0,1-.521-1.767Zm.813.092a2.109,2.109,0,0,0,.334,1.266,1.08,1.08,0,0,0,.923.457A1.186,1.186,0,0,0,27.083-1.3V-3.48a1.2,1.2,0,0,0-1.121-.672,1.085,1.085,0,0,0-.932.461A2.322,2.322,0,0,0,24.7-2.325Zm4.245-.1a2.808,2.808,0,0,1,.275-1.257,2.049,2.049,0,0,1,.765-.861,2.081,2.081,0,0,1,1.118-.3,2.005,2.005,0,0,1,1.571.672,2.587,2.587,0,0,1,.6,1.789v.057a2.833,2.833,0,0,1-.266,1.246,2.019,2.019,0,0,1-.76.859,2.105,2.105,0,0,1-1.136.308,2,2,0,0,1-1.567-.672,2.574,2.574,0,0,1-.6-1.78Zm.817.1a2.034,2.034,0,0,0,.367,1.27,1.174,1.174,0,0,0,.982.479,1.167,1.167,0,0,0,.984-.486,2.224,2.224,0,0,0,.365-1.36,2.031,2.031,0,0,0-.371-1.268,1.181,1.181,0,0,0-.987-.486,1.167,1.167,0,0,0-.971.479A2.208,2.208,0,0,0,29.76-2.325Z" transform="translate(1081.074 18807.199) rotate(-74.529)"/>
    <path id="Trazado_996549" data-name="Trazado 996549" d="M5.449-2.03A2.354,2.354,0,0,1,4.7-.464,2.456,2.456,0,0,1,3.023.088,2.255,2.255,0,0,1,1.206-.725,3.271,3.271,0,0,1,.523-2.9v-.615A3.646,3.646,0,0,1,.842-5.084a2.38,2.38,0,0,1,.9-1.039A2.514,2.514,0,0,1,3.1-6.486a2.312,2.312,0,0,1,1.635.569,2.382,2.382,0,0,1,.716,1.575H4.6a1.83,1.83,0,0,0-.477-1.107A1.445,1.445,0,0,0,3.1-5.792a1.51,1.51,0,0,0-1.268.6,2.742,2.742,0,0,0-.459,1.7v.62a2.819,2.819,0,0,0,.435,1.657A1.406,1.406,0,0,0,3.023-.6,1.624,1.624,0,0,0,4.1-.921a1.768,1.768,0,0,0,.5-1.11Zm.809-.391a2.808,2.808,0,0,1,.275-1.257A2.049,2.049,0,0,1,7.3-4.54a2.081,2.081,0,0,1,1.118-.3,2.005,2.005,0,0,1,1.571.672,2.587,2.587,0,0,1,.6,1.789v.057a2.833,2.833,0,0,1-.266,1.246,2.019,2.019,0,0,1-.76.859A2.105,2.105,0,0,1,8.424.088,2,2,0,0,1,6.858-.584a2.574,2.574,0,0,1-.6-1.78Zm.817.1a2.034,2.034,0,0,0,.367,1.27,1.174,1.174,0,0,0,.982.479,1.167,1.167,0,0,0,.984-.486,2.224,2.224,0,0,0,.365-1.36A2.031,2.031,0,0,0,9.4-3.689a1.181,1.181,0,0,0-.987-.486,1.167,1.167,0,0,0-.971.479A2.208,2.208,0,0,0,7.075-2.325Zm7.3,1.063a.6.6,0,0,0-.248-.512,2.39,2.39,0,0,0-.866-.314,4.093,4.093,0,0,1-.98-.316,1.394,1.394,0,0,1-.536-.439,1.051,1.051,0,0,1-.174-.606,1.233,1.233,0,0,1,.494-.989,1.931,1.931,0,0,1,1.263-.4,1.987,1.987,0,0,1,1.312.417,1.326,1.326,0,0,1,.5,1.068h-.817a.734.734,0,0,0-.283-.576,1.062,1.062,0,0,0-.714-.242,1.111,1.111,0,0,0-.694.193.609.609,0,0,0-.25.505.493.493,0,0,0,.233.444,2.866,2.866,0,0,0,.842.286,4.385,4.385,0,0,1,.987.325,1.439,1.439,0,0,1,.56.455,1.118,1.118,0,0,1,.182.648A1.217,1.217,0,0,1,14.678-.3a2.138,2.138,0,0,1-1.323.385,2.394,2.394,0,0,1-1.011-.2,1.644,1.644,0,0,1-.688-.565,1.361,1.361,0,0,1-.248-.784h.813a.842.842,0,0,0,.327.648,1.27,1.27,0,0,0,.806.24,1.311,1.311,0,0,0,.74-.187A.574.574,0,0,0,14.375-1.261ZM17.35-5.906v1.151h.888v.628H17.35v2.949a.659.659,0,0,0,.119.428.5.5,0,0,0,.4.143,1.968,1.968,0,0,0,.387-.053V0a2.357,2.357,0,0,1-.624.088,1.012,1.012,0,0,1-.822-.33,1.416,1.416,0,0,1-.277-.936V-4.126h-.866v-.628h.866V-5.906ZM22.122,0a1.708,1.708,0,0,1-.114-.5,1.814,1.814,0,0,1-1.354.589A1.678,1.678,0,0,1,19.5-.31a1.287,1.287,0,0,1-.45-1.009,1.344,1.344,0,0,1,.565-1.154A2.662,2.662,0,0,1,21.2-2.883h.791v-.374a.913.913,0,0,0-.255-.679,1.024,1.024,0,0,0-.751-.253,1.185,1.185,0,0,0-.729.22.647.647,0,0,0-.294.532h-.817a1.122,1.122,0,0,1,.253-.688,1.725,1.725,0,0,1,.686-.525,2.306,2.306,0,0,1,.951-.193,1.88,1.88,0,0,1,1.288.411A1.482,1.482,0,0,1,22.808-3.3v2.188A2.676,2.676,0,0,0,22.975-.07V0ZM20.773-.62a1.429,1.429,0,0,0,.725-.2,1.2,1.2,0,0,0,.5-.514v-.976h-.637q-1.494,0-1.494.875a.74.74,0,0,0,.255.6A.98.98,0,0,0,20.773-.62Zm3.111-1.8a2.785,2.785,0,0,1,.519-1.76,1.64,1.64,0,0,1,1.358-.666,1.649,1.649,0,0,1,1.323.571V-6.75H27.9V0h-.747l-.04-.51a1.656,1.656,0,0,1-1.358.6,1.624,1.624,0,0,1-1.347-.677,2.817,2.817,0,0,1-.521-1.767Zm.813.092a2.109,2.109,0,0,0,.334,1.266,1.08,1.08,0,0,0,.923.457A1.186,1.186,0,0,0,27.083-1.3V-3.48a1.2,1.2,0,0,0-1.121-.672,1.085,1.085,0,0,0-.932.461A2.322,2.322,0,0,0,24.7-2.325Zm4.245-.1a2.808,2.808,0,0,1,.275-1.257,2.049,2.049,0,0,1,.765-.861,2.081,2.081,0,0,1,1.118-.3,2.005,2.005,0,0,1,1.571.672,2.587,2.587,0,0,1,.6,1.789v.057a2.833,2.833,0,0,1-.266,1.246,2.019,2.019,0,0,1-.76.859,2.105,2.105,0,0,1-1.136.308,2,2,0,0,1-1.567-.672,2.574,2.574,0,0,1-.6-1.78Zm.817.1a2.034,2.034,0,0,0,.367,1.27,1.174,1.174,0,0,0,.982.479,1.167,1.167,0,0,0,.984-.486,2.224,2.224,0,0,0,.365-1.36,2.031,2.031,0,0,0-.371-1.268,1.181,1.181,0,0,0-.987-.486,1.167,1.167,0,0,0-.971.479A2.208,2.208,0,0,0,29.76-2.325Z" transform="translate(1144.25 18801.184) rotate(-105.958)"/>
    <path id="Trazado_996550" data-name="Trazado 996550" d="M5.594-2.131A2.264,2.264,0,0,1,4.832-.505,2.678,2.678,0,0,1,3.019.088,2.408,2.408,0,0,1,1.083-.74,3.4,3.4,0,0,1,.378-3.015v-.391A3.836,3.836,0,0,1,.7-5.032a2.437,2.437,0,0,1,.929-1.079,2.6,2.6,0,0,1,1.4-.376,2.609,2.609,0,0,1,1.784.593A2.433,2.433,0,0,1,5.6-4.228H4.285a1.336,1.336,0,0,0-.345-.9,1.277,1.277,0,0,0-.9-.279,1.12,1.12,0,0,0-.987.472,2.648,2.648,0,0,0-.336,1.466v.483a2.834,2.834,0,0,0,.314,1.516,1.1,1.1,0,0,0,.991.479,1.3,1.3,0,0,0,.912-.279,1.26,1.26,0,0,0,.345-.864ZM8.565.088a2.334,2.334,0,0,1-1.7-.642,2.281,2.281,0,0,1-.657-1.709v-.123a2.872,2.872,0,0,1,.277-1.281,2.032,2.032,0,0,1,.784-.87,2.2,2.2,0,0,1,1.158-.305,1.973,1.973,0,0,1,1.536.615,2.5,2.5,0,0,1,.56,1.745v.519H7.493a1.18,1.18,0,0,0,.371.747,1.123,1.123,0,0,0,.784.281A1.371,1.371,0,0,0,9.8-1.468l.624.7a1.907,1.907,0,0,1-.773.631A2.538,2.538,0,0,1,8.565.088Zm-.145-3.9a.8.8,0,0,0-.613.255,1.317,1.317,0,0,0-.3.729H9.272v-.1a.939.939,0,0,0-.229-.653A.821.821,0,0,0,8.42-3.814Zm3.99-.94.04.549a1.66,1.66,0,0,1,1.367-.637,1.38,1.38,0,0,1,1.125.444,2.071,2.071,0,0,1,.378,1.327V0h-1.27V-3.041a.824.824,0,0,0-.176-.587.787.787,0,0,0-.584-.182.874.874,0,0,0-.8.457V0h-1.27V-4.755ZM17.8-5.924v1.169h.813v.932H17.8V-1.45a.567.567,0,0,0,.1.378.508.508,0,0,0,.387.114,2.025,2.025,0,0,0,.374-.031v.962a2.615,2.615,0,0,1-.769.114,1.213,1.213,0,0,1-1.362-1.349V-3.823h-.694v-.932h.694V-5.924Zm4.192,2.36a3.45,3.45,0,0,0-.457-.035.93.93,0,0,0-.945.488V0h-1.27V-4.755h1.2l.035.567a1.177,1.177,0,0,1,1.059-.655,1.331,1.331,0,0,1,.4.057Zm.1,1.143a2.82,2.82,0,0,1,.272-1.261,2,2,0,0,1,.784-.857,2.289,2.289,0,0,1,1.189-.3,2.165,2.165,0,0,1,1.571.589,2.363,2.363,0,0,1,.679,1.6l.009.325A2.485,2.485,0,0,1,25.99-.573a2.123,2.123,0,0,1-1.639.661A2.134,2.134,0,0,1,22.71-.571,2.529,2.529,0,0,1,22.1-2.364Zm1.27.092a1.773,1.773,0,0,0,.255,1.035.841.841,0,0,0,.729.358.843.843,0,0,0,.721-.354,1.94,1.94,0,0,0,.259-1.132,1.755,1.755,0,0,0-.259-1.028.843.843,0,0,0-.729-.365.829.829,0,0,0-.721.363A1.972,1.972,0,0,0,23.367-2.329Zm8.3-.083a2.865,2.865,0,0,1,.5-1.771,1.618,1.618,0,0,1,1.365-.659,1.456,1.456,0,0,1,1.147.519V-6.75h1.274V0H34.805l-.062-.505a1.5,1.5,0,0,1-1.222.593,1.614,1.614,0,0,1-1.347-.661A2.958,2.958,0,0,1,31.668-2.413Zm1.27.092A1.872,1.872,0,0,0,33.171-1.3a.759.759,0,0,0,.677.356.85.85,0,0,0,.831-.5V-3.313a.838.838,0,0,0-.822-.5Q32.938-3.81,32.938-2.32ZM39.125.088a2.334,2.334,0,0,1-1.7-.642,2.281,2.281,0,0,1-.657-1.709v-.123a2.872,2.872,0,0,1,.277-1.281,2.032,2.032,0,0,1,.784-.87,2.2,2.2,0,0,1,1.158-.305,1.973,1.973,0,0,1,1.536.615,2.5,2.5,0,0,1,.56,1.745v.519H38.053a1.18,1.18,0,0,0,.371.747,1.123,1.123,0,0,0,.784.281,1.371,1.371,0,0,0,1.147-.532l.624.7a1.907,1.907,0,0,1-.773.631A2.538,2.538,0,0,1,39.125.088Zm-.145-3.9a.8.8,0,0,0-.613.255,1.317,1.317,0,0,0-.3.729h1.767v-.1a.939.939,0,0,0-.229-.653A.821.821,0,0,0,38.98-3.814ZM43.142,0H41.868V-6.75h1.274Zm3.8,0a1.41,1.41,0,0,1-.127-.426,1.537,1.537,0,0,1-1.2.514,1.688,1.688,0,0,1-1.158-.4A1.3,1.3,0,0,1,44-1.336a1.344,1.344,0,0,1,.56-1.16A2.765,2.765,0,0,1,46.179-2.9h.584v-.272a.784.784,0,0,0-.169-.527.666.666,0,0,0-.534-.2.757.757,0,0,0-.5.154.523.523,0,0,0-.182.422H44.1a1.276,1.276,0,0,1,.255-.765,1.685,1.685,0,0,1,.721-.552,2.627,2.627,0,0,1,1.046-.2,2.075,2.075,0,0,1,1.4.442,1.545,1.545,0,0,1,.516,1.241V-1.1a2.273,2.273,0,0,0,.189,1.024V0Zm-1.05-.883a1.094,1.094,0,0,0,.519-.125.823.823,0,0,0,.352-.336v-.817h-.475q-.954,0-1.015.659l0,.075a.508.508,0,0,0,.167.391A.649.649,0,0,0,45.893-.883Zm4.289-3.872.04.549a1.66,1.66,0,0,1,1.367-.637,1.38,1.38,0,0,1,1.125.444,2.071,2.071,0,0,1,.378,1.327V0h-1.27V-3.041a.824.824,0,0,0-.176-.587.787.787,0,0,0-.584-.182.874.874,0,0,0-.8.457V0h-1.27V-4.755Zm5.392-1.169v1.169h.813v.932h-.813V-1.45a.567.567,0,0,0,.1.378.508.508,0,0,0,.387.114,2.025,2.025,0,0,0,.374-.031v.962a2.615,2.615,0,0,1-.769.114A1.213,1.213,0,0,1,54.3-1.261V-3.823H53.61v-.932H54.3V-5.924ZM59.283.088a2.334,2.334,0,0,1-1.7-.642,2.281,2.281,0,0,1-.657-1.709v-.123A2.872,2.872,0,0,1,57.2-3.667a2.032,2.032,0,0,1,.784-.87,2.2,2.2,0,0,1,1.158-.305,1.973,1.973,0,0,1,1.536.615,2.5,2.5,0,0,1,.56,1.745v.519H58.211a1.18,1.18,0,0,0,.371.747,1.123,1.123,0,0,0,.784.281,1.371,1.371,0,0,0,1.147-.532l.624.7a1.907,1.907,0,0,1-.773.631A2.538,2.538,0,0,1,59.283.088Zm-.145-3.9a.8.8,0,0,0-.613.255,1.317,1.317,0,0,0-.3.729h1.767v-.1a.939.939,0,0,0-.229-.653A.821.821,0,0,0,59.138-3.814Zm5.493.25a3.45,3.45,0,0,0-.457-.035.93.93,0,0,0-.945.488V0h-1.27V-4.755h1.2l.035.567a1.177,1.177,0,0,1,1.059-.655,1.331,1.331,0,0,1,.4.057Zm.1,1.143a2.82,2.82,0,0,1,.272-1.261,2,2,0,0,1,.784-.857,2.289,2.289,0,0,1,1.189-.3,2.165,2.165,0,0,1,1.571.589,2.363,2.363,0,0,1,.679,1.6l.009.325a2.485,2.485,0,0,1-.611,1.756,2.123,2.123,0,0,1-1.639.661,2.134,2.134,0,0,1-1.641-.659,2.529,2.529,0,0,1-.613-1.793ZM66-2.329a1.773,1.773,0,0,0,.255,1.035.841.841,0,0,0,.729.358.843.843,0,0,0,.721-.354,1.94,1.94,0,0,0,.259-1.132,1.755,1.755,0,0,0-.259-1.028.843.843,0,0,0-.729-.365.829.829,0,0,0-.721.363A1.972,1.972,0,0,0,66-2.329Z" transform="translate(967.729 18936.678) rotate(-91.318)"/>
    <path id="Trazado_996551" data-name="Trazado 996551" d="M5.594-2.131A2.264,2.264,0,0,1,4.832-.505,2.678,2.678,0,0,1,3.019.088,2.408,2.408,0,0,1,1.083-.74,3.4,3.4,0,0,1,.378-3.015v-.391A3.836,3.836,0,0,1,.7-5.032a2.437,2.437,0,0,1,.929-1.079,2.6,2.6,0,0,1,1.4-.376,2.609,2.609,0,0,1,1.784.593A2.433,2.433,0,0,1,5.6-4.228H4.285a1.336,1.336,0,0,0-.345-.9,1.277,1.277,0,0,0-.9-.279,1.12,1.12,0,0,0-.987.472,2.648,2.648,0,0,0-.336,1.466v.483a2.834,2.834,0,0,0,.314,1.516,1.1,1.1,0,0,0,.991.479,1.3,1.3,0,0,0,.912-.279,1.26,1.26,0,0,0,.345-.864ZM8.565.088a2.334,2.334,0,0,1-1.7-.642,2.281,2.281,0,0,1-.657-1.709v-.123a2.872,2.872,0,0,1,.277-1.281,2.032,2.032,0,0,1,.784-.87,2.2,2.2,0,0,1,1.158-.305,1.973,1.973,0,0,1,1.536.615,2.5,2.5,0,0,1,.56,1.745v.519H7.493a1.18,1.18,0,0,0,.371.747,1.123,1.123,0,0,0,.784.281A1.371,1.371,0,0,0,9.8-1.468l.624.7a1.907,1.907,0,0,1-.773.631A2.538,2.538,0,0,1,8.565.088Zm-.145-3.9a.8.8,0,0,0-.613.255,1.317,1.317,0,0,0-.3.729H9.272v-.1a.939.939,0,0,0-.229-.653A.821.821,0,0,0,8.42-3.814Zm3.99-.94.04.549a1.66,1.66,0,0,1,1.367-.637,1.38,1.38,0,0,1,1.125.444,2.071,2.071,0,0,1,.378,1.327V0h-1.27V-3.041a.824.824,0,0,0-.176-.587.787.787,0,0,0-.584-.182.874.874,0,0,0-.8.457V0h-1.27V-4.755ZM17.8-5.924v1.169h.813v.932H17.8V-1.45a.567.567,0,0,0,.1.378.508.508,0,0,0,.387.114,2.025,2.025,0,0,0,.374-.031v.962a2.615,2.615,0,0,1-.769.114,1.213,1.213,0,0,1-1.362-1.349V-3.823h-.694v-.932h.694V-5.924Zm4.192,2.36a3.45,3.45,0,0,0-.457-.035.93.93,0,0,0-.945.488V0h-1.27V-4.755h1.2l.035.567a1.177,1.177,0,0,1,1.059-.655,1.331,1.331,0,0,1,.4.057Zm.1,1.143a2.82,2.82,0,0,1,.272-1.261,2,2,0,0,1,.784-.857,2.289,2.289,0,0,1,1.189-.3,2.165,2.165,0,0,1,1.571.589,2.363,2.363,0,0,1,.679,1.6l.009.325A2.485,2.485,0,0,1,25.99-.573a2.123,2.123,0,0,1-1.639.661A2.134,2.134,0,0,1,22.71-.571,2.529,2.529,0,0,1,22.1-2.364Zm1.27.092a1.773,1.773,0,0,0,.255,1.035.841.841,0,0,0,.729.358.843.843,0,0,0,.721-.354,1.94,1.94,0,0,0,.259-1.132,1.755,1.755,0,0,0-.259-1.028.843.843,0,0,0-.729-.365.829.829,0,0,0-.721.363A1.972,1.972,0,0,0,23.367-2.329Zm10.02-3.595v1.169H34.2v.932h-.813V-1.45a.567.567,0,0,0,.1.378.508.508,0,0,0,.387.114,2.025,2.025,0,0,0,.374-.031v.962a2.615,2.615,0,0,1-.769.114,1.213,1.213,0,0,1-1.362-1.349V-3.823h-.694v-.932h.694V-5.924Zm4.192,2.36a3.45,3.45,0,0,0-.457-.035.93.93,0,0,0-.945.488V0h-1.27V-4.755h1.2l.035.567A1.177,1.177,0,0,1,37.2-4.843a1.331,1.331,0,0,1,.4.057ZM40.687,0a1.41,1.41,0,0,1-.127-.426,1.537,1.537,0,0,1-1.2.514,1.688,1.688,0,0,1-1.158-.4,1.3,1.3,0,0,1-.459-1.02A1.344,1.344,0,0,1,38.3-2.5,2.765,2.765,0,0,1,39.922-2.9h.584v-.272a.784.784,0,0,0-.169-.527.666.666,0,0,0-.534-.2.757.757,0,0,0-.5.154.523.523,0,0,0-.182.422h-1.27a1.276,1.276,0,0,1,.255-.765,1.685,1.685,0,0,1,.721-.552,2.627,2.627,0,0,1,1.046-.2,2.075,2.075,0,0,1,1.4.442,1.545,1.545,0,0,1,.516,1.241V-1.1A2.273,2.273,0,0,0,41.97-.075V0Zm-1.05-.883a1.094,1.094,0,0,0,.519-.125.823.823,0,0,0,.352-.336v-.817h-.475q-.954,0-1.015.659l0,.075a.508.508,0,0,0,.167.391A.649.649,0,0,0,39.637-.883Zm5.7-.431a.409.409,0,0,0-.231-.367,2.621,2.621,0,0,0-.74-.24q-1.7-.356-1.7-1.441a1.307,1.307,0,0,1,.525-1.057,2.118,2.118,0,0,1,1.373-.424,2.28,2.28,0,0,1,1.448.426,1.343,1.343,0,0,1,.543,1.107h-1.27a.615.615,0,0,0-.176-.45.744.744,0,0,0-.549-.178.76.76,0,0,0-.5.145.458.458,0,0,0-.176.369.391.391,0,0,0,.2.341,2.057,2.057,0,0,0,.675.224,5.51,5.51,0,0,1,.8.213,1.314,1.314,0,0,1,1.006,1.279,1.24,1.24,0,0,1-.558,1.052,2.408,2.408,0,0,1-1.441.4,2.515,2.515,0,0,1-1.061-.213,1.781,1.781,0,0,1-.727-.584,1.358,1.358,0,0,1-.264-.8h1.2a.663.663,0,0,0,.25.519.994.994,0,0,0,.624.18.92.92,0,0,0,.552-.138A.431.431,0,0,0,45.332-1.314Zm4.241,1.4a2.334,2.334,0,0,1-1.7-.642,2.281,2.281,0,0,1-.657-1.709v-.123a2.872,2.872,0,0,1,.277-1.281,2.032,2.032,0,0,1,.784-.87,2.2,2.2,0,0,1,1.158-.305,1.973,1.973,0,0,1,1.536.615,2.5,2.5,0,0,1,.56,1.745v.519H48.5a1.18,1.18,0,0,0,.371.747,1.123,1.123,0,0,0,.784.281A1.371,1.371,0,0,0,50.8-1.468l.624.7a1.907,1.907,0,0,1-.773.631A2.538,2.538,0,0,1,49.573.088Zm-.145-3.9a.8.8,0,0,0-.613.255,1.317,1.317,0,0,0-.3.729H50.28v-.1a.939.939,0,0,0-.229-.653A.821.821,0,0,0,49.428-3.814Zm5.493.25a3.45,3.45,0,0,0-.457-.035.93.93,0,0,0-.945.488V0h-1.27V-4.755h1.2l.035.567a1.177,1.177,0,0,1,1.059-.655,1.331,1.331,0,0,1,.4.057Zm.1,1.143A2.82,2.82,0,0,1,55.3-3.683a2,2,0,0,1,.784-.857,2.289,2.289,0,0,1,1.189-.3,2.165,2.165,0,0,1,1.571.589,2.363,2.363,0,0,1,.679,1.6l.009.325a2.485,2.485,0,0,1-.611,1.756,2.123,2.123,0,0,1-1.639.661,2.134,2.134,0,0,1-1.641-.659,2.529,2.529,0,0,1-.613-1.793Zm1.27.092a1.773,1.773,0,0,0,.255,1.035.841.841,0,0,0,.729.358A.843.843,0,0,0,58-1.29a1.94,1.94,0,0,0,.259-1.132A1.755,1.755,0,0,0,58-3.45a.843.843,0,0,0-.729-.365.829.829,0,0,0-.721.363A1.972,1.972,0,0,0,56.293-2.329Z" transform="translate(1262.689 18933.807) rotate(-91.318)"/>
    <path id="Trazado_996552" data-name="Trazado 996552" d="M.762,0V-8.531H3.387A3.986,3.986,0,0,1,5.4-8.024,3.534,3.534,0,0,1,6.785-6.583a4.446,4.446,0,0,1,.5,2.124v.393a4.458,4.458,0,0,1-.489,2.115A3.5,3.5,0,0,1,5.414-.516,4.016,4.016,0,0,1,3.4,0ZM2.52-7.107v5.7h.85a1.909,1.909,0,0,0,1.576-.674A3.045,3.045,0,0,0,5.5-4.014v-.451a3.093,3.093,0,0,0-.539-1.972,1.9,1.9,0,0,0-1.576-.671ZM13.693-3.7H10.318v2.285h3.961V0H8.561V-8.531h5.707v1.424H10.318v2.033h3.375Zm3.375,2.285H20.8V0h-5.49V-8.531h1.758Zm9.776-.346H23.762L23.176,0H21.307l3.176-8.531h1.629L29.305,0H27.436ZM24.237-3.182H26.37L25.3-6.375ZM37.04,0H35.282L31.86-5.613V0H30.1V-8.531H31.86l3.428,5.625V-8.531H37.04Zm7.789-7.107H42.215V0H40.458V-7.107H37.879V-8.531h6.949ZM50.963-3.7H47.588v2.285h3.961V0H45.831V-8.531h5.707v1.424H47.588v2.033h3.375Zm4.775.574h-1.4V0H52.581V-8.531h3.17a3.583,3.583,0,0,1,2.332.674,2.326,2.326,0,0,1,.82,1.9A2.625,2.625,0,0,1,58.525-4.5a2.578,2.578,0,0,1-1.146.929L59.225-.082V0H57.338Zm-1.4-1.424h1.418a1.452,1.452,0,0,0,1.025-.337,1.2,1.2,0,0,0,.363-.929,1.289,1.289,0,0,0-.343-.949,1.424,1.424,0,0,0-1.052-.346H54.338ZM65.055-1.758H61.973L61.387,0H59.518l3.176-8.531h1.629L67.516,0H65.647ZM62.448-3.182h2.133L63.508-6.375Z" transform="translate(992.68 18750.084)"/>
    <path id="Trazado_996553" data-name="Trazado 996553" d="M6.886-.988a2.8,2.8,0,0,1-1.23.808A5.151,5.151,0,0,1,3.894.107,3.49,3.49,0,0,1,2.114-.336,2.956,2.956,0,0,1,.932-1.622,4.527,4.527,0,0,1,.5-3.6v-.532A4.808,4.808,0,0,1,.9-6.163,2.92,2.92,0,0,1,2.038-7.474a3.28,3.28,0,0,1,1.743-.454,3.266,3.266,0,0,1,2.175.663,2.835,2.835,0,0,1,.929,1.931H5.317a1.559,1.559,0,0,0-.475-.983A1.518,1.518,0,0,0,3.83-6.628a1.429,1.429,0,0,0-1.251.618,3.248,3.248,0,0,0-.435,1.837v.5A3.092,3.092,0,0,0,2.61-1.815a1.6,1.6,0,0,0,1.37.628,1.787,1.787,0,0,0,1.294-.387V-2.922H3.808V-4.109H6.886ZM11.795,0H10.243V-5.983L8.39-5.409V-6.671l3.239-1.16h.167Z" transform="translate(930.217 18952.76)"/>
    <path id="Trazado_996554" data-name="Trazado 996554" d="M6.886-.988a2.8,2.8,0,0,1-1.23.808A5.151,5.151,0,0,1,3.894.107,3.49,3.49,0,0,1,2.114-.336,2.956,2.956,0,0,1,.932-1.622,4.527,4.527,0,0,1,.5-3.6v-.532A4.808,4.808,0,0,1,.9-6.163,2.92,2.92,0,0,1,2.038-7.474a3.28,3.28,0,0,1,1.743-.454,3.266,3.266,0,0,1,2.175.663,2.835,2.835,0,0,1,.929,1.931H5.317a1.559,1.559,0,0,0-.475-.983A1.518,1.518,0,0,0,3.83-6.628a1.429,1.429,0,0,0-1.251.618,3.248,3.248,0,0,0-.435,1.837v.5A3.092,3.092,0,0,0,2.61-1.815a1.6,1.6,0,0,0,1.37.628,1.787,1.787,0,0,0,1.294-.387V-2.922H3.808V-4.109H6.886ZM11.795,0H10.243V-5.983L8.39-5.409V-6.671l3.239-1.16h.167Z" transform="translate(1276.565 18952.76)"/>
    <path id="Trazado_996555" data-name="Trazado 996555" d="M7.512-1.078A3.051,3.051,0,0,1,6.17-.2,5.619,5.619,0,0,1,4.248.117,3.807,3.807,0,0,1,2.306-.366a3.224,3.224,0,0,1-1.289-1.4A4.939,4.939,0,0,1,.551-3.932v-.58A5.245,5.245,0,0,1,.981-6.724a3.186,3.186,0,0,1,1.242-1.43,3.578,3.578,0,0,1,1.9-.5A3.563,3.563,0,0,1,6.5-7.925,3.092,3.092,0,0,1,7.512-5.818H5.8a1.7,1.7,0,0,0-.519-1.072,1.656,1.656,0,0,0-1.1-.34,1.559,1.559,0,0,0-1.365.674,3.543,3.543,0,0,0-.475,2v.545a3.373,3.373,0,0,0,.51,2.027,1.746,1.746,0,0,0,1.494.686,1.95,1.95,0,0,0,1.412-.422V-3.187h-1.6V-4.482H7.512Z" transform="translate(1276.565 18984.344)"/>
    <path id="Trazado_996556" data-name="Trazado 996556" d="M6.886-.988a2.8,2.8,0,0,1-1.23.808A5.151,5.151,0,0,1,3.894.107,3.49,3.49,0,0,1,2.114-.336,2.956,2.956,0,0,1,.932-1.622,4.527,4.527,0,0,1,.5-3.6v-.532A4.808,4.808,0,0,1,.9-6.163,2.92,2.92,0,0,1,2.038-7.474a3.28,3.28,0,0,1,1.743-.454,3.266,3.266,0,0,1,2.175.663,2.835,2.835,0,0,1,.929,1.931H5.317a1.559,1.559,0,0,0-.475-.983A1.518,1.518,0,0,0,3.83-6.628a1.429,1.429,0,0,0-1.251.618,3.248,3.248,0,0,0-.435,1.837v.5A3.092,3.092,0,0,0,2.61-1.815a1.6,1.6,0,0,0,1.37.628,1.787,1.787,0,0,0,1.294-.387V-2.922H3.808V-4.109H6.886ZM9.6-4.6h.827a1.166,1.166,0,0,0,.875-.3,1.082,1.082,0,0,0,.285-.784.957.957,0,0,0-.282-.736,1.093,1.093,0,0,0-.776-.263,1.145,1.145,0,0,0-.747.244.781.781,0,0,0-.3.636H7.933a1.909,1.909,0,0,1,.33-1.1,2.2,2.2,0,0,1,.924-.76A3.083,3.083,0,0,1,10.5-7.928a2.924,2.924,0,0,1,1.944.594,2.025,2.025,0,0,1,.7,1.635,1.646,1.646,0,0,1-.328.988,2.129,2.129,0,0,1-.859.693,1.943,1.943,0,0,1,.986.709,1.923,1.923,0,0,1,.325,1.117,2.059,2.059,0,0,1-.76,1.67A3.056,3.056,0,0,1,10.5.107,2.9,2.9,0,0,1,8.58-.51a2.017,2.017,0,0,1-.744-1.633H9.389a.9.9,0,0,0,.33.72,1.217,1.217,0,0,0,.814.279,1.223,1.223,0,0,0,.867-.293,1.01,1.01,0,0,0,.314-.776q0-1.171-1.289-1.171H9.6Z" transform="translate(930.217 18979.785)"/>
    <path id="Trazado_996557" data-name="Trazado 996557" d="M6.886-.988a2.8,2.8,0,0,1-1.23.808A5.151,5.151,0,0,1,3.894.107,3.49,3.49,0,0,1,2.114-.336,2.956,2.956,0,0,1,.932-1.622,4.527,4.527,0,0,1,.5-3.6v-.532A4.808,4.808,0,0,1,.9-6.163,2.92,2.92,0,0,1,2.038-7.474a3.28,3.28,0,0,1,1.743-.454,3.266,3.266,0,0,1,2.175.663,2.835,2.835,0,0,1,.929,1.931H5.317a1.559,1.559,0,0,0-.475-.983A1.518,1.518,0,0,0,3.83-6.628a1.429,1.429,0,0,0-1.251.618,3.248,3.248,0,0,0-.435,1.837v.5A3.092,3.092,0,0,0,2.61-1.815a1.6,1.6,0,0,0,1.37.628,1.787,1.787,0,0,0,1.294-.387V-2.922H3.808V-4.109H6.886ZM9.6-4.6h.827a1.166,1.166,0,0,0,.875-.3,1.082,1.082,0,0,0,.285-.784.957.957,0,0,0-.282-.736,1.093,1.093,0,0,0-.776-.263,1.145,1.145,0,0,0-.747.244.781.781,0,0,0-.3.636H7.933a1.909,1.909,0,0,1,.33-1.1,2.2,2.2,0,0,1,.924-.76A3.083,3.083,0,0,1,10.5-7.928a2.924,2.924,0,0,1,1.944.594,2.025,2.025,0,0,1,.7,1.635,1.646,1.646,0,0,1-.328.988,2.129,2.129,0,0,1-.859.693,1.943,1.943,0,0,1,.986.709,1.923,1.923,0,0,1,.325,1.117,2.059,2.059,0,0,1-.76,1.67A3.056,3.056,0,0,1,10.5.107,2.9,2.9,0,0,1,8.58-.51a2.017,2.017,0,0,1-.744-1.633H9.389a.9.9,0,0,0,.33.72,1.217,1.217,0,0,0,.814.279,1.223,1.223,0,0,0,.867-.293,1.01,1.01,0,0,0,.314-.776q0-1.171-1.289-1.171H9.6Z" transform="translate(978.771 18942.303)"/>
    <path id="Trazado_996558" data-name="Trazado 996558" d="M6.886-.988a2.8,2.8,0,0,1-1.23.808A5.151,5.151,0,0,1,3.894.107,3.49,3.49,0,0,1,2.114-.336,2.956,2.956,0,0,1,.932-1.622,4.527,4.527,0,0,1,.5-3.6v-.532A4.808,4.808,0,0,1,.9-6.163,2.92,2.92,0,0,1,2.038-7.474a3.28,3.28,0,0,1,1.743-.454,3.266,3.266,0,0,1,2.175.663,2.835,2.835,0,0,1,.929,1.931H5.317a1.559,1.559,0,0,0-.475-.983A1.518,1.518,0,0,0,3.83-6.628a1.429,1.429,0,0,0-1.251.618,3.248,3.248,0,0,0-.435,1.837v.5A3.092,3.092,0,0,0,2.61-1.815a1.6,1.6,0,0,0,1.37.628,1.787,1.787,0,0,0,1.294-.387V-2.922H3.808V-4.109H6.886ZM9.6-4.6h.827a1.166,1.166,0,0,0,.875-.3,1.082,1.082,0,0,0,.285-.784.957.957,0,0,0-.282-.736,1.093,1.093,0,0,0-.776-.263,1.145,1.145,0,0,0-.747.244.781.781,0,0,0-.3.636H7.933a1.909,1.909,0,0,1,.33-1.1,2.2,2.2,0,0,1,.924-.76A3.083,3.083,0,0,1,10.5-7.928a2.924,2.924,0,0,1,1.944.594,2.025,2.025,0,0,1,.7,1.635,1.646,1.646,0,0,1-.328.988,2.129,2.129,0,0,1-.859.693,1.943,1.943,0,0,1,.986.709,1.923,1.923,0,0,1,.325,1.117,2.059,2.059,0,0,1-.76,1.67A3.056,3.056,0,0,1,10.5.107,2.9,2.9,0,0,1,8.58-.51a2.017,2.017,0,0,1-.744-1.633H9.389a.9.9,0,0,0,.33.72,1.217,1.217,0,0,0,.814.279,1.223,1.223,0,0,0,.867-.293,1.01,1.01,0,0,0,.314-.776q0-1.171-1.289-1.171H9.6Z" transform="translate(1235.281 18942.303)"/>
    <path id="Trazado_996559" data-name="Trazado 996559" d="M5.4-3.389H2.31v2.095H5.94V0H.7V-7.82H5.93v1.305H2.31v1.864H5.4Z" transform="translate(937.563 19035.381)"/>
    <path id="Trazado_996560" data-name="Trazado 996560" d="M5.4-3.389H2.31v2.095H5.94V0H.7V-7.82H5.93v1.305H2.31v1.864H5.4ZM8.3-4.6h.827a1.166,1.166,0,0,0,.875-.3,1.082,1.082,0,0,0,.285-.784A.957.957,0,0,0,10-6.413a1.093,1.093,0,0,0-.776-.263,1.145,1.145,0,0,0-.747.244.781.781,0,0,0-.3.636H6.628a1.909,1.909,0,0,1,.33-1.1,2.2,2.2,0,0,1,.924-.76A3.083,3.083,0,0,1,9.19-7.928a2.924,2.924,0,0,1,1.944.594,2.025,2.025,0,0,1,.7,1.635,1.646,1.646,0,0,1-.328.988,2.129,2.129,0,0,1-.859.693,1.943,1.943,0,0,1,.986.709,1.923,1.923,0,0,1,.325,1.117,2.059,2.059,0,0,1-.76,1.67A3.056,3.056,0,0,1,9.19.107,2.9,2.9,0,0,1,7.275-.51a2.017,2.017,0,0,1-.744-1.633H8.083a.9.9,0,0,0,.33.72,1.217,1.217,0,0,0,.814.279,1.223,1.223,0,0,0,.867-.293,1.01,1.01,0,0,0,.314-.776q0-1.171-1.289-1.171H8.3Z" transform="translate(929.592 19057.789)"/>
    <g id="Grupo_1177267" data-name="Grupo 1177267" transform="translate(905.686 18595)">
      <g id="Grupo_1177266" data-name="Grupo 1177266" transform="translate(0 0)" clip-path="url(#clip-path)">
        <text id="E1" transform="translate(49.111 698.692)" font-size="11" font-family="Roboto-Bold, Roboto" font-weight="700"><tspan x="0" y="0">E1</tspan></text>
        <text id="C" transform="translate(202.134 698.692)" font-size="11" font-family="Roboto-Bold, Roboto" font-weight="700"><tspan x="0" y="0">C</tspan></text>
      </g>
    </g>
    <path id="Trazado_996561" data-name="Trazado 996561" d="M5.4-3.389H2.31v2.095H5.94V0H.7V-7.82H5.93v1.305H2.31v1.864H5.4ZM8.3-4.6h.827a1.166,1.166,0,0,0,.875-.3,1.082,1.082,0,0,0,.285-.784A.957.957,0,0,0,10-6.413a1.093,1.093,0,0,0-.776-.263,1.145,1.145,0,0,0-.747.244.781.781,0,0,0-.3.636H6.628a1.909,1.909,0,0,1,.33-1.1,2.2,2.2,0,0,1,.924-.76A3.083,3.083,0,0,1,9.19-7.928a2.924,2.924,0,0,1,1.944.594,2.025,2.025,0,0,1,.7,1.635,1.646,1.646,0,0,1-.328.988,2.129,2.129,0,0,1-.859.693,1.943,1.943,0,0,1,.986.709,1.923,1.923,0,0,1,.325,1.117,2.059,2.059,0,0,1-.76,1.67A3.056,3.056,0,0,1,9.19.107,2.9,2.9,0,0,1,7.275-.51a2.017,2.017,0,0,1-.744-1.633H8.083a.9.9,0,0,0,.33.72,1.217,1.217,0,0,0,.814.279,1.223,1.223,0,0,0,.867-.293,1.01,1.01,0,0,0,.314-.776q0-1.171-1.289-1.171H8.3Z" transform="translate(934.047 19277.775)"/>
    <path id="Trazado_996562" data-name="Trazado 996562" d="M5.4-3.389H2.31v2.095H5.94V0H.7V-7.82H5.93v1.305H2.31v1.864H5.4ZM8.3-4.6h.827a1.166,1.166,0,0,0,.875-.3,1.082,1.082,0,0,0,.285-.784A.957.957,0,0,0,10-6.413a1.093,1.093,0,0,0-.776-.263,1.145,1.145,0,0,0-.747.244.781.781,0,0,0-.3.636H6.628a1.909,1.909,0,0,1,.33-1.1,2.2,2.2,0,0,1,.924-.76A3.083,3.083,0,0,1,9.19-7.928a2.924,2.924,0,0,1,1.944.594,2.025,2.025,0,0,1,.7,1.635,1.646,1.646,0,0,1-.328.988,2.129,2.129,0,0,1-.859.693,1.943,1.943,0,0,1,.986.709,1.923,1.923,0,0,1,.325,1.117,2.059,2.059,0,0,1-.76,1.67A3.056,3.056,0,0,1,9.19.107,2.9,2.9,0,0,1,7.275-.51a2.017,2.017,0,0,1-.744-1.633H8.083a.9.9,0,0,0,.33.72,1.217,1.217,0,0,0,.814.279,1.223,1.223,0,0,0,.867-.293,1.01,1.01,0,0,0,.314-.776q0-1.171-1.289-1.171H8.3Z" transform="translate(1277.335 19064.809)"/>
    <path id="Trazado_996563" data-name="Trazado 996563" d="M5.4-3.389H2.31v2.095H5.94V0H.7V-7.82H5.93v1.305H2.31v1.864H5.4Zm5.908.446H12.2v1.251h-.886V0H9.759V-1.692H6.553l-.07-.978L9.743-7.82h1.568Zm-3.282,0H9.759V-5.7l-.1.177Z" transform="translate(931.496 19081.746)"/>
    <path id="Trazado_996564" data-name="Trazado 996564" d="M5.4-3.389H2.31v2.095H5.94V0H.7V-7.82H5.93v1.305H2.31v1.864H5.4Zm5.908.446H12.2v1.251h-.886V0H9.759V-1.692H6.553l-.07-.978L9.743-7.82h1.568Zm-3.282,0H9.759V-5.7l-.1.177Z" transform="translate(1276.289 19081.746)"/>
    <path id="Trazado_996565" data-name="Trazado 996565" d="M5.4-3.389H2.31v2.095H5.94V0H.7V-7.82H5.93v1.305H2.31v1.864H5.4ZM6.95-3.846,7.4-7.82h4.383v1.294H8.674L8.481-4.845a2.461,2.461,0,0,1,1.176-.3,2.254,2.254,0,0,1,1.751.693,2.768,2.768,0,0,1,.634,1.939,2.835,2.835,0,0,1-.32,1.356,2.256,2.256,0,0,1-.916.929A2.859,2.859,0,0,1,9.4.107,3.036,3.036,0,0,1,8.083-.18a2.334,2.334,0,0,1-.959-.808,2.2,2.2,0,0,1-.373-1.187H8.288a1.147,1.147,0,0,0,.341.76,1.081,1.081,0,0,0,.765.271.954.954,0,0,0,.811-.379,1.754,1.754,0,0,0,.285-1.072,1.451,1.451,0,0,0-.328-1.021,1.2,1.2,0,0,0-.929-.354,1.344,1.344,0,0,0-.9.29l-.15.14Z" transform="translate(1220.478 19065.766)"/>
    <path id="Trazado_996566" data-name="Trazado 996566" d="M5.4-3.389H2.31v2.095H5.94V0H.7V-7.82H5.93v1.305H2.31v1.864H5.4ZM12.037-6.95,9.013,0H7.375L10.4-6.563H6.515V-7.82h5.521Z" transform="translate(1276.289 19096.693)"/>
    <path id="Trazado_996567" data-name="Trazado 996567" d="M5.4-3.389H2.31v2.095H5.94V0H.7V-7.82H5.93v1.305H2.31v1.864H5.4ZM12.037-6.95,9.013,0H7.375L10.4-6.563H6.515V-7.82h5.521Z" transform="translate(1276.289 19277.775)"/>
    <path id="Trazado_996568" data-name="Trazado 996568" d="M5.4-3.389H2.31v2.095H5.94V0H.7V-7.82H5.93v1.305H2.31v1.864H5.4ZM12.037-6.95,9.013,0H7.375L10.4-6.563H6.515V-7.82h5.521Z" transform="translate(1232.556 19100.418)"/>
    <path id="Trazado_996569" data-name="Trazado 996569" d="M5.4-3.389H2.31v2.095H5.94V0H.7V-7.82H5.93v1.305H2.31v1.864H5.4ZM6.95-3.846,7.4-7.82h4.383v1.294H8.674L8.481-4.845a2.461,2.461,0,0,1,1.176-.3,2.254,2.254,0,0,1,1.751.693,2.768,2.768,0,0,1,.634,1.939,2.835,2.835,0,0,1-.32,1.356,2.256,2.256,0,0,1-.916.929A2.859,2.859,0,0,1,9.4.107,3.036,3.036,0,0,1,8.083-.18a2.334,2.334,0,0,1-.959-.808,2.2,2.2,0,0,1-.373-1.187H8.288a1.147,1.147,0,0,0,.341.76,1.081,1.081,0,0,0,.765.271.954.954,0,0,0,.811-.379,1.754,1.754,0,0,0,.285-1.072,1.451,1.451,0,0,0-.328-1.021,1.2,1.2,0,0,0-.929-.354,1.344,1.344,0,0,0-.9.29l-.15.14Z" transform="translate(992.805 19064.809)"/>
    <path id="Trazado_996570" data-name="Trazado 996570" d="M5.895-3.486H2.52V0H.762V-8.531H6.316v1.424H2.52v2.2H5.895ZM11.268,0H9.574V-6.527L7.553-5.9V-7.277l3.533-1.266h.182Z" transform="translate(1052.315 19016.17)"/>
    <path id="Trazado_996571" data-name="Trazado 996571" d="M5.895-3.486H2.52V0H.762V-8.531H6.316v1.424H2.52v2.2H5.895ZM13,0H7.154V-1.16L9.914-4.1a6.808,6.808,0,0,0,.841-1.084,1.742,1.742,0,0,0,.272-.879,1.3,1.3,0,0,0-.287-.894,1.036,1.036,0,0,0-.82-.325,1.118,1.118,0,0,0-.905.4,1.567,1.567,0,0,0-.331,1.04h-1.7a2.8,2.8,0,0,1,.372-1.424A2.622,2.622,0,0,1,8.408-8.282a3.2,3.2,0,0,1,1.541-.366A3.027,3.027,0,0,1,12-8.016a2.239,2.239,0,0,1,.729,1.787A2.868,2.868,0,0,1,12.4-4.939,7.164,7.164,0,0,1,11.273-3.41L9.334-1.365H13Z" transform="translate(1164.768 19048.373)"/>
    <path id="Trazado_996572" data-name="Trazado 996572" d="M5.895-3.486H2.52V0H.762V-8.531H6.316v1.424H2.52v2.2H5.895ZM11.268,0H9.574V-6.527L7.553-5.9V-7.277l3.533-1.266h.182Z" transform="translate(1197.265 19020.557)"/>
    <path id="Trazado_996573" data-name="Trazado 996573" d="M.8-2.852l.289-2.836H4.008v.668h-2.3L1.535-3.469a1.835,1.835,0,0,1,.949-.246A1.569,1.569,0,0,1,3.719-3.2a2.013,2.013,0,0,1,.457,1.389A1.943,1.943,0,0,1,3.7-.428,1.73,1.73,0,0,1,2.375.078,1.8,1.8,0,0,1,1.145-.34,1.668,1.668,0,0,1,.6-1.5h.684a1.148,1.148,0,0,0,.348.736,1.081,1.081,0,0,0,.742.248.975.975,0,0,0,.791-.344A1.437,1.437,0,0,0,3.453-1.8a1.319,1.319,0,0,0-.311-.916,1.056,1.056,0,0,0-.826-.346,1.191,1.191,0,0,0-.742.207L1.383-2.7Z" transform="translate(1186.438 19008.387)"/>
    <path id="Trazado_996574" data-name="Trazado 996574" d="M4.2,0H.473V-.52L2.441-2.707a4.677,4.677,0,0,0,.6-.807,1.346,1.346,0,0,0,.166-.643,1.02,1.02,0,0,0-.27-.73.942.942,0,0,0-.719-.285,1.116,1.116,0,0,0-.838.307,1.171,1.171,0,0,0-.3.854H.363a1.677,1.677,0,0,1,.506-1.27,1.875,1.875,0,0,1,1.354-.484,1.8,1.8,0,0,1,1.254.416,1.419,1.419,0,0,1,.461,1.107,3.253,3.253,0,0,1-1.07,2L1.344-.59H4.2Z" transform="translate(964.316 19082.617)"/>
    <path id="Trazado_996575" data-name="Trazado 996575" d="M2.848,0H2.121V-4.816L.664-4.281v-.656l2.07-.777h.113Z" transform="translate(1175.842 19020.426)"/>
    <path id="Trazado_996576" data-name="Trazado 996576" d="M5.4-3.2H2.31V0H.7V-7.82H5.79v1.305H2.31V-4.5H5.4Z" transform="translate(1115.682 18907.83)"/>
    <path id="Trazado_996577" data-name="Trazado 996577" d="M5.895-3.486H2.52V0H.762V-8.531H6.316v1.424H2.52v2.2H5.895ZM11.268,0H9.574V-6.527L7.553-5.9V-7.277l3.533-1.266h.182Z" transform="translate(999.658 18997.496)"/>
    <path id="Trazado_996578" data-name="Trazado 996578" d="M7.184-7.107H4.57V0H2.813V-7.107H.234V-8.531H7.184Zm4.16,3.984h-1.4V0H8.186V-8.531h3.17a3.583,3.583,0,0,1,2.332.674,2.326,2.326,0,0,1,.82,1.9A2.625,2.625,0,0,1,14.13-4.5a2.578,2.578,0,0,1-1.146.929L14.83-.082V0H12.943Zm-1.4-1.424h1.418a1.452,1.452,0,0,0,1.025-.337,1.2,1.2,0,0,0,.363-.929,1.289,1.289,0,0,0-.343-.949,1.424,1.424,0,0,0-1.052-.346H9.943ZM20.66-1.758H17.578L16.992,0H15.123L18.3-8.531h1.629L23.121,0H21.252ZM18.053-3.182h2.133L19.113-6.375Zm10.289.943A.9.9,0,0,0,27.99-3a4.611,4.611,0,0,0-1.266-.562,8.972,8.972,0,0,1-1.447-.583,2.365,2.365,0,0,1-1.453-2.115,2.06,2.06,0,0,1,.39-1.233,2.542,2.542,0,0,1,1.119-.847,4.212,4.212,0,0,1,1.638-.3,3.834,3.834,0,0,1,1.629.331,2.594,2.594,0,0,1,1.11.935,2.445,2.445,0,0,1,.4,1.371H28.348a1.15,1.15,0,0,0-.369-.911,1.517,1.517,0,0,0-1.037-.325,1.621,1.621,0,0,0-1,.272.859.859,0,0,0-.357.718.823.823,0,0,0,.419.7,4.733,4.733,0,0,0,1.233.527A5.329,5.329,0,0,1,29.42-3.914a2.229,2.229,0,0,1,.686,1.664,2.053,2.053,0,0,1-.838,1.737,3.668,3.668,0,0,1-2.256.63,4.356,4.356,0,0,1-1.793-.36,2.837,2.837,0,0,1-1.233-.987,2.528,2.528,0,0,1-.425-1.453h1.764q0,1.412,1.688,1.412a1.642,1.642,0,0,0,.979-.255A.829.829,0,0,0,28.342-2.238ZM36.428-3.7H33.053v2.285h3.961V0H31.295V-8.531H37v1.424H33.053v2.033h3.375Zm4.775.574H39.8V0H38.045V-8.531h3.17a3.583,3.583,0,0,1,2.332.674,2.326,2.326,0,0,1,.82,1.9A2.625,2.625,0,0,1,43.989-4.5a2.578,2.578,0,0,1-1.146.929L44.689-.082V0H42.8ZM39.8-4.547h1.418a1.452,1.452,0,0,0,1.025-.337,1.2,1.2,0,0,0,.363-.929,1.289,1.289,0,0,0-.343-.949,1.424,1.424,0,0,0-1.052-.346H39.8ZM50.52-1.758H47.438L46.852,0H44.982l3.176-8.531h1.629L52.98,0H51.111ZM47.912-3.182h2.133L48.973-6.375Z" transform="translate(1173.646 18748.674)"/>
    <g id="Grupo_1177269" data-name="Grupo 1177269" transform="translate(905.686 18595)">
      <g id="Grupo_1177268" data-name="Grupo 1177268" transform="translate(0 0)" clip-path="url(#clip-path)">
        <path id="Trazado_996306" data-name="Trazado 996306" d="M789.876,526.437,787.6,509.121c-7.025-16.278-34.727-18.95-35.007-18.975l-.132-.023c-8.948-2.36-17.879-7.488-26.547-15.242a131.354,131.354,0,0,1-20.086-23.338,192.8,192.8,0,0,1-17.243-30.754c-11.2-26.55-29.909-32.224-30.1-32.278l-.7-.2,21.789-111.936L655.636,171.21l.734-.2c37.8-10.427,51.006-42.035,55.431-66.715a167.511,167.511,0,0,0,.539-51.841l-.14-.8,14.547-2.346.265.512c9.534,18.418,29.847,28.3,45.209,33.343a148.2,148.2,0,0,0,31.516,6.616l.727.053,1.714,101.06,9.366,318.432ZM752.8,488.564A72.083,72.083,0,0,1,768.068,492c10.718,3.692,17.994,9.431,21.04,16.6l.043.1.014.108,1.959,14.885,22.8-15.2-9.339-317.559-1.689-99.623a152.233,152.233,0,0,1-31.136-6.617A104.871,104.871,0,0,1,745.84,72.4c-8.918-6.01-15.635-13.187-19.974-21.338l-11.828,1.908c.683,4.481,3.711,27.141-.66,51.559-2.859,15.978-8.279,29.582-16.107,40.435-9.665,13.4-23.034,22.6-39.743,27.371L681.2,276.347l-.032.165-21.548,110.7a40.587,40.587,0,0,1,10.57,6.066c5.749,4.422,13.861,12.677,19.858,26.893a191.128,191.128,0,0,0,17.1,30.492c9.947,14.41,25.935,32.675,45.647,37.9" transform="translate(-446.586 -33.587)" fill="#0000b5"/>
        <path id="Trazado_996307" data-name="Trazado 996307" d="M164.258,503.309l-1.372-.751a179.688,179.688,0,0,0-22.955-10.364l-.547-.194.017-.581,10.86-370.511.634-.117c31.994-5.876,52.65-27.574,64.344-44.742a144.488,144.488,0,0,0,17.936-36.323l.224-.767,12.271,3.609-.1.684C238.9,89.2,244.326,123.17,261.7,144.229c15.475,18.762,35.216,19.9,35.414,19.913l.95.045-.209.927L274.294,269.209l23.794,112.218-1.125-.155c-46.354-6.415-81.424,1.785-104.23,24.368-18.783,18.6-25.58,43.737-27.974,61.549a148.3,148.3,0,0,0-.7,34.567ZM141.011,490.89a184.347,184.347,0,0,1,21.307,9.549,154.96,154.96,0,0,1,.861-33.462,128.782,128.782,0,0,1,8.27-31.764,92.024,92.024,0,0,1,20.163-30.705c22.992-22.768,58.126-31.166,104.446-24.968L272.662,269.2l.038-.17,23.393-103.372a47.35,47.35,0,0,1-11.322-2.837,58.189,58.189,0,0,1-24.278-17.54c-7.877-9.536-13.412-21.917-16.453-36.8-3.672-17.97-3.721-39.76-.148-64.772l-9.426-2.772a148.662,148.662,0,0,1-17.884,35.971,118.783,118.783,0,0,1-25.742,27.705,92.181,92.181,0,0,1-39.025,17.629Z" transform="translate(-94.941 -26.538)" fill="#0000b5"/>
        <rect id="Rectángulo_454806" data-name="Rectángulo 454806" width="2.71" height="0.956" transform="matrix(0.058, -0.998, 0.998, 0.058, 55.62, 95.01)" fill="aqua"/>
        <path id="Trazado_996308" data-name="Trazado 996308" d="M176.961,182.072l-.955-.055.343-5.941.955.055Zm.686-11.882-.955-.055.343-5.941.955.055Zm.687-11.882-.955-.055.343-5.941.955.055Zm.686-11.882-.955-.055.343-5.941.955.055Z" transform="translate(-119.886 -95.654)" fill="#ffa200"/>
        <path id="Trazado_996309" data-name="Trazado 996309" d="M185.572,115.09l-.955-.055.183-3.166.46.01c.919.019,1.824.02,2.693,0l.018.957c-.735.014-1.5.015-2.27,0Z" transform="translate(-125.752 -76.2)" fill="aqua"/>
        <path id="Trazado_996310" data-name="Trazado 996310" d="M210.751,56.075l-.1-.952c1.685-.171,3.336-.418,4.908-.734l.189.938c-1.6.322-3.284.574-5,.748m9.9-2.022-.295-.91a37.748,37.748,0,0,0,4.6-1.821l.411.864a38.656,38.656,0,0,1-4.713,1.868m9.127-4.374-.533-.795a31.98,31.98,0,0,0,3.873-3.054l.649.7a33.035,33.035,0,0,1-3.989,3.146M237.22,42.8l-.75-.594a33.522,33.522,0,0,0,2.77-4.09l.829.477A34.478,34.478,0,0,1,237.22,42.8m5.07-8.774-.886-.36a39.347,39.347,0,0,0,1.566-4.7l.925.245a40.351,40.351,0,0,1-1.6,4.816" transform="translate(-143.487 -19.733)" fill="#ffa200"/>
        <path id="Trazado_996311" data-name="Trazado 996311" d="M316,6.761l-.949-.125a25.1,25.1,0,0,0,.23-2.641l.008-.649,3.2,1.034-.295.91-1.981-.641c-.029.473-.089,1.194-.21,2.112" transform="translate(-214.595 -2.28)" fill="aqua"/>
        <path id="Trazado_996312" data-name="Trazado 996312" d="M413.278,36.106,408.4,34.529l.295-.91,4.873,1.577Zm-9.747-3.155-4.873-1.577.295-.91,4.873,1.577ZM393.785,29.8l-4.873-1.577.295-.91,4.873,1.577Zm-9.747-3.155-4.873-1.577.295-.91,4.873,1.578Zm-9.747-3.154-4.873-1.578.295-.91,4.873,1.577Zm-9.746-3.155-4.873-1.577.294-.91,4.874,1.577ZM354.8,17.178,349.925,15.6l.295-.91,4.873,1.577Zm-9.746-3.155-4.873-1.577.295-.91,4.873,1.577Z" transform="translate(-231.712 -7.858)" fill="#ffa200"/>
        <path id="Trazado_996313" data-name="Trazado 996313" d="M587.047,94.7l-.909-.3q.345-1.051.7-2.117l-2.119-.686.295-.91,3.039.983-.154.458q-.436,1.3-.854,2.57" transform="translate(-398.283 -61.772)" fill="aqua"/>
        <path id="Trazado_996314" data-name="Trazado 996314" d="M577.326,210.8a26.965,26.965,0,0,1-5.513-1.078l.282-.914a26,26,0,0,0,5.317,1.039Zm5.624-.081-.069-.488-.242.021-.047-.531.534.011a23.55,23.55,0,0,0,5.143-.436l.189.937a24.515,24.515,0,0,1-5.324.455c-.065.014-.128.023-.183.031m10.817-2.336-.439-.85a19.354,19.354,0,0,0,4.367-3.108l.655.7a20.294,20.294,0,0,1-4.583,3.261m-27.1-.916a23.732,23.732,0,0,1-4.475-3.394l.664-.688a22.784,22.784,0,0,0,4.295,3.257Zm35.288-6.645-.8-.532a32.707,32.707,0,0,0,2.611-4.765l.872.393a33.726,33.726,0,0,1-2.688,4.9m-43.345-1.063a31.328,31.328,0,0,1-2.651-4.924l.878-.379a30.328,30.328,0,0,0,2.569,4.772ZM606.6,190.7l-.914-.284c.515-1.656.979-3.44,1.379-5.3l.935.2c-.406,1.89-.877,3.7-1.4,5.385m-52.472-1.129a51.135,51.135,0,0,1-1.159-5.443l.945-.15a50.186,50.186,0,0,0,1.137,5.341Zm54.844-9.726-.946-.136c.25-1.742.462-3.58.628-5.461l.953.084c-.168,1.9-.382,3.753-.635,5.513m-56.628-1.237c-.127-1.77-.194-3.635-.2-5.544l.957,0c.005,1.887.072,3.73.2,5.478Zm57.625-9.809-.956-.042c.078-1.772.125-3.624.138-5.5l.957.007c-.013,1.892-.06,3.756-.139,5.54m-56.726-1.229-.955-.05c.094-1.781.238-3.641.425-5.526l.951.095c-.186,1.871-.328,3.715-.422,5.482m55.858-9.826c-.044-1.787-.115-3.64-.212-5.51l.955-.05c.1,1.879.169,3.742.214,5.537Zm-54.781-1.119-.947-.132c.248-1.779.536-3.619.857-5.47l.942.163c-.319,1.841-.605,3.671-.852,5.439m54.214-9.892c-.136-1.787-.3-3.635-.481-5.492l.952-.093c.183,1.863.346,3.718.483,5.513Zm-52.341-.959-.937-.191c.357-1.76.752-3.579,1.172-5.407l.932.214c-.418,1.82-.811,3.632-1.167,5.383m51.264-10.015c-.215-1.808-.451-3.648-.7-5.47l.948-.13c.252,1.827.489,3.674.705,5.488Zm-48.8-.724-.928-.235c.441-1.74.917-3.539,1.414-5.347l.922.253c-.5,1.8-.97,3.595-1.409,5.328m47.294-10.2c-.286-1.826-.59-3.656-.9-5.442l.942-.165c.314,1.791.619,3.628.906,5.459Zm-44.375-.429-.918-.27c.507-1.721,1.046-3.5,1.6-5.291l.913.285c-.557,1.784-1.1,3.559-1.6,5.275" transform="translate(-376.094 -80.951)" fill="#ffa200"/>
        <path id="Trazado_996315" data-name="Trazado 996315" d="M713.477,94.908c-.333-1.681-.543-2.634-.546-2.643l-.1-.44,3.04-.866.262.92-2.176.62c.093.439.251,1.2.455,2.223Z" transform="translate(-485.546 -61.957)" fill="aqua"/>
        <path id="Trazado_996316" data-name="Trazado 996316" d="M739.939,43.256l-.262-.92,5.52-1.573.262.92Zm11.039-3.146-.262-.92,5.52-1.573.262.92Zm11.039-3.146-.262-.92,5.52-1.574.262.92Zm11.039-3.146-.262-.92,5.52-1.573.262.92Zm11.039-3.146-.262-.92,5.52-1.573.262.92Zm11.039-3.146-.262-.92,5.519-1.574.262.92Zm11.039-3.147-.262-.92,5.519-1.573.262.92Z" transform="translate(-503.83 -14.908)" fill="#ffa200"/>
        <path id="Trazado_996317" data-name="Trazado 996317" d="M986.2,17.251a19.23,19.23,0,0,1-1.636-1.821l-2.288.652-.262-.92,2.939-.838.194.287a15.637,15.637,0,0,0,1.728,1.963Z" transform="translate(-668.901 -9.757)" fill="aqua"/>
        <path id="Trazado_996318" data-name="Trazado 996318" d="M1035.147,44.121c-1.881-.418-3.738-.884-5.517-1.385l.26-.921c1.762.5,3.6.958,5.464,1.371Zm-10.944-3.1c-1.834-.647-3.616-1.352-5.3-2.093l.386-.875c1.659.731,3.419,1.427,5.23,2.066Zm-10.41-4.622a50.4,50.4,0,0,1-4.838-3.039l.556-.779a49.4,49.4,0,0,0,4.746,2.981Z" transform="translate(-687.249 -22.192)" fill="#ffa200"/>
        <path id="Trazado_996319" data-name="Trazado 996319" d="M1110.969,72.866l-.057-2.308c-.768-.116-1.537-.24-2.29-.369l.161-.943c.876.15,1.774.293,2.667.426l.4.059.078,3.112Z" transform="translate(-755.137 -47.167)" fill="aqua"/>
        <path id="Trazado_996320" data-name="Trazado 996320" d="M1116.86,115.638l-.143-5.718.956-.024.143,5.718Zm-.286-11.437-.143-5.719.957-.024.143,5.719Z" transform="translate(-760.456 -67.066)" fill="#ffa200"/>
        <rect id="Rectángulo_454807" data-name="Rectángulo 454807" width="0.957" height="2.71" transform="translate(356.547 54.291) rotate(-1.43)" fill="aqua"/>
        <path id="Trazado_996321" data-name="Trazado 996321" d="M475.89,271.15l-5.419-.138.024-.957,5.419.138Zm-10.837-.276-5.419-.138.024-.957,5.419.138Zm-10.837-.276-5.419-.138.025-.956,5.419.138Zm-10.838-.276-5.419-.138.024-.956,5.419.137Zm-10.837-.276-5.419-.138.024-.957,5.419.138Zm-10.837-.276-5.419-.138.024-.956,5.419.138Zm-10.837-.276-5.419-.138.025-.956,5.419.138Zm-10.837-.276-5.419-.138.024-.957,5.419.138Zm-10.837-.276-5.419-.138.024-.956,5.419.138Zm-10.837-.276-5.419-.138.024-.956,5.419.138Zm-10.838-.276-5.419-.138.025-.957,5.419.138Zm-10.837-.277-5.419-.137.024-.956,5.419.138Zm-10.837-.276-5.419-.138.024-.956,5.419.138ZM335,267.561l-5.419-.138.024-.956,5.419.138Zm-10.837-.276-5.419-.138.024-.956,5.419.138Zm-10.837-.276-5.419-.139.024-.956,5.419.138Zm-10.837-.277-5.419-.138.024-.956,5.419.137Zm-10.837-.276-5.419-.138.024-.957,5.419.138Zm-10.837-.276-5.419-.138.024-.956,5.419.138Zm-10.837-.276-5.419-.139.024-.956,5.419.138Zm-10.837-.276-5.419-.138.024-.957,5.419.138Zm-10.837-.276-5.419-.138.025-.956,5.419.138Zm-10.838-.275-5.419-.139.024-.956,5.419.138Zm-10.837-.276-5.419-.138.024-.957,5.419.138Zm-10.837-.276-5.419-.138.024-.957,5.419.139Zm-10.837-.276-5.419-.138.025-.956,5.419.138Zm-10.838-.276-5.419-.137.024-.957,5.419.138Zm-10.837-.276-5.419-.138.024-.956,5.419.138Z" transform="translate(-121.15 -178.871)" fill="#ffa200"/>
        <rect id="Rectángulo_454808" data-name="Rectángulo 454808" width="309.533" height="0.957" transform="translate(51.771 242.188)"/>
        <path id="Trazado_996322" data-name="Trazado 996322" d="M59.089,1510.6a.494.494,0,0,1-.141-.362c-.006-.223-.04-1.459-.121-3.583l.956-.036c.081,2.129.115,3.369.121,3.593v.033l-.477.015Zm-.493-9.384c-.075-1.617-.165-3.433-.273-5.431l.955-.051c.107,2,.2,3.818.273,5.438Zm-.581-10.856q-.154-2.572-.341-5.421l.955-.063q.187,2.849.341,5.426ZM57.3,1479.52q-.188-2.62-.4-5.414l.953-.073q.216,2.795.4,5.419Zm-.835-10.824q-.219-2.643-.462-5.407l.953-.084q.244,2.766.463,5.412Zm-.953-10.811q-.249-2.655-.521-5.4l.952-.095q.273,2.747.522,5.406Zm-1.073-10.8q-.279-2.662-.582-5.393l.951-.105q.3,2.733.583,5.4Zm-1.195-10.782q-.311-2.667-.645-5.386l.95-.116q.334,2.72.646,5.391Zm-1.322-10.767q-.344-2.668-.71-5.376l.948-.128q.367,2.71.711,5.383Zm-1.456-10.748q-.379-2.669-.78-5.367l.946-.141q.4,2.7.781,5.373Zm-1.6-10.728q-.415-2.668-.854-5.355l.944-.154q.439,2.69.855,5.362Zm-1.747-10.7q-.455-2.665-.933-5.341l.942-.168q.479,2.679.935,5.348Zm-1.909-10.674c-.335-1.789-.678-3.58-1.019-5.325l.938-.184c.342,1.747.686,3.541,1.021,5.332Zm-2.085-10.64c-.369-1.8-.745-3.587-1.117-5.32l.936-.2c.373,1.735.749,3.528,1.119,5.328Zm-2.283-10.62c-.394-1.755-.8-3.531-1.216-5.279l.931-.219c.414,1.752.824,3.531,1.219,5.289Zm-2.487-10.537c-.44-1.775-.888-3.542-1.332-5.254l.926-.24c.445,1.714.894,3.485,1.335,5.264Zm-2.726-10.49c-.479-1.755-.971-3.511-1.46-5.218l.919-.264c.491,1.711.984,3.471,1.464,5.231Zm-2.991-10.416c-.525-1.737-1.065-3.478-1.606-5.175l.912-.29c.542,1.7,1.083,3.447,1.61,5.188Zm-3.291-10.322c-.584-1.736-1.18-3.458-1.772-5.119l.9-.321c.593,1.667,1.191,3.394,1.777,5.135Zm-3.635-10.2c-.645-1.708-1.305-3.406-1.963-5.047l.888-.356c.66,1.647,1.323,3.35,1.97,5.065Zm-4.034-10.049c-.719-1.683-1.455-3.348-2.187-4.95l.87-.4c.735,1.609,1.474,3.282,2.2,4.972Zm-4.5-9.841c-.8-1.64-1.629-3.262-2.452-4.821l.846-.447c.828,1.567,1.658,3.2,2.466,4.847Zm-5.056-9.56c-.734-1.281-1.48-2.542-2.218-3.746l-.351-.573.657-.144q.513-.112,1.016-.235l.226.929-.385.092c.629,1.038,1.261,2.112,1.885,3.2Zm4.555-5.363-.333-.9a43.769,43.769,0,0,0,4.889-2.165l.44.849a44.636,44.636,0,0,1-5,2.212m9.684-5.027-.542-.788a44.719,44.719,0,0,0,4.219-3.3l.633.717a45.807,45.807,0,0,1-4.309,3.366m8.2-7.209-.709-.642a52.724,52.724,0,0,0,3.393-4.161l.771.567a53.794,53.794,0,0,1-3.455,4.236m6.483-8.785-.819-.494c.9-1.5,1.774-3.088,2.586-4.722l.857.425c-.823,1.657-1.706,3.269-2.624,4.791m4.87-9.767-.885-.362c.667-1.628,1.3-3.33,1.876-5.058l.907.3c-.585,1.748-1.224,3.469-1.9,5.117m3.473-10.341-.923-.249c.463-1.719.886-3.488,1.256-5.255l.936.2c-.373,1.785-.8,3.571-1.268,5.308m2.235-10.683-.946-.142c.494-3.292.611-5.353.612-5.373l.955.053c0,.085-.121,2.121-.621,5.462" transform="translate(-6.51 -829.173)" fill="#ffa200"/>
        <path id="Trazado_996323" data-name="Trazado 996323" d="M1147.441,1510.206l-.957-.006q.017-2.693.043-5.348l.957.01q-.026,2.653-.043,5.344m.109-10.762-.957-.014q.039-2.731.089-5.421l.957.018q-.05,2.688-.089,5.417m.2-10.833-.957-.022q.064-2.732.137-5.42l.956.026q-.073,2.686-.137,5.416m.3-10.831-.956-.031q.088-2.731.187-5.418l.956.036q-.1,2.684-.187,5.414m.4-10.827-.956-.04q.114-2.732.24-5.416l.956.044q-.126,2.682-.24,5.411m.508-10.822-.955-.05q.142-2.732.3-5.413l.955.055q-.154,2.678-.3,5.408m.622-10.815-.955-.061q.173-2.732.357-5.41l.954.065q-.184,2.676-.356,5.405m.744-10.807-.954-.072q.2-2.732.421-5.406l.953.077q-.216,2.671-.42,5.4m.874-10.8-.953-.084q.239-2.731.489-5.4l.952.089q-.25,2.665-.488,5.394m1.013-10.784-.952-.1q.275-2.73.563-5.393l.951.1q-.286,2.659-.562,5.386m1.162-10.769-.95-.11q.315-2.728.642-5.384l.949.117q-.327,2.652-.641,5.377m1.323-10.748-.948-.125c.237-1.807.482-3.615.727-5.373l.947.132c-.245,1.756-.489,3.561-.726,5.366m1.5-10.725-.946-.141c.27-1.816.546-3.619.821-5.36l.945.149c-.274,1.737-.55,3.538-.82,5.351m1.689-10.695-.943-.158c.3-1.791.611-3.589.923-5.344l.942.168c-.312,1.752-.622,3.547-.922,5.334m1.9-10.658-.94-.178c.336-1.779.685-3.57,1.036-5.323l.938.188c-.351,1.75-.7,3.538-1.034,5.313m2.13-10.613-.935-.2c.375-1.763.767-3.546,1.163-5.3l.933.211c-.4,1.748-.786,3.526-1.161,5.286m2.39-10.556-.93-.223c.426-1.773.866-3.544,1.306-5.265l.926.237c-.439,1.716-.877,3.483-1.3,5.251m2.684-10.481-.923-.251c.482-1.768.976-3.525,1.47-5.222l.919.267c-.492,1.692-.985,3.444-1.466,5.206m3.022-10.385-.914-.284c.543-1.748,1.1-3.485,1.662-5.164l.907.3c-.557,1.673-1.114,3.4-1.655,5.147m3.42-10.256-.9-.322c.621-1.734,1.258-3.445,1.893-5.086l.892.345c-.632,1.635-1.266,3.338-1.885,5.064m3.9-10.073-.882-.371c.717-1.707,1.452-3.379,2.185-4.971l.869.4c-.728,1.582-1.459,3.244-2.172,4.941m4.524-9.794-.851-.435c.865-1.692,1.739-3.3,2.6-4.778l.827.48c-.85,1.464-1.715,3.056-2.573,4.733m5.442-9.273-.784-.547c.407-.582.744-1.036,1-1.374-.615-.025-1.228-.065-1.829-.122l.09-.953c.894.085,1.812.133,2.728.144l1.052.012-.7.785a24.648,24.648,0,0,0-1.559,2.056m-7-3.021a31.019,31.019,0,0,1-5.138-1.907l.411-.864a30.038,30.038,0,0,0,4.979,1.849Zm-9.871-4.672a37.608,37.608,0,0,1-4.242-3.47l.657-.7a36.549,36.549,0,0,0,4.133,3.382Zm-7.976-7.477a53.621,53.621,0,0,1-3.256-4.4l.8-.531a52.881,52.881,0,0,0,3.2,4.319Zm-6.086-9.073c-.849-1.543-1.675-3.184-2.455-4.878l.869-.4c.771,1.674,1.587,3.295,2.425,4.818Zm-4.584-9.9c-.643-1.654-1.262-3.382-1.839-5.136l.909-.3c.572,1.739,1.185,3.451,1.822,5.089Zm-3.418-10.357c-.48-1.73-.931-3.509-1.339-5.287l.932-.214c.406,1.764.853,3.529,1.329,5.246Zm-2.447-10.632c-.61-3.317-.844-5.408-.846-5.428l.951-.105c0,.02.233,2.08.836,5.36Z" transform="translate(-779.966 -829.117)" fill="#ffa200"/>
        <path id="Trazado_996324" data-name="Trazado 996324" d="M588.741,1412l-.933-.212c0-.018.427-1.884,1.13-5.312l.937.192c-.706,3.439-1.13,5.313-1.134,5.332m39.983-9.6c-.5-1.709-.991-3.468-1.47-5.228l.923-.251c.477,1.754.97,3.508,1.465,5.211Zm-37.784-1.06-.939-.183c.335-1.717.677-3.51,1.017-5.329l.94.176c-.34,1.821-.683,3.617-1.018,5.336m34.93-9.419c-.441-1.726-.88-3.5-1.306-5.272l.93-.223c.425,1.768.863,3.538,1.3,5.259Zm-32.935-1.258-.942-.169q.455-2.537.939-5.341l.943.163q-.484,2.806-.94,5.347m30.4-9.3c-.392-1.731-.784-3.516-1.165-5.3l.935-.2c.381,1.784.772,3.565,1.163,5.292Zm-28.55-1.4-.943-.156q.428-2.586.871-5.352l.945.151q-.442,2.767-.872,5.357m26.282-9.225c-.35-1.739-.7-3.532-1.044-5.328l.94-.179c.342,1.793.692,3.582,1.042,5.318Zm-24.57-1.494-.945-.145q.4-2.613.807-5.36l.947.139q-.407,2.748-.809,5.366m22.537-9.173c-.315-1.746-.631-3.551-.94-5.365l.943-.161c.309,1.81.625,3.613.939,5.356ZM598.08,1358.5l-.947-.135q.374-2.633.747-5.369l.948.129q-.373,2.74-.747,5.375m19.121-9.166c-.283-1.757-.567-3.562-.842-5.365l.945-.144c.276,1.8.558,3.6.841,5.357Zm-17.656-1.587-.948-.124q.345-2.646.686-5.377l.949.118q-.34,2.734-.687,5.383m16.016-9.142q-.389-2.685-.756-5.362l.948-.13q.366,2.673.754,5.355Zm-14.672-1.626-.95-.114q.318-2.657.627-5.384l.951.108q-.31,2.73-.628,5.39m13.2-9.118q-.351-2.7-.68-5.386l.95-.116q.329,2.68.679,5.379Zm-11.973-1.665-.951-.1q.288-2.665.567-5.39l.951.1q-.279,2.727-.568,5.4m10.65-9.111q-.315-2.711-.609-5.394l.951-.1q.294,2.679.608,5.388Zm-9.545-1.683-.952-.092q.258-2.673.506-5.4l.953.087q-.248,2.726-.507,5.4m8.361-9.109q-.282-2.72-.543-5.4l.952-.093q.261,2.677.542,5.4Zm-7.378-1.7-.953-.081q.228-2.679.445-5.4l.953.076q-.217,2.725-.445,5.407m6.324-9.108q-.251-2.731-.481-5.407L611,1290q.23,2.673.481,5.4Zm-5.465-1.708-.954-.071q.2-2.684.382-5.406l.954.065q-.185,2.725-.383,5.412m4.532-9.11q-.221-2.743-.422-5.412l.954-.072q.2,2.667.422,5.408Zm-3.8-1.716-.955-.059q.166-2.688.318-5.41l.955.053q-.152,2.724-.318,5.416m2.982-9.112q-.193-2.758-.366-5.417l.955-.062q.173,2.656.366,5.413Zm-2.378-1.722-.955-.047q.134-2.692.253-5.413l.956.042q-.119,2.724-.253,5.419m1.673-9.115q-.166-2.781-.311-5.422l.955-.052q.145,2.637.311,5.417Zm-1.2-1.725-.956-.035q.1-2.7.185-5.416l.956.03q-.085,2.723-.185,5.422m.6-9.12q-.112-2.251-.209-4.37-.029,1.325-.061,2.646l-.957-.024q.066-2.7.115-5.417l.957.017q-.015.86-.033,1.719l.886-.04q.116,2.6.256,5.421Zm-.485-10.856q-.034-.878-.066-1.722l-.48-.006q.031-2.7.043-5.417l.957,0q0,.844-.01,1.687l.314-.01q.085,2.525.2,5.427Zm-.364-10.868q-.024-.86-.045-1.694H606.5q-.006-2.7-.031-5.417l.957-.009q.008.832.014,1.662h.022c.032,1.686.076,3.514.128,5.433Z" transform="translate(-400.385 -833.263)" fill="#ffa200"/>
        <rect id="Rectángulo_454809" data-name="Rectángulo 454809" width="0.957" height="438.42" transform="translate(108.761 242.666)"/>
        <rect id="Rectángulo_454810" data-name="Rectángulo 454810" width="0.957" height="438.43" transform="translate(305.174 242.669) rotate(-0.389)"/>
        <rect id="Rectángulo_454811" data-name="Rectángulo 454811" width="0.957" height="301.955" transform="matrix(0.006, -1, 1, 0.006, 55.141, 128.048)"/>
        <rect id="Rectángulo_454812" data-name="Rectángulo 454812" width="258.908" height="0.957" transform="translate(206.043 388.167) rotate(-89.886)"/>
        <rect id="Rectángulo_454813" data-name="Rectángulo 454813" width="0.957" height="141.793" transform="matrix(0.004, -1, 1, 0.004, 49.958, 304.927)"/>
        <rect id="Rectángulo_454814" data-name="Rectángulo 454814" width="139.42" height="0.957" transform="translate(221.884 304.511)"/>
        <rect id="Rectángulo_454815" data-name="Rectángulo 454815" width="317.1" height="0.957" transform="translate(47.595 357.482)"/>
        <rect id="Rectángulo_454816" data-name="Rectángulo 454816" width="0.957" height="118.616" transform="matrix(1, -0.007, 0.007, 1, 340.46, 356.712)"/>
        <rect id="Rectángulo_454817" data-name="Rectángulo 454817" width="322.89" height="0.957" transform="translate(45.257 474.843)"/>
        <rect id="Rectángulo_454818" data-name="Rectángulo 454818" width="0.957" height="338.627" transform="translate(45.254 434.986) rotate(-89.711)"/>
        <rect id="Rectángulo_454819" data-name="Rectángulo 454819" width="0.957" height="318.003" transform="translate(47.591 385.608) rotate(-89.453)"/>
        <path id="Trazado_996325" data-name="Trazado 996325" d="M150.009,1674.322c-8.832-52.152-9.566-214.624-9.572-216.259l.957,0c.006,1.635.739,164.028,9.559,216.1Z" transform="translate(-95.659 -993.156)"/>
        <rect id="Rectángulo_454820" data-name="Rectángulo 454820" width="205.768" height="0.957" transform="translate(366.476 681.083) rotate(-89.656)"/>
        <rect id="Rectángulo_454821" data-name="Rectángulo 454821" width="0.957" height="292.919" transform="translate(206.059 388.169) rotate(-0.095)"/>
        <rect id="Rectángulo_454822" data-name="Rectángulo 454822" width="312.174" height="0.957" transform="translate(54.822 680.608)"/>
        <rect id="Rectángulo_454823" data-name="Rectángulo 454823" width="77.926" height="0.957" transform="matrix(0.005, -1, 1, 0.005, 68.384, 434.63)"/>
        <rect id="Rectángulo_454824" data-name="Rectángulo 454824" width="180.257" height="0.957" transform="matrix(0.739, -0.673, 0.673, 0.739, 68.526, 474.951)"/>
        <rect id="Rectángulo_454825" data-name="Rectángulo 454825" width="0.956" height="88.536" transform="matrix(0.623, -0.782, 0.782, 0.623, 68.979, 357.082)"/>
        <rect id="Rectángulo_454826" data-name="Rectángulo 454826" width="0.956" height="130.544" transform="translate(242.421 387.255) rotate(-49.358)"/>
        <rect id="Rectángulo_454827" data-name="Rectángulo 454827" width="40.406" height="0.956" transform="translate(368.132 447.146) rotate(-1.721)"/>
        <rect id="Rectángulo_454828" data-name="Rectángulo 454828" width="41.453" height="0.957" transform="matrix(1, -0.01, 0.01, 1, 3.801, 446.36)"/>
        <rect id="Rectángulo_454829" data-name="Rectángulo 454829" width="27.465" height="0.957" transform="translate(17.792 474.843)"/>
        <rect id="Rectángulo_454830" data-name="Rectángulo 454830" width="25.757" height="0.957" transform="translate(368.147 474.843)"/>
        <path id="Trazado_996326" data-name="Trazado 996326" d="M315.671,3.808A3.806,3.806,0,1,1,311.865,0a3.806,3.806,0,0,1,3.806,3.806" transform="translate(-209.834 -0.002)"/>
        <path id="Trazado_996327" data-name="Trazado 996327" d="M584.878,87.046a3.806,3.806,0,1,1-3.806-3.806,3.806,3.806,0,0,1,3.806,3.806" transform="translate(-393.204 -56.699)"/>
        <path id="Trazado_996328" data-name="Trazado 996328" d="M989.577,3.808A3.806,3.806,0,1,1,985.771,0a3.806,3.806,0,0,1,3.806,3.806" transform="translate(-668.864 -0.002)"/>
        <path id="Trazado_996329" data-name="Trazado 996329" d="M1115.612,169.934a3.806,3.806,0,1,1-3.806-3.806,3.806,3.806,0,0,1,3.806,3.806" transform="translate(-754.713 -113.159)"/>
        <path id="Trazado_996330" data-name="Trazado 996330" d="M1115.612,397.267a3.806,3.806,0,1,1-3.806-3.806,3.806,3.806,0,0,1,3.806,3.806" transform="translate(-754.713 -268.006)"/>
        <path id="Trazado_996331" data-name="Trazado 996331" d="M1131.031,749.387a3.806,3.806,0,1,1-3.806-3.806,3.806,3.806,0,0,1,3.806,3.806" transform="translate(-765.216 -507.852)"/>
        <path id="Trazado_996332" data-name="Trazado 996332" d="M1276.945,1392.6a3.806,3.806,0,1,1-3.806-3.806,3.806,3.806,0,0,1,3.806,3.806" transform="translate(-864.605 -945.976)"/>
        <path id="Trazado_996333" data-name="Trazado 996333" d="M1078.408,1529.136a3.806,3.806,0,1,1-3.806-3.806,3.806,3.806,0,0,1,3.806,3.806" transform="translate(-729.372 -1038.977)"/>
        <path id="Trazado_996334" data-name="Trazado 996334" d="M1067.612,1112.564a3.806,3.806,0,1,1-3.806-3.806,3.806,3.806,0,0,1,3.806,3.806" transform="translate(-722.018 -755.23)"/>
        <path id="Trazado_996335" data-name="Trazado 996335" d="M167.612,397.267a3.806,3.806,0,1,1-3.806-3.806,3.806,3.806,0,0,1,3.806,3.806" transform="translate(-108.984 -268.006)"/>
        <path id="Trazado_996336" data-name="Trazado 996336" d="M1115.612,277.57a3.806,3.806,0,1,1-3.806-3.806,3.806,3.806,0,0,1,3.806,3.806" transform="translate(-754.713 -186.475)"/>
        <path id="Trazado_996337" data-name="Trazado 996337" d="M1115.612,63.871a3.806,3.806,0,1,1-3.806-3.806,3.806,3.806,0,0,1,3.806,3.806" transform="translate(-754.713 -40.914)"/>
        <path id="Trazado_996338" data-name="Trazado 996338" d="M430.509,33.934a3.806,3.806,0,1,1-3.806-3.806,3.806,3.806,0,0,1,3.806,3.806" transform="translate(-288.056 -20.522)"/>
        <path id="Trazado_996339" data-name="Trazado 996339" d="M467.509,45.871a3.806,3.806,0,1,1-3.806-3.806,3.806,3.806,0,0,1,3.806,3.806" transform="translate(-313.258 -28.653)"/>
        <path id="Trazado_996340" data-name="Trazado 996340" d="M713.951,87.046a3.806,3.806,0,1,1-3.806-3.806,3.806,3.806,0,0,1,3.806,3.806" transform="translate(-481.122 -56.699)"/>
        <path id="Trazado_996341" data-name="Trazado 996341" d="M834.1,51.934a3.806,3.806,0,1,1-3.806-3.806,3.806,3.806,0,0,1,3.806,3.806" transform="translate(-562.963 -32.783)"/>
        <path id="Trazado_996342" data-name="Trazado 996342" d="M875.853,40a3.806,3.806,0,1,1-3.806-3.806A3.806,3.806,0,0,1,875.853,40" transform="translate(-591.401 -24.652)"/>
        <path id="Trazado_996343" data-name="Trazado 996343" d="M641.946,394.971a3.806,3.806,0,1,1-3.806-3.806,3.806,3.806,0,0,1,3.806,3.806" transform="translate(-432.076 -266.442)"/>
        <path id="Trazado_996344" data-name="Trazado 996344" d="M641.946,749.945a3.806,3.806,0,1,1-3.806-3.806,3.806,3.806,0,0,1,3.806,3.806" transform="translate(-432.076 -508.232)"/>
        <path id="Trazado_996345" data-name="Trazado 996345" d="M641.946,1204.5a3.806,3.806,0,1,1-3.806-3.806,3.806,3.806,0,0,1,3.806,3.806" transform="translate(-432.076 -817.853)"/>
        <path id="Trazado_996346" data-name="Trazado 996346" d="M338.279,754.29a3.806,3.806,0,1,1-3.806-3.806,3.806,3.806,0,0,1,3.806,3.806" transform="translate(-225.233 -511.192)"/>
        <path id="Trazado_996347" data-name="Trazado 996347" d="M212.946,1108.6a3.806,3.806,0,1,1-3.806-3.806,3.806,3.806,0,0,1,3.806,3.806" transform="translate(-139.863 -752.53)"/>
        <path id="Trazado_996348" data-name="Trazado 996348" d="M143.738,1108.6a3.806,3.806,0,1,1-3.806-3.806,3.806,3.806,0,0,1,3.806,3.806" transform="translate(-92.722 -752.53)"/>
        <path id="Trazado_996349" data-name="Trazado 996349" d="M7.612,1391.934a3.806,3.806,0,1,1-3.806-3.806,3.806,3.806,0,0,1,3.806,3.806" transform="translate(0 -945.522)"/>
        <path id="Trazado_996350" data-name="Trazado 996350" d="M137.008,1449.934a3.806,3.806,0,1,1-3.806-3.806,3.806,3.806,0,0,1,3.806,3.806" transform="translate(-88.138 -985.029)"/>
        <path id="Trazado_996351" data-name="Trazado 996351" d="M209.967,1484.13a3.806,3.806,0,1,1-3.806-3.806,3.806,3.806,0,0,1,3.806,3.806" transform="translate(-137.834 -1008.322)"/>
        <path id="Trazado_996352" data-name="Trazado 996352" d="M161.637,2127.934a3.806,3.806,0,1,1-3.806-3.806,3.806,3.806,0,0,1,3.806,3.806" transform="translate(-104.914 -1446.848)"/>
        <path id="Trazado_996353" data-name="Trazado 996353" d="M1139.453,2127.934a3.806,3.806,0,1,1-3.806-3.806,3.806,3.806,0,0,1,3.806,3.806" transform="translate(-770.952 -1446.848)"/>
        <path id="Trazado_996354" data-name="Trazado 996354" d="M641.715,2127.934a3.806,3.806,0,1,1-3.806-3.806,3.806,3.806,0,0,1,3.806,3.806" transform="translate(-431.919 -1446.848)"/>
        <path id="Trazado_996355" data-name="Trazado 996355" d="M428.188,1285.384a3.806,3.806,0,1,1-3.806-3.806,3.806,3.806,0,0,1,3.806,3.806" transform="translate(-286.475 -872.946)"/>
        <path id="Trazado_996356" data-name="Trazado 996356" d="M552.888,265.633a3.806,3.806,0,1,1-3.806-3.806,3.806,3.806,0,0,1,3.806,3.806" transform="translate(-371.414 -178.344)"/>
        <path id="Trazado_996357" data-name="Trazado 996357" d="M725.888,265.633a3.806,3.806,0,1,1-3.806-3.806,3.806,3.806,0,0,1,3.806,3.806" transform="translate(-489.253 -178.344)"/>
        <path id="Trazado_996358" data-name="Trazado 996358" d="M954.279,754.29a3.806,3.806,0,1,1-3.806-3.806,3.806,3.806,0,0,1,3.806,3.806" transform="translate(-644.821 -511.192)"/>
        <path id="Trazado_996359" data-name="Trazado 996359" d="M185.511,104.808A3.806,3.806,0,1,1,181.705,101a3.806,3.806,0,0,1,3.806,3.806" transform="translate(-121.176 -68.798)"/>
        <path id="Trazado_996360" data-name="Trazado 996360" d="M173.574,255.97a3.806,3.806,0,1,1-3.806-3.806,3.806,3.806,0,0,1,3.806,3.806" transform="translate(-113.045 -171.762)"/>
        <path id="Trazado_996361" data-name="Trazado 996361" d="M155.675,752.934a3.806,3.806,0,1,1-3.806-3.806,3.806,3.806,0,0,1,3.806,3.806" transform="translate(-100.853 -510.268)"/>
        <path id="Trazado_996362" data-name="Trazado 996362" d="M144.946,1197.113a3.806,3.806,0,1,1-3.806-3.806,3.806,3.806,0,0,1,3.806,3.806" transform="translate(-93.545 -812.82)"/>
        <rect id="Rectángulo_454831" data-name="Rectángulo 454831" width="4.431" height="0.957" transform="translate(285.823 429.721) rotate(-49.381)"/>
        <path id="Trazado_996363" data-name="Trazado 996363" d="M889.3,1344.6a20.237,20.237,0,0,0,1.311-6.417l1.666,2.948,3.166,1.2a20.215,20.215,0,0,0-6.144,2.269" transform="translate(-605.744 -911.504)"/>
      </g>
    </g>
  </g>
</svg>
