<svg xmlns="http://www.w3.org/2000/svg" xmlns:xlink="http://www.w3.org/1999/xlink" width="448" height="680.969" viewBox="0 0 448 680.969">
  <defs>
    <clipPath id="clip-path">
      <rect id="Rectángulo_454833" data-name="Rectángulo 454833" width="448" height="680.968" fill="none"/>
    </clipPath>
    <clipPath id="clip-path-2">
      <rect id="Rectángulo_454855" data-name="Rectángulo 454855" width="448" height="680.968" fill="#ffa200"/>
    </clipPath>
  </defs>
  <g id="Grupo_1177314" data-name="Grupo 1177314" transform="translate(-263.711 -20585)">
    <g id="Grupo_1177273" data-name="Grupo 1177273" transform="translate(263.711 20585)">
      <g id="Grupo_1177272" data-name="Grupo 1177272" clip-path="url(#clip-path)">
        <path id="Trazado_996364" data-name="Trazado 996364" d="M698.648,750.929q-.3-.65-.6-1.283l.951-.386q.308.641.609,1.3Zm-3.2-6.216c-.936-1.63-1.938-3.226-2.978-4.743l.88-.51c1.054,1.538,2.069,3.155,3.017,4.807Zm-6.354-9.252c-1.2-1.471-2.477-2.891-3.784-4.222l.771-.641c1.328,1.352,2.621,2.794,3.843,4.288Zm-7.977-8.1a55.783,55.783,0,0,0-4.6-3.465l.615-.77a56.694,56.694,0,0,1,4.679,3.529Zm-9.578-6.431a35.624,35.624,0,0,0-5.355-2.3l.343-.9a36.7,36.7,0,0,1,5.522,2.366Zm-4.114-7.757-1.02-.183,1.147-5.415,1.02.183Zm2.293-10.83-1.021-.182,1.146-5.415,1.02.182Zm2.292-10.83-1.021-.182,1.146-5.415,1.02.183Zm2.293-10.83-1.02-.182,1.146-5.415,1.02.182Zm2.292-10.83-1.02-.182,1.146-5.415,1.021.183Zm2.292-10.83-1.02-.182,1.146-5.415,1.02.183Zm2.293-10.83-1.02-.183,1.146-5.415,1.02.183Zm2.293-10.83-1.021-.183,1.146-5.415,1.02.183Zm2.292-10.83-1.021-.183,1.147-5.415,1.02.183Zm2.293-10.831-1.02-.182,1.146-5.415,1.021.183Zm.416-10.82-1.213-5.4,1.018-.193,1.213,5.4Zm-2.425-10.806-1.213-5.4,1.018-.193,1.212,5.4Zm-2.425-10.806-1.212-5.4,1.018-.193,1.212,5.4ZM681.2,572.464l-1.212-5.4,1.018-.193,1.212,5.4Zm-2.425-10.806-1.213-5.4,1.018-.193,1.212,5.4Zm-2.425-10.806-1.212-5.4,1.018-.193,1.212,5.4Zm-2.425-10.806-1.213-5.4,1.018-.193,1.213,5.4Z" transform="translate(-435.404 -364.189)" fill="#ffa200"/>
        <path id="Trazado_996365" data-name="Trazado 996365" d="M584.061,660.362l-1.244-5.4,1.017-.2,1.244,5.4Zm-2.488-10.794-1.245-5.4,1.017-.2,1.244,5.4Zm-2.489-10.793-1.244-5.4,1.017-.2,1.244,5.4Zm-2.488-10.794-1.244-5.4,1.017-.2,1.244,5.4Zm-2.489-10.794-1.245-5.4,1.017-.2,1.245,5.4Zm-2.489-10.793-1.244-5.4,1.017-.2,1.244,5.4ZM569.129,595.6l-1.244-5.4,1.017-.2,1.244,5.4Zm-2.489-10.794-1.245-5.4,1.017-.2,1.245,5.4Zm-2.489-10.794-1.244-5.4,1.017-.2,1.244,5.4Zm-2.489-10.794-1.244-5.4,1.017-.2,1.244,5.4Zm-2.489-10.794-.772-3.349.553-2.246,1.013.211-.5,2.042.725,3.144Zm2.118-10.764-1.014-.211,1.324-5.381,1.014.211ZM563.94,530.9l-1.014-.211,1.324-5.381,1.014.211Zm2.648-10.761-1.014-.211,1.324-5.381,1.014.211Zm2.648-10.762-1.013-.211,1.324-5.38,1.014.211Zm2.648-10.761-1.014-.211,1.324-5.381,1.014.211Zm2.648-10.761-1.013-.211,1.324-5.381,1.014.211Zm2.648-10.761-1.014-.211,1.324-5.38,1.014.211Zm2.648-10.762-1.013-.211,1.324-5.38,1.014.211Zm2.648-10.761-1.014-.211,1.324-5.381,1.014.211Z" transform="translate(-364.957 -306.627)" fill="#ffa200"/>
      </g>
    </g>
    <path id="Trazado_996579" data-name="Trazado 996579" d="M1.591-.69H4.623V0H.743V-6.4h.848ZM6.341,0H5.524V-4.755h.817ZM6.35-6.746h.984L6.157-5.454H5.5Zm2.1,1.991.026.6A1.733,1.733,0,0,1,9.9-4.843q1.507,0,1.521,1.7V0h-.813V-3.146a1.1,1.1,0,0,0-.235-.76.942.942,0,0,0-.719-.246,1.173,1.173,0,0,0-.694.211,1.432,1.432,0,0,0-.466.554V0H7.682V-4.755ZM14.621.088a2.078,2.078,0,0,1-1.573-.635,2.357,2.357,0,0,1-.606-1.7V-2.4a2.853,2.853,0,0,1,.27-1.263,2.108,2.108,0,0,1,.756-.87,1.9,1.9,0,0,1,1.052-.314,1.781,1.781,0,0,1,1.441.611,2.645,2.645,0,0,1,.514,1.749v.338H13.254a1.69,1.69,0,0,0,.411,1.136,1.292,1.292,0,0,0,1,.433,1.416,1.416,0,0,0,.729-.176,1.833,1.833,0,0,0,.523-.466l.5.387A2,2,0,0,1,14.621.088Zm-.1-4.263a1.084,1.084,0,0,0-.826.358,1.741,1.741,0,0,0-.413,1h2.382v-.062a1.548,1.548,0,0,0-.334-.96A1.021,1.021,0,0,0,14.52-4.175ZM20.351,0a1.708,1.708,0,0,1-.114-.5,1.814,1.814,0,0,1-1.354.589,1.678,1.678,0,0,1-1.154-.4,1.287,1.287,0,0,1-.45-1.009,1.344,1.344,0,0,1,.565-1.154,2.662,2.662,0,0,1,1.589-.411h.791v-.374a.913.913,0,0,0-.255-.679,1.024,1.024,0,0,0-.751-.253,1.185,1.185,0,0,0-.729.22.647.647,0,0,0-.294.532h-.817a1.122,1.122,0,0,1,.253-.688,1.725,1.725,0,0,1,.686-.525,2.306,2.306,0,0,1,.951-.193,1.88,1.88,0,0,1,1.288.411A1.482,1.482,0,0,1,21.037-3.3v2.188A2.676,2.676,0,0,0,21.2-.07V0ZM19-.62a1.429,1.429,0,0,0,.725-.2,1.2,1.2,0,0,0,.5-.514v-.976h-.637q-1.494,0-1.494.875a.74.74,0,0,0,.255.6A.98.98,0,0,0,19-.62Zm9.563-1.705a2.827,2.827,0,0,1-.5,1.751,1.6,1.6,0,0,1-1.345.661,1.658,1.658,0,0,1-1.393-.637L25.286,0h-.747V-6.75h.813v2.518a1.648,1.648,0,0,1,1.358-.611,1.61,1.61,0,0,1,1.36.655A2.912,2.912,0,0,1,28.564-2.4Zm-.813-.092A2.2,2.2,0,0,0,27.431-3.7a1.062,1.062,0,0,0-.923-.453,1.194,1.194,0,0,0-1.156.747v2.057A1.227,1.227,0,0,0,26.517-.6a1.056,1.056,0,0,0,.91-.453A2.336,2.336,0,0,0,27.751-2.417ZM32.524-.47a1.727,1.727,0,0,1-1.393.558,1.478,1.478,0,0,1-1.158-.442,1.912,1.912,0,0,1-.4-1.307V-4.755h.813v3.072q0,1.081.879,1.081A1.217,1.217,0,0,0,32.5-1.3V-4.755h.813V0h-.773Zm4.794-.791a.6.6,0,0,0-.248-.512,2.39,2.39,0,0,0-.866-.314,4.093,4.093,0,0,1-.98-.316,1.394,1.394,0,0,1-.536-.439,1.051,1.051,0,0,1-.174-.606,1.233,1.233,0,0,1,.494-.989,1.931,1.931,0,0,1,1.263-.4,1.987,1.987,0,0,1,1.312.417,1.326,1.326,0,0,1,.5,1.068H37.27a.734.734,0,0,0-.283-.576,1.062,1.062,0,0,0-.714-.242,1.111,1.111,0,0,0-.694.193.609.609,0,0,0-.25.505.493.493,0,0,0,.233.444,2.866,2.866,0,0,0,.842.286,4.385,4.385,0,0,1,.987.325,1.439,1.439,0,0,1,.56.455,1.118,1.118,0,0,1,.182.648A1.217,1.217,0,0,1,37.622-.3,2.138,2.138,0,0,1,36.3.088a2.394,2.394,0,0,1-1.011-.2A1.644,1.644,0,0,1,34.6-.679a1.361,1.361,0,0,1-.248-.784h.813a.842.842,0,0,0,.327.648,1.27,1.27,0,0,0,.806.24,1.311,1.311,0,0,0,.74-.187A.574.574,0,0,0,37.318-1.261Zm2.975-4.645v1.151h.888v.628h-.888v2.949a.659.659,0,0,0,.119.428.5.5,0,0,0,.4.143A1.968,1.968,0,0,0,41.2-.659V0a2.357,2.357,0,0,1-.624.088,1.012,1.012,0,0,1-.822-.33,1.416,1.416,0,0,1-.277-.936V-4.126h-.866v-.628h.866V-5.906Zm1.444,3.485a2.808,2.808,0,0,1,.275-1.257,2.049,2.049,0,0,1,.765-.861,2.081,2.081,0,0,1,1.118-.3,2.005,2.005,0,0,1,1.571.672,2.587,2.587,0,0,1,.6,1.789v.057A2.833,2.833,0,0,1,45.8-1.079a2.019,2.019,0,0,1-.76.859A2.105,2.105,0,0,1,43.9.088a2,2,0,0,1-1.567-.672,2.574,2.574,0,0,1-.6-1.78Zm.817.1a2.034,2.034,0,0,0,.367,1.27,1.174,1.174,0,0,0,.982.479,1.167,1.167,0,0,0,.984-.486,2.224,2.224,0,0,0,.365-1.36,2.031,2.031,0,0,0-.371-1.268,1.181,1.181,0,0,0-.987-.486,1.167,1.167,0,0,0-.971.479A2.208,2.208,0,0,0,42.555-2.325Z" transform="translate(357.385 20713.424)"/>
    <path id="Trazado_996580" data-name="Trazado 996580" d="M1.591-.69H4.623V0H.743V-6.4h.848ZM6.341,0H5.524V-4.755h.817ZM6.35-6.746h.984L6.157-5.454H5.5Zm2.1,1.991.026.6A1.733,1.733,0,0,1,9.9-4.843q1.507,0,1.521,1.7V0h-.813V-3.146a1.1,1.1,0,0,0-.235-.76.942.942,0,0,0-.719-.246,1.173,1.173,0,0,0-.694.211,1.432,1.432,0,0,0-.466.554V0H7.682V-4.755ZM14.621.088a2.078,2.078,0,0,1-1.573-.635,2.357,2.357,0,0,1-.606-1.7V-2.4a2.853,2.853,0,0,1,.27-1.263,2.108,2.108,0,0,1,.756-.87,1.9,1.9,0,0,1,1.052-.314,1.781,1.781,0,0,1,1.441.611,2.645,2.645,0,0,1,.514,1.749v.338H13.254a1.69,1.69,0,0,0,.411,1.136,1.292,1.292,0,0,0,1,.433,1.416,1.416,0,0,0,.729-.176,1.833,1.833,0,0,0,.523-.466l.5.387A2,2,0,0,1,14.621.088Zm-.1-4.263a1.084,1.084,0,0,0-.826.358,1.741,1.741,0,0,0-.413,1h2.382v-.062a1.548,1.548,0,0,0-.334-.96A1.021,1.021,0,0,0,14.52-4.175ZM20.351,0a1.708,1.708,0,0,1-.114-.5,1.814,1.814,0,0,1-1.354.589,1.678,1.678,0,0,1-1.154-.4,1.287,1.287,0,0,1-.45-1.009,1.344,1.344,0,0,1,.565-1.154,2.662,2.662,0,0,1,1.589-.411h.791v-.374a.913.913,0,0,0-.255-.679,1.024,1.024,0,0,0-.751-.253,1.185,1.185,0,0,0-.729.22.647.647,0,0,0-.294.532h-.817a1.122,1.122,0,0,1,.253-.688,1.725,1.725,0,0,1,.686-.525,2.306,2.306,0,0,1,.951-.193,1.88,1.88,0,0,1,1.288.411A1.482,1.482,0,0,1,21.037-3.3v2.188A2.676,2.676,0,0,0,21.2-.07V0ZM19-.62a1.429,1.429,0,0,0,.725-.2,1.2,1.2,0,0,0,.5-.514v-.976h-.637q-1.494,0-1.494.875a.74.74,0,0,0,.255.6A.98.98,0,0,0,19-.62Zm7.444.044a1.171,1.171,0,0,0,.76-.264.928.928,0,0,0,.36-.659h.769a1.474,1.474,0,0,1-.281.778,1.852,1.852,0,0,1-.692.589,2,2,0,0,1-.916.22A1.959,1.959,0,0,1,24.9-.56a2.582,2.582,0,0,1-.573-1.773V-2.47A2.863,2.863,0,0,1,24.583-3.7a1.941,1.941,0,0,1,.732-.839,2.078,2.078,0,0,1,1.127-.3,1.907,1.907,0,0,1,1.329.479,1.712,1.712,0,0,1,.565,1.244h-.769a1.12,1.12,0,0,0-.349-.758,1.087,1.087,0,0,0-.776-.3,1.138,1.138,0,0,0-.96.446,2.1,2.1,0,0,0-.341,1.29v.154a2.053,2.053,0,0,0,.338,1.266A1.143,1.143,0,0,0,26.446-.576ZM32.186,0a1.708,1.708,0,0,1-.114-.5,1.814,1.814,0,0,1-1.354.589,1.678,1.678,0,0,1-1.154-.4,1.287,1.287,0,0,1-.45-1.009,1.344,1.344,0,0,1,.565-1.154,2.662,2.662,0,0,1,1.589-.411h.791v-.374a.913.913,0,0,0-.255-.679,1.024,1.024,0,0,0-.751-.253,1.185,1.185,0,0,0-.729.22.647.647,0,0,0-.294.532H29.21a1.122,1.122,0,0,1,.253-.688,1.725,1.725,0,0,1,.686-.525,2.306,2.306,0,0,1,.951-.193,1.88,1.88,0,0,1,1.288.411A1.482,1.482,0,0,1,32.871-3.3v2.188A2.676,2.676,0,0,0,33.038-.07V0ZM30.836-.62a1.429,1.429,0,0,0,.725-.2,1.2,1.2,0,0,0,.5-.514v-.976h-.637q-1.494,0-1.494.875a.74.74,0,0,0,.255.6A.98.98,0,0,0,30.836-.62Zm3.111-1.8a2.785,2.785,0,0,1,.519-1.76,1.64,1.64,0,0,1,1.358-.666,1.649,1.649,0,0,1,1.323.571V-6.75h.813V0h-.747l-.04-.51a1.656,1.656,0,0,1-1.358.6,1.624,1.624,0,0,1-1.347-.677,2.817,2.817,0,0,1-.521-1.767Zm.813.092a2.109,2.109,0,0,0,.334,1.266,1.08,1.08,0,0,0,.923.457A1.186,1.186,0,0,0,37.147-1.3V-3.48a1.2,1.2,0,0,0-1.121-.672,1.085,1.085,0,0,0-.932.461A2.322,2.322,0,0,0,34.761-2.325ZM41.194.088a2.078,2.078,0,0,1-1.573-.635,2.357,2.357,0,0,1-.606-1.7V-2.4a2.853,2.853,0,0,1,.27-1.263,2.108,2.108,0,0,1,.756-.87,1.9,1.9,0,0,1,1.052-.314,1.781,1.781,0,0,1,1.441.611,2.645,2.645,0,0,1,.514,1.749v.338H39.828a1.69,1.69,0,0,0,.411,1.136,1.292,1.292,0,0,0,1,.433,1.416,1.416,0,0,0,.729-.176,1.833,1.833,0,0,0,.523-.466l.5.387A2,2,0,0,1,41.194.088Zm-.1-4.263a1.084,1.084,0,0,0-.826.358,1.741,1.741,0,0,0-.413,1h2.382v-.062a1.548,1.548,0,0,0-.334-.96A1.021,1.021,0,0,0,41.093-4.175Zm5.194.149a2.436,2.436,0,0,0-.4-.031,1.071,1.071,0,0,0-1.085.681V0h-.813V-4.755h.791l.013.549a1.266,1.266,0,0,1,1.134-.637.831.831,0,0,1,.36.062ZM49.623,0a1.708,1.708,0,0,1-.114-.5,1.814,1.814,0,0,1-1.354.589A1.678,1.678,0,0,1,47-.31a1.287,1.287,0,0,1-.45-1.009,1.344,1.344,0,0,1,.565-1.154A2.662,2.662,0,0,1,48.7-2.883H49.5v-.374a.913.913,0,0,0-.255-.679,1.024,1.024,0,0,0-.751-.253,1.185,1.185,0,0,0-.729.22.647.647,0,0,0-.294.532h-.817a1.122,1.122,0,0,1,.253-.688,1.725,1.725,0,0,1,.686-.525,2.306,2.306,0,0,1,.951-.193,1.88,1.88,0,0,1,1.288.411A1.482,1.482,0,0,1,50.309-3.3v2.188A2.676,2.676,0,0,0,50.476-.07V0ZM48.274-.62A1.429,1.429,0,0,0,49-.817a1.2,1.2,0,0,0,.5-.514v-.976h-.637q-1.494,0-1.494.875a.74.74,0,0,0,.255.6A.98.98,0,0,0,48.274-.62Z" transform="translate(395.021 20995.959)"/>
    <path id="Trazado_996581" data-name="Trazado 996581" d="M1.591-.69H4.623V0H.743V-6.4h.848ZM6.341,0H5.524V-4.755h.817ZM6.35-6.746h.984L6.157-5.454H5.5Zm2.1,1.991.026.6A1.733,1.733,0,0,1,9.9-4.843q1.507,0,1.521,1.7V0h-.813V-3.146a1.1,1.1,0,0,0-.235-.76.942.942,0,0,0-.719-.246,1.173,1.173,0,0,0-.694.211,1.432,1.432,0,0,0-.466.554V0H7.682V-4.755ZM14.621.088a2.078,2.078,0,0,1-1.573-.635,2.357,2.357,0,0,1-.606-1.7V-2.4a2.853,2.853,0,0,1,.27-1.263,2.108,2.108,0,0,1,.756-.87,1.9,1.9,0,0,1,1.052-.314,1.781,1.781,0,0,1,1.441.611,2.645,2.645,0,0,1,.514,1.749v.338H13.254a1.69,1.69,0,0,0,.411,1.136,1.292,1.292,0,0,0,1,.433,1.416,1.416,0,0,0,.729-.176,1.833,1.833,0,0,0,.523-.466l.5.387A2,2,0,0,1,14.621.088Zm-.1-4.263a1.084,1.084,0,0,0-.826.358,1.741,1.741,0,0,0-.413,1h2.382v-.062a1.548,1.548,0,0,0-.334-.96A1.021,1.021,0,0,0,14.52-4.175ZM20.351,0a1.708,1.708,0,0,1-.114-.5,1.814,1.814,0,0,1-1.354.589,1.678,1.678,0,0,1-1.154-.4,1.287,1.287,0,0,1-.45-1.009,1.344,1.344,0,0,1,.565-1.154,2.662,2.662,0,0,1,1.589-.411h.791v-.374a.913.913,0,0,0-.255-.679,1.024,1.024,0,0,0-.751-.253,1.185,1.185,0,0,0-.729.22.647.647,0,0,0-.294.532h-.817a1.122,1.122,0,0,1,.253-.688,1.725,1.725,0,0,1,.686-.525,2.306,2.306,0,0,1,.951-.193,1.88,1.88,0,0,1,1.288.411A1.482,1.482,0,0,1,21.037-3.3v2.188A2.676,2.676,0,0,0,21.2-.07V0ZM19-.62a1.429,1.429,0,0,0,.725-.2,1.2,1.2,0,0,0,.5-.514v-.976h-.637q-1.494,0-1.494.875a.74.74,0,0,0,.255.6A.98.98,0,0,0,19-.62Zm7.444.044a1.171,1.171,0,0,0,.76-.264.928.928,0,0,0,.36-.659h.769a1.474,1.474,0,0,1-.281.778,1.852,1.852,0,0,1-.692.589,2,2,0,0,1-.916.22A1.959,1.959,0,0,1,24.9-.56a2.582,2.582,0,0,1-.573-1.773V-2.47A2.863,2.863,0,0,1,24.583-3.7a1.941,1.941,0,0,1,.732-.839,2.078,2.078,0,0,1,1.127-.3,1.907,1.907,0,0,1,1.329.479,1.712,1.712,0,0,1,.565,1.244h-.769a1.12,1.12,0,0,0-.349-.758,1.087,1.087,0,0,0-.776-.3,1.138,1.138,0,0,0-.96.446,2.1,2.1,0,0,0-.341,1.29v.154a2.053,2.053,0,0,0,.338,1.266A1.143,1.143,0,0,0,26.446-.576ZM32.186,0a1.708,1.708,0,0,1-.114-.5,1.814,1.814,0,0,1-1.354.589,1.678,1.678,0,0,1-1.154-.4,1.287,1.287,0,0,1-.45-1.009,1.344,1.344,0,0,1,.565-1.154,2.662,2.662,0,0,1,1.589-.411h.791v-.374a.913.913,0,0,0-.255-.679,1.024,1.024,0,0,0-.751-.253,1.185,1.185,0,0,0-.729.22.647.647,0,0,0-.294.532H29.21a1.122,1.122,0,0,1,.253-.688,1.725,1.725,0,0,1,.686-.525,2.306,2.306,0,0,1,.951-.193,1.88,1.88,0,0,1,1.288.411A1.482,1.482,0,0,1,32.871-3.3v2.188A2.676,2.676,0,0,0,33.038-.07V0ZM30.836-.62a1.429,1.429,0,0,0,.725-.2,1.2,1.2,0,0,0,.5-.514v-.976h-.637q-1.494,0-1.494.875a.74.74,0,0,0,.255.6A.98.98,0,0,0,30.836-.62Zm3.111-1.8a2.785,2.785,0,0,1,.519-1.76,1.64,1.64,0,0,1,1.358-.666,1.649,1.649,0,0,1,1.323.571V-6.75h.813V0h-.747l-.04-.51a1.656,1.656,0,0,1-1.358.6,1.624,1.624,0,0,1-1.347-.677,2.817,2.817,0,0,1-.521-1.767Zm.813.092a2.109,2.109,0,0,0,.334,1.266,1.08,1.08,0,0,0,.923.457A1.186,1.186,0,0,0,37.147-1.3V-3.48a1.2,1.2,0,0,0-1.121-.672,1.085,1.085,0,0,0-.932.461A2.322,2.322,0,0,0,34.761-2.325ZM41.194.088a2.078,2.078,0,0,1-1.573-.635,2.357,2.357,0,0,1-.606-1.7V-2.4a2.853,2.853,0,0,1,.27-1.263,2.108,2.108,0,0,1,.756-.87,1.9,1.9,0,0,1,1.052-.314,1.781,1.781,0,0,1,1.441.611,2.645,2.645,0,0,1,.514,1.749v.338H39.828a1.69,1.69,0,0,0,.411,1.136,1.292,1.292,0,0,0,1,.433,1.416,1.416,0,0,0,.729-.176,1.833,1.833,0,0,0,.523-.466l.5.387A2,2,0,0,1,41.194.088Zm-.1-4.263a1.084,1.084,0,0,0-.826.358,1.741,1.741,0,0,0-.413,1h2.382v-.062a1.548,1.548,0,0,0-.334-.96A1.021,1.021,0,0,0,41.093-4.175Zm5.194.149a2.436,2.436,0,0,0-.4-.031,1.071,1.071,0,0,0-1.085.681V0h-.813V-4.755h.791l.013.549a1.266,1.266,0,0,1,1.134-.637.831.831,0,0,1,.36.062ZM49.623,0a1.708,1.708,0,0,1-.114-.5,1.814,1.814,0,0,1-1.354.589A1.678,1.678,0,0,1,47-.31a1.287,1.287,0,0,1-.45-1.009,1.344,1.344,0,0,1,.565-1.154A2.662,2.662,0,0,1,48.7-2.883H49.5v-.374a.913.913,0,0,0-.255-.679,1.024,1.024,0,0,0-.751-.253,1.185,1.185,0,0,0-.729.22.647.647,0,0,0-.294.532h-.817a1.122,1.122,0,0,1,.253-.688,1.725,1.725,0,0,1,.686-.525,2.306,2.306,0,0,1,.951-.193,1.88,1.88,0,0,1,1.288.411A1.482,1.482,0,0,1,50.309-3.3v2.188A2.676,2.676,0,0,0,50.476-.07V0ZM48.274-.62A1.429,1.429,0,0,0,49-.817a1.2,1.2,0,0,0,.5-.514v-.976h-.637q-1.494,0-1.494.875a.74.74,0,0,0,.255.6A.98.98,0,0,0,48.274-.62Z" transform="translate(524.502 20995.959)"/>
    <path id="Trazado_996582" data-name="Trazado 996582" d="M1.591-.69H4.623V0H.743V-6.4h.848ZM6.341,0H5.524V-4.755h.817ZM6.35-6.746h.984L6.157-5.454H5.5Zm2.1,1.991.026.6A1.733,1.733,0,0,1,9.9-4.843q1.507,0,1.521,1.7V0h-.813V-3.146a1.1,1.1,0,0,0-.235-.76.942.942,0,0,0-.719-.246,1.173,1.173,0,0,0-.694.211,1.432,1.432,0,0,0-.466.554V0H7.682V-4.755ZM14.621.088a2.078,2.078,0,0,1-1.573-.635,2.357,2.357,0,0,1-.606-1.7V-2.4a2.853,2.853,0,0,1,.27-1.263,2.108,2.108,0,0,1,.756-.87,1.9,1.9,0,0,1,1.052-.314,1.781,1.781,0,0,1,1.441.611,2.645,2.645,0,0,1,.514,1.749v.338H13.254a1.69,1.69,0,0,0,.411,1.136,1.292,1.292,0,0,0,1,.433,1.416,1.416,0,0,0,.729-.176,1.833,1.833,0,0,0,.523-.466l.5.387A2,2,0,0,1,14.621.088Zm-.1-4.263a1.084,1.084,0,0,0-.826.358,1.741,1.741,0,0,0-.413,1h2.382v-.062a1.548,1.548,0,0,0-.334-.96A1.021,1.021,0,0,0,14.52-4.175ZM20.351,0a1.708,1.708,0,0,1-.114-.5,1.814,1.814,0,0,1-1.354.589,1.678,1.678,0,0,1-1.154-.4,1.287,1.287,0,0,1-.45-1.009,1.344,1.344,0,0,1,.565-1.154,2.662,2.662,0,0,1,1.589-.411h.791v-.374a.913.913,0,0,0-.255-.679,1.024,1.024,0,0,0-.751-.253,1.185,1.185,0,0,0-.729.22.647.647,0,0,0-.294.532h-.817a1.122,1.122,0,0,1,.253-.688,1.725,1.725,0,0,1,.686-.525,2.306,2.306,0,0,1,.951-.193,1.88,1.88,0,0,1,1.288.411A1.482,1.482,0,0,1,21.037-3.3v2.188A2.676,2.676,0,0,0,21.2-.07V0ZM19-.62a1.429,1.429,0,0,0,.725-.2,1.2,1.2,0,0,0,.5-.514v-.976h-.637q-1.494,0-1.494.875a.74.74,0,0,0,.255.6A.98.98,0,0,0,19-.62Zm6.64-5.287v1.151h.888v.628h-.888v2.949a.659.659,0,0,0,.119.428.5.5,0,0,0,.4.143,1.968,1.968,0,0,0,.387-.053V0a2.357,2.357,0,0,1-.624.088,1.012,1.012,0,0,1-.822-.33,1.416,1.416,0,0,1-.277-.936V-4.126h-.866v-.628h.866V-5.906ZM28.362,0h-.813V-4.755h.813Zm-.879-6.016A.485.485,0,0,1,27.6-6.35a.454.454,0,0,1,.358-.136.461.461,0,0,1,.36.136.48.48,0,0,1,.123.334.464.464,0,0,1-.123.33.469.469,0,0,1-.36.132.462.462,0,0,1-.358-.132A.469.469,0,0,1,27.483-6.016Zm4.478,1.991a2.436,2.436,0,0,0-.4-.031,1.071,1.071,0,0,0-1.085.681V0h-.813V-4.755h.791l.013.549A1.266,1.266,0,0,1,31.6-4.843a.831.831,0,0,1,.36.062Zm.363,1.6A2.808,2.808,0,0,1,32.6-3.678a2.049,2.049,0,0,1,.765-.861,2.081,2.081,0,0,1,1.118-.3,2.005,2.005,0,0,1,1.571.672,2.587,2.587,0,0,1,.6,1.789v.057a2.833,2.833,0,0,1-.266,1.246,2.019,2.019,0,0,1-.76.859,2.105,2.105,0,0,1-1.136.308,2,2,0,0,1-1.567-.672,2.574,2.574,0,0,1-.6-1.78Zm.817.1a2.034,2.034,0,0,0,.367,1.27,1.174,1.174,0,0,0,.982.479,1.167,1.167,0,0,0,.984-.486,2.224,2.224,0,0,0,.365-1.36,2.031,2.031,0,0,0-.371-1.268,1.181,1.181,0,0,0-.987-.486,1.167,1.167,0,0,0-.971.479A2.208,2.208,0,0,0,33.142-2.325Z" transform="translate(491.74 21049.623)"/>
    <path id="Trazado_996583" data-name="Trazado 996583" d="M1.591-.69H4.623V0H.743V-6.4h.848ZM6.341,0H5.524V-4.755h.817ZM6.35-6.746h.984L6.157-5.454H5.5Zm2.1,1.991.026.6A1.733,1.733,0,0,1,9.9-4.843q1.507,0,1.521,1.7V0h-.813V-3.146a1.1,1.1,0,0,0-.235-.76.942.942,0,0,0-.719-.246,1.173,1.173,0,0,0-.694.211,1.432,1.432,0,0,0-.466.554V0H7.682V-4.755ZM14.621.088a2.078,2.078,0,0,1-1.573-.635,2.357,2.357,0,0,1-.606-1.7V-2.4a2.853,2.853,0,0,1,.27-1.263,2.108,2.108,0,0,1,.756-.87,1.9,1.9,0,0,1,1.052-.314,1.781,1.781,0,0,1,1.441.611,2.645,2.645,0,0,1,.514,1.749v.338H13.254a1.69,1.69,0,0,0,.411,1.136,1.292,1.292,0,0,0,1,.433,1.416,1.416,0,0,0,.729-.176,1.833,1.833,0,0,0,.523-.466l.5.387A2,2,0,0,1,14.621.088Zm-.1-4.263a1.084,1.084,0,0,0-.826.358,1.741,1.741,0,0,0-.413,1h2.382v-.062a1.548,1.548,0,0,0-.334-.96A1.021,1.021,0,0,0,14.52-4.175ZM20.351,0a1.708,1.708,0,0,1-.114-.5,1.814,1.814,0,0,1-1.354.589,1.678,1.678,0,0,1-1.154-.4,1.287,1.287,0,0,1-.45-1.009,1.344,1.344,0,0,1,.565-1.154,2.662,2.662,0,0,1,1.589-.411h.791v-.374a.913.913,0,0,0-.255-.679,1.024,1.024,0,0,0-.751-.253,1.185,1.185,0,0,0-.729.22.647.647,0,0,0-.294.532h-.817a1.122,1.122,0,0,1,.253-.688,1.725,1.725,0,0,1,.686-.525,2.306,2.306,0,0,1,.951-.193,1.88,1.88,0,0,1,1.288.411A1.482,1.482,0,0,1,21.037-3.3v2.188A2.676,2.676,0,0,0,21.2-.07V0ZM19-.62a1.429,1.429,0,0,0,.725-.2,1.2,1.2,0,0,0,.5-.514v-.976h-.637q-1.494,0-1.494.875a.74.74,0,0,0,.255.6A.98.98,0,0,0,19-.62Zm6.64-5.287v1.151h.888v.628h-.888v2.949a.659.659,0,0,0,.119.428.5.5,0,0,0,.4.143,1.968,1.968,0,0,0,.387-.053V0a2.357,2.357,0,0,1-.624.088,1.012,1.012,0,0,1-.822-.33,1.416,1.416,0,0,1-.277-.936V-4.126h-.866v-.628h.866V-5.906ZM28.362,0h-.813V-4.755h.813Zm-.879-6.016A.485.485,0,0,1,27.6-6.35a.454.454,0,0,1,.358-.136.461.461,0,0,1,.36.136.48.48,0,0,1,.123.334.464.464,0,0,1-.123.33.469.469,0,0,1-.36.132.462.462,0,0,1-.358-.132A.469.469,0,0,1,27.483-6.016Zm4.478,1.991a2.436,2.436,0,0,0-.4-.031,1.071,1.071,0,0,0-1.085.681V0h-.813V-4.755h.791l.013.549A1.266,1.266,0,0,1,31.6-4.843a.831.831,0,0,1,.36.062Zm.363,1.6A2.808,2.808,0,0,1,32.6-3.678a2.049,2.049,0,0,1,.765-.861,2.081,2.081,0,0,1,1.118-.3,2.005,2.005,0,0,1,1.571.672,2.587,2.587,0,0,1,.6,1.789v.057a2.833,2.833,0,0,1-.266,1.246,2.019,2.019,0,0,1-.76.859,2.105,2.105,0,0,1-1.136.308,2,2,0,0,1-1.567-.672,2.574,2.574,0,0,1-.6-1.78Zm.817.1a2.034,2.034,0,0,0,.367,1.27,1.174,1.174,0,0,0,.982.479,1.167,1.167,0,0,0,.984-.486,2.224,2.224,0,0,0,.365-1.36,2.031,2.031,0,0,0-.371-1.268,1.181,1.181,0,0,0-.987-.486,1.167,1.167,0,0,0-.971.479A2.208,2.208,0,0,0,33.142-2.325Z" transform="translate(410.226 21049.623)"/>
    <path id="Trazado_996584" data-name="Trazado 996584" d="M1.591-.69H4.623V0H.743V-6.4h.848ZM6.341,0H5.524V-4.755h.817ZM6.35-6.746h.984L6.157-5.454H5.5Zm2.1,1.991.026.6A1.733,1.733,0,0,1,9.9-4.843q1.507,0,1.521,1.7V0h-.813V-3.146a1.1,1.1,0,0,0-.235-.76.942.942,0,0,0-.719-.246,1.173,1.173,0,0,0-.694.211,1.432,1.432,0,0,0-.466.554V0H7.682V-4.755ZM14.621.088a2.078,2.078,0,0,1-1.573-.635,2.357,2.357,0,0,1-.606-1.7V-2.4a2.853,2.853,0,0,1,.27-1.263,2.108,2.108,0,0,1,.756-.87,1.9,1.9,0,0,1,1.052-.314,1.781,1.781,0,0,1,1.441.611,2.645,2.645,0,0,1,.514,1.749v.338H13.254a1.69,1.69,0,0,0,.411,1.136,1.292,1.292,0,0,0,1,.433,1.416,1.416,0,0,0,.729-.176,1.833,1.833,0,0,0,.523-.466l.5.387A2,2,0,0,1,14.621.088Zm-.1-4.263a1.084,1.084,0,0,0-.826.358,1.741,1.741,0,0,0-.413,1h2.382v-.062a1.548,1.548,0,0,0-.334-.96A1.021,1.021,0,0,0,14.52-4.175ZM20.351,0a1.708,1.708,0,0,1-.114-.5,1.814,1.814,0,0,1-1.354.589,1.678,1.678,0,0,1-1.154-.4,1.287,1.287,0,0,1-.45-1.009,1.344,1.344,0,0,1,.565-1.154,2.662,2.662,0,0,1,1.589-.411h.791v-.374a.913.913,0,0,0-.255-.679,1.024,1.024,0,0,0-.751-.253,1.185,1.185,0,0,0-.729.22.647.647,0,0,0-.294.532h-.817a1.122,1.122,0,0,1,.253-.688,1.725,1.725,0,0,1,.686-.525,2.306,2.306,0,0,1,.951-.193,1.88,1.88,0,0,1,1.288.411A1.482,1.482,0,0,1,21.037-3.3v2.188A2.676,2.676,0,0,0,21.2-.07V0ZM19-.62a1.429,1.429,0,0,0,.725-.2,1.2,1.2,0,0,0,.5-.514v-.976h-.637q-1.494,0-1.494.875a.74.74,0,0,0,.255.6A.98.98,0,0,0,19-.62Zm9.563-1.705a2.827,2.827,0,0,1-.5,1.751,1.6,1.6,0,0,1-1.345.661,1.658,1.658,0,0,1-1.393-.637L25.286,0h-.747V-6.75h.813v2.518a1.648,1.648,0,0,1,1.358-.611,1.61,1.61,0,0,1,1.36.655A2.912,2.912,0,0,1,28.564-2.4Zm-.813-.092A2.2,2.2,0,0,0,27.431-3.7a1.062,1.062,0,0,0-.923-.453,1.194,1.194,0,0,0-1.156.747v2.057A1.227,1.227,0,0,0,26.517-.6a1.056,1.056,0,0,0,.91-.453A2.336,2.336,0,0,0,27.751-2.417ZM32.524-.47a1.727,1.727,0,0,1-1.393.558,1.478,1.478,0,0,1-1.158-.442,1.912,1.912,0,0,1-.4-1.307V-4.755h.813v3.072q0,1.081.879,1.081A1.217,1.217,0,0,0,32.5-1.3V-4.755h.813V0h-.773Zm4.794-.791a.6.6,0,0,0-.248-.512,2.39,2.39,0,0,0-.866-.314,4.093,4.093,0,0,1-.98-.316,1.394,1.394,0,0,1-.536-.439,1.051,1.051,0,0,1-.174-.606,1.233,1.233,0,0,1,.494-.989,1.931,1.931,0,0,1,1.263-.4,1.987,1.987,0,0,1,1.312.417,1.326,1.326,0,0,1,.5,1.068H37.27a.734.734,0,0,0-.283-.576,1.062,1.062,0,0,0-.714-.242,1.111,1.111,0,0,0-.694.193.609.609,0,0,0-.25.505.493.493,0,0,0,.233.444,2.866,2.866,0,0,0,.842.286,4.385,4.385,0,0,1,.987.325,1.439,1.439,0,0,1,.56.455,1.118,1.118,0,0,1,.182.648A1.217,1.217,0,0,1,37.622-.3,2.138,2.138,0,0,1,36.3.088a2.394,2.394,0,0,1-1.011-.2A1.644,1.644,0,0,1,34.6-.679a1.361,1.361,0,0,1-.248-.784h.813a.842.842,0,0,0,.327.648,1.27,1.27,0,0,0,.806.24,1.311,1.311,0,0,0,.74-.187A.574.574,0,0,0,37.318-1.261Zm2.975-4.645v1.151h.888v.628h-.888v2.949a.659.659,0,0,0,.119.428.5.5,0,0,0,.4.143A1.968,1.968,0,0,0,41.2-.659V0a2.357,2.357,0,0,1-.624.088,1.012,1.012,0,0,1-.822-.33,1.416,1.416,0,0,1-.277-.936V-4.126h-.866v-.628h.866V-5.906Zm1.444,3.485a2.808,2.808,0,0,1,.275-1.257,2.049,2.049,0,0,1,.765-.861,2.081,2.081,0,0,1,1.118-.3,2.005,2.005,0,0,1,1.571.672,2.587,2.587,0,0,1,.6,1.789v.057A2.833,2.833,0,0,1,45.8-1.079a2.019,2.019,0,0,1-.76.859A2.105,2.105,0,0,1,43.9.088a2,2,0,0,1-1.567-.672,2.574,2.574,0,0,1-.6-1.78Zm.817.1a2.034,2.034,0,0,0,.367,1.27,1.174,1.174,0,0,0,.982.479,1.167,1.167,0,0,0,.984-.486,2.224,2.224,0,0,0,.365-1.36,2.031,2.031,0,0,0-.371-1.268,1.181,1.181,0,0,0-.987-.486,1.167,1.167,0,0,0-.971.479A2.208,2.208,0,0,0,42.555-2.325Z" transform="translate(564.502 20713.424)"/>
    <path id="Trazado_996585" data-name="Trazado 996585" d="M5.66,0H4.812V-2.958H1.586V0H.743V-6.4h.844v2.751H4.812V-6.4H5.66ZM6.816-2.421a2.808,2.808,0,0,1,.275-1.257,2.049,2.049,0,0,1,.765-.861,2.081,2.081,0,0,1,1.118-.3,2.005,2.005,0,0,1,1.571.672,2.587,2.587,0,0,1,.6,1.789v.057a2.833,2.833,0,0,1-.266,1.246,2.019,2.019,0,0,1-.76.859A2.105,2.105,0,0,1,8.982.088,2,2,0,0,1,7.416-.584a2.574,2.574,0,0,1-.6-1.78Zm.817.1A2.034,2.034,0,0,0,8-1.055a1.174,1.174,0,0,0,.982.479,1.167,1.167,0,0,0,.984-.486,2.224,2.224,0,0,0,.365-1.36A2.031,2.031,0,0,0,9.96-3.689a1.181,1.181,0,0,0-.987-.486A1.167,1.167,0,0,0,8-3.7,2.208,2.208,0,0,0,7.633-2.325Zm5.3-2.43.022.527a1.756,1.756,0,0,1,1.411-.615,1.359,1.359,0,0,1,1.358.765,1.8,1.8,0,0,1,.617-.554,1.824,1.824,0,0,1,.9-.211q1.564,0,1.591,1.657V0h-.813V-3.138A1.092,1.092,0,0,0,17.78-3.9,1.026,1.026,0,0,0,17-4.153a1.078,1.078,0,0,0-.751.27,1.1,1.1,0,0,0-.347.727V0h-.817V-3.116a.907.907,0,0,0-1.015-1.037,1.088,1.088,0,0,0-1.094.681V0H12.16V-4.755Zm11.149,2.43a2.827,2.827,0,0,1-.5,1.751,1.6,1.6,0,0,1-1.345.661,1.658,1.658,0,0,1-1.393-.637L20.8,0h-.747V-6.75h.813v2.518a1.648,1.648,0,0,1,1.358-.611,1.61,1.61,0,0,1,1.36.655A2.912,2.912,0,0,1,24.078-2.4Zm-.813-.092A2.2,2.2,0,0,0,22.944-3.7a1.062,1.062,0,0,0-.923-.453,1.194,1.194,0,0,0-1.156.747v2.057A1.227,1.227,0,0,0,22.03-.6a1.056,1.056,0,0,0,.91-.453A2.336,2.336,0,0,0,23.265-2.417ZM27.4-4.025a2.436,2.436,0,0,0-.4-.031,1.071,1.071,0,0,0-1.085.681V0H25.1V-4.755h.791l.013.549a1.266,1.266,0,0,1,1.134-.637.831.831,0,0,1,.36.062Zm.363,1.6a2.808,2.808,0,0,1,.275-1.257A2.049,2.049,0,0,1,28.8-4.54a2.081,2.081,0,0,1,1.118-.3,2.005,2.005,0,0,1,1.571.672,2.587,2.587,0,0,1,.6,1.789v.057a2.833,2.833,0,0,1-.266,1.246,2.019,2.019,0,0,1-.76.859,2.105,2.105,0,0,1-1.136.308,2,2,0,0,1-1.567-.672,2.574,2.574,0,0,1-.6-1.78Zm.817.1a2.034,2.034,0,0,0,.367,1.27,1.174,1.174,0,0,0,.982.479,1.167,1.167,0,0,0,.984-.486,2.224,2.224,0,0,0,.365-1.36,2.031,2.031,0,0,0-.371-1.268,1.181,1.181,0,0,0-.987-.486,1.167,1.167,0,0,0-.971.479A2.208,2.208,0,0,0,28.58-2.325Zm7.3,1.063a.6.6,0,0,0-.248-.512,2.39,2.39,0,0,0-.866-.314,4.093,4.093,0,0,1-.98-.316,1.394,1.394,0,0,1-.536-.439,1.051,1.051,0,0,1-.174-.606,1.233,1.233,0,0,1,.494-.989,1.931,1.931,0,0,1,1.263-.4,1.987,1.987,0,0,1,1.312.417,1.326,1.326,0,0,1,.5,1.068h-.817a.734.734,0,0,0-.283-.576,1.062,1.062,0,0,0-.714-.242,1.111,1.111,0,0,0-.694.193.609.609,0,0,0-.25.505.493.493,0,0,0,.233.444,2.866,2.866,0,0,0,.842.286,4.385,4.385,0,0,1,.987.325,1.439,1.439,0,0,1,.56.455,1.118,1.118,0,0,1,.182.648A1.217,1.217,0,0,1,36.183-.3,2.138,2.138,0,0,1,34.86.088a2.394,2.394,0,0,1-1.011-.2,1.644,1.644,0,0,1-.688-.565,1.361,1.361,0,0,1-.248-.784h.813a.842.842,0,0,0,.327.648,1.27,1.27,0,0,0,.806.24,1.311,1.311,0,0,0,.74-.187A.574.574,0,0,0,35.879-1.261Z" transform="translate(572.771 20669.92)"/>
    <path id="Trazado_996586" data-name="Trazado 996586" d="M5.449-2.03A2.354,2.354,0,0,1,4.7-.464,2.456,2.456,0,0,1,3.023.088,2.255,2.255,0,0,1,1.206-.725,3.271,3.271,0,0,1,.523-2.9v-.615A3.646,3.646,0,0,1,.842-5.084a2.38,2.38,0,0,1,.9-1.039A2.514,2.514,0,0,1,3.1-6.486a2.312,2.312,0,0,1,1.635.569,2.382,2.382,0,0,1,.716,1.575H4.6a1.83,1.83,0,0,0-.477-1.107A1.445,1.445,0,0,0,3.1-5.792a1.51,1.51,0,0,0-1.268.6,2.742,2.742,0,0,0-.459,1.7v.62a2.819,2.819,0,0,0,.435,1.657A1.406,1.406,0,0,0,3.023-.6,1.624,1.624,0,0,0,4.1-.921a1.768,1.768,0,0,0,.5-1.11Zm.809-.391a2.808,2.808,0,0,1,.275-1.257A2.049,2.049,0,0,1,7.3-4.54a2.081,2.081,0,0,1,1.118-.3,2.005,2.005,0,0,1,1.571.672,2.587,2.587,0,0,1,.6,1.789v.057a2.833,2.833,0,0,1-.266,1.246,2.019,2.019,0,0,1-.76.859A2.105,2.105,0,0,1,8.424.088,2,2,0,0,1,6.858-.584a2.574,2.574,0,0,1-.6-1.78Zm.817.1a2.034,2.034,0,0,0,.367,1.27,1.174,1.174,0,0,0,.982.479,1.167,1.167,0,0,0,.984-.486,2.224,2.224,0,0,0,.365-1.36A2.031,2.031,0,0,0,9.4-3.689a1.181,1.181,0,0,0-.987-.486,1.167,1.167,0,0,0-.971.479A2.208,2.208,0,0,0,7.075-2.325Zm7.3,1.063a.6.6,0,0,0-.248-.512,2.39,2.39,0,0,0-.866-.314,4.093,4.093,0,0,1-.98-.316,1.394,1.394,0,0,1-.536-.439,1.051,1.051,0,0,1-.174-.606,1.233,1.233,0,0,1,.494-.989,1.931,1.931,0,0,1,1.263-.4,1.987,1.987,0,0,1,1.312.417,1.326,1.326,0,0,1,.5,1.068h-.817a.734.734,0,0,0-.283-.576,1.062,1.062,0,0,0-.714-.242,1.111,1.111,0,0,0-.694.193.609.609,0,0,0-.25.505.493.493,0,0,0,.233.444,2.866,2.866,0,0,0,.842.286,4.385,4.385,0,0,1,.987.325,1.439,1.439,0,0,1,.56.455,1.118,1.118,0,0,1,.182.648A1.217,1.217,0,0,1,14.678-.3a2.138,2.138,0,0,1-1.323.385,2.394,2.394,0,0,1-1.011-.2,1.644,1.644,0,0,1-.688-.565,1.361,1.361,0,0,1-.248-.784h.813a.842.842,0,0,0,.327.648,1.27,1.27,0,0,0,.806.24,1.311,1.311,0,0,0,.74-.187A.574.574,0,0,0,14.375-1.261ZM17.35-5.906v1.151h.888v.628H17.35v2.949a.659.659,0,0,0,.119.428.5.5,0,0,0,.4.143,1.968,1.968,0,0,0,.387-.053V0a2.357,2.357,0,0,1-.624.088,1.012,1.012,0,0,1-.822-.33,1.416,1.416,0,0,1-.277-.936V-4.126h-.866v-.628h.866V-5.906ZM22.122,0a1.708,1.708,0,0,1-.114-.5,1.814,1.814,0,0,1-1.354.589A1.678,1.678,0,0,1,19.5-.31a1.287,1.287,0,0,1-.45-1.009,1.344,1.344,0,0,1,.565-1.154A2.662,2.662,0,0,1,21.2-2.883h.791v-.374a.913.913,0,0,0-.255-.679,1.024,1.024,0,0,0-.751-.253,1.185,1.185,0,0,0-.729.22.647.647,0,0,0-.294.532h-.817a1.122,1.122,0,0,1,.253-.688,1.725,1.725,0,0,1,.686-.525,2.306,2.306,0,0,1,.951-.193,1.88,1.88,0,0,1,1.288.411A1.482,1.482,0,0,1,22.808-3.3v2.188A2.676,2.676,0,0,0,22.975-.07V0ZM20.773-.62a1.429,1.429,0,0,0,.725-.2,1.2,1.2,0,0,0,.5-.514v-.976h-.637q-1.494,0-1.494.875a.74.74,0,0,0,.255.6A.98.98,0,0,0,20.773-.62Zm3.111-1.8a2.785,2.785,0,0,1,.519-1.76,1.64,1.64,0,0,1,1.358-.666,1.649,1.649,0,0,1,1.323.571V-6.75H27.9V0h-.747l-.04-.51a1.656,1.656,0,0,1-1.358.6,1.624,1.624,0,0,1-1.347-.677,2.817,2.817,0,0,1-.521-1.767Zm.813.092a2.109,2.109,0,0,0,.334,1.266,1.08,1.08,0,0,0,.923.457A1.186,1.186,0,0,0,27.083-1.3V-3.48a1.2,1.2,0,0,0-1.121-.672,1.085,1.085,0,0,0-.932.461A2.322,2.322,0,0,0,24.7-2.325Zm4.245-.1a2.808,2.808,0,0,1,.275-1.257,2.049,2.049,0,0,1,.765-.861,2.081,2.081,0,0,1,1.118-.3,2.005,2.005,0,0,1,1.571.672,2.587,2.587,0,0,1,.6,1.789v.057a2.833,2.833,0,0,1-.266,1.246,2.019,2.019,0,0,1-.76.859,2.105,2.105,0,0,1-1.136.308,2,2,0,0,1-1.567-.672,2.574,2.574,0,0,1-.6-1.78Zm.817.1a2.034,2.034,0,0,0,.367,1.27,1.174,1.174,0,0,0,.982.479,1.167,1.167,0,0,0,.984-.486,2.224,2.224,0,0,0,.365-1.36,2.031,2.031,0,0,0-.371-1.268,1.181,1.181,0,0,0-.987-.486,1.167,1.167,0,0,0-.971.479A2.208,2.208,0,0,0,29.76-2.325Z" transform="translate(453.163 20826.83) rotate(-74.529)"/>
    <path id="Trazado_996587" data-name="Trazado 996587" d="M5.449-2.03A2.354,2.354,0,0,1,4.7-.464,2.456,2.456,0,0,1,3.023.088,2.255,2.255,0,0,1,1.206-.725,3.271,3.271,0,0,1,.523-2.9v-.615A3.646,3.646,0,0,1,.842-5.084a2.38,2.38,0,0,1,.9-1.039A2.514,2.514,0,0,1,3.1-6.486a2.312,2.312,0,0,1,1.635.569,2.382,2.382,0,0,1,.716,1.575H4.6a1.83,1.83,0,0,0-.477-1.107A1.445,1.445,0,0,0,3.1-5.792a1.51,1.51,0,0,0-1.268.6,2.742,2.742,0,0,0-.459,1.7v.62a2.819,2.819,0,0,0,.435,1.657A1.406,1.406,0,0,0,3.023-.6,1.624,1.624,0,0,0,4.1-.921a1.768,1.768,0,0,0,.5-1.11Zm.809-.391a2.808,2.808,0,0,1,.275-1.257A2.049,2.049,0,0,1,7.3-4.54a2.081,2.081,0,0,1,1.118-.3,2.005,2.005,0,0,1,1.571.672,2.587,2.587,0,0,1,.6,1.789v.057a2.833,2.833,0,0,1-.266,1.246,2.019,2.019,0,0,1-.76.859A2.105,2.105,0,0,1,8.424.088,2,2,0,0,1,6.858-.584a2.574,2.574,0,0,1-.6-1.78Zm.817.1a2.034,2.034,0,0,0,.367,1.27,1.174,1.174,0,0,0,.982.479,1.167,1.167,0,0,0,.984-.486,2.224,2.224,0,0,0,.365-1.36A2.031,2.031,0,0,0,9.4-3.689a1.181,1.181,0,0,0-.987-.486,1.167,1.167,0,0,0-.971.479A2.208,2.208,0,0,0,7.075-2.325Zm7.3,1.063a.6.6,0,0,0-.248-.512,2.39,2.39,0,0,0-.866-.314,4.093,4.093,0,0,1-.98-.316,1.394,1.394,0,0,1-.536-.439,1.051,1.051,0,0,1-.174-.606,1.233,1.233,0,0,1,.494-.989,1.931,1.931,0,0,1,1.263-.4,1.987,1.987,0,0,1,1.312.417,1.326,1.326,0,0,1,.5,1.068h-.817a.734.734,0,0,0-.283-.576,1.062,1.062,0,0,0-.714-.242,1.111,1.111,0,0,0-.694.193.609.609,0,0,0-.25.505.493.493,0,0,0,.233.444,2.866,2.866,0,0,0,.842.286,4.385,4.385,0,0,1,.987.325,1.439,1.439,0,0,1,.56.455,1.118,1.118,0,0,1,.182.648A1.217,1.217,0,0,1,14.678-.3a2.138,2.138,0,0,1-1.323.385,2.394,2.394,0,0,1-1.011-.2,1.644,1.644,0,0,1-.688-.565,1.361,1.361,0,0,1-.248-.784h.813a.842.842,0,0,0,.327.648,1.27,1.27,0,0,0,.806.24,1.311,1.311,0,0,0,.74-.187A.574.574,0,0,0,14.375-1.261ZM17.35-5.906v1.151h.888v.628H17.35v2.949a.659.659,0,0,0,.119.428.5.5,0,0,0,.4.143,1.968,1.968,0,0,0,.387-.053V0a2.357,2.357,0,0,1-.624.088,1.012,1.012,0,0,1-.822-.33,1.416,1.416,0,0,1-.277-.936V-4.126h-.866v-.628h.866V-5.906ZM22.122,0a1.708,1.708,0,0,1-.114-.5,1.814,1.814,0,0,1-1.354.589A1.678,1.678,0,0,1,19.5-.31a1.287,1.287,0,0,1-.45-1.009,1.344,1.344,0,0,1,.565-1.154A2.662,2.662,0,0,1,21.2-2.883h.791v-.374a.913.913,0,0,0-.255-.679,1.024,1.024,0,0,0-.751-.253,1.185,1.185,0,0,0-.729.22.647.647,0,0,0-.294.532h-.817a1.122,1.122,0,0,1,.253-.688,1.725,1.725,0,0,1,.686-.525,2.306,2.306,0,0,1,.951-.193,1.88,1.88,0,0,1,1.288.411A1.482,1.482,0,0,1,22.808-3.3v2.188A2.676,2.676,0,0,0,22.975-.07V0ZM20.773-.62a1.429,1.429,0,0,0,.725-.2,1.2,1.2,0,0,0,.5-.514v-.976h-.637q-1.494,0-1.494.875a.74.74,0,0,0,.255.6A.98.98,0,0,0,20.773-.62Zm3.111-1.8a2.785,2.785,0,0,1,.519-1.76,1.64,1.64,0,0,1,1.358-.666,1.649,1.649,0,0,1,1.323.571V-6.75H27.9V0h-.747l-.04-.51a1.656,1.656,0,0,1-1.358.6,1.624,1.624,0,0,1-1.347-.677,2.817,2.817,0,0,1-.521-1.767Zm.813.092a2.109,2.109,0,0,0,.334,1.266,1.08,1.08,0,0,0,.923.457A1.186,1.186,0,0,0,27.083-1.3V-3.48a1.2,1.2,0,0,0-1.121-.672,1.085,1.085,0,0,0-.932.461A2.322,2.322,0,0,0,24.7-2.325Zm4.245-.1a2.808,2.808,0,0,1,.275-1.257,2.049,2.049,0,0,1,.765-.861,2.081,2.081,0,0,1,1.118-.3,2.005,2.005,0,0,1,1.571.672,2.587,2.587,0,0,1,.6,1.789v.057a2.833,2.833,0,0,1-.266,1.246,2.019,2.019,0,0,1-.76.859,2.105,2.105,0,0,1-1.136.308,2,2,0,0,1-1.567-.672,2.574,2.574,0,0,1-.6-1.78Zm.817.1a2.034,2.034,0,0,0,.367,1.27,1.174,1.174,0,0,0,.982.479,1.167,1.167,0,0,0,.984-.486,2.224,2.224,0,0,0,.365-1.36,2.031,2.031,0,0,0-.371-1.268,1.181,1.181,0,0,0-.987-.486,1.167,1.167,0,0,0-.971.479A2.208,2.208,0,0,0,29.76-2.325Z" transform="translate(525.097 20823.645) rotate(-105.958)"/>
    <path id="Trazado_996588" data-name="Trazado 996588" d="M5.594-2.131A2.264,2.264,0,0,1,4.832-.505,2.678,2.678,0,0,1,3.019.088,2.408,2.408,0,0,1,1.083-.74,3.4,3.4,0,0,1,.378-3.015v-.391A3.836,3.836,0,0,1,.7-5.032a2.437,2.437,0,0,1,.929-1.079,2.6,2.6,0,0,1,1.4-.376,2.609,2.609,0,0,1,1.784.593A2.433,2.433,0,0,1,5.6-4.228H4.285a1.336,1.336,0,0,0-.345-.9,1.277,1.277,0,0,0-.9-.279,1.12,1.12,0,0,0-.987.472,2.648,2.648,0,0,0-.336,1.466v.483a2.834,2.834,0,0,0,.314,1.516,1.1,1.1,0,0,0,.991.479,1.3,1.3,0,0,0,.912-.279,1.26,1.26,0,0,0,.345-.864ZM8.565.088a2.334,2.334,0,0,1-1.7-.642,2.281,2.281,0,0,1-.657-1.709v-.123a2.872,2.872,0,0,1,.277-1.281,2.032,2.032,0,0,1,.784-.87,2.2,2.2,0,0,1,1.158-.305,1.973,1.973,0,0,1,1.536.615,2.5,2.5,0,0,1,.56,1.745v.519H7.493a1.18,1.18,0,0,0,.371.747,1.123,1.123,0,0,0,.784.281A1.371,1.371,0,0,0,9.8-1.468l.624.7a1.907,1.907,0,0,1-.773.631A2.538,2.538,0,0,1,8.565.088Zm-.145-3.9a.8.8,0,0,0-.613.255,1.317,1.317,0,0,0-.3.729H9.272v-.1a.939.939,0,0,0-.229-.653A.821.821,0,0,0,8.42-3.814Zm3.99-.94.04.549a1.66,1.66,0,0,1,1.367-.637,1.38,1.38,0,0,1,1.125.444,2.071,2.071,0,0,1,.378,1.327V0h-1.27V-3.041a.824.824,0,0,0-.176-.587.787.787,0,0,0-.584-.182.874.874,0,0,0-.8.457V0h-1.27V-4.755ZM17.8-5.924v1.169h.813v.932H17.8V-1.45a.567.567,0,0,0,.1.378.508.508,0,0,0,.387.114,2.025,2.025,0,0,0,.374-.031v.962a2.615,2.615,0,0,1-.769.114,1.213,1.213,0,0,1-1.362-1.349V-3.823h-.694v-.932h.694V-5.924Zm4.192,2.36a3.45,3.45,0,0,0-.457-.035.93.93,0,0,0-.945.488V0h-1.27V-4.755h1.2l.035.567a1.177,1.177,0,0,1,1.059-.655,1.331,1.331,0,0,1,.4.057Zm.1,1.143a2.82,2.82,0,0,1,.272-1.261,2,2,0,0,1,.784-.857,2.289,2.289,0,0,1,1.189-.3,2.165,2.165,0,0,1,1.571.589,2.363,2.363,0,0,1,.679,1.6l.009.325A2.485,2.485,0,0,1,25.99-.573a2.123,2.123,0,0,1-1.639.661A2.134,2.134,0,0,1,22.71-.571,2.529,2.529,0,0,1,22.1-2.364Zm1.27.092a1.773,1.773,0,0,0,.255,1.035.841.841,0,0,0,.729.358.843.843,0,0,0,.721-.354,1.94,1.94,0,0,0,.259-1.132,1.755,1.755,0,0,0-.259-1.028.843.843,0,0,0-.729-.365.829.829,0,0,0-.721.363A1.972,1.972,0,0,0,23.367-2.329Zm8.3-.083a2.865,2.865,0,0,1,.5-1.771,1.618,1.618,0,0,1,1.365-.659,1.456,1.456,0,0,1,1.147.519V-6.75h1.274V0H34.805l-.062-.505a1.5,1.5,0,0,1-1.222.593,1.614,1.614,0,0,1-1.347-.661A2.958,2.958,0,0,1,31.668-2.413Zm1.27.092A1.872,1.872,0,0,0,33.171-1.3a.759.759,0,0,0,.677.356.85.85,0,0,0,.831-.5V-3.313a.838.838,0,0,0-.822-.5Q32.938-3.81,32.938-2.32ZM39.125.088a2.334,2.334,0,0,1-1.7-.642,2.281,2.281,0,0,1-.657-1.709v-.123a2.872,2.872,0,0,1,.277-1.281,2.032,2.032,0,0,1,.784-.87,2.2,2.2,0,0,1,1.158-.305,1.973,1.973,0,0,1,1.536.615,2.5,2.5,0,0,1,.56,1.745v.519H38.053a1.18,1.18,0,0,0,.371.747,1.123,1.123,0,0,0,.784.281,1.371,1.371,0,0,0,1.147-.532l.624.7a1.907,1.907,0,0,1-.773.631A2.538,2.538,0,0,1,39.125.088Zm-.145-3.9a.8.8,0,0,0-.613.255,1.317,1.317,0,0,0-.3.729h1.767v-.1a.939.939,0,0,0-.229-.653A.821.821,0,0,0,38.98-3.814ZM43.142,0H41.868V-6.75h1.274Zm3.8,0a1.41,1.41,0,0,1-.127-.426,1.537,1.537,0,0,1-1.2.514,1.688,1.688,0,0,1-1.158-.4A1.3,1.3,0,0,1,44-1.336a1.344,1.344,0,0,1,.56-1.16A2.765,2.765,0,0,1,46.179-2.9h.584v-.272a.784.784,0,0,0-.169-.527.666.666,0,0,0-.534-.2.757.757,0,0,0-.5.154.523.523,0,0,0-.182.422H44.1a1.276,1.276,0,0,1,.255-.765,1.685,1.685,0,0,1,.721-.552,2.627,2.627,0,0,1,1.046-.2,2.075,2.075,0,0,1,1.4.442,1.545,1.545,0,0,1,.516,1.241V-1.1a2.273,2.273,0,0,0,.189,1.024V0Zm-1.05-.883a1.094,1.094,0,0,0,.519-.125.823.823,0,0,0,.352-.336v-.817h-.475q-.954,0-1.015.659l0,.075a.508.508,0,0,0,.167.391A.649.649,0,0,0,45.893-.883Zm4.289-3.872.04.549a1.66,1.66,0,0,1,1.367-.637,1.38,1.38,0,0,1,1.125.444,2.071,2.071,0,0,1,.378,1.327V0h-1.27V-3.041a.824.824,0,0,0-.176-.587.787.787,0,0,0-.584-.182.874.874,0,0,0-.8.457V0h-1.27V-4.755Zm5.392-1.169v1.169h.813v.932h-.813V-1.45a.567.567,0,0,0,.1.378.508.508,0,0,0,.387.114,2.025,2.025,0,0,0,.374-.031v.962a2.615,2.615,0,0,1-.769.114A1.213,1.213,0,0,1,54.3-1.261V-3.823H53.61v-.932H54.3V-5.924ZM59.283.088a2.334,2.334,0,0,1-1.7-.642,2.281,2.281,0,0,1-.657-1.709v-.123A2.872,2.872,0,0,1,57.2-3.667a2.032,2.032,0,0,1,.784-.87,2.2,2.2,0,0,1,1.158-.305,1.973,1.973,0,0,1,1.536.615,2.5,2.5,0,0,1,.56,1.745v.519H58.211a1.18,1.18,0,0,0,.371.747,1.123,1.123,0,0,0,.784.281,1.371,1.371,0,0,0,1.147-.532l.624.7a1.907,1.907,0,0,1-.773.631A2.538,2.538,0,0,1,59.283.088Zm-.145-3.9a.8.8,0,0,0-.613.255,1.317,1.317,0,0,0-.3.729h1.767v-.1a.939.939,0,0,0-.229-.653A.821.821,0,0,0,59.138-3.814Zm5.493.25a3.45,3.45,0,0,0-.457-.035.93.93,0,0,0-.945.488V0h-1.27V-4.755h1.2l.035.567a1.177,1.177,0,0,1,1.059-.655,1.331,1.331,0,0,1,.4.057Zm.1,1.143a2.82,2.82,0,0,1,.272-1.261,2,2,0,0,1,.784-.857,2.289,2.289,0,0,1,1.189-.3,2.165,2.165,0,0,1,1.571.589,2.363,2.363,0,0,1,.679,1.6l.009.325a2.485,2.485,0,0,1-.611,1.756,2.123,2.123,0,0,1-1.639.661,2.134,2.134,0,0,1-1.641-.659,2.529,2.529,0,0,1-.613-1.793ZM66-2.329a1.773,1.773,0,0,0,.255,1.035.841.841,0,0,0,.729.358.843.843,0,0,0,.721-.354,1.94,1.94,0,0,0,.259-1.132,1.755,1.755,0,0,0-.259-1.028.843.843,0,0,0-.729-.365.829.829,0,0,0-.721.363A1.972,1.972,0,0,0,66-2.329Z" transform="translate(330.342 20956.244) rotate(-91.318)"/>
    <path id="Trazado_996589" data-name="Trazado 996589" d="M5.594-2.131A2.264,2.264,0,0,1,4.832-.505,2.678,2.678,0,0,1,3.019.088,2.408,2.408,0,0,1,1.083-.74,3.4,3.4,0,0,1,.378-3.015v-.391A3.836,3.836,0,0,1,.7-5.032a2.437,2.437,0,0,1,.929-1.079,2.6,2.6,0,0,1,1.4-.376,2.609,2.609,0,0,1,1.784.593A2.433,2.433,0,0,1,5.6-4.228H4.285a1.336,1.336,0,0,0-.345-.9,1.277,1.277,0,0,0-.9-.279,1.12,1.12,0,0,0-.987.472,2.648,2.648,0,0,0-.336,1.466v.483a2.834,2.834,0,0,0,.314,1.516,1.1,1.1,0,0,0,.991.479,1.3,1.3,0,0,0,.912-.279,1.26,1.26,0,0,0,.345-.864ZM8.565.088a2.334,2.334,0,0,1-1.7-.642,2.281,2.281,0,0,1-.657-1.709v-.123a2.872,2.872,0,0,1,.277-1.281,2.032,2.032,0,0,1,.784-.87,2.2,2.2,0,0,1,1.158-.305,1.973,1.973,0,0,1,1.536.615,2.5,2.5,0,0,1,.56,1.745v.519H7.493a1.18,1.18,0,0,0,.371.747,1.123,1.123,0,0,0,.784.281A1.371,1.371,0,0,0,9.8-1.468l.624.7a1.907,1.907,0,0,1-.773.631A2.538,2.538,0,0,1,8.565.088Zm-.145-3.9a.8.8,0,0,0-.613.255,1.317,1.317,0,0,0-.3.729H9.272v-.1a.939.939,0,0,0-.229-.653A.821.821,0,0,0,8.42-3.814Zm3.99-.94.04.549a1.66,1.66,0,0,1,1.367-.637,1.38,1.38,0,0,1,1.125.444,2.071,2.071,0,0,1,.378,1.327V0h-1.27V-3.041a.824.824,0,0,0-.176-.587.787.787,0,0,0-.584-.182.874.874,0,0,0-.8.457V0h-1.27V-4.755ZM17.8-5.924v1.169h.813v.932H17.8V-1.45a.567.567,0,0,0,.1.378.508.508,0,0,0,.387.114,2.025,2.025,0,0,0,.374-.031v.962a2.615,2.615,0,0,1-.769.114,1.213,1.213,0,0,1-1.362-1.349V-3.823h-.694v-.932h.694V-5.924Zm4.192,2.36a3.45,3.45,0,0,0-.457-.035.93.93,0,0,0-.945.488V0h-1.27V-4.755h1.2l.035.567a1.177,1.177,0,0,1,1.059-.655,1.331,1.331,0,0,1,.4.057Zm.1,1.143a2.82,2.82,0,0,1,.272-1.261,2,2,0,0,1,.784-.857,2.289,2.289,0,0,1,1.189-.3,2.165,2.165,0,0,1,1.571.589,2.363,2.363,0,0,1,.679,1.6l.009.325A2.485,2.485,0,0,1,25.99-.573a2.123,2.123,0,0,1-1.639.661A2.134,2.134,0,0,1,22.71-.571,2.529,2.529,0,0,1,22.1-2.364Zm1.27.092a1.773,1.773,0,0,0,.255,1.035.841.841,0,0,0,.729.358.843.843,0,0,0,.721-.354,1.94,1.94,0,0,0,.259-1.132,1.755,1.755,0,0,0-.259-1.028.843.843,0,0,0-.729-.365.829.829,0,0,0-.721.363A1.972,1.972,0,0,0,23.367-2.329Zm10.02-3.595v1.169H34.2v.932h-.813V-1.45a.567.567,0,0,0,.1.378.508.508,0,0,0,.387.114,2.025,2.025,0,0,0,.374-.031v.962a2.615,2.615,0,0,1-.769.114,1.213,1.213,0,0,1-1.362-1.349V-3.823h-.694v-.932h.694V-5.924Zm4.192,2.36a3.45,3.45,0,0,0-.457-.035.93.93,0,0,0-.945.488V0h-1.27V-4.755h1.2l.035.567A1.177,1.177,0,0,1,37.2-4.843a1.331,1.331,0,0,1,.4.057ZM40.687,0a1.41,1.41,0,0,1-.127-.426,1.537,1.537,0,0,1-1.2.514,1.688,1.688,0,0,1-1.158-.4,1.3,1.3,0,0,1-.459-1.02A1.344,1.344,0,0,1,38.3-2.5,2.765,2.765,0,0,1,39.922-2.9h.584v-.272a.784.784,0,0,0-.169-.527.666.666,0,0,0-.534-.2.757.757,0,0,0-.5.154.523.523,0,0,0-.182.422h-1.27a1.276,1.276,0,0,1,.255-.765,1.685,1.685,0,0,1,.721-.552,2.627,2.627,0,0,1,1.046-.2,2.075,2.075,0,0,1,1.4.442,1.545,1.545,0,0,1,.516,1.241V-1.1A2.273,2.273,0,0,0,41.97-.075V0Zm-1.05-.883a1.094,1.094,0,0,0,.519-.125.823.823,0,0,0,.352-.336v-.817h-.475q-.954,0-1.015.659l0,.075a.508.508,0,0,0,.167.391A.649.649,0,0,0,39.637-.883Zm5.7-.431a.409.409,0,0,0-.231-.367,2.621,2.621,0,0,0-.74-.24q-1.7-.356-1.7-1.441a1.307,1.307,0,0,1,.525-1.057,2.118,2.118,0,0,1,1.373-.424,2.28,2.28,0,0,1,1.448.426,1.343,1.343,0,0,1,.543,1.107h-1.27a.615.615,0,0,0-.176-.45.744.744,0,0,0-.549-.178.76.76,0,0,0-.5.145.458.458,0,0,0-.176.369.391.391,0,0,0,.2.341,2.057,2.057,0,0,0,.675.224,5.51,5.51,0,0,1,.8.213,1.314,1.314,0,0,1,1.006,1.279,1.24,1.24,0,0,1-.558,1.052,2.408,2.408,0,0,1-1.441.4,2.515,2.515,0,0,1-1.061-.213,1.781,1.781,0,0,1-.727-.584,1.358,1.358,0,0,1-.264-.8h1.2a.663.663,0,0,0,.25.519.994.994,0,0,0,.624.18.92.92,0,0,0,.552-.138A.431.431,0,0,0,45.332-1.314Zm4.241,1.4a2.334,2.334,0,0,1-1.7-.642,2.281,2.281,0,0,1-.657-1.709v-.123a2.872,2.872,0,0,1,.277-1.281,2.032,2.032,0,0,1,.784-.87,2.2,2.2,0,0,1,1.158-.305,1.973,1.973,0,0,1,1.536.615,2.5,2.5,0,0,1,.56,1.745v.519H48.5a1.18,1.18,0,0,0,.371.747,1.123,1.123,0,0,0,.784.281A1.371,1.371,0,0,0,50.8-1.468l.624.7a1.907,1.907,0,0,1-.773.631A2.538,2.538,0,0,1,49.573.088Zm-.145-3.9a.8.8,0,0,0-.613.255,1.317,1.317,0,0,0-.3.729H50.28v-.1a.939.939,0,0,0-.229-.653A.821.821,0,0,0,49.428-3.814Zm5.493.25a3.45,3.45,0,0,0-.457-.035.93.93,0,0,0-.945.488V0h-1.27V-4.755h1.2l.035.567a1.177,1.177,0,0,1,1.059-.655,1.331,1.331,0,0,1,.4.057Zm.1,1.143A2.82,2.82,0,0,1,55.3-3.683a2,2,0,0,1,.784-.857,2.289,2.289,0,0,1,1.189-.3,2.165,2.165,0,0,1,1.571.589,2.363,2.363,0,0,1,.679,1.6l.009.325a2.485,2.485,0,0,1-.611,1.756,2.123,2.123,0,0,1-1.639.661,2.134,2.134,0,0,1-1.641-.659,2.529,2.529,0,0,1-.613-1.793Zm1.27.092a1.773,1.773,0,0,0,.255,1.035.841.841,0,0,0,.729.358A.843.843,0,0,0,58-1.29a1.94,1.94,0,0,0,.259-1.132A1.755,1.755,0,0,0,58-3.45a.843.843,0,0,0-.729-.365.829.829,0,0,0-.721.363A1.972,1.972,0,0,0,56.293-2.329Z" transform="translate(650.811 20953.125) rotate(-91.318)"/>
    <path id="Trazado_996590" data-name="Trazado 996590" d="M.825,0V-9.242H3.669a4.319,4.319,0,0,1,2.18.549,3.829,3.829,0,0,1,1.5,1.562,4.816,4.816,0,0,1,.54,2.3v.425a4.83,4.83,0,0,1-.53,2.292A3.8,3.8,0,0,1,5.865-.559,4.351,4.351,0,0,1,3.688,0Zm1.9-7.7v6.17h.92a2.068,2.068,0,0,0,1.708-.73,3.3,3.3,0,0,0,.6-2.088v-.489a3.351,3.351,0,0,0-.584-2.136A2.061,2.061,0,0,0,3.669-7.7Zm12.1,3.694H11.178V-1.53h4.291V0h-6.2V-9.242h6.183V-7.7H11.178v2.2h3.656ZM18.491-1.53h4.043V0H16.586V-9.242h1.9ZM29.081-1.9H25.742L25.108,0H23.083l3.44-9.242h1.765L31.747,0H29.722ZM26.257-3.447h2.311L27.406-6.906ZM40.126,0h-1.9L34.515-6.081V0h-1.9V-9.242h1.9l3.713,6.094V-9.242h1.9Zm8.438-7.7H45.733V0h-1.9V-7.7H41.036V-9.242h7.528ZM55.21-4.005H51.554V-1.53h4.291V0h-6.2V-9.242h6.183V-7.7H51.554v2.2H55.21Zm5.173.622H58.867V0h-1.9V-9.242H60.4a3.882,3.882,0,0,1,2.526.73,2.519,2.519,0,0,1,.889,2.063A2.843,2.843,0,0,1,63.4-4.872a2.792,2.792,0,0,1-1.241,1.006l2,3.777V0H62.117ZM58.867-4.926H60.4a1.573,1.573,0,0,0,1.111-.365A1.3,1.3,0,0,0,61.907-6.3a1.4,1.4,0,0,0-.371-1.028A1.543,1.543,0,0,0,60.4-7.7h-1.53ZM70.477-1.9H67.138L66.5,0H64.478l3.44-9.242h1.765L73.143,0H71.118ZM67.652-3.447h2.311L68.8-6.906Z" transform="translate(358.229 20753.545)"/>
    <path id="Trazado_996591" data-name="Trazado 996591" d="M6.386-4.005H2.729V-1.53H7.021V0H.825V-9.242H7.008V-7.7H2.729v2.2H6.386ZM9.953,0H8.112V-9.75H9.953ZM13.4,0H11.559V-6.868H13.4ZM11.451-8.646a.9.9,0,0,1,.276-.679,1.037,1.037,0,0,1,.752-.267,1.04,1.04,0,0,1,.749.267.9.9,0,0,1,.279.679.9.9,0,0,1-.282.686,1.042,1.042,0,0,1-.746.267,1.042,1.042,0,0,1-.746-.267A.9.9,0,0,1,11.451-8.646Zm5.18,1.777.057.768A2.414,2.414,0,0,1,18.662-7a1.832,1.832,0,0,1,1.822,1.047A2.358,2.358,0,0,1,22.547-7a2.049,2.049,0,0,1,1.663.651,2.991,2.991,0,0,1,.546,1.958V0H22.915V-4.38a1.308,1.308,0,0,0-.229-.854,1.013,1.013,0,0,0-.806-.27,1.145,1.145,0,0,0-1.143.787L20.744,0H18.91V-4.374a1.292,1.292,0,0,0-.235-.863,1.023,1.023,0,0,0-.8-.267,1.189,1.189,0,0,0-1.13.647V0H14.911V-6.868ZM28.1,0H26.26V-6.868H28.1ZM26.152-8.646a.9.9,0,0,1,.276-.679,1.037,1.037,0,0,1,.752-.267,1.04,1.04,0,0,1,.749.267.9.9,0,0,1,.279.679.9.9,0,0,1-.282.686,1.042,1.042,0,0,1-.746.267,1.042,1.042,0,0,1-.746-.267A.9.9,0,0,1,26.152-8.646ZM31.3-6.868l.057.793A2.4,2.4,0,0,1,33.332-7a1.993,1.993,0,0,1,1.625.641A2.991,2.991,0,0,1,35.5-4.437V0H33.668V-4.393a1.19,1.19,0,0,0-.254-.847A1.137,1.137,0,0,0,32.57-5.5a1.262,1.262,0,0,0-1.162.66V0H29.574V-6.868ZM40.873,0a2.037,2.037,0,0,1-.184-.616,2.22,2.22,0,0,1-1.733.743,2.439,2.439,0,0,1-1.673-.584A1.878,1.878,0,0,1,36.62-1.93a1.941,1.941,0,0,1,.809-1.676,3.994,3.994,0,0,1,2.339-.59h.844v-.394a1.132,1.132,0,0,0-.244-.762.961.961,0,0,0-.771-.286,1.093,1.093,0,0,0-.727.222.755.755,0,0,0-.263.609H36.772a1.843,1.843,0,0,1,.368-1.1,2.434,2.434,0,0,1,1.041-.8A3.794,3.794,0,0,1,39.692-7a3,3,0,0,1,2.015.638,2.232,2.232,0,0,1,.746,1.793v2.977a3.284,3.284,0,0,0,.273,1.479V0ZM39.355-1.276a1.58,1.58,0,0,0,.749-.181,1.188,1.188,0,0,0,.508-.486V-3.123h-.686q-1.377,0-1.466.952l-.006.108A.734.734,0,0,0,38.7-1.5.937.937,0,0,0,39.355-1.276Zm8.366-3.872a4.984,4.984,0,0,0-.66-.051,1.344,1.344,0,0,0-1.365.7V0H43.862V-6.868H45.6l.051.819A1.7,1.7,0,0,1,47.176-7a1.922,1.922,0,0,1,.571.083Zm6.976,3.8a1.2,1.2,0,0,0,.825-.279.979.979,0,0,0,.33-.743h1.72a2.353,2.353,0,0,1-.381,1.279,2.513,2.513,0,0,1-1.025.9,3.208,3.208,0,0,1-1.438.321,2.982,2.982,0,0,1-2.323-.936A3.705,3.705,0,0,1,51.556-3.4v-.121A3.663,3.663,0,0,1,52.4-6.049,2.947,2.947,0,0,1,54.717-7a2.889,2.889,0,0,1,2.066.733,2.6,2.6,0,0,1,.79,1.952h-1.72a1.25,1.25,0,0,0-.33-.866,1.1,1.1,0,0,0-.838-.333,1.105,1.105,0,0,0-.968.467,2.7,2.7,0,0,0-.327,1.514v.19a2.735,2.735,0,0,0,.324,1.523A1.119,1.119,0,0,0,54.7-1.352ZM60.557,0H58.716V-6.868h1.841ZM58.608-8.646a.9.9,0,0,1,.276-.679,1.037,1.037,0,0,1,.752-.267,1.04,1.04,0,0,1,.749.267.9.9,0,0,1,.279.679.9.9,0,0,1-.282.686,1.042,1.042,0,0,1-.746.267,1.042,1.042,0,0,1-.746-.267A.9.9,0,0,1,58.608-8.646Zm5.148,1.777.057.793A2.4,2.4,0,0,1,65.787-7a1.993,1.993,0,0,1,1.625.641,2.991,2.991,0,0,1,.546,1.917V0H66.124V-4.393a1.19,1.19,0,0,0-.254-.847,1.137,1.137,0,0,0-.844-.263,1.262,1.262,0,0,0-1.162.66V0H62.029V-6.868Zm7.789-1.688v1.688h1.174v1.346H71.544v3.428a.818.818,0,0,0,.146.546.733.733,0,0,0,.559.165,2.925,2.925,0,0,0,.54-.044v1.39a3.777,3.777,0,0,1-1.111.165A1.752,1.752,0,0,1,69.71-1.822v-3.7h-1V-6.868h1V-8.557ZM77.854-.7a2.3,2.3,0,0,1-1.879.825A2.17,2.17,0,0,1,74.29-.508a2.71,2.71,0,0,1-.594-1.86v-4.5h1.834v4.437q0,1.073.978,1.073a1.325,1.325,0,0,0,1.282-.647V-6.868h1.841V0H77.9Zm7.021-4.45a4.984,4.984,0,0,0-.66-.051,1.344,1.344,0,0,0-1.365.7V0H81.015V-6.868h1.733l.051.819A1.7,1.7,0,0,1,84.329-7a1.922,1.922,0,0,1,.571.083ZM89.364,0a2.037,2.037,0,0,1-.184-.616,2.22,2.22,0,0,1-1.733.743,2.439,2.439,0,0,1-1.673-.584,1.878,1.878,0,0,1-.663-1.473,1.941,1.941,0,0,1,.809-1.676A3.994,3.994,0,0,1,88.26-4.2H89.1v-.394a1.132,1.132,0,0,0-.244-.762.961.961,0,0,0-.771-.286,1.093,1.093,0,0,0-.727.222.755.755,0,0,0-.263.609H85.264a1.843,1.843,0,0,1,.368-1.1,2.434,2.434,0,0,1,1.041-.8A3.794,3.794,0,0,1,88.184-7a3,3,0,0,1,2.015.638,2.232,2.232,0,0,1,.746,1.793v2.977a3.284,3.284,0,0,0,.273,1.479V0ZM87.847-1.276a1.58,1.58,0,0,0,.749-.181,1.188,1.188,0,0,0,.508-.486V-3.123h-.686q-1.377,0-1.466.952l-.006.108a.734.734,0,0,0,.241.565A.937.937,0,0,0,87.847-1.276Z" transform="translate(338.976 20813.564)"/>
    <path id="Trazado_996592" data-name="Trazado 996592" d="M6.386-4.005H2.729V-1.53H7.021V0H.825V-9.242H7.008V-7.7H2.729v2.2H6.386ZM9.953,0H8.112V-9.75H9.953ZM13.4,0H11.559V-6.868H13.4ZM11.451-8.646a.9.9,0,0,1,.276-.679,1.037,1.037,0,0,1,.752-.267,1.04,1.04,0,0,1,.749.267.9.9,0,0,1,.279.679.9.9,0,0,1-.282.686,1.042,1.042,0,0,1-.746.267,1.042,1.042,0,0,1-.746-.267A.9.9,0,0,1,11.451-8.646Zm5.18,1.777.057.768A2.414,2.414,0,0,1,18.662-7a1.832,1.832,0,0,1,1.822,1.047A2.358,2.358,0,0,1,22.547-7a2.049,2.049,0,0,1,1.663.651,2.991,2.991,0,0,1,.546,1.958V0H22.915V-4.38a1.308,1.308,0,0,0-.229-.854,1.013,1.013,0,0,0-.806-.27,1.145,1.145,0,0,0-1.143.787L20.744,0H18.91V-4.374a1.292,1.292,0,0,0-.235-.863,1.023,1.023,0,0,0-.8-.267,1.189,1.189,0,0,0-1.13.647V0H14.911V-6.868ZM28.1,0H26.26V-6.868H28.1ZM26.152-8.646a.9.9,0,0,1,.276-.679,1.037,1.037,0,0,1,.752-.267,1.04,1.04,0,0,1,.749.267.9.9,0,0,1,.279.679.9.9,0,0,1-.282.686,1.042,1.042,0,0,1-.746.267,1.042,1.042,0,0,1-.746-.267A.9.9,0,0,1,26.152-8.646ZM31.3-6.868l.057.793A2.4,2.4,0,0,1,33.332-7a1.993,1.993,0,0,1,1.625.641A2.991,2.991,0,0,1,35.5-4.437V0H33.668V-4.393a1.19,1.19,0,0,0-.254-.847A1.137,1.137,0,0,0,32.57-5.5a1.262,1.262,0,0,0-1.162.66V0H29.574V-6.868ZM40.873,0a2.037,2.037,0,0,1-.184-.616,2.22,2.22,0,0,1-1.733.743,2.439,2.439,0,0,1-1.673-.584A1.878,1.878,0,0,1,36.62-1.93a1.941,1.941,0,0,1,.809-1.676,3.994,3.994,0,0,1,2.339-.59h.844v-.394a1.132,1.132,0,0,0-.244-.762.961.961,0,0,0-.771-.286,1.093,1.093,0,0,0-.727.222.755.755,0,0,0-.263.609H36.772a1.843,1.843,0,0,1,.368-1.1,2.434,2.434,0,0,1,1.041-.8A3.794,3.794,0,0,1,39.692-7a3,3,0,0,1,2.015.638,2.232,2.232,0,0,1,.746,1.793v2.977a3.284,3.284,0,0,0,.273,1.479V0ZM39.355-1.276a1.58,1.58,0,0,0,.749-.181,1.188,1.188,0,0,0,.508-.486V-3.123h-.686q-1.377,0-1.466.952l-.006.108A.734.734,0,0,0,38.7-1.5.937.937,0,0,0,39.355-1.276Zm8.366-3.872a4.984,4.984,0,0,0-.66-.051,1.344,1.344,0,0,0-1.365.7V0H43.862V-6.868H45.6l.051.819A1.7,1.7,0,0,1,47.176-7a1.922,1.922,0,0,1,.571.083Zm6.976,3.8a1.2,1.2,0,0,0,.825-.279.979.979,0,0,0,.33-.743h1.72a2.353,2.353,0,0,1-.381,1.279,2.513,2.513,0,0,1-1.025.9,3.208,3.208,0,0,1-1.438.321,2.982,2.982,0,0,1-2.323-.936A3.705,3.705,0,0,1,51.556-3.4v-.121A3.663,3.663,0,0,1,52.4-6.049,2.947,2.947,0,0,1,54.717-7a2.889,2.889,0,0,1,2.066.733,2.6,2.6,0,0,1,.79,1.952h-1.72a1.25,1.25,0,0,0-.33-.866,1.1,1.1,0,0,0-.838-.333,1.105,1.105,0,0,0-.968.467,2.7,2.7,0,0,0-.327,1.514v.19a2.735,2.735,0,0,0,.324,1.523A1.119,1.119,0,0,0,54.7-1.352ZM60.557,0H58.716V-6.868h1.841ZM58.608-8.646a.9.9,0,0,1,.276-.679,1.037,1.037,0,0,1,.752-.267,1.04,1.04,0,0,1,.749.267.9.9,0,0,1,.279.679.9.9,0,0,1-.282.686,1.042,1.042,0,0,1-.746.267,1.042,1.042,0,0,1-.746-.267A.9.9,0,0,1,58.608-8.646Zm5.148,1.777.057.793A2.4,2.4,0,0,1,65.787-7a1.993,1.993,0,0,1,1.625.641,2.991,2.991,0,0,1,.546,1.917V0H66.124V-4.393a1.19,1.19,0,0,0-.254-.847,1.137,1.137,0,0,0-.844-.263,1.262,1.262,0,0,0-1.162.66V0H62.029V-6.868Zm7.789-1.688v1.688h1.174v1.346H71.544v3.428a.818.818,0,0,0,.146.546.733.733,0,0,0,.559.165,2.925,2.925,0,0,0,.54-.044v1.39a3.777,3.777,0,0,1-1.111.165A1.752,1.752,0,0,1,69.71-1.822v-3.7h-1V-6.868h1V-8.557ZM77.854-.7a2.3,2.3,0,0,1-1.879.825A2.17,2.17,0,0,1,74.29-.508a2.71,2.71,0,0,1-.594-1.86v-4.5h1.834v4.437q0,1.073.978,1.073a1.325,1.325,0,0,0,1.282-.647V-6.868h1.841V0H77.9Zm7.021-4.45a4.984,4.984,0,0,0-.66-.051,1.344,1.344,0,0,0-1.365.7V0H81.015V-6.868h1.733l.051.819A1.7,1.7,0,0,1,84.329-7a1.922,1.922,0,0,1,.571.083ZM89.364,0a2.037,2.037,0,0,1-.184-.616,2.22,2.22,0,0,1-1.733.743,2.439,2.439,0,0,1-1.673-.584,1.878,1.878,0,0,1-.663-1.473,1.941,1.941,0,0,1,.809-1.676A3.994,3.994,0,0,1,88.26-4.2H89.1v-.394a1.132,1.132,0,0,0-.244-.762.961.961,0,0,0-.771-.286,1.093,1.093,0,0,0-.727.222.755.755,0,0,0-.263.609H85.264a1.843,1.843,0,0,1,.368-1.1,2.434,2.434,0,0,1,1.041-.8A3.794,3.794,0,0,1,88.184-7a3,3,0,0,1,2.015.638,2.232,2.232,0,0,1,.746,1.793v2.977a3.284,3.284,0,0,0,.273,1.479V0ZM87.847-1.276a1.58,1.58,0,0,0,.749-.181,1.188,1.188,0,0,0,.508-.486V-3.123h-.686q-1.377,0-1.466.952l-.006.108a.734.734,0,0,0,.241.565A.937.937,0,0,0,87.847-1.276Z" transform="translate(543.673 20813.564)"/>
    <path id="Trazado_996593" data-name="Trazado 996593" d="M7.782-7.7H4.951V0h-1.9V-7.7H.254V-9.242H7.782Zm4.507,4.316H10.772V0h-1.9V-9.242H12.3a3.882,3.882,0,0,1,2.526.73,2.519,2.519,0,0,1,.889,2.063,2.843,2.843,0,0,1-.409,1.577,2.792,2.792,0,0,1-1.241,1.006l2,3.777V0H14.022ZM10.772-4.926h1.536a1.573,1.573,0,0,0,1.111-.365A1.3,1.3,0,0,0,13.813-6.3a1.4,1.4,0,0,0-.371-1.028A1.543,1.543,0,0,0,12.3-7.7h-1.53ZM22.382-1.9H19.043L18.408,0H16.383l3.44-9.242h1.765L25.048,0H23.023ZM19.557-3.447h2.311L20.706-6.906ZM30.7-2.425a.977.977,0,0,0-.381-.828,5,5,0,0,0-1.371-.609,9.72,9.72,0,0,1-1.568-.632A2.562,2.562,0,0,1,25.81-6.786a2.232,2.232,0,0,1,.422-1.336,2.753,2.753,0,0,1,1.212-.917,4.563,4.563,0,0,1,1.774-.33,4.154,4.154,0,0,1,1.765.359A2.81,2.81,0,0,1,32.186-8a2.649,2.649,0,0,1,.428,1.485h-1.9a1.246,1.246,0,0,0-.4-.987,1.644,1.644,0,0,0-1.124-.352,1.756,1.756,0,0,0-1.085.3.931.931,0,0,0-.387.778.892.892,0,0,0,.454.755,5.128,5.128,0,0,0,1.336.571A5.773,5.773,0,0,1,31.872-4.24a2.415,2.415,0,0,1,.743,1.8,2.224,2.224,0,0,1-.908,1.882,3.974,3.974,0,0,1-2.444.682,4.719,4.719,0,0,1-1.942-.39,3.074,3.074,0,0,1-1.336-1.07,2.739,2.739,0,0,1-.46-1.574h1.911q0,1.53,1.828,1.53a1.778,1.778,0,0,0,1.06-.276A.9.9,0,0,0,30.7-2.425Zm8.76-1.581H35.807V-1.53H40.1V0H33.9V-9.242h6.183V-7.7H35.807v2.2h3.656Zm5.173.622H43.12V0h-1.9V-9.242h3.434a3.882,3.882,0,0,1,2.526.73,2.519,2.519,0,0,1,.889,2.063,2.843,2.843,0,0,1-.409,1.577,2.792,2.792,0,0,1-1.241,1.006l2,3.777V0H46.37ZM43.12-4.926h1.536a1.573,1.573,0,0,0,1.111-.365A1.3,1.3,0,0,0,46.16-6.3a1.4,1.4,0,0,0-.371-1.028A1.543,1.543,0,0,0,44.649-7.7H43.12ZM54.729-1.9H51.391L50.756,0H48.731l3.44-9.242h1.765L57.4,0H55.371ZM51.9-3.447h2.311L53.054-6.906Z" transform="translate(554.849 20752.004)"/>
    <g id="Grupo_1177275" data-name="Grupo 1177275" transform="translate(263.711 20585)">
      <g id="Grupo_1177274" data-name="Grupo 1177274" clip-path="url(#clip-path-2)">
        <path id="Trazado_996366" data-name="Trazado 996366" d="M805.9,1122.009,803.42,1103.2c-7.632-17.686-37.73-20.589-38.034-20.616l-.143-.025c-9.722-2.564-19.425-8.136-28.843-16.561a142.724,142.724,0,0,1-21.823-25.356,209.477,209.477,0,0,1-18.735-33.413c-6.349-15.049-14.9-23.782-20.957-28.458a40.161,40.161,0,0,0-11.742-6.611l-.759-.221.15-.776L676.9,897.432H826.233v.885l1.514-.044,6.034,205.146Zm-40.28-41.147a78.308,78.308,0,0,1,16.585,3.732c11.646,4.011,19.55,10.246,22.859,18.033l.046.109.015.117,2.129,16.172,24.771-16.514L826.04,899.164H678.324l-13.945,71.578a44.109,44.109,0,0,1,11.484,6.591c6.246,4.8,15.059,13.774,21.575,29.219a207.636,207.636,0,0,0,18.583,33.129c10.806,15.655,28.179,35.5,49.594,41.18" transform="translate(-432.917 -586.538)" fill="#0000b5"/>
        <path id="Trazado_996367" data-name="Trazado 996367" d="M665.426,217.707l-9.895-35.948.834-.23C697.448,170.2,711.8,135.831,716.6,109c5.224-29.188.624-56.012.577-56.28l-.152-.865,15.8-2.549.288.556C743.48,69.883,765.568,80.619,782.271,86.1a160.838,160.838,0,0,0,34.2,7.176l.792.057,1.859,124.13-1.732.026L815.559,94.935a165.374,165.374,0,0,1-33.828-7.189A113.948,113.948,0,0,1,753.572,74.4c-9.689-6.53-16.987-14.327-21.7-23.183l-12.85,2.073c.742,4.868,4.032,29.488-.716,56.018-3.107,17.359-8.995,32.14-17.5,43.931-10.494,14.549-25.006,24.547-43.144,29.728l9.436,34.283Z" transform="translate(-428.439 -32.223)" fill="#0000b5"/>
        <path id="Trazado_996368" data-name="Trazado 996368" d="M167.532,1237.526l-1.491-.816a195.017,195.017,0,0,0-24.939-11.26l.579-1.633a198.4,198.4,0,0,1,23.744,10.591,168.335,168.335,0,0,1,.935-36.356,139.9,139.9,0,0,1,8.985-34.511,99.977,99.977,0,0,1,21.906-33.361c25.182-24.936,63.77-34.007,114.7-26.961l-.238,1.716c-50.364-6.97-88.465,1.939-113.243,26.476-20.408,20.208-27.792,47.519-30.394,66.872a161.1,161.1,0,0,0-.761,37.557Z" transform="translate(-92.22 -719.524)" fill="#0000b5"/>
        <path id="Trazado_996369" data-name="Trazado 996369" d="M321.446,210.908l-1.687-.393,7.885-33.908a51.453,51.453,0,0,1-12.295-3.082,63.221,63.221,0,0,1-26.377-19.057c-8.557-10.36-14.572-23.812-17.876-39.981-3.989-19.525-4.043-43.2-.161-70.374L260.7,41.1a161.542,161.542,0,0,1-19.431,39.082,129.069,129.069,0,0,1-27.969,30.1,100.145,100.145,0,0,1-42.4,19.153l-2.235,81.3-1.731-.047,2.273-82.7.69-.127c34.761-6.384,57.2-29.959,69.908-48.611a156.993,156.993,0,0,0,19.487-39.464l.243-.834,13.332,3.921-.108.743c-7.246,49.918-1.351,86.829,17.52,109.709,16.813,20.384,38.262,21.625,38.477,21.635l1.038.049-.235,1.012Z" transform="translate(-109.103 -25.459)" fill="#0000b5"/>
        <rect id="Rectángulo_454834" data-name="Rectángulo 454834" width="2.945" height="1.039" transform="matrix(0.058, -0.998, 0.998, 0.058, 60.43, 103.226)" fill="aqua"/>
        <path id="Trazado_996370" data-name="Trazado 996370" d="M177.044,185.669l-1.037-.06.373-6.455,1.037.06Zm.746-12.91-1.037-.06.373-6.455,1.038.06Zm.746-12.91-1.037-.06.373-6.455,1.037.06Zm.745-12.91-1.037-.06.373-6.455,1.037.06Z" transform="translate(-115.034 -91.777)" fill="#ffa200"/>
        <path id="Trazado_996371" data-name="Trazado 996371" d="M185.654,115.364l-1.037-.06.2-3.439.5.01c1,.02,1.982.021,2.926,0l.019,1.04c-.8.015-1.625.016-2.466,0Z" transform="translate(-120.661 -73.11)" fill="aqua"/>
        <path id="Trazado_996372" data-name="Trazado 996372" d="M210.76,58.414l-.1-1.034c1.831-.186,3.625-.455,5.332-.8l.205,1.019c-1.74.35-3.568.623-5.432.812m10.755-2.2-.32-.989a41.011,41.011,0,0,0,4.994-1.979l.447.938a42,42,0,0,1-5.121,2.029m9.916-4.753-.579-.863a34.736,34.736,0,0,0,4.208-3.319l.705.764a35.813,35.813,0,0,1-4.334,3.418M239.519,44l-.815-.646a36.424,36.424,0,0,0,3.009-4.444l.9.518A37.425,37.425,0,0,1,239.519,44m5.509-9.533-.963-.391a42.763,42.763,0,0,0,1.7-5.107l1,.266a43.807,43.807,0,0,1-1.744,5.232" transform="translate(-137.679 -18.929)" fill="#ffa200"/>
        <path id="Trazado_996373" data-name="Trazado 996373" d="M316.08,7.051l-1.031-.136a27.2,27.2,0,0,0,.25-2.869l.009-.7,3.472,1.123-.32.989-2.152-.7c-.032.515-.1,1.3-.228,2.295" transform="translate(-205.908 -2.183)" fill="aqua"/>
        <path id="Trazado_996374" data-name="Trazado 996374" d="M419.6,38.227l-5.295-1.714.32-.989,5.295,1.714ZM409.011,34.8l-5.3-1.714.32-.988,5.295,1.714Zm-10.59-3.428-5.295-1.714.32-.988,5.295,1.713Zm-10.59-3.428-5.294-1.714.32-.989,5.295,1.714Zm-10.589-3.427-5.3-1.714.32-.988,5.295,1.714Zm-10.59-3.428-5.295-1.713.32-.989,5.3,1.714Zm-10.59-3.427-5.295-1.714.32-.988,5.294,1.714Zm-10.589-3.428-5.3-1.714.32-.989,5.295,1.714Z" transform="translate(-222.332 -7.536)" fill="#ffa200"/>
        <path id="Trazado_996375" data-name="Trazado 996375" d="M587.248,95.04l-.987-.324q.375-1.142.763-2.3l-2.3-.745.32-.988,3.3,1.068-.167.5q-.473,1.408-.927,2.792" transform="translate(-382.159 -59.266)" fill="aqua"/>
        <path id="Trazado_996376" data-name="Trazado 996376" d="M579.5,218.752a29.289,29.289,0,0,1-5.989-1.171l.306-.993a28.254,28.254,0,0,0,5.776,1.129Zm6.11-.089-.145-1.029c.14-.019.22-.033.234-.036l.091-.008c.2,0,.4.006.589.006a25.406,25.406,0,0,0,5.01-.48l.206,1.019a26.738,26.738,0,0,1-5.766.5l-.218.033m11.753-2.538-.477-.924a21.05,21.05,0,0,0,4.745-3.376l.712.757a22.084,22.084,0,0,1-4.98,3.543m-29.444-.995a25.787,25.787,0,0,1-4.862-3.688l.721-.748a24.737,24.737,0,0,0,4.666,3.539Zm38.341-7.22-.864-.578a35.555,35.555,0,0,0,2.837-5.177l.948.426a36.627,36.627,0,0,1-2.921,5.328m-47.093-1.155a34.036,34.036,0,0,1-2.88-5.35l.954-.412a33.026,33.026,0,0,0,2.792,5.186Zm52.142-9.846-.993-.309c.559-1.8,1.064-3.738,1.5-5.761l1.016.219c-.441,2.053-.953,4.022-1.522,5.851m-57.01-1.228a55.572,55.572,0,0,1-1.259-5.913l1.026-.163a54.554,54.554,0,0,0,1.235,5.8Zm59.588-10.566-1.028-.148c.272-1.893.5-3.889.682-5.933l1.036.091c-.183,2.063-.415,4.078-.69,5.99m-61.525-1.345c-.138-1.923-.211-3.949-.217-6.023l1.039,0c.006,2.05.078,4.052.214,5.951Zm62.609-10.656-1.039-.046c.085-1.925.135-3.937.15-5.98l1.039.007c-.015,2.056-.066,4.081-.151,6.018m-61.632-1.336-1.038-.055c.1-1.935.258-3.955.462-6l1.034.1c-.2,2.033-.356,4.037-.458,5.956M614.028,161.1c-.048-1.941-.125-3.955-.231-5.987l1.038-.054c.106,2.041.184,4.065.232,6.015Zm-59.52-1.216-1.029-.143c.269-1.932.582-3.932.931-5.943l1.024.177c-.347,2-.658,3.988-.926,5.909m58.9-10.746c-.148-1.942-.324-3.95-.522-5.967l1.034-.1c.2,2.025.375,4.04.525,5.99ZM556.543,148.1l-1.018-.207c.39-1.916.818-3.893,1.274-5.875l1.013.233c-.453,1.974-.881,3.942-1.269,5.849m55.7-10.881c-.233-1.964-.49-3.964-.764-5.943l1.03-.142c.274,1.985.532,3.992.766,5.963Zm-53.021-.788-1.007-.255c.479-1.89,1-3.845,1.536-5.81l1,.275c-.539,1.958-1.054,3.906-1.531,5.789M610.6,125.348c-.311-1.984-.641-3.972-.982-5.912l1.024-.18c.341,1.946.673,3.941.984,5.931Zm-48.213-.467-1-.293c.551-1.872,1.137-3.805,1.744-5.748l.992.31c-.6,1.937-1.189,3.865-1.738,5.732" transform="translate(-360.868 -77.67)" fill="#ffa200"/>
        <path id="Trazado_996377" data-name="Trazado 996377" d="M713.532,95.244c-.362-1.826-.59-2.861-.592-2.871l-.106-.478,3.3-.941.285,1-2.364.673c.1.477.273,1.3.494,2.416Z" transform="translate(-465.89 -59.444)" fill="aqua"/>
        <path id="Trazado_996378" data-name="Trazado 996378" d="M739.962,45.1l-.285-1,6-1.709.285,1Zm11.993-3.418-.285-1,6-1.709.285,1Zm11.994-3.419-.285-1,6-1.709.285,1Zm11.993-3.418-.285-1,6-1.709.285,1Zm11.993-3.419-.285-1,6-1.709.285,1Zm11.993-3.419-.285-1,6-1.709.285,1Zm11.993-3.418-.285-1,6-1.709.285,1Z" transform="translate(-483.434 -14.301)" fill="#ffa200"/>
        <path id="Trazado_996379" data-name="Trazado 996379" d="M986.566,17.5a20.9,20.9,0,0,1-1.778-1.979l-2.485.708-.285-1,3.194-.91.211.312a17,17,0,0,0,1.877,2.132Z" transform="translate(-641.822 -9.358)" fill="aqua"/>
        <path id="Trazado_996380" data-name="Trazado 996380" d="M1037.412,45.114c-2.044-.454-4.061-.96-5.994-1.5l.282-1c1.914.539,3.912,1.04,5.937,1.49Zm-11.89-3.37c-1.992-.7-3.929-1.468-5.756-2.274l.419-.951c1.8.8,3.715,1.55,5.683,2.246Zm-11.31-5.021a54.829,54.829,0,0,1-5.256-3.3l.6-.846a53.632,53.632,0,0,0,5.156,3.239Z" transform="translate(-659.428 -21.289)" fill="#ffa200"/>
        <path id="Trazado_996381" data-name="Trazado 996381" d="M1111.172,73.174l-.063-2.508c-.835-.127-1.67-.261-2.487-.4l.175-1.025c.952.162,1.926.318,2.9.462l.432.064.085,3.381Z" transform="translate(-724.567 -45.253)" fill="aqua"/>
        <path id="Trazado_996382" data-name="Trazado 996382" d="M1116.9,117.118l-.155-6.212,1.039-.026.155,6.213Zm-.31-12.426-.156-6.213,1.039-.026.155,6.213Z" transform="translate(-729.671 -64.346)" fill="#ffa200"/>
        <rect id="Rectángulo_454835" data-name="Rectángulo 454835" width="1.04" height="2.944" transform="matrix(1, -0.025, 0.025, 1, 387.381, 58.986)" fill="aqua"/>
        <path id="Trazado_996383" data-name="Trazado 996383" d="M501.663,271.884l-5.887-.15.026-1.039,5.887.15Zm-11.774-.3-5.887-.15.026-1.039,5.888.15Zm-11.775-.3-5.887-.15.027-1.039,5.887.15Zm-11.775-.3-5.887-.15.026-1.039,5.888.149Zm-11.774-.3-5.887-.15.026-1.039,5.887.15Zm-11.775-.3-5.887-.151.026-1.039,5.887.151Zm-11.775-.3-5.888-.15.027-1.039,5.887.15Zm-11.775-.3-5.888-.15.026-1.039,5.888.15Zm-11.775-.3-5.887-.15.026-1.039,5.887.15Zm-11.775-.3-5.887-.15.026-1.039,5.887.15Zm-11.775-.3-5.887-.15.027-1.039,5.887.151Zm-11.774-.3-5.887-.15.026-1.039,5.888.15Zm-11.775-.3-5.887-.15.026-1.039,5.887.15Zm-11.775-.3-5.887-.15.026-1.039,5.887.15Zm-11.775-.3-5.888-.15.026-1.039,5.888.15Zm-11.775-.3-5.887-.15.026-1.039,5.887.15Zm-11.775-.3-5.887-.15.026-1.039,5.887.15Zm-11.775-.3-5.887-.15.026-1.039,5.887.15Zm-11.775-.3-5.888-.15.026-1.039,5.888.15Zm-11.775-.3-5.887-.15.026-1.039,5.887.15Zm-11.775-.3-5.887-.15.026-1.039,5.887.15Zm-11.774-.3-5.888-.15.027-1.039,5.887.15Zm-11.775-.3-5.887-.151.026-1.039,5.887.15Zm-11.775-.3-5.887-.15.026-1.039,5.887.15Zm-11.775-.3-5.887-.15.026-1.039,5.887.15Zm-11.774-.3-5.888-.15.027-1.039,5.887.15Zm-11.775-.3-5.887-.149.026-1.039,5.887.15Zm-11.775-.3-5.887-.15.026-1.039,5.887.15Z" transform="translate(-116.245 -171.625)" fill="#ffa200"/>
        <path id="Trazado_996384" data-name="Trazado 996384" d="M498.053,760.6h-5.889V759.56h5.889Zm-11.779,0h-5.889V759.56h5.889Zm-11.778,0h-5.889V759.56H474.5Zm-11.778,0h-5.889V759.56h5.889Zm-11.778,0H445.05V759.56h5.889Zm-11.778,0h-5.889V759.56h5.889Zm-11.779,0h-5.889V759.56h5.889Zm-11.778,0h-5.889V759.56H415.6Zm-11.778,0h-5.889V759.56h5.889Zm-11.778,0h-5.889V759.56h5.889Zm-11.779,0h-5.889V759.56h5.889Zm-11.778,0H362.6V759.56h5.889Zm-11.778,0h-5.889V759.56h5.889Zm-11.779,0h-5.889V759.56h5.889Zm-11.778,0h-5.889V759.56h5.889Zm-11.778,0h-5.889V759.56h5.889Zm-11.779,0h-5.889V759.56H309.6Zm-11.778,0H291.93V759.56h5.889Zm-11.778,0h-5.889V759.56h5.889Zm-11.778,0h-5.889V759.56h5.889Zm-11.778,0h-5.889V759.56h5.889Zm-11.778,0h-5.889V759.56h5.889Zm-11.778,0h-5.889V759.56h5.889Zm-11.778,0h-5.889V759.56h5.889Zm-11.778,0h-5.889V759.56h5.889Zm-11.778,0H197.7V759.56h5.889Zm-11.778,0h-5.889V759.56h5.889Zm-11.778,0h-5.889V759.56h5.889Zm-11.778,0h-5.889V759.56h5.889Z" transform="translate(-106.119 -496.428)" fill="#ffa200"/>
        <path id="Trazado_996385" data-name="Trazado 996385" d="M63.221,1535.6c0-.014-.036-1.4-.132-3.931l1.039-.04c.1,2.536.132,3.93.132,3.944Zm-.383-9.841c-.082-1.757-.18-3.73-.3-5.9l1.038-.055c.117,2.173.215,4.148.3,5.908Zm-.632-11.8q-.168-2.795-.371-5.89l1.037-.068q.2,3.1.371,5.9Zm-.775-11.775q-.2-2.847-.437-5.882l1.036-.08q.234,3.036.438,5.887Zm-.907-11.759q-.237-2.872-.5-5.875l1.035-.091q.265,3,.5,5.88Zm-1.036-11.746q-.27-2.884-.566-5.867l1.034-.1q.3,2.984.567,5.873Zm-1.166-11.731q-.3-2.892-.632-5.86l1.033-.114q.329,2.969.633,5.866Zm-1.3-11.715q-.338-2.9-.7-5.852l1.032-.126q.363,2.956.7,5.858Zm-1.436-11.7q-.374-2.9-.772-5.842l1.03-.14q.4,2.944.773,5.848Zm-1.581-11.678q-.412-2.9-.847-5.831l1.028-.153q.436,2.934.849,5.838Zm-1.734-11.655q-.451-2.9-.928-5.818l1.026-.167q.477,2.922.929,5.825Zm-1.9-11.628q-.495-2.9-1.014-5.8l1.023-.182q.521,2.911,1.016,5.81Zm-2.075-11.6c-.364-1.944-.736-3.89-1.108-5.786l1.02-.2c.372,1.9.746,3.848,1.11,5.794Zm-2.266-11.56c-.4-1.953-.809-3.9-1.214-5.78l1.016-.218c.4,1.885.814,3.833,1.216,5.789Zm-2.479-11.539c-.429-1.906-.874-3.836-1.322-5.736l1.011-.239c.449,1.9.895,3.837,1.325,5.747Zm-2.7-11.448c-.475-1.919-.962-3.839-1.447-5.708l1.006-.261c.486,1.872.974,3.8,1.45,5.719Zm-2.962-11.4c-.521-1.907-1.055-3.815-1.587-5.67l1-.287c.534,1.859,1.069,3.771,1.591,5.683Zm-3.249-11.317c-.57-1.887-1.157-3.778-1.745-5.622l.99-.315c.589,1.849,1.177,3.745,1.749,5.637Zm-3.575-11.215c-.635-1.886-1.282-3.757-1.925-5.562l.979-.349c.644,1.811,1.294,3.688,1.931,5.579Zm-3.95-11.086c-.7-1.856-1.418-3.7-2.133-5.483l.965-.387c.717,1.789,1.437,3.64,2.14,5.5ZM22.733,1306.5c-.782-1.828-1.581-3.638-2.376-5.379l.945-.432c.8,1.748,1.6,3.566,2.387,5.4Zm-4.891-10.692c-.873-1.782-1.77-3.545-2.664-5.238l.919-.485c.9,1.7,1.8,3.475,2.679,5.266Zm-5.493-10.387c-.8-1.392-1.608-2.762-2.41-4.07l-.381-.622.713-.156q.557-.123,1.1-.256l.246,1.01-.419.1c.683,1.128,1.371,2.295,2.049,3.479ZM17.3,1279.6l-.362-.974a47.544,47.544,0,0,0,5.312-2.352l.478.922a48.5,48.5,0,0,1-5.428,2.4m10.521-5.461-.589-.856a48.619,48.619,0,0,0,4.584-3.58l.688.779a49.77,49.77,0,0,1-4.682,3.657m8.907-7.832-.77-.7a57.3,57.3,0,0,0,3.686-4.521l.838.615a58.386,58.386,0,0,1-3.754,4.6m7.043-9.545-.89-.537c.982-1.629,1.928-3.355,2.809-5.131l.931.462c-.894,1.8-1.854,3.552-2.851,5.205m5.292-10.612-.962-.394c.724-1.769,1.41-3.618,2.039-5.5l.986.33c-.636,1.9-1.33,3.77-2.062,5.56m3.772-11.236-1-.27c.5-1.867.962-3.788,1.365-5.71l1.017.213c-.406,1.941-.87,3.881-1.378,5.767m2.428-11.607-1.028-.154c.536-3.576.664-5.815.665-5.838l1.038.057c0,.093-.131,2.3-.675,5.935" transform="translate(-6.247 -795.602)" fill="#ffa200"/>
        <path id="Trazado_996386" data-name="Trazado 996386" d="M1147.645,1535.537l-1.039-.006q.018-2.926.047-5.81l1.039.01q-.029,2.881-.047,5.806m.118-11.693-1.039-.015q.042-2.967.1-5.89l1.039.019q-.055,2.92-.1,5.885m.218-11.77-1.039-.024q.07-2.969.149-5.889l1.038.029q-.08,2.918-.149,5.884m.324-11.767-1.039-.034q.1-2.968.2-5.886l1.039.039q-.107,2.916-.2,5.882m.436-11.764-1.039-.043q.124-2.968.261-5.884l1.038.049q-.137,2.913-.26,5.879m.551-11.757-1.038-.054q.155-2.968.322-5.881l1.038.06q-.167,2.911-.322,5.876m.677-11.75-1.038-.066q.188-2.969.388-5.878l1.037.071q-.2,2.907-.387,5.873m.808-11.741-1.037-.078q.223-2.968.458-5.873l1.036.084q-.235,2.9-.457,5.867m.95-11.73-1.036-.091q.259-2.968.532-5.867l1.035.1q-.272,2.9-.531,5.86m1.1-11.717-1.034-.1q.3-2.967.611-5.859l1.033.112q-.311,2.889-.61,5.852m1.262-11.7-1.032-.119q.342-2.964.7-5.85l1.031.127q-.354,2.883-.7,5.842m1.438-11.678-1.03-.135c.257-1.964.523-3.928.79-5.838l1.029.143c-.266,1.908-.532,3.869-.789,5.83m1.628-11.653-1.028-.153c.293-1.973.594-3.932.892-5.824l1.026.163c-.3,1.888-.6,3.844-.89,5.814m1.835-11.62-1.025-.172c.327-1.946.664-3.9,1-5.806l1.023.182c-.338,1.9-.676,3.853-1,5.8m2.063-11.58-1.021-.193c.365-1.933.744-3.879,1.126-5.784l1.019.2c-.381,1.9-.76,3.843-1.124,5.772m2.314-11.531-1.016-.217c.407-1.916.833-3.853,1.263-5.755l1.014.229c-.429,1.9-.854,3.831-1.261,5.743m2.6-11.468-1.01-.243c.461-1.919.938-3.843,1.419-5.72l1.007.258c-.479,1.872-.955,3.791-1.415,5.7m2.915-11.387-1-.273c.523-1.921,1.061-3.83,1.6-5.674l1,.29c-.535,1.838-1.071,3.742-1.593,5.657m3.284-11.283-.992-.309c.59-1.9,1.2-3.787,1.805-5.611l.986.328c-.6,1.818-1.21,3.7-1.8,5.592m3.715-11.142-.978-.35c.675-1.883,1.366-3.743,2.056-5.526l.97.375c-.687,1.775-1.376,3.626-2.048,5.5m4.241-10.944-.958-.4c.779-1.854,1.578-3.671,2.374-5.4l.944.435c-.791,1.718-1.585,3.524-2.36,5.369m4.915-10.641-.925-.473c.94-1.839,1.89-3.585,2.822-5.191l.9.522c-.923,1.59-1.864,3.32-2.8,5.142m5.913-10.075-.852-.595c.442-.632.808-1.126,1.091-1.493-.668-.027-1.333-.071-1.987-.133l.1-1.035c.972.092,1.969.144,2.964.156l1.144.013-.763.853a26.779,26.779,0,0,0-1.694,2.233m-7.6-3.283a33.742,33.742,0,0,1-5.582-2.073l.447-.938a32.677,32.677,0,0,0,5.409,2.008Zm-10.725-5.075a40.873,40.873,0,0,1-4.609-3.77l.714-.756a39.706,39.706,0,0,0,4.49,3.674Zm-8.666-8.124a58.331,58.331,0,0,1-3.538-4.778l.865-.576a57.4,57.4,0,0,0,3.475,4.692Zm-6.612-9.858c-.924-1.68-1.821-3.463-2.668-5.3l.944-.435c.836,1.815,1.722,3.576,2.634,5.234Zm-4.98-10.761c-.7-1.8-1.371-3.674-2-5.581l.987-.325c.622,1.889,1.287,3.749,1.979,5.529Zm-3.714-11.253c-.521-1.879-1.011-3.812-1.455-5.744l1.013-.233c.441,1.917.927,3.835,1.444,5.7Zm-2.658-11.551c-.663-3.6-.917-5.876-.919-5.9l1.033-.114c0,.022.253,2.26.908,5.824Z" transform="translate(-748.391 -795.548)" fill="#ffa200"/>
        <path id="Trazado_996387" data-name="Trazado 996387" d="M588.821,1428.309l-1.013-.23c0-.02.464-2.047,1.227-5.772l1.018.209c-.767,3.737-1.228,5.773-1.232,5.793m43.441-10.431c-.54-1.857-1.077-3.768-1.6-5.68l1-.273c.519,1.906,1.054,3.811,1.592,5.662Zm-41.051-1.152-1.02-.2c.364-1.865.736-3.814,1.1-5.79l1.022.191c-.37,1.979-.742,3.929-1.106,5.8m37.951-10.234c-.479-1.875-.956-3.8-1.419-5.728l1.011-.243c.461,1.921.937,3.844,1.415,5.714Zm-35.783-1.367-1.023-.183q.494-2.756,1.02-5.8l1.024.177q-.526,3.049-1.022,5.81m33.025-10.108c-.426-1.881-.852-3.82-1.266-5.762l1.016-.217c.414,1.938.839,3.873,1.264,5.75Zm-31.02-1.517-1.025-.17q.466-2.81.946-5.814l1.026.164q-.481,3.007-.948,5.821m28.555-10.023c-.38-1.89-.762-3.838-1.134-5.789l1.021-.194c.371,1.948.752,3.892,1.132,5.778Zm-26.694-1.624-1.027-.158q.436-2.839.877-5.824l1.029.151q-.442,2.986-.879,5.83m24.486-9.966c-.342-1.9-.685-3.858-1.021-5.829l1.024-.175c.336,1.968.679,3.925,1.02,5.819Zm-22.763-1.7-1.029-.146q.406-2.86.811-5.834l1.03.14q-.405,2.977-.812,5.84m20.775-9.959c-.308-1.909-.616-3.87-.915-5.829l1.027-.157c.3,1.957.607,3.915.914,5.82Zm-19.183-1.724-1.03-.135q.375-2.875.746-5.842l1.031.128q-.37,2.97-.746,5.848m17.4-9.933q-.423-2.918-.821-5.826l1.03-.141q.4,2.9.82,5.818Zm-15.94-1.767-1.032-.123q.345-2.887.681-5.85l1.033.117q-.337,2.966-.682,5.856m14.34-9.906q-.381-2.935-.739-5.852l1.032-.127q.358,2.912.738,5.844Zm-13.009-1.809-1.033-.112q.313-2.9.616-5.856l1.034.105q-.3,2.963-.617,5.862m11.571-9.9q-.342-2.945-.661-5.861l1.033-.113q.32,2.911.661,5.854Zm-10.371-1.828-1.035-.1q.281-2.9.55-5.863l1.035.094q-.27,2.962-.55,5.869m9.084-9.9q-.306-2.955-.59-5.868l1.034-.1q.283,2.908.589,5.862Zm-8.017-1.844-1.035-.088q.248-2.91.484-5.869l1.036.083q-.235,2.961-.484,5.874m6.872-9.9q-.273-2.967-.522-5.875l1.035-.089q.25,2.9.522,5.869Zm-5.938-1.856-1.036-.077q.215-2.917.415-5.874l1.037.07q-.2,2.96-.416,5.88m4.924-9.9q-.24-2.98-.459-5.88l1.036-.078q.218,2.9.458,5.876Zm-4.127-1.864-1.037-.064q.18-2.921.345-5.877l1.038.058q-.166,2.96-.346,5.884m3.24-9.9q-.21-3-.4-5.885l1.037-.068q.188,2.886.4,5.881Zm-2.583-1.871-1.038-.051q.146-2.925.274-5.882l1.039.046q-.129,2.959-.275,5.887m1.817-9.9q-.181-3.021-.338-5.891l1.038-.057q.157,2.865.338,5.885Zm-1.3-1.874-1.039-.038q.11-2.929.2-5.884l1.039.032q-.092,2.959-.2,5.891m.657-9.909q-.122-2.445-.227-4.747-.031,1.439-.066,2.874l-1.039-.026q.072-2.931.125-5.886l1.039.018q-.017.935-.036,1.868l.963-.043q.126,2.829.278,5.89Zm-.527-11.794q-.037-.953-.072-1.871l-.522-.006q.033-2.933.047-5.886l1.039,0q0,.918-.01,1.833l.341-.011q.092,2.744.215,5.9Zm-.4-11.808q-.026-.935-.049-1.841h-.1q-.007-2.934-.034-5.886l1.039-.01q.009.9.015,1.806h.024c.035,1.832.082,3.818.139,5.9Z" transform="translate(-384.176 -799.526)" fill="#ffa200"/>
        <rect id="Rectángulo_454836" data-name="Rectángulo 454836" width="1.039" height="476.335" transform="translate(118.167 263.651)"/>
        <rect id="Rectángulo_454837" data-name="Rectángulo 454837" width="1.039" height="476.346" transform="translate(331.565 263.655) rotate(-0.389)"/>
        <rect id="Rectángulo_454838" data-name="Rectángulo 454838" width="1.039" height="328.068" transform="matrix(0.006, -1, 1, 0.006, 59.91, 139.122)"/>
        <rect id="Rectángulo_454839" data-name="Rectángulo 454839" width="152.954" height="1.732" transform="translate(58.546 184.387)" fill="#0000b5"/>
        <rect id="Rectángulo_454840" data-name="Rectángulo 454840" width="151.587" height="1.732" transform="translate(237.822 184.387)" fill="#0000b5"/>
        <rect id="Rectángulo_454841" data-name="Rectángulo 454841" width="281.298" height="1.039" transform="translate(223.861 421.736) rotate(-89.886)"/>
        <rect id="Rectángulo_454842" data-name="Rectángulo 454842" width="1.039" height="154.055" transform="translate(54.278 331.297) rotate(-89.782)"/>
        <rect id="Rectángulo_454843" data-name="Rectángulo 454843" width="151.477" height="1.039" transform="translate(241.072 330.845)"/>
        <rect id="Rectángulo_454844" data-name="Rectángulo 454844" width="344.523" height="1.039" transform="translate(51.711 388.397)"/>
        <rect id="Rectángulo_454845" data-name="Rectángulo 454845" width="350.813" height="1.039" transform="translate(49.171 515.907)"/>
        <rect id="Rectángulo_454846" data-name="Rectángulo 454846" width="351.198" height="1.039" transform="translate(49.171 471.564)"/>
        <rect id="Rectángulo_454847" data-name="Rectángulo 454847" width="1.039" height="345.504" transform="translate(51.706 418.955) rotate(-89.453)"/>
        <path id="Trazado_996388" data-name="Trazado 996388" d="M150.838,1693.019c-9.6-56.662-10.393-233.184-10.4-234.961l1.039,0c.007,1.776.8,178.213,10.385,234.792Z" transform="translate(-91.787 -952.946)"/>
        <rect id="Rectángulo_454848" data-name="Rectángulo 454848" width="223.563" height="1.039" transform="matrix(0.006, -1, 1, 0.006, 398.169, 739.983)"/>
        <rect id="Rectángulo_454849" data-name="Rectángulo 454849" width="1.039" height="318.25" transform="translate(223.879 421.737) rotate(-0.095)"/>
        <rect id="Rectángulo_454850" data-name="Rectángulo 454850" width="339.171" height="1.039" transform="translate(59.563 739.467)"/>
        <path id="Trazado_996389" data-name="Trazado 996389" d="M136.566,1091.68l-1.731-.065,7.285-194.183H292.965l15.62,73.48-1.694.36-15.328-72.108H143.789Z" transform="translate(-88.125 -586.538)" fill="#0000b5"/>
        <rect id="Rectángulo_454851" data-name="Rectángulo 454851" width="43.9" height="1.039" transform="translate(399.968 485.816) rotate(-1.721)"/>
        <rect id="Rectángulo_454852" data-name="Rectángulo 454852" width="45.038" height="1.039" transform="matrix(1, -0.01, 0.01, 1, 4.13, 484.961)"/>
        <rect id="Rectángulo_454853" data-name="Rectángulo 454853" width="29.84" height="1.039" transform="translate(19.33 515.907)"/>
        <rect id="Rectángulo_454854" data-name="Rectángulo 454854" width="27.984" height="1.039" transform="translate(399.984 515.907)"/>
        <path id="Trazado_996390" data-name="Trazado 996390" d="M316.33,4.133A4.135,4.135,0,1,1,312.194,0a4.135,4.135,0,0,1,4.135,4.135" transform="translate(-201.34 0.002)"/>
        <path id="Trazado_996391" data-name="Trazado 996391" d="M585.537,87.371a4.135,4.135,0,1,1-4.135-4.135,4.135,4.135,0,0,1,4.135,4.135" transform="translate(-377.287 -54.4)"/>
        <path id="Trazado_996392" data-name="Trazado 996392" d="M990.236,4.133A4.135,4.135,0,1,1,986.1,0a4.135,4.135,0,0,1,4.135,4.135" transform="translate(-641.788 0.002)"/>
        <path id="Trazado_996393" data-name="Trazado 996393" d="M1116.271,170.258a4.135,4.135,0,1,1-4.135-4.135,4.135,4.135,0,0,1,4.135,4.135" transform="translate(-724.161 -108.573)"/>
        <path id="Trazado_996394" data-name="Trazado 996394" d="M1116.271,397.592a4.135,4.135,0,1,1-4.135-4.135,4.135,4.135,0,0,1,4.135,4.135" transform="translate(-724.161 -257.153)"/>
        <path id="Trazado_996395" data-name="Trazado 996395" d="M1131.69,749.712a4.135,4.135,0,1,1-4.135-4.135,4.135,4.135,0,0,1,4.135,4.135" transform="translate(-734.238 -487.289)"/>
        <path id="Trazado_996396" data-name="Trazado 996396" d="M1277.6,1392.925a4.135,4.135,0,1,1-4.135-4.135,4.135,4.135,0,0,1,4.135,4.135" transform="translate(-829.604 -907.677)"/>
        <path id="Trazado_996397" data-name="Trazado 996397" d="M1079.067,1529.46a4.135,4.135,0,1,1-4.135-4.135,4.135,4.135,0,0,1,4.135,4.135" transform="translate(-699.845 -996.913)"/>
        <path id="Trazado_996398" data-name="Trazado 996398" d="M168.271,397.592a4.135,4.135,0,1,1-4.135-4.135,4.135,4.135,0,0,1,4.135,4.135" transform="translate(-104.572 -257.153)"/>
        <path id="Trazado_996399" data-name="Trazado 996399" d="M1116.271,277.894a4.135,4.135,0,1,1-4.135-4.135,4.135,4.135,0,0,1,4.135,4.135" transform="translate(-724.161 -178.921)"/>
        <path id="Trazado_996400" data-name="Trazado 996400" d="M1116.271,64.2a4.135,4.135,0,1,1-4.135-4.135,4.135,4.135,0,0,1,4.135,4.135" transform="translate(-724.161 -39.253)"/>
        <path id="Trazado_996401" data-name="Trazado 996401" d="M431.168,34.258a4.135,4.135,0,1,1-4.135-4.135,4.135,4.135,0,0,1,4.135,4.135" transform="translate(-276.395 -19.687)"/>
        <path id="Trazado_996402" data-name="Trazado 996402" d="M468.168,46.2a4.135,4.135,0,1,1-4.135-4.135,4.135,4.135,0,0,1,4.135,4.135" transform="translate(-300.577 -27.488)"/>
        <path id="Trazado_996403" data-name="Trazado 996403" d="M714.61,87.371a4.135,4.135,0,1,1-4.135-4.135,4.135,4.135,0,0,1,4.135,4.135" transform="translate(-461.645 -54.4)"/>
        <path id="Trazado_996404" data-name="Trazado 996404" d="M834.761,52.258a4.135,4.135,0,1,1-4.135-4.135,4.135,4.135,0,0,1,4.135,4.135" transform="translate(-540.173 -31.451)"/>
        <path id="Trazado_996405" data-name="Trazado 996405" d="M876.512,40.321a4.135,4.135,0,1,1-4.135-4.135,4.135,4.135,0,0,1,4.135,4.135" transform="translate(-567.46 -23.649)"/>
        <path id="Trazado_996406" data-name="Trazado 996406" d="M642.6,395.3a4.135,4.135,0,1,1-4.135-4.135A4.135,4.135,0,0,1,642.6,395.3" transform="translate(-414.585 -255.651)"/>
        <path id="Trazado_996407" data-name="Trazado 996407" d="M642.6,750.27a4.135,4.135,0,1,1-4.135-4.135,4.135,4.135,0,0,1,4.135,4.135" transform="translate(-414.585 -487.654)"/>
        <path id="Trazado_996408" data-name="Trazado 996408" d="M338.938,754.614a4.135,4.135,0,1,1-4.135-4.135,4.135,4.135,0,0,1,4.135,4.135" transform="translate(-216.116 -490.493)"/>
        <path id="Trazado_996409" data-name="Trazado 996409" d="M144.4,1108.925a4.135,4.135,0,1,1-4.135-4.135,4.135,4.135,0,0,1,4.135,4.135" transform="translate(-88.969 -722.062)"/>
        <path id="Trazado_996410" data-name="Trazado 996410" d="M8.271,1392.258a4.135,4.135,0,1,1-4.135-4.135,4.135,4.135,0,0,1,4.135,4.135" transform="translate(0 -907.241)"/>
        <path id="Trazado_996411" data-name="Trazado 996411" d="M137.667,1450.258a4.135,4.135,0,1,1-4.135-4.135,4.135,4.135,0,0,1,4.135,4.135" transform="translate(-84.57 -945.148)"/>
        <path id="Trazado_996412" data-name="Trazado 996412" d="M210.626,1484.455a4.135,4.135,0,1,1-4.135-4.135,4.135,4.135,0,0,1,4.135,4.135" transform="translate(-132.254 -967.499)"/>
        <path id="Trazado_996413" data-name="Trazado 996413" d="M553.547,265.957a4.135,4.135,0,1,1-4.135-4.135,4.135,4.135,0,0,1,4.135,4.135" transform="translate(-356.379 -171.119)"/>
        <path id="Trazado_996414" data-name="Trazado 996414" d="M726.547,265.957a4.135,4.135,0,1,1-4.135-4.135,4.135,4.135,0,0,1,4.135,4.135" transform="translate(-469.447 -171.119)"/>
        <path id="Trazado_996415" data-name="Trazado 996415" d="M954.938,754.614a4.135,4.135,0,1,1-4.135-4.135,4.135,4.135,0,0,1,4.135,4.135" transform="translate(-618.718 -490.493)"/>
        <path id="Trazado_996416" data-name="Trazado 996416" d="M186.17,105.132A4.135,4.135,0,1,1,182.034,101a4.135,4.135,0,0,1,4.135,4.135" transform="translate(-116.27 -66.008)"/>
        <path id="Trazado_996417" data-name="Trazado 996417" d="M174.233,256.294a4.135,4.135,0,1,1-4.135-4.135,4.135,4.135,0,0,1,4.135,4.135" transform="translate(-108.469 -164.804)"/>
        <path id="Trazado_996418" data-name="Trazado 996418" d="M156.334,753.258a4.135,4.135,0,1,1-4.135-4.135,4.135,4.135,0,0,1,4.135,4.135" transform="translate(-96.77 -489.607)"/>
        <path id="Trazado_996419" data-name="Trazado 996419" d="M145.6,1197.437a4.135,4.135,0,1,1-4.135-4.135,4.135,4.135,0,0,1,4.135,4.135" transform="translate(-89.758 -779.911)"/>
        <path id="Trazado_996420" data-name="Trazado 996420" d="M157.848,660.692l-1.039-.023.134-6,1.039.023Zm.268-12-1.039-.023.134-6,1.039.023Zm.268-11.995-1.039-.023.134-6,1.039.023Zm.268-12-1.039-.023.134-6,1.039.023Zm.268-12-1.039-.023.134-6,1.039.023Zm.268-11.995-1.039-.023.134-6,1.039.023Zm.268-12-1.039-.023.134-6,1.039.023Zm.268-11.995-1.039-.023.134-6,1.039.023Zm.268-12-1.039-.023.134-6,1.039.023Zm.268-11.995-1.039-.023.134-6,1.039.023Zm.268-12-1.039-.023.134-6,1.039.023Z" transform="translate(-102.486 -349.478)" fill="#ffa200"/>
        <path id="Trazado_996421" data-name="Trazado 996421" d="M1126.175,660.655l-.192-6,1.039-.033.192,6Zm-.385-11.992-.193-6,1.039-.033.193,6Zm-.385-11.992-.193-6,1.038-.033.193,6Zm-.385-11.992-.192-6,1.039-.033.192,6Zm-.385-11.992-.193-6,1.039-.033.193,6Zm-.385-11.992-.193-6,1.039-.033.193,6Zm-.385-11.992-.192-6,1.039-.033.192,6Zm-.385-11.992-.193-6,1.039-.033.193,6Zm-.385-11.992-.193-6,1.039-.033.193,6Zm-.385-11.992-.192-6,1.039-.033.192,6Zm-.385-11.992-.193-6,1.039-.033.192,6Z" transform="translate(-733.397 -349.469)" fill="#ffa200"/>
      </g>
    </g>
  </g>
</svg>
