<svg xmlns="http://www.w3.org/2000/svg" xmlns:xlink="http://www.w3.org/1999/xlink" width="1228.254" height="488.834" viewBox="0 0 1228.254 488.834">
  <defs>
    <clipPath id="clip-path">
      <rect id="Rectángulo_454676" data-name="Rectángulo 454676" width="1228" height="487.5" rx="20" transform="translate(1364.5 509.907) rotate(180)" fill="#0048c5"/>
    </clipPath>
  </defs>
  <g id="Grupo_1177304" data-name="Grupo 1177304" transform="translate(-186.711 -3568.667)">
    <g id="Grupo_1176979" data-name="Grupo 1176979" transform="translate(0.965 -2928.493)">
      <g id="Grupo_1176966" data-name="Grupo 1176966">
        <rect id="Rectángulo_377901" data-name="Rectángulo 377901" width="1228" height="488.834" rx="20" transform="translate(1413.746 6985.994) rotate(180)" fill="#e5ecf9"/>
        <g id="Enmascarar_grupo_1119132" data-name="Enmascarar grupo 1119132" transform="translate(49.5 6476.087)" opacity="0.47" clip-path="url(#clip-path)">
          <g id="Grupo_1176958" data-name="Grupo 1176958" transform="translate(49.579 14.101)" opacity="0.5">
            <path id="Trazado_995208" data-name="Trazado 995208" d="M386.013,0,0,386.012v386.01l386.013-386.01,386.01,386.01V386.012Z" transform="translate(1544.046 0.002) rotate(90)" fill="#99b5e8"/>
            <path id="Trazado_995209" data-name="Trazado 995209" d="M0,386.012V772.023L386.013,386.011l386.01,386.012V386.012L386.013,0Z" transform="translate(772.023 0) rotate(90)" fill="#99b5e8"/>
          </g>
          <g id="Grupo_1176959" data-name="Grupo 1176959" transform="translate(-33.645 326.65)" opacity="0.43">
            <path id="Trazado_995210" data-name="Trazado 995210" d="M0,236.211v236.21L236.211,236.21l236.21,236.211V236.211L236.211,0Z" transform="translate(472.421) rotate(90)" fill="#0048c5"/>
          </g>
          <g id="Grupo_1176962" data-name="Grupo 1176962" transform="translate(113.066 42.206)">
            <path id="Trazado_995211" data-name="Trazado 995211" d="M159.064,617.1H0V438.036a79.532,79.532,0,1,1,159.064,0ZM.9,616.2H158.164V438.036a78.632,78.632,0,1,0-157.265,0Z" transform="translate(107.434 -0.597)" stroke="#0048c5" stroke-width="3"/>
            <g id="Elipse_13630" data-name="Elipse 13630" transform="translate(1031.4 394.005)" fill="none" stroke="#0048c5" stroke-width="41">
              <circle cx="125.297" cy="125.297" r="125.297" stroke="none"/>
              <circle cx="125.297" cy="125.297" r="104.797" fill="none"/>
            </g>
            <g id="Grupo_1176960" data-name="Grupo 1176960" transform="translate(688.434 18.838) rotate(90)">
              <path id="Trazado_995212" data-name="Trazado 995212" d="M7.688,0,0,7.688v7.688L7.688,7.688l7.688,7.688V7.688Z" transform="translate(0)" fill="#bee644"/>
              <path id="Trazado_995213" data-name="Trazado 995213" d="M0,7.688v7.688L7.688,7.688l7.688,7.688V7.688L7.688,0Z" transform="translate(0 15.377)" fill="#bee644"/>
            </g>
            <g id="Grupo_1176961" data-name="Grupo 1176961" transform="translate(1239.152 256.215) rotate(90)">
              <path id="Trazado_995214" data-name="Trazado 995214" d="M7.265,0V7.265H0v3.28H7.265v7.265h3.28V10.546h7.265V7.265H10.546V0Z" transform="translate(0 0)" fill="#0048c5"/>
              <path id="Trazado_995215" data-name="Trazado 995215" d="M7.265,0V7.265H0v3.28H7.265v7.265h3.28V10.546h7.265V7.265H10.546V0Z" transform="translate(33.431 0)" fill="#0048c5"/>
              <path id="Trazado_995216" data-name="Trazado 995216" d="M7.265,0V7.265H0v3.28H7.265v7.265h3.281V10.546h7.265V7.265H10.546V0Z" transform="translate(66.863 0)" fill="#0048c5"/>
            </g>
            <path id="Unión_48" data-name="Unión 48" d="M81.423,94.328,94.328,83.314v4.719l-7.376,6.3Zm-14.735,0L94.328,70.737v4.719L72.217,94.328Zm-14.735,0L94.328,58.161v4.719L57.482,94.328Zm-14.735,0L94.328,45.585V50.3L42.746,94.328Zm-15.124,0L94.328,32.677v5.051l-66.317,56.6Zm-14.734,0L94.328,20.1v4.719L12.888,94.328ZM0,88.033,94.328,7.526v4.719L0,92.752ZM0,75.457,88.41,0h5.529L0,80.176ZM0,62.88,73.675,0H79.2L0,67.6ZM0,50.3,58.94,0h5.529L0,55.023ZM0,37.728,44.205,0h5.529L0,42.447ZM0,25.152,29.47,0H35L0,29.871ZM0,12.576,14.735,0h5.529L0,17.3ZM0,0H5.529L0,4.719Z" transform="translate(1144.822 353.151)" fill="#bee645"/>
            <path id="Unión_49" data-name="Unión 49" d="M81.423,94.328,94.328,83.314v4.719l-7.376,6.3Zm-14.735,0L94.328,70.737v4.719L72.217,94.328Zm-14.735,0L94.328,58.161v4.719L57.482,94.328Zm-14.735,0L94.328,45.585V50.3L42.746,94.328Zm-15.124,0L94.328,32.677v5.051l-66.317,56.6Zm-14.734,0L94.328,20.1v4.719L12.888,94.328ZM0,88.033,94.328,7.526v4.719L0,92.752ZM0,75.457,88.41,0h5.529L0,80.176ZM0,62.88,73.675,0H79.2L0,67.6ZM0,50.3,58.94,0h5.529L0,55.023ZM0,37.728,44.205,0h5.529L0,42.447ZM0,25.152,29.47,0H35L0,29.871ZM0,12.576,14.735,0h5.529L0,17.3ZM0,0H5.529L0,4.719Z" transform="translate(0 505.041)" fill="#002b76"/>
            <g id="Elipse_13631" data-name="Elipse 13631" transform="translate(57.032 498.875)" fill="none" stroke="#bee645" stroke-width="3">
              <circle cx="11.559" cy="11.559" r="11.559" stroke="none"/>
              <circle cx="11.559" cy="11.559" r="10.059" fill="none"/>
            </g>
          </g>
          <g id="Grupo_1176964" data-name="Grupo 1176964" transform="translate(161.775 157.072)" opacity="0.52">
            <g id="Grupo_1176963" data-name="Grupo 1176963">
              <path id="Trazado_995246" data-name="Trazado 995246" d="M31.35,19.791l.127-3.56.4-11.223a2.579,2.579,0,1,0-1.741,0l.4,11.223.129,3.56.337,0,.339,0M16.928,34.853H45.093a1.3,1.3,0,0,1,1.291,1.291v4.945a1.294,1.294,0,0,1-1.291,1.291H16.928a1.292,1.292,0,0,1-1.288-1.291V36.144a1.294,1.294,0,0,1,1.288-1.291M31.01,21.2A13.923,13.923,0,0,1,44.83,33.441H17.191A13.923,13.923,0,0,1,31.01,21.2m-4.985-.585-1.437-2.708L19.33,7.986a2.583,2.583,0,1,0-1.511.871l5.962,9.517,1.566,2.5c.223-.089.45-.172.678-.253m10.651.253,1.564-2.5L44.2,8.857a2.58,2.58,0,1,0-1.508-.871l-5.261,9.922L36,20.616c.23.081.456.164.681.253" transform="translate(777.92 314.289)" fill="#0048c5" stroke="rgba(0,0,0,0)" stroke-width="1" fill-rule="evenodd"/>
              <path id="Trazado_995247" data-name="Trazado 995247" d="M31.35,19.791l.127-3.56.4-11.223a2.579,2.579,0,1,0-1.741,0l.4,11.223.129,3.56.337,0,.339,0M16.928,34.853H45.093a1.3,1.3,0,0,1,1.291,1.291v4.945a1.294,1.294,0,0,1-1.291,1.291H16.928a1.292,1.292,0,0,1-1.288-1.291V36.144a1.294,1.294,0,0,1,1.288-1.291M31.01,21.2A13.923,13.923,0,0,1,44.83,33.441H17.191A13.923,13.923,0,0,1,31.01,21.2m-4.985-.585-1.437-2.708L19.33,7.986a2.583,2.583,0,1,0-1.511.871l5.962,9.517,1.566,2.5c.223-.089.45-.172.678-.253m10.651.253,1.564-2.5L44.2,8.857a2.58,2.58,0,1,0-1.508-.871l-5.261,9.922L36,20.616c.23.081.456.164.681.253" transform="translate(1091.09 -120.524)" fill="#0048c5" stroke="rgba(0,0,0,0)" stroke-width="1" fill-rule="evenodd"/>
              <path id="Trazado_995248" data-name="Trazado 995248" d="M31.35,19.791l.127-3.56.4-11.223a2.579,2.579,0,1,0-1.741,0l.4,11.223.129,3.56.337,0,.339,0M16.928,34.853H45.093a1.3,1.3,0,0,1,1.291,1.291v4.945a1.294,1.294,0,0,1-1.291,1.291H16.928a1.292,1.292,0,0,1-1.288-1.291V36.144a1.294,1.294,0,0,1,1.288-1.291M31.01,21.2A13.923,13.923,0,0,1,44.83,33.441H17.191A13.923,13.923,0,0,1,31.01,21.2m-4.985-.585-1.437-2.708L19.33,7.986a2.583,2.583,0,1,0-1.511.871l5.962,9.517,1.566,2.5c.223-.089.45-.172.678-.253m10.651.253,1.564-2.5L44.2,8.857a2.58,2.58,0,1,0-1.508-.871l-5.261,9.922L36,20.616c.23.081.456.164.681.253" transform="translate(-14.779 255.217)" fill="#0048c5" stroke="rgba(0,0,0,0)" stroke-width="1" fill-rule="evenodd"/>
            </g>
          </g>
        </g>
      </g>
    </g>
  </g>
</svg>
