<svg xmlns="http://www.w3.org/2000/svg" width="80" height="80" viewBox="0 0 80 80">
  <g id="Grupo_1177307" data-name="Grupo 1177307" transform="translate(-744.711 -1834.816)">
    <g id="Grupo_1119665" data-name="Grupo 1119665" transform="translate(563.193 -3686.264)">
      <rect id="Rectángulo_402006" data-name="Rectángulo 402006" width="80" height="80" rx="5" transform="translate(181.518 5521.08)" fill="#bee645"/>
      <path id="Trazado_992092" data-name="Trazado 992092" d="M147.166,63.122a51.91,51.91,0,0,0-1.574-9.073,1.063,1.063,0,1,0-2.057.54,49.777,49.777,0,0,1,1.51,8.7,2,2,0,0,1-1.981,2.127H108.224a2,2,0,0,1-1.981-2.125c.909-12.357,6.9-22.855,8.63-25.656v14.9a1.814,1.814,0,0,0,1.812,1.812h2.783a1.814,1.814,0,0,0,1.812-1.812V37.368h6.03a1.063,1.063,0,0,0,0-2.127h-6.03V6.175h8.706v2.67h-4.624a1.063,1.063,0,0,0,0,2.127h4.623c0,2.2,0,16,0,17.827a1.814,1.814,0,0,0,1.812,1.812h2.783a1.814,1.814,0,0,0,1.812-1.812c0-1.912,0-13.207,0-15.37l7.176,3.167a.456.456,0,0,1,.26.441c-.536,8.61-7.773,18.537-7.845,18.637a1.063,1.063,0,0,0-.035,1.21A67.433,67.433,0,0,1,142.3,50.5a1.121,1.121,0,0,0,1.348.666,1.063,1.063,0,0,0,.666-1.348,70.632,70.632,0,0,0-6.2-13.473c1.628-2.344,7.331-11.088,7.835-19.173a2.569,2.569,0,0,0-1.495-2.506l-.018-.008-8.046-3.551v-.733a2.563,2.563,0,0,0-2.56-2.56h-1.72v-2.7a1.149,1.149,0,0,0-1.229-1.063V2.56A2.563,2.563,0,0,0,128.323,0h-5.348a2.563,2.563,0,0,0-2.56,2.56V4.049a1.149,1.149,0,0,0-1.229,1.063v2.7h-1.753a2.563,2.563,0,0,0-2.56,2.56v.748l-8.013,3.536-.018.008a2.569,2.569,0,0,0-1.495,2.506c.5,8.074,6.19,16.8,7.827,19.163a59.616,59.616,0,0,0-9.053,26.8,4.173,4.173,0,0,0,4.1,4.408h13.258v3.982a1.063,1.063,0,0,0,1.063,1.063h6.207a1.063,1.063,0,0,0,1.063-1.063V67.542h13.25a4.169,4.169,0,0,0,4.1-4.419Zm-28.014-10.9H117V50.611h2.153Zm15.112-23.736h-2.153V26.875h2.153Zm0-18.113V24.749h-2.153V9.939h1.72A.434.434,0,0,1,134.265,10.372ZM122.542,2.56a.434.434,0,0,1,.433-.433h5.348a.434.434,0,0,1,.433.433V4.049h-6.214ZM107.47,17.038a.456.456,0,0,1,.26-.441l7.143-3.152V18.3a1.063,1.063,0,0,0,2.127,0V10.372a.434.434,0,0,1,.433-.433h1.72V48.485H117v-25.8a1.063,1.063,0,0,0-2.127,0v12.36c-1.59-2.321-6.944-10.635-7.4-18.006ZM127.689,70.46h-4.08V67.542h4.08Z" transform="translate(96.407 5525.08)" fill="#425018"/>
    </g>
  </g>
</svg>
