<svg xmlns="http://www.w3.org/2000/svg" width="71.074" height="54.686" viewBox="0 0 71.074 54.686">
  <g id="Grupo_1177311" data-name="Grupo 1177311" transform="translate(-186 -6393.314)">
    <g id="Grupo_1176869" data-name="Grupo 1176869" transform="translate(0 5586)">
      <path id="Trazado_992087" data-name="Trazado 992087" d="M49.573,0,0,49.573H21.5L71.074,0Z" transform="translate(186 812.428)" fill="#bee645"/>
      <g id="Layer_6" data-name="Layer 6" transform="translate(186.832 807.314)">
        <path id="Trazado_992075" data-name="Trazado 992075" d="M32.291,41.766a.843.843,0,0,1,.849.75L34.3,54.695a1.531,1.531,0,0,0,1.571,1.369A51.146,51.146,0,0,0,50.53,53.483a1.5,1.5,0,0,0,1.024-1.646L48.631,32.723H15.951L13.019,51.894a1.5,1.5,0,0,0,.956,1.62,43.522,43.522,0,0,0,14.752,2.566,1.534,1.534,0,0,0,1.554-1.37l1.157-12.194a.842.842,0,0,1,.853-.75Z" transform="translate(-2.972 -7.48)" fill="#f8c460"/>
        <path id="Trazado_992076" data-name="Trazado 992076" d="M15.95,32.722l-.69,4.51L13.017,51.889a1.493,1.493,0,0,0,.956,1.62,41.376,41.376,0,0,0,11.7,2.428,39.922,39.922,0,0,1-9.382-2.214,1.493,1.493,0,0,1-.956-1.62l1.426-9.323a6.176,6.176,0,0,1,6.081-5.232,75.707,75.707,0,0,0,13.346-1.287,1.543,1.543,0,0,0,1.255-1.522v-1.7a1.543,1.543,0,0,0,.532-.324Z" transform="translate(-2.972 -7.479)" fill="#faaf42"/>
        <path id="Trazado_992077" data-name="Trazado 992077" d="M49.5,31.871a177.6,177.6,0,0,1-32.681,0V30.5A1.532,1.532,0,0,1,18.507,29a177.476,177.476,0,0,0,29.3,0A1.532,1.532,0,0,1,49.5,30.5Z" transform="translate(-3.844 -6.628)" fill="#ff938d"/>
        <path id="Trazado_992078" data-name="Trazado 992078" d="M38.314,32.541v-.346a1.531,1.531,0,0,0,1-1.08l.4-1.633A177.419,177.419,0,0,1,18.507,29,1.532,1.532,0,0,0,16.818,30.5V31.87a177.584,177.584,0,0,0,21.5.67Z" transform="translate(-3.844 -6.628)" fill="#f27875"/>
        <path id="Trazado_992079" data-name="Trazado 992079" d="M33.685,34.086a75.478,75.478,0,0,1-30.368,0V31H33.685Z" transform="translate(-0.758 -7.086)" fill="#ff938d"/>
        <path id="Trazado_992080" data-name="Trazado 992080" d="M5.631,31.515V31H3.317v3.086a75.934,75.934,0,0,0,16.341,1.528A76,76,0,0,1,8.222,34.567a3.1,3.1,0,0,1-2.59-3.052Z" transform="translate(-0.758 -7.086)" fill="#f27875"/>
        <path id="Trazado_992081" data-name="Trazado 992081" d="M29.892,8.878l-1.08-6.589A1.525,1.525,0,0,0,27.314,1H25.331a1.526,1.526,0,0,0-1.5,1.289l-.558,3.4a5.365,5.365,0,0,1-10.609,0l-.559-3.4A1.526,1.526,0,0,0,10.611,1H8.628a1.525,1.525,0,0,0-1.5,1.289L6.051,8.878A6.234,6.234,0,0,1,5.036,11.4L2.1,15.666A6.253,6.253,0,0,0,1.181,20.7L1.79,23.17A1.534,1.534,0,0,0,3,24.32a83.05,83.05,0,0,0,29.951,0,1.534,1.534,0,0,0,1.206-1.15l.609-2.469a6.253,6.253,0,0,0-.916-5.036L30.907,11.4a6.234,6.234,0,0,1-1.015-2.525Z" transform="translate(-0.228 -0.229)" fill="#f8c460"/>
        <path id="Trazado_992082" data-name="Trazado 992082" d="M35.449,7.086a.771.771,0,0,1-.761-.65l-.248-1.543a.771.771,0,1,1,1.524-.244l.247,1.543a.771.771,0,0,1-.64.883A.737.737,0,0,1,35.449,7.086Z" transform="translate(-7.87 -0.914)" fill="#fff"/>
        <path id="Trazado_992083" data-name="Trazado 992083" d="M5.31,22.01A1.534,1.534,0,0,1,4.1,20.86L3.5,18.391a6.253,6.253,0,0,1,.916-5.036L7.349,9.092A6.234,6.234,0,0,0,8.365,6.567L9.277,1H8.628a1.525,1.525,0,0,0-1.5,1.289L6.051,8.878A6.234,6.234,0,0,1,5.036,11.4L2.1,15.666A6.253,6.253,0,0,0,1.181,20.7L1.79,23.17A1.534,1.534,0,0,0,3,24.32a83.05,83.05,0,0,0,29.951,0,1.534,1.534,0,0,0,1.206-1.15l.253-1.028a83.014,83.014,0,0,1-29.1-.133Z" transform="translate(-0.228 -0.229)" fill="#faaf42"/>
        <rect id="Rectángulo_454625" data-name="Rectángulo 454625" width="9" height="3" rx="1.5" transform="translate(13.371 17.371)" fill="#ff938d"/>
        <path id="Trazado_992084" data-name="Trazado 992084" d="M19.314,24.543A1.543,1.543,0,0,1,20.857,23H18.543a1.543,1.543,0,0,0,0,3.086h2.314A1.543,1.543,0,0,1,19.314,24.543Z" transform="translate(-3.886 -5.257)" fill="#f27875"/>
        <path id="Trazado_992085" data-name="Trazado 992085" d="M49.345,44.24,46.426,25.156V23.871a2.22,2.22,0,0,0-.729-1.652,2.361,2.361,0,0,0-1.8-.612c-2.978.247-5.992.409-8.977.5l.357-1.454A7.02,7.02,0,0,0,34.251,15l-2.937-4.264a5.485,5.485,0,0,1-.889-2.212l-1.08-6.589A2.289,2.289,0,0,0,27.085,0H25.1a2.29,2.29,0,0,0-2.259,1.936l-.558,3.4a4.594,4.594,0,0,1-9.087,0l-.558-3.4A2.29,2.29,0,0,0,10.383,0H8.4a2.29,2.29,0,0,0-2.26,1.936L5.061,8.524a5.5,5.5,0,0,1-.89,2.212L1.234,15A7.02,7.02,0,0,0,.2,20.657L.812,23.13a2.323,2.323,0,0,0,.974,1.382V27a.771.771,0,0,0,.617.755,77.255,77.255,0,0,0,9.211,1.3L9.283,44.3a2.272,2.272,0,0,0,1.447,2.461,43.954,43.954,0,0,0,15.013,2.613h.032a2.314,2.314,0,0,0,2.3-2.069l1.157-12.188c0-.044.159-.045.164,0l1.157,12.179a2.32,2.32,0,0,0,2.36,2.067A52.109,52.109,0,0,0,47.8,46.741a2.263,2.263,0,0,0,1.547-2.5ZM2.5,15.875l2.938-4.264A7.058,7.058,0,0,0,6.583,8.774l1.08-6.589A.754.754,0,0,1,8.4,1.543h1.982a.754.754,0,0,1,.737.643l.559,3.4a6.135,6.135,0,0,0,12.13,0l.559-3.4a.754.754,0,0,1,.737-.643h1.982a.752.752,0,0,1,.737.643L28.9,8.774a7.045,7.045,0,0,0,1.141,2.837l2.938,4.264a5.477,5.477,0,0,1,.8,4.413l-.608,2.469a.765.765,0,0,1-.6.576,82.731,82.731,0,0,1-29.675,0,.765.765,0,0,1-.6-.576L1.7,20.288a5.477,5.477,0,0,1,.8-4.413Zm.825,9.09a84.416,84.416,0,0,0,14.413,1.256,84.416,84.416,0,0,0,14.413-1.256v1.4a75.07,75.07,0,0,1-28.827,0Zm43.987,20.3a50.567,50.567,0,0,1-14.441,2.546h-.021a.755.755,0,0,1-.761-.671l-1.16-12.182a1.628,1.628,0,0,0-3.235,0L26.542,47.157a.741.741,0,0,1-.776.671,42.449,42.449,0,0,1-14.494-2.515.724.724,0,0,1-.463-.782L13.16,29.164c1.527.092,3.056.143,4.584.143a76.9,76.9,0,0,0,15.338-1.552A.771.771,0,0,0,33.7,27V24.511a2.326,2.326,0,0,0,.761-.836c3.178-.092,6.394-.267,9.566-.529a.816.816,0,0,1,.624.208.7.7,0,0,1,.231.518v.667c-2.873.254-5.786.439-8.656.552a.772.772,0,0,0,.029,1.543h.031c2.9-.113,5.823-.309,8.717-.563l2.815,18.406a.725.725,0,0,1-.5.795Z"/>
        <path id="Trazado_992086" data-name="Trazado 992086" d="M18.314,26.629h6.171a2.314,2.314,0,1,0,0-4.629H18.314a2.314,2.314,0,0,0,0,4.629Zm0-3.086h6.171a.771.771,0,0,1,0,1.543H18.314a.771.771,0,0,1,0-1.543Z" transform="translate(-3.657 -5.029)"/>
      </g>
    </g>
  </g>
</svg>
