<svg xmlns="http://www.w3.org/2000/svg" width="77" height="77" viewBox="0 0 77 77">
  <g id="Grupo_1177306" data-name="Grupo 1177306" transform="translate(-232.711 -1753)">
    <g id="Grupo_1177128" data-name="Grupo 1177128">
      <rect id="Rectángulo_454632" data-name="Rectángulo 454632" width="77" height="77" rx="10" transform="translate(232.711 1753)" fill="#0048c5"/>
      <g id="Grupo_1177127" data-name="Grupo 1177127" transform="translate(229.066 1751)">
        <path id="Trazado_995307" data-name="Trazado 995307" d="M18.166,37.7a.75.75,0,0,0-.521.714V69.25a.75.75,0,0,0,.75.75H65.428a.75.75,0,0,0,.75-.75V38.415a.75.75,0,0,0-.521-.714c-6.565-2.1-5.609-19.008-4.686-25.345a.75.75,0,0,0-.6-.845l-7.9-1.5a.75.75,0,0,0-.89.737,9.662,9.662,0,0,1-19.325,0,.75.75,0,0,0-.885-.738l-7.809,1.435a.75.75,0,0,0-.607.842c.9,6.356,1.79,23.311-4.78,25.411Zm6.358-24.907,6.26-1.151a11.163,11.163,0,0,0,22.253.005l6.352,1.2c-.5,3.991-2.437,22.783,5.288,26.083V68.5H19.145V38.935c7.726-3.3,5.867-22.142,5.38-26.141Z" fill="#bee645"/>
        <path id="Trazado_995308" data-name="Trazado 995308" d="M45.419,66.066A13.742,13.742,0,1,0,31.677,52.324,13.758,13.758,0,0,0,45.419,66.066ZM57.661,52.324a12.193,12.193,0,0,1-3.45,8.5,12.356,12.356,0,0,1,0-17A12.193,12.193,0,0,1,57.661,52.324ZM45.419,40.081a12.179,12.179,0,0,1,7.689,2.729,13.849,13.849,0,0,0,0,19.027,12.2,12.2,0,0,1-15.377,0,13.849,13.849,0,0,0,0-19.027,12.179,12.179,0,0,1,7.689-2.729Zm-8.792,3.743a12.356,12.356,0,0,1,0,17,12.194,12.194,0,0,1,0-17Z" transform="translate(-3.508 -7.145)" fill="#bee645"/>
      </g>
    </g>
  </g>
</svg>
