<svg xmlns="http://www.w3.org/2000/svg" xmlns:xlink="http://www.w3.org/1999/xlink" width="552" height="298.597" viewBox="0 0 552 298.597">
  <defs>
    <clipPath id="clip-path">
      <rect id="Rectángulo_454739" data-name="Rectángulo 454739" width="552" height="298.597" fill="none"/>
    </clipPath>
  </defs>
  <g id="Grupo_1177307" data-name="Grupo 1177307" transform="translate(-192.711 -3045)">
    <g id="Grupo_1177135" data-name="Grupo 1177135" transform="translate(192.711 3045)">
      <g id="Grupo_1177134" data-name="Grupo 1177134" clip-path="url(#clip-path)">
        <path id="Trazado_995565" data-name="Trazado 995565" d="M276.848,295.77H141.178l-139.9-1.916a1.3,1.3,0,0,1-1.231-1.631c.1-.369,9.882-38.368,7.237-173.249a1.294,1.294,0,0,1,.451-1.007,1.28,1.28,0,0,1,1.064-.292c.161.027,16.562,2.644,31.55-10.615C59.1,90.468,67.812,56.036,65.536,7.486a1.3,1.3,0,0,1,.974-1.315L90.654.039a1.294,1.294,0,0,1,1.6,1.105,153.454,153.454,0,0,0,11.129,39.58C114.987,66.7,131.7,79.943,153.068,80.1a1.2,1.2,0,0,1,.147.009c.119.014,12.39,1.35,26.174-7.617,12.79-8.32,29.552-27.462,36.778-71.408A1.294,1.294,0,0,1,217.784.045l21.079,5.748a1.293,1.293,0,0,1,.947,1.377c-.073.738-7.087,74.218,18.474,101.136a30.538,30.538,0,0,0,24.633,9.735,1.27,1.27,0,0,1,1.005.407,1.292,1.292,0,0,1,.343,1.028c-.138,1.239-13.691,124.587-6.138,174.81a1.293,1.293,0,0,1-1.28,1.485M2.908,291.289,141.2,293.184H275.355c-6.7-48.357,4.676-158.448,6.179-172.514-.151,0-.3,0-.452,0a32.821,32.821,0,0,1-24.675-10.588C231.461,83.814,236.28,17.688,237.134,8L218.484,2.917c-7.531,44.008-24.7,63.361-37.848,71.848-14.12,9.115-26.451,8.051-27.654,7.919-22.138-.19-40.112-14.351-51.98-40.959A157.27,157.27,0,0,1,89.887,2.9L68.168,8.419c2.178,49.54-6.623,83.39-26.162,100.625C28.637,120.838,14.523,120.8,9.9,120.408c2.27,119.242-5.218,162.457-6.988,170.881" transform="translate(0 0)" fill="#0048c5"/>
        <rect id="Rectángulo_454728" data-name="Rectángulo 454728" width="0.862" height="61.57" transform="matrix(0.01, -1, 1, 0.01, 61.985, 70.649)"/>
        <rect id="Rectángulo_454729" data-name="Rectángulo 454729" width="56.5" height="0.862" transform="translate(184.313 70.102)"/>
        <rect id="Rectángulo_454730" data-name="Rectángulo 454730" width="214.237" height="0.862" transform="translate(41.014 107.706) rotate(-0.344)"/>
        <rect id="Rectángulo_454731" data-name="Rectángulo 454731" width="213.417" height="0.862" transform="translate(140.71 294.452) rotate(-86.788)"/>
        <rect id="Rectángulo_454732" data-name="Rectángulo 454732" width="0.862" height="267.183" transform="translate(8.335 212.515) rotate(-89.431)"/>
        <rect id="Rectángulo_454733" data-name="Rectángulo 454733" width="174.597" height="0.861" transform="translate(206.393 270.527) rotate(-87.418)"/>
        <path id="Trazado_995566" data-name="Trazado 995566" d="M248.593,105.45a26.057,26.057,0,0,1-4.433,7.176l4.165-1.3L252.353,113a26.019,26.019,0,0,1-3.76-7.549" transform="translate(-33.619 -14.52)"/>
        <path id="Trazado_995567" data-name="Trazado 995567" d="M238.916,318.568a26.042,26.042,0,0,0-3.761-7.55l4.029,1.669,4.164-1.3a26.034,26.034,0,0,0-4.432,7.176" transform="translate(-32.379 -42.825)"/>
        <rect id="Rectángulo_454734" data-name="Rectángulo 454734" width="174.597" height="0.861" transform="matrix(0.045, -0.999, 0.999, 0.045, 385.318, 275.652)"/>
        <path id="Trazado_995568" data-name="Trazado 995568" d="M456.089,111.393a26.057,26.057,0,0,1-4.433,7.176l4.165-1.3,4.028,1.669a26.018,26.018,0,0,1-3.76-7.55" transform="translate(-62.19 -15.338)"/>
        <path id="Trazado_995569" data-name="Trazado 995569" d="M446.412,324.512a26.044,26.044,0,0,0-3.761-7.549l4.029,1.669,4.164-1.3a26.031,26.031,0,0,0-4.431,7.176" transform="translate(-60.95 -43.643)"/>
        <path id="Trazado_995570" data-name="Trazado 995570" d="M592.724,299.171h-.007l-233.4-1.149a1.292,1.292,0,0,1-1.269-1.506c.1-.618,10.249-63.033,4.01-170.641a1.29,1.29,0,0,1,.374-.987,1.339,1.339,0,0,1,.986-.379c.081,0,8.469.28,18.06-8.695C394.135,103.969,409.516,75.57,410.92,7.541a1.294,1.294,0,0,1,1.155-1.259L431.62,4.174a1.294,1.294,0,0,1,1.432,1.264,129,129,0,0,0,6.772,36.22c8.488,23.863,23.006,36.393,43.152,37.242.159.011,12.255.763,25.43-7.577,17.484-11.068,28.968-33.11,33.213-63.742a1.292,1.292,0,0,1,1.461-1.1l19.162,2.683a1.293,1.293,0,0,1,1.108,1.4c-.075.785-7.237,78.824,17.092,107.786,5.387,6.412,12,9.967,19.663,10.566a1.293,1.293,0,0,1,1.163,1.563c-.113.521-11.224,53.346-7.253,167.352a1.293,1.293,0,0,1-1.293,1.338m-231.892-3.729,230.553,1.135c-3.5-103.235,5.365-156.135,7.077-165.227-7.767-.966-14.49-4.775-20-11.336-23.608-28.107-18.689-97.924-17.8-108.462L544,9.219c-5.683,38.894-21.778,56.474-34.352,64.38-13.875,8.725-26.3,7.924-26.82,7.884-20.98-.883-36.714-14.376-45.461-39.014a132.5,132.5,0,0,1-6.848-35.574L413.482,8.732c-1.576,68.294-17.364,97.022-30.372,109.1-8.1,7.524-15.394,8.958-18.392,9.215,5.578,97.956-2.4,158.315-3.886,168.4" transform="translate(-49.298 -0.574)" fill="#0048c5"/>
        <rect id="Rectángulo_454735" data-name="Rectángulo 454735" width="0.863" height="161.619" transform="matrix(0.023, -1, 1, 0.023, 353.754, 78.454)"/>
        <rect id="Rectángulo_454736" data-name="Rectángulo 454736" width="0.862" height="194.831" transform="matrix(0.017, -1, 1, 0.017, 334.754, 114.933)"/>
        <rect id="Rectángulo_454737" data-name="Rectángulo 454737" width="217.743" height="0.863" transform="translate(428.18 297.294) rotate(-88.682)"/>
        <rect id="Rectángulo_454738" data-name="Rectángulo 454738" width="0.862" height="227.098" transform="translate(315.847 216.859) rotate(-89.079)"/>
      </g>
    </g>
    <path id="Trazado_996514" data-name="Trazado 996514" d="M5.164-5.7H3.107V0H2.268V-5.7H.215V-6.4H5.164Zm.174,3.283a2.808,2.808,0,0,1,.275-1.257,2.049,2.049,0,0,1,.765-.861,2.081,2.081,0,0,1,1.118-.3,2.005,2.005,0,0,1,1.571.672,2.587,2.587,0,0,1,.6,1.789v.057A2.833,2.833,0,0,1,9.4-1.079a2.019,2.019,0,0,1-.76.859A2.105,2.105,0,0,1,7.5.088,2,2,0,0,1,5.938-.584a2.574,2.574,0,0,1-.6-1.78Zm.817.1a2.034,2.034,0,0,0,.367,1.27A1.174,1.174,0,0,0,7.5-.576a1.167,1.167,0,0,0,.984-.486,2.224,2.224,0,0,0,.365-1.36,2.031,2.031,0,0,0-.371-1.268A1.181,1.181,0,0,0,7.5-4.175a1.167,1.167,0,0,0-.971.479A2.208,2.208,0,0,0,6.155-2.325ZM7.865-6.75h.984L7.672-5.458H7.017Zm5.12,2.725a2.436,2.436,0,0,0-.4-.031,1.071,1.071,0,0,0-1.085.681V0h-.813V-4.755h.791l.013.549a1.266,1.266,0,0,1,1.134-.637.831.831,0,0,1,.36.062ZM16.32,0a1.708,1.708,0,0,1-.114-.5,1.814,1.814,0,0,1-1.354.589A1.678,1.678,0,0,1,13.7-.31a1.287,1.287,0,0,1-.45-1.009,1.344,1.344,0,0,1,.565-1.154A2.662,2.662,0,0,1,15.4-2.883h.791v-.374a.913.913,0,0,0-.255-.679,1.024,1.024,0,0,0-.751-.253,1.185,1.185,0,0,0-.729.22.647.647,0,0,0-.294.532h-.817a1.122,1.122,0,0,1,.253-.688,1.725,1.725,0,0,1,.686-.525,2.306,2.306,0,0,1,.951-.193,1.88,1.88,0,0,1,1.288.411A1.482,1.482,0,0,1,17.006-3.3v2.188A2.676,2.676,0,0,0,17.173-.07V0ZM14.971-.62a1.429,1.429,0,0,0,.725-.2,1.2,1.2,0,0,0,.5-.514v-.976h-.637q-1.494,0-1.494.875a.74.74,0,0,0,.255.6A.98.98,0,0,0,14.971-.62Zm4.9-2.4L20.93-4.755h.949L20.324-2.4l1.6,2.4h-.94l-1.1-1.78L18.79,0h-.945l1.6-2.4L17.894-4.755h.94Z" transform="translate(266.421 3110.312)"/>
    <path id="Trazado_996515" data-name="Trazado 996515" d="M5.164-5.7H3.107V0H2.268V-5.7H.215V-6.4H5.164Zm.174,3.283a2.808,2.808,0,0,1,.275-1.257,2.049,2.049,0,0,1,.765-.861,2.081,2.081,0,0,1,1.118-.3,2.005,2.005,0,0,1,1.571.672,2.587,2.587,0,0,1,.6,1.789v.057A2.833,2.833,0,0,1,9.4-1.079a2.019,2.019,0,0,1-.76.859A2.105,2.105,0,0,1,7.5.088,2,2,0,0,1,5.938-.584a2.574,2.574,0,0,1-.6-1.78Zm.817.1a2.034,2.034,0,0,0,.367,1.27A1.174,1.174,0,0,0,7.5-.576a1.167,1.167,0,0,0,.984-.486,2.224,2.224,0,0,0,.365-1.36,2.031,2.031,0,0,0-.371-1.268A1.181,1.181,0,0,0,7.5-4.175a1.167,1.167,0,0,0-.971.479A2.208,2.208,0,0,0,6.155-2.325ZM7.865-6.75h.984L7.672-5.458H7.017Zm5.12,2.725a2.436,2.436,0,0,0-.4-.031,1.071,1.071,0,0,0-1.085.681V0h-.813V-4.755h.791l.013.549a1.266,1.266,0,0,1,1.134-.637.831.831,0,0,1,.36.062ZM16.32,0a1.708,1.708,0,0,1-.114-.5,1.814,1.814,0,0,1-1.354.589A1.678,1.678,0,0,1,13.7-.31a1.287,1.287,0,0,1-.45-1.009,1.344,1.344,0,0,1,.565-1.154A2.662,2.662,0,0,1,15.4-2.883h.791v-.374a.913.913,0,0,0-.255-.679,1.024,1.024,0,0,0-.751-.253,1.185,1.185,0,0,0-.729.22.647.647,0,0,0-.294.532h-.817a1.122,1.122,0,0,1,.253-.688,1.725,1.725,0,0,1,.686-.525,2.306,2.306,0,0,1,.951-.193,1.88,1.88,0,0,1,1.288.411A1.482,1.482,0,0,1,17.006-3.3v2.188A2.676,2.676,0,0,0,17.173-.07V0ZM14.971-.62a1.429,1.429,0,0,0,.725-.2,1.2,1.2,0,0,0,.5-.514v-.976h-.637q-1.494,0-1.494.875a.74.74,0,0,0,.255.6A.98.98,0,0,0,14.971-.62Zm4.9-2.4L20.93-4.755h.949L20.324-2.4l1.6,2.4h-.94l-1.1-1.78L18.79,0h-.945l1.6-2.4L17.894-4.755h.94Z" transform="translate(399.244 3110.312)"/>
    <path id="Trazado_996516" data-name="Trazado 996516" d="M5.66,0H4.812V-2.958H1.586V0H.743V-6.4h.844v2.751H4.812V-6.4H5.66ZM6.816-2.421a2.808,2.808,0,0,1,.275-1.257,2.049,2.049,0,0,1,.765-.861,2.081,2.081,0,0,1,1.118-.3,2.005,2.005,0,0,1,1.571.672,2.587,2.587,0,0,1,.6,1.789v.057a2.833,2.833,0,0,1-.266,1.246,2.019,2.019,0,0,1-.76.859A2.105,2.105,0,0,1,8.982.088,2,2,0,0,1,7.416-.584a2.574,2.574,0,0,1-.6-1.78Zm.817.1A2.034,2.034,0,0,0,8-1.055a1.174,1.174,0,0,0,.982.479,1.167,1.167,0,0,0,.984-.486,2.224,2.224,0,0,0,.365-1.36A2.031,2.031,0,0,0,9.96-3.689a1.181,1.181,0,0,0-.987-.486A1.167,1.167,0,0,0,8-3.7,2.208,2.208,0,0,0,7.633-2.325Zm5.3-2.43.022.527a1.756,1.756,0,0,1,1.411-.615,1.359,1.359,0,0,1,1.358.765,1.8,1.8,0,0,1,.617-.554,1.824,1.824,0,0,1,.9-.211q1.564,0,1.591,1.657V0h-.813V-3.138A1.092,1.092,0,0,0,17.78-3.9,1.026,1.026,0,0,0,17-4.153a1.078,1.078,0,0,0-.751.27,1.1,1.1,0,0,0-.347.727V0h-.817V-3.116a.907.907,0,0,0-1.015-1.037,1.088,1.088,0,0,0-1.094.681V0H12.16V-4.755Zm11.149,2.43a2.827,2.827,0,0,1-.5,1.751,1.6,1.6,0,0,1-1.345.661,1.658,1.658,0,0,1-1.393-.637L20.8,0h-.747V-6.75h.813v2.518a1.648,1.648,0,0,1,1.358-.611,1.61,1.61,0,0,1,1.36.655A2.912,2.912,0,0,1,24.078-2.4Zm-.813-.092A2.2,2.2,0,0,0,22.944-3.7a1.062,1.062,0,0,0-.923-.453,1.194,1.194,0,0,0-1.156.747v2.057A1.227,1.227,0,0,0,22.03-.6a1.056,1.056,0,0,0,.91-.453A2.336,2.336,0,0,0,23.265-2.417ZM27.4-4.025a2.436,2.436,0,0,0-.4-.031,1.071,1.071,0,0,0-1.085.681V0H25.1V-4.755h.791l.013.549a1.266,1.266,0,0,1,1.134-.637.831.831,0,0,1,.36.062Zm.363,1.6a2.808,2.808,0,0,1,.275-1.257A2.049,2.049,0,0,1,28.8-4.54a2.081,2.081,0,0,1,1.118-.3,2.005,2.005,0,0,1,1.571.672,2.587,2.587,0,0,1,.6,1.789v.057a2.833,2.833,0,0,1-.266,1.246,2.019,2.019,0,0,1-.76.859,2.105,2.105,0,0,1-1.136.308,2,2,0,0,1-1.567-.672,2.574,2.574,0,0,1-.6-1.78Zm.817.1a2.034,2.034,0,0,0,.367,1.27,1.174,1.174,0,0,0,.982.479,1.167,1.167,0,0,0,.984-.486,2.224,2.224,0,0,0,.365-1.36,2.031,2.031,0,0,0-.371-1.268,1.181,1.181,0,0,0-.987-.486,1.167,1.167,0,0,0-.971.479A2.208,2.208,0,0,0,28.58-2.325Zm7.3,1.063a.6.6,0,0,0-.248-.512,2.39,2.39,0,0,0-.866-.314,4.093,4.093,0,0,1-.98-.316,1.394,1.394,0,0,1-.536-.439,1.051,1.051,0,0,1-.174-.606,1.233,1.233,0,0,1,.494-.989,1.931,1.931,0,0,1,1.263-.4,1.987,1.987,0,0,1,1.312.417,1.326,1.326,0,0,1,.5,1.068h-.817a.734.734,0,0,0-.283-.576,1.062,1.062,0,0,0-.714-.242,1.111,1.111,0,0,0-.694.193.609.609,0,0,0-.25.505.493.493,0,0,0,.233.444,2.866,2.866,0,0,0,.842.286,4.385,4.385,0,0,1,.987.325,1.439,1.439,0,0,1,.56.455,1.118,1.118,0,0,1,.182.648A1.217,1.217,0,0,1,36.183-.3,2.138,2.138,0,0,1,34.86.088a2.394,2.394,0,0,1-1.011-.2,1.644,1.644,0,0,1-.688-.565,1.361,1.361,0,0,1-.248-.784h.813a.842.842,0,0,0,.327.648,1.27,1.27,0,0,0,.806.24,1.311,1.311,0,0,0,.74-.187A.574.574,0,0,0,35.879-1.261Z" transform="translate(551.872 3120.773)"/>
    <path id="Trazado_996517" data-name="Trazado 996517" d="M5.66,0H4.812V-2.958H1.586V0H.743V-6.4h.844v2.751H4.812V-6.4H5.66ZM6.816-2.421a2.808,2.808,0,0,1,.275-1.257,2.049,2.049,0,0,1,.765-.861,2.081,2.081,0,0,1,1.118-.3,2.005,2.005,0,0,1,1.571.672,2.587,2.587,0,0,1,.6,1.789v.057a2.833,2.833,0,0,1-.266,1.246,2.019,2.019,0,0,1-.76.859A2.105,2.105,0,0,1,8.982.088,2,2,0,0,1,7.416-.584a2.574,2.574,0,0,1-.6-1.78Zm.817.1A2.034,2.034,0,0,0,8-1.055a1.174,1.174,0,0,0,.982.479,1.167,1.167,0,0,0,.984-.486,2.224,2.224,0,0,0,.365-1.36A2.031,2.031,0,0,0,9.96-3.689a1.181,1.181,0,0,0-.987-.486A1.167,1.167,0,0,0,8-3.7,2.208,2.208,0,0,0,7.633-2.325Zm5.3-2.43.022.527a1.756,1.756,0,0,1,1.411-.615,1.359,1.359,0,0,1,1.358.765,1.8,1.8,0,0,1,.617-.554,1.824,1.824,0,0,1,.9-.211q1.564,0,1.591,1.657V0h-.813V-3.138A1.092,1.092,0,0,0,17.78-3.9,1.026,1.026,0,0,0,17-4.153a1.078,1.078,0,0,0-.751.27,1.1,1.1,0,0,0-.347.727V0h-.817V-3.116a.907.907,0,0,0-1.015-1.037,1.088,1.088,0,0,0-1.094.681V0H12.16V-4.755Zm11.149,2.43a2.827,2.827,0,0,1-.5,1.751,1.6,1.6,0,0,1-1.345.661,1.658,1.658,0,0,1-1.393-.637L20.8,0h-.747V-6.75h.813v2.518a1.648,1.648,0,0,1,1.358-.611,1.61,1.61,0,0,1,1.36.655A2.912,2.912,0,0,1,24.078-2.4Zm-.813-.092A2.2,2.2,0,0,0,22.944-3.7a1.062,1.062,0,0,0-.923-.453,1.194,1.194,0,0,0-1.156.747v2.057A1.227,1.227,0,0,0,22.03-.6a1.056,1.056,0,0,0,.91-.453A2.336,2.336,0,0,0,23.265-2.417ZM27.4-4.025a2.436,2.436,0,0,0-.4-.031,1.071,1.071,0,0,0-1.085.681V0H25.1V-4.755h.791l.013.549a1.266,1.266,0,0,1,1.134-.637.831.831,0,0,1,.36.062Zm.363,1.6a2.808,2.808,0,0,1,.275-1.257A2.049,2.049,0,0,1,28.8-4.54a2.081,2.081,0,0,1,1.118-.3,2.005,2.005,0,0,1,1.571.672,2.587,2.587,0,0,1,.6,1.789v.057a2.833,2.833,0,0,1-.266,1.246,2.019,2.019,0,0,1-.76.859,2.105,2.105,0,0,1-1.136.308,2,2,0,0,1-1.567-.672,2.574,2.574,0,0,1-.6-1.78Zm.817.1a2.034,2.034,0,0,0,.367,1.27,1.174,1.174,0,0,0,.982.479,1.167,1.167,0,0,0,.984-.486,2.224,2.224,0,0,0,.365-1.36,2.031,2.031,0,0,0-.371-1.268,1.181,1.181,0,0,0-.987-.486,1.167,1.167,0,0,0-.971.479A2.208,2.208,0,0,0,28.58-2.325Zm7.3,1.063a.6.6,0,0,0-.248-.512,2.39,2.39,0,0,0-.866-.314,4.093,4.093,0,0,1-.98-.316,1.394,1.394,0,0,1-.536-.439,1.051,1.051,0,0,1-.174-.606,1.233,1.233,0,0,1,.494-.989,1.931,1.931,0,0,1,1.263-.4,1.987,1.987,0,0,1,1.312.417,1.326,1.326,0,0,1,.5,1.068h-.817a.734.734,0,0,0-.283-.576,1.062,1.062,0,0,0-.714-.242,1.111,1.111,0,0,0-.694.193.609.609,0,0,0-.25.505.493.493,0,0,0,.233.444,2.866,2.866,0,0,0,.842.286,4.385,4.385,0,0,1,.987.325,1.439,1.439,0,0,1,.56.455,1.118,1.118,0,0,1,.182.648A1.217,1.217,0,0,1,36.183-.3,2.138,2.138,0,0,1,34.86.088a2.394,2.394,0,0,1-1.011-.2,1.644,1.644,0,0,1-.688-.565,1.361,1.361,0,0,1-.248-.784h.813a.842.842,0,0,0,.327.648,1.27,1.27,0,0,0,.806.24,1.311,1.311,0,0,0,.74-.187A.574.574,0,0,0,35.879-1.261Z" transform="translate(659.084 3120.773)"/>
    <path id="Trazado_996518" data-name="Trazado 996518" d="M1.591-.69H4.623V0H.743V-6.4h.848ZM6.341,0H5.524V-4.755h.817ZM6.35-6.746h.984L6.157-5.454H5.5Zm2.1,1.991.026.6A1.733,1.733,0,0,1,9.9-4.843q1.507,0,1.521,1.7V0h-.813V-3.146a1.1,1.1,0,0,0-.235-.76.942.942,0,0,0-.719-.246,1.173,1.173,0,0,0-.694.211,1.432,1.432,0,0,0-.466.554V0H7.682V-4.755ZM14.621.088a2.078,2.078,0,0,1-1.573-.635,2.357,2.357,0,0,1-.606-1.7V-2.4a2.853,2.853,0,0,1,.27-1.263,2.108,2.108,0,0,1,.756-.87,1.9,1.9,0,0,1,1.052-.314,1.781,1.781,0,0,1,1.441.611,2.645,2.645,0,0,1,.514,1.749v.338H13.254a1.69,1.69,0,0,0,.411,1.136,1.292,1.292,0,0,0,1,.433,1.416,1.416,0,0,0,.729-.176,1.833,1.833,0,0,0,.523-.466l.5.387A2,2,0,0,1,14.621.088Zm-.1-4.263a1.084,1.084,0,0,0-.826.358,1.741,1.741,0,0,0-.413,1h2.382v-.062a1.548,1.548,0,0,0-.334-.96A1.021,1.021,0,0,0,14.52-4.175ZM20.351,0a1.708,1.708,0,0,1-.114-.5,1.814,1.814,0,0,1-1.354.589,1.678,1.678,0,0,1-1.154-.4,1.287,1.287,0,0,1-.45-1.009,1.344,1.344,0,0,1,.565-1.154,2.662,2.662,0,0,1,1.589-.411h.791v-.374a.913.913,0,0,0-.255-.679,1.024,1.024,0,0,0-.751-.253,1.185,1.185,0,0,0-.729.22.647.647,0,0,0-.294.532h-.817a1.122,1.122,0,0,1,.253-.688,1.725,1.725,0,0,1,.686-.525,2.306,2.306,0,0,1,.951-.193,1.88,1.88,0,0,1,1.288.411A1.482,1.482,0,0,1,21.037-3.3v2.188A2.676,2.676,0,0,0,21.2-.07V0ZM19-.62a1.429,1.429,0,0,0,.725-.2,1.2,1.2,0,0,0,.5-.514v-.976h-.637q-1.494,0-1.494.875a.74.74,0,0,0,.255.6A.98.98,0,0,0,19-.62Zm9.563-1.705a2.827,2.827,0,0,1-.5,1.751,1.6,1.6,0,0,1-1.345.661,1.658,1.658,0,0,1-1.393-.637L25.286,0h-.747V-6.75h.813v2.518a1.648,1.648,0,0,1,1.358-.611,1.61,1.61,0,0,1,1.36.655A2.912,2.912,0,0,1,28.564-2.4Zm-.813-.092A2.2,2.2,0,0,0,27.431-3.7a1.062,1.062,0,0,0-.923-.453,1.194,1.194,0,0,0-1.156.747v2.057A1.227,1.227,0,0,0,26.517-.6a1.056,1.056,0,0,0,.91-.453A2.336,2.336,0,0,0,27.751-2.417ZM32.524-.47a1.727,1.727,0,0,1-1.393.558,1.478,1.478,0,0,1-1.158-.442,1.912,1.912,0,0,1-.4-1.307V-4.755h.813v3.072q0,1.081.879,1.081A1.217,1.217,0,0,0,32.5-1.3V-4.755h.813V0h-.773Zm4.794-.791a.6.6,0,0,0-.248-.512,2.39,2.39,0,0,0-.866-.314,4.093,4.093,0,0,1-.98-.316,1.394,1.394,0,0,1-.536-.439,1.051,1.051,0,0,1-.174-.606,1.233,1.233,0,0,1,.494-.989,1.931,1.931,0,0,1,1.263-.4,1.987,1.987,0,0,1,1.312.417,1.326,1.326,0,0,1,.5,1.068H37.27a.734.734,0,0,0-.283-.576,1.062,1.062,0,0,0-.714-.242,1.111,1.111,0,0,0-.694.193.609.609,0,0,0-.25.505.493.493,0,0,0,.233.444,2.866,2.866,0,0,0,.842.286,4.385,4.385,0,0,1,.987.325,1.439,1.439,0,0,1,.56.455,1.118,1.118,0,0,1,.182.648A1.217,1.217,0,0,1,37.622-.3,2.138,2.138,0,0,1,36.3.088a2.394,2.394,0,0,1-1.011-.2A1.644,1.644,0,0,1,34.6-.679a1.361,1.361,0,0,1-.248-.784h.813a.842.842,0,0,0,.327.648,1.27,1.27,0,0,0,.806.24,1.311,1.311,0,0,0,.74-.187A.574.574,0,0,0,37.318-1.261Zm2.975-4.645v1.151h.888v.628h-.888v2.949a.659.659,0,0,0,.119.428.5.5,0,0,0,.4.143A1.968,1.968,0,0,0,41.2-.659V0a2.357,2.357,0,0,1-.624.088,1.012,1.012,0,0,1-.822-.33,1.416,1.416,0,0,1-.277-.936V-4.126h-.866v-.628h.866V-5.906Zm1.444,3.485a2.808,2.808,0,0,1,.275-1.257,2.049,2.049,0,0,1,.765-.861,2.081,2.081,0,0,1,1.118-.3,2.005,2.005,0,0,1,1.571.672,2.587,2.587,0,0,1,.6,1.789v.057A2.833,2.833,0,0,1,45.8-1.079a2.019,2.019,0,0,1-.76.859A2.105,2.105,0,0,1,43.9.088a2,2,0,0,1-1.567-.672,2.574,2.574,0,0,1-.6-1.78Zm.817.1a2.034,2.034,0,0,0,.367,1.27,1.174,1.174,0,0,0,.982.479,1.167,1.167,0,0,0,.984-.486,2.224,2.224,0,0,0,.365-1.36,2.031,2.031,0,0,0-.371-1.268,1.181,1.181,0,0,0-.987-.486,1.167,1.167,0,0,0-.971.479A2.208,2.208,0,0,0,42.555-2.325Z" transform="translate(318.998 3149.313)"/>
    <path id="Trazado_996519" data-name="Trazado 996519" d="M1.591-.69H4.623V0H.743V-6.4h.848ZM6.341,0H5.524V-4.755h.817ZM6.35-6.746h.984L6.157-5.454H5.5Zm2.1,1.991.026.6A1.733,1.733,0,0,1,9.9-4.843q1.507,0,1.521,1.7V0h-.813V-3.146a1.1,1.1,0,0,0-.235-.76.942.942,0,0,0-.719-.246,1.173,1.173,0,0,0-.694.211,1.432,1.432,0,0,0-.466.554V0H7.682V-4.755ZM14.621.088a2.078,2.078,0,0,1-1.573-.635,2.357,2.357,0,0,1-.606-1.7V-2.4a2.853,2.853,0,0,1,.27-1.263,2.108,2.108,0,0,1,.756-.87,1.9,1.9,0,0,1,1.052-.314,1.781,1.781,0,0,1,1.441.611,2.645,2.645,0,0,1,.514,1.749v.338H13.254a1.69,1.69,0,0,0,.411,1.136,1.292,1.292,0,0,0,1,.433,1.416,1.416,0,0,0,.729-.176,1.833,1.833,0,0,0,.523-.466l.5.387A2,2,0,0,1,14.621.088Zm-.1-4.263a1.084,1.084,0,0,0-.826.358,1.741,1.741,0,0,0-.413,1h2.382v-.062a1.548,1.548,0,0,0-.334-.96A1.021,1.021,0,0,0,14.52-4.175ZM20.351,0a1.708,1.708,0,0,1-.114-.5,1.814,1.814,0,0,1-1.354.589,1.678,1.678,0,0,1-1.154-.4,1.287,1.287,0,0,1-.45-1.009,1.344,1.344,0,0,1,.565-1.154,2.662,2.662,0,0,1,1.589-.411h.791v-.374a.913.913,0,0,0-.255-.679,1.024,1.024,0,0,0-.751-.253,1.185,1.185,0,0,0-.729.22.647.647,0,0,0-.294.532h-.817a1.122,1.122,0,0,1,.253-.688,1.725,1.725,0,0,1,.686-.525,2.306,2.306,0,0,1,.951-.193,1.88,1.88,0,0,1,1.288.411A1.482,1.482,0,0,1,21.037-3.3v2.188A2.676,2.676,0,0,0,21.2-.07V0ZM19-.62a1.429,1.429,0,0,0,.725-.2,1.2,1.2,0,0,0,.5-.514v-.976h-.637q-1.494,0-1.494.875a.74.74,0,0,0,.255.6A.98.98,0,0,0,19-.62Zm9.563-1.705a2.827,2.827,0,0,1-.5,1.751,1.6,1.6,0,0,1-1.345.661,1.658,1.658,0,0,1-1.393-.637L25.286,0h-.747V-6.75h.813v2.518a1.648,1.648,0,0,1,1.358-.611,1.61,1.61,0,0,1,1.36.655A2.912,2.912,0,0,1,28.564-2.4Zm-.813-.092A2.2,2.2,0,0,0,27.431-3.7a1.062,1.062,0,0,0-.923-.453,1.194,1.194,0,0,0-1.156.747v2.057A1.227,1.227,0,0,0,26.517-.6a1.056,1.056,0,0,0,.91-.453A2.336,2.336,0,0,0,27.751-2.417ZM32.524-.47a1.727,1.727,0,0,1-1.393.558,1.478,1.478,0,0,1-1.158-.442,1.912,1.912,0,0,1-.4-1.307V-4.755h.813v3.072q0,1.081.879,1.081A1.217,1.217,0,0,0,32.5-1.3V-4.755h.813V0h-.773Zm4.794-.791a.6.6,0,0,0-.248-.512,2.39,2.39,0,0,0-.866-.314,4.093,4.093,0,0,1-.98-.316,1.394,1.394,0,0,1-.536-.439,1.051,1.051,0,0,1-.174-.606,1.233,1.233,0,0,1,.494-.989,1.931,1.931,0,0,1,1.263-.4,1.987,1.987,0,0,1,1.312.417,1.326,1.326,0,0,1,.5,1.068H37.27a.734.734,0,0,0-.283-.576,1.062,1.062,0,0,0-.714-.242,1.111,1.111,0,0,0-.694.193.609.609,0,0,0-.25.505.493.493,0,0,0,.233.444,2.866,2.866,0,0,0,.842.286,4.385,4.385,0,0,1,.987.325,1.439,1.439,0,0,1,.56.455,1.118,1.118,0,0,1,.182.648A1.217,1.217,0,0,1,37.622-.3,2.138,2.138,0,0,1,36.3.088a2.394,2.394,0,0,1-1.011-.2A1.644,1.644,0,0,1,34.6-.679a1.361,1.361,0,0,1-.248-.784h.813a.842.842,0,0,0,.327.648,1.27,1.27,0,0,0,.806.24,1.311,1.311,0,0,0,.74-.187A.574.574,0,0,0,37.318-1.261Zm2.975-4.645v1.151h.888v.628h-.888v2.949a.659.659,0,0,0,.119.428.5.5,0,0,0,.4.143A1.968,1.968,0,0,0,41.2-.659V0a2.357,2.357,0,0,1-.624.088,1.012,1.012,0,0,1-.822-.33,1.416,1.416,0,0,1-.277-.936V-4.126h-.866v-.628h.866V-5.906Zm1.444,3.485a2.808,2.808,0,0,1,.275-1.257,2.049,2.049,0,0,1,.765-.861,2.081,2.081,0,0,1,1.118-.3,2.005,2.005,0,0,1,1.571.672,2.587,2.587,0,0,1,.6,1.789v.057A2.833,2.833,0,0,1,45.8-1.079a2.019,2.019,0,0,1-.76.859A2.105,2.105,0,0,1,43.9.088a2,2,0,0,1-1.567-.672,2.574,2.574,0,0,1-.6-1.78Zm.817.1a2.034,2.034,0,0,0,.367,1.27,1.174,1.174,0,0,0,.982.479,1.167,1.167,0,0,0,.984-.486,2.224,2.224,0,0,0,.365-1.36,2.031,2.031,0,0,0-.371-1.268,1.181,1.181,0,0,0-.987-.486,1.167,1.167,0,0,0-.971.479A2.208,2.208,0,0,0,42.555-2.325Z" transform="translate(599.565 3157.508)"/>
    <path id="Trazado_996520" data-name="Trazado 996520" d="M.762,0V-8.531H3.387A3.986,3.986,0,0,1,5.4-8.024,3.534,3.534,0,0,1,6.785-6.583a4.446,4.446,0,0,1,.5,2.124v.393a4.458,4.458,0,0,1-.489,2.115A3.5,3.5,0,0,1,5.414-.516,4.016,4.016,0,0,1,3.4,0ZM2.52-7.107v5.7h.85a1.909,1.909,0,0,0,1.576-.674A3.045,3.045,0,0,0,5.5-4.014v-.451a3.093,3.093,0,0,0-.539-1.972,1.9,1.9,0,0,0-1.576-.671ZM13.693-3.7H10.318v2.285h3.961V0H8.561V-8.531h5.707v1.424H10.318v2.033h3.375Zm3.375,2.285H20.8V0h-5.49V-8.531h1.758Zm9.776-.346H23.762L23.176,0H21.307l3.176-8.531h1.629L29.305,0H27.436ZM24.237-3.182H26.37L25.3-6.375ZM37.04,0H35.282L31.86-5.613V0H30.1V-8.531H31.86l3.428,5.625V-8.531H37.04Zm7.789-7.107H42.215V0H40.458V-7.107H37.879V-8.531h6.949ZM50.963-3.7H47.588v2.285h3.961V0H45.831V-8.531h5.707v1.424H47.588v2.033h3.375Zm4.775.574h-1.4V0H52.581V-8.531h3.17a3.583,3.583,0,0,1,2.332.674,2.326,2.326,0,0,1,.82,1.9A2.625,2.625,0,0,1,58.525-4.5a2.578,2.578,0,0,1-1.146.929L59.225-.082V0H57.338Zm-1.4-1.424h1.418a1.452,1.452,0,0,0,1.025-.337,1.2,1.2,0,0,0,.363-.929,1.289,1.289,0,0,0-.343-.949,1.424,1.424,0,0,0-1.052-.346H54.338ZM65.055-1.758H61.973L61.387,0H59.518l3.176-8.531h1.629L67.516,0H65.647ZM62.448-3.182h2.133L63.508-6.375Z" transform="translate(266.041 3180.589)"/>
    <path id="Trazado_996521" data-name="Trazado 996521" d="M1.591-.69H4.623V0H.743V-6.4h.848ZM6.341,0H5.524V-4.755h.817ZM6.35-6.746h.984L6.157-5.454H5.5Zm2.1,1.991.026.6A1.733,1.733,0,0,1,9.9-4.843q1.507,0,1.521,1.7V0h-.813V-3.146a1.1,1.1,0,0,0-.235-.76.942.942,0,0,0-.719-.246,1.173,1.173,0,0,0-.694.211,1.432,1.432,0,0,0-.466.554V0H7.682V-4.755ZM14.621.088a2.078,2.078,0,0,1-1.573-.635,2.357,2.357,0,0,1-.606-1.7V-2.4a2.853,2.853,0,0,1,.27-1.263,2.108,2.108,0,0,1,.756-.87,1.9,1.9,0,0,1,1.052-.314,1.781,1.781,0,0,1,1.441.611,2.645,2.645,0,0,1,.514,1.749v.338H13.254a1.69,1.69,0,0,0,.411,1.136,1.292,1.292,0,0,0,1,.433,1.416,1.416,0,0,0,.729-.176,1.833,1.833,0,0,0,.523-.466l.5.387A2,2,0,0,1,14.621.088Zm-.1-4.263a1.084,1.084,0,0,0-.826.358,1.741,1.741,0,0,0-.413,1h2.382v-.062a1.548,1.548,0,0,0-.334-.96A1.021,1.021,0,0,0,14.52-4.175ZM20.351,0a1.708,1.708,0,0,1-.114-.5,1.814,1.814,0,0,1-1.354.589,1.678,1.678,0,0,1-1.154-.4,1.287,1.287,0,0,1-.45-1.009,1.344,1.344,0,0,1,.565-1.154,2.662,2.662,0,0,1,1.589-.411h.791v-.374a.913.913,0,0,0-.255-.679,1.024,1.024,0,0,0-.751-.253,1.185,1.185,0,0,0-.729.22.647.647,0,0,0-.294.532h-.817a1.122,1.122,0,0,1,.253-.688,1.725,1.725,0,0,1,.686-.525,2.306,2.306,0,0,1,.951-.193,1.88,1.88,0,0,1,1.288.411A1.482,1.482,0,0,1,21.037-3.3v2.188A2.676,2.676,0,0,0,21.2-.07V0ZM19-.62a1.429,1.429,0,0,0,.725-.2,1.2,1.2,0,0,0,.5-.514v-.976h-.637q-1.494,0-1.494.875a.74.74,0,0,0,.255.6A.98.98,0,0,0,19-.62Zm7.444.044a1.171,1.171,0,0,0,.76-.264.928.928,0,0,0,.36-.659h.769a1.474,1.474,0,0,1-.281.778,1.852,1.852,0,0,1-.692.589,2,2,0,0,1-.916.22A1.959,1.959,0,0,1,24.9-.56a2.582,2.582,0,0,1-.573-1.773V-2.47A2.863,2.863,0,0,1,24.583-3.7a1.941,1.941,0,0,1,.732-.839,2.078,2.078,0,0,1,1.127-.3,1.907,1.907,0,0,1,1.329.479,1.712,1.712,0,0,1,.565,1.244h-.769a1.12,1.12,0,0,0-.349-.758,1.087,1.087,0,0,0-.776-.3,1.138,1.138,0,0,0-.96.446,2.1,2.1,0,0,0-.341,1.29v.154a2.053,2.053,0,0,0,.338,1.266A1.143,1.143,0,0,0,26.446-.576ZM30.133,0H29.32V-4.755h.813Zm-.879-6.016a.485.485,0,0,1,.121-.334.454.454,0,0,1,.358-.136.461.461,0,0,1,.36.136.48.48,0,0,1,.123.334.464.464,0,0,1-.123.33.469.469,0,0,1-.36.132.462.462,0,0,1-.358-.132A.469.469,0,0,1,29.254-6.016ZM32.2-4.755l.026.6a1.733,1.733,0,0,1,1.424-.686q1.507,0,1.521,1.7V0h-.813V-3.146a1.1,1.1,0,0,0-.235-.76.942.942,0,0,0-.719-.246,1.173,1.173,0,0,0-.694.211,1.432,1.432,0,0,0-.466.554V0h-.813V-4.755Zm5.3-1.151v1.151h.888v.628H37.5v2.949a.659.659,0,0,0,.119.428.5.5,0,0,0,.4.143,1.968,1.968,0,0,0,.387-.053V0a2.357,2.357,0,0,1-.624.088,1.012,1.012,0,0,1-.822-.33,1.416,1.416,0,0,1-.277-.936V-4.126h-.866v-.628h.866V-5.906ZM42.275-.47a1.727,1.727,0,0,1-1.393.558,1.478,1.478,0,0,1-1.158-.442,1.912,1.912,0,0,1-.4-1.307V-4.755h.813v3.072q0,1.081.879,1.081A1.217,1.217,0,0,0,42.253-1.3V-4.755h.813V0h-.773ZM46.6-4.025a2.436,2.436,0,0,0-.4-.031,1.071,1.071,0,0,0-1.085.681V0H44.3V-4.755h.791l.013.549a1.266,1.266,0,0,1,1.134-.637.831.831,0,0,1,.36.062ZM49.926,0a1.708,1.708,0,0,1-.114-.5,1.814,1.814,0,0,1-1.354.589,1.678,1.678,0,0,1-1.154-.4,1.287,1.287,0,0,1-.45-1.009,1.344,1.344,0,0,1,.565-1.154,2.662,2.662,0,0,1,1.589-.411H49.8v-.374a.913.913,0,0,0-.255-.679,1.024,1.024,0,0,0-.751-.253,1.185,1.185,0,0,0-.729.22.647.647,0,0,0-.294.532h-.817a1.122,1.122,0,0,1,.253-.688,1.725,1.725,0,0,1,.686-.525,2.306,2.306,0,0,1,.951-.193,1.88,1.88,0,0,1,1.288.411A1.482,1.482,0,0,1,50.612-3.3v2.188A2.676,2.676,0,0,0,50.779-.07V0ZM48.577-.62a1.429,1.429,0,0,0,.725-.2,1.2,1.2,0,0,0,.5-.514v-.976h-.637q-1.494,0-1.494.875a.74.74,0,0,0,.255.6A.98.98,0,0,0,48.577-.62Z" transform="translate(312.392 3254.012)"/>
    <path id="Trazado_996522" data-name="Trazado 996522" d="M1.591-.69H4.623V0H.743V-6.4h.848ZM6.341,0H5.524V-4.755h.817ZM6.35-6.746h.984L6.157-5.454H5.5Zm2.1,1.991.026.6A1.733,1.733,0,0,1,9.9-4.843q1.507,0,1.521,1.7V0h-.813V-3.146a1.1,1.1,0,0,0-.235-.76.942.942,0,0,0-.719-.246,1.173,1.173,0,0,0-.694.211,1.432,1.432,0,0,0-.466.554V0H7.682V-4.755ZM14.621.088a2.078,2.078,0,0,1-1.573-.635,2.357,2.357,0,0,1-.606-1.7V-2.4a2.853,2.853,0,0,1,.27-1.263,2.108,2.108,0,0,1,.756-.87,1.9,1.9,0,0,1,1.052-.314,1.781,1.781,0,0,1,1.441.611,2.645,2.645,0,0,1,.514,1.749v.338H13.254a1.69,1.69,0,0,0,.411,1.136,1.292,1.292,0,0,0,1,.433,1.416,1.416,0,0,0,.729-.176,1.833,1.833,0,0,0,.523-.466l.5.387A2,2,0,0,1,14.621.088Zm-.1-4.263a1.084,1.084,0,0,0-.826.358,1.741,1.741,0,0,0-.413,1h2.382v-.062a1.548,1.548,0,0,0-.334-.96A1.021,1.021,0,0,0,14.52-4.175ZM20.351,0a1.708,1.708,0,0,1-.114-.5,1.814,1.814,0,0,1-1.354.589,1.678,1.678,0,0,1-1.154-.4,1.287,1.287,0,0,1-.45-1.009,1.344,1.344,0,0,1,.565-1.154,2.662,2.662,0,0,1,1.589-.411h.791v-.374a.913.913,0,0,0-.255-.679,1.024,1.024,0,0,0-.751-.253,1.185,1.185,0,0,0-.729.22.647.647,0,0,0-.294.532h-.817a1.122,1.122,0,0,1,.253-.688,1.725,1.725,0,0,1,.686-.525,2.306,2.306,0,0,1,.951-.193,1.88,1.88,0,0,1,1.288.411A1.482,1.482,0,0,1,21.037-3.3v2.188A2.676,2.676,0,0,0,21.2-.07V0ZM19-.62a1.429,1.429,0,0,0,.725-.2,1.2,1.2,0,0,0,.5-.514v-.976h-.637q-1.494,0-1.494.875a.74.74,0,0,0,.255.6A.98.98,0,0,0,19-.62Zm7.444.044a1.171,1.171,0,0,0,.76-.264.928.928,0,0,0,.36-.659h.769a1.474,1.474,0,0,1-.281.778,1.852,1.852,0,0,1-.692.589,2,2,0,0,1-.916.22A1.959,1.959,0,0,1,24.9-.56a2.582,2.582,0,0,1-.573-1.773V-2.47A2.863,2.863,0,0,1,24.583-3.7a1.941,1.941,0,0,1,.732-.839,2.078,2.078,0,0,1,1.127-.3,1.907,1.907,0,0,1,1.329.479,1.712,1.712,0,0,1,.565,1.244h-.769a1.12,1.12,0,0,0-.349-.758,1.087,1.087,0,0,0-.776-.3,1.138,1.138,0,0,0-.96.446,2.1,2.1,0,0,0-.341,1.29v.154a2.053,2.053,0,0,0,.338,1.266A1.143,1.143,0,0,0,26.446-.576ZM30.133,0H29.32V-4.755h.813Zm-.879-6.016a.485.485,0,0,1,.121-.334.454.454,0,0,1,.358-.136.461.461,0,0,1,.36.136.48.48,0,0,1,.123.334.464.464,0,0,1-.123.33.469.469,0,0,1-.36.132.462.462,0,0,1-.358-.132A.469.469,0,0,1,29.254-6.016ZM32.2-4.755l.026.6a1.733,1.733,0,0,1,1.424-.686q1.507,0,1.521,1.7V0h-.813V-3.146a1.1,1.1,0,0,0-.235-.76.942.942,0,0,0-.719-.246,1.173,1.173,0,0,0-.694.211,1.432,1.432,0,0,0-.466.554V0h-.813V-4.755Zm5.3-1.151v1.151h.888v.628H37.5v2.949a.659.659,0,0,0,.119.428.5.5,0,0,0,.4.143,1.968,1.968,0,0,0,.387-.053V0a2.357,2.357,0,0,1-.624.088,1.012,1.012,0,0,1-.822-.33,1.416,1.416,0,0,1-.277-.936V-4.126h-.866v-.628h.866V-5.906ZM42.275-.47a1.727,1.727,0,0,1-1.393.558,1.478,1.478,0,0,1-1.158-.442,1.912,1.912,0,0,1-.4-1.307V-4.755h.813v3.072q0,1.081.879,1.081A1.217,1.217,0,0,0,42.253-1.3V-4.755h.813V0h-.773ZM46.6-4.025a2.436,2.436,0,0,0-.4-.031,1.071,1.071,0,0,0-1.085.681V0H44.3V-4.755h.791l.013.549a1.266,1.266,0,0,1,1.134-.637.831.831,0,0,1,.36.062ZM49.926,0a1.708,1.708,0,0,1-.114-.5,1.814,1.814,0,0,1-1.354.589,1.678,1.678,0,0,1-1.154-.4,1.287,1.287,0,0,1-.45-1.009,1.344,1.344,0,0,1,.565-1.154,2.662,2.662,0,0,1,1.589-.411H49.8v-.374a.913.913,0,0,0-.255-.679,1.024,1.024,0,0,0-.751-.253,1.185,1.185,0,0,0-.729.22.647.647,0,0,0-.294.532h-.817a1.122,1.122,0,0,1,.253-.688,1.725,1.725,0,0,1,.686-.525,2.306,2.306,0,0,1,.951-.193,1.88,1.88,0,0,1,1.288.411A1.482,1.482,0,0,1,50.612-3.3v2.188A2.676,2.676,0,0,0,50.779-.07V0ZM48.577-.62a1.429,1.429,0,0,0,.725-.2,1.2,1.2,0,0,0,.5-.514v-.976h-.637q-1.494,0-1.494.875a.74.74,0,0,0,.255.6A.98.98,0,0,0,48.577-.62Z" transform="translate(596.756 3257.033)"/>
    <path id="Trazado_996523" data-name="Trazado 996523" d="M7.184-7.107H4.57V0H2.813V-7.107H.234V-8.531H7.184Zm4.16,3.984h-1.4V0H8.186V-8.531h3.17a3.583,3.583,0,0,1,2.332.674,2.326,2.326,0,0,1,.82,1.9A2.625,2.625,0,0,1,14.13-4.5a2.578,2.578,0,0,1-1.146.929L14.83-.082V0H12.943Zm-1.4-1.424h1.418a1.452,1.452,0,0,0,1.025-.337,1.2,1.2,0,0,0,.363-.929,1.289,1.289,0,0,0-.343-.949,1.424,1.424,0,0,0-1.052-.346H9.943ZM20.66-1.758H17.578L16.992,0H15.123L18.3-8.531h1.629L23.121,0H21.252ZM18.053-3.182h2.133L19.113-6.375Zm10.289.943A.9.9,0,0,0,27.99-3a4.611,4.611,0,0,0-1.266-.562,8.972,8.972,0,0,1-1.447-.583,2.365,2.365,0,0,1-1.453-2.115,2.06,2.06,0,0,1,.39-1.233,2.542,2.542,0,0,1,1.119-.847,4.212,4.212,0,0,1,1.638-.3,3.834,3.834,0,0,1,1.629.331,2.594,2.594,0,0,1,1.11.935,2.445,2.445,0,0,1,.4,1.371H28.348a1.15,1.15,0,0,0-.369-.911,1.517,1.517,0,0,0-1.037-.325,1.621,1.621,0,0,0-1,.272.859.859,0,0,0-.357.718.823.823,0,0,0,.419.7,4.733,4.733,0,0,0,1.233.527A5.329,5.329,0,0,1,29.42-3.914a2.229,2.229,0,0,1,.686,1.664,2.053,2.053,0,0,1-.838,1.737,3.668,3.668,0,0,1-2.256.63,4.356,4.356,0,0,1-1.793-.36,2.837,2.837,0,0,1-1.233-.987,2.528,2.528,0,0,1-.425-1.453h1.764q0,1.412,1.688,1.412a1.642,1.642,0,0,0,.979-.255A.829.829,0,0,0,28.342-2.238ZM36.428-3.7H33.053v2.285h3.961V0H31.295V-8.531H37v1.424H33.053v2.033h3.375Zm4.775.574H39.8V0H38.045V-8.531h3.17a3.583,3.583,0,0,1,2.332.674,2.326,2.326,0,0,1,.82,1.9A2.625,2.625,0,0,1,43.989-4.5a2.578,2.578,0,0,1-1.146.929L44.689-.082V0H42.8ZM39.8-4.547h1.418a1.452,1.452,0,0,0,1.025-.337,1.2,1.2,0,0,0,.363-.929,1.289,1.289,0,0,0-.343-.949,1.424,1.424,0,0,0-1.052-.346H39.8ZM50.52-1.758H47.438L46.852,0H44.982l3.176-8.531h1.629L52.98,0H51.111ZM47.912-3.182h2.133L48.973-6.375Z" transform="translate(638.946 3187.135)"/>
  </g>
</svg>
